<svg xmlns="http://www.w3.org/2000/svg" width="95" height="81.031" viewBox="0 0 95 81.031">
  <g id="bbb" transform="translate(0 -37.641)">
    <g id="Group_1205074" data-name="Group 1205074" transform="translate(1.392 39.035)">
      <path id="Path_1246176" data-name="Path 1246176" d="M184.328,301.157l-1.746,13.97-1.048,8.386-6.985-2.795-.4-5.591-1-13.97Z" transform="translate(-142.411 -253.651)" fill="#c2c0cb"/>
      <path id="Path_1246177" data-name="Path 1246177" d="M173.151,301.157h11.177l-1.746,13.97h-8.432Z" transform="translate(-142.411 -253.651)" fill="#b3b0be"/>
      <path id="Path_1246178" data-name="Path 1246178" d="M364.97,301.157l-1.575,12.6-1.219,9.757-6.987-2.795-.4-5.591-1-13.97Z" transform="translate(-289.53 -253.651)" fill="#c2c0cb"/>
      <path id="Path_1246179" data-name="Path 1246179" d="M364.97,301.157l-1.575,12.6a11.077,11.077,0,0,1-5.355,1.371h-3.249l-1-13.97Z" transform="translate(-289.53 -253.651)" fill="#b3b0be"/>
      <path id="Path_1246180" data-name="Path 1246180" d="M148.283,165.627v22.4a11.135,11.135,0,0,1-11.134,11.134H132.04a5.567,5.567,0,0,0-5.491,4.652l-2.019,12.116-6.987-2.795-.9-8.959a5.567,5.567,0,0,0-5.539-5.014h-8.052l-1.637-.353-1.44.353h-.445a5.567,5.567,0,0,0-5.4,4.218L91,215.927l-6.987-2.795-1.438-24.462,2.041-5.665-.726-7.944v0a16.7,16.7,0,0,1,15.04-9.432Z" transform="translate(-68.64 -143.271)" fill="#dad9e0"/>
      <path id="Path_1246181" data-name="Path 1246181" d="M103.056,199.159H99.534a5.567,5.567,0,0,0-5.4,4.218L91,215.927l-6.987-2.795-1.438-24.462,2.041-5.665-.726-7.944v0a16.7,16.7,0,0,1,15.04-9.432h2c-2.648,6.05-7.135,19.605,2.125,33.532Z" transform="translate(-68.64 -143.271)" fill="#c2c0cb"/>
      <path id="Path_1246182" data-name="Path 1246182" d="M277.68,107.223s-6.371-2.737-12-1.524a2.772,2.772,0,0,0-1.778,4.139c3,4.918,9.367,7.655,9.367,7.655Z" transform="translate(-215.995 -94.211)" fill="#b3b0be"/>
      <path id="Path_1246183" data-name="Path 1246183" d="M321.058,56.332s-5.31-1.927-4.819-9.878a1.374,1.374,0,0,1,2.52-.676c1.749,2.674,4.572,6.1,7.888,7.76Z" transform="translate(-258.92 -45.154)" fill="#948ea3"/>
      <path id="Path_1246184" data-name="Path 1246184" d="M401.063,56.332s5.31-1.927,4.819-9.878a1.374,1.374,0,0,0-2.52-.676c-1.749,2.674-4.572,6.1-7.888,7.76Z" transform="translate(-323.478 -45.154)" fill="#b3b0be"/>
      <path id="Path_1246185" data-name="Path 1246185" d="M428.028,107.223s6.371-2.737,12-1.524a2.772,2.772,0,0,1,1.778,4.139c-3,4.918-9.367,7.655-9.367,7.655Z" transform="translate(-349.991 -94.211)" fill="#c2c0cb"/>
      <path id="Path_1246186" data-name="Path 1246186" d="M336.1,96.973a14.481,14.481,0,0,1-.2,2.364l-1.436,8.61H309.321l-1.436-8.61c-.056-.341-.1-.683-.134-1.021v0L310.989,87.9a14.288,14.288,0,0,1,1.752-1.763l0,0,5.471-2.86h0l.1-.028A14.223,14.223,0,0,1,336.1,96.973Z" transform="translate(-252.034 -75.812)" fill="#dad9e0"/>
      <path id="Path_1246187" data-name="Path 1246187" d="M316.019,106.115a23.265,23.265,0,0,1,1.334,3.819h-8.308l-1.436-8.61a14.212,14.212,0,0,1,10.435-16.087A21.443,21.443,0,0,0,316.019,106.115Z" transform="translate(-251.758 -77.799)" fill="#c2c0cb"/>
      <path id="Path_1246188" data-name="Path 1246188" d="M332.862,191.864c0,6.174-7.506,11.179-16.766,11.179q-.821,0-1.622-.052l-11.025-4.166-2.819-9.642,11.917-8.245a25.111,25.111,0,0,1,3.548-.251C325.356,180.687,332.862,185.69,332.862,191.864Z" transform="translate(-246.235 -155.536)" fill="#ffebe2"/>
      <path id="Path_1246189" data-name="Path 1246189" d="M308.765,204.09c-8.5-.544-15.144-5.318-15.144-11.127,0-5.363,5.662-9.841,13.218-10.926C304.883,185.91,301.5,195.244,308.765,204.09Z" transform="translate(-240.526 -156.636)" fill="#ffddcf"/>
      <circle id="Ellipse_12506" data-name="Ellipse 12506" cx="2.794" cy="2.794" r="2.794" transform="translate(72.655 32.136)" fill="#948ea3"/>
      <circle id="Ellipse_12507" data-name="Ellipse 12507" cx="2.794" cy="2.794" r="2.794" transform="translate(61.478 32.136)" fill="#948ea3"/>
      <path id="Path_1246190" data-name="Path 1246190" d="M15.883,282.758c0,4.192-2.794,9.781-4.192,9.781S7.5,286.949,7.5,282.758a3.916,3.916,0,0,1,4.192-4.192A3.916,3.916,0,0,1,15.883,282.758Z" transform="translate(-7.5 -235.252)" fill="#77728d"/>
      <path id="Path_1246191" data-name="Path 1246191" d="M98.718,430.008H93.108a2.784,2.784,0,0,1-2.784-2.784v-5.6H95.9a5.6,5.6,0,0,1,5.6,5.6A2.784,2.784,0,0,1,98.718,430.008Z" transform="translate(-74.954 -351.764)" fill="#77728d"/>
      <g id="Group_1205073" data-name="Group 1205073" transform="translate(32.136 22.356)">
        <path id="Path_1246192" data-name="Path 1246192" d="M189.071,414.949h-5.611a2.784,2.784,0,0,1-2.784-2.784v-5.6h5.578a5.6,5.6,0,0,1,5.6,5.6A2.784,2.784,0,0,1,189.071,414.949Z" transform="translate(-180.677 -361.855)" fill="#948ea3"/>
        <path id="Path_1246193" data-name="Path 1246193" d="M279.424,430.008h-5.611a2.784,2.784,0,0,1-2.784-2.784v-5.6h5.578a5.6,5.6,0,0,1,5.6,5.6A2.784,2.784,0,0,1,279.424,430.008Z" transform="translate(-254.263 -374.12)" fill="#948ea3"/>
        <path id="Path_1246194" data-name="Path 1246194" d="M369.777,414.949h-5.611a2.784,2.784,0,0,1-2.784-2.784v-5.6h5.578a5.6,5.6,0,0,1,5.6,5.6,2.784,2.784,0,0,1-2.784,2.784Z" transform="translate(-327.85 -361.855)" fill="#948ea3"/>
        <path id="Path_1246195" data-name="Path 1246195" d="M190.57,171.526a3.7,3.7,0,0,1-3.9.317c-1.6-.854-2.316-2.733-2.815-4.478-.163-.573-.328-1.164-.523-1.739h7.916c.009.1.024.2.043.3.13.661.46,1.267.609,1.922a3.7,3.7,0,0,1-1.329,3.68Z" transform="translate(-182.839 -165.627)" fill="#948ea3"/>
      </g>
      <path id="Path_1246196" data-name="Path 1246196" d="M86.568,231.792c-1.932-.089-3.264-1.234-5.511-1.724l-.315-5.363a16.61,16.61,0,0,1,1.631-8.249c.08,0,.16.007.238.017a4.425,4.425,0,0,1,1.286.418,21.693,21.693,0,0,1,5.45,3.554C93.839,224.451,90.267,231.965,86.568,231.792Z" transform="translate(-67.126 -184.669)" fill="#77728d"/>
      <path id="Path_1246197" data-name="Path 1246197" d="M194.751,255.638c-1.156,2.493-4.221-.863-6.154,3.306a4.192,4.192,0,1,0,7.6,3.528c1.156-2.493,4.221.863,6.154-3.306a4.192,4.192,0,0,0-7.6-3.528Z" transform="translate(-154.673 -214.601)" fill="#948ea3"/>
    </g>
    <g id="Group_1205075" data-name="Group 1205075" transform="translate(0 37.641)">
      <path id="Path_1246198" data-name="Path 1246198" d="M91.723,49.162a20.866,20.866,0,0,0-9.088.4c-.063-.068-.127-.134-.192-.2,1.459-1.613,3.028-4.458,2.741-9.114A2.766,2.766,0,0,0,80.11,38.9,25.106,25.106,0,0,1,74.636,45a15.662,15.662,0,0,0-6.767,0A25.1,25.1,0,0,1,62.4,38.9a2.766,2.766,0,0,0-5.074,1.354c-.286,4.654,1.281,7.5,2.742,9.114-.064.066-.128.133-.192.2a20.85,20.85,0,0,0-9.089-.4,4.168,4.168,0,0,0-2.673,6.224A18.4,18.4,0,0,0,52.293,60H31.679a17.894,17.894,0,0,0-11.542,4.156,17.083,17.083,0,0,0-9.283,3.56C7.233,70.637,5.07,75.122,4.41,81.056A5.222,5.222,0,0,0,0,86.54a17.881,17.881,0,0,0,1.7,7.038c2.446,5.381,5.208,5.645,7.774,0a17.878,17.878,0,0,0,1.7-7.038A5.22,5.22,0,0,0,7.2,81.151c1.047-8.782,5.615-12.245,9.733-13.549a17.9,17.9,0,0,0-3.316,11.551L14.579,95.5a1.392,1.392,0,1,0,2.779-.163l-.526-8.951a10.7,10.7,0,0,0,4.122,1.17c4.959,0,8.972-8.977,3.586-13.78a23.01,23.01,0,0,0-5.843-3.8,15.247,15.247,0,0,1,12.983-7.189h1.315c.686,2.369,1.428,4.834,3.709,6.052a5.011,5.011,0,0,0,7.1-6.052H55.869l.837,5.019c-5.207,4.789-4.967,12.032,1.919,16.624,5.706,3.8,14.02,4.447,20.576,2.254a9.778,9.778,0,0,1-9.3,6.852H64.791a6.971,6.971,0,0,0-6.549,4.606,1.392,1.392,0,1,0,2.62.939,4.18,4.18,0,0,1,3.928-2.761h.166l.712,9.845V111.7a4.18,4.18,0,0,0,4.175,4.175h5.611A4.18,4.18,0,0,0,79.63,111.7a7,7,0,0,0-3.768-6.2l1.454-11.637a12.525,12.525,0,0,0,5.009-8.517C90.7,80.9,91.375,72.915,85.8,67.79l.893-5.385a22.111,22.111,0,0,0,7.7-7.018,4.168,4.168,0,0,0-2.673-6.225ZM8.383,86.54a15.308,15.308,0,0,1-2.8,8.186,15.3,15.3,0,0,1-2.8-8.186,2.568,2.568,0,0,1,2.8-2.8A2.568,2.568,0,0,1,8.383,86.54Zm14.3-10.691c3.529,3.147.565,9.036-1.788,8.918-1.328-.061-2.456-.845-4.245-1.414L16.4,78.99a15.247,15.247,0,0,1,1.039-6.533,20.2,20.2,0,0,1,5.25,3.392Zm52.77,37.244H69.845a1.393,1.393,0,0,1-1.392-1.392v-4.208h4.186a4.213,4.213,0,0,1,4.208,4.208A1.393,1.393,0,0,1,75.455,113.093Zm-2.3-8.362c-.144-.011-.265-.019-.435-.019l-4.364,0-.608-8.395c2.387,0,4.1.123,6.559-.809Zm9.255-64.263c.213,3.633-.88,5.8-2.07,7.079a15.536,15.536,0,0,0-2.6-1.509,30.129,30.129,0,0,0,4.674-5.57Zm-22.311,0a30.055,30.055,0,0,0,4.673,5.569,15.548,15.548,0,0,0-2.6,1.509C60.977,46.272,59.887,44.1,60.1,40.468Zm-9.611,13.47a1.381,1.381,0,0,1,.882-2.055A16.9,16.9,0,0,1,58,52a15.553,15.553,0,0,0-2.3,7.057A17.586,17.586,0,0,1,50.487,53.938Zm-9.255,9.983a2.225,2.225,0,0,1-3.218,2.458c-1.139-.608-1.685-2.127-2.121-3.6h4.953c.171.493.314.821.386,1.138Zm39.208.581A1.392,1.392,0,1,0,79.4,67.083c7.974,3.216,9.919,10.371,2.938,15.026-6.077,4.052-16.073,4.063-22.167,0-5.717-3.812-5.726-9.675,0-13.492a21.026,21.026,0,0,1,13.3-2.938,1.392,1.392,0,1,0,.256-2.772,24.091,24.091,0,0,0-14.507,3.019l-.6-3.595a12.812,12.812,0,1,1,25.275,0l-.6,3.589A19.73,19.73,0,0,0,80.439,64.5ZM92.019,53.938A17.58,17.58,0,0,1,86.8,59.058,15.562,15.562,0,0,0,84.5,52a16.915,16.915,0,0,1,6.633-.117,1.381,1.381,0,0,1,.883,2.056Z" transform="translate(0 -37.641)"/>
      <path id="Path_1246199" data-name="Path 1246199" d="M391.529,215.016a4.186,4.186,0,1,0,4.186-4.186A4.191,4.191,0,0,0,391.529,215.016Zm5.589,0a1.4,1.4,0,1,1-1.4-1.4A1.4,1.4,0,0,1,397.118,215.016Z" transform="translate(-318.874 -178.692)"/>
      <path id="Path_1246200" data-name="Path 1246200" d="M335.48,210.83a4.186,4.186,0,1,0,4.186,4.186A4.191,4.191,0,0,0,335.48,210.83Zm0,5.589a1.4,1.4,0,1,1,1.4-1.4A1.4,1.4,0,0,1,335.48,216.419Z" transform="translate(-269.816 -178.692)"/>
      <path id="Path_1246201" data-name="Path 1246201" d="M124.889,353.671l.524-3.144a1.392,1.392,0,0,0-2.746-.457l-.461,2.766c-.18-.018-.279-.023-.545-.032l-4.464,0-.771-7.7a6.936,6.936,0,0,0-6.924-6.268H97.929a6.948,6.948,0,0,0-6.75,5.272l-2.194,8.773a5.28,5.28,0,0,0-.713-.065l-4.555-.008-.335-5.685a1.392,1.392,0,1,0-2.779.164l.41,6.964v5.55a4.18,4.18,0,0,0,4.175,4.175H90.8a4.18,4.18,0,0,0,4.175-4.175,6.994,6.994,0,0,0-3.357-5.97l2.262-9.046a4.168,4.168,0,0,1,3.206-3.075l.7,9.737V357a4.18,4.18,0,0,0,4.175,4.175h5.611A4.18,4.18,0,0,0,111.741,357a7,7,0,0,0-3.758-6.2l1.148-9.191h.371a4.162,4.162,0,0,1,4.154,3.761l.889,8.888v5.532a4.18,4.18,0,0,0,4.175,4.175h5.611a4.18,4.18,0,0,0,4.175-4.175A7,7,0,0,0,124.889,353.671ZM90.8,361.185H85.189a1.393,1.393,0,0,1-1.392-1.392v-4.208h4.186a4.213,4.213,0,0,1,4.208,4.208,1.394,1.394,0,0,1-1.392,1.392Zm16.767-2.794h-5.611A1.393,1.393,0,0,1,100.563,357v-4.208h4.186A4.213,4.213,0,0,1,108.958,357,1.394,1.394,0,0,1,107.566,358.39Zm-2.291-8.362c-.14-.01-.183-.016-.4-.019l-4.412,0-.6-8.395h6.458Zm19.057,11.156h-5.611a1.393,1.393,0,0,1-1.392-1.392v-4.208h4.186a4.213,4.213,0,0,1,4.208,4.208,1.394,1.394,0,0,1-1.392,1.392Z" transform="translate(-65.644 -282.938)"/>
      <path id="Path_1246202" data-name="Path 1246202" d="M183.936,259.66a5.581,5.581,0,0,0,7.415-2.716c.1-.226.118-.255,1.046-.228a4.729,4.729,0,0,0,5.108-3.078,5.583,5.583,0,0,0-10.13-4.7c-.1.226-.118.255-1.046.228a4.729,4.729,0,0,0-5.108,3.078A5.58,5.58,0,0,0,183.936,259.66Zm-.191-6.243c.607-1.308,1.164-1.476,2.048-1.476,1.117,0,3.112.313,4.106-1.83a2.8,2.8,0,0,1,5.08,2.356c-.7,1.519-1.343,1.5-2.5,1.467-1.033-.029-2.762-.08-3.652,1.839a2.8,2.8,0,0,1-5.08-2.356Z" transform="translate(-147.168 -207.093)"/>
      <path id="Path_1246203" data-name="Path 1246203" d="M335.24,129.3a3.951,3.951,0,0,0-3.946,3.946,1.392,1.392,0,0,0,2.784,0,1.163,1.163,0,0,1,2.325,0,1.392,1.392,0,0,0,2.784,0A3.951,3.951,0,0,0,335.24,129.3Z" transform="translate(-269.816 -112.291)"/>
      <path id="Path_1246204" data-name="Path 1246204" d="M398.063,129.3a3.951,3.951,0,0,0-3.946,3.946,1.392,1.392,0,0,0,2.784,0,1.163,1.163,0,0,1,2.325,0,1.392,1.392,0,1,0,2.784,0A3.951,3.951,0,0,0,398.063,129.3Z" transform="translate(-320.981 -112.291)"/>
    </g>
  </g>
</svg>
