<svg xmlns="http://www.w3.org/2000/svg" width="98" height="97.998" viewBox="0 0 98 97.998">
  <g id="Group_1204920" data-name="Group 1204920" transform="translate(-12279 9789)">
    <g id="Group_1204641" data-name="Group 1204641" transform="translate(11476.219 -12327.016)">
      <g id="Group_1204237" data-name="Group 1204237" transform="translate(-1 566)">
        <g id="Group_1204143" data-name="Group 1204143" transform="translate(-67.331 1694.852)">
          <g id="Group_1188789" data-name="Group 1188789" transform="translate(871.113 277.164)">
            <path id="Path_1243039" data-name="Path 1243039" d="M41.05,0h0a41.05,41.05,0,0,1,0,82.1h0a41.05,41.05,0,0,1,0-82.1Z" transform="translate(7.951 7.949)" fill="#ffc94a"/>
            <rect id="Rectangle_400907" data-name="Rectangle 400907" width="88.438" height="88.437" rx="44.218" transform="translate(4.782 4.781)" fill="none"/>
            <g id="Group_1098742" data-name="Group 1098742" transform="translate(0)">
              <g id="Rectangle_400898" data-name="Rectangle 400898" transform="translate(0)" fill="none" stroke="#fff" stroke-width="2" opacity="0.859">
                <rect width="98" height="97.999" rx="48.999" stroke="none"/>
                <rect x="1" y="1" width="96" height="95.999" rx="47.999" fill="none"/>
              </g>
              <g id="Rectangle_400907-2" data-name="Rectangle 400907" transform="translate(0)" fill="none" stroke="#0f1f33" stroke-linecap="round" stroke-width="2">
                <rect width="98" height="97.999" rx="48.999" stroke="none"/>
                <rect x="1" y="1" width="96" height="95.999" rx="47.999" fill="none"/>
              </g>
            </g>
          </g>
        </g>
      </g>
    </g>
    <g id="vaca_3_" data-name="vaca (3)" transform="translate(12297.998 -9819.491)">
      <g id="Group_1204918" data-name="Group 1204918" transform="translate(0.87 57.362)">
        <path id="Path_1245810" data-name="Path 1245810" d="M12.364,80.045A10.516,10.516,0,0,1,9.738,64.659a1.741,1.741,0,0,1,2.74,2.148,7.015,7.015,0,0,0,1.344,10.008A1.959,1.959,0,0,1,12.364,80.045Z" transform="translate(-7.48 -63.992)" fill="#e7896e"/>
        <path id="Path_1245811" data-name="Path 1245811" d="M86.482,334.661a50.592,50.592,0,0,0,1.813-6.167l-2.735-4.151C73.242,328.567,79.5,336.9,86.482,334.661Z" transform="translate(-70.296 -294.123)" fill="#cb5935"/>
        <path id="Path_1245812" data-name="Path 1245812" d="M216.172,358.3a50.584,50.584,0,0,1-1.735-5.829C227.2,346.27,227.668,363.2,216.172,358.3Z" transform="translate(-190.415 -317.764)" fill="#dd6642"/>
        <path id="Path_1245813" data-name="Path 1245813" d="M83.574,400.878a9.9,9.9,0,0,0,5.633,1.434q-.34.933-.717,1.856a3.486,3.486,0,0,1-6.289.334,2.308,2.308,0,0,1-.536-1.874A2.277,2.277,0,0,1,83.574,400.878Z" transform="translate(-73.021 -361.775)" fill="#5972a5"/>
        <path id="Path_1245814" data-name="Path 1245814" d="M235.017,400.878a9.9,9.9,0,0,1-5.633,1.434q.34.933.717,1.856a3.486,3.486,0,0,0,6.289.334A2.079,2.079,0,0,0,235.017,400.878Z" transform="translate(-203.627 -361.775)" fill="#5972a5"/>
        <path id="Path_1245815" data-name="Path 1245815" d="M135.432,138.4a43.82,43.82,0,0,0,1.408,5c-3,4.426-1.3,3.814-6.552,2.36q-.757-2.169-1.313-4.389a1.738,1.738,0,0,0-2-1.293,32.751,32.751,0,0,1-6.572.533c-15.148-6.4-11.83-26.426,3.7-29.24a22.554,22.554,0,0,1,3.478.821,14.769,14.769,0,0,1,13.18,9.762c2.172,6.5-1.526,12.082-1.976,12.735a23.755,23.755,0,0,1-2.574,1.877A1.738,1.738,0,0,0,135.432,138.4Z" transform="translate(-98.631 -105.869)" fill="#e7896e"/>
        <path id="Path_1245816" data-name="Path 1245816" d="M57.689,138.659a22.714,22.714,0,0,1-7.625-1.425,1.738,1.738,0,0,0-2.32,1.229,50.283,50.283,0,0,1-1.543,5.345l-4.757,1.943-1.795-4.3A43.51,43.51,0,0,0,41.9,130.9a1.731,1.731,0,0,0-.186-.932c-4.247-8.367.629-19.876,15.031-20.764a21.62,21.62,0,0,1,4.648.215,17.047,17.047,0,0,0-3.7,29.24Z" transform="translate(-35.916 -103.92)" fill="#dd6642"/>
        <path id="Path_1245817" data-name="Path 1245817" d="M250.8,142.767a8.671,8.671,0,0,0-2.367,4.369,1.742,1.742,0,0,0,1.762,2.115,5.39,5.39,0,0,0,2.887-.976C256.822,146.19,255.32,140.772,250.8,142.767Z" transform="translate(-220.429 -133.24)" fill="#cb5935"/>
        <path id="Path_1245818" data-name="Path 1245818" d="M438.982,142.932a8.672,8.672,0,0,1,2.367,4.369,1.742,1.742,0,0,1-1.762,2.115,5.39,5.39,0,0,1-2.887-.976C429.692,144.505,434.335,141.363,438.982,142.932Z" transform="translate(-383.712 -133.405)" fill="#dd6642"/>
        <path id="Path_1245819" data-name="Path 1245819" d="M437.344,95.415a7.808,7.808,0,0,0,3.467-7.323,1.74,1.74,0,0,0-3.054-.889,6.235,6.235,0,0,1-3.881,2.143A4.322,4.322,0,0,0,437.344,95.415Z" transform="translate(-384.066 -83.959)" fill="#7888af"/>
        <path id="Path_1245820" data-name="Path 1245820" d="M259.447,95.415a7.808,7.808,0,0,1-3.467-7.323,1.74,1.74,0,0,1,3.054-.889,6.235,6.235,0,0,0,3.881,2.143A5.906,5.906,0,0,1,259.447,95.415Z" transform="translate(-227.084 -83.959)" fill="#5972a5"/>
        <path id="Path_1245821" data-name="Path 1245821" d="M334.164,105.111a17.421,17.421,0,0,1-3.792,10.135H323.1c-10.09-4.125-7.6-18.731,3.638-18.577C331.036,97.55,334.164,100.383,334.164,105.111Z" transform="translate(-280.856 -92.875)" fill="#e7896e"/>
        <path id="Path_1245822" data-name="Path 1245822" d="M292.158,102.848a17.42,17.42,0,0,0,3.792,10.135h-6.117a17.421,17.421,0,0,1-3.792-10.135c0-5.792,4.7-8.74,10.487-8.74a15.261,15.261,0,0,1,3.06.3C295.287,95.287,292.158,98.121,292.158,102.848Z" transform="translate(-253.708 -90.612)" fill="#dd6642"/>
        <path id="Path_1245823" data-name="Path 1245823" d="M339.846,239.229H338.5c-8.557-.151-6.746-9.359-1.514-9.369a1.729,1.729,0,0,0,1.238.035,4.807,4.807,0,1,1,1.617,9.335Z" transform="translate(-294.841 -210.388)" fill="#fce3a0"/>
        <path id="Path_1245824" data-name="Path 1245824" d="M323.988,239.232H320.96a4.807,4.807,0,1,1,1.514-9.369,4.807,4.807,0,0,0,1.514,9.369Z" transform="translate(-280.324 -210.391)" fill="#f9d171"/>
        <g id="Group_1204917" data-name="Group 1204917" transform="translate(2.656 37.528)">
          <path id="Path_1245825" data-name="Path 1245825" d="M285.7,394.078a3.481,3.481,0,0,1-4.541-1.9q-.508-1.243-.95-2.506a7.08,7.08,0,0,0,6.552-2.36q.39,1.125.843,2.23A3.481,3.481,0,0,1,285.7,394.078Z" transform="translate(-251.211 -387.308)" fill="#7888af"/>
          <path id="Path_1245826" data-name="Path 1245826" d="M37.99,389.666a7.08,7.08,0,0,1-6.553-2.36c.012,0-.453,1.274-.82,2.177a3.553,3.553,0,0,0,1.911,4.606,3.483,3.483,0,0,0,4.513-1.916C37.7,390.569,37.978,389.667,37.99,389.666Z" transform="translate(-30.359 -387.306)" fill="#7888af"/>
        </g>
      </g>
      <g id="Group_1204919" data-name="Group 1204919" transform="translate(0.002 56.491)">
        <path id="Path_1245827" data-name="Path 1245827" d="M347.766,260.041a.871.871,0,0,0-1.231,1.231c.9.9,1.031,1.129,1.49,1.129a.872.872,0,0,0,.616-1.486Z" transform="translate(-306.087 -236.189)"/>
        <path id="Path_1245828" data-name="Path 1245828" d="M385.055,260.042l-.874.874a.871.871,0,0,0,1.231,1.231l.874-.874a.871.871,0,1,0-1.231-1.231Z" transform="translate(-339.363 -236.19)"/>
        <path id="Path_1245829" data-name="Path 1245829" d="M317.033,176.963a.87.87,0,0,0-.871.871v1.393a.871.871,0,1,0,1.741,0v-1.393A.87.87,0,0,0,317.033,176.963Z" transform="translate(-279.465 -162.98)"/>
        <path id="Path_1245830" data-name="Path 1245830" d="M422.445,176.963a.87.87,0,0,0-.871.871v1.393a.871.871,0,1,0,1.741,0v-1.393A.87.87,0,0,0,422.445,176.963Z" transform="translate(-372.641 -162.98)"/>
        <path id="Path_1245831" data-name="Path 1245831" d="M59.356,71.074A9.634,9.634,0,0,0,57.244,66.8a8.258,8.258,0,0,0,1.233-5.415,2.61,2.61,0,0,0-4.589-1.334,5.307,5.307,0,0,1-3.026,1.778,14.839,14.839,0,0,0-14.349,0,5.306,5.306,0,0,1-3.026-1.778A2.61,2.61,0,0,0,28.9,61.384a7.842,7.842,0,0,0-.061,1.107,23.714,23.714,0,0,0-11.571-.076.871.871,0,1,0,.405,1.693,21.933,21.933,0,0,1,11.416.258A8.629,8.629,0,0,0,30.131,66.8a9.633,9.633,0,0,0-2.112,4.274,2.612,2.612,0,0,0,2.647,3.168,6.242,6.242,0,0,0,2.287-.532,19.3,19.3,0,0,0,3.071,6.2,5.662,5.662,0,0,0,3.1,6.642c-.374.268-.754.527-1.14.771a2.616,2.616,0,0,0-1.169,2.758,44.577,44.577,0,0,0,1.267,4.6,6.189,6.189,0,0,1-4.913,1.774c-.423-1.255-.8-2.524-1.115-3.8a2.615,2.615,0,0,0-3-1.938,25.913,25.913,0,0,1-13.726-.85,2.609,2.609,0,0,0-3.482,1.847c-.366,1.592-.815,3.176-1.34,4.737a6.187,6.187,0,0,1-4.915-1.775A44.423,44.423,0,0,0,7.717,84.417a2.6,2.6,0,0,0-.277-1.4c-3.244-6.39-.76-14.353,6.889-17.781a.871.871,0,0,0-.712-1.589,16.243,16.243,0,0,0-6.576,5.236,6.127,6.127,0,0,1-.491-8.168,2.612,2.612,0,1,0-4.11-3.223A11.76,11.76,0,0,0,0,64.321a.871.871,0,1,0,1.741.04,10.14,10.14,0,0,1,2.068-5.795.871.871,0,0,1,1.37,1.074,7.859,7.859,0,0,0,.91,10.738,14.211,14.211,0,0,0-.77,1.631,9.911,9.911,0,0,1-3.095-4.448.871.871,0,1,0-1.651.552,11.778,11.778,0,0,0,4.176,5.662A14.465,14.465,0,0,0,5.888,83.8a.863.863,0,0,1,.095.463,42.748,42.748,0,0,1-3.008,12.47,4.425,4.425,0,0,0,2.394,5.743,4.345,4.345,0,0,0,4.679-.953,4.351,4.351,0,0,0,7.094-1.442,51.848,51.848,0,0,0,2.385-7.366,27.772,27.772,0,0,0,4.685.248,51.708,51.708,0,0,0,2.324,7.118,4.352,4.352,0,0,0,7.094,1.442,4.352,4.352,0,0,0,7.1-4.737,43.018,43.018,0,0,1-2.206-7.085.871.871,0,0,1,.4-.914,24.653,24.653,0,0,0,2.395-1.723l4.563,0a5.679,5.679,0,0,0,5.478-7.167,19.3,19.3,0,0,0,3.071-6.2,6.207,6.207,0,0,0,2.391.534A2.613,2.613,0,0,0,59.356,71.074ZM6.98,101.05a2.644,2.644,0,0,1-2.394-3.656c.129-.316.252-.633.374-.951A7.842,7.842,0,0,0,9.875,98.21c-.154.407-.312.813-.476,1.216A2.6,2.6,0,0,1,6.98,101.05Zm4.056-1.03q.464-1.14.873-2.3A10.755,10.755,0,0,0,15.8,98.752c-.088.225-.176.45-.268.674a2.612,2.612,0,0,1-4.494.594Zm5.4-2.983a9.032,9.032,0,0,1-3.967-.985q.618-1.96,1.077-3.953a.866.866,0,0,1,1.159-.612,21.177,21.177,0,0,0,3.108.923C17.429,93.968,16.967,95.515,16.434,97.037ZM29.37,92.424a.871.871,0,0,1,1,.648q.375,1.5.844,2.98a9.037,9.037,0,0,1-3.968.985c-.481-1.373-.9-2.766-1.263-4.168A33.744,33.744,0,0,0,29.37,92.424Zm-1.222,7c-.091-.224-.18-.449-.268-.674a10.757,10.757,0,0,0,3.888-1.034q.41,1.161.873,2.3a2.611,2.611,0,0,1-4.494-.593Zm10.957.022a2.613,2.613,0,0,1-4.826-.022c-.165-.4-.322-.809-.477-1.216a7.842,7.842,0,0,0,4.915-1.767C39.119,97.5,39.6,98.273,39.1,99.448ZM55.23,61.159a.869.869,0,0,1,1.52.445,6.67,6.67,0,0,1-1.987,5.557,8.447,8.447,0,0,0-2.25-4.024A6.885,6.885,0,0,0,55.23,61.159Zm-24.6.445a.869.869,0,0,1,1.52-.445,6.887,6.887,0,0,0,2.717,1.978,8.446,8.446,0,0,0-2.25,4.024A6.667,6.667,0,0,1,30.626,61.6ZM30.6,72.5a.871.871,0,0,1-.877-1.061,7.932,7.932,0,0,1,1.5-3.224,9.648,9.648,0,0,0,1.116,1.02,13.285,13.285,0,0,0,.213,2.732,4.511,4.511,0,0,1-1.95.533ZM45.873,85.332H41.5a3.936,3.936,0,1,1,1.324-7.643,2.56,2.56,0,0,0,1.722,0,3.936,3.936,0,1,1,1.324,7.643Zm-1.911-9.282a.814.814,0,0,1-.548,0,5.672,5.672,0,0,0-6.535,2.057,17.376,17.376,0,0,1-2.528-5.964c-.718-3.43-.139-6.615,2.711-8.6a11.141,11.141,0,0,1,6.625-1.81,11.147,11.147,0,0,1,6.625,1.81c2.856,1.993,3.428,5.183,2.711,8.606A17.311,17.311,0,0,1,50.5,78.106,5.672,5.672,0,0,0,43.962,76.049ZM56.777,72.5a4.511,4.511,0,0,1-1.95-.533,13.293,13.293,0,0,0,.213-2.732,9.65,9.65,0,0,0,1.116-1.02,7.931,7.931,0,0,1,1.5,3.224A.872.872,0,0,1,56.777,72.5Z" transform="translate(-0.002 -56.491)"/>
      </g>
    </g>
  </g>
</svg>
