<svg xmlns="http://www.w3.org/2000/svg" width="98" height="97.999" viewBox="0 0 98 97.999">
  <g id="Group_1204914" data-name="Group 1204914" transform="translate(-425.949 -1831.75)">
    <g id="Group_1204525" data-name="Group 1204525" transform="translate(-376.832 -706.266)">
      <g id="Group_1204237" data-name="Group 1204237" transform="translate(-1 566)">
        <g id="Group_1204143" data-name="Group 1204143" transform="translate(-67.331 1694.852)">
          <g id="Group_1188789" data-name="Group 1188789" transform="translate(871.113 277.164)">
            <path id="Path_1243039" data-name="Path 1243039" d="M41.05,0h0a41.05,41.05,0,0,1,0,82.1h0a41.05,41.05,0,0,1,0-82.1Z" transform="translate(7.951 7.949)" fill="#ffc94a"/>
            <rect id="Rectangle_400907" data-name="Rectangle 400907" width="88.438" height="88.437" rx="44.218" transform="translate(4.782 4.781)" fill="none"/>
            <g id="Group_1098742" data-name="Group 1098742" transform="translate(0)">
              <g id="Rectangle_400898" data-name="Rectangle 400898" transform="translate(0)" fill="none" stroke="#fff" stroke-width="2" opacity="0.859">
                <rect width="98" height="97.999" rx="48.999" stroke="none"/>
                <rect x="1" y="1" width="96" height="95.999" rx="47.999" fill="none"/>
              </g>
              <g id="Rectangle_400907-2" data-name="Rectangle 400907" transform="translate(0)" fill="none" stroke="#0f1f33" stroke-linecap="round" stroke-width="2">
                <rect width="98" height="97.999" rx="48.999" stroke="none"/>
                <rect x="1" y="1" width="96" height="95.999" rx="47.999" fill="none"/>
              </g>
            </g>
          </g>
        </g>
      </g>
    </g>
    <g id="Cow" transform="translate(443.176 1838.565)">
      <path id="Path_1245713" data-name="Path 1245713" d="M67.723,61.71c0,.212-.41,2.489-1.463,8.666h3.747l2.549-8.666Z" transform="translate(-22.395 -14.039)" fill="#b09482"/>
      <path id="Path_1245714" data-name="Path 1245714" d="M66.26,73.735h3.747l.609-2.085h-4Z" transform="translate(-22.395 -17.398)" fill="#242c42"/>
      <path id="Path_1245715" data-name="Path 1245715" d="M70.354,46.5a5.6,5.6,0,0,0-5.4,7.1l-.47.139a.662.662,0,0,0,.364,1.271c.722-.212.45-.126.6-.192a5.608,5.608,0,0,0,3.079,2.608.1.1,0,0,0,0,.046l-.152.742a.675.675,0,0,0,1.324.265c.212-1.026.139-.662.152-.768A5.608,5.608,0,1,0,70.4,46.52Z" transform="translate(-21.643 -8.899)" fill="#e5426a"/>
      <circle id="Ellipse_12486" data-name="Ellipse 12486" cx="4.449" cy="4.449" r="4.449" transform="translate(45.083 37.767)" fill="#ef6f83"/>
      <path id="Path_1245716" data-name="Path 1245716" d="M62.211,28.277c0,7.885.073,7.5-.205,8.229L60.986,39.2c-1.033,2.734,1.675,4.27.854,7.084l-3.065,10.4H55.028c.113-.662,1.324-7.726,1.43-8.395a3.6,3.6,0,0,0-1-3.151L53.823,43.5H34.252a1.867,1.867,0,0,0-1.821,1.45c-.881,3.873-1.324,5.872-2.648,11.738H26.156c.166-3.714.232-5.151.622-13.665l-7.945.96-3.105,4.833a2.39,2.39,0,0,1-4.052-.106c-.874-1.543-2.648-4.634-4.1-7.216a3.31,3.31,0,0,1,.788-4.257c1.1-.881,1.946-1.364,2.185-2.648l.079-.4a3.052,3.052,0,0,1,1.192-1.867l2.575-1.94c.437,1.986.351,1.6.477,2.152l9.931-8.07A14.651,14.651,0,0,1,34.021,21.2H55.134a7.084,7.084,0,0,1,7.077,7.077Z" transform="translate(-2.41 -0.349)" fill="#eddcd2"/>
      <path id="Path_1245717" data-name="Path 1245717" d="M59.316,21.2H38.2a14.373,14.373,0,0,0-4.085.589c-3.635,1.053-4.681,2.33-14.618,10.388v1.9c2.463-2,8.276-6.733,9.507-7.713A14.651,14.651,0,0,1,38.2,23.1H59.316a7.084,7.084,0,0,1,7.077,7.077v-1.9A7.084,7.084,0,0,0,59.316,21.2Z" transform="translate(-6.593 -0.349)" fill="#f7f0e1"/>
      <path id="Path_1245718" data-name="Path 1245718" d="M87.975,28.548c0,7.892.066,7.508-.2,8.2l-.682,1.8A3.2,3.2,0,0,1,86.16,36.3V31a5.469,5.469,0,0,0-1.6-3.873l-1.2-1.2V22h.212A7.084,7.084,0,0,1,87.975,28.548Z" transform="translate(-28.174 -0.619)" fill="#ddbea9"/>
      <path id="Path_1245719" data-name="Path 1245719" d="M6.561,52.8l-.331.212a4.012,4.012,0,0,1-3.171.252L1,52.54l2.152-2.41a3.1,3.1,0,0,1,1.907-1,3.383,3.383,0,0,0,.437,1.8Z" transform="translate(-0.341 -9.788)" fill="#495a83"/>
      <path id="Path_1245720" data-name="Path 1245720" d="M34.171,54.16c-.609,13.3-.5,10.911-.622,13.665H29l3.31-13.446Z" transform="translate(-9.803 -11.487)" fill="#b09482"/>
      <path id="Path_1245721" data-name="Path 1245721" d="M12.6,51.505a.663.663,0,1,1,.781-1.073,1.059,1.059,0,0,0,1.536-.4.662.662,0,0,1,.881-.318C17.136,50.34,14.686,53.028,12.6,51.505Z" transform="translate(-4.169 -9.965)" fill="#3d405b"/>
      <path id="Path_1245722" data-name="Path 1245722" d="M18.841,59.748l-1.172,1.827a2.383,2.383,0,0,1-2.463,1.059,1.834,1.834,0,0,1-.4-.113,2.317,2.317,0,0,1-1.218-1.039l-.8-1.41a5.535,5.535,0,0,1,6.051-.324Z" transform="translate(-4.325 -13.123)" fill="#ef6f83"/>
      <path id="Path_1245723" data-name="Path 1245723" d="M28.085,26.92v3.363a3.112,3.112,0,0,1-.907,2.2l-2.986,3A4.528,4.528,0,0,1,21,36.8H18.69V36.46a3.257,3.257,0,0,0,.093-1.986Z" transform="translate(-6.319 -2.282)" fill="#cb997e"/>
      <path id="Path_1245724" data-name="Path 1245724" d="M13.594,72.194H9.761a5.1,5.1,0,0,0-1.271-5.1A5.111,5.111,0,0,1,13.594,72.194Z" transform="translate(-2.872 -15.857)" fill="#118ab2"/>
      <path id="Path_1245725" data-name="Path 1245725" d="M18.764,72.194h-2.82a4.965,4.965,0,0,0-.5-2.2,5.071,5.071,0,0,1,4.595-2.906,5.091,5.091,0,0,0-1.271,5.1Z" transform="translate(-5.22 -15.857)" fill="#06d6a0"/>
      <path id="Path_1245726" data-name="Path 1245726" d="M39.955,71.663l-.47,2.072H35.87l.093-2.085h3.986Z" transform="translate(-12.125 -17.398)" fill="#3d405b"/>
      <path id="Path_1245727" data-name="Path 1245727" d="M33.641,71.65l-.093,2.085H29l.516-2.085Z" transform="translate(-9.803 -17.398)" fill="#242c42"/>
      <path id="Path_1245728" data-name="Path 1245728" d="M83.843,71.65H79.838l-.358,2.085h3.747Z" transform="translate(-26.862 -17.398)" fill="#3d405b"/>
      <path id="Path_1245729" data-name="Path 1245729" d="M11.378,36.953c-1.4,1.4-.391,2.463-1.986,3.708l-.351.278V38.191c0-2.085-1.284-3.092-2.291-4.091H8.167A3.224,3.224,0,0,1,11.378,36.953Z" transform="translate(-2.284 -4.708)" fill="#495a83"/>
      <path id="Path_1245730" data-name="Path 1245730" d="M71.71,23.206l-2.456,2.456a3.827,3.827,0,0,1-2.7,1.119A3.827,3.827,0,0,0,63.845,27.9l-2.787,2.814a5.429,5.429,0,0,1-3.88,1.609H47.969a4.118,4.118,0,0,1-2.9-1.2l-2.291-2.291a4.1,4.1,0,0,1-1.2-2.9V21.789a14.373,14.373,0,0,1,4.085-.589H66.778a7.065,7.065,0,0,1,4.933,2.007Z" transform="translate(-14.054 -0.349)" fill="#cb997e"/>
      <path id="Path_1245731" data-name="Path 1245731" d="M59.791,29.914H53.832a.662.662,0,1,1,0-1.324h5.958a.662.662,0,1,1,0,1.324Z" transform="translate(-17.971 -2.846)" fill="#e4b78d"/>
      <path id="Path_1245732" data-name="Path 1245732" d="M66.388,53.731H47.85l.51-2.251H64.752Z" transform="translate(-16.173 -10.582)" fill="#ddbea9"/>
      <path id="Path_1245733" data-name="Path 1245733" d="M64.235,51.194H56.952a.662.662,0,1,1,0-1.324h7.283a.662.662,0,1,1,0,1.324Z" transform="translate(-19.026 -10.038)" fill="#fff1e6"/>
      <path id="Path_1245734" data-name="Path 1245734" d="M86.468,57.1l-2.45,8.315H80c0-.066,0,.066.907-5.343a3.648,3.648,0,0,0,3.469-2.509l1.443-4.37c.563,1.443,1.086,2.41.649,3.906Z" transform="translate(-27.038 -11.16)" fill="#ddbea9"/>
      <path id="Path_1245735" data-name="Path 1245735" d="M84.774,51.862l-.662,2.84a.55.55,0,0,1-.986.2l-.523-.735a1.258,1.258,0,0,1,.106-1.582l1.132-1.218a.543.543,0,0,1,.934.5Z" transform="translate(-27.84 -10.48)" fill="#ddbea9"/>
      <path id="Path_1245736" data-name="Path 1245736" d="M31.7,45.727h1.649a4.27,4.27,0,0,0,3.006-1.245l2.165-2.172a1.053,1.053,0,0,0-.742-1.8H35.995a4.2,4.2,0,0,0-3.039,1.324L30.97,43.966a1.053,1.053,0,0,0,.735,1.761Z" transform="translate(-10.376 -6.874)" fill="#fff1e6"/>
      <path id="Path_1245737" data-name="Path 1245737" d="M28.358,26.92v1.9L19.5,36.01v-1.9Z" transform="translate(-6.593 -2.282)" fill="#e4b78d"/>
      <path id="Path_1245738" data-name="Path 1245738" d="M71.71,23.206l-1.053,1.053a7.11,7.11,0,0,0-3.88-1.159H45.665a14.373,14.373,0,0,0-4.085.589v-1.9a14.373,14.373,0,0,1,4.085-.589H66.778a7.065,7.065,0,0,1,4.933,2.007Z" transform="translate(-14.054 -0.349)" fill="#e4b78d"/>
      <path id="Path_1245739" data-name="Path 1245739" d="M29.669,53.619l-7.945.96L18.62,59.412a2.4,2.4,0,0,1-2.94.92c1.324-.788,1.986-1.066,2.522-1.986l2.185-3.787a3,3,0,0,1,2.2-1.476c5.224-.7,4.37-.861,7.084.536Z" transform="translate(-5.302 -10.947)" fill="#ddbea9"/>
      <path id="Path_1245740" data-name="Path 1245740" d="M19.831,59.91,18.66,61.738A2.39,2.39,0,0,1,16.2,62.8a2.721,2.721,0,0,1-.477-.139c2.324-1.37,1.986-1.026,3.224-3.178A5.177,5.177,0,0,1,19.831,59.91Z" transform="translate(-5.315 -13.285)" fill="#ef4c6f"/>
      <path id="Path_1245741" data-name="Path 1245741" d="M41.74,59.7l-1.768,7.686H36L36.391,59l.881,2.522a1.655,1.655,0,0,0,2.92.4Z" transform="translate(-12.169 -13.123)" fill="#ddbea9"/>
      <g id="Group_1204913" data-name="Group 1204913" transform="translate(-0.008 20.168)">
        <path id="Path_1245742" data-name="Path 1245742" d="M53.882,26.24a.662.662,0,1,0,0,1.324h5.958a.662.662,0,1,0,0-1.324Z" transform="translate(-17.98 -22.22)" fill="#231f20"/>
        <path id="Path_1245743" data-name="Path 1245743" d="M15.8,49.718a.662.662,0,0,0-.881.318,1.059,1.059,0,0,1-1.536.4.663.663,0,0,0-.781,1.073c2.079,1.523,4.535-1.165,3.2-1.788Z" transform="translate(-4.161 -30.133)" fill="#231f20"/>
        <path id="Path_1245744" data-name="Path 1245744" d="M61.41,25.7c-3.926-3.926-3.085-3.105-3.31-3.31a7.759,7.759,0,0,0-5.4-2.2H49.168a.662.662,0,0,0,0,1.324h3.555A6.376,6.376,0,0,1,56.7,22.89l-1.946,1.946a3.165,3.165,0,0,1-2.238.927,4.475,4.475,0,0,0-3.178,1.324l-2.807,2.807a4.76,4.76,0,0,1-3.4,1.417H33.914a3.41,3.41,0,0,1-2.43-1.006L29.194,28a3.41,3.41,0,0,1-1.006-2.43V21.95c2.39-.609,2.648-.437,16.968-.437a.662.662,0,1,0,0-1.324c-14.565,0-14.976-.2-17.8.622A15.3,15.3,0,0,0,22,23.6l-9.1,7.375-.271-1.1A.662.662,0,0,0,11.59,29.5l-2.132,1.6A3.88,3.88,0,0,0,5.883,28.73h-1.4a.662.662,0,0,0-.463,1.125l1,1.006A3.694,3.694,0,0,1,6.115,33.51v2.436l-.55.437a3.972,3.972,0,0,0-1.443,2.43,3.681,3.681,0,0,0-1.807,1.106L.163,42.308a.662.662,0,0,0,.285,1.073l2.059.7a4.634,4.634,0,0,0,3.449-.185l2.721,4.793a3.059,3.059,0,0,0,5.224.139l2.94-4.575,4.807-.583-2.966,12.01H14.046A4.409,4.409,0,0,1,15.264,51.7a.662.662,0,0,0-.47-1.132A5.753,5.753,0,0,0,10.2,52.888a5.793,5.793,0,0,0-4.6-2.317.662.662,0,0,0-.47,1.132,4.429,4.429,0,0,1,1.218,3.972H.659A.662.662,0,1,0,.659,57H28.969a.662.662,0,1,0,0-1.324h-.781L30.67,44.745a1.192,1.192,0,0,1,1.172-.933H42.468a6.542,6.542,0,0,0,.212,1.073l-.344.1a.662.662,0,0,0,.371,1.271l.463-.139a6.21,6.21,0,0,0,1.457,1.827L43.3,55.675H34.9A.662.662,0,1,0,34.9,57h24.45a.662.662,0,1,0,0-1.324h-2.1l2.814-9.553a4.581,4.581,0,0,0-.113-2.893L59.2,41.243a2.979,2.979,0,0,1,0-2.138c1.053-2.781,1.265-3.112,1.265-4.025,0-7.839.046-7.594-.146-8.607a5.959,5.959,0,0,1,1.913,4.409v2.085a.662.662,0,1,0,1.324,0V30.881A7.283,7.283,0,0,0,61.41,25.7ZM13.238,32.4,21.1,26.015V28a2.43,2.43,0,0,1-.715,1.728L17.416,32.7c-1.324,1.324-2.648,1.125-4.191,1.125a4.634,4.634,0,0,0,.013-1.423ZM6.088,30.06a2.562,2.562,0,0,1,2.3,1.986,4.82,4.82,0,0,0-.947,2.337v-.9A4.979,4.979,0,0,0,6.088,30.06ZM1.818,42.447c1.556-1.735,1.662-1.986,2.3-2.251a7.446,7.446,0,0,0,1.172,2.529C3.923,43.295,3,42.845,1.818,42.447Zm10.97,5.661a1.728,1.728,0,0,1-2.959-.079l-.49-.828a4.82,4.82,0,0,1,4.224-.271Zm10.884-4.687L23.209,53.59H20.561l2.489-10.1ZM20.23,54.914h2.94l-.04.761H20.044ZM7.114,52.153A4.449,4.449,0,0,1,10,55.675H7.717a5.786,5.786,0,0,0-.6-3.522Zm4.231,3.522a6.5,6.5,0,0,0-.391-1.516,4.423,4.423,0,0,1,2.364-1.986,5.773,5.773,0,0,0-.6,3.522Zm13.1,0v-.761H26.97l-.172.761ZM43.806,43.811h7.329a12.308,12.308,0,0,1,1.841,1.946,4.959,4.959,0,0,1-9.169-1.946Zm8.256,11.864H48.493l1.893-6.415a6.316,6.316,0,0,0,3.045-1.893C53.432,47.744,53.518,47.108,52.061,55.675Zm-5.3-6.528-.179.887a.675.675,0,1,0,1.324.265l.179-.861a3.84,3.84,0,0,0,.914,0L47.732,53.59H45.017l.821-4.826a6.421,6.421,0,0,0,.894.384Zm-2.119,6.528.132-.761h2.562l-.225.761Zm8.759,0,.126-.761h2.562l-.225.761Zm5.733-20.616c0,.6-.086.662-1.185,3.562a4.383,4.383,0,0,0,0,3.072l.761,1.986a3.224,3.224,0,0,1,.079,2.059L56.484,53.59H53.756l.947-5.535a4.27,4.27,0,0,0-1.185-3.727l-3.085-3.085A5.555,5.555,0,0,1,48.8,37.27V34.9a.662.662,0,0,0-1.324,0,14.992,14.992,0,0,0,.265,4.27h-7.17a.662.662,0,0,0,0,1.324h7.693a7.627,7.627,0,0,0,1.549,1.986c-19.676,0-18.14-.046-18.657.1l1.066-4.707a.678.678,0,0,0-1.324-.291c-2.026,8.931-1.053,4.634-3.628,16H24.533l.5-10.891a.662.662,0,0,0-.742-.662l-7.945.96a.662.662,0,0,0-.477.3l-1.609,2.5a6.15,6.15,0,0,0-5.6.238L5.731,40.812a2.648,2.648,0,0,1,.662-3.41c1.172-.933,2.138-1.509,2.423-3.026l.079-.4a2.41,2.41,0,0,1,.92-1.476l1.774-1.324.285,1.132a3.376,3.376,0,0,1-.437,2.648L10.4,36.575a.662.662,0,0,0,1.106.7A23.052,23.052,0,0,0,12.8,35.2H14.7a5.111,5.111,0,0,0,3.655-1.516l2.973-2.973a3.721,3.721,0,0,0,1.106-2.648V24.956a14.267,14.267,0,0,1,4.436-2.6v3.218a4.74,4.74,0,0,0,1.4,3.37l2.291,2.291a4.707,4.707,0,0,0,3.363,1.4h9.209a6.084,6.084,0,0,0,4.323-1.788L50.261,28a3.145,3.145,0,0,1,2.238-.927A4.449,4.449,0,0,0,55.67,25.75l1.986-1.986a6.382,6.382,0,0,1,1.5,4.111Z" transform="translate(0.008 -20.168)" fill="#231f20"/>
      </g>
    </g>
  </g>
</svg>
