<svg xmlns="http://www.w3.org/2000/svg" width="98" height="97.999" viewBox="0 0 98 97.999">
  <g id="Group_1204922" data-name="Group 1204922" transform="translate(-12608.949 9788.932)">
    <g id="Group_1204642" data-name="Group 1204642" transform="translate(11806.168 -12326.947)">
      <g id="Group_1204237" data-name="Group 1204237" transform="translate(-1 566)">
        <g id="Group_1204143" data-name="Group 1204143" transform="translate(-67.331 1694.852)">
          <g id="Group_1188789" data-name="Group 1188789" transform="translate(871.113 277.164)">
            <path id="Path_1243039" data-name="Path 1243039" d="M41.05,0h0a41.05,41.05,0,0,1,0,82.1h0a41.05,41.05,0,0,1,0-82.1Z" transform="translate(7.951 7.949)" fill="#ffc94a"/>
            <rect id="Rectangle_400907" data-name="Rectangle 400907" width="88.438" height="88.437" rx="44.218" transform="translate(4.782 4.781)" fill="none"/>
            <g id="Group_1098742" data-name="Group 1098742" transform="translate(0)">
              <g id="Rectangle_400898" data-name="Rectangle 400898" transform="translate(0)" fill="none" stroke="#fff" stroke-width="2" opacity="0.859">
                <rect width="98" height="97.999" rx="48.999" stroke="none"/>
                <rect x="1" y="1" width="96" height="95.999" rx="47.999" fill="none"/>
              </g>
              <g id="Rectangle_400907-2" data-name="Rectangle 400907" transform="translate(0)" fill="none" stroke="#0f1f33" stroke-linecap="round" stroke-width="2">
                <rect width="98" height="97.999" rx="48.999" stroke="none"/>
                <rect x="1" y="1" width="96" height="95.999" rx="47.999" fill="none"/>
              </g>
            </g>
          </g>
        </g>
      </g>
    </g>
    <g id="vaca_4_" data-name="vaca (4)" transform="translate(12624 -9772.054)">
      <path id="Path_1245832" data-name="Path 1245832" d="M35,63l-.551-6.065L44,50.719V63Z" fill="#e3d3af"/>
      <path id="Path_1245833" data-name="Path 1245833" d="M63,16a18.949,18.949,0,0,1-8.472,2h-2.72a18.546,18.546,0,0,1-7.31-1.5A18.544,18.544,0,0,0,37.192,15H33L22.334,41l.115.172a17.841,17.841,0,0,1,2.933,8.41,8.083,8.083,0,0,0,11.058,6.84L40.99,54.6l7.3-.37a19.474,19.474,0,0,0,8.1,1.77A11.91,11.91,0,0,0,63,54Z" fill="#e5d3af"/>
      <path id="Path_1245834" data-name="Path 1245834" d="M51.808,22a18.546,18.546,0,0,1-7.31-1.5,18.519,18.519,0,0,0-5.022-1.341A13.447,13.447,0,0,1,43,28.2v3.083l-1.242-.31a15.91,15.91,0,0,1-8.612-5.513,8,8,0,0,1-.524.914A6.176,6.176,0,0,0,31.7,28.6L29.285,40.674a2.894,2.894,0,0,1-4.133,2.02,6.6,6.6,0,0,0-1.644-.555l-.2.485a17.822,17.822,0,0,1,2.073,6.959,8.089,8.089,0,0,0,11.064,6.839L40.99,54.6l7.3-.37a19.474,19.474,0,0,0,8.1,1.77A11.91,11.91,0,0,0,63,54V20a18.946,18.946,0,0,1-8.472,2Z" fill="#fff7e2"/>
      <path id="Path_1245835" data-name="Path 1245835" d="M11.232,9.827A9.065,9.065,0,0,1,4.008,2.062L4,2a15.846,15.846,0,0,0,9.005,4.488" fill="#a37763"/>
      <path id="Path_1245836" data-name="Path 1245836" d="M32.768,9.827a9.063,9.063,0,0,0,7.224-7.765L40,2a15.846,15.846,0,0,1-9.031,4.492" fill="#a37763"/>
      <path id="Path_1245837" data-name="Path 1245837" d="M11,16.243l.153,7.052A15.02,15.02,0,0,1,2,30V28.2a12.438,12.438,0,0,1,9-11.957Z" fill="#916657"/>
      <path id="Path_1245838" data-name="Path 1245838" d="M4.054,27.139a10.512,10.512,0,0,1,5.01-7.889l.077,3.477a12.918,12.918,0,0,1-5.087,4.412Z" fill="#fff7e2"/>
      <path id="Path_1245839" data-name="Path 1245839" d="M33,16.243A12.438,12.438,0,0,1,42,28.2V30a15.02,15.02,0,0,1-9.153-6.7Z" fill="#916657"/>
      <path id="Path_1245840" data-name="Path 1245840" d="M39.946,27.139a12.918,12.918,0,0,1-5.087-4.412l.077-3.477a10.512,10.512,0,0,1,5.01,7.889Z" fill="#fff7e2"/>
      <path id="Path_1245841" data-name="Path 1245841" d="M25.3,4A7.7,7.7,0,0,1,33,11.7V21.819a7.2,7.2,0,0,1-1.21,4A7.214,7.214,0,0,0,30.721,28.4L28.305,40.48a1.9,1.9,0,0,1-2.7,1.32,7.577,7.577,0,0,0-3.389-.8h-.422a7.577,7.577,0,0,0-3.389.8,1.89,1.89,0,0,1-2.7-1.323L13.279,28.4a7.214,7.214,0,0,0-1.069-2.583,7.2,7.2,0,0,1-1.21-4V11.7A7.7,7.7,0,0,1,18.7,4Z" fill="#e3d3af"/>
      <path id="Path_1245842" data-name="Path 1245842" d="M21.7,5A7.7,7.7,0,0,0,14,12.7V22.819a7.2,7.2,0,0,0,1.21,4A7.2,7.2,0,0,1,16.279,29.4L18.7,41.477c.012.061.034.116.051.174A7.578,7.578,0,0,1,21.789,41h.422a7.577,7.577,0,0,1,3.389.8,1.895,1.895,0,0,0,2.7-1.323L30.721,28.4a7.2,7.2,0,0,1,1.069-2.583,7.2,7.2,0,0,0,1.21-4V11.7a7.648,7.648,0,0,0-3.842-6.651A7.679,7.679,0,0,0,28.3,5Z" fill="#fff7e2"/>
      <path id="Path_1245843" data-name="Path 1245843" d="M24,19.983a14.5,14.5,0,0,0,2.066,7.46,14.487,14.487,0,0,1,1.455,3.294L29.16,36.2l1.561-7.8a7.2,7.2,0,0,1,1.069-2.583,7.2,7.2,0,0,0,1.21-4V12.1l-2.051.2A7.717,7.717,0,0,0,24,19.983Z" fill="#bf9275"/>
      <path id="Path_1245844" data-name="Path 1245844" d="M16.479,30.738a14.487,14.487,0,0,1,1.455-3.294A14.5,14.5,0,0,0,20,19.984a7.717,7.717,0,0,0-6.948-7.678L11,12.1v9.719a7.2,7.2,0,0,0,1.21,4A7.2,7.2,0,0,1,13.279,28.4l1.561,7.8Z" fill="#a37763"/>
      <path id="Path_1245845" data-name="Path 1245845" d="M20,19.983a7.712,7.712,0,0,0-5.981-7.511c0,.077-.019.152-.019.23V22.819a7.2,7.2,0,0,0,1.21,4A7.2,7.2,0,0,1,16.279,29.4l.244,1.22a14.49,14.49,0,0,1,1.411-3.173A14.5,14.5,0,0,0,20,19.984Z" fill="#bf9275"/>
      <path id="Path_1245846" data-name="Path 1245846" d="M19.1,38.447l-.1-.211A2.224,2.224,0,0,0,17,37V35a4.212,4.212,0,0,1,3.789,2.342l.106.211Z" fill="#383838"/>
      <path id="Path_1245847" data-name="Path 1245847" d="M24.9,38.447l-1.79-.894.106-.211A4.212,4.212,0,0,1,27,35v2a2.224,2.224,0,0,0-2,1.236Z" fill="#383838"/>
      <path id="Path_1245848" data-name="Path 1245848" d="M50,48a59.654,59.654,0,0,0-2.7,12.286L47,63H41V55a8.095,8.095,0,0,0-3.6-6.731L34,46Z" fill="#fff7e2"/>
      <path id="Path_1245849" data-name="Path 1245849" d="M14,19h2v3H14Z" fill="#383838"/>
      <path id="Path_1245850" data-name="Path 1245850" d="M28,19h2v3H28Z" fill="#383838"/>
      <path id="Path_1245851" data-name="Path 1245851" d="M36.333,42A3.333,3.333,0,1,1,41,37.333,6.666,6.666,0,0,0,46.333,40H47a2,2,0,0,1,0,4H42.333a10,10,0,0,1-6-2Z" fill="#bf9275"/>
      <path id="Path_1245852" data-name="Path 1245852" d="M54.528,18h-2.72A18.555,18.555,0,0,1,46,17.055v5.164a6.678,6.678,0,0,0,3.242,5.726A3.621,3.621,0,0,1,51,31.05a4.95,4.95,0,0,0,8.45,3.5L63,31V16a18.946,18.946,0,0,1-8.472,2Z" fill="#a37763"/>
      <path id="Path_1245853" data-name="Path 1245853" d="M51.808,22A18.555,18.555,0,0,1,46,21.055v1.164a6.678,6.678,0,0,0,3.242,5.726A3.621,3.621,0,0,1,51,31.05a4.95,4.95,0,0,0,8.45,3.5L63,31V20a18.946,18.946,0,0,1-8.472,2Z" fill="#bf9275"/>
      <circle id="Ellipse_12487" data-name="Ellipse 12487" cx="12" cy="12" r="12" transform="translate(38 38)" fill="#0056c0"/>
      <path id="Path_1245854" data-name="Path 1245854" d="M50,38a11.93,11.93,0,0,0-7.419,2.581A11.988,11.988,0,0,0,59.419,57.419,11.988,11.988,0,0,0,50,38Z" fill="#0068dd"/>
      <g id="Group_1204921" data-name="Group 1204921">
        <path id="Path_1245855" data-name="Path 1245855" d="M52.379,44.5h4.243v2H52.379Z" transform="translate(-16.211 51.864) rotate(-45)" fill="#8bc000"/>
        <path id="Path_1245856" data-name="Path 1245856" d="M43.379,53.5h4.243v2H43.379Z" transform="translate(-25.211 48.136) rotate(-45)" fill="#8bc000"/>
        <path id="Path_1245857" data-name="Path 1245857" d="M44.5,43.379h2v4.243h-2Z" transform="translate(-18.847 45.5) rotate(-45)" fill="#8bc000"/>
        <path id="Path_1245858" data-name="Path 1245858" d="M53.5,52.379h2v4.243h-2Z" transform="translate(-22.575 54.5) rotate(-45)" fill="#8bc000"/>
      </g>
      <circle id="Ellipse_12488" data-name="Ellipse 12488" cx="5" cy="5" r="5" transform="translate(45 45)" fill="#709300"/>
      <path id="Path_1245859" data-name="Path 1245859" d="M50,45a4.959,4.959,0,0,0-2.988,1.012,4.979,4.979,0,0,0,6.976,6.976A4.979,4.979,0,0,0,50,45Z" fill="#80ac00"/>
      <path id="Path_1245860" data-name="Path 1245860" d="M49,48h2V43h1V41H48v2h1Z" fill="#709300"/>
      <path id="Path_1245861" data-name="Path 1245861" d="M51,52H49v5H48v2h4V57H51Z" fill="#709300"/>
      <path id="Path_1245862" data-name="Path 1245862" d="M57,48v1H52v2h5v1h2V48Z" fill="#709300"/>
      <path id="Path_1245863" data-name="Path 1245863" d="M48,51V49H43V48H41v4h2V51Z" fill="#709300"/>
      <path id="Path_1245864" data-name="Path 1245864" d="M17,35v2a2.224,2.224,0,0,1,2,1.236l.1.211,1.79-.894-.106-.211A4.212,4.212,0,0,0,17,35Z"/>
      <path id="Path_1245865" data-name="Path 1245865" d="M23.211,37.342l-.106.211,1.79.894.1-.211A2.224,2.224,0,0,1,27,37V35a4.212,4.212,0,0,0-3.789,2.342Z"/>
      <path id="Path_1245866" data-name="Path 1245866" d="M14,19h2v3H14Z"/>
      <path id="Path_1245867" data-name="Path 1245867" d="M28,19h2v3H28Z"/>
      <path id="Path_1245868" data-name="Path 1245868" d="M48.728,28.8A2.632,2.632,0,0,1,50,31.05a5.95,5.95,0,0,0,10.157,4.207l3.55-3.55-1.414-1.414-3.55,3.55A3.95,3.95,0,0,1,52,31.05a4.642,4.642,0,0,0-2.243-3.962A5.709,5.709,0,0,1,47,22.219V18.376A19.431,19.431,0,0,0,51.808,19h2.72a20.051,20.051,0,0,0,8.919-2.1l-.894-1.79A18.03,18.03,0,0,1,54.528,17h-2.72a17.467,17.467,0,0,1-6.914-1.419A19.449,19.449,0,0,0,37.192,14H34V11.7a8.621,8.621,0,0,0-.083-1.137,10.068,10.068,0,0,0,7.075-8.44,1,1,0,0,0-1.7-.832A14.927,14.927,0,0,1,31.3,5.413,8.645,8.645,0,0,0,25.3,3H18.7a8.644,8.644,0,0,0-6,2.416A14.932,14.932,0,0,1,4.707,1.293a.986.986,0,0,0-1.143-.16,1.04,1.04,0,0,0-.548,1.053,10.039,10.039,0,0,0,7.067,8.378A8.649,8.649,0,0,0,10,11.7v3.82A13.494,13.494,0,0,0,1,28.2V30a1,1,0,0,0,1.242.97,15.9,15.9,0,0,0,8.608-5.532,8.251,8.251,0,0,0,.528.932,6.188,6.188,0,0,1,.921,2.224l2.416,12.08A2.894,2.894,0,0,0,18.848,42.7,6.627,6.627,0,0,1,21.786,42a16.878,16.878,0,0,1,2.6,7.667A9.141,9.141,0,0,0,33.442,58a.676.676,0,0,0,.1,0l.464,5.1L36,62.909l-.469-5.161a8.975,8.975,0,0,0,1.29-.4l1.978-.791A12.974,12.974,0,0,0,40,58.3V63h2V60.226a12.948,12.948,0,0,0,4.062,2.16l-.056.5,1.988.222.031-.277A12.994,12.994,0,1,0,44,38.48a5.626,5.626,0,0,1-2.2-1.747A4.334,4.334,0,1,0,35.733,42.8a10.963,10.963,0,0,0,2.626,1.449,12.868,12.868,0,0,0-1.005,2.786l-2.8-1.867-1.11,1.664,3.4,2.266c.067.045.129.1.194.143-.014.253-.038.5-.038.759a12.909,12.909,0,0,0,.914,4.757l-1.84.736A7.034,7.034,0,0,1,33.442,56a7.131,7.131,0,0,1-7.064-6.5,18.855,18.855,0,0,0-2.084-7.153,6.522,6.522,0,0,1,.858.347,2.894,2.894,0,0,0,4.133-2.02L31.7,28.593a6.188,6.188,0,0,1,.921-2.224,8.252,8.252,0,0,0,.528-.932,15.9,15.9,0,0,0,8.608,5.532A1,1,0,0,0,43,30V28.2A13.5,13.5,0,0,0,35.188,16h2A17.467,17.467,0,0,1,44.1,17.419c.294.126.6.22.894.331v4.469A7.719,7.719,0,0,0,48.728,28.8ZM61,50A11,11,0,1,1,50,39,11,11,0,0,1,61,50ZM36.934,41.2A2.333,2.333,0,1,1,40.2,37.933,7.649,7.649,0,0,0,42.1,39.7a13.12,13.12,0,0,0-2.7,2.8,8.952,8.952,0,0,1-2.466-1.3ZM33.43,8.627a8.629,8.629,0,0,0-.715-1.461A17.008,17.008,0,0,0,38.04,4.873,8.038,8.038,0,0,1,33.43,8.627ZM5.974,4.882a16.982,16.982,0,0,0,5.312,2.283,8.719,8.719,0,0,0-.716,1.462,8.015,8.015,0,0,1-4.6-3.745ZM3,28.657V28.2a11.487,11.487,0,0,1,7-10.531v4.154a8.165,8.165,0,0,0,.1,1.253A13.917,13.917,0,0,1,3,28.657Zm9-6.838V13.2l.951.1A6.7,6.7,0,0,1,19,19.983a13.5,13.5,0,0,1-1.925,6.948,15.521,15.521,0,0,0-1.554,3.52l-.487,1.621L14.26,28.2a8.162,8.162,0,0,0-1.218-2.941A6.179,6.179,0,0,1,12,21.819ZM26.047,40.9A8.626,8.626,0,0,0,22.211,40h-.422a8.626,8.626,0,0,0-3.836.9.918.918,0,0,1-1.277-.624l-.807-4.032,1.568-5.224a13.507,13.507,0,0,1,1.354-3.066A15.5,15.5,0,0,0,21,19.983a8.69,8.69,0,0,0-7.85-8.673l-1.107-.11A6.649,6.649,0,0,1,18.7,5h6.6a6.648,6.648,0,0,1,6.658,6.2l-1.107.111A8.69,8.69,0,0,0,23,19.983a15.5,15.5,0,0,0,2.21,7.977,13.507,13.507,0,0,1,1.353,3.065l1.568,5.224-.807,4.033a.918.918,0,0,1-1.277.623ZM30.958,25.26A8.162,8.162,0,0,0,29.74,28.2l-.774,3.871-.487-1.622a15.533,15.533,0,0,0-1.555-3.52A13.5,13.5,0,0,1,25,19.983,6.7,6.7,0,0,1,31.049,13.3L32,13.2v8.614A6.179,6.179,0,0,1,30.958,25.26ZM41,28.2v.461a13.917,13.917,0,0,1-7.1-5.585,8.165,8.165,0,0,0,.1-1.253V17.665A11.487,11.487,0,0,1,41,28.2Z"/>
      <path id="Path_1245869" data-name="Path 1245869" d="M41,48v4h2V51h1.09a5.964,5.964,0,0,0,1.025,2.471l-1.822,1.822,1.414,1.414,1.822-1.822A5.964,5.964,0,0,0,49,55.91V57H48v2h4V57H51V55.91a5.964,5.964,0,0,0,2.471-1.025l1.822,1.822,1.414-1.414-1.822-1.822A5.964,5.964,0,0,0,55.91,51H57v1h2V48H57v1H55.91a5.964,5.964,0,0,0-1.025-2.471l1.822-1.822-1.414-1.414-1.822,1.822A5.964,5.964,0,0,0,51,44.09V43h1V41H48v2h1v1.09a5.964,5.964,0,0,0-2.471,1.025l-1.822-1.822-1.414,1.414,1.822,1.822A5.964,5.964,0,0,0,44.09,49H43V48Zm8-1.858V48h2V46.142A4,4,0,0,1,53.858,49H52v2h1.858A4,4,0,0,1,51,53.858V52H49v1.858A4,4,0,0,1,46.142,51H48V49H46.142A4,4,0,0,1,49,46.142Z"/>
    </g>
  </g>
</svg>
