<svg xmlns="http://www.w3.org/2000/svg" width="98" height="97.998" viewBox="0 0 98 97.998">
  <g id="Group_1204728" data-name="Group 1204728" transform="translate(4736 8511)">
    <g id="Group_1204528" data-name="Group 1204528" transform="translate(-5538.781 -11049.016)">
      <g id="Group_1204237" data-name="Group 1204237" transform="translate(-1 566)">
        <g id="Group_1204143" data-name="Group 1204143" transform="translate(-67.331 1694.852)">
          <g id="Group_1188789" data-name="Group 1188789" transform="translate(871.113 277.164)">
            <path id="Path_1243039" data-name="Path 1243039" d="M41.05,0h0a41.05,41.05,0,0,1,0,82.1h0a41.05,41.05,0,0,1,0-82.1Z" transform="translate(7.951 7.949)" fill="#ffc94a"/>
            <rect id="Rectangle_400907" data-name="Rectangle 400907" width="88.438" height="88.437" rx="44.218" transform="translate(4.782 4.781)" fill="none"/>
            <g id="Group_1098742" data-name="Group 1098742" transform="translate(0)">
              <g id="Rectangle_400898" data-name="Rectangle 400898" transform="translate(0)" fill="none" stroke="#fff" stroke-width="2" opacity="0.859">
                <rect width="98" height="97.999" rx="48.999" stroke="none"/>
                <rect x="1" y="1" width="96" height="95.999" rx="47.999" fill="none"/>
              </g>
              <g id="Rectangle_400907-2" data-name="Rectangle 400907" transform="translate(0)" fill="none" stroke="#0f1f33" stroke-linecap="round" stroke-width="2">
                <rect width="98" height="97.999" rx="48.999" stroke="none"/>
                <rect x="1" y="1" width="96" height="95.999" rx="47.999" fill="none"/>
              </g>
            </g>
          </g>
        </g>
      </g>
    </g>
    <g id="vaca" transform="translate(-4723.994 -8663.833)">
      <g id="Group_1204727" data-name="Group 1204727" transform="translate(4.063 180.742)">
        <path id="Path_1245051" data-name="Path 1245051" d="M217.036,249.3h30.349a7.645,7.645,0,0,1,7.622,7.622V279.4a3.394,3.394,0,1,1-6.788,0v-7.446a2.337,2.337,0,0,0-2.332-2.332H226.156a2.337,2.337,0,0,0-2.332,2.332V279.4a3.394,3.394,0,1,1-6.788,0Z" transform="translate(-189.482 -240.918)" fill="#ebf1f5" fill-rule="evenodd"/>
        <path id="Path_1245052" data-name="Path 1245052" d="M258.54,231.18q4.369-1.648,5.394-4.724a10.34,10.34,0,0,0-5.394.3Z" transform="translate(-225.436 -220.93)" fill="#c3c3c9" fill-rule="evenodd"/>
        <path id="Path_1245053" data-name="Path 1245053" d="M140.589,231.18q-4.369-1.648-5.394-4.724a10.34,10.34,0,0,1,5.394.3Z" transform="translate(-118.585 -220.93)" fill="#c3c3c9" fill-rule="evenodd"/>
        <path id="Path_1245054" data-name="Path 1245054" d="M231.069,191.1l3.247,1.774a5.491,5.491,0,0,0,1.365-6.245A18.457,18.457,0,0,1,231.069,191.1Z" transform="translate(-201.639 -186.629)" fill="#a3a3ad" fill-rule="evenodd"/>
        <path id="Path_1245055" data-name="Path 1245055" d="M170.365,191.1l-3.247,1.774a5.49,5.49,0,0,1-1.365-6.245A18.459,18.459,0,0,0,170.365,191.1Z" transform="translate(-144.688 -186.629)" fill="#a3a3ad" fill-rule="evenodd"/>
        <path id="Path_1245056" data-name="Path 1245056" d="M179.394,216.926c.949,0,1.621-.34,2.764-.34a3.056,3.056,0,0,1,3.047,3.047v4.754c-.16,2.17-1.392,4.362-2.186,6.206a2.534,2.534,0,0,1-2.065,4.007h-3.121a2.534,2.534,0,0,1-2.065-4.007c-.793-1.843-2.026-4.035-2.186-6.206v-4.754a3.056,3.056,0,0,1,3.047-3.047c1.144,0,1.815.34,2.764.34Z" transform="translate(-151.84 -212.58)" fill="#e0e4e8" fill-rule="evenodd"/>
        <path id="Path_1245057" data-name="Path 1245057" d="M194.588,315.883a2.545,2.545,0,0,1-2.537,2.537H188.93a2.537,2.537,0,1,1,0-5.075h3.121A2.545,2.545,0,0,1,194.588,315.883Z" transform="translate(-162.937 -296.401)" fill="#c3c3c9" fill-rule="evenodd"/>
        <path id="Path_1245058" data-name="Path 1245058" d="M217.036,386.416a4.112,4.112,0,0,1,0,8.121Z" transform="translate(-189.482 -359.699)" fill="#c3c3c9" fill-rule="evenodd"/>
        <path id="Path_1245059" data-name="Path 1245059" d="M468.03,338.28a4.125,4.125,0,0,1,.845.087v8.05a4.112,4.112,0,1,1-.845-8.137Z" transform="translate(-403.35 -318)" fill="#c3c3c9" fill-rule="evenodd"/>
        <path id="Path_1245060" data-name="Path 1245060" d="M330.685,249.5a9.863,9.863,0,0,1-19.484-.2h17.757a7.577,7.577,0,0,1,1.727.2Z" transform="translate(-271.055 -240.918)" fill="#c3c3c9" fill-rule="evenodd"/>
        <path id="Path_1245061" data-name="Path 1245061" d="M273.968,357.781a5.55,5.55,0,0,1,5.55,5.55q0,.136-.007.27h-8.843a2.336,2.336,0,0,0-2.047,1.218,5.553,5.553,0,0,1,5.348-7.037Z" transform="translate(-233.993 -334.894)" fill="#c3c3c9" fill-rule="evenodd"/>
        <path id="Path_1245062" data-name="Path 1245062" d="M398.509,404.98a5.384,5.384,0,0,1-7.984-3.682h5.651a2.337,2.337,0,0,1,2.332,2.332v1.35Z" transform="translate(-339.771 -372.591)" fill="#c3c3c9" fill-rule="evenodd"/>
        <path id="Path_1245063" data-name="Path 1245063" d="M80.8,329.1A15.682,15.682,0,0,1,87.9,318.919a24.955,24.955,0,0,0-3.185,10.719,16.156,16.156,0,0,0-1.937,1.7A14.283,14.283,0,0,0,80.8,329.1Z" transform="translate(-71.463 -301.228)" fill="#c9f550" fill-rule="evenodd"/>
        <path id="Path_1245064" data-name="Path 1245064" d="M36.843,375.082a13.959,13.959,0,0,0-9.075-5.662,21.891,21.891,0,0,1,5.976,7.224,9.925,9.925,0,0,1,1.052.951,18.662,18.662,0,0,1,2.047-2.513Z" transform="translate(-25.524 -344.976)" fill="#b8e739" fill-rule="evenodd"/>
        <path id="Path_1245065" data-name="Path 1245065" d="M18.835,450.145a11.5,11.5,0,0,0-7.507-2.964,14.542,14.542,0,0,1,5.929,7.036h2.263a13.325,13.325,0,0,0-.684-4.072Z" transform="translate(-11.283 -412.339)" fill="#99d100" fill-rule="evenodd"/>
        <path id="Path_1245066" data-name="Path 1245066" d="M85.246,384.9a25.2,25.2,0,0,1,8.6-9.423,16.242,16.242,0,0,0-13.521,7.365,13.873,13.873,0,0,1,2.881,4.8A19.021,19.021,0,0,1,85.246,384.9Z" transform="translate(-71.052 -350.219)" fill="#99d100" fill-rule="evenodd"/>
        <path id="Path_1245067" data-name="Path 1245067" d="M23.142,415.746q-3.26-8.677-12.153-7.736,8.1,4.337,8.237,12.194h1.652a34.269,34.269,0,0,1,2.265-4.459Z" transform="translate(-10.989 -378.326)" fill="#c9f550" fill-rule="evenodd"/>
        <path id="Path_1245068" data-name="Path 1245068" d="M118.671,458.193a12.718,12.718,0,0,1,7.622-1.78c-2.99,1.786-4.945,3.576-6.044,5.791h-3.76a35.412,35.412,0,0,1,2.181-4.011Z" transform="translate(-102.382 -420.326)" fill="#99d100" fill-rule="evenodd"/>
        <path id="Path_1245069" data-name="Path 1245069" d="M84.935,422.908c2.248-5.193,5.686-11.354,14.3-11.869-4.725,2.669-7.943,7.284-10.078,11.869Z" transform="translate(-75.047 -381.03)" fill="#b8e739" fill-rule="evenodd"/>
      </g>
      <path id="Path_1245071" data-name="Path 1245071" d="M33.426,192.2a1.041,1.041,0,1,1,1.038,1.041A1.039,1.039,0,0,1,33.426,192.2Zm-4.662-1.1a1.1,1.1,0,1,1-1.1,1.1A1.1,1.1,0,0,1,28.765,191.106Zm-10.729,29.54c-.032.054-.058.108-.084.163l-.194.369c-.052.112-.11.225-.168.338-.032.065-.064.13-.1.2H15.612c1.76-3.71,4.075-7.074,8.046-8.713A28.971,28.971,0,0,0,18.036,220.646Zm3.256,1.066a12.65,12.65,0,0,1,2.875-3.36,9.426,9.426,0,0,0-3.037,1.188c-.432.689-.845,1.415-1.238,2.172h1.4ZM8.114,217.7a10.179,10.179,0,0,1,2.572,1.618,12.116,12.116,0,0,1,.477,2.359v.034H10.75a14.734,14.734,0,0,0-2.637-4.01Zm-.322-5.961a14.172,14.172,0,0,1,5,7.143v0a13.8,13.8,0,0,1,.445,2.154.032.032,0,0,1,.007.023c.019.176.045.352.058.531a35.356,35.356,0,0,1,1.721-3.371c-.019-.041-.032-.081-.052-.122s-.032-.08-.045-.119c-.039-.079-.071-.157-.1-.235a.376.376,0,0,1-.032-.073c-.045-.091-.084-.181-.129-.269,0-.008-.006-.017-.006-.026a13.331,13.331,0,0,0-1.141-1.957c-.045-.066-.1-.131-.142-.195-.013-.015-.019-.03-.032-.045a8.644,8.644,0,0,0-5.551-3.442Zm4.971-2.095.1.085q.164.16.329.328a1.058,1.058,0,0,1,.084.088c.1.1.193.2.284.3.026.028.045.055.071.083q.155.177.309.361c.013.019.032.037.045.055-.026.034-.058.068-.084.1-.077.09-.155.181-.232.273-.052.057-.1.113-.142.17-.09.108-.181.219-.264.329l-.077.1c-.026-.016-.039-.032-.064-.048a25.541,25.541,0,0,0-2.553-3.852,12.2,12.2,0,0,1,2.2,1.628Zm1.812-1.227a14.263,14.263,0,0,1,2.979-5.85,28.773,28.773,0,0,0-1.257,6.181c-.077.062-.155.126-.232.189l-.019.017c-.122.1-.245.2-.361.3-.019.014-.032.028-.052.043l-.135.117-.058-.066c-.1-.126-.213-.248-.322-.369L15,208.859c-.129-.141-.264-.28-.4-.415a.107.107,0,0,0-.026-.026Zm2.8,6.545a25.851,25.851,0,0,1,5.641-7.2,14.377,14.377,0,0,0-4.977,2.335.651.651,0,0,1-.084.069,15.057,15.057,0,0,0-1.805,1.582v0c-.245.254-.49.52-.729.8l-.135.164q-.135.161-.271.327c-.077.1-.161.206-.239.311a.883.883,0,0,0-.071.094c.122.148.239.3.355.455.006.005.006.01.013.016.206.275.4.562.593.862l.039.066c.077.122.155.246.226.373l.058.1q.126.219.251.447c.007.018.019.036.026.054.052.1.11.2.161.3.3-.407.619-.792.948-1.16Zm11.405-3.12a19.623,19.623,0,0,0-5.313,4.475,17.327,17.327,0,0,1,4.545-.4,1.071,1.071,0,0,1,.516,1.988c-2.934,1.749-4.674,3.4-5.641,5.348a1.056,1.056,0,0,1-.954.594h-11.9a1.062,1.062,0,0,1-.993-.682,13.515,13.515,0,0,0-5.519-6.527,1.069,1.069,0,0,1,.619-1.966,13.21,13.21,0,0,1,4.591.962,16.426,16.426,0,0,0-5.177-4.108,1.071,1.071,0,0,1,.393-2.006,14.119,14.119,0,0,1,5.364.375,18.736,18.736,0,0,0-3.656-3.7,1.071,1.071,0,0,1,.857-1.9,15.9,15.9,0,0,1,6.267,2.6,16.729,16.729,0,0,1,7.131-9.2,1.072,1.072,0,0,1,1.515,1.437,22.694,22.694,0,0,0-2.785,8.068,18.381,18.381,0,0,1,8.169-2.118,1.068,1.068,0,0,1,.632,1.961,25.6,25.6,0,0,0-4.726,4.022,16.383,16.383,0,0,1,5.467-1.225,1.071,1.071,0,0,1,.593,2Zm39.742-11.726v-3.212a6.57,6.57,0,0,0-4.043-6.052,10.934,10.934,0,0,1-21.154-.5H40.905a12.165,12.165,0,0,1-2.411,1.406v1.03a16.059,16.059,0,0,1-1.747,5.386c-.1.233-.206.457-.309.676a3.511,3.511,0,0,1,.348,1.535,3.612,3.612,0,0,1-3.611,3.607h-.49v2.8a5.185,5.185,0,0,1,0,9.781v2.816a2.324,2.324,0,1,0,4.649,0v-7.445a3.351,3.351,0,0,1,.232-1.222,6.619,6.619,0,1,1,13.043-2.18h9.858a3.407,3.407,0,0,1,3.4,3.4v7.445a2.324,2.324,0,1,0,4.649,0v-8.916a5.181,5.181,0,0,1,0-10.353Zm0,8.211a3.042,3.042,0,0,1,0-6.068Zm-8.407,4.613a4.306,4.306,0,0,1-2.888-1.106c-.006-.007-.019-.015-.026-.022a4.308,4.308,0,0,1-.883-1.134h4.152a1.264,1.264,0,0,1,1.264,1.262v.684a4.333,4.333,0,0,1-1.618.317ZM39.6,208.736a4.479,4.479,0,0,1,8.846-.2h-7.7a3.389,3.389,0,0,0-1.141.2Zm-6.912.429a3.053,3.053,0,0,1,0,5.03Zm-4.094-8.779a1.468,1.468,0,0,0,1.463,1.467h3.12a1.467,1.467,0,1,0,0-2.935h-3.12A1.467,1.467,0,0,0,28.591,200.386ZM22.285,187.28a9.557,9.557,0,0,1,2.476.214c-.013.152-.026.306-.026.461v1.416a7.015,7.015,0,0,1-2.45-2.091Zm4.5-2.883a4.457,4.457,0,0,0-.658.473,4.278,4.278,0,0,1-.348-1.529c.322.363.658.717,1.006,1.057Zm4.829,1.921a7.116,7.116,0,0,1-1.457-.179,6.3,6.3,0,0,0-1.3-.161,1.981,1.981,0,0,0-1.979,1.977v4.713a14.339,14.339,0,0,0,1.509,4.522,3.6,3.6,0,0,1,1.67-.412h3.12a3.561,3.561,0,0,1,1.67.412,14.355,14.355,0,0,0,1.515-4.522v-4.713a1.981,1.981,0,0,0-1.979-1.977,6.3,6.3,0,0,0-1.309.161A7,7,0,0,1,31.614,186.319Zm5.841-2.98a4.322,4.322,0,0,1-.355,1.532,4.1,4.1,0,0,0-.651-.473c.342-.34.677-.7,1.006-1.059Zm3.488,3.941a7.016,7.016,0,0,1-2.45,2.091v-1.416a3.633,3.633,0,0,0-.026-.461,9.594,9.594,0,0,1,2.476-.214Zm21.444,3.088a8.749,8.749,0,0,1-8.42,6.269,8.84,8.84,0,0,1-8.427-6.285H61.963C62.111,190.353,62.253,190.36,62.388,190.369Zm-.426-2.155H42.891a6.734,6.734,0,0,0,.683-1.447,1.06,1.06,0,0,0-.084-.861,1.048,1.048,0,0,0-.69-.519,10.451,10.451,0,0,0-3.533-.186,7.032,7.032,0,0,0-.161-4.67,1.072,1.072,0,0,0-.832-.683,1.056,1.056,0,0,0-1,.384,21.957,21.957,0,0,1-3.456,3.633,9.92,9.92,0,0,0-1.16.178,5.29,5.29,0,0,1-1.045.138,5.217,5.217,0,0,1-1.038-.138,9.923,9.923,0,0,0-1.161-.178,21.952,21.952,0,0,1-3.456-3.633,1.072,1.072,0,0,0-1.838.3,6.825,6.825,0,0,0-.161,4.669,10.471,10.471,0,0,0-3.533.187,1.073,1.073,0,0,0-.774,1.38c.709,2.119,2.418,3.795,5.081,4.992v.95a.331.331,0,0,0,.006.079,15.908,15.908,0,0,0,1.741,5.386c.11.233.213.457.309.676a3.609,3.609,0,0,0,3.262,5.142h.49v15.395a4.465,4.465,0,0,0,8.93,0v-7.445a1.264,1.264,0,0,1,1.264-1.262h13.25a6.505,6.505,0,0,0,1.012,1.9l-.335.34a1.07,1.07,0,0,0,.754,1.827,1.08,1.08,0,0,0,.761-.313l.4-.4a6.39,6.39,0,0,0,1.638.769v.658a1.07,1.07,0,0,0,2.141,0v-.382a6.469,6.469,0,0,0,1.373-.2v4.514a4.465,4.465,0,0,0,8.93,0V196.906a8.7,8.7,0,0,0-8.7-8.692Z" transform="translate(0 0)" fill-rule="evenodd"/>
    </g>
  </g>
</svg>
