<svg xmlns="http://www.w3.org/2000/svg" width="98" height="97.999" viewBox="0 0 98 97.999">
  <g id="Group_1204526" data-name="Group 1204526" transform="translate(-802.781 -2538.016)">
    <g id="Group_1204237" data-name="Group 1204237" transform="translate(-1 566)">
      <g id="Group_1204143" data-name="Group 1204143" transform="translate(-67.331 1694.852)">
        <g id="Group_1188789" data-name="Group 1188789" transform="translate(871.113 277.164)">
          <path id="Path_1243039" data-name="Path 1243039" d="M41.05,0h0a41.05,41.05,0,0,1,0,82.1h0a41.05,41.05,0,0,1,0-82.1Z" transform="translate(7.951 7.949)" fill="#ffc94a"/>
          <rect id="Rectangle_400907" data-name="Rectangle 400907" width="88.438" height="88.437" rx="44.218" transform="translate(4.782 4.781)" fill="none"/>
          <g id="Group_1098742" data-name="Group 1098742" transform="translate(0)">
            <g id="Rectangle_400898" data-name="Rectangle 400898" transform="translate(0)" fill="none" stroke="#fff" stroke-width="2" opacity="0.859">
              <rect width="98" height="97.999" rx="48.999" stroke="none"/>
              <rect x="1" y="1" width="96" height="95.999" rx="47.999" fill="none"/>
            </g>
            <g id="Rectangle_400907-2" data-name="Rectangle 400907" transform="translate(0)" fill="none" stroke="#0f1f33" stroke-linecap="round" stroke-width="2">
              <rect width="98" height="97.999" rx="48.999" stroke="none"/>
              <rect x="1" y="1" width="96" height="95.999" rx="47.999" fill="none"/>
            </g>
          </g>
        </g>
      </g>
    </g>
    <g id="hierba" transform="translate(825.832 2558.495)">
      <g id="Group_1204719" data-name="Group 1204719" transform="translate(0 4.824)">
        <path id="Path_1245015" data-name="Path 1245015" d="M33.3,34V48.364a4.194,4.194,0,0,0-3.3,0V34Z" transform="translate(-5.247 -10.071)" fill="#a8e580"/>
        <path id="Path_1245016" data-name="Path 1245016" d="M59.842,27s-5.776,9.076-5.776,23.928h-3.3a1.65,1.65,0,0,0-3.3,0H44.99a25.246,25.246,0,0,1,2.7-12.7,23.226,23.226,0,0,1,7.393-8.515A27.455,27.455,0,0,1,59.842,27Z" transform="translate(-7.86 -8.846)" fill="#7fc94f"/>
        <path id="Path_1245017" data-name="Path 1245017" d="M44.516,33.589a41.121,41.121,0,0,1,1.89,5.792,25.246,25.246,0,0,0-2.7,12.7H39.582A81.659,81.659,0,0,0,37.61,33.927h4.447A8.982,8.982,0,0,0,44.516,33.589Z" transform="translate(-6.577 -9.999)" fill="#5eb132"/>
        <path id="Path_1245018" data-name="Path 1245018" d="M60.007,9.009c-.272.248-3.655,3.391-4.744,17.558a23.226,23.226,0,0,0-7.393,8.515,41.121,41.121,0,0,0-1.89-5.792A9.071,9.071,0,0,0,52.6,20.552V16.427H49.66A20.278,20.278,0,0,1,60.007,9.009Z" transform="translate(-8.041 -5.7)" fill="#5eb132"/>
        <path id="Path_1245019" data-name="Path 1245019" d="M50.153,18v4.126A9.072,9.072,0,0,1,41.076,31.2H32C40.251,18,50.153,18,50.153,18Z" transform="translate(-5.596 -7.273)" fill="#7fc94f"/>
        <path id="Path_1245020" data-name="Path 1245020" d="M44.428,15.9H41.952a9.24,9.24,0,0,0-2.5.347A23.458,23.458,0,0,0,37.01,6.009,12.326,12.326,0,0,1,44.428,15.9Z" transform="translate(-6.472 -5.176)" fill="#7fc94f"/>
        <path id="Path_1245021" data-name="Path 1245021" d="M47.215,18h2.937S40.251,18,32,31.2V27.075a9.053,9.053,0,0,1,4.175-7.641A8.987,8.987,0,0,1,41.076,18Z" transform="translate(-5.596 -7.273)" fill="#a8e580"/>
        <path id="Path_1245022" data-name="Path 1245022" d="M35.827,18.737A9.109,9.109,0,0,0,33.4,21.014a40.54,40.54,0,0,0-3.391-7.005A26.1,26.1,0,0,1,35.827,18.737Z" transform="translate(-5.248 -6.575)" fill="#5eb132"/>
        <path id="Path_1245023" data-name="Path 1245023" d="M28.153,27.075V31.2C19.9,18,10,18,10,18h9.076a9.071,9.071,0,0,1,9.076,9.076Z" transform="translate(-1.749 -7.273)" fill="#a8e580"/>
        <path id="Path_1245024" data-name="Path 1245024" d="M11.307,5a8.785,8.785,0,0,1,3.267,6.073,4.814,4.814,0,0,0-1.815,1.155,4.9,4.9,0,0,0-1.452,3.5,4.9,4.9,0,0,0-1.452-3.5A4.814,4.814,0,0,0,8.04,11.072,8.785,8.785,0,0,1,11.307,5Z" transform="translate(-1.406 -4.999)" fill="#7fc94f"/>
        <path id="Path_1245025" data-name="Path 1245025" d="M15.267,12.3a4.754,4.754,0,0,1,1.683-.3h4.126v1.65a3.872,3.872,0,0,1-1.65,3.3H12a4.9,4.9,0,0,1,1.452-3.5A4.814,4.814,0,0,1,15.267,12.3Z" transform="translate(-2.099 -6.223)" fill="#5eb132"/>
        <path id="Path_1245026" data-name="Path 1245026" d="M8.426,16.95V18.6H5.951A4.955,4.955,0,0,1,1,13.649V12H5.126a4.754,4.754,0,0,1,1.683.3,4.814,4.814,0,0,1,1.815,1.155,4.9,4.9,0,0,1,1.452,3.5Z" transform="translate(-0.175 -6.223)" fill="#7fc94f"/>
        <path id="Path_1245027" data-name="Path 1245027" d="M28.153,31.2H19.076A9.063,9.063,0,0,1,10,22.125V18S19.9,18,28.153,31.2Z" transform="translate(-1.749 -7.273)" fill="#7fc94f"/>
        <path id="Path_1245028" data-name="Path 1245028" d="M10.076,30.95V32.6H5.951A4.955,4.955,0,0,1,1,27.649V26H5.126a4.9,4.9,0,0,1,3.5,1.452,4.857,4.857,0,0,1,.858,1.139A4.957,4.957,0,0,1,10.076,30.95Z" transform="translate(-0.175 -8.672)" fill="#5eb132"/>
        <path id="Path_1245029" data-name="Path 1245029" d="M10.076,43.95V45.6H5.951A4.955,4.955,0,0,1,1,40.649V39H5.126a4.958,4.958,0,0,1,4.951,4.951Z" transform="translate(-0.175 -10.945)" fill="#7fc94f"/>
        <path id="Path_1245030" data-name="Path 1245030" d="M12,43.95A4.958,4.958,0,0,1,16.951,39h4.126v1.65A4.955,4.955,0,0,1,16.126,45.6H12Z" transform="translate(-2.099 -10.945)" fill="#5eb132"/>
        <path id="Path_1245031" data-name="Path 1245031" d="M28.054,51.337A4.155,4.155,0,0,1,30.1,53.3a3.388,3.388,0,0,0,1.2,1.328,3.225,3.225,0,0,0,1.708.5h6.6a1.65,1.65,0,1,1,3.3,0h9.9v6.6H0v-6.6H8.251c0-1.37,1.65-2.475,3.3-2.475s3.3,1.106,3.3,2.475H19.8a3.258,3.258,0,0,0,2.9-1.824,4.155,4.155,0,0,1,2.046-1.964,4.194,4.194,0,0,1,3.3,0Z" transform="translate(0 -13.044)" fill="#9b7868"/>
        <path id="Path_1245032" data-name="Path 1245032" d="M13.3,47V51.95c-1.65,0-3.3,1.106-3.3,2.475V47Z" transform="translate(-1.749 -12.344)" fill="#5eb132"/>
      </g>
      <g id="Group_1204720" data-name="Group 1204720" transform="translate(0 3.998)">
        <path id="Path_1245033" data-name="Path 1245033" d="M51.982,46.08H47.041c.208-13.925,5.582-22.573,5.637-22.661a.825.825,0,0,0-1.036-1.194,29.947,29.947,0,0,0-3.451,1.836c1.156-12.095,4-15.014,4.329-15.317a.825.825,0,0,0-.738-1.415c-.238.054-5.788,1.393-10.555,7.4H38.656a13.11,13.11,0,0,0-7.83-9.841.821.821,0,0,0-.911.241.835.835,0,0,0-.092.946,22.586,22.586,0,0,1,2.3,9.24,9.982,9.982,0,0,0-1.4.636,26.113,26.113,0,0,0-5.571-4.42.825.825,0,0,0-1.074,1.182,39.213,39.213,0,0,1,3.159,6.465,9.968,9.968,0,0,0-.824,1.483,9.9,9.9,0,0,0-7.332-5.771A4.964,4.964,0,0,0,19.8,12.25V10.6a.825.825,0,0,0-.825-.825H14.852a5.892,5.892,0,0,0-1.009.087,9.345,9.345,0,0,0-3.447-5.7.822.822,0,0,0-.99,0,9.343,9.343,0,0,0-3.447,5.7,5.815,5.815,0,0,0-1.008-.087H.825A.825.825,0,0,0,0,10.6v1.65a5.782,5.782,0,0,0,5.776,5.776h1.65v1.65a9.9,9.9,0,0,0,.288,2.352,5.739,5.739,0,0,0-2.763-.7H.825A.825.825,0,0,0,0,22.151V23.8a5.782,5.782,0,0,0,5.776,5.776h3.3v4.216a5.848,5.848,0,0,0-4.126-1.741H.825A.825.825,0,0,0,0,32.878v1.65A5.782,5.782,0,0,0,5.776,40.3h1.65V46.08H.825a.825.825,0,0,0,0,1.65H8.251a.825.825,0,0,0,.825-.825c0-.833,1.226-1.65,2.475-1.65s2.475.817,2.475,1.65a.825.825,0,0,0,.825.825H19.8a4.068,4.068,0,0,0,3.645-2.286,3.324,3.324,0,0,1,1.629-1.568,3.4,3.4,0,0,1,2.642,0,3.339,3.339,0,0,1,1.645,1.583,4.236,4.236,0,0,0,1.5,1.656A4.058,4.058,0,0,0,33,47.73h6.6a.825.825,0,0,0,.825-.825.825.825,0,0,1,1.65,0,.825.825,0,0,0,.825.825h9.076a.825.825,0,0,0,0-1.65ZM36.994,14.725H35.48a9.988,9.988,0,0,0-1.735.158,27.544,27.544,0,0,0-1.475-7.319,11.26,11.26,0,0,1,4.725,7.161Zm-9.817.23c.644.526,1.371,1.168,2.138,1.925a9.78,9.78,0,0,0-.9.822c-.438-1.05-.857-1.97-1.236-2.747ZM14.852,11.425h3.3v.825a3.139,3.139,0,0,1-1.113,2.475h-6.23a4.069,4.069,0,0,1,1.132-2.095,4.028,4.028,0,0,1,1.517-.96,3.944,3.944,0,0,1,1.393-.245ZM9.9,5.893a7.907,7.907,0,0,1,2.361,4.5,5.6,5.6,0,0,0-1.489,1.074,5.717,5.717,0,0,0-.87,1.116,5.714,5.714,0,0,0-.864-1.109,5.642,5.642,0,0,0-1.5-1.083,7.908,7.908,0,0,1,2.36-4.5ZM7.426,15.55v.825H5.776A4.13,4.13,0,0,1,1.65,12.25v-.825h3.3a3.979,3.979,0,0,1,1.406.249,4.138,4.138,0,0,1,2.638,3.051H8.252a.825.825,0,0,0-.825.825ZM5.776,27.927A4.13,4.13,0,0,1,1.65,23.8v-.825h3.3a4.079,4.079,0,0,1,2.923,1.217,4.044,4.044,0,0,1,.709.941,4.153,4.153,0,0,1,.5,1.968v.825h-3.3Zm0,10.726A4.13,4.13,0,0,1,1.65,34.528V33.7h3.3a4.133,4.133,0,0,1,4.126,4.126v.825Zm4.951,5.037a4.868,4.868,0,0,0-1.65.624V40.3h1.65Zm0-5.037v-.825A4.133,4.133,0,0,1,14.852,33.7h3.3v.825a4.13,4.13,0,0,1-4.126,4.126Zm13.2,3.981a4.97,4.97,0,0,0-1.96,2.078A2.423,2.423,0,0,1,19.8,46.08H15.541a4.057,4.057,0,0,0-3.164-2.389V40.3h1.65A5.783,5.783,0,0,0,19.8,34.528v-1.65a.825.825,0,0,0-.825-.825H14.852a5.857,5.857,0,0,0-4.126,1.742V27.048a9.852,9.852,0,0,0,6.6,2.529h6.6Zm-5.466-21.8a31.91,31.91,0,0,1,6.419,7.1H17.327a8.237,8.237,0,0,1-8.251-8.251v-3.3h8.251a8.246,8.246,0,0,1,8.251,8.251v1.424a32.882,32.882,0,0,0-6.085-6.511.825.825,0,1,0-1.03,1.289Zm8.766,21.2a5.035,5.035,0,0,0-1.65,0V29.577h1.65V42.028Zm.7-14.1a30.29,30.29,0,0,1,8.181-8.389.825.825,0,0,0-.913-1.375,31.275,31.275,0,0,0-7.971,7.9V24.627a8.229,8.229,0,0,1,3.795-6.946,8.309,8.309,0,0,1,2.179-.989,8.42,8.42,0,0,1,2.276-.316H43.73v3.3a8.278,8.278,0,0,1-6.018,7.944,8.145,8.145,0,0,1-2.233.307H27.931Zm3.81,17.789a2.569,2.569,0,0,1-.9-1,4.968,4.968,0,0,0-1.962-2.083V29.577h1.485a80.928,80.928,0,0,1,1.8,16.342A2.422,2.422,0,0,1,31.741,45.716Zm2.078.364a82.76,82.76,0,0,0-1.768-16.5H35.48a9.782,9.782,0,0,0,2.682-.369,9.933,9.933,0,0,0,7.22-9.533V15.55a.825.825,0,0,0-.825-.825H43.379A20.687,20.687,0,0,1,49.84,9.816c-1.2,2.385-2.724,6.971-3.409,15.438A24.1,24.1,0,0,0,40.1,32.067c-.109-.367-.218-.735-.336-1.095a.825.825,0,1,0-1.569.512c.281.862.535,1.751.762,2.642A26.442,26.442,0,0,0,36.262,46.08H33.818Zm9.771,0a2.476,2.476,0,0,0-4.668,0h-1a25.033,25.033,0,0,1,2.647-11.5A22.408,22.408,0,0,1,47.7,26.36a24.432,24.432,0,0,1,2.324-1.475A51.426,51.426,0,0,0,45.395,46.08H43.589Z" transform="translate(0 -3.998)" fill="#252525"/>
        <circle id="Ellipse_12449" data-name="Ellipse 12449" cx="1" cy="1" r="1" transform="translate(11 45.507)" fill="#252525"/>
        <ellipse id="Ellipse_12450" data-name="Ellipse 12450" cx="1.5" cy="1" rx="1.5" ry="1" transform="translate(40 45.507)" fill="#252525"/>
        <circle id="Ellipse_12451" data-name="Ellipse 12451" cx="1" cy="1" r="1" transform="translate(30 45.507)" fill="#252525"/>
        <circle id="Ellipse_12452" data-name="Ellipse 12452" cx="1" cy="1" r="1" transform="translate(23 44.507)" fill="#252525"/>
        <circle id="Ellipse_12453" data-name="Ellipse 12453" cx="0.5" cy="0.5" r="0.5" transform="translate(16 14.507)" fill="#252525"/>
      </g>
    </g>
  </g>
</svg>
