<svg xmlns="http://www.w3.org/2000/svg" width="98" height="97.999" viewBox="0 0 98 97.999">
  <g id="Group_1204748" data-name="Group 1204748" transform="translate(4100 8033)">
    <g id="Group_1204534" data-name="Group 1204534" transform="translate(-4902.781 -10571.016)">
      <g id="Group_1204237" data-name="Group 1204237" transform="translate(-1 566)">
        <g id="Group_1204143" data-name="Group 1204143" transform="translate(-67.331 1694.852)">
          <g id="Group_1188789" data-name="Group 1188789" transform="translate(871.113 277.164)">
            <path id="Path_1243039" data-name="Path 1243039" d="M41.05,0h0a41.05,41.05,0,0,1,0,82.1h0a41.05,41.05,0,0,1,0-82.1Z" transform="translate(7.951 7.949)" fill="#ffc94a"/>
            <rect id="Rectangle_400907" data-name="Rectangle 400907" width="88.438" height="88.437" rx="44.218" transform="translate(4.782 4.781)" fill="none"/>
            <g id="Group_1098742" data-name="Group 1098742" transform="translate(0)">
              <g id="Rectangle_400898" data-name="Rectangle 400898" transform="translate(0)" fill="none" stroke="#fff" stroke-width="2" opacity="0.859">
                <rect width="98" height="97.999" rx="48.999" stroke="none"/>
                <rect x="1" y="1" width="96" height="95.999" rx="47.999" fill="none"/>
              </g>
              <g id="Rectangle_400907-2" data-name="Rectangle 400907" transform="translate(0)" fill="none" stroke="#0f1f33" stroke-linecap="round" stroke-width="2">
                <rect width="98" height="97.999" rx="48.999" stroke="none"/>
                <rect x="1" y="1" width="96" height="95.999" rx="47.999" fill="none"/>
              </g>
            </g>
          </g>
        </g>
      </g>
    </g>
    <g id="ganado" transform="translate(-4074.965 -8013.473)">
      <g id="Group_1204746" data-name="Group 1204746" transform="translate(0.792 1.265)">
        <g id="Group_1204745" data-name="Group 1204745" transform="translate(5.757 15.74)">
          <path id="Path_1245145" data-name="Path 1245145" d="M98.817,168.513H96.688a1.9,1.9,0,0,0-1.538.785l-2.122,2.933a1.042,1.042,0,0,1-.845.431H67.472a5.465,5.465,0,0,0-5.465,5.465v22.345a.641.641,0,0,0,.641.641h2.67a.641.641,0,0,0,.641-.641v-5.134a.541.541,0,0,1,.29-.479c1.067-.56,4.722-2.692,5.022-5.727a.645.645,0,0,1,.559-.571c5.259-.7,12.617,4.938,18.51,1.911a.484.484,0,0,1,.707.429v9.57a.641.641,0,0,0,.641.641h2.078a.641.641,0,0,0,.636-.561l1.444-11.483a1.715,1.715,0,0,1,.253-.7l4.34-6.856a1.236,1.236,0,0,1,.823-.555l6.325-1.15a1.406,1.406,0,0,0,1.155-1.384v-1.4a1.406,1.406,0,0,0-.495-1.071l-8.2-6.985A1.9,1.9,0,0,0,98.817,168.513Z" transform="translate(-62.007 -167.297)" fill="#f2fbff"/>
          <path id="Path_1245146" data-name="Path 1245146" d="M157.156,217.232h5.433a3.55,3.55,0,0,0,3.128-1.87l.293-.546a3.55,3.55,0,0,1,3.128-1.87h1.375a3.45,3.45,0,0,0,3.009-5.14H157.814Z" transform="translate(-147.106 -202.439)" fill="#678d98"/>
          <path id="Path_1245147" data-name="Path 1245147" d="M358.549,175.951l-8.2-6.985a1.9,1.9,0,0,0-1.23-.453h-2.129a1.9,1.9,0,0,0-.427.049,1.9,1.9,0,0,1,.809.4l8.183,6.8a1.407,1.407,0,0,1,.495,1.071v.444a1.406,1.406,0,0,1-1.155,1.384l-4.618.867a1.236,1.236,0,0,0-.823.555l-5.376,8.28a1.715,1.715,0,0,0-.253.7l-1.444,11.483a.641.641,0,0,1-.514.549.641.641,0,0,0,.123.012h2.078a.641.641,0,0,0,.636-.561l1.444-11.483a1.715,1.715,0,0,1,.253-.7l4.34-6.856a1.236,1.236,0,0,1,.823-.555l6.325-1.15a1.406,1.406,0,0,0,1.155-1.384v-1.4a1.406,1.406,0,0,0-.494-1.071Z" transform="translate(-312.307 -167.297)" fill="#dff6fd"/>
          <path id="Path_1245148" data-name="Path 1245148" d="M465.232,222l-2.348-2a6.455,6.455,0,0,0-1.415,6.418l3.1-.564a1.406,1.406,0,0,0,1.155-1.384v-1.4A1.406,1.406,0,0,0,465.232,222Z" transform="translate(-418.99 -213.346)" fill="#ffa78f"/>
          <path id="Path_1245149" data-name="Path 1245149" d="M465.341,222l-2.348-2a6.486,6.486,0,0,0-1.04,1.488l.393.326a1.406,1.406,0,0,1,.495,1.071v.444a1.406,1.406,0,0,1-1.155,1.384l-.416.078a6.446,6.446,0,0,0,.309,1.627l3.1-.564a1.406,1.406,0,0,0,1.155-1.384v-1.4A1.406,1.406,0,0,0,465.341,222Z" transform="translate(-419.099 -213.346)" fill="#f89580"/>
          <path id="Path_1245150" data-name="Path 1245150" d="M347.021,157.009a.475.475,0,0,0-.566.556,6.28,6.28,0,0,0,1.347,3.019c1.207,1.233,2.682,1.746,3.294,1.147s.13-2.085-1.078-3.318A6.256,6.256,0,0,0,347.021,157.009Z" transform="translate(-316.403 -156.998)" fill="#f2fbff"/>
        </g>
        <path id="Path_1245151" data-name="Path 1245151" d="M7.5,164.232v33.1a1.471,1.471,0,0,0,1.471,1.471H31.487a1.471,1.471,0,0,0,1.471-1.471v-33.1a1.471,1.471,0,0,0-1.471-1.471H8.971A1.471,1.471,0,0,0,7.5,164.232Z" transform="translate(-7.5 -146.412)" fill="#68ca44"/>
        <path id="Path_1245152" data-name="Path 1245152" d="M213.142,162.761h-2.535a1.471,1.471,0,0,1,1.471,1.471v33.1a1.471,1.471,0,0,1-1.471,1.471h2.535a1.471,1.471,0,0,0,1.471-1.471v-33.1A1.471,1.471,0,0,0,213.142,162.761Z" transform="translate(-189.155 -146.412)" fill="#4fc123"/>
        <path id="Path_1245153" data-name="Path 1245153" d="M220.762,7.973a5.234,5.234,0,0,0-5.228,5.228c0,4.244,5.228,7.446,5.228,7.446S225.99,17.3,225.99,13.2A5.234,5.234,0,0,0,220.762,7.973Zm0,6.971A1.743,1.743,0,1,1,222.5,13.2,1.743,1.743,0,0,1,220.762,14.944Z" transform="translate(-193.561 -7.973)" fill="#fd8087"/>
        <path id="Path_1245154" data-name="Path 1245154" d="M58.285,195.761h-5.77a.723.723,0,0,0-.723.723,2.048,2.048,0,1,1-4.1,0,.723.723,0,0,0-.723-.723H41.2a.7.7,0,0,0-.7.7v27.669a.7.7,0,0,0,.7.7H58.285a.7.7,0,0,0,.7-.7V196.463A.7.7,0,0,0,58.285,195.761Z" transform="translate(-37.015 -175.927)" fill="#f2fbff"/>
      </g>
      <g id="Group_1204747" data-name="Group 1204747" transform="translate(0 0.473)">
        <path id="Path_1245155" data-name="Path 1245155" d="M53.305,158.341l-8.2-6.984a2.692,2.692,0,0,0-1.744-.642H41.231a2.679,2.679,0,0,0-.835.135,7.5,7.5,0,0,0-3.063-1.322,1.267,1.267,0,0,0-1.51,1.483,7.159,7.159,0,0,0,1.439,3.29l-.333.46a.252.252,0,0,1-.2.1H27.043V152.37a2.266,2.266,0,0,0-2.263-2.263H2.263A2.266,2.266,0,0,0,0,152.37v8.061a.792.792,0,1,0,1.584,0V152.37a.68.68,0,0,1,.679-.679H24.779a.68.68,0,0,1,.679.679v33.1a.68.68,0,0,1-.679.679H2.263a.68.68,0,0,1-.679-.679V164.127a.792.792,0,0,0-1.584,0v21.346a2.266,2.266,0,0,0,2.263,2.263H24.779a2.266,2.266,0,0,0,2.263-2.263V174.646a12.011,12.011,0,0,0,7.755-.261v9.081a1.436,1.436,0,0,0,1.434,1.434H38.31a1.436,1.436,0,0,0,1.422-1.255l1.445-11.483a.919.919,0,0,1,.136-.379l1.119-1.768a.792.792,0,1,0-1.339-.847l-1.118,1.767a2.491,2.491,0,0,0-.369,1.029l-1.428,11.352H36.382V173.9a1.276,1.276,0,0,0-1.861-1.134c-1.376.707-3.342,1.275-7.479.251V162.062a2.752,2.752,0,0,1,1.538-.473h1.375a4.232,4.232,0,0,0,4.144-5.14h2.626a1.84,1.84,0,0,0,1.487-.76l.258-.356c.148.1.3.188.447.268a.792.792,0,1,0,.746-1.4,4.842,4.842,0,0,1-1.15-.882,4.894,4.894,0,0,1-1.025-2.127A4.872,4.872,0,0,1,39.6,152.26a4.774,4.774,0,0,1,.886,1.225.792.792,0,0,0,1.426-.691,5.465,5.465,0,0,0-.275-.495H43.36a1.106,1.106,0,0,1,.717.264l5.26,4.479a7.233,7.233,0,0,0-1.287,5.694l-2.384.433a2.032,2.032,0,0,0-1.352.911l-1.245,1.968a.792.792,0,0,0,1.339.847l1.245-1.967a.444.444,0,0,1,.3-.2l6.326-1.15a2.2,2.2,0,0,0,1.8-2.163v-1.4a2.2,2.2,0,0,0-.773-1.674Zm-20.691-.995A2.661,2.661,0,0,1,29.956,160H28.581a4.34,4.34,0,0,0-1.538.282v-3.837h5.414A2.654,2.654,0,0,1,32.615,157.346Zm19.879,4.069a.614.614,0,0,1-.5.6l-2.382.433a5.657,5.657,0,0,1,.938-4.381l1.733,1.476a.614.614,0,0,1,.216.468v1.4Z" transform="translate(0 -133.758)"/>
        <path id="Path_1245156" data-name="Path 1245156" d="M407.6,212.7a.792.792,0,0,0,.792-.792v-.629a.792.792,0,1,0-1.584,0v.629A.792.792,0,0,0,407.6,212.7Z" transform="translate(-363.84 -188.301)"/>
        <path id="Path_1245157" data-name="Path 1245157" d="M213.64,14.615a.792.792,0,0,0,.841-.008c.228-.146,5.593-3.632,5.593-8.113a6.02,6.02,0,0,0-12.041,0c0,4.634,5.378,7.982,5.607,8.122Zm.414-12.558a4.441,4.441,0,0,1,4.436,4.436c0,1.843-1.288,3.566-2.369,4.686a16.252,16.252,0,0,1-2.075,1.8c-1.181-.834-4.428-3.408-4.428-6.487A4.441,4.441,0,0,1,214.053,2.057Z" transform="translate(-186.06 -0.473)"/>
        <path id="Path_1245158" data-name="Path 1245158" d="M243.569,38.543a2.535,2.535,0,1,0-2.535-2.535A2.538,2.538,0,0,0,243.569,38.543Zm0-3.485a.951.951,0,1,1-.951.951A.952.952,0,0,1,243.569,35.057Z" transform="translate(-215.576 -29.988)"/>
        <path id="Path_1245159" data-name="Path 1245159" d="M51.577,218.919a1.5,1.5,0,0,0,1.494-1.495V189.755a1.5,1.5,0,0,0-1.494-1.494h-5.77a1.517,1.517,0,0,0-1.515,1.515,1.256,1.256,0,1,1-2.512,0,1.517,1.517,0,0,0-1.515-1.515h-5.77A1.5,1.5,0,0,0,33,189.755v27.669a1.5,1.5,0,0,0,1.494,1.495H51.577ZM34.584,189.845H40.2a2.84,2.84,0,0,0,5.679,0h5.612v27.49h-16.9Z" transform="translate(-29.515 -168.427)"/>
        <path id="Path_1245160" data-name="Path 1245160" d="M73.223,381.69a.792.792,0,0,0-.792.792v1.353a.792.792,0,0,0,1.584,0v-1.353A.792.792,0,0,0,73.223,381.69Z" transform="translate(-64.781 -341.426)"/>
        <path id="Path_1245161" data-name="Path 1245161" d="M105.28,364.808a.792.792,0,0,0-.792.792v3.136a.792.792,0,0,0,1.584,0V365.6A.792.792,0,0,0,105.28,364.808Z" transform="translate(-93.452 -326.327)"/>
        <path id="Path_1245162" data-name="Path 1245162" d="M137.338,347.927a.792.792,0,0,0-.792.792v4.919a.792.792,0,1,0,1.584,0v-4.919A.792.792,0,0,0,137.338,347.927Z" transform="translate(-122.124 -311.229)"/>
        <path id="Path_1245163" data-name="Path 1245163" d="M169.4,331.046a.792.792,0,0,0-.792.792v6.7a.792.792,0,1,0,1.584,0v-6.7A.792.792,0,0,0,169.4,331.046Z" transform="translate(-150.795 -296.131)"/>
        <path id="Path_1245164" data-name="Path 1245164" d="M86.874,254.857l-2.545-.95a.792.792,0,0,0-.554,1.484l.856.319-8.987,4.575a.792.792,0,1,0,.719,1.412l8.987-4.575L85.1,258a.792.792,0,1,0,1.526.426l.73-2.617A.792.792,0,0,0,86.874,254.857Z" transform="translate(-67.267 -227.095)"/>
      </g>
    </g>
  </g>
</svg>
