<svg xmlns="http://www.w3.org/2000/svg" width="98" height="97.999" viewBox="0 0 98 97.999">
  <g id="Group_1204726" data-name="Group 1204726" transform="translate(-1080.051 -3097)">
    <g id="Group_1204527" data-name="Group 1204527" transform="translate(277.269 558.984)">
      <g id="Group_1204237" data-name="Group 1204237" transform="translate(-1 566)">
        <g id="Group_1204143" data-name="Group 1204143" transform="translate(-67.331 1694.852)">
          <g id="Group_1188789" data-name="Group 1188789" transform="translate(871.113 277.164)">
            <path id="Path_1243039" data-name="Path 1243039" d="M41.05,0h0a41.05,41.05,0,0,1,0,82.1h0a41.05,41.05,0,0,1,0-82.1Z" transform="translate(7.951 7.949)" fill="#ffc94a"/>
            <rect id="Rectangle_400907" data-name="Rectangle 400907" width="88.438" height="88.437" rx="44.218" transform="translate(4.782 4.781)" fill="none"/>
            <g id="Group_1098742" data-name="Group 1098742" transform="translate(0)">
              <g id="Rectangle_400898" data-name="Rectangle 400898" transform="translate(0)" fill="none" stroke="#fff" stroke-width="2" opacity="0.859">
                <rect width="98" height="97.999" rx="48.999" stroke="none"/>
                <rect x="1" y="1" width="96" height="95.999" rx="47.999" fill="none"/>
              </g>
              <g id="Rectangle_400907-2" data-name="Rectangle 400907" transform="translate(0)" fill="none" stroke="#0f1f33" stroke-linecap="round" stroke-width="2">
                <rect width="98" height="97.999" rx="48.999" stroke="none"/>
                <rect x="1" y="1" width="96" height="95.999" rx="47.999" fill="none"/>
              </g>
            </g>
          </g>
        </g>
      </g>
    </g>
    <g id="almacenamienti" transform="translate(1099.051 3057.734)">
      <g id="Group_1204724" data-name="Group 1204724" transform="translate(0.885 67.151)">
        <g id="Group_1204721" data-name="Group 1204721" transform="translate(5.864)">
          <path id="Path_1245034" data-name="Path 1245034" d="M116.77,136.4l-1.274,5.735a3.909,3.909,0,0,1-3.816,3.061v.59H78.858v-.59a3.909,3.909,0,0,1-3.816-3.061L73.767,136.4V134.8h43V136.4Z" transform="translate(-71.812 -127.601)" fill="#62a4fb"/>
          <path id="Path_1245035" data-name="Path 1245035" d="M116.77,78.266h-43V75.655a1.888,1.888,0,0,1,1.888-1.888h39.227a1.888,1.888,0,0,1,1.888,1.888v2.611Z" transform="translate(-71.812 -73.767)" fill="#edf6ff"/>
          <path id="Path_1245036" data-name="Path 1245036" d="M401.947,73.767h-2.714a1.888,1.888,0,0,1,1.888,1.888v2.611h2.714V75.655A1.888,1.888,0,0,0,401.947,73.767Z" transform="translate(-358.877 -73.767)" fill="#d8e2f3"/>
          <path id="Path_1245037" data-name="Path 1245037" d="M377.178,134.8V136.4l-1.274,5.735a3.909,3.909,0,0,1-3.816,3.061H374.8a3.909,3.909,0,0,0,3.816-3.061l1.274-5.735V134.8Z" transform="translate(-334.934 -127.601)" fill="#5392f9"/>
          <path id="Path_1245038" data-name="Path 1245038" d="M103.135,111.787a.977.977,0,0,0,.977-.977v-1.955a1.955,1.955,0,0,0-1.955-1.955h-43a1.955,1.955,0,0,0-1.955,1.955v1.955a.977.977,0,0,0,.977.977Z" transform="translate(-57.2 -102.991)" fill="#d8e2f3"/>
          <path id="Path_1245039" data-name="Path 1245039" d="M417.947,106.9h-2.714a1.955,1.955,0,0,1,1.955,1.955v1.955a.977.977,0,0,1-.977.977h2.714a.977.977,0,0,0,.977-.977v-1.955A1.955,1.955,0,0,0,417.947,106.9Z" transform="translate(-372.989 -102.991)" fill="#a2bbe3"/>
        </g>
        <g id="Group_1204723" data-name="Group 1204723" transform="translate(0 17.592)">
          <path id="Path_1245040" data-name="Path 1245040" d="M78.8,227.366H24.067v-2.611a1.888,1.888,0,0,1,1.888-1.888H76.91a1.888,1.888,0,0,1,1.888,1.888v2.611Z" transform="translate(-22.112 -222.867)" fill="#edf6ff"/>
          <path id="Path_1245041" data-name="Path 1245041" d="M451.647,222.867h-2.714a1.888,1.888,0,0,1,1.888,1.888v2.611h2.714v-2.611A1.888,1.888,0,0,0,451.647,222.867Z" transform="translate(-396.849 -222.867)" fill="#d8e2f3"/>
          <path id="Path_1245042" data-name="Path 1245042" d="M78.8,285.557l-1.548,13.162a3.909,3.909,0,0,1-3.883,3.453H29.5a3.909,3.909,0,0,1-3.883-3.453l-1.548-13.162V283.97H78.8v1.587Z" transform="translate(-22.112 -276.761)" fill="#62a4fb"/>
          <path id="Path_1245043" data-name="Path 1245043" d="M424.334,283.969v1.587l-1.548,13.162a3.909,3.909,0,0,1-3.883,3.453h2.714a3.909,3.909,0,0,0,3.883-3.453l1.548-13.162v-1.587Z" transform="translate(-370.362 -276.76)" fill="#5392f9"/>
          <path id="Path_1245044" data-name="Path 1245044" d="M8.477,260.887a.977.977,0,0,1-.977-.977v-1.955A1.955,1.955,0,0,1,9.455,256H64.186a1.955,1.955,0,0,1,1.955,1.955v1.955a.977.977,0,0,1-.977.977Z" transform="translate(-7.5 -252.091)" fill="#d8e2f3"/>
          <path id="Path_1245045" data-name="Path 1245045" d="M467.647,256h-2.714a1.955,1.955,0,0,1,1.955,1.955v1.955a.977.977,0,0,1-.977.977h2.714a.977.977,0,0,0,.977-.977v-1.955A1.954,1.954,0,0,0,467.647,256Z" transform="translate(-410.961 -252.091)" fill="#a2bbe3"/>
          <path id="Path_1245046" data-name="Path 1245046" d="M176.281,267.728h-15.9a3.776,3.776,0,0,1-3.776-3.776V256h23.456v7.952A3.776,3.776,0,0,1,176.281,267.728Z" transform="translate(-139.008 -252.091)" fill="#edf6ff"/>
          <g id="Group_1204722" data-name="Group 1204722" transform="translate(23.456 7.819)">
            <path id="Path_1245047" data-name="Path 1245047" d="M216.072,293.042h-7.819a1.955,1.955,0,0,1,0-3.909h7.819a1.955,1.955,0,0,1,0,3.909Z" transform="translate(-206.299 -289.133)" fill="#a2bbe3"/>
          </g>
          <path id="Path_1245048" data-name="Path 1245048" d="M304.176,256v7.952a3.776,3.776,0,0,1-3.776,3.776h2.714a3.776,3.776,0,0,0,3.776-3.776V256Z" transform="translate(-265.841 -252.091)" fill="#d8e2f3"/>
        </g>
      </g>
      <g id="Group_1204725" data-name="Group 1204725" transform="translate(0 66.266)">
        <path id="Path_1245049" data-name="Path 1245049" d="M58.456,87.909V86.631a2.776,2.776,0,0,0-2.773-2.773H50.344a4.813,4.813,0,0,0,.952-1.984l1.12-5.042h.267a1.864,1.864,0,0,0,1.862-1.862V73.015a2.844,2.844,0,0,0-1.955-2.7V69.039a2.776,2.776,0,0,0-2.773-2.773H17.6a.885.885,0,1,0,0,1.77H49.819a1,1,0,0,1,1,1v1.137H9.589V69.039a1,1,0,0,1,1-1h3.465a.885.885,0,1,0,0-1.77H10.591a2.776,2.776,0,0,0-2.773,2.773v1.279a2.844,2.844,0,0,0-1.955,2.7V74.97a1.864,1.864,0,0,0,1.862,1.862h.267l1.12,5.042a4.811,4.811,0,0,0,.952,1.984H4.727a2.776,2.776,0,0,0-2.773,2.773v1.279A2.844,2.844,0,0,0,0,90.607v1.955a1.864,1.864,0,0,0,1.862,1.862h.19L3.509,106.8a4.8,4.8,0,0,0,4.761,4.234H40.163a.885.885,0,1,0,0-1.77H8.271a3.025,3.025,0,0,1-3-2.671L3.835,94.424H17.592V96.6a4.666,4.666,0,0,0,4.661,4.661h15.9A4.666,4.666,0,0,0,42.818,96.6V94.424H56.575L55.143,106.6a3.025,3.025,0,0,1-3,2.671H43.7a.885.885,0,1,0,0,1.77h8.437A4.8,4.8,0,0,0,56.9,106.8l1.457-12.381h.19a1.864,1.864,0,0,0,1.862-1.862V90.607a2.844,2.844,0,0,0-1.955-2.7ZM7.634,74.97V73.015a1.071,1.071,0,0,1,1.07-1.07h43a1.071,1.071,0,0,1,1.07,1.07V74.97a.093.093,0,0,1-.092.092H7.726a.093.093,0,0,1-.092-.092Zm3.208,6.52L9.807,76.832H50.6L49.568,81.49a3.007,3.007,0,0,1-2.952,2.368H13.794a3.007,3.007,0,0,1-2.952-2.368ZM3.724,86.631a1,1,0,0,1,1-1H55.683a1,1,0,0,1,1,1v1.137H3.724ZM1.862,92.654a.093.093,0,0,1-.092-.092V90.607a1.071,1.071,0,0,1,1.07-1.07H17.592v3.117H1.862Zm36.3,6.841h-15.9A2.894,2.894,0,0,1,19.362,96.6V89.537H41.048V96.6A2.894,2.894,0,0,1,38.157,99.5ZM58.64,92.562a.093.093,0,0,1-.092.092H42.818V89.537H57.57a1.071,1.071,0,0,1,1.07,1.07v1.955Z" transform="translate(0 -66.266)"/>
        <path id="Path_1245050" data-name="Path 1245050" d="M209.458,281.634H201.64a2.84,2.84,0,1,0,0,5.679h7.819a2.84,2.84,0,1,0,0-5.679Zm0,3.909H201.64a1.07,1.07,0,1,1,0-2.139h7.819a1.07,1.07,0,1,1,0,2.139Z" transform="translate(-175.344 -256.223)"/>
      </g>
    </g>
  </g>
</svg>
