<svg xmlns="http://www.w3.org/2000/svg" xmlns:xlink="http://www.w3.org/1999/xlink" width="98" height="97.999" viewBox="0 0 98 97.999">
  <defs>
    <clipPath id="clip-path">
      <path id="path4685" d="M0-682.665H56.249v56.249H0Z" transform="translate(0 682.665)"/>
    </clipPath>
  </defs>
  <g id="Group_1204771" data-name="Group 1204771" transform="translate(-751.051 -2809)">
    <g id="Group_1204578" data-name="Group 1204578" transform="translate(-51.731 270.984)">
      <g id="Group_1204237" data-name="Group 1204237" transform="translate(-1 566)">
        <g id="Group_1204143" data-name="Group 1204143" transform="translate(-67.331 1694.852)">
          <g id="Group_1188789" data-name="Group 1188789" transform="translate(871.113 277.164)">
            <path id="Path_1243039" data-name="Path 1243039" d="M41.05,0h0a41.05,41.05,0,0,1,0,82.1h0a41.05,41.05,0,0,1,0-82.1Z" transform="translate(7.951 7.949)" fill="#ffc94a"/>
            <rect id="Rectangle_400907" data-name="Rectangle 400907" width="88.438" height="88.437" rx="44.218" transform="translate(4.782 4.781)" fill="none"/>
            <g id="Group_1098742" data-name="Group 1098742" transform="translate(0)">
              <g id="Rectangle_400898" data-name="Rectangle 400898" transform="translate(0)" fill="none" stroke="#fff" stroke-width="2" opacity="0.859">
                <rect width="98" height="97.999" rx="48.999" stroke="none"/>
                <rect x="1" y="1" width="96" height="95.999" rx="47.999" fill="none"/>
              </g>
              <g id="Rectangle_400907-2" data-name="Rectangle 400907" transform="translate(0)" fill="none" stroke="#0f1f33" stroke-linecap="round" stroke-width="2">
                <rect width="98" height="97.999" rx="48.999" stroke="none"/>
                <rect x="1" y="1" width="96" height="95.999" rx="47.999" fill="none"/>
              </g>
            </g>
          </g>
        </g>
      </g>
    </g>
    <g id="g4671" transform="translate(772.051 3512.665)">
      <g id="g4673" transform="translate(17.515 -681.538)">
        <path id="path4675" d="M-59.409-87.616l2.635-7.867H-62.7l-2.039,6.091Z" transform="translate(64.744 95.484)" fill="#8aa8bd" fill-rule="evenodd"/>
      </g>
      <g id="g4677" transform="translate(10.347 -675.447)">
        <path id="path4679" d="M-59.34-258.414l7.174-21.428-5.335-1.776L-64.668-260.2Z" transform="translate(64.668 281.618)" fill="#c5d3de" fill-rule="evenodd"/>
      </g>
      <g id="g4681" transform="translate(0 -682.665)">
        <g id="g4683" clip-path="url(#clip-path)">
          <g id="g4689" transform="translate(5.617 28.158)">
            <path id="path4691" d="M-124.061-29.258l-1.082-.364-5.331-1.773,0-.009-1.079-.361a2.31,2.31,0,0,0-2.918,1.447l-.733,2.181,11.86,3.973.733-2.181a2.3,2.3,0,0,0-1.453-2.912" transform="translate(135.201 31.885)" fill="#8aa8bd" fill-rule="evenodd"/>
          </g>
          <g id="g4693" transform="translate(1.099 31.906)">
            <path id="path4695" d="M-182.4-44.241l-11.86-3.973c-7.345,3.969-6.373,23.188,7.673,23.216H-170.7c-10.148-4.635-3.255-16.537-11.7-19.244" transform="translate(198.774 48.213)" fill="#fff" fill-rule="evenodd"/>
          </g>
          <g id="g4697" transform="translate(17.477 35.878)">
            <path id="path4699" d="M-241.42,0H-263.1c8.443,2.707,1.549,14.609,11.7,19.244h8.8a2.416,2.416,0,0,0,2.41-2.408,2.415,2.415,0,0,0-2.41-2.4h-4.406a2.412,2.412,0,0,0,2.4-2.4,2.415,2.415,0,0,0-2.41-2.4h-2.943a2.419,2.419,0,0,1-2.413-2.408,2.416,2.416,0,0,1,2.413-2.4h8.546a2.415,2.415,0,0,0,2.41-2.4A2.415,2.415,0,0,0-241.42,0" transform="translate(263.098)" fill="#99ebfa" fill-rule="evenodd"/>
          </g>
          <g id="g4701" transform="translate(23.701 16.407)">
            <path id="path4703" d="M-119.928-59.83l-3.526-1.854-1.858-3.518-1.858,3.518L-130.7-59.83l3.526,1.851,1.858,3.518,1.858-3.518Z" transform="translate(130.697 65.203)" fill="#ffcd69" fill-rule="evenodd"/>
          </g>
          <g id="g4705" transform="translate(32.427 3.509)">
            <path id="path4707" d="M-143.714-71.714l-4.225-2.221-2.226-4.218-2.226,4.218-4.228,2.221,4.228,2.221,2.226,4.215,2.226-4.215Z" transform="translate(156.618 78.153)" fill="#ffcd69" fill-rule="evenodd"/>
          </g>
          <g id="g4709" transform="translate(46.963 35.878)">
            <path id="path4711" d="M-90.45-26.781a2.407,2.407,0,0,0-2.41-2.4h-3.3a2.41,2.41,0,0,0-2.413,2.4,2.41,2.41,0,0,0,2.413,2.4h3.3a2.407,2.407,0,0,0,2.41-2.4" transform="translate(98.572 29.185)" fill="#99ebfa" fill-rule="evenodd"/>
          </g>
          <g id="g4713" transform="translate(44.677 45.5)">
            <path id="path4715" d="M-116.631-26.781a2.407,2.407,0,0,0-2.41-2.4h-5.65a2.408,2.408,0,0,0-2.413,2.4,2.408,2.408,0,0,0,2.413,2.4h5.65a2.407,2.407,0,0,0,2.41-2.4" transform="translate(127.104 29.185)" fill="#99ebfa" fill-rule="evenodd"/>
          </g>
          <g id="g4717" transform="translate(14.576 0.028)">
            <path id="path4719" d="M-15.909-111.5a1.1,1.1,0,0,1-.349-.057,1.1,1.1,0,0,1-.693-1.391l9.809-29.3a1.1,1.1,0,0,1,1.391-.693,1.1,1.1,0,0,1,.693,1.391l-9.809,29.3A1.1,1.1,0,0,1-15.909-111.5Z" transform="translate(17.008 142.989)"/>
          </g>
          <g id="g4721" transform="translate(4.518 27.059)">
            <path id="path4723" d="M-.378-48.907a1.1,1.1,0,0,1-.35-.057,1.1,1.1,0,0,1-.692-1.391l.733-2.181a1.192,1.192,0,0,0-.066-.916,1.192,1.192,0,0,0-.693-.6l-7.49-2.508a1.2,1.2,0,0,0-.922.065,1.19,1.19,0,0,0-.606.69l-.733,2.181a1.1,1.1,0,0,1-1.391.692,1.1,1.1,0,0,1-.692-1.391l.733-2.181a3.373,3.373,0,0,1,1.712-1.958,3.383,3.383,0,0,1,2.6-.18L-.749-56.14a3.373,3.373,0,0,1,1.962,1.707,3.375,3.375,0,0,1,.183,2.6L.664-49.656A1.1,1.1,0,0,1-.378-48.907Z" transform="translate(13.337 58.825)"/>
          </g>
          <g id="g4725" transform="translate(-0.002 30.807)">
            <path id="path4727" d="M-62.575-13.333a1.1,1.1,0,0,1,.349.057L-50.366-9.3c4.685,1.5,5.29,5.468,5.874,9.3.613,4.02,1.192,7.818,5.931,9.983a1.1,1.1,0,0,1,.617,1.233,1.1,1.1,0,0,1-1.073.865H-54.871c-6.388,0-11.169-3.825-12.789-10.232C-69.23-4.36-67.226-10.97-63.1-13.2A1.1,1.1,0,0,1-62.575-13.333Zm19.9,23.216C-45.626,7.14-46.19,3.44-46.664.331c-.61-4-1.148-6.509-4.387-7.547l-11.394-3.816C-65.407-9.057-66.789-3.666-65.53,1.31c.652,2.578,3,8.573,10.659,8.573Z" transform="translate(68.194 13.333)"/>
          </g>
          <g id="g4729" transform="translate(7.754 39.62)">
            <path id="path4731" d="M-27.11,3.267h0a8.582,8.582,0,0,1-8.207-5.362c-1.612-3.746-1.069-8.43,1.264-10.895a1.1,1.1,0,0,1,1.553-.043,1.1,1.1,0,0,1,.043,1.553c-1.708,1.805-2.086,5.626-.842,8.516A6.4,6.4,0,0,0-27.109,1.07a1.1,1.1,0,0,1,1.1,1.1A1.1,1.1,0,0,1-27.11,3.267Z" transform="translate(36.241 13.333)"/>
          </g>
          <g id="g4733" transform="translate(15.79 42.594)">
            <path id="path4735" d="M-10.456.293a1.094,1.094,0,0,1-.7-.251c-5.774-4.761-5.436-7.971-5.138-10.8.055-.519.106-1.009.118-1.5a1.1,1.1,0,0,1,1.125-1.071,1.1,1.1,0,0,1,1.071,1.125c-.014.579-.073,1.137-.13,1.676-.275,2.612-.512,4.869,4.351,8.879A1.1,1.1,0,0,1-9.607-.107,1.1,1.1,0,0,1-10.456.293Z" transform="translate(16.429 13.333)"/>
          </g>
          <g id="g4737" transform="translate(16.379 34.78)">
            <path id="path4739" d="M-151.491-171.852h-3.277a1.1,1.1,0,0,1-1.1-1.1,1.1,1.1,0,0,1,1.1-1.1h3.277a1.31,1.31,0,0,0,1.312-1.306,1.31,1.31,0,0,0-1.312-1.306h-2.943a3.513,3.513,0,0,1-3.512-3.507,3.512,3.512,0,0,1,3.512-3.5h8.546a1.31,1.31,0,0,0,1.311-1.306,1.31,1.31,0,0,0-1.311-1.306h-21.678a1.1,1.1,0,0,1-1.1-1.1,1.1,1.1,0,0,1,1.1-1.1h21.678a3.51,3.51,0,0,1,3.509,3.5,3.51,3.51,0,0,1-3.509,3.5h-8.546a1.312,1.312,0,0,0-1.315,1.306,1.313,1.313,0,0,0,1.315,1.309h2.943a3.51,3.51,0,0,1,3.509,3.5A3.51,3.51,0,0,1-151.491-171.852Z" transform="translate(168.665 188.481)"/>
          </g>
          <g id="g4741" transform="translate(43.579 44.402)">
            <path id="path4743" d="M-33.46-64.7h-5.649a3.512,3.512,0,0,1-3.512-3.5,3.511,3.511,0,0,1,3.512-3.5h5.649a3.51,3.51,0,0,1,3.509,3.5A3.51,3.51,0,0,1-33.46-64.7Zm-5.649-4.809A1.312,1.312,0,0,0-40.424-68.2a1.312,1.312,0,0,0,1.315,1.306h5.649A1.31,1.31,0,0,0-32.148-68.2a1.31,1.31,0,0,0-1.312-1.306Z" transform="translate(42.621 71.702)"/>
          </g>
          <g id="g4745" transform="translate(45.864 34.78)">
            <path id="path4747" d="M-35.811-64.7h-3.3a3.512,3.512,0,0,1-3.512-3.5,3.511,3.511,0,0,1,3.512-3.5h3.3A3.51,3.51,0,0,1-32.3-68.2,3.51,3.51,0,0,1-35.811-64.7Zm-3.3-4.809A1.312,1.312,0,0,0-40.424-68.2a1.312,1.312,0,0,0,1.315,1.306h3.3A1.31,1.31,0,0,0-34.5-68.2a1.31,1.31,0,0,0-1.312-1.306Z" transform="translate(42.621 71.703)"/>
          </g>
          <g id="g4749" transform="translate(25.879 49.211)">
            <path id="path4751" d="M-47.936-6.324H-58.929a1.1,1.1,0,0,1-1.1-1.1,1.1,1.1,0,0,1,1.1-1.1h10.993A1.312,1.312,0,0,0-46.624-9.83a1.31,1.31,0,0,0-1.312-1.306h-7.146a1.1,1.1,0,0,1-1.1-1.1,1.1,1.1,0,0,1,1.1-1.1h7.146a3.51,3.51,0,0,1,3.509,3.5A3.512,3.512,0,0,1-47.936-6.324Z" transform="translate(60.028 13.333)"/>
          </g>
          <g id="g4753" transform="translate(31.329 2.411)">
            <path id="path4755" d="M-84.109-13.333a1.1,1.1,0,0,1,.972.586L-81.07-8.83l3.923,2.063a1.1,1.1,0,0,1,.587.972,1.1,1.1,0,0,1-.587.972L-81.07-2.76l-2.067,3.914a1.1,1.1,0,0,1-.971.586,1.1,1.1,0,0,1-.971-.586L-87.147-2.76l-3.926-2.063a1.1,1.1,0,0,1-.588-.973,1.1,1.1,0,0,1,.588-.973l3.926-2.063,2.067-3.917A1.1,1.1,0,0,1-84.109-13.333Zm4.09,7.538-2.375-1.249a1.1,1.1,0,0,1-.46-.46l-1.254-2.377L-85.363-7.5a1.1,1.1,0,0,1-.461.46L-88.2-5.8l2.377,1.249a1.1,1.1,0,0,1,.46.46l1.255,2.376,1.255-2.376a1.1,1.1,0,0,1,.46-.459Z" transform="translate(91.661 13.333)"/>
          </g>
          <g id="g4757" transform="translate(16.416 6.119)">
            <path id="path4759" d="M-71.647-30.921a1.1,1.1,0,0,1-.347-.057l-5.335-1.776a1.1,1.1,0,0,1-.7-1.389,1.1,1.1,0,0,1,1.389-.7l5.335,1.776a1.1,1.1,0,0,1,.7,1.389A1.1,1.1,0,0,1-71.647-30.921Z" transform="translate(78.081 34.896)"/>
          </g>
          <g id="g4761" transform="translate(22.602 15.309)">
            <path id="path4763" d="M-72.2-13.333h0a1.1,1.1,0,0,1,.971.586l1.7,3.217,3.225,1.7a1.1,1.1,0,0,1,.587.973,1.1,1.1,0,0,1-.588.972L-69.529-4.2l-1.7,3.217a1.1,1.1,0,0,1-.971.586,1.1,1.1,0,0,1-.971-.586L-74.87-4.2-78.095-5.89a1.1,1.1,0,0,1-.588-.972,1.1,1.1,0,0,1,.587-.973l3.225-1.7,1.7-3.217A1.1,1.1,0,0,1-72.2-13.333Zm3.022,6.47-1.675-.881a1.1,1.1,0,0,1-.46-.459L-72.2-9.882-73.086-8.2a1.1,1.1,0,0,1-.46.459l-1.675.881,1.675.879a1.1,1.1,0,0,1,.461.46l.887,1.679.887-1.679a1.1,1.1,0,0,1,.461-.46Z" transform="translate(78.683 13.333)"/>
          </g>
          <g id="g4765" transform="translate(13.317 15.383)">
            <path id="path4767" d="M-12.235-11.095a1.1,1.1,0,0,1-1.1-1.1,1.1,1.1,0,0,1,1.1-1.1,1.1,1.1,0,0,1,1.1,1.1v.006A1.1,1.1,0,0,1-12.235-11.095Z" transform="translate(13.333 13.295)"/>
          </g>
        </g>
      </g>
    </g>
  </g>
</svg>
