<svg xmlns="http://www.w3.org/2000/svg" width="98" height="97.998" viewBox="0 0 98 97.998">
  <g id="Group_1204782" data-name="Group 1204782" transform="translate(-1835 8846.6)">
    <g id="Group_1204581" data-name="Group 1204581" transform="translate(1032.219 -11384.615)">
      <g id="Group_1204237" data-name="Group 1204237" transform="translate(-1 566)">
        <g id="Group_1204143" data-name="Group 1204143" transform="translate(-67.331 1694.852)">
          <g id="Group_1188789" data-name="Group 1188789" transform="translate(871.113 277.164)">
            <path id="Path_1243039" data-name="Path 1243039" d="M41.05,0h0a41.05,41.05,0,0,1,0,82.1h0a41.05,41.05,0,0,1,0-82.1Z" transform="translate(7.951 7.949)" fill="#ffc94a"/>
            <rect id="Rectangle_400907" data-name="Rectangle 400907" width="88.438" height="88.437" rx="44.218" transform="translate(4.782 4.781)" fill="none"/>
            <g id="Group_1098742" data-name="Group 1098742" transform="translate(0)">
              <g id="Rectangle_400898" data-name="Rectangle 400898" transform="translate(0)" fill="none" stroke="#fff" stroke-width="2" opacity="0.859">
                <rect width="98" height="97.999" rx="48.999" stroke="none"/>
                <rect x="1" y="1" width="96" height="95.999" rx="47.999" fill="none"/>
              </g>
              <g id="Rectangle_400907-2" data-name="Rectangle 400907" transform="translate(0)" fill="none" stroke="#0f1f33" stroke-linecap="round" stroke-width="2">
                <rect width="98" height="97.999" rx="48.999" stroke="none"/>
                <rect x="1" y="1" width="96" height="95.999" rx="47.999" fill="none"/>
              </g>
            </g>
          </g>
        </g>
      </g>
    </g>
    <g id="Layer_10" data-name="Layer 10" transform="translate(1852 -8830)">
      <g id="Group_1204781" data-name="Group 1204781">
        <path id="Path_1245260" data-name="Path 1245260" d="M29.488,28.887A18.93,18.93,0,0,1,28,21.528,4.528,4.528,0,0,1,32.528,17h3.28a3.192,3.192,0,0,1,1.641,5.93,7.107,7.107,0,0,0-3.433,5.615" fill="#677982"/>
        <path id="Path_1245261" data-name="Path 1245261" d="M34.512,35.113A18.93,18.93,0,0,1,36,42.472,4.528,4.528,0,0,1,31.472,47h-3.28a3.192,3.192,0,0,1-1.641-5.93,7.107,7.107,0,0,0,3.433-5.615" fill="#677982"/>
        <path id="Path_1245262" data-name="Path 1245262" d="M28.887,34.512A18.948,18.948,0,0,1,21.528,36,4.528,4.528,0,0,1,17,31.472v-3.28a3.192,3.192,0,0,1,5.93-1.641,7.107,7.107,0,0,0,5.615,3.433" fill="#677982"/>
        <path id="Path_1245263" data-name="Path 1245263" d="M35.113,29.488A18.93,18.93,0,0,1,42.472,28,4.528,4.528,0,0,1,47,32.528v3.28a3.192,3.192,0,0,1-5.93,1.641,7.107,7.107,0,0,0-5.615-3.433" fill="#677982"/>
      </g>
      <path id="Path_1245264" data-name="Path 1245264" d="M16.026,13a2.839,2.839,0,0,0,1.743-.6L21.51,9.49a16.581,16.581,0,0,1,19.812-.4L44,11l-2,3h8V6L47,8,44.847,6.386a21.929,21.929,0,0,0-26.859.422L14.76,9.392A2.026,2.026,0,0,0,16.026,13Z" fill="#8cba79"/>
      <path id="Path_1245265" data-name="Path 1245265" d="M13,32,8,27v3H2v4H8v3Z" fill="#6fae67"/>
      <path id="Path_1245266" data-name="Path 1245266" d="M31.5,4A19.4,19.4,0,0,0,18.45,9.045l-3.773,3.43A2.01,2.01,0,0,0,16.026,13a2.837,2.837,0,0,0,1.743-.6L21.51,9.49a16.577,16.577,0,0,1,19.813-.4L44,11l-2,3h8L44.55,9.045A19.4,19.4,0,0,0,31.5,4Z" fill="#6fae67"/>
      <path id="Path_1245267" data-name="Path 1245267" d="M47.974,51a2.839,2.839,0,0,0-1.743.6L42.49,54.51a16.581,16.581,0,0,1-19.812.4L20,53l2-3H14v8l3-2,2.153,1.614A21.938,21.938,0,0,0,46.009,57.2l3.234-2.587A2.031,2.031,0,0,0,47.974,51Z" fill="#8cba79"/>
      <path id="Path_1245268" data-name="Path 1245268" d="M32.5,60a19.4,19.4,0,0,0,13.05-5.045l3.773-3.43A2.01,2.01,0,0,0,47.974,51a2.837,2.837,0,0,0-1.743.6L42.49,54.51a16.577,16.577,0,0,1-19.813.4L20,53l2-3H14l5.45,4.955A19.4,19.4,0,0,0,32.5,60Z" fill="#6fae67"/>
      <path id="Path_1245269" data-name="Path 1245269" d="M13,32,8,27v3H2v2.106H12.892Z" fill="#8cba79"/>
      <path id="Path_1245270" data-name="Path 1245270" d="M62,32l-5-5v3H51v4h6v3Z" fill="#6fae67"/>
      <path id="Path_1245271" data-name="Path 1245271" d="M62,32l-5-5v3H51v2.106H61.894Z" fill="#8cba79"/>
      <path id="Path_1245272" data-name="Path 1245272" d="M21.528,35a18.951,18.951,0,0,0,7.286-1.461l-.269-3.555A7.107,7.107,0,0,1,22.93,26.55,3.192,3.192,0,0,0,17,28.192v2.28A4.528,4.528,0,0,0,21.528,35Z" fill="#889ea6"/>
      <path id="Path_1245273" data-name="Path 1245273" d="M29,21.528a18.951,18.951,0,0,0,1.461,7.286l3.555-.269A7.107,7.107,0,0,1,37.45,22.93,3.192,3.192,0,0,0,35.808,17h-2.28A4.528,4.528,0,0,0,29,21.528Z" fill="#889ea6"/>
      <path id="Path_1245274" data-name="Path 1245274" d="M42.472,29a18.951,18.951,0,0,0-7.286,1.461l.269,3.555A7.107,7.107,0,0,1,41.07,37.45,3.192,3.192,0,0,0,47,35.808v-2.28A4.528,4.528,0,0,0,42.472,29Z" fill="#889ea6"/>
      <path id="Path_1245275" data-name="Path 1245275" d="M35,42.472a18.951,18.951,0,0,0-1.461-7.286l-3.555.269A7.107,7.107,0,0,1,26.55,41.07,3.192,3.192,0,0,0,28.192,47h2.28A4.528,4.528,0,0,0,35,42.472Z" fill="#889ea6"/>
      <circle id="Ellipse_12463" data-name="Ellipse 12463" cx="4" cy="4" r="4" transform="translate(28 28)" fill="#53626c"/>
      <path id="Path_1245276" data-name="Path 1245276" d="M32,28a3.977,3.977,0,0,0-2.281.719,3.994,3.994,0,0,0,5.562,5.561A3.994,3.994,0,0,0,32,28Z" fill="#677982"/>
      <path id="Path_1245277" data-name="Path 1245277" d="M42.472,27a19.821,19.821,0,0,0-7.1,1.331c-.092-.085-.191-.161-.289-.239a6.1,6.1,0,0,1,2.884-4.3A4.193,4.193,0,0,0,35.808,16h-3.28A5.534,5.534,0,0,0,27,21.528a19.821,19.821,0,0,0,1.331,7.1c-.085.092-.161.191-.239.289a6.1,6.1,0,0,1-4.3-2.884A4.193,4.193,0,0,0,16,28.192v3.28A5.534,5.534,0,0,0,21.528,37a19.813,19.813,0,0,0,7.1-1.331c.092.085.191.161.289.239a6.1,6.1,0,0,1-2.884,4.3A4.193,4.193,0,0,0,28.192,48h3.28A5.534,5.534,0,0,0,37,42.472a19.821,19.821,0,0,0-1.331-7.1c.085-.092.161-.191.239-.289a6.1,6.1,0,0,1,4.3,2.884A4.193,4.193,0,0,0,48,35.808v-3.28A5.534,5.534,0,0,0,42.472,27ZM29,32a3,3,0,1,1,3,3A3,3,0,0,1,29,32Zm3.528-14h3.28a2.193,2.193,0,0,1,1.128,4.073,8.1,8.1,0,0,0-3.708,5.1,4.765,4.765,0,0,0-3.213.245A17.813,17.813,0,0,1,29,21.528,3.532,3.532,0,0,1,32.528,18ZM18,31.472v-3.28a2.193,2.193,0,0,1,4.073-1.128,8.1,8.1,0,0,0,5.1,3.708,4.768,4.768,0,0,0,.245,3.214A17.838,17.838,0,0,1,21.528,35,3.532,3.532,0,0,1,18,31.472ZM31.472,46h-3.28a2.193,2.193,0,0,1-1.128-4.073,8.1,8.1,0,0,0,3.708-5.1,4.765,4.765,0,0,0,3.213-.245A17.813,17.813,0,0,1,35,42.472,3.532,3.532,0,0,1,31.472,46ZM46,35.808a2.193,2.193,0,0,1-4.073,1.128,8.1,8.1,0,0,0-5.1-3.708,4.765,4.765,0,0,0-.245-3.213A17.813,17.813,0,0,1,42.472,29,3.532,3.532,0,0,1,46,32.528Z"/>
      <path id="Path_1245278" data-name="Path 1245278" d="M22.882,49.528A1,1,0,0,0,22,49H14a1,1,0,0,0-1,1v8a1,1,0,0,0,1.555.832l2.411-1.607,1.587,1.189a22.924,22.924,0,0,0,28.077-.438l3.235-2.587A3.026,3.026,0,0,0,47.974,50a3.852,3.852,0,0,0-2.356.809l-3.742,2.91A15.653,15.653,0,0,1,32.312,57a15.488,15.488,0,0,1-9.054-2.9l-1.889-1.349,1.463-2.194a1,1,0,0,0,.05-1.029Zm-.786,6.2A17.478,17.478,0,0,0,32.312,59,17.667,17.667,0,0,0,43.1,55.3l3.741-2.911A1.854,1.854,0,0,1,47.974,52a1.027,1.027,0,0,1,.641,1.828l-3.234,2.587a20.925,20.925,0,0,1-25.628.4L17.6,55.2a1,1,0,0,0-1.155-.032L15,56.132V51h5.131l-.963,1.445a1,1,0,0,0,.251,1.369Z"/>
      <path id="Path_1245279" data-name="Path 1245279" d="M13,10.974A3.029,3.029,0,0,0,16.026,14a3.852,3.852,0,0,0,2.356-.809l3.742-2.91A15.652,15.652,0,0,1,31.687,7a15.489,15.489,0,0,1,9.055,2.9l1.889,1.349-1.463,2.194A1,1,0,0,0,42,15h8a1,1,0,0,0,1-1V6a1,1,0,0,0-1.555-.832L47.034,6.775,45.447,5.586a22.924,22.924,0,0,0-28.077.438L14.135,8.611A3.014,3.014,0,0,0,13,10.974Zm2.385-.8,3.234-2.587a20.925,20.925,0,0,1,25.628-.4L46.4,8.8a1,1,0,0,0,1.155.032L49,7.868V13H43.869l.963-1.445a1,1,0,0,0-.251-1.369L41.9,8.274A17.479,17.479,0,0,0,31.687,5,17.666,17.666,0,0,0,20.9,8.7l-3.741,2.911A1.854,1.854,0,0,1,16.026,12a1.027,1.027,0,0,1-.641-1.828Z"/>
      <path id="Path_1245280" data-name="Path 1245280" d="M57.707,26.293A1,1,0,0,0,56,27v2H51a1,1,0,0,0-1,1v4a1,1,0,0,0,1,1h5v2a1,1,0,0,0,1.707.707l5-5a1,1,0,0,0,0-1.414ZM58,34.586V34a1,1,0,0,0-1-1H52V31h5a1,1,0,0,0,1-1v-.586L60.586,32Z"/>
      <path id="Path_1245281" data-name="Path 1245281" d="M2,35H7v2a1,1,0,0,0,1.707.707l5-5a1,1,0,0,0,0-1.414l-5-5A1,1,0,0,0,7,27v2H2a1,1,0,0,0-1,1v4a1,1,0,0,0,1,1Zm1-4H8a1,1,0,0,0,1-1v-.585L11.585,32,9,34.585V34a1,1,0,0,0-1-1H3Z"/>
    </g>
  </g>
</svg>
