<svg xmlns="http://www.w3.org/2000/svg" width="98" height="97.998" viewBox="0 0 98 97.998">
  <g id="Group_1204799" data-name="Group 1204799" transform="translate(-2176 8847)">
    <g id="Group_1204582" data-name="Group 1204582" transform="translate(1373.219 -11385.016)">
      <g id="Group_1204237" data-name="Group 1204237" transform="translate(-1 566)">
        <g id="Group_1204143" data-name="Group 1204143" transform="translate(-67.331 1694.852)">
          <g id="Group_1188789" data-name="Group 1188789" transform="translate(871.113 277.164)">
            <path id="Path_1243039" data-name="Path 1243039" d="M41.05,0h0a41.05,41.05,0,0,1,0,82.1h0a41.05,41.05,0,0,1,0-82.1Z" transform="translate(7.951 7.949)" fill="#ffc94a"/>
            <rect id="Rectangle_400907" data-name="Rectangle 400907" width="88.438" height="88.437" rx="44.218" transform="translate(4.782 4.781)" fill="none"/>
            <g id="Group_1098742" data-name="Group 1098742" transform="translate(0)">
              <g id="Rectangle_400898" data-name="Rectangle 400898" transform="translate(0)" fill="none" stroke="#fff" stroke-width="2" opacity="0.859">
                <rect width="98" height="97.999" rx="48.999" stroke="none"/>
                <rect x="1" y="1" width="96" height="95.999" rx="47.999" fill="none"/>
              </g>
              <g id="Rectangle_400907-2" data-name="Rectangle 400907" transform="translate(0)" fill="none" stroke="#0f1f33" stroke-linecap="round" stroke-width="2">
                <rect width="98" height="97.999" rx="48.999" stroke="none"/>
                <rect x="1" y="1" width="96" height="95.999" rx="47.999" fill="none"/>
              </g>
            </g>
          </g>
        </g>
      </g>
    </g>
    <g id="otono" transform="translate(2198 -8825)">
      <g id="Group_1204797" data-name="Group 1204797" transform="translate(2.674 1.837)">
        <g id="Group_1204783" data-name="Group 1204783" transform="translate(0 38.502)">
          <path id="Path_1245282" data-name="Path 1245282" d="M19.816,54.7a7.33,7.33,0,0,0-6.771,5.014H4.674L3,53.859,7.185,56.37l.837-6.7,3.348,4.185L14.718,48l1.674,5.022,4.185-2.511L19.816,54.7Z" transform="translate(-3 -48)" fill="#a0d468"/>
        </g>
        <g id="Group_1204784" data-name="Group 1204784" transform="translate(22.29 43.524)">
          <path id="Path_1245283" data-name="Path 1245283" d="M29.63,56.595c.1-.117.2-.234.31-.343a7.369,7.369,0,0,1,3.348-1.992A7.445,7.445,0,0,1,35.23,54a14.133,14.133,0,0,1,10.655,4.838L47.517,60.7H35.8l-.477-.477a15.528,15.528,0,0,0-5.03-3.365c-.218-.092-.444-.176-.661-.251Z" transform="translate(-29.63 -54)" fill="#aab2bd"/>
        </g>
        <g id="Group_1204785" data-name="Group 1204785" transform="translate(10.044 45.198)">
          <path id="Path_1245284" data-name="Path 1245284" d="M33.414,61.022H15a7.33,7.33,0,0,1,6.771-5.014A1.483,1.483,0,0,1,21.964,56a17.682,17.682,0,0,1,5.282.929c.218.075.444.159.661.251a15.528,15.528,0,0,1,5.03,3.365Z" transform="translate(-15 -56)" fill="#ccd1d9"/>
        </g>
        <g id="Group_1204786" data-name="Group 1204786" transform="translate(39.339 41.85)">
          <path id="Path_1245285" data-name="Path 1245285" d="M53.348,55.348v1.674A3.347,3.347,0,0,1,50,53.674V52a3.344,3.344,0,0,1,3.348,3.348Z" transform="translate(-50 -52)" fill="#b4dd7f"/>
        </g>
        <g id="Group_1204787" data-name="Group 1204787" transform="translate(46.035 32.643)">
          <path id="Path_1245286" data-name="Path 1245286" d="M61.348,41v1.674A3.347,3.347,0,0,1,58,46.022V44.348A3.344,3.344,0,0,1,61.348,41Z" transform="translate(-58 -41)" fill="#b4dd7f"/>
        </g>
        <g id="Group_1204788" data-name="Group 1204788" transform="translate(42.687 19.251)">
          <path id="Path_1245287" data-name="Path 1245287" d="M60.7,30.859v1.674a.839.839,0,0,1-.837.837A5.858,5.858,0,0,1,54,27.511V25.837A.839.839,0,0,1,54.837,25,5.858,5.858,0,0,1,60.7,30.859Z" transform="translate(-54 -25)" fill="#a0d468"/>
        </g>
        <g id="Group_1204789" data-name="Group 1204789" transform="translate(35.991 27.621)">
          <path id="Path_1245288" data-name="Path 1245288" d="M52.7,40.859v1.674a.839.839,0,0,1-.837.837A5.858,5.858,0,0,1,46,37.511V35.837A.839.839,0,0,1,46.837,35,5.858,5.858,0,0,1,52.7,40.859Z" transform="translate(-46 -35)" fill="#a0d468"/>
        </g>
        <g id="Group_1204790" data-name="Group 1204790" transform="translate(29.295 32.643)">
          <path id="Path_1245289" data-name="Path 1245289" d="M41.348,44.348v1.674A3.347,3.347,0,0,1,38,42.674V41a3.344,3.344,0,0,1,3.348,3.348Z" transform="translate(-38 -41)" fill="#b4dd7f"/>
        </g>
        <g id="Group_1204791" data-name="Group 1204791" transform="translate(15.903 32.643)">
          <path id="Path_1245290" data-name="Path 1245290" d="M25.348,41v1.674A3.347,3.347,0,0,1,22,46.022V44.348A3.344,3.344,0,0,1,25.348,41Z" transform="translate(-22 -41)" fill="#b4dd7f"/>
        </g>
        <g id="Group_1204792" data-name="Group 1204792" transform="translate(4.185 25.947)">
          <path id="Path_1245291" data-name="Path 1245291" d="M14.7,33.837v1.674A5.858,5.858,0,0,1,8.837,41.37.839.839,0,0,1,8,40.533V38.859A5.858,5.858,0,0,1,13.859,33,.839.839,0,0,1,14.7,33.837Z" transform="translate(-8 -33)" fill="#a0d468"/>
        </g>
        <g id="Group_1204793" data-name="Group 1204793" transform="translate(1.674 19.251)">
          <path id="Path_1245292" data-name="Path 1245292" d="M8.348,28.348v1.674A3.347,3.347,0,0,1,5,26.674V25a3.344,3.344,0,0,1,3.348,3.348Z" transform="translate(-5 -25)" fill="#b4dd7f"/>
        </g>
        <g id="Group_1204794" data-name="Group 1204794" transform="translate(5.859 10.881)">
          <path id="Path_1245293" data-name="Path 1245293" d="M13.348,15v1.674A3.347,3.347,0,0,1,10,20.022V18.348A3.344,3.344,0,0,1,13.348,15Z" transform="translate(-10 -15)" fill="#b4dd7f"/>
        </g>
        <g id="Group_1204795" data-name="Group 1204795" transform="translate(9.207)">
          <path id="Path_1245294" data-name="Path 1245294" d="M30.74,18.74v-6.7l-3.348,2.511v9.718a5.858,5.858,0,1,1-10.011-6.085A5.857,5.857,0,0,1,19.859,7.022a6.06,6.06,0,0,1,1.707.251,5.855,5.855,0,0,1,11.283-1.54,5.848,5.848,0,0,1,7.935,5.474,5.793,5.793,0,0,1-.159,1.331,5.858,5.858,0,0,1-.711,10.99,5.851,5.851,0,0,1-5.826,5.256A5.767,5.767,0,0,1,30.74,27.73Z" transform="translate(-14 -2)" fill="#a0d468"/>
        </g>
        <g id="Group_1204796" data-name="Group 1204796" transform="translate(22.599 10.044)">
          <path id="Path_1245295" data-name="Path 1245295" d="M33.348,29.686V47.74A7.369,7.369,0,0,0,30,49.732V16.511L33.348,14V29.686Z" transform="translate(-30 -14)" fill="#cf9e76"/>
        </g>
      </g>
      <g id="Group_1204798" data-name="Group 1204798" transform="translate(1 1)">
        <path id="Path_1245296" data-name="Path 1245296" d="M37,40v2.511A4.19,4.19,0,0,0,41.185,46.7h.837V44.185A4.19,4.19,0,0,0,37.837,40Zm1.674,1.817a2.516,2.516,0,0,1,1.674,2.368v.694a2.516,2.516,0,0,1-1.674-2.368Z" transform="translate(-6.868 -7.357)"/>
        <path id="Path_1245297" data-name="Path 1245297" d="M4.837,24H4v2.511A4.19,4.19,0,0,0,8.185,30.7h.837V28.185A4.19,4.19,0,0,0,4.837,24Zm2.511,4.879a2.516,2.516,0,0,1-1.674-2.368v-.694a2.516,2.516,0,0,1,1.674,2.368Z" transform="translate(-1.489 -4.749)"/>
        <path id="Path_1245298" data-name="Path 1245298" d="M49.837,51H49v2.511A4.19,4.19,0,0,0,53.185,57.7h.837V55.185A4.19,4.19,0,0,0,49.837,51Zm2.511,4.879a2.516,2.516,0,0,1-1.674-2.368v-.694a2.516,2.516,0,0,1,1.674,2.368Z" transform="translate(-8.824 -9.15)"/>
        <path id="Path_1245299" data-name="Path 1245299" d="M26.022,42.511V40h-.837A4.19,4.19,0,0,0,21,44.185V46.7h.837A4.19,4.19,0,0,0,26.022,42.511Zm-1.674,0a2.516,2.516,0,0,1-1.674,2.368v-.694a2.516,2.516,0,0,1,1.674-2.368Z" transform="translate(-4.26 -7.357)"/>
        <path id="Path_1245300" data-name="Path 1245300" d="M57,44.185V46.7h.837a4.19,4.19,0,0,0,4.185-4.185V40h-.837A4.19,4.19,0,0,0,57,44.185Zm3.348-1.674a2.516,2.516,0,0,1-1.674,2.368v-.694a2.516,2.516,0,0,1,1.674-2.368Z" transform="translate(-10.128 -7.357)"/>
        <path id="Path_1245301" data-name="Path 1245301" d="M41.851,49.646a14.989,14.989,0,0,0-11.284-5.122,8.277,8.277,0,0,0-1.109.084V28.951a6.654,6.654,0,0,0,9.1-4.963,6.692,6.692,0,0,0,.889-12.079,6.329,6.329,0,0,0,.059-.865,6.7,6.7,0,0,0-6.7-6.7,6.587,6.587,0,0,0-1.625.2A6.695,6.695,0,0,0,18.768,6.1,6.662,6.662,0,0,0,13.326,7.7H5.185A2.511,2.511,0,1,0,7.7,10.207H6.022a.837.837,0,1,1-.837-.837H11.95a6.651,6.651,0,0,0-.86,2.591,4.188,4.188,0,0,0-3.393,4.1v2.511h.837a4.17,4.17,0,0,0,3.643-2.168,6.72,6.72,0,0,0,1.965,1.949,6.69,6.69,0,0,0,10.294,7.952V46.9a16.382,16.382,0,0,0-3.95-.659l.919-5.056-4.875,2.925L14.595,38.3l-3.665,6.416L7.112,39.943l-.923,7.388-4.9-2.94,1.95,6.829H1v1.674H52.895V51.221H43.229Zm-1.26,1.1.413.473H31.479l-.234-.234a16.329,16.329,0,0,0-4.793-3.312A6.493,6.493,0,0,1,30.567,46.2a13.319,13.319,0,0,1,10.024,4.549ZM19.686,47.872a14.561,14.561,0,0,1,9.328,3.348H14.009a6.49,6.49,0,0,1,5.677-3.348Zm-8.642-33.48A2.516,2.516,0,0,1,9.37,16.76v-.694A2.516,2.516,0,0,1,11.044,13.7ZM20.251,26.11a5.014,5.014,0,0,1-4.274-7.649l.492-.8-.85-.4A5.019,5.019,0,0,1,19.2,7.914l.975.3.1-1.014a5.019,5.019,0,0,1,9.672-1.32l.3.773.776-.3a5.005,5.005,0,0,1,6.666,5.832l-.158.677.636.28a5.019,5.019,0,0,1-.606,9.416l-.541.158-.057.561A5,5,0,0,1,29.458,27.1V18.924l2.266-2.266-1.184-1.184-1.082,1.082V12.228L30.887,10.8,29.7,9.615l-1.919,1.919V45.018a8.129,8.129,0,0,0-1.674.837V14.046l-3.593-3.593-1.184,1.184,3.1,3.1v4.329l-1.082-1.082L22.17,19.169l2.266,2.266v2.414a4.977,4.977,0,0,1-4.185,2.262Zm-16.19,21.9L7.53,50.089l.751-6,2.878,3.6,3.031-5.3L15.6,46.617l3.5-2.1-.316,1.735a8.166,8.166,0,0,0-6.642,4.966H4.979Z" transform="translate(-1 -1)"/>
        <path id="Path_1245302" data-name="Path 1245302" d="M20.837,15.511h1.674A2.514,2.514,0,0,0,20,13v1.674A.838.838,0,0,1,20.837,15.511Z" transform="translate(-4.097 -2.956)"/>
        <path id="Path_1245303" data-name="Path 1245303" d="M39.511,29.348V27.674c-.341,0-.837-.652-.837-1.674H37C37,27.877,38.1,29.348,39.511,29.348Z" transform="translate(-6.868 -5.075)"/>
        <path id="Path_1245304" data-name="Path 1245304" d="M42,20.674a1.676,1.676,0,0,1,1.674,1.674h1.674A3.351,3.351,0,0,0,42,19Z" transform="translate(-7.683 -3.934)"/>
        <path id="Path_1245305" data-name="Path 1245305" d="M30.348,6.674V5C28.471,5,27,6.1,27,7.511h1.674C28.674,7.17,29.326,6.674,30.348,6.674Z" transform="translate(-5.238 -1.652)"/>
        <path id="Path_1245306" data-name="Path 1245306" d="M21.674,26H20c0,1.408,1.471,2.511,3.348,2.511V26.837C22.326,26.837,21.674,26.341,21.674,26Z" transform="translate(-4.097 -5.075)"/>
        <path id="Path_1245307" data-name="Path 1245307" d="M40.674,14.348h1.674A3.351,3.351,0,0,0,39,11v1.674A1.676,1.676,0,0,1,40.674,14.348Z" transform="translate(-7.194 -2.63)"/>
        <path id="Path_1245308" data-name="Path 1245308" d="M7,38.7V40.37a1.676,1.676,0,0,0,1.674,1.674,6.7,6.7,0,0,0,6.7-6.7V33.674A1.676,1.676,0,0,0,13.7,32,6.7,6.7,0,0,0,7,38.7Zm6.7-5.022v1.674A5.027,5.027,0,0,1,8.674,40.37V38.7A5.027,5.027,0,0,1,13.7,33.674Z" transform="translate(-1.978 -6.053)"/>
        <path id="Path_1245309" data-name="Path 1245309" d="M53.37,40.7a6.7,6.7,0,0,0-6.7-6.7A1.676,1.676,0,0,0,45,35.674v1.674a6.7,6.7,0,0,0,6.7,6.7A1.676,1.676,0,0,0,53.37,42.37ZM51.7,42.37a5.027,5.027,0,0,1-5.022-5.022V35.674A5.027,5.027,0,0,1,51.7,40.7Z" transform="translate(-8.172 -6.379)"/>
        <path id="Path_1245310" data-name="Path 1245310" d="M54.674,24A1.676,1.676,0,0,0,53,25.674v1.674a6.7,6.7,0,0,0,6.7,6.7A1.676,1.676,0,0,0,61.37,32.37V30.7A6.7,6.7,0,0,0,54.674,24ZM59.7,32.37a5.027,5.027,0,0,1-5.022-5.022V25.674A5.027,5.027,0,0,1,59.7,30.7Z" transform="translate(-9.476 -4.749)"/>
        <path id="Path_1245311" data-name="Path 1245311" d="M58.881,6.511a2.511,2.511,0,0,0-5.022,0h1.674a.837.837,0,1,1,.837.837H48V9.022h8.37A2.514,2.514,0,0,0,58.881,6.511Z" transform="translate(-8.661 -1.489)"/>
        <path id="Path_1245312" data-name="Path 1245312" d="M3.511,6.022h8.37V4.348H3.511a.837.837,0,1,1,.837-.837H6.022A2.511,2.511,0,1,0,3.511,6.022Z" transform="translate(-1 -1)"/>
        <path id="Path_1245313" data-name="Path 1245313" d="M50,12v1.674h8.37a.837.837,0,1,1-.837.837H55.859A2.511,2.511,0,1,0,58.37,12Z" transform="translate(-8.987 -2.793)"/>
        <path id="Path_1245314" data-name="Path 1245314" d="M16,5h1.674V6.674H16Z" transform="translate(-3.445 -1.652)"/>
      </g>
    </g>
  </g>
</svg>
