<svg xmlns="http://www.w3.org/2000/svg" width="98" height="97.998" viewBox="0 0 98 97.998">
  <g id="Group_1204780" data-name="Group 1204780" transform="translate(-1494 8847)">
    <g id="Group_1204237" data-name="Group 1204237" transform="translate(690.219 -10819.016)">
      <g id="Group_1204143" data-name="Group 1204143" transform="translate(-67.331 1694.852)">
        <g id="Group_1188789" data-name="Group 1188789" transform="translate(871.113 277.164)">
          <path id="Path_1243039" data-name="Path 1243039" d="M41.05,0h0a41.05,41.05,0,0,1,0,82.1h0a41.05,41.05,0,0,1,0-82.1Z" transform="translate(7.951 7.949)" fill="#ffc94a"/>
          <rect id="Rectangle_400907" data-name="Rectangle 400907" width="88.438" height="88.437" rx="44.218" transform="translate(4.782 4.781)" fill="none"/>
          <g id="Group_1098742" data-name="Group 1098742" transform="translate(0)">
            <g id="Rectangle_400898" data-name="Rectangle 400898" transform="translate(0)" fill="none" stroke="#fff" stroke-width="2" opacity="0.859">
              <rect width="98" height="97.999" rx="48.999" stroke="none"/>
              <rect x="1" y="1" width="96" height="95.999" rx="47.999" fill="none"/>
            </g>
            <g id="Rectangle_400907-2" data-name="Rectangle 400907" transform="translate(0)" fill="none" stroke="#0f1f33" stroke-linecap="round" stroke-width="2">
              <rect width="98" height="97.999" rx="48.999" stroke="none"/>
              <rect x="1" y="1" width="96" height="95.999" rx="47.999" fill="none"/>
            </g>
          </g>
        </g>
      </g>
    </g>
    <g id="Group_1204778" data-name="Group 1204778" transform="translate(1515.834 -8821.168)">
      <path id="Path_1245240" data-name="Path 1245240" d="M146.71,94.391h-9.53L130.86,69.229a16.535,16.535,0,0,1,22.169,0Z" transform="translate(-117.142 -62.219)" fill="#dadada"/>
      <path id="Path_1245241" data-name="Path 1245241" d="M343.27,79.572a4.765,4.765,0,0,0-5.749-2.116L330.21,80.08l2.882,8.669Z" transform="translate(-294.323 -73.071)" fill="#5c586f"/>
      <path id="Path_1245242" data-name="Path 1245242" d="M356.121,107.926l1.3,3.912c8.563-2.184,9.911-7.273,9.46-11.29a4.656,4.656,0,0,0-.582-1.8C362.983,100.214,358.106,103.1,356.121,107.926Z" transform="translate(-317.352 -92.248)" fill="#ffc8e5"/>
      <path id="Path_1245243" data-name="Path 1245243" d="M13.418,79.572a4.765,4.765,0,0,1,5.749-2.116l7.312,2.625L23.6,88.749Z" transform="translate(-12.76 -73.071)" fill="#4f4c5f"/>
      <path id="Path_1245244" data-name="Path 1245244" d="M18.337,107.925l-1.3,3.912c-8.563-2.184-9.911-7.273-9.46-11.29a4.656,4.656,0,0,1,.582-1.8C11.475,100.213,16.352,103.095,18.337,107.925Z" transform="translate(-7.5 -92.247)" fill="#ffb3dd"/>
      <path id="Path_1245245" data-name="Path 1245245" d="M80.983,128.483H67.632c.086-13.811,3.137-21.23,7.031-25.163,3.607,2.412,6.536,6.847,7.661,12.293A20.173,20.173,0,0,1,80.983,128.483Z" transform="translate(-60.945 -96.31)" fill="#6a647f"/>
      <path id="Path_1245246" data-name="Path 1245246" d="M272.216,128.483H258.865a20.173,20.173,0,0,1-1.342-12.87c1.125-5.446,4.054-9.881,7.661-12.293C269.079,107.253,272.13,114.671,272.216,128.483Z" transform="translate(-229.298 -96.31)" fill="#6a647f"/>
      <path id="Path_1245247" data-name="Path 1245247" d="M71.466,119.61a37.27,37.27,0,0,1,3.11-15.485c-3.852,3.955-6.859,11.365-6.944,25.073h4.72A49.336,49.336,0,0,1,71.466,119.61Z" transform="translate(-60.945 -97.026)" fill="#5c586f"/>
      <path id="Path_1245248" data-name="Path 1245248" d="M103.848,292.829c0,8.4-8.112,15.2-18.118,15.2s-18.118-6.807-18.118-15.2c0-.2,0-.4,0-.6a35.722,35.722,0,0,1,18.116-4.675,35.722,35.722,0,0,1,18.116,4.675C103.847,292.426,103.848,292.627,103.848,292.829Z" transform="translate(-60.927 -260.055)" fill="#ffc8e5"/>
      <ellipse id="Ellipse_12461" data-name="Ellipse 12461" cx="2.819" cy="3.894" rx="2.819" ry="3.894" transform="translate(15.167 32.172)" fill="#6a647f"/>
      <ellipse id="Ellipse_12462" data-name="Ellipse 12462" cx="2.819" cy="3.894" rx="2.819" ry="3.894" transform="translate(28.802 32.172)" fill="#6a647f"/>
      <path id="Path_1245249" data-name="Path 1245249" d="M158.046,44.954a17.5,17.5,0,0,1,1.282-3.871,1.372,1.372,0,0,1,2.492,0,17.511,17.511,0,0,1,1.282,3.871,2.576,2.576,0,1,1-5.057,0Z" transform="translate(-141.258 -40.286)" fill="#f0ac99"/>
      <path id="Path_1245250" data-name="Path 1245250" d="M261.782,44.954a17.5,17.5,0,0,0-1.282-3.871,1.372,1.372,0,0,0-2.492,0,17.51,17.51,0,0,0-1.282,3.871,2.576,2.576,0,1,0,5.057,0Z" transform="translate(-228.963 -40.286)" fill="#f0ac99"/>
      <path id="Path_1245251" data-name="Path 1245251" d="M358.451,259.514a.889.889,0,0,0-1.241,0c-12.366,12.026-9.039,22.767.62,22.767S370.817,271.54,358.451,259.514Z" transform="translate(-311.196 -234.91)" fill="#64d1e1"/>
      <path id="Path_1245252" data-name="Path 1245252" d="M354.184,271.847c0-4.923,2.052-9.218,5.1-11.5-.27-.277-.545-.555-.832-.834a.889.889,0,0,0-1.241,0c-12.366,12.026-9.039,22.767.62,22.767.356,0,.7-.016,1.041-.045C356.053,280.212,354.184,276.545,354.184,271.847Z" transform="translate(-311.196 -234.909)" fill="#00c8de"/>
      <path id="Path_1245253" data-name="Path 1245253" d="M71.968,310.444a30.946,30.946,0,0,0-4.353,2.129c0,.2,0,.4,0,.6,0,6.872,5.434,12.678,12.894,14.56C75.679,323.766,73.008,317.551,71.968,310.444Z" transform="translate(-60.927 -280.401)" fill="#ffb3dd"/>
    </g>
    <g id="Group_1204779" data-name="Group 1204779" transform="translate(1515 -8822)">
      <path id="Path_1245254" data-name="Path 1245254" d="M143.691,326.814c0-2.651-1.6-4.727-3.652-4.727s-3.652,2.077-3.652,4.727,1.6,4.727,3.652,4.727S143.691,329.464,143.691,326.814Zm-5.637,0c0-1.658.909-3.06,1.984-3.06s1.984,1.4,1.984,3.06-.909,3.059-1.984,3.059S138.054,328.472,138.054,326.814Z" transform="translate(-121.219 -289.916)"/>
      <path id="Path_1245255" data-name="Path 1245255" d="M266.291,326.814c0-2.651-1.6-4.727-3.652-4.727s-3.652,2.077-3.652,4.727,1.6,4.727,3.652,4.727S266.291,329.464,266.291,326.814Zm-5.637,0c0-1.658.909-3.06,1.984-3.06s1.984,1.4,1.984,3.06-.909,3.059-1.984,3.059S260.654,328.472,260.654,326.814Z" transform="translate(-230.185 -289.916)"/>
      <path id="Path_1245256" data-name="Path 1245256" d="M129.53,243.422a.834.834,0,0,0-.834.834v2.016a.834.834,0,0,0,1.668,0v-2.016A.834.834,0,0,0,129.53,243.422Z" transform="translate(-114.384 -220)"/>
      <path id="Path_1245257" data-name="Path 1245257" d="M318.2,243.422a.834.834,0,0,0-.834.834v2.016a.834.834,0,0,0,1.668,0v-2.016A.834.834,0,0,0,318.2,243.422Z" transform="translate(-282.071 -220)"/>
      <path id="Path_1245258" data-name="Path 1245258" d="M210.072,395.447a.834.834,0,0,0-1.257-1.1,1.9,1.9,0,0,1-2.867,0,.834.834,0,0,0-1.257,1.1A3.568,3.568,0,0,0,210.072,395.447Z" transform="translate(-181.744 -353.89)"/>
      <path id="Path_1245259" data-name="Path 1245259" d="M48.666,57.641a1.715,1.715,0,0,0-2.4,0q-1.032,1-1.939,2.011a56.373,56.373,0,0,0-.865-6.351,13.444,13.444,0,0,0,5.358-3.427.834.834,0,1,0-1.238-1.118,11.615,11.615,0,0,1-4.472,2.9,34.46,34.46,0,0,0-1.37-4.455,19.835,19.835,0,0,1,7.626-5.95,8.862,8.862,0,0,1-.243,4.949.834.834,0,1,0,1.57.562,10.886,10.886,0,0,0,.5-4.913,5.472,5.472,0,0,0-.685-2.118h0l0,0a5.578,5.578,0,0,0-6.753-2.485l-6.821,2.448a14.829,14.829,0,0,0-2.544-1.929,18.334,18.334,0,0,0-1.259-3.673,2.206,2.206,0,0,0-4,0q-.377.812-.671,1.646a21.781,21.781,0,0,0-5.626,0q-.3-.833-.671-1.646a2.206,2.206,0,0,0-4,0,18.339,18.339,0,0,0-1.259,3.673,14.84,14.84,0,0,0-2.544,1.929l-6.82-2.448A5.579,5.579,0,0,0,.77,39.722v0h0a5.431,5.431,0,0,0-.685,2.118C-.548,47.46,2.457,51.3,7.814,53.3A68.9,68.9,0,0,0,6.685,66.409c0,5.007,2.686,9.635,7.37,12.7a.834.834,0,0,0,.913-1.4C10.981,75.1,8.346,71.1,8.353,66.288c9.016-5.175,21.939-5.823,32.04-1.281-1.886,3.328-3.126,7.392-1.932,11.026a18.98,18.98,0,0,1-12.826,4.743,19.976,19.976,0,0,1-7.715-1.511.834.834,0,0,0-.641,1.54,21.636,21.636,0,0,0,8.356,1.639,20.773,20.773,0,0,0,13.54-4.816c1.56,2.69,4.516,4.209,8.29,4.209C57.646,81.838,61.836,70.448,48.666,57.641Zm-7.4,5.932A36.7,36.7,0,0,0,29.639,60.5c-1.066-7.111,1.84-14.9,6.97-18.749C41.042,46.7,42.4,54.829,42.781,61.48q-.824,1.046-1.51,2.093Zm3.042-24.766a3.921,3.921,0,0,1,4.195,1,22.289,22.289,0,0,0-7.524,5.635,20.7,20.7,0,0,0-2.8-4.433Zm-12.7-4.021a16.58,16.58,0,0,1,1.221,3.685,1.742,1.742,0,1,1-3.422,0,16.752,16.752,0,0,1,1.221-3.685.584.584,0,0,1,.98,0Zm-11.953,0a.538.538,0,0,1,.98,0,16.3,16.3,0,0,1,1.235,3.781A1.707,1.707,0,0,1,21.5,39.9a1.75,1.75,0,0,1-2.711,0,1.708,1.708,0,0,1-.355-1.428A16.586,16.586,0,0,1,19.659,34.786Zm-2.788,4.972A3.42,3.42,0,0,0,22.8,40.952a3.377,3.377,0,0,0,.7-2.815c-.051-.25-.129-.59-.18-.79a20.484,20.484,0,0,1,4.643,0c-.013.051-.118.483-.18.792a3.413,3.413,0,0,0,6.624,1.62q.521.373,1.011.8c-5.67,4.375-8.417,12.617-7.476,19.8a41.828,41.828,0,0,0-4.6,0,23.149,23.149,0,0,0-.307-7.594A20.694,20.694,0,0,0,15.86,40.56Q16.348,40.133,16.871,39.759Zm-8.5,24.614c.164-7.428,1.308-17.075,6.286-22.625A19.194,19.194,0,0,1,21.4,53.107a21.236,21.236,0,0,1,.237,7.389A36.1,36.1,0,0,0,8.375,64.372ZM6.959,38.807l6.133,2.2a20.556,20.556,0,0,0-2.8,4.433,22.265,22.265,0,0,0-7.525-5.635,3.92,3.92,0,0,1,4.2-1ZM1.739,42.029a3.9,3.9,0,0,1,.169-.783A19.832,19.832,0,0,1,9.534,47.2a34.471,34.471,0,0,0-1.37,4.456c-4.772-1.858-6.933-5.092-6.425-9.623ZM47.465,80.17c-9.152,0-11.574-10.116-.039-21.334a.056.056,0,0,1,.078,0C59.147,70.16,56.5,80.17,47.465,80.17Z" transform="translate(0.001 -32.803)"/>
    </g>
  </g>
</svg>
