<svg xmlns="http://www.w3.org/2000/svg" width="98" height="97.999" viewBox="0 0 98 97.999">
  <g id="Group_1204777" data-name="Group 1204777" transform="translate(-1080.051 -2809)">
    <g id="Group_1204579" data-name="Group 1204579" transform="translate(277.269 270.984)">
      <g id="Group_1204237" data-name="Group 1204237" transform="translate(-1 566)">
        <g id="Group_1204143" data-name="Group 1204143" transform="translate(-67.331 1694.852)">
          <g id="Group_1188789" data-name="Group 1188789" transform="translate(871.113 277.164)">
            <path id="Path_1243039" data-name="Path 1243039" d="M41.05,0h0a41.05,41.05,0,0,1,0,82.1h0a41.05,41.05,0,0,1,0-82.1Z" transform="translate(7.951 7.949)" fill="#ffc94a"/>
            <rect id="Rectangle_400907" data-name="Rectangle 400907" width="88.438" height="88.437" rx="44.218" transform="translate(4.782 4.781)" fill="none"/>
            <g id="Group_1098742" data-name="Group 1098742" transform="translate(0)">
              <g id="Rectangle_400898" data-name="Rectangle 400898" transform="translate(0)" fill="none" stroke="#fff" stroke-width="2" opacity="0.859">
                <rect width="98" height="97.999" rx="48.999" stroke="none"/>
                <rect x="1" y="1" width="96" height="95.999" rx="47.999" fill="none"/>
              </g>
              <g id="Rectangle_400907-2" data-name="Rectangle 400907" transform="translate(0)" fill="none" stroke="#0f1f33" stroke-linecap="round" stroke-width="2">
                <rect width="98" height="97.999" rx="48.999" stroke="none"/>
                <rect x="1" y="1" width="96" height="95.999" rx="47.999" fill="none"/>
              </g>
            </g>
          </g>
        </g>
      </g>
    </g>
    <g id="vaca_1_" data-name="vaca (1)" transform="translate(1100.049 2799.104)">
      <g id="Group_1204775" data-name="Group 1204775" transform="translate(0.86 33.756)">
        <g id="Group_1204772" data-name="Group 1204772" transform="translate(33.437 45.113)">
          <path id="Path_1245212" data-name="Path 1245212" d="M301.062,434.918l1.845-.951,1.848.951,1.573,2.852a.344.344,0,0,1-.3.51h-1.785l-1.845-.162a1.376,1.376,0,0,1-1.375-1.376Z" transform="translate(-300.813 -433.967)" fill="#878382"/>
          <path id="Path_1245213" data-name="Path 1245213" d="M302.867,441.112h-2.293a1.376,1.376,0,0,1-1.375-1.376V437.75l1.383-.585.909.585v1.986A1.376,1.376,0,0,0,302.867,441.112Z" transform="translate(-299.199 -436.798)" fill="#7a7473"/>
        </g>
        <g id="Group_1204773" data-name="Group 1204773" transform="translate(2.47 45.113)">
          <path id="Path_1245214" data-name="Path 1245214" d="M30.9,434.918l1.845-.951,1.848.951,1.573,2.852a.344.344,0,0,1-.3.51H34.083l-1.845-.162a1.376,1.376,0,0,1-1.376-1.376Z" transform="translate(-30.654 -433.967)" fill="#878382"/>
          <path id="Path_1245215" data-name="Path 1245215" d="M32.708,441.112H30.416a1.376,1.376,0,0,1-1.376-1.376V437.75l1.383-.585.909.585v1.986A1.376,1.376,0,0,0,32.708,441.112Z" transform="translate(-29.04 -436.798)" fill="#7a7473"/>
        </g>
        <path id="Path_1245216" data-name="Path 1245216" d="M166.887,40.928a.6.6,0,0,1,.026.547l-.985,2.157a2.291,2.291,0,1,1-1.863-3.226l2.361.225A.6.6,0,0,1,166.887,40.928Z" transform="translate(-143.886 -40.396)" fill="#7a7473"/>
        <path id="Path_1245217" data-name="Path 1245217" d="M52.011,143.492a10.647,10.647,0,0,0-4.758.146c-.975.181-2.012-.592-3-.49a36.789,36.789,0,0,1-3.795.2H36.049a53.16,53.16,0,0,1-12.1-1.395c-.235-.055-.992.335-.992.335-1-.249-2.2-.41-2.2-.41a8.608,8.608,0,0,0-8.717,9.731c.5,3.257,1.254,8.192,1.6,10.419a2.284,2.284,0,0,1-.616,1.935,2.738,2.738,0,0,0-.749,2.272c.231,1.583.424,3.459.718,4.836a11.467,11.467,0,0,1,.195,3.54l-.108.737a.688.688,0,0,0,.684.757l2.441.206h1.649l-.442-2.806a6.878,6.878,0,0,1,.973-4.733l1.221-1.94a5.706,5.706,0,0,0,.33-.6c.2-.42-.088-1.4.005-1.859l.534-2.686a5.061,5.061,0,0,1,.748-1.262l2.231,1.342.878.16a9.484,9.484,0,0,1,3.43,1.353,9.484,9.484,0,0,0,7.315,1.251l4.235-1c.245-.058.51-.109.758-.147,0,0,1.576-1.108,2.321-1.045.2,1.1.817,3.025,1.144,4.094l.939,2.3a10.977,10.977,0,0,1,.135,5.628l-.167.78a.78.78,0,0,0,.647.955l1.829.223h1.9l-.329-1.972a6.307,6.307,0,0,1,.394-3.452,4.716,4.716,0,0,0,.346-2.154l-.056-.75a12.545,12.545,0,0,1,.087-2.668l1.18-.49.986.741A4.93,4.93,0,0,0,54,164.5l.045-.036a5.053,5.053,0,0,0,1.833-3.169c.387-2.5,1.016-6.553,1.016-6.553l2.119-10.126Z" transform="translate(-11.439 -130.242)" fill="#f5f8f9"/>
        <path id="Path_1245218" data-name="Path 1245218" d="M7.489,183.8a8.767,8.767,0,0,0,.1,1.339c.5,3.257,1.28,8.3,1.624,10.53a2.285,2.285,0,0,1-.616,1.936l-.022.022a2.674,2.674,0,0,0-.728,2.25c.232,1.583.626,3.54.918,4.917a11.471,11.471,0,0,1,.195,3.54l-.087.867a.687.687,0,0,0,.684.757h2.69a2.388,2.388,0,0,1-.537-1.544,18.9,18.9,0,0,0-.309-3.618c-.292-1.378-.687-3.334-.918-4.917a2.674,2.674,0,0,1,.728-2.25l.022-.022a2.285,2.285,0,0,0,.616-1.936c-.344-2.226-1.121-7.273-1.624-10.53a8.726,8.726,0,0,1,.686-4.963,5.1,5.1,0,0,0-1.629-.295,5.57,5.57,0,0,1-1.312,1.056A8.734,8.734,0,0,0,7.489,183.8Z" transform="translate(-7.489 -163.897)" fill="#e8edf2"/>
        <path id="Path_1245219" data-name="Path 1245219" d="M290.988,357.185l.167-.779a11.482,11.482,0,0,0-.244-5.751l-.73-2.39c-.117-.383-.222-.768-.323-1.155a6.945,6.945,0,0,1-1.711,1.317l-.076,1.561.2.667a11.482,11.482,0,0,1,.244,5.751l-.167.779a.687.687,0,0,0,.672.832h2.636A.687.687,0,0,1,290.988,357.185Z" transform="translate(-255.909 -311.953)" fill="#e8edf2"/>
        <path id="Path_1245220" data-name="Path 1245220" d="M347.607,76.105l-4.022-3.374a.115.115,0,0,0-.164.016,3.354,3.354,0,0,0,.488,4.634l1.542,1.294,2.156-.243Z" transform="translate(-304.285 -69)" fill="#878382"/>
        <path id="Path_1245221" data-name="Path 1245221" d="M424.651,76.106l4.021-3.374a.115.115,0,0,1,.164.016,3.355,3.355,0,0,1-.488,4.634l-1.542,1.294-2.156-.5V76.106Z" transform="translate(-376.833 -69.001)" fill="#878382"/>
        <path id="Path_1245222" data-name="Path 1245222" d="M276.266,149.657l-2.118,10.126s-.016.1-.042.277h-3.525c-3.237,0-2.961-1.351-4.681-2.019-2.3-.893-3.461.688-5.794-.41a4.69,4.69,0,0,1-2.693-5.238,5.651,5.651,0,0,1,4.1-4.206q1.479-.153,2.941-.425a11.588,11.588,0,0,1,2.844-.173c.238.015.686.656.923.686.475.059.738-.471,1.2-.353Z" transform="translate(-228.696 -135.282)" fill="#878382"/>
        <path id="Path_1245223" data-name="Path 1245223" d="M305.489,136.023a1.909,1.909,0,0,1,2.123-2.118c1.3,0,2.787,1.474,3.244,1.963a.228.228,0,0,1,0,.311c-.456.489-1.94,1.963-3.244,1.963A1.909,1.909,0,0,1,305.489,136.023Z" transform="translate(-271.331 -123.186)" fill="#7a7473"/>
        <path id="Path_1245224" data-name="Path 1245224" d="M368.147,113.841l-1.413,3.513h-4.75l-3.172-7.377a4.025,4.025,0,0,1,.616-4.051l2.675-3.21,2.368-.342h1.63l2.091,2.562Z" transform="translate(-318.283 -95.271)" fill="#f5f8f9"/>
        <path id="Path_1245225" data-name="Path 1245225" d="M354.879,110.047l2.946,7.307h-2.866l-2.946-7.307a4.025,4.025,0,0,1,.616-4.051l2.956-3.621h2.866L355.494,106A4.025,4.025,0,0,0,354.879,110.047Z" transform="translate(-312.263 -95.271)" fill="#e8edf2"/>
        <path id="Path_1245226" data-name="Path 1245226" d="M377.728,225.135l1.835-.146c.043,0,.085-.005.153,0a2.675,2.675,0,0,1,2.544,2.681v1.878a1.074,1.074,0,0,1-1.073,1.073h-3.143l-1.791-.128a1.073,1.073,0,0,1-1.073-1.073l-.04-1.616A2.588,2.588,0,0,1,377.728,225.135Z" transform="translate(-332.997 -203.826)" fill="#fecec8"/>
        <path id="Path_1245227" data-name="Path 1245227" d="M376.254,230.591h-2.292a1.073,1.073,0,0,1-1.073-1.074V227.64a2.684,2.684,0,0,1,2.683-2.685h2.013c.046,0,.093,0,.139,0a2.684,2.684,0,0,0-2.542,2.681v1.878A1.073,1.073,0,0,0,376.254,230.591Z" transform="translate(-331.005 -203.8)" fill="#fec0b7"/>
        <path id="Path_1245228" data-name="Path 1245228" d="M461.837,135.982a1.91,1.91,0,0,1-2.119,2.124c-1.56,0-3.4-2.124-3.4-2.124s1.842-2.124,3.4-2.124A1.91,1.91,0,0,1,461.837,135.982Z" transform="translate(-404.868 -123.145)" fill="#7a7473"/>
        <path id="Path_1245229" data-name="Path 1245229" d="M29.037,144.052a5.014,5.014,0,0,1-5.385,3.073c-1.778-.314-2.092-1.772-4.434-2.561a7.262,7.262,0,0,0-1.084-.275c-1.051-.182-1.492-.636-2.147-.538.17-.489.277-.384.534-.841a7.35,7.35,0,0,1,2.961-2.961,8.219,8.219,0,0,1,4.2-1.446c.483,0,.878-.039,1.521-.025l.1.012a12.934,12.934,0,0,1,1.52.28q.351.088.7.17A4.958,4.958,0,0,1,29.037,144.052Z" transform="translate(-15.013 -127.233)" fill="#878382"/>
        <path id="Path_1245230" data-name="Path 1245230" d="M21.412,137.867a8.741,8.741,0,0,0-6.427,4.377,8.867,8.867,0,0,0-.644,1.434,8.287,8.287,0,0,0-2.632-.011,8.744,8.744,0,0,1,8.261-5.881,12.611,12.611,0,0,1,1.442.082Z" transform="translate(-11.225 -126.622)" fill="#7a7473"/>
        <g id="Group_1204774" data-name="Group 1204774" transform="translate(0.483 9.621)">
          <path id="Path_1245231" data-name="Path 1245231" d="M11.7,189.1h0" transform="translate(-11.699 -181.671)" fill="#878382"/>
          <path id="Path_1245232" data-name="Path 1245232" d="M163.164,222.993a5.588,5.588,0,0,0-.274-5.448,4.973,4.973,0,0,0-4.145-2.1c-.334.012-2.471.086-3.336,1.7a2.885,2.885,0,0,0-.244,2.146c.423,1.3,1.64,1.1,2.408,2.469.748,1.338,0,2.27.831,3.053a2.808,2.808,0,0,0,2.419.41A3.89,3.89,0,0,0,163.164,222.993Z" transform="translate(-138.617 -204.995)" fill="#878382"/>
          <path id="Path_1245233" data-name="Path 1245233" d="M61.674,274.684l-.957,2.21-1.517.563a5.13,5.13,0,0,0-.345,1.106l-.5,2.443a5.7,5.7,0,0,1-.442,1.323c-2.276-1.849-3.478-4.353-2.937-6.533a3.721,3.721,0,0,1,1.717-2.459C58.1,272.608,60.129,273.106,61.674,274.684Z" transform="translate(-49.901 -255.966)" fill="#878382"/>
          <path id="Path_1245234" data-name="Path 1245234" d="M411.954,129.48l-1.527,3.8a6.876,6.876,0,0,1-3.866-4.084,3.976,3.976,0,0,1,.256-3.479,3.78,3.78,0,0,1,3.654-1.341l.867,1.06A4.027,4.027,0,0,1,411.954,129.48Z" transform="translate(-361.045 -124.327)" fill="#878382"/>
          <path id="Path_1245235" data-name="Path 1245235" d="M270.063,304.544a4.923,4.923,0,0,1-2.349,3.773l-.526-1.723a28.715,28.715,0,0,1-.787-3.253l-1.322-1.541.917-1.756a4.615,4.615,0,0,1,3.189,1.748A4.4,4.4,0,0,1,270.063,304.544Z" transform="translate(-236.035 -279.903)" fill="#878382"/>
        </g>
      </g>
      <g id="Group_1204776" data-name="Group 1204776" transform="translate(0.002 32.896)">
        <path id="Path_1245236" data-name="Path 1245236" d="M91.994,39.8a12.305,12.305,0,0,0,2.107.192,10.471,10.471,0,0,0,1.263-.076,11.287,11.287,0,0,0,4.248-1.441A3.155,3.155,0,0,0,104.5,37.35l.985-2.157a1.461,1.461,0,0,0-.063-1.334h0a1.46,1.46,0,0,0-1.124-.722l-2.361-.225a3.152,3.152,0,0,0-3.3,4.137A9.212,9.212,0,0,1,92.286,38.1a.86.86,0,1,0-.292,1.694Zm8.266-4.175a1.416,1.416,0,0,1,.757-.867,1.453,1.453,0,0,1,.619-.138c.006-.013,2.109.2,2.133.2l-.833,1.823a1.453,1.453,0,0,1-.492.589,1.432,1.432,0,0,1-2.183-1.6Z" transform="translate(-80.817 -32.896)"/>
        <path id="Path_1245237" data-name="Path 1245237" d="M45.249,273.426a4.093,4.093,0,0,1-2.99.681,11.707,11.707,0,0,1,1.77-4.19.86.86,0,1,0-1.422-.966,13.456,13.456,0,0,0-2.279,8.523l.056.75a3.876,3.876,0,0,1-.283,1.762,7.159,7.159,0,0,0-.448,3.923l.162.97H36.777l.123-.572a12.616,12.616,0,0,0-.285-6.255,5.547,5.547,0,0,0,2.205-4.086,5.3,5.3,0,0,0-1.051-3.3,5.368,5.368,0,0,0-3.052-1.961q-.022-.55-.022-1.1a.86.86,0,1,0-1.719,0,29.564,29.564,0,0,0,.306,4.238,10.3,10.3,0,0,0-2.159.274l-4.235,1a8.668,8.668,0,0,1-6.652-1.137,10.294,10.294,0,0,0-3.741-1.476l-1.93-.351a4.913,4.913,0,0,1,3.142-1.962l1.349-.238a.86.86,0,1,0-.3-1.693l-1.349.238a6.735,6.735,0,0,0-1.553.473,5.048,5.048,0,0,0-5.525-1.07,4.357,4.357,0,0,0-2.156,3.015c-.566,2.283.456,4.891,2.679,6.938l-1.186,1.886a7.736,7.736,0,0,0-1.094,5.324l.285,1.812H5.711l.068-.677a12.306,12.306,0,0,0-.209-3.805c-.289-1.355-.68-3.3-.909-4.863a1.958,1.958,0,0,1,.517-1.55,3.162,3.162,0,0,0,.847-2.664l-.381-2.471a.86.86,0,0,0-1.7.262l.381,2.471a1.433,1.433,0,0,1-.384,1.207,3.653,3.653,0,0,0-.981,2.993c.235,1.609.635,3.592.929,4.972a10.594,10.594,0,0,1,.18,3.275l-.087.867a1.543,1.543,0,0,0,1.31,1.684v1.146a2.238,2.238,0,0,0,2.235,2.235h4.189a.86.86,0,0,0,.753-1.275l-1.782-3.23-.418-2.657a6.017,6.017,0,0,1,.851-4.141l1.221-1.94a6.629,6.629,0,0,0,.887-2.21c.192-.9.376-1.921.572-2.743l2.386.434a8.582,8.582,0,0,1,3.119,1.23,10.394,10.394,0,0,0,5.609,1.64,10.278,10.278,0,0,0,2.369-.276l4.235-1a8.586,8.586,0,0,1,2.063-.23q.278,1.352.682,2.678l.73,2.39a10.627,10.627,0,0,1,.226,5.319l-.167.78a1.546,1.546,0,0,0,.976,1.775v1.223a2.238,2.238,0,0,0,2.235,2.235h4.421a.86.86,0,0,0,.753-1.275l-1.784-3.233-.3-1.826a5.442,5.442,0,0,1,.341-2.982A5.6,5.6,0,0,0,42.1,278.1l-.056-.75a11.579,11.579,0,0,1-.011-1.534,5.819,5.819,0,0,0,4.2-.978.86.86,0,1,0-.986-1.408ZM7.527,288.24a.516.516,0,0,1-.516-.516V286.6H9.354l.906,1.642ZM9.84,269.332a2.734,2.734,0,0,1,1.278-1.9,3.187,3.187,0,0,1,3.174.51,6.634,6.634,0,0,0-2.25,3.78l-.494,2.413a5.361,5.361,0,0,1-1.709-4.8ZM36.4,271.7a3.543,3.543,0,0,1,.705,2.2,3.594,3.594,0,0,1-1.041,2.33l-.152-.5a27.835,27.835,0,0,1-1.057-5.191A3.527,3.527,0,0,1,36.4,271.7Zm1.867,16.539a.516.516,0,0,1-.516-.516V286.6h2.574l.906,1.642Z" transform="translate(-2.591 -238.814)"/>
        <path id="Path_1245238" data-name="Path 1245238" d="M55.821,71.95a4.85,4.85,0,0,0-2.847,1.311A6.439,6.439,0,0,0,52,71.8l.926-.778a4.219,4.219,0,0,0,.519-5.937.86.86,0,0,0-1.211-.106l-3.872,3.249h-3.87l-3.872-3.249a.859.859,0,0,0-1.211.106,4.219,4.219,0,0,0,.519,5.937l.927.778a6.229,6.229,0,0,0-.973,1.462,4.827,4.827,0,0,0-2.848-1.314,2.621,2.621,0,0,0-2.776,2.01,74.611,74.611,0,0,1-8.79.268,52.354,52.354,0,0,1-12.595-1.539,13.592,13.592,0,0,0-3.27-.4,9.614,9.614,0,0,0-6.355,2.4A6.763,6.763,0,0,1,2.9,70.418,4.6,4.6,0,0,1,4.781,67.86a3.886,3.886,0,0,1,2.546-.583.86.86,0,1,0,.133-1.714,5.572,5.572,0,0,0-3.605.849,6.352,6.352,0,0,0-2.6,3.529,8.508,8.508,0,0,0,.737,6.1A9.588,9.588,0,0,0,.113,83.363l.617,4a.86.86,0,0,0,1.7-.262l-.617-4A7.917,7.917,0,0,1,2,79.82a6.867,6.867,0,0,1,2.791.311,6.046,6.046,0,0,1,2.148,1.3A4.8,4.8,0,0,0,9.35,82.724a4.914,4.914,0,0,0,.853.073,5.858,5.858,0,0,0,5.5-3.719A5.451,5.451,0,0,0,15.391,75a54.076,54.076,0,0,0,10.079.95c.836,0,4.2,0,4.826,0a5.844,5.844,0,0,0-1.565,3,6,6,0,0,0-.089,1.229.86.86,0,0,0,.859.835h.025a.86.86,0,0,0,.834-.884,4.315,4.315,0,0,1,.061-.871,4.815,4.815,0,0,1,3.439-3.515c.133-.014.267-.03.4-.045a2.621,2.621,0,0,0,2.775,2,4.531,4.531,0,0,0,2.608-1.118,4.889,4.889,0,0,0,.17.506L42.521,83.8a3.523,3.523,0,0,0-.637,2.023v.039a2.86,2.86,0,0,1-1.923-.88,4.879,4.879,0,0,0-1.587-1.04,5.544,5.544,0,0,0-3.242-.191,3.653,3.653,0,0,1-2.5-.2A4.308,4.308,0,0,1,31.749,83a.86.86,0,1,0-1.086,1.333,6.032,6.032,0,0,0,1.241.781,5.292,5.292,0,0,0,3.517.335,3.945,3.945,0,0,1,2.333.1,3.192,3.192,0,0,1,1.059.715,4.507,4.507,0,0,0,3.073,1.327V87.7a1.935,1.935,0,0,0,1.933,1.933h1.134c-.155.992-.368,2.384-.519,3.346a.86.86,0,0,0,.7.993.869.869,0,0,0,.147.013.86.86,0,0,0,.846-.714c.15-.954.374-2.415.564-3.638h2.359A1.935,1.935,0,0,0,50.984,87.7V85.825a3.522,3.522,0,0,0-.637-2.024l2.7-6.72a4.9,4.9,0,0,0,.168-.5,4.548,4.548,0,0,0,2.6,1.114,2.872,2.872,0,0,0,0-5.745ZM14.069,78.531a4.154,4.154,0,0,1-4.42,2.5,3.231,3.231,0,0,1-1.6-.911A7.692,7.692,0,0,0,5.34,78.5a8.367,8.367,0,0,0-2.631-.43,7.954,7.954,0,0,1,6.9-4.063,11.871,11.871,0,0,1,2.856.349c.159.039.318.077.477.115A4.031,4.031,0,0,1,14.069,78.531Zm38.5-11.581a2.5,2.5,0,0,1-.744,2.758l-.908.763L49.88,69.2Zm-11.53,2.758a2.5,2.5,0,0,1-.743-2.758L42.979,69.2,41.945,70.47Zm-4,6.268c-.833,0-1.157-.323-1.157-1.153s.325-1.153,1.157-1.153a3.847,3.847,0,0,1,2.013,1.153,3.847,3.847,0,0,1-2.013,1.153Zm4.856-2.721,2.7-3.3h3.68l.729.893a4.174,4.174,0,0,0-2.585,1.651,4.775,4.775,0,0,0-.38,4.217,7.334,7.334,0,0,0,3.6,4.261l-.666,1.656a3.521,3.521,0,0,0-1.525-.345H45.427a3.522,3.522,0,0,0-1.526.346L41.407,76.44a3.166,3.166,0,0,1,.484-3.186ZM49.264,87.7a.214.214,0,0,1-.214.214H43.817A.214.214,0,0,1,43.6,87.7V85.825A1.826,1.826,0,0,1,45.427,84H47.44a1.826,1.826,0,0,1,1.824,1.824V87.7Zm2.19-11.264L50.28,79.357a5.612,5.612,0,0,1-2.6-3.124,3.177,3.177,0,0,1,.129-2.742,2.739,2.739,0,0,1,2.511-1.025l.645.79A3.166,3.166,0,0,1,51.454,76.439Zm4.367-.464A3.886,3.886,0,0,1,53.8,74.822a3.885,3.885,0,0,1,2.021-1.153c.689,0,1.149.2,1.149,1.153S56.51,75.975,55.821,75.975Z" transform="translate(-0.002 -61.126)"/>
        <path id="Path_1245239" data-name="Path 1245239" d="M149.2,214.614a2.415,2.415,0,0,1,.986.919,2.457,2.457,0,0,1,.276,1.289,2.476,2.476,0,0,0,.715,1.969,3.019,3.019,0,0,0,2.115.755,4.573,4.573,0,0,0,1.113-.138,4.708,4.708,0,0,0,2.892-2.672,6.415,6.415,0,0,0-.343-6.331,5.827,5.827,0,0,0-4.876-2.463,4.721,4.721,0,0,0-4.064,2.15,3.748,3.748,0,0,0-.3,2.818A3,3,0,0,0,149.2,214.614Zm.33-3.709a3.078,3.078,0,0,1,2.609-1.245,4.2,4.2,0,0,1,3.415,1.741,4.746,4.746,0,0,1,.205,4.566,3.063,3.063,0,0,1-1.79,1.777,1.973,1.973,0,0,1-1.61-.2c-.15-.142-.167-.262-.177-.756a3.9,3.9,0,0,0-2.072-3.631c-.455-.283-.644-.413-.762-.775A2.03,2.03,0,0,1,149.532,210.9Z" transform="translate(-130.643 -187.874)"/>
      </g>
    </g>
  </g>
</svg>
