<svg xmlns="http://www.w3.org/2000/svg" width="95.055" height="101.476" viewBox="0 0 95.055 101.476">
  <g id="limpieza" transform="translate(-16.201)">
    <g id="Group_1205067" data-name="Group 1205067" transform="translate(17.69 1.489)">
      <path id="Path_1246138" data-name="Path 1246138" d="M229.471,216.031h8.641a1.158,1.158,0,0,1,1.152,1.157v9.663a1.158,1.158,0,0,1-1.152,1.157h-8.641a1.158,1.158,0,0,1-1.152-1.157v-9.663A1.158,1.158,0,0,1,229.471,216.031Z" transform="translate(-187.767 -174.703)" fill="#407093" fill-rule="evenodd"/>
      <path id="Path_1246139" data-name="Path 1246139" d="M248.588,216.031h5.775a1.158,1.158,0,0,1,1.152,1.157v9.663a1.158,1.158,0,0,1-1.152,1.157h-5.775a1.163,1.163,0,0,0,1.157-1.157v-9.663A1.163,1.163,0,0,0,248.588,216.031Z" transform="translate(-204.018 -174.703)" fill="#365e7d" fill-rule="evenodd"/>
      <path id="Path_1246140" data-name="Path 1246140" d="M205.18,309.005V277.341a16.664,16.664,0,1,0-33.327,0v31.664Z" transform="translate(-142.492 -210.5)" fill="#78c2a4" fill-rule="evenodd"/>
      <path id="Path_1246141" data-name="Path 1246141" d="M260.911,309.005V277.341a16.711,16.711,0,0,0-16.664-16.664,16.356,16.356,0,0,0-2.888.253,16.729,16.729,0,0,1,13.781,16.411v31.664Z" transform="translate(-198.223 -210.5)" fill="#64aa91" fill-rule="evenodd"/>
      <path id="Path_1246142" data-name="Path 1246142" d="M200.335,337.471c7.568,0,13.737-6.652,13.737-14.81s-6.169-14.815-13.737-14.815-13.742,6.652-13.742,14.815S192.767,337.471,200.335,337.471Z" transform="translate(-154.311 -248.321)" fill="#ccf49f" fill-rule="evenodd"/>
      <path id="Path_1246143" data-name="Path 1246143" d="M244.248,307.847c7.59,0,13.737,6.629,13.737,14.815s-6.147,14.815-13.737,14.815a12.942,12.942,0,0,1-2.888-.331c6.2-1.427,10.854-7.371,10.854-14.484s-4.652-13.057-10.854-14.489A12.926,12.926,0,0,1,244.248,307.847Z" transform="translate(-198.223 -248.321)" fill="#b3e59f" fill-rule="evenodd"/>
      <path id="Path_1246144" data-name="Path 1246144" d="M308.665,7.511a3.275,3.275,0,0,0-3.27,3.264c0,1.877,1.736,2.764,3.27,3.27l8.714,2.866a1.48,1.48,0,0,1,1.1,1.511v10.4h9.669V20.765a1.037,1.037,0,0,1,1.152-1.157h11.2a1.007,1.007,0,0,0,1.157-1.152V16.927a2.737,2.737,0,0,0-.815-1.978l-6.545-6.618a2.652,2.652,0,0,0-1.966-.82H308.665Z" transform="translate(-249.566 -7.511)" fill="#cbe2ff" fill-rule="evenodd"/>
      <path id="Path_1246145" data-name="Path 1246145" d="M391.059,28.827h5.77V20.765a1.037,1.037,0,0,1,1.152-1.157h-5.77a1.037,1.037,0,0,0-1.152,1.157Zm12.349-9.219h5.77a1.007,1.007,0,0,0,1.157-1.152V16.927a2.737,2.737,0,0,0-.815-1.978l-6.545-6.618a2.652,2.652,0,0,0-1.967-.82h-5.77a2.661,2.661,0,0,1,1.966.82l6.545,6.619a2.737,2.737,0,0,1,.814,1.978v1.528A1.008,1.008,0,0,1,403.408,19.607Z" transform="translate(-318.252 -7.511)" fill="#9dc6fb" fill-rule="evenodd"/>
      <path id="Path_1246146" data-name="Path 1246146" d="M355.558,110.184h14.1a1.163,1.163,0,0,1,1.157,1.157v8.175l-8.629,1.584-7.776-1.584v-8.175A1.158,1.158,0,0,1,355.558,110.184Z" transform="translate(-288.864 -89.835)" fill="#407093" fill-rule="evenodd"/>
      <path id="Path_1246147" data-name="Path 1246147" d="M402.227,110.184H408a1.163,1.163,0,0,1,1.157,1.157v8.175h-5.775v-8.175a1.158,1.158,0,0,0-1.152-1.157Z" transform="translate(-327.207 -89.835)" fill="#365e7d" fill-rule="evenodd"/>
      <path id="Path_1246148" data-name="Path 1246148" d="M312.274,226.092h24.613a5.309,5.309,0,0,0,5.292-5.292V189.843c0-11.113-9.394-9.029-9.394-21.99V157.269H316.381v10.584c0,12.956-9.4,10.883-9.4,21.99V220.8A5.309,5.309,0,0,0,312.274,226.092Z" transform="translate(-250.839 -127.588)" fill="#9dc6fb" fill-rule="evenodd"/>
      <path id="Path_1246149" data-name="Path 1246149" d="M412.139,226.092h5.776a5.309,5.309,0,0,0,5.292-5.292V189.843c0-11.113-9.394-9.029-9.394-21.99V157.269h-5.775v10.584c0,12.961,9.394,10.877,9.394,21.99V220.8A5.305,5.305,0,0,1,412.139,226.092Z" transform="translate(-331.866 -127.588)" fill="#80b4fb" fill-rule="evenodd"/>
      <path id="Path_1246150" data-name="Path 1246150" d="M81.308,170.89v-8.624a10.273,10.273,0,0,0-20.546,0v8.624Z" transform="translate(-53.419 -123.36)" fill="#e9f5ff" fill-rule="evenodd"/>
      <path id="Path_1246151" data-name="Path 1246151" d="M111.2,170.89v-8.624A10.3,10.3,0,0,0,100.919,152a10.175,10.175,0,0,0-2.882.416,10.311,10.311,0,0,1,7.383,9.854v8.624H111.2Z" transform="translate(-83.306 -123.36)" fill="#cbe2ff" fill-rule="evenodd"/>
      <path id="Path_1246152" data-name="Path 1246152" d="M96.36,204.04h4.579a1.158,1.158,0,0,1,1.152,1.157V213.7a1.158,1.158,0,0,1-1.152,1.157H96.36A1.163,1.163,0,0,1,95.2,213.7V205.2a1.163,1.163,0,0,1,1.157-1.157Z" transform="translate(-81.034 -165.089)" fill="#e59b6c" fill-rule="evenodd"/>
      <path id="Path_1246153" data-name="Path 1246153" d="M60.762,247.326H81.308v7.506H60.762Z" transform="translate(-53.419 -199.796)" fill="#407093" fill-rule="evenodd"/>
      <path id="Path_1246154" data-name="Path 1246154" d="M135.286,247.326h5.775v7.506h-5.775Z" transform="translate(-113.172 -199.796)" fill="#365e7d" fill-rule="evenodd"/>
      <path id="Path_1246155" data-name="Path 1246155" d="M29.05,323.938H53.607a5.353,5.353,0,0,0,5.337-5.337V284.644a5.354,5.354,0,0,0-5.337-5.343H29.05a5.354,5.354,0,0,0-5.338,5.343V318.6A5.353,5.353,0,0,0,29.05,323.938Z" transform="translate(-23.712 -225.433)" fill="#dd636e" fill-rule="evenodd"/>
      <path id="Path_1246156" data-name="Path 1246156" d="M145.434,323.938h5.77a5.353,5.353,0,0,0,5.337-5.337V284.644A5.354,5.354,0,0,0,151.2,279.3h-5.77a5.358,5.358,0,0,1,5.337,5.343V318.6A5.357,5.357,0,0,1,145.434,323.938Z" transform="translate(-121.309 -225.433)" fill="#dd636e" fill-rule="evenodd"/>
      <path id="Path_1246157" data-name="Path 1246157" d="M23.712,342.4H58.944v19.625H23.712Z" transform="translate(-23.712 -276.026)" fill="#ffe07d" fill-rule="evenodd"/>
      <path id="Path_1246158" data-name="Path 1246158" d="M172.362,342.4h5.77v19.625h-5.77Z" transform="translate(-142.9 -276.026)" fill="#ffd064" fill-rule="evenodd"/>
      <path id="Path_1246159" data-name="Path 1246159" d="M306.981,323.447h6.276c1.438,0,1.944.157,2.741-.972a10.085,10.085,0,0,1,17.169,0c.792,1.129,1.3.972,2.736.972h6.276v15.6H335.9c-1.433,0-1.944-.157-2.736.972a10.085,10.085,0,0,1-17.169,0c-.8-1.129-1.3-.972-2.741-.972h-6.276Z" transform="translate(-250.838 -256.208)" fill="#739ad6" fill-rule="evenodd"/>
      <path id="Path_1246160" data-name="Path 1246160" d="M56.483,379.307a4.138,4.138,0,1,0-4.141-4.135A4.146,4.146,0,0,0,56.483,379.307Z" transform="translate(-46.668 -298.983)" fill="#da4a54" fill-rule="evenodd"/>
      <path id="Path_1246161" data-name="Path 1246161" d="M455.434,346.767h5.776v15.6h-5.776Z" transform="translate(-369.868 -279.528)" fill="#5582be" fill-rule="evenodd"/>
    </g>
    <path id="Path_1246162" data-name="Path 1246162" d="M47.584,98.5a3.865,3.865,0,0,0,3.854-3.848v-5.68H38.674a1.486,1.486,0,1,1,0-2.972H51.439V69.346H19.173V86H31.938a1.486,1.486,0,1,1,0,2.972H19.173v5.68A3.865,3.865,0,0,0,23.027,98.5ZM27.5,75.026a2.656,2.656,0,1,0,1.871.775A2.621,2.621,0,0,0,27.5,75.026ZM23.527,73.7a5.615,5.615,0,1,1-1.652,3.978A5.585,5.585,0,0,1,23.527,73.7ZM36.6,82.049a1.486,1.486,0,1,1,0-2.972h10.45a1.486,1.486,0,0,1,0,2.972Zm0-5.775a1.486,1.486,0,1,1,0-2.972h10.45a1.486,1.486,0,0,1,0,2.972Zm51.66,7.511a1.486,1.486,0,1,1,0-2.972h6.349a1.486,1.486,0,0,1,0,2.972Zm0-11.54a1.486,1.486,0,1,1,0-2.972h6.349a1.486,1.486,0,0,1,0,2.972Zm0,5.77a1.486,1.486,0,1,1,0-2.972h6.349a1.486,1.486,0,0,1,0,2.972ZM75.322,67.239H81.4a13.648,13.648,0,0,1,4.067-4.017,11.082,11.082,0,0,1,11.927,0,13.648,13.648,0,0,1,4.067,4.017h6.079V63.744c0-4.753-1.966-6.832-4.011-8.995-2.64-2.781-5.382-5.68-5.382-12.995v-9.1H84.715v5.73a1.486,1.486,0,1,1-2.972,0V21.838a1.483,1.483,0,0,1,1.489-1.483h1.882V12.321L81.2,11.034c-.354,3.669-1.9,11.422-8.573,15.989a1.484,1.484,0,0,1-1.674-2.45c6.163-4.219,7.191-11.742,7.36-14.489l-1.983-.652a8.176,8.176,0,0,1-2.7-1.393,4.116,4.116,0,0,1-1.6-3.287A4.758,4.758,0,0,1,76.788,0h8.854a1.486,1.486,0,0,1,0,2.972H76.788A1.775,1.775,0,0,0,75.53,3.5a1.747,1.747,0,0,0-.523,1.253,1.28,1.28,0,0,0,.517,1.011,5.463,5.463,0,0,0,1.719.848l9.815,3.225a1.484,1.484,0,0,1,1.028,1.41v9.107h6.691v-6.77A1.486,1.486,0,0,1,96.266,12.1h12.018V10.355l-7.3-7.382H92.373a1.486,1.486,0,0,1,0-2.972H101.6a1.478,1.478,0,0,1,1.056.45l8.09,8.18a1.486,1.486,0,0,1,.506,1.118v3.837a1.487,1.487,0,0,1-1.483,1.489H97.755v5.281h1.882a1.482,1.482,0,0,1,1.483,1.483V41.754c0,6.141,2.326,8.6,4.556,10.95,2.467,2.607,4.837,5.113,4.837,11.04V94.7a6.79,6.79,0,0,1-6.776,6.775H23.027A6.838,6.838,0,0,1,16.2,94.656V60.7a6.838,6.838,0,0,1,6.826-6.826h.522V40.395a11.756,11.756,0,0,1,23.512,0V53.873h.523a6.774,6.774,0,0,1,3.8,1.163,18.2,18.2,0,0,1,5.365-3.461V42.816a1.487,1.487,0,0,1,1.489-1.483h3.983V35.5H59.31A6,6,0,0,0,54.2,38.754,1.485,1.485,0,0,1,51.54,37.44c.006-.011,2.382-4.921,7.77-4.921h8.916a1.489,1.489,0,0,1,0,2.978H65.2v5.837h3.989a1.487,1.487,0,0,1,1.489,1.483v8.759a18.266,18.266,0,0,1,4.832,2.989c.534-.646,1.107-1.247,1.68-1.854,1.826-1.927,3.713-3.916,4.331-7.832a1.482,1.482,0,1,1,2.927.466c-.764,4.809-2.972,7.141-5.112,9.4-2.045,2.163-4.011,4.242-4.011,9v3.495Zm32.221,18.58h-6.079A13.642,13.642,0,0,1,97.4,89.835a11.082,11.082,0,0,1-11.927,0A13.645,13.645,0,0,1,81.4,85.818H75.322V94.7a3.817,3.817,0,0,0,3.8,3.8h24.619a3.817,3.817,0,0,0,3.8-3.8V85.818ZM82.226,70.211h-6.9V82.846h6.9a1.48,1.48,0,0,1,1.281.736,10.839,10.839,0,0,0,3.528,3.73,8.124,8.124,0,0,0,8.792,0,10.754,10.754,0,0,0,3.506-3.691,1.477,1.477,0,0,1,1.3-.775h6.9V70.211h-6.9a1.486,1.486,0,0,1-1.281-.736,10.788,10.788,0,0,0-3.528-3.73,8.123,8.123,0,0,0-8.792,0,10.756,10.756,0,0,0-3.506,3.691A1.477,1.477,0,0,1,82.226,70.211ZM57.647,54.424a15.326,15.326,0,0,0-4.214,2.764A6.786,6.786,0,0,1,54.41,60.7v2.23a15.2,15.2,0,0,1,2.63-1.753,14.295,14.295,0,0,1,12.826-.258,15.1,15.1,0,0,1,2.523,1.517,13.068,13.068,0,0,1,1.433-5.411,15.33,15.33,0,0,0-4.191-2.669,15.082,15.082,0,0,0-11.984.068ZM67.7,50.62V44.305H59.725V50.62a17.963,17.963,0,0,1,3.989-.444A18.257,18.257,0,0,1,67.7,50.62ZM31.859,38.957h6.888a1.483,1.483,0,0,1,1.489,1.483v7.09H44.09V40.4a8.784,8.784,0,0,0-17.568,0V47.53h3.854V40.44a1.482,1.482,0,0,1,1.483-1.483Zm5.4,2.972H33.348v5.6h3.916ZM44.09,53.873V50.5H26.522v3.371H44.09Zm7.349,12.5V60.7a3.875,3.875,0,0,0-3.854-3.855H23.027A3.875,3.875,0,0,0,19.173,60.7v5.674ZM53.214,98.5h20.31a6.725,6.725,0,0,1-1.174-3.8v-5.45c-.264.2-.539.382-.815.562a14.617,14.617,0,0,1-4.1,1.82,1.483,1.483,0,0,1-.764-2.865,11.674,11.674,0,0,0,3.264-1.455,12.41,12.41,0,0,0,2.416-2.022V66.363A12.325,12.325,0,0,0,68.6,63.6a11.421,11.421,0,0,0-10.191.2,12.494,12.494,0,0,0-4,3.349V84.5A12.737,12.737,0,0,0,57.1,87.06a11.715,11.715,0,0,0,3.657,1.708A1.483,1.483,0,0,1,60,91.633a14.57,14.57,0,0,1-4.584-2.146c-.343-.242-.68-.494-1-.764v5.933a6.789,6.789,0,0,1-1.2,3.848Zm31.5-68.823H98.148V23.327H84.715Z"/>
  </g>
</svg>
