<svg xmlns="http://www.w3.org/2000/svg" width="98" height="97.999" viewBox="0 0 98 97.999">
  <g id="Group_1204802" data-name="Group 1204802" transform="translate(-1120.051 -3457)">
    <g id="Group_1204594" data-name="Group 1204594" transform="translate(317.27 918.984)">
      <g id="Group_1204237" data-name="Group 1204237" transform="translate(-1 566)">
        <g id="Group_1204143" data-name="Group 1204143" transform="translate(-67.331 1694.852)">
          <g id="Group_1188789" data-name="Group 1188789" transform="translate(871.113 277.164)">
            <path id="Path_1243039" data-name="Path 1243039" d="M41.05,0h0a41.05,41.05,0,0,1,0,82.1h0a41.05,41.05,0,0,1,0-82.1Z" transform="translate(7.951 7.949)" fill="#ffc94a"/>
            <rect id="Rectangle_400907" data-name="Rectangle 400907" width="88.438" height="88.437" rx="44.218" transform="translate(4.782 4.781)" fill="none"/>
            <g id="Group_1098742" data-name="Group 1098742" transform="translate(0)">
              <g id="Rectangle_400898" data-name="Rectangle 400898" transform="translate(0)" fill="none" stroke="#fff" stroke-width="2" opacity="0.859">
                <rect width="98" height="97.999" rx="48.999" stroke="none"/>
                <rect x="1" y="1" width="96" height="95.999" rx="47.999" fill="none"/>
              </g>
              <g id="Rectangle_400907-2" data-name="Rectangle 400907" transform="translate(0)" fill="none" stroke="#0f1f33" stroke-linecap="round" stroke-width="2">
                <rect width="98" height="97.999" rx="48.999" stroke="none"/>
                <rect x="1" y="1" width="96" height="95.999" rx="47.999" fill="none"/>
              </g>
            </g>
          </g>
        </g>
      </g>
    </g>
    <g id="Flea" transform="translate(1140.881 3477.84)">
      <path id="Path_1245330" data-name="Path 1245330" d="M56.329,17.385a19.711,19.711,0,0,1-7.034,8.209l-2.359,1.333a18.867,18.867,0,0,1-8.148,1.859,18.228,18.228,0,0,1-2.912-.228l-2.842-.7A22.942,22.942,0,0,1,23,20.894a1.759,1.759,0,0,0,1.754-1.754V16.508H49.312A3.508,3.508,0,0,0,52.821,13a4.743,4.743,0,0,1,2.351,1.973,11.064,11.064,0,0,1,1.158,2.412Z" transform="translate(-2.683 -1.332)" fill="#ebe5dd"/>
      <path id="Path_1245331" data-name="Path 1245331" d="M56.329,17.385a19.711,19.711,0,0,1-7.034,8.209l-2.359,1.333a18.867,18.867,0,0,1-8.148,1.859,18.228,18.228,0,0,1-2.912-.228l-2.842-.7A22.942,22.942,0,0,1,23,20.894a.664.664,0,0,0,.132-.009,21.966,21.966,0,0,0,6.394,3.464l2.842.7a18.228,18.228,0,0,0,2.912.228,18.867,18.867,0,0,0,8.148-1.859l2.359-1.333a19.711,19.711,0,0,0,7.034-8.209,1.292,1.292,0,0,0-.061-.228A3.193,3.193,0,0,0,52.821,13a4.743,4.743,0,0,1,2.351,1.973,11.064,11.064,0,0,1,1.158,2.412Z" transform="translate(-2.683 -1.332)" fill="#c0ab91"/>
      <path id="Path_1245332" data-name="Path 1245332" d="M56.157,10.859a5.183,5.183,0,0,1,.228,1.526,3.508,3.508,0,0,1-3.508,3.508H52V8c1.982.325,3.587.974,4.157,2.859Z" transform="translate(-6.248 -0.718)" fill="#957856"/>
      <path id="Path_1245333" data-name="Path 1245333" d="M52.368,26.7l1.772,3.193H50.631l-.623-1.859L48,22h1.754Z" transform="translate(-5.756 -2.439)" fill="#c0ab91"/>
      <path id="Path_1245334" data-name="Path 1245334" d="M53.894,31l-4.385,8.771L46,38.017,50.385,31Z" transform="translate(-5.51 -3.545)" fill="#a78966"/>
      <path id="Path_1245335" data-name="Path 1245335" d="M52.911,44.157a1.391,1.391,0,0,1-1.7,2.175l-3.456-2.07L46,39l3.508,1.754Z" transform="translate(-5.51 -4.528)" fill="#c0ab91"/>
      <path id="Path_1245336" data-name="Path 1245336" d="M51.14,7.754v7.894H45V6.877A5.286,5.286,0,0,1,47.631,6h1.754A1.759,1.759,0,0,1,51.14,7.754Z" transform="translate(-5.387 -0.472)" fill="#b39a7c"/>
      <path id="Path_1245337" data-name="Path 1245337" d="M44.14,6.631V15.4H38V5.754C38.824,5.21,39.57,4,40.631,4h1.754A1.759,1.759,0,0,1,44.14,5.754Z" transform="translate(-4.527 -0.226)" fill="#957856"/>
      <path id="Path_1245338" data-name="Path 1245338" d="M36.894,5.754V15.4h-6.14V8.385A1.759,1.759,0,0,0,29,6.631,4.982,4.982,0,0,1,33.385,4H35.14A1.754,1.754,0,0,1,36.894,5.754Z" transform="translate(-3.421 -0.226)" fill="#b39a7c"/>
      <path id="Path_1245339" data-name="Path 1245339" d="M37.228,30.157l.281,1.982H34l.386-2.684L34.877,26h1.754Z" transform="translate(-4.035 -2.93)" fill="#c0ab91"/>
      <path id="Path_1245340" data-name="Path 1245340" d="M36.894,33l-4.385,8.771L29,40.017,33.385,33Z" transform="translate(-3.421 -3.791)" fill="#a78966"/>
      <path id="Path_1245341" data-name="Path 1245341" d="M35.911,46.157a1.391,1.391,0,0,1-1.7,2.175l-3.456-2.07L29,41l3.508,1.754Z" transform="translate(-3.421 -4.774)" fill="#c0ab91"/>
      <path id="Path_1245342" data-name="Path 1245342" d="M29.782,8.754v7.017H24.519V11.385H21.09A5.254,5.254,0,0,1,26.274,7h1.754A1.759,1.759,0,0,1,29.782,8.754Z" transform="translate(-2.449 -0.595)" fill="#957856"/>
      <path id="Path_1245343" data-name="Path 1245343" d="M20.508,26l4.385,7.017-3.508,1.754L17,26Z" transform="translate(-1.946 -2.93)" fill="#a78966"/>
      <path id="Path_1245344" data-name="Path 1245344" d="M24.975,34l-1.754,5.262-3.456,2.07a1.392,1.392,0,0,1-1.7-2.175l3.4-3.4Z" transform="translate(-2.027 -3.914)" fill="#c0ab91"/>
      <path id="Path_1245345" data-name="Path 1245345" d="M23.771,16.385v2.631a1.759,1.759,0,0,1-1.754,1.754H19.763l-.377-2.631H17.631l-.377,2.631H15V17.262A5.262,5.262,0,0,1,20.262,12h3.508Z" transform="translate(-1.7 -1.21)" fill="#a78966"/>
      <path id="Path_1245346" data-name="Path 1245346" d="M20.008,21.631l.5,3.508H17l.5-3.508L17.877,19h1.754Z" transform="translate(-1.946 -2.07)" fill="#c0ab91"/>
      <path id="Path_1245347" data-name="Path 1245347" d="M14.017,17.508v1.754a1.759,1.759,0,0,1-1.754,1.754H8.754a1.666,1.666,0,0,1-.553-.1A1.738,1.738,0,0,1,7,19.262a5.23,5.23,0,0,1,2.377-4.394A5.156,5.156,0,0,1,12.262,14h1.754Z" transform="translate(-0.717 -1.455)" fill="#ebe5dd"/>
      <path id="Path_1245348" data-name="Path 1245348" d="M10,17h1.754v1.754H10Z" transform="translate(-1.085 -1.824)"/>
      <path id="Path_1245349" data-name="Path 1245349" d="M54.444,16.421a.9.9,0,0,0,.079-.368,10.851,10.851,0,0,0-1.281-2.868,5.569,5.569,0,0,0-2.272-2.1,6.169,6.169,0,0,0-.219-1.2c-.675-2.228-2.526-3-4.245-3.359A2.623,2.623,0,0,0,44,4.651H42.244a4.988,4.988,0,0,0-1.807.368A2.631,2.631,0,0,0,37.858,2.9H36.1a3.333,3.333,0,0,0-2.245,1.131A2.637,2.637,0,0,0,31.719,2.9H29.965a5.793,5.793,0,0,0-4.859,2.631H23.825a6.1,6.1,0,0,0-5.885,4.42,6.14,6.14,0,0,0-3.973,2.044.862.862,0,0,0-.667-.325H11.546a6.233,6.233,0,0,0-2.43.5,5.277,5.277,0,0,1-.21-2.149,6.56,6.56,0,0,1,6.21-5.368L14.993,2.9A8.231,8.231,0,0,0,7.169,9.808a6.929,6.929,0,0,0,.43,3.307A6.14,6.14,0,0,0,6.573,14.22,6.014,6.014,0,0,1,4.485,11.4,6.911,6.911,0,0,1,7.643,3.633L6.678,2.16a8.684,8.684,0,0,0-3.859,9.788A7.709,7.709,0,0,0,5.757,15.79a5.911,5.911,0,0,0-.351,2.017,2.573,2.573,0,0,0,.158.86L3.108,20.631a.676.676,0,0,0-.184.2L1.17,23.464l1.456.965L4.31,21.912l1.956-1.561L5.45,22.789a1.039,1.039,0,0,0-.044.281v6.14H7.16v-6l.921-2.772h3.464a2.585,2.585,0,0,0,1.131-.263.877.877,0,0,0,.623.263h1.245l-.36,2.508a.864.864,0,0,0,.105.509l-.018.009,4.1,8.2-2.947,2.956a2.275,2.275,0,0,0-.631,2.017l-1.623.693a7.017,7.017,0,0,0-4.254,6.455v.421a5.2,5.2,0,0,1-1.544,3.719l-.833.833L7.783,50l.833-.833a6.972,6.972,0,0,0,2.052-4.964v-.421a5.262,5.262,0,0,1,3.193-4.841l1.912-.824a2.308,2.308,0,0,0,1.254.377,2.28,2.28,0,0,0,1.167-.325l3.447-2.07a.925.925,0,0,0,.386-.474l1.754-5.262-.009-.009a.046.046,0,0,0,.018-.035.86.86,0,0,0-.1-.7L19.4,22.763l-.333-2.324h.842a23.9,23.9,0,0,0,9.464,6.648L29.123,28.9l-4.289,6.859a.86.86,0,0,0-.1.7.046.046,0,0,0,.018.035l-.009.009L26.5,41.769a.925.925,0,0,0,.386.474l3.447,2.07a2.28,2.28,0,0,0,1.167.325,2.314,2.314,0,0,0,.965-.219,2.243,2.243,0,0,1-.43,2.973,4.009,4.009,0,0,0-.272,5.912l1.965,1.965,1.245-1.245-1.965-1.965a2.244,2.244,0,0,1,.149-3.315A4.029,4.029,0,0,0,34.6,45.847,3.97,3.97,0,0,0,33.64,43.1,2.267,2.267,0,0,0,33.1,40.76L30.158,37.8l4.1-8.2-.018-.009a.864.864,0,0,0,.105-.509l-.123-.851c.623.053,1.245.1,1.886.1a19.856,19.856,0,0,0,7.622-1.544l.184.553-4.166,6.666a.86.86,0,0,0-.1.7.046.046,0,0,0,.018.035l-.009.009,1.754,5.262a.925.925,0,0,0,.386.474l3.447,2.07a2.28,2.28,0,0,0,1.167.325,2.252,2.252,0,0,0,1.009-.246l.018.026a1.785,1.785,0,0,1,.535,1.359,1.816,1.816,0,0,1-.649,1.307,3.546,3.546,0,0,0,.553,5.841l4.464,2.482.86-1.526-4.473-2.491a1.805,1.805,0,0,1-.281-2.965,3.571,3.571,0,0,0,.237-5.254l-.114-.114a2.28,2.28,0,0,0-.553-2.3L45.068,36.05l4.1-8.2v-.009a.867.867,0,0,0-.018-.816l-1.386-2.5a20.6,20.6,0,0,0,6.683-8.1ZM12.423,17.807a.877.877,0,0,1-.877.877H8.038a.877.877,0,0,1-.877-.877,4.385,4.385,0,0,1,4.385-4.385h.877ZM46.629,8.37A3,3,0,0,1,49.076,10.4a4.416,4.416,0,0,1,.184,1.272A2.639,2.639,0,0,1,46.629,14.3ZM40.49,6.923a3.892,3.892,0,0,1,1.754-.517H44a.877.877,0,0,1,.877.877V14.3H40.49Zm-6.14-.965c.184-.158.36-.316.535-.482.421-.4.86-.824,1.219-.824h1.754a.877.877,0,0,1,.877.877V14.3H34.35ZM29.965,4.651h1.754a.89.89,0,0,1,.877.877V14.3H28.21V8.159A2.617,2.617,0,0,0,27,5.949,3.947,3.947,0,0,1,29.965,4.651Zm-6.14,2.631h1.754a.877.877,0,0,1,.877.877V14.3H22.948V10.79a.877.877,0,0,0-.877-.877H19.826a4.332,4.332,0,0,1,4-2.631ZM20.466,34.761l-3.175,1.9a.517.517,0,0,1-.631-.07.526.526,0,0,1,0-.737l3.3-3.3,1.491-.746Zm1.228-5.026-1.859.93-3.359-6.718H18.08Zm-5.631-7.543.631-4.385h.228l.631,4.385Zm5.131-4.385a.877.877,0,0,1-.877.877H18.826l-.272-1.877a.877.877,0,0,0-.868-.754H15.931a.877.877,0,0,0-.868.754l-.272,1.877h-.614V16.053a4.385,4.385,0,0,1,4.385-4.385h2.631ZM31.868,42a.526.526,0,0,1,0,.737.5.5,0,0,1-.632.07l-3.175-1.9-.982-2.947,1.491.746ZM28.693,36.8l-1.859-.93,3.614-5.789h1.605Zm2.28-8.473.632-4.385h.228l.632,4.385Zm12.49-7.894,3.429,6.14H45.507Zm3.315,19.8a.526.526,0,0,1,0,.737.517.517,0,0,1-.632.07l-3.175-1.9L41.989,36.2l1.491.746ZM43.6,35.051l-1.859-.93,3.614-5.789h1.605Zm3.3-12.069-2.14-3.85A.877.877,0,0,0,44,18.684H42.244a.862.862,0,0,0-.71.368.877.877,0,0,0-.123.789l1.763,5.271A18.093,18.093,0,0,1,36.1,26.578a17.086,17.086,0,0,1-2.14-.14l-.5-3.491a.877.877,0,0,0-.868-.754H30.842a.877.877,0,0,0-.868.754l-.342,2.386a22.243,22.243,0,0,1-7.806-5.377,2.631,2.631,0,0,0,1.123-2.149V16.053H46.629a4.385,4.385,0,0,0,4.149-3.026,3.608,3.608,0,0,1,.956,1.07,14.619,14.619,0,0,1,.974,1.894A18.876,18.876,0,0,1,46.9,22.982Z"/>
      <path id="Path_1245350" data-name="Path 1245350" d="M27,9h1.754v1.754H27Z" transform="translate(-3.175 -0.841)"/>
      <path id="Path_1245351" data-name="Path 1245351" d="M34,6h1.754V7.754H34Z" transform="translate(-4.035 -0.472)"/>
      <path id="Path_1245352" data-name="Path 1245352" d="M41,6h1.754V7.754H41Z" transform="translate(-4.896 -0.472)"/>
      <path id="Path_1245353" data-name="Path 1245353" d="M48,8h1.754V9.754H48Z" transform="translate(-5.756 -0.718)"/>
    </g>
  </g>
</svg>
