<svg xmlns="http://www.w3.org/2000/svg" width="98" height="97.999" viewBox="0 0 98 97.999">
  <g id="Group_1204804" data-name="Group 1204804" transform="translate(-6193.782 8148.158)">
    <g id="Group_1204600" data-name="Group 1204600" transform="translate(5391.001 -10686.174)">
      <g id="Group_1204237" data-name="Group 1204237" transform="translate(-1 566)">
        <g id="Group_1204143" data-name="Group 1204143" transform="translate(-67.331 1694.852)">
          <g id="Group_1188789" data-name="Group 1188789" transform="translate(871.113 277.164)">
            <path id="Path_1243039" data-name="Path 1243039" d="M41.05,0h0a41.05,41.05,0,0,1,0,82.1h0a41.05,41.05,0,0,1,0-82.1Z" transform="translate(7.951 7.949)" fill="#ffc94a"/>
            <rect id="Rectangle_400907" data-name="Rectangle 400907" width="88.438" height="88.437" rx="44.218" transform="translate(4.782 4.781)" fill="none"/>
            <g id="Group_1098742" data-name="Group 1098742" transform="translate(0)">
              <g id="Rectangle_400898" data-name="Rectangle 400898" transform="translate(0)" fill="none" stroke="#fff" stroke-width="2" opacity="0.859">
                <rect width="98" height="97.999" rx="48.999" stroke="none"/>
                <rect x="1" y="1" width="96" height="95.999" rx="47.999" fill="none"/>
              </g>
              <g id="Rectangle_400907-2" data-name="Rectangle 400907" transform="translate(0)" fill="none" stroke="#0f1f33" stroke-linecap="round" stroke-width="2">
                <rect width="98" height="97.999" rx="48.999" stroke="none"/>
                <rect x="1" y="1" width="96" height="95.999" rx="47.999" fill="none"/>
              </g>
            </g>
          </g>
        </g>
      </g>
    </g>
    <g id="roedores" transform="translate(6202.147 -8142.137)">
      <g id="Group_1204803" data-name="Group 1204803" transform="translate(9.538 38.742)">
        <path id="Path_1245354" data-name="Path 1245354" d="M123.167,280.771a4.554,4.554,0,0,1,4.541,4.541v8.209h-9.082v-8.209A4.555,4.555,0,0,1,123.167,280.771Z" transform="translate(-106.656 -279.844)" fill="#424852" fill-rule="evenodd"/>
        <path id="Path_1245355" data-name="Path 1245355" d="M127.373,305.856a4.5,4.5,0,0,1,.337,1.711v8.209h-9.082v-3.659Z" transform="translate(-106.656 -302.099)" fill="#424852" fill-rule="evenodd"/>
        <path id="Path_1245356" data-name="Path 1245356" d="M15.907,298.162H51.695c4.459,0,9.459-6,9.459-10.457,0-11.607-12.356-20.577-25.308-11.305L14.317,291.813a3.593,3.593,0,0,0-1.683,3.8,3.339,3.339,0,0,0,3.273,2.554Z" transform="translate(-12.538 -272.556)" fill="#636c77" fill-rule="evenodd"/>
        <path id="Path_1245357" data-name="Path 1245357" d="M80.276,433.284a1.65,1.65,0,1,0-1.65-1.65A1.653,1.653,0,0,0,80.276,433.284Z" transform="translate(-71.169 -412.221)" fill="#e4e8eb" fill-rule="evenodd"/>
        <path id="Path_1245358" data-name="Path 1245358" d="M78.625,322.78l9.082-2.644v-4.824a4.541,4.541,0,0,0-9.082,0v7.467Z" transform="translate(-71.168 -306.46)" fill="#636c77" fill-rule="evenodd"/>
      </g>
      <path id="Path_1245359" data-name="Path 1245359" d="M49.074,63.164H39.437a.988.988,0,0,1,0-1.977h8.856a.79.79,0,1,0,0-1.58,4.37,4.37,0,0,1,0-8.74.79.79,0,1,0,0-1.58,5.947,5.947,0,0,0-4.035,10.32H39.437a2.571,2.571,0,0,0-2.368,3.556h-13.4a.988.988,0,1,1,0-1.977h3.207a.79.79,0,1,0,0-1.58H23.668a2.571,2.571,0,0,0-2.373,3.556H13.288a2.437,2.437,0,0,1-2.432-1.672,2.888,2.888,0,0,1,1.3-3.245l5.676-4.065a.789.789,0,0,0,.329-.642V47.2a3.751,3.751,0,0,1,7.5,0v4.825a.791.791,0,0,0,1.582,0V47.444l6.44-4.609c5.527-3.957,11.522-4.774,16.454-2.241a14.328,14.328,0,0,1,7.6,12.9C57.744,57.4,53.178,63.164,49.074,63.164Zm-22.645-23.1a3.751,3.751,0,0,0-3.287,1.949,5.336,5.336,0,0,1,3.876,3.65l3.138-2.247a3.753,3.753,0,0,0-3.727-3.351ZM61.62,33.871c-1.826-3.322-3.717-6.758-3.844-10.591-.149-4.351,2.081-8.571,6.828-12.9A.791.791,0,1,0,63.537,9.21c-11.5,10.506-6.955,18.777-3.3,25.422,1.566,2.85,3.048,5.543,3.048,8,0,5.135-2.8,7.142-4.232,7.835a16.51,16.51,0,0,0-2.039-5.46,15.368,15.368,0,0,0-6.148-5.821c-5.474-2.814-12.074-1.953-18.1,2.362l-1.195.855a5.329,5.329,0,0,0-10.109-.516,5.339,5.339,0,0,0-4.874,5.31v5.934l-5.347,3.828a4.481,4.481,0,0,0-1.885,5.012,4.02,4.02,0,0,0,3.934,2.769H49.074c5.087,0,10.247-6.543,10.247-11.246,0-.469-.021-.937-.058-1.4a8.51,8.51,0,0,0,2.511-1.6,10.162,10.162,0,0,0,3.085-7.86c0-2.866-1.572-5.731-3.239-8.764Zm-42.6,24.75a.86.86,0,1,0-.86-.861A.859.859,0,0,0,19.022,58.621Zm0-3.3a2.44,2.44,0,1,0,2.442,2.44A2.442,2.442,0,0,0,19.022,55.321Z" fill-rule="evenodd"/>
    </g>
  </g>
</svg>
