<svg xmlns="http://www.w3.org/2000/svg" width="98" height="97.999" viewBox="0 0 98 97.999">
  <g id="Group_1204801" data-name="Group 1204801" transform="translate(-803.051 -3457)">
    <g id="Group_1204593" data-name="Group 1204593" transform="translate(0.27 918.984)">
      <g id="Group_1204237" data-name="Group 1204237" transform="translate(-1 566)">
        <g id="Group_1204143" data-name="Group 1204143" transform="translate(-67.331 1694.852)">
          <g id="Group_1188789" data-name="Group 1188789" transform="translate(871.113 277.164)">
            <path id="Path_1243039" data-name="Path 1243039" d="M41.05,0h0a41.05,41.05,0,0,1,0,82.1h0a41.05,41.05,0,0,1,0-82.1Z" transform="translate(7.951 7.949)" fill="#ffc94a"/>
            <rect id="Rectangle_400907" data-name="Rectangle 400907" width="88.438" height="88.437" rx="44.218" transform="translate(4.782 4.781)" fill="none"/>
            <g id="Group_1098742" data-name="Group 1098742" transform="translate(0)">
              <g id="Rectangle_400898" data-name="Rectangle 400898" transform="translate(0)" fill="none" stroke="#fff" stroke-width="2" opacity="0.859">
                <rect width="98" height="97.999" rx="48.999" stroke="none"/>
                <rect x="1" y="1" width="96" height="95.999" rx="47.999" fill="none"/>
              </g>
              <g id="Rectangle_400907-2" data-name="Rectangle 400907" transform="translate(0)" fill="none" stroke="#0f1f33" stroke-linecap="round" stroke-width="2">
                <rect width="98" height="97.999" rx="48.999" stroke="none"/>
                <rect x="1" y="1" width="96" height="95.999" rx="47.999" fill="none"/>
              </g>
            </g>
          </g>
        </g>
      </g>
    </g>
    <g id="Layer_14" data-name="Layer 14" transform="translate(823.057 3477.809)">
      <rect id="Rectangle_411430" data-name="Rectangle 411430" width="9.873" height="15.795" rx="4.936" transform="matrix(0.96, 0.278, -0.278, 0.96, 14.757, 3.191)" fill="#333"/>
      <path id="Path_1245315" data-name="Path 1245315" d="M17.519,20.894a5.931,5.931,0,0,1-1.614-.232,5.842,5.842,0,0,1-3.933-7.242l1.605-5.69a5.827,5.827,0,1,1,11.193,3.246l-1.65,5.69a5.842,5.842,0,0,1-5.6,4.227ZM16.43,18.923a4.04,4.04,0,0,0,5.012-2.756l1.65-5.69a4.06,4.06,0,1,0-7.8-2.247l-1.65,5.69a4.04,4.04,0,0,0,2.792,5Z" transform="translate(-1.053 -0.036)" fill="#011126"/>
      <path id="Path_1245316" data-name="Path 1245316" d="M21.271,13.049a9.257,9.257,0,0,1-6.484-2.676.892.892,0,0,1,1.24-1.284,7.518,7.518,0,0,0,3.148,1.828,7.59,7.59,0,0,0,3.639.143.892.892,0,0,1,.366,1.739,9.293,9.293,0,0,1-1.909.25Z" transform="translate(-1.354 -0.611)" fill="#011126"/>
      <rect id="Rectangle_411431" data-name="Rectangle 411431" width="9.873" height="15.795" rx="4.936" transform="translate(30.52 17.143) rotate(-26.309)" fill="#333"/>
      <path id="Path_1245317" data-name="Path 1245317" d="M43.344,31.769a5.833,5.833,0,0,1-5.235-3.237L35.487,23.18A5.825,5.825,0,0,1,45.93,18.017l2.631,5.307a5.911,5.911,0,0,1-5.217,8.446ZM40.668,16.607a3.969,3.969,0,0,0-1.784.419,4.049,4.049,0,0,0-1.837,5.414l2.622,5.351a4.048,4.048,0,0,0,7.26-3.585L44.254,18.9a4.049,4.049,0,0,0-3.55-2.31Z" transform="translate(-3.557 -1.252)" fill="#011126"/>
      <path id="Path_1245318" data-name="Path 1245318" d="M38.078,24.658H37.8a.892.892,0,1,1,0-1.784,7.652,7.652,0,0,0,3.567-.776,7.492,7.492,0,0,0,2.774-2.354.92.92,0,1,1,1.489,1.079,9.249,9.249,0,0,1-7.554,3.871Z" transform="translate(-3.776 -1.749)" fill="#011126"/>
      <path id="Path_1245319" data-name="Path 1245319" d="M52.207,19.277c-2.328-.517-5.744,0-6.421,1.971s1.712,4.459,3.862,5.494c3.113,1.48,7.581.713,8.285-1.329S55.561,20.017,52.207,19.277Z" transform="translate(-4.723 -1.719)" fill="#bfbfbf"/>
      <path id="Path_1245320" data-name="Path 1245320" d="M32.73,28.784c1-2.158,3.5-4.557,5.458-3.9s2.524,4.067,2.033,6.395c-.713,3.371-4.049,6.457-6.091,5.779S31.277,31.905,32.73,28.784Z" transform="translate(-3.244 -2.334)" fill="#bfbfbf"/>
      <path id="Path_1245321" data-name="Path 1245321" d="M29.083,15.979c-1.373-1.944-4.245-3.871-6.074-2.872s-1.784,4.459-.892,6.653c1.3,3.193,5.119,5.645,7.01,4.611S31.063,18.8,29.083,15.979Z" transform="translate(-2.111 -1.043)" fill="#bfbfbf"/>
      <path id="Path_1245322" data-name="Path 1245322" d="M7.8,10.024c2.2-.892,5.663-1,6.671.812s-.892,4.709-2.827,6.091c-2.809,2.007-7.349,2.025-8.392.143S4.624,11.344,7.8,10.024Z" transform="translate(-0.109 -0.671)" fill="#bfbfbf"/>
      <g id="Group_1204800" data-name="Group 1204800" transform="translate(1.994 7.818)">
        <path id="Path_1245323" data-name="Path 1245323" d="M53.168,28.293a9.463,9.463,0,0,1-4.022-.892c-2.372-1.115-5.191-4.031-4.325-6.582.517-1.5,2.239-2.506,4.593-2.72a.9.9,0,1,1,.161,1.784c-1.6.134-2.792.731-3.059,1.516-.455,1.329,1.489,3.487,3.4,4.4a7.768,7.768,0,0,0,5.824.214,2.051,2.051,0,0,0,1.231-1.035,2.577,2.577,0,0,0-.7-2.114.892.892,0,1,1,1.427-1.07,4.174,4.174,0,0,1,.972,3.764,3.755,3.755,0,0,1-2.23,2.1,8.606,8.606,0,0,1-3.264.633Z" transform="translate(-6.608 -9.43)" fill="#011126"/>
        <path id="Path_1245324" data-name="Path 1245324" d="M54.791,20.74a.892.892,0,0,1-.419-.107,5.235,5.235,0,0,0-.7-.294.9.9,0,1,1,.589-1.695,6.689,6.689,0,0,1,.954.419.892.892,0,0,1-.419,1.677Z" transform="translate(-7.517 -9.484)" fill="#011126"/>
        <path id="Path_1245325" data-name="Path 1245325" d="M34.638,37.93a2.765,2.765,0,0,1-.892-.143,3.666,3.666,0,0,1-2.123-2.221,9.561,9.561,0,0,1,.187-7.286c1.061-2.292,3.888-5.271,6.555-4.37s3.139,4.959,2.613,7.429a9.605,9.605,0,0,1-4.227,5.94,4.317,4.317,0,0,1-2.114.651Zm-1.213-8.919a7.759,7.759,0,0,0-.161,5.833A2.06,2.06,0,0,0,34.3,36.1a2.123,2.123,0,0,0,1.57-.348,7.777,7.777,0,0,0,3.371-4.763c.437-2.069-.107-4.932-1.436-5.351s-3.487,1.516-4.379,3.434Z" transform="translate(-5.13 -10.041)" fill="#011126"/>
        <path id="Path_1245326" data-name="Path 1245326" d="M56.541,57.741a2.39,2.39,0,0,1-2.1-1.266l-.455-.892a2.381,2.381,0,0,1,.972-3.193l.892-.428a.606.606,0,0,0,.25-.8l-.464-.892a.589.589,0,0,0-.794-.241l-.892.455a2.363,2.363,0,0,1-3.2-.99L50.28,48.6a2.381,2.381,0,0,1,.99-3.2l.892-.464a.589.589,0,0,0,.25-.794l-.464-.892a.553.553,0,0,0-.348-.285.6.6,0,0,0-.446,0l-.892.464a2.363,2.363,0,0,1-3.2-.99l-.464-.892a2.372,2.372,0,0,1,1-3.211.589.589,0,0,0,.241-.794L47.15,36.23a.892.892,0,0,1,1.561-.749l.722,1.32a2.381,2.381,0,0,1-.99,3.2.579.579,0,0,0-.25.794l.464.892a.58.58,0,0,0,.794.25l.892-.464a2.363,2.363,0,0,1,1.784-.161,2.337,2.337,0,0,1,1.391,1.159l.464.892a2.372,2.372,0,0,1-.99,3.157l-.892.464a.58.58,0,0,0-.25.794l.455.892a.606.606,0,0,0,.348.285.615.615,0,0,0,.455,0L54,48.493a2.381,2.381,0,0,1,3.2.99l.464.892a2.39,2.39,0,0,1-1,3.211l-.892.455a.589.589,0,0,0-.241.8l.455.892a.6.6,0,0,0,.8.241l2.176-1.15a.894.894,0,1,1,.838,1.579l-2.176,1.061a2.363,2.363,0,0,1-1.088.276Z" transform="translate(-6.788 -11.275)" fill="#011126"/>
        <path id="Path_1245327" data-name="Path 1245327" d="M28.022,25.362a4.655,4.655,0,0,1-1.587-.3,9.623,9.623,0,0,1-5.226-5.048c-.945-2.346-1.2-6.43,1.266-7.777,1.935-1.061,4.566.268,6.305,2.042A.9.9,0,1,1,27.5,15.552c-1.2-1.311-3.113-2.346-4.165-1.784-1.231.669-1.258,3.567-.464,5.53a7.777,7.777,0,0,0,4.165,4.1,2.016,2.016,0,0,0,1.587.062c.892-.491,1.338-2.854.526-5.262a.894.894,0,1,1,1.695-.571c.892,2.774.669,6.3-1.365,7.4a3.023,3.023,0,0,1-1.454.33Z" transform="translate(-3.999 -8.755)" fill="#011126"/>
        <path id="Path_1245328" data-name="Path 1245328" d="M6.557,19.234a7.527,7.527,0,0,1-1.641-.169A3.737,3.737,0,0,1,2.356,17.4a3.755,3.755,0,0,1-.071-3.059A9.605,9.605,0,0,1,7.35,9.084c2.328-.963,6.421-1.258,7.786,1.2s-1.035,5.779-3.086,7.251a9.81,9.81,0,0,1-5.494,1.695Zm4.361-9.061a7.8,7.8,0,0,0-2.881.544A7.8,7.8,0,0,0,3.97,14.908a2.069,2.069,0,0,0-.054,1.6,2.069,2.069,0,0,0,1.391.8,7.723,7.723,0,0,0,5.7-1.24c1.695-1.213,3.255-3.683,2.586-4.914a3.056,3.056,0,0,0-2.676-.981Z" transform="translate(-1.994 -8.379)" fill="#011126"/>
        <path id="Path_1245329" data-name="Path 1245329" d="M9.248,48.409a.7.7,0,0,1-.232,0l-2.381-.624a2.381,2.381,0,0,1-1.454-1.1A2.354,2.354,0,0,1,4.941,44.9l.25-.954a2.381,2.381,0,0,1,2.9-1.695l.954.259a.606.606,0,0,0,.446-.062.589.589,0,0,0,.268-.366l.25-.954a.589.589,0,0,0-.419-.722L8.633,40.1a2.372,2.372,0,0,1-1.445-1.106,2.337,2.337,0,0,1-.25-1.784l.25-.954a2.381,2.381,0,0,1,2.9-1.695l.954.25a.589.589,0,0,0,.722-.419l.25-.954a.589.589,0,0,0-.419-.722l-.954-.25a2.381,2.381,0,0,1-1.695-2.9l.25-.954a2.381,2.381,0,0,1,2.925-1.686.606.606,0,0,0,.446-.062.571.571,0,0,0,.268-.357l.375-1.436a.894.894,0,0,1,1.73.455l-.375,1.436a2.381,2.381,0,0,1-2.9,1.695.58.58,0,0,0-.722.419l-.25.954a.589.589,0,0,0,.419.713l.954.25a2.372,2.372,0,0,1,1.668,2.863l-.25.954a2.381,2.381,0,0,1-2.9,1.721l-.954-.25a.589.589,0,0,0-.713.419l-.25.954a.615.615,0,0,0,.054.455.589.589,0,0,0,.366.268l.954.25a2.381,2.381,0,0,1,1.695,2.9l-.25.954a2.381,2.381,0,0,1-2.934,1.7l-.892-.25a.6.6,0,0,0-.722.419l-.25.954a.6.6,0,0,0,.062.446.58.58,0,0,0,.357.276l2.39.624a.894.894,0,0,1-.25,1.757Z" transform="translate(-2.304 -10.112)" fill="#011126"/>
      </g>
    </g>
  </g>
</svg>
