<svg xmlns="http://www.w3.org/2000/svg" width="98" height="97.999" viewBox="0 0 98 97.999">
  <g id="Group_1204849" data-name="Group 1204849" transform="translate(-6557 3360.25)">
    <g id="Group_1204616" data-name="Group 1204616" transform="translate(5754.219 -5898.266)">
      <g id="Group_1204237" data-name="Group 1204237" transform="translate(-1 566)">
        <g id="Group_1204143" data-name="Group 1204143" transform="translate(-67.331 1694.852)">
          <g id="Group_1188789" data-name="Group 1188789" transform="translate(871.113 277.164)">
            <path id="Path_1243039" data-name="Path 1243039" d="M41.05,0h0a41.05,41.05,0,0,1,0,82.1h0a41.05,41.05,0,0,1,0-82.1Z" transform="translate(7.951 7.949)" fill="#ffc94a"/>
            <rect id="Rectangle_400907" data-name="Rectangle 400907" width="88.438" height="88.437" rx="44.218" transform="translate(4.782 4.781)" fill="none"/>
            <g id="Group_1098742" data-name="Group 1098742" transform="translate(0)">
              <g id="Rectangle_400898" data-name="Rectangle 400898" transform="translate(0)" fill="none" stroke="#fff" stroke-width="2" opacity="0.859">
                <rect width="98" height="97.999" rx="48.999" stroke="none"/>
                <rect x="1" y="1" width="96" height="95.999" rx="47.999" fill="none"/>
              </g>
              <g id="Rectangle_400907-2" data-name="Rectangle 400907" transform="translate(0)" fill="none" stroke="#0f1f33" stroke-linecap="round" stroke-width="2">
                <rect width="98" height="97.999" rx="48.999" stroke="none"/>
                <rect x="1" y="1" width="96" height="95.999" rx="47.999" fill="none"/>
              </g>
            </g>
          </g>
        </g>
      </g>
    </g>
    <g id="botella" transform="translate(6577 -3341)">
      <path id="Path_1245519" data-name="Path 1245519" d="M30.24,9A3.613,3.613,0,0,1,27,7H17s-6,6-6,20V54a5,5,0,0,0,5,5H44a5,5,0,0,0,5-5V27.76A18.761,18.761,0,0,0,30.241,9ZM41.85,24.88a38.669,38.669,0,0,1-8.61-1.66A4.731,4.731,0,0,1,34.65,14a4.507,4.507,0,0,1,2.05.49,15.122,15.122,0,0,1,7.14,7.61,2.01,2.01,0,0,1-1.99,2.78Z" fill="#f44335"/>
      <path id="Path_1245520" data-name="Path 1245520" d="M30.24,9A3.613,3.613,0,0,1,27,7H24a3.613,3.613,0,0,0,3.24,2A18.761,18.761,0,0,1,46,27.759V54a5,5,0,0,1-5,5h3a5,5,0,0,0,5-5V27.76A18.761,18.761,0,0,0,30.241,9Z" fill="#c81e1e"/>
      <path id="Path_1245521" data-name="Path 1245521" d="M11,30H49V52H11Z" fill="#ff9801"/>
      <path id="Path_1245522" data-name="Path 1245522" d="M46,30h3V52H46Z" fill="#f57c00"/>
      <g id="Group_1204848" data-name="Group 1204848">
        <path id="Path_1245523" data-name="Path 1245523" d="M20.19,35.409l.849,1.552,1.552.849a.787.787,0,0,1,0,1.38l-1.552.849-.849,1.552a.787.787,0,0,1-1.38,0l-.849-1.552-1.552-.849a.787.787,0,0,1,0-1.38l1.552-.849.849-1.552a.787.787,0,0,1,1.38,0Z" fill="#ffdf00"/>
        <path id="Path_1245524" data-name="Path 1245524" d="M31.19,40.409l.849,1.552,1.552.849a.787.787,0,0,1,0,1.38l-1.552.849-.849,1.552a.787.787,0,0,1-1.38,0l-.849-1.552-1.552-.849a.787.787,0,0,1,0-1.38l1.552-.849.849-1.552a.787.787,0,0,1,1.38,0Z" fill="#ffdf00"/>
        <path id="Path_1245525" data-name="Path 1245525" d="M42.19,34.409l.849,1.552,1.552.849a.787.787,0,0,1,0,1.38l-1.552.849-.849,1.552a.787.787,0,0,1-1.38,0l-.849-1.552-1.552-.849a.787.787,0,0,1,0-1.38l1.552-.849.849-1.552a.787.787,0,0,1,1.38,0Z" fill="#ffdf00"/>
      </g>
      <rect id="Rectangle_411432" data-name="Rectangle 411432" width="12" height="6" rx="1" transform="translate(16 1)" fill="#607d8b"/>
      <path id="Path_1245526" data-name="Path 1245526" d="M27,1H24a1,1,0,0,1,1,1V6a1,1,0,0,1-1,1h3a1,1,0,0,0,1-1V2A1,1,0,0,0,27,1Z" fill="#37474f"/>
      <path id="Path_1245527" data-name="Path 1245527" d="M23.071,36.932l-1.3-.708-.708-1.295a1.789,1.789,0,0,0-3.136,0l-.708,1.295-1.3.708a1.789,1.789,0,0,0,0,3.136l1.3.708.708,1.295a1.789,1.789,0,0,0,3.136,0l.708-1.295,1.3-.708a1.789,1.789,0,0,0,0-3.136ZM19.5,40.769c-.953-1.743-.517-1.311-2.269-2.269,1.737-.95,1.313-.522,2.269-2.269.953,1.743.517,1.311,2.269,2.269C20.032,39.45,20.456,39.022,19.5,40.769Z"/>
      <path id="Path_1245528" data-name="Path 1245528" d="M34.071,41.932l-1.295-.708-.708-1.295a1.789,1.789,0,0,0-3.136,0l-.708,1.295-1.3.708a1.789,1.789,0,0,0,0,3.136l1.3.708.708,1.295a1.789,1.789,0,0,0,3.136,0l.708-1.295,1.295-.708a1.789,1.789,0,0,0,0-3.136ZM30.5,45.769c-.953-1.743-.517-1.311-2.269-2.269,1.737-.95,1.313-.522,2.269-2.269.953,1.743.517,1.311,2.269,2.269C31.032,44.45,31.456,44.022,30.5,45.769Z"/>
      <path id="Path_1245529" data-name="Path 1245529" d="M45.071,35.932l-1.295-.708-.708-1.295a1.789,1.789,0,0,0-3.136,0l-.708,1.295-1.295.708a1.789,1.789,0,0,0,0,3.136l1.295.708.708,1.295a1.789,1.789,0,0,0,3.136,0l.708-1.295,1.295-.708a1.789,1.789,0,0,0,0-3.136ZM41.5,39.769c-.953-1.743-.517-1.311-2.269-2.269,1.737-.95,1.313-.522,2.269-2.269.953,1.743.517,1.311,2.269,2.269C42.032,38.45,42.456,38.022,41.5,39.769Z"/>
      <path id="Path_1245530" data-name="Path 1245530" d="M10,54a6.006,6.006,0,0,0,6,6H44a6.006,6.006,0,0,0,6-6V27.764A19.786,19.786,0,0,0,30.236,8,2.587,2.587,0,0,1,28.5,7.312,1.983,1.983,0,0,0,29,6V2a2,2,0,0,0-2-2H17a2,2,0,0,0-2,2V6a1.977,1.977,0,0,0,.471,1.273C13.763,9.518,10,15.735,10,27Zm34,4H16a4,4,0,0,1-4-4V53H48v1A4,4,0,0,1,44,58ZM12,51V31H48V51ZM17,2H27V6H17Zm.45,6h8.982a4.588,4.588,0,0,0,3.8,2A17.784,17.784,0,0,1,48,27.764V29H12V27C12,15.306,16.335,9.341,17.45,8Z"/>
      <path id="Path_1245531" data-name="Path 1245531" d="M32.944,24.179a40.249,40.249,0,0,0,8.828,1.7,3.01,3.01,0,0,0,2.993-4.16,16.081,16.081,0,0,0-7.611-8.112,5.7,5.7,0,1,0-4.21,10.574Zm3.3-8.791a14.076,14.076,0,0,1,6.672,7.1,1.009,1.009,0,0,1-1,1.392,37.887,37.887,0,0,1-8.376-1.612,3.7,3.7,0,1,1,2.7-6.883Z"/>
    </g>
  </g>
</svg>
