<svg xmlns="http://www.w3.org/2000/svg" width="98" height="97.999" viewBox="0 0 98 97.999">
  <g id="Group_1204805" data-name="Group 1204805" transform="translate(-6510.782 8148.158)">
    <g id="Group_1204601" data-name="Group 1204601" transform="translate(5708.001 -10686.174)">
      <g id="Group_1204237" data-name="Group 1204237" transform="translate(-1 566)">
        <g id="Group_1204143" data-name="Group 1204143" transform="translate(-67.331 1694.852)">
          <g id="Group_1188789" data-name="Group 1188789" transform="translate(871.113 277.164)">
            <path id="Path_1243039" data-name="Path 1243039" d="M41.05,0h0a41.05,41.05,0,0,1,0,82.1h0a41.05,41.05,0,0,1,0-82.1Z" transform="translate(7.951 7.949)" fill="#ffc94a"/>
            <rect id="Rectangle_400907" data-name="Rectangle 400907" width="88.438" height="88.437" rx="44.218" transform="translate(4.782 4.781)" fill="none"/>
            <g id="Group_1098742" data-name="Group 1098742" transform="translate(0)">
              <g id="Rectangle_400898" data-name="Rectangle 400898" transform="translate(0)" fill="none" stroke="#fff" stroke-width="2" opacity="0.859">
                <rect width="98" height="97.999" rx="48.999" stroke="none"/>
                <rect x="1" y="1" width="96" height="95.999" rx="47.999" fill="none"/>
              </g>
              <g id="Rectangle_400907-2" data-name="Rectangle 400907" transform="translate(0)" fill="none" stroke="#0f1f33" stroke-linecap="round" stroke-width="2">
                <rect width="98" height="97.999" rx="48.999" stroke="none"/>
                <rect x="1" y="1" width="96" height="95.999" rx="47.999" fill="none"/>
              </g>
            </g>
          </g>
        </g>
      </g>
    </g>
    <g id="escarabajo" transform="translate(6522.951 -8125.508)">
      <path id="Path_1245360" data-name="Path 1245360" d="M130.182,219.616a18.528,18.528,0,0,1,3.463,10.9c0,9.668-7.1,17.5-15.858,17.5s-15.858-7.834-15.858-17.5a18.528,18.528,0,0,1,3.463-10.9" transform="translate(-80.956 -197.012)" fill="#454754"/>
      <path id="Path_1245361" data-name="Path 1245361" d="M117.678,248.017c-8.712-.065-15.749-7.874-15.749-17.5a18.526,18.526,0,0,1,3.464-10.9h5.773a30.718,30.718,0,0,0-1.85,10.9C109.315,240.109,113.047,247.9,117.678,248.017Z" transform="translate(-80.956 -197.011)" fill="#262b3b"/>
      <path id="Path_1245362" data-name="Path 1245362" d="M181.284,69.838a7.724,7.724,0,0,1,15.381,0" transform="translate(-152.143 -56.363)" fill="#454754"/>
      <path id="Path_1245363" data-name="Path 1245363" d="M188.974,62.832c-1.742,0-3.167,3.074-3.324,7.009h-4.366A7.717,7.717,0,0,1,188.974,62.832Z" transform="translate(-152.143 -56.366)" fill="#262b3b"/>
      <ellipse id="Ellipse_12464" data-name="Ellipse 12464" cx="14.156" cy="6.894" rx="14.156" ry="6.894" transform="translate(22.676 12.373)" fill="#454754"/>
      <path id="Path_1245364" data-name="Path 1245364" d="M132.627,134.005c-7.818,0-14.156-3.087-14.156-6.895s6.338-6.894,14.156-6.894c-4.42,0-8,3.087-8,6.894S128.206,134.005,132.627,134.005Z" transform="translate(-95.795 -107.844)" fill="#262b3b"/>
      <path id="Path_1245365" data-name="Path 1245365" d="M49.607,245.947a.783.783,0,0,0-1.094.166,14.585,14.585,0,0,1-10.9,6.126V231.2a.783.783,0,0,0-1.565,0V252.24c-7.951-.453-14.293-7.769-14.293-16.7a18.057,18.057,0,0,1,2.053-8.413.783.783,0,0,0-1.384-.731c-.114.215-.222.434-.327.653l-3.361-1.746a.783.783,0,0,0-.772.028c-.232.143-5.7,3.638-6.279,14.715a.783.783,0,0,0,.74.823h.042a.783.783,0,0,0,.781-.741,21.652,21.652,0,0,1,2.983-10.615,10.968,10.968,0,0,1,2.218-2.6l3.028,1.574a19.8,19.8,0,0,0-1.27,6.266H17.921a.783.783,0,0,0-.743.538,22.114,22.114,0,0,0-.884,6.627,17.7,17.7,0,0,0,5.051,12.582.783.783,0,0,0,1.107-1.107,15.951,15.951,0,0,1-4.592-11.445,21.826,21.826,0,0,1,.654-5.629h1.693c.375,9.72,7.688,17.5,16.625,17.5h0a16.057,16.057,0,0,0,12.941-6.786A.782.782,0,0,0,49.607,245.947Z" transform="translate(0 -202.037)"/>
      <path id="Path_1245366" data-name="Path 1245366" d="M156.329,9.512a8.513,8.513,0,0,0-.7,1.286.783.783,0,1,0,1.436.624,6.945,6.945,0,0,1,12.735,0,.783.783,0,1,0,1.436-.624,8.5,8.5,0,0,0-.7-1.286l2.286-2.286a4.187,4.187,0,0,0-2.318-7.1l-.77-.12a.783.783,0,1,0-.24,1.547l.77.12a2.576,2.576,0,0,1,2.09,1.776,2.576,2.576,0,0,1-.638,2.668l-2.163,2.163a8.513,8.513,0,0,0-12.245,0L155.15,6.119a2.576,2.576,0,0,1-.638-2.668,2.576,2.576,0,0,1,2.09-1.776l.77-.12a.783.783,0,1,0-.24-1.547l-.77.12a4.187,4.187,0,0,0-2.319,7.1Z" transform="translate(-126.604 0)"/>
      <path id="Path_1245367" data-name="Path 1245367" d="M35.648,25.1a.783.783,0,0,0,0,1.565,3.084,3.084,0,0,1,3.081,3.081v.515a4.652,4.652,0,0,0,4.027,4.6,6.626,6.626,0,0,0,3.385,4.22.783.783,0,1,0,.817-1.335c-1.743-1.066-2.7-2.353-2.7-3.625,0-1.5,1.351-3.024,3.706-4.171a22.651,22.651,0,0,1,9.667-1.94,22.65,22.65,0,0,1,9.667,1.94C69.649,31.1,71,32.623,71,34.127s-1.351,3.024-3.706,4.171a22.65,22.65,0,0,1-9.667,1.94,24.135,24.135,0,0,1-8.62-1.481.783.783,0,1,0-.575,1.456,25.363,25.363,0,0,0,9.194,1.59c7.89,0,14.169-2.992,14.872-6.937a4.652,4.652,0,0,0,4.025-4.6v-.515A3.084,3.084,0,0,1,79.6,26.667a.783.783,0,0,0,0-1.565,4.626,4.626,0,0,0-3.081,1.172v-.405A3.084,3.084,0,0,1,79.6,22.788a.783.783,0,0,0,0-1.565A4.626,4.626,0,0,0,76.524,22.4V21.21A3.084,3.084,0,0,1,79.6,18.129a.783.783,0,0,0,0-1.565,4.651,4.651,0,0,0-4.646,4.646v9.053a3.086,3.086,0,0,1-2.479,3.021c-.792-3.894-7.031-6.835-14.853-6.835s-14.061,2.94-14.853,6.835a3.086,3.086,0,0,1-2.48-3.021V21.21a4.651,4.651,0,0,0-4.646-4.646.783.783,0,1,0,0,1.565,3.084,3.084,0,0,1,3.081,3.081V22.4a4.626,4.626,0,0,0-3.081-1.172.783.783,0,1,0,0,1.565,3.084,3.084,0,0,1,3.081,3.081v.405A4.628,4.628,0,0,0,35.648,25.1Z" transform="translate(-20.795 -14.86)"/>
      <path id="Path_1245368" data-name="Path 1245368" d="M391.887,240.047c-.583-11.077-6.047-14.572-6.279-14.715a.783.783,0,0,0-.772-.028l-3.361,1.746c-.105-.219-.213-.437-.327-.652a.783.783,0,1,0-1.384.732,18.285,18.285,0,0,1-.217,17.237.783.783,0,1,0,1.365.767,19.55,19.55,0,0,0,2.453-8.81h1.7a21.739,21.739,0,0,1,.654,5.578,15.962,15.962,0,0,1-4.593,11.5.783.783,0,0,0,1.107,1.107,17.7,17.7,0,0,0,5.051-12.582,22.112,22.112,0,0,0-.884-6.627.783.783,0,0,0-.743-.538h-2.287a19.789,19.789,0,0,0-1.27-6.266l3.03-1.575c1.134.925,4.742,4.531,5.2,13.212a.783.783,0,0,0,.781.741h.042A.783.783,0,0,0,391.887,240.047Z" transform="translate(-329.909 -202.035)"/>
    </g>
  </g>
</svg>
