<svg xmlns="http://www.w3.org/2000/svg" width="98" height="97.999" viewBox="0 0 98 97.999">
  <g id="Group_1204851" data-name="Group 1204851" transform="translate(-6227 3007.25)">
    <g id="Group_1204618" data-name="Group 1204618" transform="translate(5424.219 -5545.266)">
      <g id="Group_1204237" data-name="Group 1204237" transform="translate(-1 566)">
        <g id="Group_1204143" data-name="Group 1204143" transform="translate(-67.331 1694.852)">
          <g id="Group_1188789" data-name="Group 1188789" transform="translate(871.113 277.164)">
            <path id="Path_1243039" data-name="Path 1243039" d="M41.05,0h0a41.05,41.05,0,0,1,0,82.1h0a41.05,41.05,0,0,1,0-82.1Z" transform="translate(7.951 7.949)" fill="#ffc94a"/>
            <rect id="Rectangle_400907" data-name="Rectangle 400907" width="88.438" height="88.437" rx="44.218" transform="translate(4.782 4.781)" fill="none"/>
            <g id="Group_1098742" data-name="Group 1098742" transform="translate(0)">
              <g id="Rectangle_400898" data-name="Rectangle 400898" transform="translate(0)" fill="none" stroke="#fff" stroke-width="2" opacity="0.859">
                <rect width="98" height="97.999" rx="48.999" stroke="none"/>
                <rect x="1" y="1" width="96" height="95.999" rx="47.999" fill="none"/>
              </g>
              <g id="Rectangle_400907-2" data-name="Rectangle 400907" transform="translate(0)" fill="none" stroke="#0f1f33" stroke-linecap="round" stroke-width="2">
                <rect width="98" height="97.999" rx="48.999" stroke="none"/>
                <rect x="1" y="1" width="96" height="95.999" rx="47.999" fill="none"/>
              </g>
            </g>
          </g>
        </g>
      </g>
    </g>
    <g id="Page-1" transform="translate(6246.657 -2986.831)">
      <g id="_007---Sweeping" data-name="007---Sweeping" transform="translate(0.141 -0.005)">
        <path id="Shape" d="M33.519,42.8a4.306,4.306,0,0,0-2.686,3.937,4.3,4.3,0,0,0-3.065,4.122,4.256,4.256,0,0,0,1.409,3.171c-4.51,3.805-11.724,3.691-17.59,2.228-8.015-2-9.953-6.034-10.42-7.866a.876.876,0,0,1,.74-1.066c15.167-2.3,19.66-8.993,20.8-11.362a5.3,5.3,0,0,0,1.7,1.674,7.109,7.109,0,0,0,4.1,1.048,11.648,11.648,0,0,0,4.545-.942A31.815,31.815,0,0,1,33.519,42.8Z" transform="translate(-0.261 -5.163)" fill="#ffdc00"/>
        <path id="Shape-2" data-name="Shape" d="M35.268,37.98a9.078,9.078,0,0,1-2.531.747,31.013,31.013,0,0,1,.352,4.309A4.306,4.306,0,0,0,30.4,46.973,4.3,4.3,0,0,0,27.339,51.1a4.256,4.256,0,0,0,1.409,3.171A14.99,14.99,0,0,1,19.739,57.4c4.284.224,8.59-.55,11.651-3.132A4.256,4.256,0,0,1,29.981,51.1a4.3,4.3,0,0,1,3.065-4.122,4.306,4.306,0,0,1,2.686-3.937,31.816,31.816,0,0,0-.464-5.056Z" transform="translate(-2.477 -5.403)" fill="#fec108"/>
        <path id="Shape-3" data-name="Shape" d="M35.969,37.253a11.648,11.648,0,0,1-4.545.942,7.109,7.109,0,0,1-4.1-1.048,5.3,5.3,0,0,1-1.7-1.674c.053-.115.1-.22.141-.317a5.373,5.373,0,0,1,2.466-2.836,4.239,4.239,0,0,1,.934-.335,5.131,5.131,0,0,1,2.942.264,5.36,5.36,0,0,1,1.339.74,6.47,6.47,0,0,1,2.51,4.149c.009.035.009.079.018.115Z" transform="translate(-3.178 -4.677)" fill="#ff9801"/>
        <path id="Shape-4" data-name="Shape" d="M38.721,4.6l-4.8,24.812a5.36,5.36,0,0,0-1.339-.74,5.131,5.131,0,0,0-2.942-.264L34.405,3.761a2.2,2.2,0,1,1,4.316.837Z" transform="translate(-3.657 -1.097)" fill="sienna"/>
        <path id="Shape-5" data-name="Shape" d="M25.619,35.959a.009.009,0,0,1-.009-.009" transform="translate(-3.177 -5.162)" fill="sienna"/>
        <path id="Shape-6" data-name="Shape" d="M55.707,51.539a4.838,4.838,0,0,1-7.452,4.078,6.568,6.568,0,0,1-10.332-.388,4.3,4.3,0,1,1-3.488-7.778,4.3,4.3,0,0,1,6.906-3.373,5.838,5.838,0,0,1,10.2,2.66,4.859,4.859,0,0,1,4.166,4.8Z" transform="translate(-3.863 -5.883)" fill="#7f8e94"/>
        <path id="Shape-7" data-name="Shape" d="M53.311,46.738a5.827,5.827,0,0,0-7.086-4.58,5.859,5.859,0,0,1,4.2,3.7,1.828,1.828,0,0,0,1.14,1.1,4.844,4.844,0,0,1-.253,9.24,4.656,4.656,0,0,0,4.778-1.366,4.778,4.778,0,0,0,1.371-2.881A4.858,4.858,0,0,0,53.311,46.738Z" transform="translate(-5.634 -5.882)" fill="#545c60"/>
        <circle id="Oval" cx="2.202" cy="2.202" r="2.202" transform="translate(46.558 28.19)" fill="#7f8e94"/>
        <circle id="Oval-2" data-name="Oval" cx="1.762" cy="1.762" r="1.762" transform="translate(41.274 22.905)" fill="#7f8e94"/>
        <path id="Shape-8" data-name="Shape" d="M6.881,23.523A.881.881,0,0,1,6,22.642V20.881a.881.881,0,1,1,1.762,0v1.762A.881.881,0,0,1,6.881,23.523Z" transform="translate(-0.84 -3.26)" fill="#ef314c"/>
        <path id="Shape-9" data-name="Shape" d="M6.881,29.523A.881.881,0,0,1,6,28.642V26.881a.881.881,0,1,1,1.762,0v1.762A.881.881,0,0,1,6.881,29.523Z" transform="translate(-0.84 -3.976)" fill="#ef314c"/>
        <path id="Shape-10" data-name="Shape" d="M4.642,25.762H2.881a.881.881,0,1,1,0-1.762H4.642a.881.881,0,1,1,0,1.762Z" transform="translate(-0.363 -3.737)" fill="#ef314c"/>
        <path id="Shape-11" data-name="Shape" d="M10.642,25.762H8.881a.881.881,0,1,1,0-1.762h1.762a.881.881,0,0,1,0,1.762Z" transform="translate(-1.078 -3.737)" fill="#ef314c"/>
        <path id="Shape-12" data-name="Shape" d="M9.881,39.584a.881.881,0,0,1-.623-1.5l1.321-1.321a.881.881,0,0,1,1.245,1.245L10.5,39.326a.881.881,0,0,1-.623.258Z" transform="translate(-1.197 -5.229)" fill="#02a9f4"/>
        <path id="Shape-13" data-name="Shape" d="M14.381,35.084a.881.881,0,0,1-.623-1.5l1.321-1.321a.881.881,0,0,1,1.245,1.245L15,34.826a.881.881,0,0,1-.623.258Z" transform="translate(-1.733 -4.692)" fill="#02a9f4"/>
        <path id="Shape-14" data-name="Shape" d="M15.7,39.584a.881.881,0,0,1-.623-.258L13.76,38.005A.881.881,0,0,1,15,36.76l1.321,1.321a.881.881,0,0,1-.623,1.5Z" transform="translate(-1.735 -5.229)" fill="#02a9f4"/>
        <path id="Shape-15" data-name="Shape" d="M11.2,35.084a.881.881,0,0,1-.623-.258L9.26,33.505a.881.881,0,0,1,1.245-1.245l1.321,1.321a.881.881,0,0,1-.623,1.5Z" transform="translate(-1.199 -4.692)" fill="#02a9f4"/>
        <path id="Shape-16" data-name="Shape" d="M49.678,48.642a.881.881,0,0,1-.865-.714,1.437,1.437,0,0,0-2.511-.654.881.881,0,1,1-1.348-1.136,3.2,3.2,0,0,1,5.59,1.458.881.881,0,0,1-.7,1.031.912.912,0,0,1-.167.016Z" transform="translate(-5.458 -6.24)" fill="#f5f5f5"/>
        <path id="Shape-17" data-name="Shape" d="M6.881,23.523A.881.881,0,0,1,6,22.642V20.881a.881.881,0,1,1,1.762,0v1.762A.881.881,0,0,1,6.881,23.523Z" transform="translate(-0.84 -3.26)" fill="#ef314c"/>
        <path id="Shape-18" data-name="Shape" d="M6.881,29.523A.881.881,0,0,1,6,28.642V26.881a.881.881,0,1,1,1.762,0v1.762A.881.881,0,0,1,6.881,29.523Z" transform="translate(-0.84 -3.976)" fill="#ef314c"/>
        <path id="Shape-19" data-name="Shape" d="M4.642,25.762H2.881a.881.881,0,1,1,0-1.762H4.642a.881.881,0,1,1,0,1.762Z" transform="translate(-0.363 -3.737)" fill="#ef314c"/>
        <path id="Shape-20" data-name="Shape" d="M10.642,25.762H8.881a.881.881,0,1,1,0-1.762h1.762a.881.881,0,0,1,0,1.762Z" transform="translate(-1.078 -3.737)" fill="#ef314c"/>
        <path id="Shape-21" data-name="Shape" d="M9.881,39.584a.881.881,0,0,1-.623-1.5l1.321-1.321a.881.881,0,0,1,1.245,1.245L10.5,39.326a.881.881,0,0,1-.623.258Z" transform="translate(-1.197 -5.229)" fill="#02a9f4"/>
        <path id="Shape-22" data-name="Shape" d="M14.381,35.084a.881.881,0,0,1-.623-1.5l1.321-1.321a.881.881,0,0,1,1.245,1.245L15,34.826a.881.881,0,0,1-.623.258Z" transform="translate(-1.733 -4.692)" fill="#02a9f4"/>
        <path id="Shape-23" data-name="Shape" d="M15.7,39.584a.881.881,0,0,1-.623-.258L13.76,38.005A.881.881,0,0,1,15,36.76l1.321,1.321a.881.881,0,0,1-.623,1.5Z" transform="translate(-1.735 -5.229)" fill="#02a9f4"/>
        <path id="Shape-24" data-name="Shape" d="M11.2,35.084a.881.881,0,0,1-.623-.258L9.26,33.505a.881.881,0,0,1,1.245-1.245l1.321,1.321a.881.881,0,0,1-.623,1.5Z" transform="translate(-1.199 -4.692)" fill="#02a9f4"/>
        <g id="Group_1204850" data-name="Group 1204850">
          <path id="Shape-25" data-name="Shape" d="M48.549,41.1a6.723,6.723,0,0,0-11.063-3.044,4.933,4.933,0,0,0-3.235-.55,35.549,35.549,0,0,0-.464-4.194,7.415,7.415,0,0,0-2.413-4.341l4.7-24.3a3.037,3.037,0,0,0-.458-2.3,3.078,3.078,0,0,0-5.587,1.12L25.358,27.616a5.165,5.165,0,0,0-.561.233,6.158,6.158,0,0,0-2.886,3.28c-.868,2.026-4.895,8.826-20.248,11.153a1.777,1.777,0,0,0-1.223.759,1.746,1.746,0,0,0-.246,1.4A8.742,8.742,0,0,0,1.984,47.8a.888.888,0,0,0,.219.259,14.929,14.929,0,0,0,5.782,3.829c.024.01.046.021.07.029a25.255,25.255,0,0,0,3.2,1.02,33.447,33.447,0,0,0,5.861.907.862.862,0,0,0,.107.015c.01,0,.019-.006.028-.006.52.03,1.047.051,1.585.051a16.943,16.943,0,0,0,10.2-2.939,5.161,5.161,0,0,0,4.933.484,7.445,7.445,0,0,0,10.74.373A5.725,5.725,0,1,0,48.549,41.1ZM31.756,3.826A1.321,1.321,0,0,1,33.291,2.78a1.339,1.339,0,0,1,.857.57,1.3,1.3,0,0,1,.195.979L29.776,27.934c-.133-.063-.264-.134-.4-.187a6.387,6.387,0,0,0-2.164-.423Zm-6.178,25.6a3.887,3.887,0,0,1,3.171-.04,5.373,5.373,0,0,1,3.163,3.643,11.792,11.792,0,0,1-3.55.6,6.166,6.166,0,0,1-3.595-.906A4.969,4.969,0,0,1,23.6,31.7a4.4,4.4,0,0,1,1.98-2.272ZM11.229,51.107c4.707-1.61,10.1-4.383,13.3-9.1a.881.881,0,0,0-1.457-.99c-3.462,5.1-9.843,7.769-14.7,9.127a14.579,14.579,0,0,1-3.735-2.167,33.2,33.2,0,0,0,9.9-3.049.881.881,0,1,0-.843-1.547C10.47,45.142,5.88,46.035,3.134,46.439a6.665,6.665,0,0,1-1.216-2.413c13.537-2.053,18.849-7.589,20.8-10.682a7.174,7.174,0,0,0,1.085.86,7.866,7.866,0,0,0,4.316,1.2c.1,0,.2,0,.3-.005a13.925,13.925,0,0,0,3.807-.6,30.5,30.5,0,0,1,.277,3.3,5.2,5.2,0,0,0-2.627,3.836,5.221,5.221,0,0,0-3.113,4.75,5.149,5.149,0,0,0,1,3.042,14.264,14.264,0,0,1-7.216,2.362,19,19,0,0,0,4-3.545A.881.881,0,0,0,23.2,47.418a18.96,18.96,0,0,1-6.159,4.668,31.871,31.871,0,0,1-5.355-.857c-.158-.037-.3-.082-.452-.122Zm35.91-.494a3.953,3.953,0,0,1-2.132-.627.881.881,0,0,0-1.145.171,5.686,5.686,0,0,1-8.947-.33.881.881,0,0,0-1.176-.232,3.418,3.418,0,1,1-2.772-6.184.881.881,0,0,0,.628-.834,3.435,3.435,0,0,1,3.419-3.382,3.387,3.387,0,0,1,2.071.695.881.881,0,0,0,1.207-.134,4.961,4.961,0,0,1,8.664,2.261.881.881,0,0,0,.743.7,3.964,3.964,0,0,1-.559,7.889Z" transform="translate(-0.141 -0.995)"/>
          <path id="Shape-26" data-name="Shape" d="M55.083,38.166a3.083,3.083,0,1,0-2.18-.9A3.083,3.083,0,0,0,55.083,38.166Zm0-4.4a1.321,1.321,0,1,1-1.321,1.321A1.321,1.321,0,0,1,55.083,33.762Z" transform="translate(-6.322 -4.691)"/>
          <path id="Shape-27" data-name="Shape" d="M48.642,31.285A2.642,2.642,0,1,0,46,28.642,2.642,2.642,0,0,0,48.642,31.285Zm0-3.523a.881.881,0,1,1-.881.881A.881.881,0,0,1,48.642,27.762Z" transform="translate(-5.607 -3.976)"/>
          <path id="Shape-28" data-name="Shape" d="M11.73,10.836,26.7,13.478a.835.835,0,0,0,.154.013.881.881,0,0,0,.152-1.748L12.037,9.1a.881.881,0,0,0-.307,1.734Z" transform="translate(-1.438 -1.96)"/>
          <path id="Shape-29" data-name="Shape" d="M27.456,17.893a.881.881,0,0,0-.713-1.02L17.2,15.187a.881.881,0,1,0-.307,1.735l9.547,1.685a.835.835,0,0,0,.154.013A.881.881,0,0,0,27.456,17.893Z" transform="translate(-2.051 -2.685)"/>
          <path id="Shape-30" data-name="Shape" d="M25.472,21.737,13.928,19.7a.881.881,0,1,0-.306,1.735l11.543,2.037a.919.919,0,0,0,.153.015.881.881,0,0,0,.152-1.748Z" transform="translate(-1.661 -3.223)"/>
        </g>
      </g>
    </g>
  </g>
</svg>
