<svg xmlns="http://www.w3.org/2000/svg" width="98" height="97.999" viewBox="0 0 98 97.999">
  <g id="Group_1204847" data-name="Group 1204847" transform="translate(-6227 3360)">
    <g id="Group_1204615" data-name="Group 1204615" transform="translate(5424.219 -5898.016)">
      <g id="Group_1204237" data-name="Group 1204237" transform="translate(-1 566)">
        <g id="Group_1204143" data-name="Group 1204143" transform="translate(-67.331 1694.852)">
          <g id="Group_1188789" data-name="Group 1188789" transform="translate(871.113 277.164)">
            <path id="Path_1243039" data-name="Path 1243039" d="M41.05,0h0a41.05,41.05,0,0,1,0,82.1h0a41.05,41.05,0,0,1,0-82.1Z" transform="translate(7.951 7.949)" fill="#ffc94a"/>
            <rect id="Rectangle_400907" data-name="Rectangle 400907" width="88.438" height="88.437" rx="44.218" transform="translate(4.782 4.781)" fill="none"/>
            <g id="Group_1098742" data-name="Group 1098742" transform="translate(0)">
              <g id="Rectangle_400898" data-name="Rectangle 400898" transform="translate(0)" fill="none" stroke="#fff" stroke-width="2" opacity="0.859">
                <rect width="98" height="97.999" rx="48.999" stroke="none"/>
                <rect x="1" y="1" width="96" height="95.999" rx="47.999" fill="none"/>
              </g>
              <g id="Rectangle_400907-2" data-name="Rectangle 400907" transform="translate(0)" fill="none" stroke="#0f1f33" stroke-linecap="round" stroke-width="2">
                <rect width="98" height="97.999" rx="48.999" stroke="none"/>
                <rect x="1" y="1" width="96" height="95.999" rx="47.999" fill="none"/>
              </g>
            </g>
          </g>
        </g>
      </g>
    </g>
    <g id="las-bacterias" transform="translate(6247 -3341)">
      <g id="Group_1204840" data-name="Group 1204840" transform="translate(0.861 0.861)">
        <path id="Path_1245502" data-name="Path 1245502" d="M112.01,421.475a3.25,3.25,0,1,0,6.3,1.618l1.577-6.138L113.6,415.3Z" transform="translate(-99.925 -368.496)" fill="#5fd9b3"/>
        <path id="Path_1245503" data-name="Path 1245503" d="M236.076,406.184l-6.162,2.07,2.152,6.336a3.25,3.25,0,1,0,6.155-2.09Z" transform="translate(-204.389 -360.429)" fill="#5fd9b3"/>
        <path id="Path_1245504" data-name="Path 1245504" d="M9.788,337.763a3.25,3.25,0,1,0,1.925,6.209l6.335-1.964-2.025-6.177Z" transform="translate(-7.5 -298.149)" fill="#00ce8e"/>
        <path id="Path_1245505" data-name="Path 1245505" d="M331.829,341.653l-4.757,4.43,4.548,4.908a3.25,3.25,0,1,0,4.768-4.418Z" transform="translate(-290.396 -303.304)" fill="#5fd9b3"/>
        <path id="Path_1245506" data-name="Path 1245506" d="M23.1,223.9l6,4.339,3.635-5.393-5.824-4.212A3.25,3.25,0,1,0,23.1,223.9Z" transform="translate(-20.115 -193.858)" fill="#00ce8e"/>
        <path id="Path_1245507" data-name="Path 1245507" d="M404.335,253.277l-5.764-2.445-2.581,5.966,5.806,2.463a3.25,3.25,0,0,0,2.539-5.984Z" transform="translate(-351.406 -222.906)" fill="#5fd9b3"/>
        <path id="Path_1245508" data-name="Path 1245508" d="M132.894,153.487a3.25,3.25,0,0,0-.794,4.527l3.4,4.84,6.352-2.264-4.426-6.309A3.25,3.25,0,0,0,132.894,153.487Z" transform="translate(-117.278 -136.211)" fill="#00ce8e"/>
        <path id="Path_1245509" data-name="Path 1245509" d="M432.252,154.642h0l-5.69.008.059,6.5,5.641-.008a3.25,3.25,0,0,0,0-6.5Z" transform="translate(-378.464 -137.755)" fill="#5fd9b3"/>
        <path id="Path_1245510" data-name="Path 1245510" d="M200.264,73.32l3.729-5.431-3.729-3.582a3.25,3.25,0,1,0-4.5,4.687Z" transform="translate(-173.272 -56.986)" fill="#00ce8e"/>
        <path id="Path_1245511" data-name="Path 1245511" d="M389.687,47.856a3.25,3.25,0,0,0-4.968-4.192l-4.056,4.807,4.486,4.762Z" transform="translate(-337.837 -38.492)" fill="#5fd9b3"/>
        <path id="Path_1245512" data-name="Path 1245512" d="M308.358,10.75a3.25,3.25,0,1,0-6.5,0v5.962l6.5-.27Z" transform="translate(-268.076 -7.5)" fill="#00ce8e"/>
      </g>
      <g id="Group_1204841" data-name="Group 1204841" transform="translate(7.66 7.712)">
        <path id="Path_1245513" data-name="Path 1245513" d="M98.378,67.242q-.477-.036-.964-.036A12.673,12.673,0,0,0,84.746,79.874a5.336,5.336,0,0,1-5.33,5.33,12.668,12.668,0,1,0,0,25.336,30.7,30.7,0,0,0,30.666-30.666,12.669,12.669,0,0,0-11.7-12.632Z" transform="translate(-66.748 -67.206)" fill="#5fd9b3"/>
        <path id="Path_1245514" data-name="Path 1245514" d="M98.378,67.238h0A12.673,12.673,0,0,0,84.746,79.87a5.3,5.3,0,0,1-5.31,5.33,12.668,12.668,0,0,0-6.262,23.692,10.283,10.283,0,0,1,6.424-7.1A30.774,30.774,0,0,0,99.189,78.848a21.675,21.675,0,0,1,4.715-9.84h0a12.652,12.652,0,0,0-5.527-1.77Z" transform="translate(-66.748 -67.202)" fill="#00ce8e"/>
      </g>
      <g id="Group_1204845" data-name="Group 1204845" transform="translate(25.463 15.906)">
        <g id="Group_1204844" data-name="Group 1204844" transform="translate(0 0)">
          <g id="Group_1204842" data-name="Group 1204842">
            <ellipse id="Ellipse_12475" data-name="Ellipse 12475" cx="2.683" cy="3.369" rx="2.683" ry="3.369" transform="translate(0 5.183) rotate(-74.991)" fill="#ff8e9e"/>
          </g>
          <g id="Group_1204843" data-name="Group 1204843" transform="translate(17.642 4.725)">
            <ellipse id="Ellipse_12476" data-name="Ellipse 12476" cx="2.683" cy="3.369" rx="2.683" ry="3.369" transform="translate(0 5.183) rotate(-74.991)" fill="#ff8e9e"/>
          </g>
        </g>
      </g>
      <g id="Group_1204846" data-name="Group 1204846" transform="translate(0 0)">
        <path id="Path_1245515" data-name="Path 1245515" d="M271.459,133l-.356,1.33a.861.861,0,1,0,1.663.446l.356-1.33a.861.861,0,1,0-1.663-.446Z" transform="translate(-239.963 -117.174)"/>
        <path id="Path_1245516" data-name="Path 1245516" d="M392.575,167.742a.861.861,0,0,0,.831-.638l.356-1.33a.861.861,0,1,0-1.663-.446l-.356,1.33a.861.861,0,0,0,.832,1.084Z" transform="translate(-346.758 -145.789)"/>
        <path id="Path_1245517" data-name="Path 1245517" d="M317.823,158.525a3.366,3.366,0,0,0,2.751-.46.861.861,0,0,0-.961-1.428,1.644,1.644,0,0,1-2.4-.642.861.861,0,1,0-1.546.757A3.366,3.366,0,0,0,317.823,158.525Z" transform="translate(-279.365 -137.665)"/>
        <path id="Path_1245518" data-name="Path 1245518" d="M54.655,25.108a4.111,4.111,0,0,0-.012-8.222l-3.246,0a13.469,13.469,0,0,0-.989-2.6l2.961-3.509a4.111,4.111,0,1,0-6.283-5.3L44.621,8.4A13.449,13.449,0,0,0,42,7.358V4.111a4.111,4.111,0,0,0-8.222,0V7.636a.862.862,0,1,0,.5,1.648,11.815,11.815,0,0,1,15.851,11.1A29.843,29.843,0,0,1,20.328,50.186a11.807,11.807,0,1,1,0-23.615,6.2,6.2,0,0,0,6.19-6.19,11.852,11.852,0,0,1,4.937-9.6A.862.862,0,1,0,30.39,9.425L28.45,7.562a4.111,4.111,0,0,0-5.7,5.929l2.737,2.629a13.473,13.473,0,0,0-.694,4.261,4.44,4.44,0,0,1-.412,1.871l-2.677-3.815a4.111,4.111,0,1,0-6.73,4.722l1.565,2.231A13.5,13.5,0,0,0,12,27.723L8.156,24.94A4.111,4.111,0,1,0,3.337,31.6l4.026,2.912A13.485,13.485,0,0,0,6.8,38.379c0,.021,0,.041,0,.062L2.894,39.652a4.111,4.111,0,0,0,2.435,7.853l4-1.241a13.476,13.476,0,0,0,3.758,3.555l-.978,3.807a4.111,4.111,0,1,0,7.963,2.046l.969-3.772a31.512,31.512,0,0,0,5.328-.575l.272.8a.861.861,0,0,0,1.63-.554l-.212-.624a31.255,31.255,0,0,0,4.55-1.531l1.268,3.457a2.388,2.388,0,0,1-1.5,3.022c-.893.3-2.548.142-3.009-1.089a.861.861,0,1,0-1.612.6c.829,2.212,3.477,2.692,5.175,2.115A4.11,4.11,0,0,0,35.5,52.291l-1.318-3.6a31.57,31.57,0,0,0,4.42-2.638l2.85,3.076a4.111,4.111,0,0,0,6.03-5.588L44.62,40.455A31.69,31.69,0,0,0,47.4,36.518l3.514,1.491a4.111,4.111,0,1,0,3.211-7.569l-3.461-1.469a31.269,31.269,0,0,0,.835-3.858ZM23.947,12.249A2.389,2.389,0,1,1,27.257,8.8l1.8,1.729a13.6,13.6,0,0,0-2.862,3.877Zm-7.56,9.921A2.389,2.389,0,1,1,20.3,19.426l3.006,4.285a4.45,4.45,0,0,1-2.977,1.14,13.577,13.577,0,0,0-1.961.143ZM4.346,30.207a2.389,2.389,0,1,1,2.8-3.872L10.689,28.9a13.581,13.581,0,0,0-2.7,3.943Zm.473,15.654A2.389,2.389,0,1,1,3.4,41.3l3.518-1.091a13.3,13.3,0,0,0,1.473,4.546Zm49.83-27.253a2.389,2.389,0,0,1,0,4.779l-2.942,0a22.811,22.811,0,0,0,.028-4.779ZM35.5,7.149V4.111a2.389,2.389,0,1,1,4.778,0V6.994A13.578,13.578,0,0,0,35.5,7.149Zm10.6,2.158L48.4,6.588A2.389,2.389,0,1,1,52.053,9.67L49.479,12.72a13.518,13.518,0,0,0-3.372-3.414Zm-27.7,45.936a2.389,2.389,0,1,1-4.628-1.189l.87-3.387a13.505,13.505,0,0,0,4.626,1.2ZM46.221,44.715a2.389,2.389,0,0,1-3.505,3.248l-2.733-2.95a31.8,31.8,0,0,0,3.5-3.256Zm7.234-12.69a2.389,2.389,0,1,1-1.866,4.4L48.25,35.007a31.35,31.35,0,0,0,1.9-4.386Z" transform="translate(0 0)"/>
      </g>
    </g>
  </g>
</svg>
