<svg xmlns="http://www.w3.org/2000/svg" width="98" height="97.999" viewBox="0 0 98 97.999">
  <g id="Group_1204853" data-name="Group 1204853" transform="translate(-6557 3007.25)">
    <g id="Group_1204619" data-name="Group 1204619" transform="translate(5754.219 -5545.266)">
      <g id="Group_1204237" data-name="Group 1204237" transform="translate(-1 566)">
        <g id="Group_1204143" data-name="Group 1204143" transform="translate(-67.331 1694.852)">
          <g id="Group_1188789" data-name="Group 1188789" transform="translate(871.113 277.164)">
            <path id="Path_1243039" data-name="Path 1243039" d="M41.05,0h0a41.05,41.05,0,0,1,0,82.1h0a41.05,41.05,0,0,1,0-82.1Z" transform="translate(7.951 7.949)" fill="#ffc94a"/>
            <rect id="Rectangle_400907" data-name="Rectangle 400907" width="88.438" height="88.437" rx="44.218" transform="translate(4.782 4.781)" fill="none"/>
            <g id="Group_1098742" data-name="Group 1098742" transform="translate(0)">
              <g id="Rectangle_400898" data-name="Rectangle 400898" transform="translate(0)" fill="none" stroke="#fff" stroke-width="2" opacity="0.859">
                <rect width="98" height="97.999" rx="48.999" stroke="none"/>
                <rect x="1" y="1" width="96" height="95.999" rx="47.999" fill="none"/>
              </g>
              <g id="Rectangle_400907-2" data-name="Rectangle 400907" transform="translate(0)" fill="none" stroke="#0f1f33" stroke-linecap="round" stroke-width="2">
                <rect width="98" height="97.999" rx="48.999" stroke="none"/>
                <rect x="1" y="1" width="96" height="95.999" rx="47.999" fill="none"/>
              </g>
            </g>
          </g>
        </g>
      </g>
    </g>
    <g id="lavadora-a-presion" transform="translate(6574.094 -2994.493)">
      <path id="Path_1245532" data-name="Path 1245532" d="M111.76,27.226l4.506-1.719v3.412l-4.442.628Z" transform="translate(-57.509 -11.155)" fill="#60a2d7"/>
      <path id="Path_1245533" data-name="Path 1245533" d="M43.2,69.2H20.128a2.775,2.775,0,0,1-2.772-2.917l1.885-36.828a5.551,5.551,0,0,1,5.544-5.267H38.539a5.551,5.551,0,0,1,5.544,5.267l1.885,36.828A2.775,2.775,0,0,1,43.2,69.2Z" transform="translate(-6.773 -10.449)" fill="#a3d4f7"/>
      <path id="Path_1245534" data-name="Path 1245534" d="M31.287,84.308H47.015v9.02H31.287Z" transform="translate(-14.262 -42.756)" fill="#e6e9ed"/>
      <rect id="Rectangle_411433" data-name="Rectangle 411433" width="5.551" height="14.82" rx="2.775" transform="translate(44.219 58.756) rotate(180)" fill="#e6e9ed"/>
      <rect id="Rectangle_411434" data-name="Rectangle 411434" width="5.551" height="14.82" rx="2.775" transform="translate(5.56 43.937)" fill="#e6e9ed"/>
      <path id="Path_1245535" data-name="Path 1245535" d="M105.153,40.82h2.775V72.109h-2.775Z" transform="translate(-53.959 -19.385)" fill="#e6e9ed"/>
      <path id="Path_1245536" data-name="Path 1245536" d="M103.653,28.882h4.163v9.306h-4.163Z" transform="translate(-53.152 -12.969)" fill="#a3d4f7"/>
      <path id="Path_1245537" data-name="Path 1245537" d="M107.771,113.843h-4.716l.277-6.59h4.163Z" transform="translate(-52.831 -55.087)" fill="#c0c3c6"/>
      <g id="Group_1204852" data-name="Group 1204852" transform="translate(4.75 4.75)">
        <path id="Path_1245538" data-name="Path 1245538" d="M18.688,67.509h.042a.809.809,0,0,0,.808-.768l.107-2.082a.811.811,0,0,0-1.619-.082l-.107,2.082a.81.81,0,0,0,.769.851Z" transform="translate(-11.827 -36.489)" fill="#0c2036"/>
        <path id="Path_1245539" data-name="Path 1245539" d="M29.537,83.368v9.02a.81.81,0,0,0,.81.81H46.074a.81.81,0,0,0,.81-.81v-9.02a.809.809,0,0,0-.81-.81H30.347a.809.809,0,0,0-.81.81Zm1.619.81H45.265v7.4H31.156Z" transform="translate(-18.071 -46.566)" fill="#0c2036"/>
        <path id="Path_1245540" data-name="Path 1245540" d="M35.347,40.036h11.1a.81.81,0,1,0,0-1.619h-11.1a.81.81,0,0,0,0,1.619Z" transform="translate(-20.758 -22.843)" fill="#0c2036"/>
        <path id="Path_1245541" data-name="Path 1245541" d="M35.347,47.869h11.1a.81.81,0,1,0,0-1.619h-11.1a.81.81,0,0,0,0,1.619Z" transform="translate(-20.758 -27.053)" fill="#0c2036"/>
        <path id="Path_1245542" data-name="Path 1245542" d="M35.347,55.7h11.1a.81.81,0,1,0,0-1.619h-11.1a.81.81,0,0,0,0,1.619Z" transform="translate(-20.758 -31.263)" fill="#0c2036"/>
        <path id="Path_1245543" data-name="Path 1245543" d="M104.21,68.994a.809.809,0,0,0,.81-.81V66.643a.81.81,0,1,0-1.619,0v1.542a.81.81,0,0,0,.81.81Z" transform="translate(-57.766 -37.577)" fill="#0c2036"/>
        <path id="Path_1245544" data-name="Path 1245544" d="M59.216,13.685a.811.811,0,0,0-.748-.09L54.514,15.1H52.74c-1.071-2.677-3.8-6.788-10.6-8.082a24.653,24.653,0,0,0-11.67.548V5.56a.81.81,0,0,0-.809-.81H20.119a.81.81,0,0,0-.81.81v7.374h-1.3a6.353,6.353,0,0,0-6.352,6.037l-.563,11a.811.811,0,1,0,1.619.082l.563-11a4.735,4.735,0,0,1,4.731-4.5H31.765a4.744,4.744,0,0,1,4.738,4.5l1.391,27.191a3.639,3.639,0,0,0-.034.469v9.269a3.574,3.574,0,0,0,.18,1.115,1.966,1.966,0,0,1-1.615.851H13.354a1.966,1.966,0,0,1-1.614-.85,3.577,3.577,0,0,0,.18-1.116V46.712a3.592,3.592,0,0,0-.035-.47l.42-8.2a.811.811,0,1,0-1.619-.082l-.3,5.821A3.58,3.58,0,0,0,4.75,46.712v9.269a3.582,3.582,0,0,0,6.1,2.551,3.583,3.583,0,0,0,2.5,1.034H36.423a3.584,3.584,0,0,0,2.5-1.035,3.582,3.582,0,0,0,6.1-2.55V51.933a.81.81,0,1,0-1.619,0v4.048a1.966,1.966,0,1,1-3.932,0V46.712a1.966,1.966,0,1,1,3.932,0v2.07a.81.81,0,1,0,1.619,0v-2.07a3.58,3.58,0,0,0-5.641-2.932L38.12,18.97a6.362,6.362,0,0,0-6.355-6.037h-1.3V9.284a23.1,23.1,0,0,1,11.367-.671C47.4,9.67,49.876,12.789,50.971,15.1H50.5a.81.81,0,0,0-.81.81v9.306a.808.808,0,0,0,.694.8v5.1a.81.81,0,1,0,1.619,0V26.029H53.16V51.355H52V38.249a.81.81,0,0,0-1.619,0V51.368a.807.807,0,0,0-.694.764l-.278,6.59a.81.81,0,0,0,.809.843H54.94a.81.81,0,0,0,.81-.843l-.278-6.59a.807.807,0,0,0-.694-.764V26.018a.807.807,0,0,0,.694-.8V19.045l3.4-.48a.81.81,0,0,0,.694-.8V14.352a.81.81,0,0,0-.347-.667ZM8.335,57.947a1.968,1.968,0,0,1-1.966-1.966V46.712a1.966,1.966,0,1,1,3.932,0v9.269A1.968,1.968,0,0,1,8.335,57.947ZM20.928,6.369H28.85V8.152a9.919,9.919,0,0,0-5.517,4.781H20.928Zm4.233,6.564A8.591,8.591,0,0,1,28.85,9.924v3.009Zm28.692,5.408V24.41H51.309V16.722h2.544ZM51.068,57.947l.208-4.971h2.611l.208,4.971ZM57.947,17.06l-2.474.35v-.939l2.474-.944Z" transform="translate(-4.75 -4.75)" fill="#0c2036"/>
      </g>
    </g>
  </g>
</svg>
