<svg xmlns="http://www.w3.org/2000/svg" width="98" height="97.999" viewBox="0 0 98 97.999">
  <g id="Group_1204808" data-name="Group 1204808" transform="translate(-6842.782 8148.158)">
    <g id="Group_1204602" data-name="Group 1204602" transform="translate(6040.001 -10686.174)">
      <g id="Group_1204237" data-name="Group 1204237" transform="translate(-1 566)">
        <g id="Group_1204143" data-name="Group 1204143" transform="translate(-67.331 1694.852)">
          <g id="Group_1188789" data-name="Group 1188789" transform="translate(871.113 277.164)">
            <path id="Path_1243039" data-name="Path 1243039" d="M41.05,0h0a41.05,41.05,0,0,1,0,82.1h0a41.05,41.05,0,0,1,0-82.1Z" transform="translate(7.951 7.949)" fill="#ffc94a"/>
            <rect id="Rectangle_400907" data-name="Rectangle 400907" width="88.438" height="88.437" rx="44.218" transform="translate(4.782 4.781)" fill="none"/>
            <g id="Group_1098742" data-name="Group 1098742" transform="translate(0)">
              <g id="Rectangle_400898" data-name="Rectangle 400898" transform="translate(0)" fill="none" stroke="#fff" stroke-width="2" opacity="0.859">
                <rect width="98" height="97.999" rx="48.999" stroke="none"/>
                <rect x="1" y="1" width="96" height="95.999" rx="47.999" fill="none"/>
              </g>
              <g id="Rectangle_400907-2" data-name="Rectangle 400907" transform="translate(0)" fill="none" stroke="#0f1f33" stroke-linecap="round" stroke-width="2">
                <rect width="98" height="97.999" rx="48.999" stroke="none"/>
                <rect x="1" y="1" width="96" height="95.999" rx="47.999" fill="none"/>
              </g>
            </g>
          </g>
        </g>
      </g>
    </g>
    <g id="mosquito" transform="translate(6866.277 -8138.553)">
      <g id="Group_1204806" data-name="Group 1204806" transform="translate(2.714 16.173)">
        <path id="Path_1245369" data-name="Path 1245369" d="M37.617,162.609l-3.782-3.44a3.939,3.939,0,0,0-6.582,3.25q.009.094.022.19c.6,4.622,6.341,9.076,11.021,2.282Z" transform="translate(-27.232 -144.662)" fill="#fd8087"/>
        <path id="Path_1245370" data-name="Path 1245370" d="M84.376,173.5a3.787,3.787,0,0,0-1.594,3.527q.009.094.022.19a7.266,7.266,0,0,0,2.393,4.438,8.711,8.711,0,0,0,3.1-2.927l-.679-2.282Z" transform="translate(-77.229 -158.497)" fill="#fe646f"/>
        <path id="Path_1245371" data-name="Path 1245371" d="M209.947,217.689s8.8-.339,13.148,1.863,9.086,9.857,12.336,6.994-4.736-9.472-9.968-11.73-13.629-2.487-13.629-2.487l-4.1,1.331Z" transform="translate(-189.748 -193.459)" fill="#b5adb6"/>
        <path id="Path_1245372" data-name="Path 1245372" d="M155.3,40.188s7.09-15.2,16.722-17.219a2.108,2.108,0,0,1,2.469,2.617c-1.059,3.912-4.736,11.078-17.46,16Z" transform="translate(-142.537 -22.923)" fill="#e2dee2"/>
        <path id="Path_1245373" data-name="Path 1245373" d="M196.567,46.574s15.537-15.54,28.3-13.714a2.762,2.762,0,0,1,1.868,4.328c-3.056,4.343-10.793,11.52-28.665,11.881Z" transform="translate(-179.697 -31.735)" fill="#f3f0f3"/>
        <path id="Path_1245374" data-name="Path 1245374" d="M224.87,33.533q-.309-.044-.62-.075a2.744,2.744,0,0,1-.5,1.414c-2.935,4.17-10.189,10.955-26.59,11.805-.385.363-.592.57-.592.57l1.506,2.495c17.871-.361,25.608-7.538,28.665-11.881A2.762,2.762,0,0,0,224.87,33.533Z" transform="translate(-179.697 -32.408)" fill="#e2dee2"/>
        <path id="Path_1245375" data-name="Path 1245375" d="M128.485,150.148l1.887-5.36s-1.736-7.473-7.926-7.473-6.19,9.21-3.4,11.625C121.733,151.262,128.485,150.148,128.485,150.148Z" transform="translate(-108.287 -125.918)" fill="#7a6d79"/>
        <path id="Path_1245376" data-name="Path 1245376" d="M129.963,140.122a12.082,12.082,0,0,1,1.047,1.759,5.6,5.6,0,0,1-5.165,8.064,14.847,14.847,0,0,1-2.438-.258,4.618,4.618,0,0,0,1.181,1.78c2.684,2.321,9.436,1.208,9.436,1.208l1.887-5.36S134.553,141.477,129.963,140.122Z" transform="translate(-113.825 -128.446)" fill="#685e68"/>
      </g>
      <g id="Group_1204807" data-name="Group 1204807" transform="translate(0.001 15.426)">
        <path id="Path_1245377" data-name="Path 1245377" d="M53.189,193.293H52.077a.747.747,0,0,0-.747.747v.452a.747.747,0,0,0,1.434.3h.425a.747.747,0,0,0,0-1.494Z" transform="translate(-46.216 -175.573)"/>
        <path id="Path_1245378" data-name="Path 1245378" d="M45.154,25.432a.747.747,0,1,0,.946,1.157,22.954,22.954,0,0,0,4.266-4.534,3.509,3.509,0,0,0-2.373-5.5c-4.131-.591-8.516.558-12.594,2.417a2.854,2.854,0,0,0-3.357-3.486C26.288,16.695,21.464,22.3,18.347,26.96a7.846,7.846,0,0,0-1.474-.138,6.3,6.3,0,0,0-1.239.119.747.747,0,0,0,.295,1.465,4.807,4.807,0,0,1,.945-.09,6.281,6.281,0,0,1,1.6.2l.017,0a6.1,6.1,0,0,1,2.43,1.3.75.75,0,0,0,.065.056,8.736,8.736,0,0,1,1.524,1.8,12.784,12.784,0,0,1,1.51,3.334l-1.661,4.717c-2.062.273-6.554.49-8.392-1.1-1.983-1.715-1.926-6.568-.391-8.691a.747.747,0,1,0-1.211-.876,7.3,7.3,0,0,0-1.1,2.38L9.819,30.126A4.671,4.671,0,0,0,6.529,28.9a23.1,23.1,0,0,1-1.3-4.986.747.747,0,0,0-1.479.212A24.605,24.605,0,0,0,5.038,29.19a4.872,4.872,0,0,0-.511.221,4.973,4.973,0,0,0-.556.327A8.726,8.726,0,0,1,2.892,27.97a.747.747,0,0,0-1.359.621A10.212,10.212,0,0,0,2.88,30.767,4.543,4.543,0,0,0,1.991,34c.007.07.015.141.025.213a7.981,7.981,0,0,0,2.662,4.917l-1.3,7.907a8.844,8.844,0,0,1-3.106,5.4.747.747,0,0,0,.95,1.154,10.338,10.338,0,0,0,3.631-6.308l1.188-7.237a5.79,5.79,0,0,0,.585.253,5.334,5.334,0,0,0,1.842.333,6.111,6.111,0,0,0,3.9-1.54,4.223,4.223,0,0,0,.613.668,8.365,8.365,0,0,0,4.668,1.585l.169,1.524a1.227,1.227,0,0,1-1,1.34l-4.383.785a2.711,2.711,0,0,0-2.113,1.857L5.978,60.614a1.22,1.22,0,0,1-1.167.855h-1.8a.747.747,0,1,0,0,1.494h1.8a2.709,2.709,0,0,0,2.592-1.9L11.752,47.3a1.221,1.221,0,0,1,.952-.836l4.383-.785A2.726,2.726,0,0,0,19.309,42.7l-.143-1.288h.2a24.921,24.921,0,0,0,3.62-.269c.114,0,.452-.013.955-.015l-.151,1.95a2.636,2.636,0,0,0,1.881,2.723l2.489.726a1.13,1.13,0,0,1,.8.938l1.8,13.767a2.447,2.447,0,0,0,2.42,2.124h1.679a.747.747,0,0,0,0-1.494H33.183a.949.949,0,0,1-.939-.824l-1.8-13.767A2.625,2.625,0,0,0,28.576,45.1l-2.489-.726a1.135,1.135,0,0,1-.81-1.172l.159-2.052a38.064,38.064,0,0,1,7.643.86l-.131,1.908a2.61,2.61,0,0,0,1.87,2.7l1.576.469a1.133,1.133,0,0,1,.778.825l3.184,13.574a2.431,2.431,0,0,0,2.377,1.884h1.411a.747.747,0,0,0,0-1.494H42.734a.943.943,0,0,1-.922-.73L38.628,47.562a2.63,2.63,0,0,0-1.807-1.916l-1.576-.469a1.124,1.124,0,0,1-.805-1.16l.108-1.579a9.872,9.872,0,0,1,1.175.494,23.158,23.158,0,0,1,4.563,3.609,24.58,24.58,0,0,0,4.218,3.4,4.764,4.764,0,0,0,2.3.693,3.076,3.076,0,0,0,2.085-.818,2.894,2.894,0,0,0,.963-2.748c-.573-3.609-6.868-8.39-11.128-10.229a31.969,31.969,0,0,0-8.01-2.018c-2.359-.333-4.389-.462-5.343-.508-.027-.086-.057-.182-.092-.284,7.015-.6,12.983-2.375,17.741-5.273a.747.747,0,0,0-.777-1.276c-4.651,2.833-10.54,4.547-17.5,5.095l-.035,0a13.46,13.46,0,0,0-.92-1.684,10.721,10.721,0,0,0-1.243-1.587,65.087,65.087,0,0,1,10.379-7.408c5.659-3.168,10.658-4.469,14.859-3.869A2.015,2.015,0,0,1,49.143,21.2a21.466,21.466,0,0,1-3.99,4.237ZM7.141,38.9A6.192,6.192,0,0,1,3.5,34.023q-.011-.085-.019-.168A3.083,3.083,0,0,1,5.2,30.747a3.164,3.164,0,0,1,3.614.485l2.154,1.959a10.789,10.789,0,0,0,0,1.631,9.541,9.541,0,0,0,.666,2.937A4.294,4.294,0,0,1,7.141,38.9Zm18.179-3.084c.692.034,2.07.119,3.75.312-.5,1.2-.98,2.407-1.434,3.617-1.489-.1-2.8-.111-3.662-.106Zm9.3,1.268c-.468,1.15-.99,2.286-1.558,3.389a31.872,31.872,0,0,0-3.877-.6c.451-1.188.927-2.375,1.422-3.545C31.9,36.506,33.28,36.752,34.622,37.08Zm4.78,6.65A11.289,11.289,0,0,0,41.576,40.1,29.325,29.325,0,0,1,44.6,42.338a9.6,9.6,0,0,1-1.673,3.313,2.817,2.817,0,0,1-.676.664q-.459-.414-.95-.869c-.626-.579-1.26-1.165-1.9-1.715Zm8.975,3.577A1.411,1.411,0,0,1,47.9,48.7c-1.1.972-2.559.234-4.5-1.38a4.968,4.968,0,0,0,.7-.748,11.1,11.1,0,0,0,1.711-3.125,8.224,8.224,0,0,1,2.562,3.861ZM40.272,39.3a9.785,9.785,0,0,1-2.029,3.484,10.821,10.821,0,0,0-3.7-1.922c.558-1.1,1.072-2.24,1.533-3.388a19.29,19.29,0,0,1,2.058.741A21.371,21.371,0,0,1,40.272,39.3ZM21.414,28.314a7.67,7.67,0,0,0-1.57-.9c5.121-7.532,9.605-9.855,12.5-10.463a1.361,1.361,0,0,1,1.594,1.69c-.1.361-.213.727-.342,1.09a.751.751,0,0,0-.034.134,64.054,64.054,0,0,0-12.152,8.449Z" transform="translate(-0.001 -15.426)"/>
      </g>
    </g>
  </g>
</svg>
