<svg xmlns="http://www.w3.org/2000/svg" width="98" height="97.999" viewBox="0 0 98 97.999">
  <g id="Group_1204811" data-name="Group 1204811" transform="translate(-751.949 -4498.016)">
    <g id="Group_1204526" data-name="Group 1204526" transform="translate(-50.832 1960)">
      <g id="Group_1204237" data-name="Group 1204237" transform="translate(-1 566)">
        <g id="Group_1204143" data-name="Group 1204143" transform="translate(-67.331 1694.852)">
          <g id="Group_1188789" data-name="Group 1188789" transform="translate(871.113 277.164)">
            <path id="Path_1243039" data-name="Path 1243039" d="M41.05,0h0a41.05,41.05,0,0,1,0,82.1h0a41.05,41.05,0,0,1,0-82.1Z" transform="translate(7.951 7.949)" fill="#ffc94a"/>
            <rect id="Rectangle_400907" data-name="Rectangle 400907" width="88.438" height="88.437" rx="44.218" transform="translate(4.782 4.781)" fill="none"/>
            <g id="Group_1098742" data-name="Group 1098742" transform="translate(0)">
              <g id="Rectangle_400898" data-name="Rectangle 400898" transform="translate(0)" fill="none" stroke="#fff" stroke-width="2" opacity="0.859">
                <rect width="98" height="97.999" rx="48.999" stroke="none"/>
                <rect x="1" y="1" width="96" height="95.999" rx="47.999" fill="none"/>
              </g>
              <g id="Rectangle_400907-2" data-name="Rectangle 400907" transform="translate(0)" fill="none" stroke="#0f1f33" stroke-linecap="round" stroke-width="2">
                <rect width="98" height="97.999" rx="48.999" stroke="none"/>
                <rect x="1" y="1" width="96" height="95.999" rx="47.999" fill="none"/>
              </g>
            </g>
          </g>
        </g>
      </g>
    </g>
    <g id="Page-1" transform="translate(780.25 4517)">
      <g id="_015---Check-Urine" data-name="015---Check-Urine">
        <path id="Shape" d="M21,59A19.994,19.994,0,0,0,41,39C41,23.05,25.3,5.1,21.72,1.31a1,1,0,0,0-1.44,0C16.7,5.1,1,23.05,1,39A19.994,19.994,0,0,0,21,59Z" fill="#ffeb3a"/>
        <path id="Shape-2" data-name="Shape" d="M21.72,1.31a1,1,0,0,0-1.44,0c-.217.23-.48.514-.78.844C24.147,7.271,38,24.017,38,39A19.981,19.981,0,0,1,19.5,58.924c.5.037.994.076,1.5.076A19.994,19.994,0,0,0,41,39C41,23.05,25.3,5.1,21.72,1.31Z" fill="#fdd834"/>
        <rect id="Rectangle-path" width="6" height="8" rx="3" transform="translate(10 40)" fill="#a4c400"/>
        <path id="Shape-3" data-name="Shape" d="M13,40a2.968,2.968,0,0,0-1.5.416A2.987,2.987,0,0,1,13,43v2a2.987,2.987,0,0,1-1.5,2.584A2.968,2.968,0,0,0,13,48a3,3,0,0,0,3-3V43A3,3,0,0,0,13,40Z" fill="#90ac00"/>
        <rect id="Rectangle-path-2" data-name="Rectangle-path" width="6" height="8" rx="3" transform="matrix(0.915, -0.405, 0.405, 0.915, 19.379, 16.065)" fill="#a4c400"/>
        <path id="Shape-4" data-name="Shape" d="M26.872,18.214l-.809-1.829a3,3,0,0,0-3.957-1.53,2.913,2.913,0,0,0-.279.158,2.982,2.982,0,0,1,1.236,1.372l.809,1.829a2.989,2.989,0,0,1-1.251,3.8,2.993,2.993,0,0,0,4.251-3.8Z" fill="#90ac00"/>
        <path id="Shape-5" data-name="Shape" d="M29,48a3,3,0,0,1,0-6c.448,0,.955,0,1-1.058a2.976,2.976,0,0,1,3-2.971A3.025,3.025,0,0,1,36,41a6.8,6.8,0,0,1-7,7Z" fill="#a4c400"/>
        <path id="Shape-6" data-name="Shape" d="M33,37.971a3.007,3.007,0,0,0-1.513.416A3.034,3.034,0,0,1,33,41a6.865,6.865,0,0,1-5.11,6.782A2.971,2.971,0,0,0,29,48a6.8,6.8,0,0,0,7-7A3.025,3.025,0,0,0,33,37.971Z" fill="#90ac00"/>
        <path id="Shape-7" data-name="Shape" d="M15,24a3,3,0,0,1,0,6c-.448,0-.955,0-1,1.058a2.976,2.976,0,0,1-3,2.971A3.025,3.025,0,0,1,8,31a6.8,6.8,0,0,1,7-7Z" fill="#a4c400"/>
        <path id="Shape-8" data-name="Shape" d="M15,24a8.052,8.052,0,0,0-1.89.218A3,3,0,0,1,12,30c-.448,0-.955,0-1,1.058a2.944,2.944,0,0,1-1.486,2.555A2.936,2.936,0,0,0,11,34.029a2.976,2.976,0,0,0,3-2.971C14.045,30,14.552,30,15,30a3,3,0,0,0,0-6Z" fill="#90ac00"/>
        <circle id="Oval" cx="2" cy="2" r="2" transform="translate(29 28)" fill="#f5f5f5"/>
        <circle id="Oval-2" data-name="Oval" cx="3" cy="3" r="3" transform="translate(19 32)" fill="#f5f5f5"/>
        <circle id="Oval-3" data-name="Oval" cx="2" cy="2" r="2" transform="translate(19 51)" fill="#f5f5f5"/>
        <g id="Group_1204810" data-name="Group 1204810">
          <path id="Shape-9" data-name="Shape" d="M42,39C42,21.822,24.449,2.742,22.444.621a2.06,2.06,0,0,0-2.891,0C17.551,2.742,0,21.822,0,39a21,21,0,0,0,42,0ZM2,39C2,22.6,19.062,4.057,20.993,2,22.938,4.057,40,22.6,40,39A19,19,0,0,1,2,39Z"/>
          <path id="Shape-10" data-name="Shape" d="M17.707,47.293l-.954-.954A3.971,3.971,0,0,0,17,45h1a1,1,0,0,0,0-2H17a3.971,3.971,0,0,0-.247-1.339l.954-.954a1,1,0,0,0-1.414-1.414l-.693.693a3.961,3.961,0,0,0-1.6-.844V38a1,1,0,0,0-2,0v1.142a3.961,3.961,0,0,0-1.6.844l-.693-.693a1,1,0,0,0-1.414,1.414l.954.954A3.971,3.971,0,0,0,9,43H8a1,1,0,0,0,0,2H9a3.971,3.971,0,0,0,.247,1.339l-.954.954a1,1,0,1,0,1.414,1.414l.693-.693a3.961,3.961,0,0,0,1.6.844V50a1,1,0,0,0,2,0V48.858a3.961,3.961,0,0,0,1.6-.844l.693.693a1,1,0,0,0,1.414-1.414ZM13,47a2,2,0,0,1-2-2V43a2,2,0,0,1,4,0v2A2,2,0,0,1,13,47Z"/>
          <path id="Shape-11" data-name="Shape" d="M18.087,17.405l1.259.487a3.933,3.933,0,0,0,.315,1.324l-.914.4a1,1,0,1,0,.809,1.829l.914-.4a4.016,4.016,0,0,0,.766,1.128l-.485,1.255a1,1,0,1,0,1.865.722l.353-.911a3.417,3.417,0,0,0,1.806.123l.461,1.042a1,1,0,1,0,1.829-.808L26.6,22.551a3.964,3.964,0,0,0,1.122-1.419l.914.353a1,1,0,1,0,.722-1.865L28.1,19.133a3.981,3.981,0,0,0-.315-1.323l.915-.4a1,1,0,0,0-.809-1.829l-.914.4a3.964,3.964,0,0,0-.768-1.124L26.7,13.6a1,1,0,1,0-1.865-.722l-.354.914a3.976,3.976,0,0,0-1.8-.124l-.463-1.045a1,1,0,0,0-1.829.809l.462,1.044a3.972,3.972,0,0,0-1.122,1.419l-.913-.353a1,1,0,1,0-.722,1.865ZM23.316,15.6a2,2,0,0,1,1.832,1.191l.4.914.4.913A2,2,0,1,1,22.3,20.236l-.4-.913-.4-.913a2,2,0,0,1,1.826-2.81Z"/>
          <path id="Shape-12" data-name="Shape" d="M29,40.9a.427.427,0,0,1-.007.1A4,4,0,1,0,29,49a7.775,7.775,0,0,0,8-8,4,4,0,1,0-8-.1Zm6,.1a5.831,5.831,0,0,1-6,6,2,2,0,0,1,0-4c1.269,0,1.941-.678,2-2.058a1.964,1.964,0,0,1,2-1.971A2.017,2.017,0,0,1,35,41Z"/>
          <path id="Shape-13" data-name="Shape" d="M11,35.029A3.979,3.979,0,0,0,15,31.1a.427.427,0,0,1,.007-.1,4,4,0,0,0,0-8,7.775,7.775,0,0,0-8,8A4.019,4.019,0,0,0,11,35.029ZM15,25a2,2,0,0,1,0,4c-1.269,0-1.941.678-2,2.058a1.964,1.964,0,0,1-2,1.971A2.017,2.017,0,0,1,9,31a5.831,5.831,0,0,1,6-6Z"/>
          <path id="Shape-14" data-name="Shape" d="M28,30a3,3,0,1,0,3-3A3,3,0,0,0,28,30Zm3-1a1,1,0,1,1-1,1A1,1,0,0,1,31,29Z"/>
          <path id="Shape-15" data-name="Shape" d="M22,31a4,4,0,1,0,4,4A4,4,0,0,0,22,31Zm0,6a2,2,0,1,1,2-2A2,2,0,0,1,22,37Z"/>
          <path id="Shape-16" data-name="Shape" d="M24,53a3,3,0,1,0-3,3A3,3,0,0,0,24,53Zm-4,0a1,1,0,1,1,1,1A1,1,0,0,1,20,53Z"/>
        </g>
      </g>
    </g>
  </g>
</svg>
