<svg xmlns="http://www.w3.org/2000/svg" width="98" height="97.999" viewBox="0 0 98 97.999">
  <g id="Group_1204819" data-name="Group 1204819" transform="translate(-6199 7107.344)">
    <g id="Group_1204603" data-name="Group 1204603" transform="translate(5396.219 -9645.359)">
      <g id="Group_1204237" data-name="Group 1204237" transform="translate(-1 566)">
        <g id="Group_1204143" data-name="Group 1204143" transform="translate(-67.331 1694.852)">
          <g id="Group_1188789" data-name="Group 1188789" transform="translate(871.113 277.164)">
            <path id="Path_1243039" data-name="Path 1243039" d="M41.05,0h0a41.05,41.05,0,0,1,0,82.1h0a41.05,41.05,0,0,1,0-82.1Z" transform="translate(7.951 7.949)" fill="#ffc94a"/>
            <rect id="Rectangle_400907" data-name="Rectangle 400907" width="88.438" height="88.437" rx="44.218" transform="translate(4.782 4.781)" fill="none"/>
            <g id="Group_1098742" data-name="Group 1098742" transform="translate(0)">
              <g id="Rectangle_400898" data-name="Rectangle 400898" transform="translate(0)" fill="none" stroke="#fff" stroke-width="2" opacity="0.859">
                <rect width="98" height="97.999" rx="48.999" stroke="none"/>
                <rect x="1" y="1" width="96" height="95.999" rx="47.999" fill="none"/>
              </g>
              <g id="Rectangle_400907-2" data-name="Rectangle 400907" transform="translate(0)" fill="none" stroke="#0f1f33" stroke-linecap="round" stroke-width="2">
                <rect width="98" height="97.999" rx="48.999" stroke="none"/>
                <rect x="1" y="1" width="96" height="95.999" rx="47.999" fill="none"/>
              </g>
            </g>
          </g>
        </g>
      </g>
    </g>
    <g id="lodo" transform="translate(6214.782 -7091.406)">
      <path id="Path_1245419" data-name="Path 1245419" d="M27.634,21.509c-3.266-1.006-3.734-3.333-3.143-6.291.754-3.771,3.9-6.027,7.162-4.518,3.289,1.519,3.574,3.983,5.275,6.536.5.754,3.517,3.017,5.526,1.76,1.964-1.228,2.01-4.274,4.773-6.787S53.04,10.7,55.3,14.47s1.012,7.446-2.8,7.793c-8.289.754-9.836,8.839-8.038,11.312,2.01,2.765,4.27,1.257,6.531,3.519s-.754,7.542-4.019,7.542-5.3-3.946-7.033-4.525c-3.768-1.257-5.275,3.519-2.512,5.531,1.873,1.363,4.724,1.479,3.971,5.25-.839,4.2-9.541,7.3-10,1.789-.5-6.033-2.763-6.033-4.773-5.782s-2.512,2.514-2.512,4.525-.877,4.1-5.649,4.1c-2.562,0-6.255-2.735-6.255-6.255,0-3.8,1.1-7.4,8.387-6.645,4.5.466,4.773-4.525,3.517-5.53s-4.522-1.257-8.038-1.508-5.161-4.513-3.4-8.786c1.241-3.017,3.654-4.537,6.668-3.783s4.019,3.519,4.773,4.274a9.036,9.036,0,0,0,4.522,3.268c3.266,1.257,7.787-1.508,7.033-4.776s-4.773-3.268-8.038-4.274Z" transform="translate(-1.055 -0.193)" fill="#743800"/>
      <path id="Path_1245420" data-name="Path 1245420" d="M87.172,93.6A4.136,4.136,0,0,1,89.7,91.209a4.185,4.185,0,0,1,1.257-.186h.009c1.367-.057,3.179-.132,4.072,1.546,1.509,2.836-3.022,6.57-5.9,5.017C88.512,97.248,86.386,95.772,87.172,93.6Z" transform="translate(-41.326 -43.544)" fill="#dcb088"/>
      <path id="Path_1245421" data-name="Path 1245421" d="M13.2,16.817a4.127,4.127,0,0,1,1.876-2.458,3.279,3.279,0,0,1,1.845-.351A3.913,3.913,0,0,1,20.1,15.677a3.8,3.8,0,0,1,0,4.611c-1.206,1.736-4.513,1.828-5.694,1.3-.587-.261-1.9-2.386-1.208-4.773Z" transform="translate(-1.61 -2.219)" fill="#dcb088"/>
      <path id="Path_1245422" data-name="Path 1245422" d="M97.561,51.136a3.18,3.18,0,0,0,1.972.889,2.727,2.727,0,0,0,1.764-.6,2.957,2.957,0,0,0,1.272-2.213,2.915,2.915,0,0,0-1.792-3.05c-1.473-.679-3.7.545-4.272,1.352a3.562,3.562,0,0,0,1.056,3.626Z" transform="translate(-46.34 -19.372)" fill="#502701"/>
      <g id="Group_1204818" data-name="Group 1204818" transform="translate(10 9.866)">
        <path id="Path_1245423" data-name="Path 1245423" d="M31.625,10.562c-3.944-1.82-8.813-.018-9.775,4.794a8.1,8.1,0,0,0,.551,5.085,6.722,6.722,0,0,0,4.2,3.536c1.481.456,3.04.645,4.5,1.163,1.13.4,1.511.814,1.651,1.421.108.469-.1,1.17-1.06,1.8a3.434,3.434,0,0,1-2.955.46,7.4,7.4,0,0,1-2.379-1.327,26.418,26.418,0,0,1-2.443-3.1A7.388,7.388,0,0,0,19.947,21.8a7.814,7.814,0,0,0-9.113,4.567c-1.978,4.8.708,10.318,5.52,10.662,1.64.117,3.123.228,4.335.417a10.342,10.342,0,0,1,1.464.317c.855.268.512,1.474-.089,1.868a1.815,1.815,0,0,1-1.217.192c-3.669-.38-6.462.335-8.344,2.012A7.958,7.958,0,0,0,10,47.919a8.485,8.485,0,0,0,2.665,5.767,7.961,7.961,0,0,0,5.211,2.573c5.371,0,7.876-3.556,7.876-6.486a5.081,5.081,0,0,1,.3-1.94,1.2,1.2,0,0,1,1.705-.305c.2.165.786.888,1.009,3.558a5.208,5.208,0,0,0,2.406,4.1,6.946,6.946,0,0,0,4.184.954,8.563,8.563,0,0,0,4.01-1.3,5.586,5.586,0,0,0,2.561-3.538,6.485,6.485,0,0,0-1.452-5.622,14.732,14.732,0,0,0-2.865-2.477c-.582-.413-1.117-.972-.812-1.754a.658.658,0,0,1,.308-.376c.548-.264,1.028.185,1.386.517.492.457.954.946,1.445,1.405a7.5,7.5,0,0,0,5.037,2.384c2.466,0,4.417-1.884,5.389-3.654C51.312,40,51.934,37.2,50,35.258a7,7,0,0,0-3.772-1.894h0a4.863,4.863,0,0,1-1.259-.385,2.131,2.131,0,0,1-1.065-2.11,6.089,6.089,0,0,1,.643-2.528,6.616,6.616,0,0,1,5.7-3.594A6.8,6.8,0,0,0,55.371,14.3c-2.648-4.414-7.939-5.192-11.407-2.039A12.784,12.784,0,0,0,41.07,16.39c-.911,1.858-1.616,2.575-3.49,1.122-1.057-.82-1.483-2.471-2.174-3.588a8.334,8.334,0,0,0-3.781-3.362Zm-6.141,5.521a3.1,3.1,0,0,1,4.587-2.156,4.646,4.646,0,0,1,2.182,1.946c.689,1.114,1.189,2.329,1.917,3.422a6.855,6.855,0,0,0,2.78,2.155,5.04,5.04,0,0,0,4.841.011A7.7,7.7,0,0,0,44.4,18.022a9.2,9.2,0,0,1,2.06-3.016c1.629-1.481,4.214-1.332,5.735,1.2a3.1,3.1,0,0,1-2.285,4.845A10.308,10.308,0,0,0,41.22,26.7a9.79,9.79,0,0,0-1.026,4.1,5.684,5.684,0,0,0,3.027,5.452,7.636,7.636,0,0,0,1.954.678,4.181,4.181,0,0,1,2.2.952c.147.147.422.819-.256,2.054a2.983,2.983,0,0,1-2.14,1.732,3.954,3.954,0,0,1-2.508-1.386c-.494-.461-.958-.952-1.452-1.412a5.592,5.592,0,0,0-1.94-1.277,4.7,4.7,0,0,0-3.576.135,4.354,4.354,0,0,0-2.153,2.368c-.947,2.426.2,4.748,2.184,6.172l0,0a10.759,10.759,0,0,1,2.092,1.772,2.793,2.793,0,0,1,.669,2.528,1.924,1.924,0,0,1-.94,1.153,4.859,4.859,0,0,1-2.249.716,3.276,3.276,0,0,1-1.944-.384,1.516,1.516,0,0,1-.7-1.276c-.241-2.89-.929-4.947-2.35-6.114a5.173,5.173,0,0,0-4.128-.9,4.135,4.135,0,0,0-3.317,2.563,8.657,8.657,0,0,0-.623,3.446c0,.776-.738,2.78-4.17,2.78a4.523,4.523,0,0,1-2.584-1.481,4.846,4.846,0,0,1-1.586-3.152A4.279,4.279,0,0,1,14.968,44.6c.84-.748,2.449-1.408,5.5-1.093a5.472,5.472,0,0,0,3.627-.777,4.914,4.914,0,0,0,1.921-2.478,5.764,5.764,0,0,0,.288-2.684,3.749,3.749,0,0,0-1.245-2.447,5.5,5.5,0,0,0-1.794-.9,13.942,13.942,0,0,0-2-.443c-1.393-.217-3.038-.337-4.641-.452-1.674-.12-3.622-2.481-2.356-5.554a4.108,4.108,0,0,1,4.786-2.382,3.7,3.7,0,0,1,2,1.347,29.549,29.549,0,0,0,2.827,3.5A11.019,11.019,0,0,0,27.4,32.275a7.121,7.121,0,0,0,6.311-.814,5.455,5.455,0,0,0,2.647-5.733,5.685,5.685,0,0,0-4.025-4.081c-1.514-.536-3.117-.74-4.649-1.212a3.022,3.022,0,0,1-1.946-1.6,4.4,4.4,0,0,1-.256-2.751Z" transform="translate(-10 -9.866)" fill-rule="evenodd"/>
        <path id="Path_1245424" data-name="Path 1245424" d="M94.129,88.553a4.762,4.762,0,0,0-3.1-2.423,9.641,9.641,0,0,0-2.836-.2l-.057,0a6.419,6.419,0,0,0-2.056.35,6.222,6.222,0,0,0-3.688,3.612,4.751,4.751,0,0,0,.74,4.588,7.16,7.16,0,0,0,2.21,1.9c2.47,1.331,5.267.287,6.955-1.127,1.66-1.391,3.249-4.044,1.832-6.7Zm-4.037,1.163c1.5.391.624,2.028-.177,2.7a2.735,2.735,0,0,1-2.816.7c-.66-.355-1.526-1.133-1.224-1.964A2.527,2.527,0,0,1,87.4,89.742a5.15,5.15,0,0,1,2.693-.026Z" transform="translate(-48.694 -50.676)" fill-rule="evenodd"/>
        <path id="Path_1245425" data-name="Path 1245425" d="M12.759,10.619a4.963,4.963,0,0,1,2.854-.6,5.452,5.452,0,0,1,4.223,2.211,5.182,5.182,0,0,1,.04,6.33,5.706,5.706,0,0,1-3.854,2.1,7.11,7.11,0,0,1-3.619-.309,4.208,4.208,0,0,1-1.991-2.472,6.334,6.334,0,0,1-.156-4.025,5.563,5.563,0,0,1,2.5-3.236Zm1.89,3.188a1.858,1.858,0,0,0-.839,1.1c-.419,1.413.227,2.3,1.66,2.086a2.195,2.195,0,0,0,1.389-.584,1.545,1.545,0,0,0,.04-1.919,1.852,1.852,0,0,0-.713-.6A2.008,2.008,0,0,0,14.648,13.807Z" transform="translate(-10 -9.943)" fill-rule="evenodd"/>
        <path id="Path_1245426" data-name="Path 1245426" d="M97.116,51.383a4.4,4.4,0,0,1-3.065.963,5.2,5.2,0,0,1-4.44-4.3,3.682,3.682,0,0,1,.406-2.766A5.788,5.788,0,0,1,92.5,43.5a4.791,4.791,0,0,1,3.734-.069,4.653,4.653,0,0,1,.884,7.956Zm-2.24-2.953a1,1,0,0,0,.307-1.208c-.289-.561-.831-.473-1.318-.28-.785.312-.779.755-.094,1.4a.744.744,0,0,0,1.106.085Z" transform="translate(-52.677 -27.689)" fill-rule="evenodd"/>
      </g>
    </g>
  </g>
</svg>
