<svg xmlns="http://www.w3.org/2000/svg" width="98" height="97.999" viewBox="0 0 98 97.999">
  <g id="Group_1204887" data-name="Group 1204887" transform="translate(-285 -4951)">
    <g id="Group_1204625" data-name="Group 1204625" transform="translate(-517.781 2412.984)">
      <g id="Group_1204237" data-name="Group 1204237" transform="translate(-1 566)">
        <g id="Group_1204143" data-name="Group 1204143" transform="translate(-67.331 1694.852)">
          <g id="Group_1188789" data-name="Group 1188789" transform="translate(871.113 277.164)">
            <path id="Path_1243039" data-name="Path 1243039" d="M41.05,0h0a41.05,41.05,0,0,1,0,82.1h0a41.05,41.05,0,0,1,0-82.1Z" transform="translate(7.951 7.949)" fill="#ffc94a"/>
            <rect id="Rectangle_400907" data-name="Rectangle 400907" width="88.438" height="88.437" rx="44.218" transform="translate(4.782 4.781)" fill="none"/>
            <g id="Group_1098742" data-name="Group 1098742" transform="translate(0)">
              <g id="Rectangle_400898" data-name="Rectangle 400898" transform="translate(0)" fill="none" stroke="#fff" stroke-width="2" opacity="0.859">
                <rect width="98" height="97.999" rx="48.999" stroke="none"/>
                <rect x="1" y="1" width="96" height="95.999" rx="47.999" fill="none"/>
              </g>
              <g id="Rectangle_400907-2" data-name="Rectangle 400907" transform="translate(0)" fill="none" stroke="#0f1f33" stroke-linecap="round" stroke-width="2">
                <rect width="98" height="97.999" rx="48.999" stroke="none"/>
                <rect x="1" y="1" width="96" height="95.999" rx="47.999" fill="none"/>
              </g>
            </g>
          </g>
        </g>
      </g>
    </g>
    <g id="inspeccion" transform="translate(312.03 4971.304)">
      <g id="Group_1204886" data-name="Group 1204886" transform="translate(0.812 0.806)">
        <g id="Group_1204883" data-name="Group 1204883">
          <path id="Path_1245632" data-name="Path 1245632" d="M44.614,50.352a2.236,2.236,0,0,1,2.232,2.232V93.65a2.236,2.236,0,0,1-2.232,2.232H10.244A2.236,2.236,0,0,1,8.012,93.65V52.584a2.236,2.236,0,0,1,2.232-2.232h34.37Z" transform="translate(-8.012 -46.102)" fill="#837683" fill-rule="evenodd"/>
          <path id="Path_1245633" data-name="Path 1245633" d="M344.011,95.883h2.88a2.236,2.236,0,0,0,2.232-2.232V52.585a2.236,2.236,0,0,0-2.232-2.232h-2.88Z" transform="translate(-310.289 -46.103)" fill="#685e68" fill-rule="evenodd"/>
          <path id="Path_1245634" data-name="Path 1245634" d="M70.568,81.287H39.951a1.006,1.006,0,0,0-1,1V119.6a1.006,1.006,0,0,0,1,1H70.568a1.006,1.006,0,0,0,1-1V82.291A1.006,1.006,0,0,0,70.568,81.287Z" transform="translate(-35.842 -73.932)" fill="#eceff1" fill-rule="evenodd"/>
          <path id="Path_1245635" data-name="Path 1245635" d="M344.011,120.608h1c.032,0,.063,0,.094,0a1.006,1.006,0,0,0,.91-1V82.292a1.006,1.006,0,0,0-.91-1q-.046,0-.094,0h-1Z" transform="translate(-310.289 -73.933)" fill="#d1d1d6" fill-rule="evenodd"/>
          <path id="Path_1245636" data-name="Path 1245636" d="M116.868,10.9h3.181a.986.986,0,0,0,.922-.607,3.8,3.8,0,0,1,6.972,0,.985.985,0,0,0,.922.607h3.181a1.006,1.006,0,0,1,1,1v3.8a1.006,1.006,0,0,1-1,1H116.868a1.006,1.006,0,0,1-1-1v-3.8A1.006,1.006,0,0,1,116.868,10.9Z" transform="translate(-105.04 -8.002)" fill="#e3a76f" fill-rule="evenodd"/>
          <path id="Path_1245637" data-name="Path 1245637" d="M131.042,41.709H115.864a1.006,1.006,0,0,0,1,1h15.178a1.006,1.006,0,0,0,1-1v-3.8a1.006,1.006,0,0,0-1-1v3.8a1.005,1.005,0,0,1-1,1Z" transform="translate(-105.04 -34.009)" fill="#c48958" fill-rule="evenodd"/>
        </g>
        <g id="Group_1204884" data-name="Group 1204884" transform="translate(8.359 14.01)">
          <path id="Path_1245638" data-name="Path 1245638" d="M92.537,147.592H96.3a1.246,1.246,0,0,1,1.242,1.242V152.6A1.246,1.246,0,0,1,96.3,153.84H92.537a1.246,1.246,0,0,1-1.242-1.242v-3.764A1.246,1.246,0,0,1,92.537,147.592Z" transform="translate(-91.295 -147.592)" fill="#ffe177" fill-rule="evenodd"/>
          <path id="Path_1245639" data-name="Path 1245639" d="M92.537,252.773H96.3a1.246,1.246,0,0,1,1.242,1.242v3.764a1.246,1.246,0,0,1-1.242,1.242H92.537a1.246,1.246,0,0,1-1.242-1.242v-3.764A1.246,1.246,0,0,1,92.537,252.773Z" transform="translate(-91.295 -242.217)" fill="#6cf5c2" fill-rule="evenodd"/>
          <path id="Path_1245640" data-name="Path 1245640" d="M92.537,357.954H96.3a1.246,1.246,0,0,1,1.242,1.242v3.764A1.246,1.246,0,0,1,96.3,364.2H92.537a1.246,1.246,0,0,1-1.242-1.242V359.2A1.246,1.246,0,0,1,92.537,357.954Z" transform="translate(-91.295 -336.841)" fill="#8ac9fe" fill-rule="evenodd"/>
        </g>
        <g id="Group_1204885" data-name="Group 1204885" transform="translate(15.948 16.85)">
          <path id="Path_1245641" data-name="Path 1245641" d="M374.644,373.918a10.419,10.419,0,0,1-1.759,1.937l4.783,4.689,1.821-1.877Z" transform="translate(-352.213 -354.043)" fill="#a79ba7" fill-rule="evenodd"/>
          <path id="Path_1245642" data-name="Path 1245642" d="M386.067,373.6a1.2,1.2,0,0,1-.521.7l4.751,4.72.582-.638Z" transform="translate(-363.604 -353.754)" fill="#837683" fill-rule="evenodd"/>
          <path id="Path_1245643" data-name="Path 1245643" d="M415.371,417.756l2.055-2.118a.945.945,0,0,0-.02-1.332l-5.692-5.523a.945.945,0,0,0-1.333.02l-2.055,2.118a.945.945,0,0,0,.02,1.333l5.692,5.523A.945.945,0,0,0,415.371,417.756Z" transform="translate(-383.86 -385.17)" fill="#f1ba84" fill-rule="evenodd"/>
          <path id="Path_1245644" data-name="Path 1245644" d="M433.958,408.783l5.692,5.523a.945.945,0,0,1,.02,1.332l-2.055,2.118a.935.935,0,0,1-.255.187.946.946,0,0,0,1.1-.186l2.055-2.118a.945.945,0,0,0-.02-1.332l-5.692-5.523a.946.946,0,0,0-1.077-.167A.935.935,0,0,1,433.958,408.783Z" transform="translate(-406.945 -385.171)" fill="#e3a76f" fill-rule="evenodd"/>
          <ellipse id="Ellipse_12482" data-name="Ellipse 12482" cx="10.365" cy="10.365" rx="10.365" ry="10.365" transform="translate(0 14.657) rotate(-45)" fill="#8ac9fe"/>
          <ellipse id="Ellipse_12483" data-name="Ellipse 12483" cx="7.443" cy="7.443" rx="7.443" ry="7.443" transform="matrix(0.352, -0.936, 0.936, 0.352, 5.082, 19.015)" fill="#eceff1"/>
        </g>
      </g>
      <path id="Path_1245645" data-name="Path 1245645" d="M20.229,2.913a1,1,0,1,0,1,1,1.005,1.005,0,0,0-1-1Zm17.835,29.4a6.64,6.64,0,1,0-6.64,6.64A6.648,6.648,0,0,0,38.064,32.312Zm1.606,0a8.246,8.246,0,1,1-8.246-8.246A8.255,8.255,0,0,1,39.67,32.312ZM49.748,47.367l-5.692-5.523a.132.132,0,0,0-.1-.038h0a.133.133,0,0,0-.1.041L41.8,43.965a.142.142,0,0,0,0,.2L47.5,49.686a.143.143,0,0,0,.2,0l2.055-2.118A.144.144,0,0,0,49.748,47.367Zm-10.9.987a1.431,1.431,0,0,1-1.429,1.429H3.044a1.431,1.431,0,0,1-1.429-1.429V7.288A1.431,1.431,0,0,1,3.044,5.859h7.789v1.5H3.917a.8.8,0,0,0-.8.8V47.48a.8.8,0,0,0,.8.8H36.541a.8.8,0,0,0,.8-.8v-5.7q.393-.247.764-.524l.736.722v6.378ZM11.637,10.313H28.821a.8.8,0,0,0,.8-.8V8.964h6.114V22.011A11.16,11.16,0,0,0,22.61,25.461H20.8a.8.8,0,0,0,0,1.606h.766A11.1,11.1,0,0,0,20.5,29.982a.8.8,0,0,0-.2,1.37c-.027.316-.042.636-.042.959a11.12,11.12,0,0,0,.633,3.705H20.8a.8.8,0,0,0,0,1.606h.8a11.222,11.222,0,0,0,2.215,2.857H20.8a.8.8,0,0,0,0,1.606h5.225a11.158,11.158,0,0,0,9.713.527v4.065H4.72V8.964h6.114V9.51a.8.8,0,0,0,.8.8Zm.8-1.606V4.51h4.1a.8.8,0,0,0,.78-.614,2.992,2.992,0,0,1,5.816,0,.8.8,0,0,0,.781.614h4.1v4.2ZM29.624,5.859v1.5h6.917a.8.8,0,0,1,.8.8V22.846a11.342,11.342,0,0,1,1.5,1.126V7.288a1.431,1.431,0,0,0-1.429-1.429ZM40.985,32.312a9.562,9.562,0,1,1-9.562-9.562A9.573,9.573,0,0,1,40.985,32.312ZM40,39.452c-.216.258-.443.508-.68.746l2,1.959.7-.725Zm10.9,9.23L48.849,50.8h0a1.746,1.746,0,0,1-2.467.037l-5.693-5.523a1.763,1.763,0,0,1-.239-.29v3.329a3.039,3.039,0,0,1-3.035,3.035H3.044A3.038,3.038,0,0,1,.009,48.354V7.288A3.039,3.039,0,0,1,3.044,4.253h7.789V3.707a.8.8,0,0,1,.8-.8h4.318a4.6,4.6,0,0,1,8.549,0h4.318a.8.8,0,0,1,.8.8v.546h7.79a3.039,3.039,0,0,1,3.035,3.035V25.742a11.151,11.151,0,0,1,.5,12.39l2.272,2.23a1.753,1.753,0,0,1,.709-.161,1.711,1.711,0,0,1,1.241.492l5.692,5.523A1.747,1.747,0,0,1,50.9,48.683ZM14.615,40.029,14,40.588a.8.8,0,0,1-1.108-.027l-1.827-1.828A.8.8,0,0,1,12.2,37.6l1.286,1.287,1.127-1.024v-.69a.446.446,0,0,0-.439-.44H10.412a.445.445,0,0,0-.439.44v3.764a.444.444,0,0,0,.439.439h3.764a.445.445,0,0,0,.439-.439v-.9Zm3.879-4.6a.8.8,0,0,0-1.135-.054l-1.251,1.135a2.046,2.046,0,0,0-1.932-1.381H10.413A2.048,2.048,0,0,0,8.368,37.17v3.764a2.047,2.047,0,0,0,2.045,2.044h3.764a2.047,2.047,0,0,0,2.045-2.044V38.572l2.218-2.013a.8.8,0,0,0,.055-1.134Zm-3.879-5.952L14,30.03A.8.8,0,0,1,12.893,30l-1.827-1.828A.8.8,0,0,1,12.2,27.042l1.286,1.286L14.615,27.3v-.691a.445.445,0,0,0-.439-.439H10.412a.445.445,0,0,0-.439.439v3.764a.444.444,0,0,0,.439.439h3.764a.445.445,0,0,0,.439-.439v-.9Zm3.879-4.6a.8.8,0,0,0-1.135-.055L16.108,25.95a2.047,2.047,0,0,0-1.932-1.381H10.413a2.047,2.047,0,0,0-2.045,2.045v3.764a2.047,2.047,0,0,0,2.045,2.044h3.764a2.047,2.047,0,0,0,2.045-2.044V28.016L18.439,26a.8.8,0,0,0,.055-1.134Zm-4.318-9.25H10.413a.444.444,0,0,0-.439.439V19.82a.445.445,0,0,0,.439.44h3.764a.445.445,0,0,0,.439-.44v-.9L14,19.474a.8.8,0,0,1-1.108-.026l-1.827-1.828A.8.8,0,0,1,12.2,16.486l1.286,1.286,1.127-1.023v-.691a.445.445,0,0,0-.439-.439Zm-3.764-1.606a2.047,2.047,0,0,0-2.045,2.045V19.82a2.048,2.048,0,0,0,2.045,2.045h3.764a2.047,2.047,0,0,0,2.045-2.045V17.46l2.218-2.013a.8.8,0,1,0-1.079-1.189l-1.251,1.136a2.047,2.047,0,0,0-1.932-1.381ZM20.8,16.51H31.287a.8.8,0,0,0,0-1.606H20.8a.8.8,0,0,0,0,1.606Zm-.8,3.66a.8.8,0,0,0,.8.8h6.734a.8.8,0,1,0,0-1.606H20.8A.8.8,0,0,0,20,20.171Z" fill-rule="evenodd"/>
    </g>
  </g>
</svg>
