<svg xmlns="http://www.w3.org/2000/svg" width="98" height="97.999" viewBox="0 0 98 97.999">
  <g id="Group_1204870" data-name="Group 1204870" transform="translate(-426 -1064)">
    <g id="Group_1204525" data-name="Group 1204525" transform="translate(-376.781 -1474.016)">
      <g id="Group_1204237" data-name="Group 1204237" transform="translate(-1 566)">
        <g id="Group_1204143" data-name="Group 1204143" transform="translate(-67.331 1694.852)">
          <g id="Group_1188789" data-name="Group 1188789" transform="translate(871.113 277.164)">
            <path id="Path_1243039" data-name="Path 1243039" d="M41.05,0h0a41.05,41.05,0,0,1,0,82.1h0a41.05,41.05,0,0,1,0-82.1Z" transform="translate(7.951 7.949)" fill="#ffc94a"/>
            <rect id="Rectangle_400907" data-name="Rectangle 400907" width="88.438" height="88.437" rx="44.218" transform="translate(4.782 4.781)" fill="none"/>
            <g id="Group_1098742" data-name="Group 1098742" transform="translate(0)">
              <g id="Rectangle_400898" data-name="Rectangle 400898" transform="translate(0)" fill="none" stroke="#fff" stroke-width="2" opacity="0.859">
                <rect width="98" height="97.999" rx="48.999" stroke="none"/>
                <rect x="1" y="1" width="96" height="95.999" rx="47.999" fill="none"/>
              </g>
              <g id="Rectangle_400907-2" data-name="Rectangle 400907" transform="translate(0)" fill="none" stroke="#0f1f33" stroke-linecap="round" stroke-width="2">
                <rect width="98" height="97.999" rx="48.999" stroke="none"/>
                <rect x="1" y="1" width="96" height="95.999" rx="47.999" fill="none"/>
              </g>
            </g>
          </g>
        </g>
      </g>
    </g>
    <g id="botas" transform="translate(451 1086.087)">
      <g id="Group_1204859" data-name="Group 1204859" transform="translate(12.419 2.724)">
        <path id="Path_1245556" data-name="Path 1245556" d="M142.592,17.432l10.574-2.794a.973.973,0,0,0,.236-.033.857.857,0,0,0,.616-.819V10.358a.853.853,0,0,0-.852-.852H130.641a.855.855,0,0,0-.854.852V13.45Z" transform="translate(-129.787 -9.506)" fill="#f5a96c" fill-rule="evenodd"/>
      </g>
      <g id="Group_1204860" data-name="Group 1204860" transform="translate(0.718 6.668)">
        <path id="Path_1245557" data-name="Path 1245557" d="M8.352,55.855l11.263,3.6,11.263-3.6a.835.835,0,0,0,.233-.033A.857.857,0,0,0,31.73,55V51.575a.855.855,0,0,0-.852-.852H8.352a.853.853,0,0,0-.852.852V55a.858.858,0,0,0,.808.852Z" transform="translate(-7.5 -50.723)" fill="#ffbc85" fill-rule="evenodd"/>
      </g>
      <g id="Group_1204861" data-name="Group 1204861" transform="translate(1.526 11.767)">
        <path id="Path_1245558" data-name="Path 1245558" d="M52.749,134.03c-.005-.065.013-.138-.019-.193-6.125-10.438-13.361-28.9-13.979-29.821a.82.82,0,0,1-.233.033H15.947c.8,5.33,1.3,9.806,1.546,13.918a107.375,107.375,0,0,1,.054,11.989c3.368,5.277,5.582,6.256,9.019,7.826H52.795v-2.7C52.795,134.7,52.778,134.355,52.749,134.03Z" transform="translate(-15.947 -104.016)" fill="#fde588" fill-rule="evenodd"/>
      </g>
      <g id="Group_1204862" data-name="Group 1204862" transform="translate(2.546 45.532)">
        <path id="Path_1245559" data-name="Path 1245559" d="M26.606,459.382a1.838,1.838,0,0,0,1.8,1.866h9.314l2.007-1.511,2.037,1.511h4.419l1.516-1.511,1.519,1.511h1.519l1.519-1.511,1.519,1.511h5.064a1.838,1.838,0,0,0,1.8-1.866v-2.5H26.606Z" transform="translate(-26.606 -456.884)" fill="#7e707d" fill-rule="evenodd"/>
      </g>
      <g id="Group_1204863" data-name="Group 1204863" transform="translate(2.546 37.707)">
        <path id="Path_1245560" data-name="Path 1245560" d="M27.186,375.1c-.122,2.506-.32,5.07-.58,7.826h9.6c-.947-4.061-4.4-7.826-9.019-7.826Z" transform="translate(-26.606 -375.101)" fill="#ffbc85" fill-rule="evenodd"/>
      </g>
      <g id="Group_1204864" data-name="Group 1204864" transform="translate(36.524 41.781)">
        <path id="Path_1245561" data-name="Path 1245561" d="M381.749,418.725v3.317h1.806l1.519-1.511,1.519,1.511h5.064a1.838,1.838,0,0,0,1.8-1.866v-2.5H381.7C381.733,418,381.749,418.351,381.749,418.725Z" transform="translate(-381.703 -417.678)" fill="#7e707d" fill-rule="evenodd"/>
      </g>
      <g id="Group_1204865" data-name="Group 1204865" transform="translate(22.372 7.856)">
        <path id="Path_1245562" data-name="Path 1245562" d="M246.476,85.352c-.778-1.473-1.112-4.522-.914-8.664a85.813,85.813,0,0,1,1.9-13.549.855.855,0,0,1-.236.033h-10.85v3.089a.857.857,0,0,1-.618.819,95.919,95.919,0,0,0-1.584,9.608c-.155,1.4-.258,2.718-.317,3.941-.2,4.142.136,7.191.914,8.664,3.176,6.008,12.3.011,13.163,7.579v0c.008.062.014.125.019.19H259.7v-2.9C259.7,84.736,249.81,91.658,246.476,85.352Z" transform="translate(-233.802 -63.139)" fill="#fde588" fill-rule="evenodd"/>
      </g>
      <path id="Path_1245563" data-name="Path 1245563" d="M350.266,461.248h1.259a1.838,1.838,0,0,0,1.8-1.866v-2.5h-3.054v4.364Z" transform="translate(-316.75 -411.352)" fill="#6a5c69" fill-rule="evenodd"/>
      <path id="Path_1245564" data-name="Path 1245564" d="M466.459,417.679v4.364H468.3a1.838,1.838,0,0,0,1.8-1.866v-2.5Z" transform="translate(-421.825 -375.898)" fill="#6a5c69" fill-rule="evenodd"/>
      <g id="Group_1204866" data-name="Group 1204866" transform="translate(19.318 25.329)">
        <path id="Path_1245565" data-name="Path 1245565" d="M201.94,245.752c-.2,4.145.136,8.919.914,10.394,3.176,6.014,13.331,2.4,13.163,7.462l.065,2.346h3.054v-2.7c0-.374-.016-.721-.046-1.047l-.019-.193c-.86-7.573-9.987-1.573-13.163-7.587-.778-1.476-1.112-4.527-.914-8.672Z" transform="translate(-201.884 -245.752)" fill="#fdd76f" fill-rule="evenodd"/>
      </g>
      <g id="Group_1204867" data-name="Group 1204867" transform="translate(19.374 11.767)">
        <path id="Path_1245566" data-name="Path 1245566" d="M204.36,104.048a96.806,96.806,0,0,0-1.576,9.586c-.155,1.4-.258,2.721-.317,3.944h3.054c.06-1.223.163-2.542.317-3.944a96.106,96.106,0,0,1,1.584-9.619.82.82,0,0,1-.233.033H204.36Z" transform="translate(-202.467 -104.015)" fill="#fdd76f" fill-rule="evenodd"/>
      </g>
      <g id="Group_1204868" data-name="Group 1204868" transform="translate(30.492 7.856)">
        <path id="Path_1245567" data-name="Path 1245567" d="M320.553,63.171a85.89,85.89,0,0,0-1.891,13.5.047.047,0,0,0,0,.019h3.64a85.821,85.821,0,0,1,1.9-13.549.01.01,0,0,0-.008,0,.906.906,0,0,1-.228.03h-3.412Z" transform="translate(-318.66 -63.138)" fill="#fdd76f" fill-rule="evenodd"/>
      </g>
      <g id="Group_1204869" data-name="Group 1204869" transform="translate(30.465 21.405)">
        <path id="Path_1245568" data-name="Path 1245568" d="M318.407,204.734c-.2,4.142.743,9.166,1.522,10.638,3.336,6.307,12.621-.008,12.621,9.426v.312h3.64v-2.9c0-9.429-9.895-2.506-13.228-8.813-.635-1.2-.974-3.445-.971-6.475q0-1.038.057-2.189h-3.64Z" transform="translate(-318.381 -204.734)" fill="#fdd76f" fill-rule="evenodd"/>
      </g>
      <path id="Path_1245569" data-name="Path 1245569" d="M260.72,55.489h.166C260.812,55.466,260.727,55.469,260.72,55.489Z" transform="translate(-235.772 -48.351)"/>
      <path id="Path_1245570" data-name="Path 1245570" d="M42,32.512c-2.582-.171-5.021-.332-6.319-2.79-.8-1.511-1.321-5.8-.389-13.323a.718.718,0,0,0-1.424-.176c-.2,1.575-.333,3.061-.417,4.446h-9.9c.3-2.508.762-5.323,1.414-8.411a1.569,1.569,0,0,0,.706-1.309V8.573h9.476c-.292,1.416-.555,2.835-.782,4.228a.718.718,0,1,0,1.417.231c.254-1.555.554-3.142.889-4.722A1.569,1.569,0,0,0,37.367,7V3.575A1.571,1.571,0,0,0,35.8,2.006H13.273A1.572,1.572,0,0,0,11.7,3.575V5.95H1.569A1.571,1.571,0,0,0,0,7.519v3.429a1.57,1.57,0,0,0,.883,1.409,120.885,120.885,0,0,1,.949,33.1v.007c0,.01,0,.02,0,.03s0,.025,0,.038v2.5a2.552,2.552,0,0,0,2.513,2.584h9.314a.718.718,0,0,0,.432-.144l1.579-1.188,1.606,1.191a.718.718,0,0,0,.428.141h4.419a.718.718,0,0,0,.507-.209l1.01-1.007,1.012,1.007a.718.718,0,0,0,.506.209h1.519a.718.718,0,0,0,.506-.209L28.192,49.4,29.2,50.405a.718.718,0,0,0,.506.209h5.064a2.552,2.552,0,0,0,2.513-2.584V46.863h1.089a.718.718,0,0,0,.506-.209L39.9,45.647l1.013,1.007a.718.718,0,0,0,.506.209h5.064a2.552,2.552,0,0,0,2.513-2.584v-5.4c0-5.906-3.715-6.152-6.993-6.369ZM13.137,3.575a.137.137,0,0,1,.137-.134H35.8a.136.136,0,0,1,.134.134V7a.138.138,0,0,1-.1.13l-.011,0-.019,0H25.616A1.571,1.571,0,0,0,24.1,5.95H13.137Zm-1.9,7.507H1.569a.136.136,0,0,1-.134-.134V7.519a.136.136,0,0,1,.134-.134H24.1a.138.138,0,0,1,.134.134v3.429a.138.138,0,0,1-.134.134H14.51a.718.718,0,1,0,0,1.435h8.928a87.449,87.449,0,0,0-1.683,12.095H12.449a4.25,4.25,0,0,0-2.668.548c-.728.561-1.039,1.523-1.039,3.215,0,.33-.085.52-.164.558-.129.06-.518-.015-1.066-.47L3.763,25.358c-.241-3.812-.69-7.973-1.4-12.841h8.878a.718.718,0,1,0,0-1.435ZM3.807,38.457c3.65.327,6.342,3.245,7.387,6.358H3.333c.2-2.2.362-4.293.474-6.358ZM35.853,48.03a1.116,1.116,0,0,1-1.078,1.149H30.007l-1.309-1.3a.718.718,0,0,0-1.012,0l-1.309,1.3H25.45l-1.309-1.3a.718.718,0,0,0-1.013,0l-1.306,1.3H17.937l-1.847-1.37a.718.718,0,0,0-.859,0l-1.815,1.367H4.341A1.116,1.116,0,0,1,3.263,48.03V46.25H35.853v1.78Zm0-3.216H12.7a11.56,11.56,0,0,0-3.2-5.244,9.318,9.318,0,0,0-5.623-2.549c.137-3.177.149-6.324-.007-9.711L6.6,29.568a2.98,2.98,0,0,0,1.878.819,1.674,1.674,0,0,0,.715-.154,1.92,1.92,0,0,0,.989-1.857c0-1.15.157-1.83.479-2.079a3.392,3.392,0,0,1,1.792-.25h9.239c-.128,3.807.2,6.748,1.02,8.289,1.673,3.167,4.766,3.372,7.495,3.553,3.28.217,5.651.374,5.651,4.938v1.987Zm11.7-.535a1.116,1.116,0,0,1-1.078,1.149H41.711l-1.309-1.3a.718.718,0,0,0-1.012,0l-1.309,1.3h-.793v-2.6c0-.112,0-.221,0-.329H47.557Zm0-3.216h-10.4c-.687-4.2-3.946-4.413-6.859-4.606-2.582-.171-5.022-.333-6.321-2.791-.828-1.567-1.189-5.588-.59-11.563h10c-.13,3.851.219,6.756,1.03,8.289,1.672,3.166,4.765,3.371,7.493,3.552,3.281.217,5.652.374,5.652,4.937Z"/>
    </g>
  </g>
</svg>
