<svg xmlns="http://www.w3.org/2000/svg" width="98" height="97.999" viewBox="0 0 98 97.999">
  <g id="Group_1204912" data-name="Group 1204912" transform="translate(-909 -5176)">
    <g id="Group_1204630" data-name="Group 1204630" transform="translate(106.219 2637.984)">
      <g id="Group_1204237" data-name="Group 1204237" transform="translate(-1 566)">
        <g id="Group_1204143" data-name="Group 1204143" transform="translate(-67.331 1694.852)">
          <g id="Group_1188789" data-name="Group 1188789" transform="translate(871.113 277.164)">
            <path id="Path_1243039" data-name="Path 1243039" d="M41.05,0h0a41.05,41.05,0,0,1,0,82.1h0a41.05,41.05,0,0,1,0-82.1Z" transform="translate(7.951 7.949)" fill="#ffc94a"/>
            <rect id="Rectangle_400907" data-name="Rectangle 400907" width="88.438" height="88.437" rx="44.218" transform="translate(4.782 4.781)" fill="none"/>
            <g id="Group_1098742" data-name="Group 1098742" transform="translate(0)">
              <g id="Rectangle_400898" data-name="Rectangle 400898" transform="translate(0)" fill="none" stroke="#fff" stroke-width="2" opacity="0.859">
                <rect width="98" height="97.999" rx="48.999" stroke="none"/>
                <rect x="1" y="1" width="96" height="95.999" rx="47.999" fill="none"/>
              </g>
              <g id="Rectangle_400907-2" data-name="Rectangle 400907" transform="translate(0)" fill="none" stroke="#0f1f33" stroke-linecap="round" stroke-width="2">
                <rect width="98" height="97.999" rx="48.999" stroke="none"/>
                <rect x="1" y="1" width="96" height="95.999" rx="47.999" fill="none"/>
              </g>
            </g>
          </g>
        </g>
      </g>
    </g>
    <g id="gafas-de-seguridad" transform="translate(924.365 5090.938)">
      <path id="Path_1245622" data-name="Path 1245622" d="M77.973,252.205l-1.845-3.248H55.835l-1.845,3.248H43.681l-1.845-3.248H21.543L19.7,252.205H17.5V260.3a2.3,2.3,0,0,0,1.843,2.252L42.912,267.3a1.844,1.844,0,0,0,2.155-1.364l1.7-6.859a2.133,2.133,0,0,1,4.141,0l1.7,6.859a1.844,1.844,0,0,0,2.155,1.364l23.568-4.753a2.3,2.3,0,0,0,1.843-2.252v-8.094Z" transform="translate(-15.201 -115.821)" fill="#ecf4ff"/>
      <path id="Path_1245623" data-name="Path 1245623" d="M307.11,252.206l-1.845-3.248H301.5l.352.62h2.2v8.094a2.3,2.3,0,0,1-1.843,2.252L281.3,264.142l.445,1.8A1.844,1.844,0,0,0,283.9,267.3l23.568-4.753a2.3,2.3,0,0,0,1.843-2.252v-8.094Z" transform="translate(-244.338 -115.822)" fill="#ddeafb"/>
      <path id="Path_1245624" data-name="Path 1245624" d="M41.232,123.117H35.278a7.186,7.186,0,0,0-3.593.963L11.93,135.709h8.378l13.844-7.993a1.614,1.614,0,0,1,.807-.216h4.083a3.286,3.286,0,0,0,3.286-3.286,1.1,1.1,0,0,0-1.1-1.1Z" transform="translate(-10.363 -6.515)" fill="#475959"/>
      <path id="Path_1245625" data-name="Path 1245625" d="M276.073,127.5a1.614,1.614,0,0,1,.807.216l13.844,7.993H299.1L279.348,124.08a7.186,7.186,0,0,0-3.593-.963H269.8a1.1,1.1,0,0,0-1.1,1.1,3.286,3.286,0,0,0,3.286,3.286h4.083Z" transform="translate(-233.4 -6.515)" fill="#475959"/>
      <path id="Path_1245626" data-name="Path 1245626" d="M7.5,218.957v7.19h3.512l1.845-3.248H33.15l1.845,3.248H45.3l1.845-3.248H67.442l1.845,3.248H72.8v-7.19Z" transform="translate(-6.515 -89.763)" fill="#617881"/>
      <path id="Path_1245627" data-name="Path 1245627" d="M21.543,248.957,19.7,252.205H17.5V260.3a2.293,2.293,0,0,0,.466,1.388h0L25,257.205a.886.886,0,0,0,.41-.748v-7.5H21.543Z" transform="translate(-15.201 -115.821)" fill="#bed8fb"/>
      <path id="Path_1245628" data-name="Path 1245628" d="M438.133,248.957l1.845,3.248h2.2V260.3a2.293,2.293,0,0,1-.466,1.388h0l-7.038-4.481a.886.886,0,0,1-.41-.748v-7.5Z" transform="translate(-377.206 -115.821)" fill="#bed8fb"/>
      <path id="Path_1245629" data-name="Path 1245629" d="M439.771,250.581l-.922-1.624h-3.763l.352.62h2.2v8.094a2.291,2.291,0,0,1-.167.86l4.956,3.155h0a2.29,2.29,0,0,0,.466-1.388V252.2h-2.2Z" transform="translate(-377.922 -115.821)" fill="#9dc6fb"/>
      <path id="Path_1245630" data-name="Path 1245630" d="M66.284,128.209H65.97l-19.53-11.5a8.183,8.183,0,0,0-4.086-1.095H36.4a2.084,2.084,0,0,0-2.082,2.082,4.277,4.277,0,0,0,4.272,4.272h4.083a.629.629,0,0,1,.314.084l10.659,6.154H50.964a.985.985,0,0,0,0,1.971H65.3V135.4H63.345l-1.562-2.749a.985.985,0,0,0-.857-.5H40.634a.985.985,0,0,0-.857.5L38.216,135.4H29.054l-1.562-2.749a.985.985,0,0,0-.857-.5H6.342a.985.985,0,0,0-.857.5L3.924,135.4H1.971V130.18H46.366a.985.985,0,1,0,0-1.971H13.623l10.659-6.154a.629.629,0,0,1,.314-.084h4.083a4.277,4.277,0,0,0,4.272-4.272,2.084,2.084,0,0,0-2.082-2.082H24.915a8.191,8.191,0,0,0-4.093,1.1L9.665,123.284a.985.985,0,0,0,1,1.7l11.15-6.564a6.209,6.209,0,0,1,3.1-.831h5.954a.111.111,0,0,1,.111.111,2.3,2.3,0,0,1-2.3,2.3H24.6a2.6,2.6,0,0,0-1.3.348L9.681,128.209h-4.5l1.482-.873a.985.985,0,0,0-1-1.7L1.3,128.209H.985a.985.985,0,0,0-.985.985v7.19a.985.985,0,0,0,.985.985h.328v7.108A3.292,3.292,0,0,0,3.948,147.7l23.568,4.753a2.824,2.824,0,0,0,3.306-2.094l1.7-6.859a1.148,1.148,0,0,1,2.228,0l1.7,6.859a2.823,2.823,0,0,0,3.306,2.094l16.847-3.4a.985.985,0,1,0-.39-1.932l-16.847,3.4a.858.858,0,0,1-1-.636l-1.7-6.859a3.118,3.118,0,0,0-6.054,0l-1.7,6.859a.858.858,0,0,1-1,.636L4.657,145.828l5.675-3.613a1.863,1.863,0,0,0,.867-1.579v-6.515H26.062l1.562,2.749a.985.985,0,0,0,.857.5H38.789a.985.985,0,0,0,.857-.5l1.562-2.749H56.07v6.515a1.863,1.863,0,0,0,.866,1.579l5.675,3.613-1.9.382a.985.985,0,1,0,.39,1.932l2.216-.447a3.292,3.292,0,0,0,2.634-3.218v-7.108h.328a.985.985,0,0,0,.985-.985v-7.19a.986.986,0,0,0-.986-.985ZM9.228,140.582l-5.944,3.784v-7H4.5a.985.985,0,0,0,.857-.5l1.562-2.749H9.228Zm48.36-12.373-13.615-7.861a2.6,2.6,0,0,0-1.3-.348H38.59a2.3,2.3,0,0,1-2.3-2.3.111.111,0,0,1,.111-.111h5.954a6.2,6.2,0,0,1,3.093.827l16.638,9.795Zm6.4,16.157-5.944-3.784v-6.461h2.313l1.562,2.749a.985.985,0,0,0,.857.5h1.213Z"/>
      <path id="Path_1245631" data-name="Path 1245631" d="M226.212,241.457a.985.985,0,1,0,0,1.971h6.116a.985.985,0,1,0,0-1.971Z" transform="translate(-195.635 -109.306)"/>
    </g>
  </g>
</svg>
