<svg xmlns="http://www.w3.org/2000/svg" width="98" height="97.998" viewBox="0 0 98 97.998">
  <g id="Group_1204881" data-name="Group 1204881" transform="translate(-9619.949 10533.083)">
    <g id="Group_1204237" data-name="Group 1204237" transform="translate(8816.168 -12505.099)">
      <g id="Group_1204143" data-name="Group 1204143" transform="translate(-67.331 1694.852)">
        <g id="Group_1188789" data-name="Group 1188789" transform="translate(871.113 277.164)">
          <path id="Path_1243039" data-name="Path 1243039" d="M41.05,0h0a41.05,41.05,0,0,1,0,82.1h0a41.05,41.05,0,0,1,0-82.1Z" transform="translate(7.951 7.949)" fill="#ffc94a"/>
          <rect id="Rectangle_400907" data-name="Rectangle 400907" width="88.438" height="88.437" rx="44.218" transform="translate(4.782 4.781)" fill="none"/>
          <g id="Group_1098742" data-name="Group 1098742" transform="translate(0)">
            <g id="Rectangle_400898" data-name="Rectangle 400898" transform="translate(0)" fill="none" stroke="#fff" stroke-width="2" opacity="0.859">
              <rect width="98" height="97.999" rx="48.999" stroke="none"/>
              <rect x="1" y="1" width="96" height="95.999" rx="47.999" fill="none"/>
            </g>
            <g id="Rectangle_400907-2" data-name="Rectangle 400907" transform="translate(0)" fill="none" stroke="#0f1f33" stroke-linecap="round" stroke-width="2">
              <rect width="98" height="97.999" rx="48.999" stroke="none"/>
              <rect x="1" y="1" width="96" height="95.999" rx="47.999" fill="none"/>
            </g>
          </g>
        </g>
      </g>
    </g>
    <g id="Group_1204879" data-name="Group 1204879" transform="translate(9649.185 -10501.739)">
      <path id="Path_1245617" data-name="Path 1245617" d="M130.991,117.689V128.8c0,10.869-9.542,19.755-20.5,19.755S90,139.677,90,128.8V117.689h2.467a21.974,21.974,0,0,0,10.172-2.758,16.927,16.927,0,0,1,15.712,0,21.974,21.974,0,0,0,10.172,2.758Z" transform="translate(-90 -112.997)" fill="#b3f1ff"/>
    </g>
    <g id="Group_1204880" data-name="Group 1204880" transform="translate(9638.072 -10503.221)">
      <path id="Path_1245618" data-name="Path 1245618" d="M171.928,241H147.235a1.235,1.235,0,0,0,0,2.469h24.693a1.235,1.235,0,0,0,0-2.469Z" transform="translate(-127.974 -223.712)"/>
      <path id="Path_1245619" data-name="Path 1245619" d="M172.386,173.556A39.157,39.157,0,0,0,159.581,171a39.162,39.162,0,0,0-12.805,2.558,1.235,1.235,0,0,0,.917,2.293,37.288,37.288,0,0,1,11.889-2.381,37.289,37.289,0,0,1,11.888,2.381,1.235,1.235,0,1,0,.917-2.293Z" transform="translate(-127.973 -162.356)"/>
      <path id="Path_1245620" data-name="Path 1245620" d="M171.467,291.084a37.289,37.289,0,0,1-11.889,2.381,37.291,37.291,0,0,1-11.889-2.381,1.235,1.235,0,0,0-.916,2.293,39.158,39.158,0,0,0,12.805,2.558,39.16,39.16,0,0,0,12.805-2.558,1.235,1.235,0,0,0-.917-2.293Z" transform="translate(-127.971 -267.537)"/>
      <path id="Path_1245621" data-name="Path 1245621" d="M58.07,101.086a6.177,6.177,0,0,0-7.075,4.855H49.636a20.749,20.749,0,0,1-9.6-2.617,18.162,18.162,0,0,0-16.859,0,20.751,20.751,0,0,1-9.6,2.617H12.22a6.176,6.176,0,0,0-7.075-4.855A6.369,6.369,0,0,0,0,107.439v9.1a17.82,17.82,0,0,0,17.773,17.8,21.845,21.845,0,0,0,27.669,0,17.719,17.719,0,0,0,9.82-2.97,1.235,1.235,0,1,0-1.368-2.056,15.227,15.227,0,0,1-5.622,2.29,20.41,20.41,0,0,0,5.065-13.314V107.175a3.706,3.706,0,0,1,4.335-3.652,3.883,3.883,0,0,1,3.073,3.916v9.1a15.325,15.325,0,0,1-.734,4.7,1.235,1.235,0,0,0,2.351.757,17.8,17.8,0,0,0,.853-5.459v-9.1a6.369,6.369,0,0,0-5.145-6.354Zm-55.6,15.452v-9.1a3.883,3.883,0,0,1,3.073-3.916,3.706,3.706,0,0,1,4.335,3.652v11.112A20.409,20.409,0,0,0,14.941,131.6,15.356,15.356,0,0,1,2.469,116.538Zm48.4,1.75c0,10.128-8.93,18.52-19.261,18.52s-19.261-8.393-19.261-18.52V108.41h1.232a23.177,23.177,0,0,0,10.746-2.9,15.692,15.692,0,0,1,14.565,0,23.178,23.178,0,0,0,10.746,2.9h1.232Z" transform="translate(0 -101.002)"/>
      <circle id="Ellipse_12481" data-name="Ellipse 12481" cx="1.5" cy="1.5" r="1.5" transform="translate(57 24.278)"/>
    </g>
  </g>
</svg>
