<svg xmlns="http://www.w3.org/2000/svg" width="89.501" height="89.501" viewBox="0 0 89.501 89.501">
  <g id="lacta" transform="translate(-1 -1)">
    <g id="Group_1205010" data-name="Group 1205010" transform="translate(2.444 67.403)">
      <path id="Path_1246075" data-name="Path 1246075" d="M3.732,55.517A4.334,4.334,0,0,1,2,52.052V47l3.381,1.69a4.331,4.331,0,0,1,2.393,3.873v5.985Z" transform="translate(-2 -47)" fill="#52565a"/>
    </g>
    <g id="Group_1205011" data-name="Group 1205011" transform="translate(28.428 64.516)">
      <path id="Path_1246076" data-name="Path 1246076" d="M37.323,45c0,3.986-3.877,7.218-8.661,7.218S20,48.986,20,45" transform="translate(-20 -45)" fill="#c66b60"/>
    </g>
    <g id="Group_1205012" data-name="Group 1205012" transform="translate(64.593 58.635)">
      <path id="Path_1246077" data-name="Path 1246077" d="M49.307,62.89v-.2l.473-1.894a80.871,80.871,0,0,0,2.414-19.606v-.26a18.719,18.719,0,0,1-5.47,5.678l-.3.2-.092.072q-.23,7.152-1.019,14.271l-.256,2.3a5.458,5.458,0,0,1,4.254-.556Z" transform="translate(-45.053 -40.926)" fill="#a8b0bc"/>
    </g>
    <g id="Group_1205013" data-name="Group 1205013" transform="translate(16.879 63.136)">
      <path id="Path_1246078" data-name="Path 1246078" d="M19.27,61.524l-.052-.221.627-4.388a81.19,81.19,0,0,0,.817-11.491v-.55c-.52-.153-1.045-.28-1.559-.45l-1.14-.38a67.849,67.849,0,0,0-4.515,17.243l0,.016H12a5.656,5.656,0,0,1,2.894.8,5.454,5.454,0,0,1,4.375-.576Z" transform="translate(-12 -44.044)" fill="#a8b0bc"/>
    </g>
    <g id="Group_1205014" data-name="Group 1205014" transform="translate(16.879 80.396)">
      <path id="Path_1246079" data-name="Path 1246079" d="M17.774,56a5.774,5.774,0,0,1,5.774,5.774v2.887H12V61.774A5.774,5.774,0,0,1,17.774,56Z" transform="translate(-12 -56)" fill="#52565a"/>
    </g>
    <g id="Group_1205015" data-name="Group 1205015" transform="translate(61.629 80.396)">
      <path id="Path_1246080" data-name="Path 1246080" d="M48.774,56a5.774,5.774,0,0,1,5.774,5.774v2.887H43V61.774A5.774,5.774,0,0,1,48.774,56Z" transform="translate(-43 -56)" fill="#52565a"/>
    </g>
    <g id="Group_1205016" data-name="Group 1205016" transform="translate(11.105 80.396)">
      <path id="Path_1246081" data-name="Path 1246081" d="M13.774,56a5.774,5.774,0,0,1,5.774,5.774v2.887H8V61.774A5.774,5.774,0,0,1,13.774,56Z" transform="translate(-8 -56)" fill="#52565a"/>
    </g>
    <g id="Group_1205017" data-name="Group 1205017" transform="translate(55.855 80.396)">
      <path id="Path_1246082" data-name="Path 1246082" d="M44.774,56a5.774,5.774,0,0,1,5.774,5.774v2.887H39V61.774A5.774,5.774,0,0,1,44.774,56Z" transform="translate(-39 -56)" fill="#52565a"/>
    </g>
    <g id="Group_1205018" data-name="Group 1205018" transform="translate(8.325 16.879)">
      <path id="Path_1246083" data-name="Path 1246083" d="M72.371,43.758v.062a18.765,18.765,0,0,1-8.357,15.615l-.3.2-.092.072q-.23,7.152-1.019,14.271l-.332,2.98H56.492l-.422-1.9A103.4,103.4,0,0,1,53.76,58.24l0-.046H53.6l-1.328.443a47.658,47.658,0,0,1-15.064,2.444h-.419a47.667,47.667,0,0,1-15.065-2.444l-1.14-.38A67.849,67.849,0,0,0,16.073,75.5v.016H11.741L7.411,58.194,6.1,38.576a13.007,13.007,0,0,1,.359-4.015l.154-.616a12.989,12.989,0,0,1,11.427-9.787L40.612,22.1V17.774A5.774,5.774,0,0,1,46.387,12h4.331" transform="translate(-6.074 -12)" fill="#e3e4e5"/>
    </g>
    <g id="Group_1205019" data-name="Group 1205019" transform="translate(50.081 9.661)">
      <path id="Path_1246084" data-name="Path 1246084" d="M36.444,38.758,35.029,18.945c-.019-.264-.029-.53-.029-.794A11.15,11.15,0,0,1,46.15,7h9.457A11.15,11.15,0,0,1,66.758,18.15c0,.266-.01.53-.029.794L65.315,38.758" transform="translate(-35 -7)" fill="#e3e4e5"/>
    </g>
    <g id="Group_1205020" data-name="Group 1205020" transform="translate(48.637 2.443)">
      <path id="Path_1246085" data-name="Path 1246085" d="M42.661,10.661l-.485-.728A14.3,14.3,0,0,1,39.774,2L36.526,4.435a6.317,6.317,0,0,0-.676,9.52l1.036,1.036" transform="translate(-34 -2)" fill="#efbe9a"/>
    </g>
    <g id="Group_1205021" data-name="Group 1205021" transform="translate(74.621 2.443)">
      <path id="Path_1246086" data-name="Path 1246086" d="M52,10.661l.485-.728A14.3,14.3,0,0,0,54.887,2l3.248,2.435a6.317,6.317,0,0,1,.676,9.52l-1.036,1.036" transform="translate(-52 -2)" fill="#efbe9a"/>
    </g>
    <g id="Group_1205022" data-name="Group 1205022" transform="translate(42.863 16.879)">
      <path id="Path_1246087" data-name="Path 1246087" d="M37.218,12H36.212A6.212,6.212,0,0,0,30,18.212V22.1h1.758a6.213,6.213,0,0,0,4.393-1.819l1.067-1.068" transform="translate(-30 -12)" fill="#c66b60"/>
    </g>
    <g id="Group_1205023" data-name="Group 1205023" transform="translate(81.839 16.879)">
      <path id="Path_1246088" data-name="Path 1246088" d="M57,12h1.006a6.212,6.212,0,0,1,6.212,6.212V22.1H62.46a6.213,6.213,0,0,1-4.393-1.819L57,19.218" transform="translate(-57 -12)" fill="#c66b60"/>
    </g>
    <g id="Group_1205024" data-name="Group 1205024" transform="translate(51.525 34.202)">
      <path id="Path_1246089" data-name="Path 1246089" d="M46.1,24a13.45,13.45,0,0,1,4.331.7,13.45,13.45,0,0,1,4.331-.7c5.581,0,10.1,3.232,10.1,7.218s-4.524,7.218-10.1,7.218a13.45,13.45,0,0,1-4.331-.7,13.45,13.45,0,0,1-4.331.7c-5.581,0-10.1-3.232-10.1-7.218S40.524,24,46.1,24Z" transform="translate(-36 -24)" fill="#c66b60"/>
    </g>
    <g id="Group_1205025" data-name="Group 1205025" transform="translate(65.96 9.661)">
      <path id="Path_1246090" data-name="Path 1246090" d="M50.729,7h-.818a11.538,11.538,0,0,0,11.4,19.572l.544-7.626c.019-.264.029-.53.029-.794A11.15,11.15,0,0,0,50.729,7Z" transform="translate(-46 -7)" fill="#52565a"/>
    </g>
    <g id="Group_1205026" data-name="Group 1205026" transform="translate(21.21 28.427)">
      <path id="Path_1246091" data-name="Path 1246091" d="M16.444,20a7.218,7.218,0,1,0,11.548,0" transform="translate(-15 -20)" fill="#52565a"/>
    </g>
    <g id="Group_1205027" data-name="Group 1205027" transform="translate(31.315 42.863)">
      <path id="Path_1246092" data-name="Path 1246092" d="M27.774,30a5.774,5.774,0,0,1,5.774,5.774c0,.072-.019.139-.022.211a5.711,5.711,0,0,1,1.465-.211,5.774,5.774,0,1,1-5.774,5.774c0-.072.019-.139.022-.211a5.711,5.711,0,0,1-1.465.211,5.774,5.774,0,1,1,0-11.548Z" transform="translate(-22 -30)" fill="#52565a"/>
    </g>
    <g id="Group_1205028" data-name="Group 1205028" transform="translate(9.661 45.75)">
      <path id="Path_1246093" data-name="Path 1246093" d="M7,46.436A7.218,7.218,0,0,0,7,32" transform="translate(-7 -32)" fill="#52565a"/>
    </g>
    <g id="Group_1205029" data-name="Group 1205029" transform="translate(50.081 32.758)">
      <path id="Path_1246094" data-name="Path 1246094" d="M55.21,40.323a14.926,14.926,0,0,1-4.331-.632,14.927,14.927,0,0,1-4.331.632C40.181,40.323,35,36.438,35,31.661S40.181,23,46.548,23a14.926,14.926,0,0,1,4.331.632A14.926,14.926,0,0,1,55.21,23c6.368,0,11.548,3.885,11.548,8.661S61.577,40.323,55.21,40.323Zm-4.331-3.59a1.457,1.457,0,0,1,.463.077,12.022,12.022,0,0,0,3.867.627c4.694,0,8.661-2.645,8.661-5.774S59.9,25.887,55.21,25.887a11.984,11.984,0,0,0-3.867.628,1.459,1.459,0,0,1-.928,0,11.968,11.968,0,0,0-3.866-.628c-4.694,0-8.661,2.645-8.661,5.774s3.967,5.774,8.661,5.774a11.984,11.984,0,0,0,3.867-.628,1.456,1.456,0,0,1,.463-.075Z" transform="translate(-35 -23)"/>
    </g>
    <g id="Group_1205030" data-name="Group 1205030" transform="translate(71.734 38.532)">
      <path id="Path_1246095" data-name="Path 1246095" d="M52.165,31.331a2.165,2.165,0,1,1,2.165-2.165A2.168,2.168,0,0,1,52.165,31.331Z" transform="translate(-50 -27)"/>
    </g>
    <g id="Group_1205031" data-name="Group 1205031" transform="translate(55.855 38.532)">
      <path id="Path_1246096" data-name="Path 1246096" d="M41.165,31.331a2.165,2.165,0,1,1,2.165-2.165A2.168,2.168,0,0,1,41.165,31.331Z" transform="translate(-39 -27)"/>
    </g>
    <g id="Group_1205032" data-name="Group 1205032" transform="translate(48.637 8.218)">
      <path id="Path_1246097" data-name="Path 1246097" d="M67.2,39.3,64.319,39.1l1.415-19.814c.016-.225.025-.458.025-.689A9.719,9.719,0,0,0,56.05,8.887H46.594A9.719,9.719,0,0,0,36.887,18.6c0,.231.009.463.026.693L38.326,39.1l-2.878.206L34.033,19.491c-.022-.3-.033-.6-.033-.9A12.609,12.609,0,0,1,46.6,6h9.457A12.609,12.609,0,0,1,68.645,18.6c0,.3-.012.6-.03.894Z" transform="translate(-34 -6)"/>
    </g>
    <g id="Group_1205033" data-name="Group 1205033" transform="translate(73.178 21.21)">
      <path id="Path_1246098" data-name="Path 1246098" d="M53.165,19.331a2.165,2.165,0,1,1,2.165-2.165A2.168,2.168,0,0,1,53.165,19.331Z" transform="translate(-51 -15)"/>
    </g>
    <g id="Group_1205034" data-name="Group 1205034" transform="translate(54.412 21.21)">
      <path id="Path_1246099" data-name="Path 1246099" d="M40.165,19.331a2.165,2.165,0,1,1,2.165-2.165A2.168,2.168,0,0,1,40.165,19.331Z" transform="translate(-38 -15)"/>
    </g>
    <g id="Group_1205035" data-name="Group 1205035" transform="translate(47.194 1)">
      <path id="Path_1246100" data-name="Path 1246100" d="M36.31,16.456l-1.038-1.038A7.706,7.706,0,0,1,33,9.933a7.8,7.8,0,0,1,3.1-6.207l3.248-2.437a1.443,1.443,0,0,1,2.31,1.155,12.827,12.827,0,0,0,2.16,7.133l.485.728-2.4,1.6-.485-.728a15.716,15.716,0,0,1-2.411-6.023l-1.172.879a4.875,4.875,0,0,0-.523,7.345l1.038,1.038Z" transform="translate(-33 -1)"/>
    </g>
    <g id="Group_1205036" data-name="Group 1205036" transform="translate(73.42 1)">
      <path id="Path_1246101" data-name="Path 1246101" d="M59.164,16.456l-2.041-2.041,1.038-1.038a4.872,4.872,0,0,0-.523-7.342l-1.172-.878a15.716,15.716,0,0,1-2.411,6.023l-.485.728-2.4-1.6.485-.728a12.843,12.843,0,0,0,2.16-7.136,1.443,1.443,0,0,1,2.31-1.155L59.37,3.725a7.793,7.793,0,0,1,3.1,6.207A7.709,7.709,0,0,1,60.2,15.42Z" transform="translate(-51.168 -1)"/>
    </g>
    <g id="Group_1205037" data-name="Group 1205037" transform="translate(41.42 15.435)">
      <path id="Path_1246102" data-name="Path 1246102" d="M32.2,23.992H30.444A1.442,1.442,0,0,1,29,22.548V18.655A7.658,7.658,0,0,1,36.655,11h1.006v2.887H36.655a4.769,4.769,0,0,0-4.768,4.768V21.1H32.2a4.74,4.74,0,0,0,3.371-1.4l1.068-1.068,2.041,2.041L37.614,21.75A7.605,7.605,0,0,1,32.2,23.992Z" transform="translate(-29 -11)"/>
    </g>
    <g id="Group_1205038" data-name="Group 1205038" transform="translate(80.819 15.435)">
      <path id="Path_1246103" data-name="Path 1246103" d="M64.531,23.992H62.773a7.605,7.605,0,0,1-5.412-2.242l-1.068-1.068,2.041-2.041L59.4,19.709a4.74,4.74,0,0,0,3.371,1.4h.315v-2.45a4.769,4.769,0,0,0-4.768-4.768H57.314V11H58.32a7.655,7.655,0,0,1,7.655,7.655v3.893a1.442,1.442,0,0,1-1.444,1.444Z" transform="translate(-56.293 -11)"/>
    </g>
    <g id="Group_1205039" data-name="Group 1205039" transform="translate(64.517 8.578)">
      <path id="Path_1246104" data-name="Path 1246104" d="M57.992,28.986A12.992,12.992,0,0,1,49.4,6.25L51.31,8.415A10.106,10.106,0,0,0,61.78,25.364l1.086,2.676a12.927,12.927,0,0,1-4.873.946Z" transform="translate(-45 -6.25)"/>
    </g>
    <g id="Group_1205040" data-name="Group 1205040" transform="translate(6.881 25.545)">
      <path id="Path_1246105" data-name="Path 1246105" d="M10.785,73.2,6.454,55.881a1.37,1.37,0,0,1-.04-.254L5.106,36.009a14.378,14.378,0,0,1,.4-4.462l.152-.615a14.452,14.452,0,0,1,12.7-10.877L40.925,18l.263,2.876L18.619,22.93a11.562,11.562,0,0,0-10.16,8.7l-.153.618a11.536,11.536,0,0,0-.32,3.571l1.3,19.488,4.3,17.2Z" transform="translate(-5.074 -18.003)"/>
    </g>
    <g id="Group_1205041" data-name="Group 1205041" transform="translate(9.661 78.952)">
      <path id="Path_1246106" data-name="Path 1246106" d="M19.992,66.548H8.444A1.442,1.442,0,0,1,7,65.1V62.218a7.218,7.218,0,1,1,14.436,0V65.1A1.442,1.442,0,0,1,19.992,66.548Zm-10.1-2.887h8.661V62.218a4.331,4.331,0,1,0-8.661,0Z" transform="translate(-7 -55)"/>
    </g>
    <g id="Group_1205042" data-name="Group 1205042" transform="translate(19.042 78.952)">
      <path id="Path_1246107" data-name="Path 1246107" d="M22.884,66.548H17.11V63.661H21.44V62.218a4.332,4.332,0,0,0-6.493-3.753l-1.449-2.5a7.22,7.22,0,0,1,10.83,6.251V65.1a1.442,1.442,0,0,1-1.444,1.444Z" transform="translate(-13.498 -55)"/>
    </g>
    <g id="Group_1205043" data-name="Group 1205043" transform="translate(16.885 56.652)">
      <path id="Path_1246108" data-name="Path 1246108" d="M14.875,63.457,12,63.176v-.017a69.212,69.212,0,0,1,6.786-22.453l.576-1.153,2.583,1.292L21.374,42A66.265,66.265,0,0,0,14.875,63.457Z" transform="translate(-12.004 -39.552)"/>
    </g>
    <g id="Group_1205044" data-name="Group 1205044" transform="translate(22.668 64.516)">
      <path id="Path_1246109" data-name="Path 1246109" d="M18.868,61.084l-2.858-.409.628-4.388A80.351,80.351,0,0,0,17.439,45h2.887a83.138,83.138,0,0,1-.83,11.7Z" transform="translate(-16.01 -45)"/>
    </g>
    <g id="Group_1205045" data-name="Group 1205045" transform="translate(22.197 61.703)">
      <path id="Path_1246110" data-name="Path 1246110" d="M32.95,48.752h-.417a49,49,0,0,1-15.521-2.519l-1.328-.443.914-2.737,1.328.443a46.169,46.169,0,0,0,14.606,2.369h.417a46.139,46.139,0,0,0,14.607-2.37l1.328-.443.914,2.737-1.328.443A48.948,48.948,0,0,1,32.95,48.752Z" transform="translate(-15.684 -43.051)"/>
    </g>
    <g id="Group_1205046" data-name="Group 1205046" transform="translate(15.436 84.726)">
      <path id="Path_1246111" data-name="Path 1246111" d="M11,59h2.887v4.331H11Z" transform="translate(-11 -59)"/>
    </g>
    <g id="Group_1205047" data-name="Group 1205047" transform="translate(54.412 78.952)">
      <path id="Path_1246112" data-name="Path 1246112" d="M50.992,66.548H39.444A1.442,1.442,0,0,1,38,65.1V62.218a7.218,7.218,0,1,1,14.436,0V65.1A1.442,1.442,0,0,1,50.992,66.548Zm-10.1-2.887h8.661V62.218a4.331,4.331,0,1,0-8.661,0Z" transform="translate(-38 -55)"/>
    </g>
    <g id="Group_1205048" data-name="Group 1205048" transform="translate(63.792 78.952)">
      <path id="Path_1246113" data-name="Path 1246113" d="M53.884,66.548H48.11V63.661H52.44V62.218a4.332,4.332,0,0,0-6.493-3.753l-1.449-2.5a7.22,7.22,0,0,1,10.83,6.251V65.1a1.442,1.442,0,0,1-1.444,1.444Z" transform="translate(-44.498 -55)"/>
    </g>
    <g id="Group_1205049" data-name="Group 1205049" transform="translate(60.186 84.726)">
      <path id="Path_1246114" data-name="Path 1246114" d="M42,59h2.887v4.331H42Z" transform="translate(-42 -59)"/>
    </g>
    <g id="Group_1205050" data-name="Group 1205050" transform="translate(54.412 57.299)">
      <path id="Path_1246115" data-name="Path 1246115" d="M40.92,64.854,40.509,63A105.636,105.636,0,0,1,38,40.14L40.887,40a103.005,103.005,0,0,0,2.441,22.374l.411,1.854Z" transform="translate(-38 -40)"/>
    </g>
    <g id="Group_1205051" data-name="Group 1205051" transform="translate(63.082 58.742)">
      <path id="Path_1246116" data-name="Path 1246116" d="M46.876,64.256l-2.87-.319.331-2.979a180.753,180.753,0,0,0,1.1-19.927L48.328,41a184.551,184.551,0,0,1-1.12,20.276Z" transform="translate(-44.006 -41)"/>
    </g>
    <g id="Group_1205052" data-name="Group 1205052" transform="translate(65.16 48.637)">
      <path id="Path_1246117" data-name="Path 1246117" d="M47.047,51.08l-1.6-2.4.3-.2a17.289,17.289,0,0,0,7.713-14.412L56.351,34v.062a20.17,20.17,0,0,1-9,16.815Z" transform="translate(-45.446 -34)"/>
    </g>
    <g id="Group_1205053" data-name="Group 1205053" transform="translate(67.448 58.742)">
      <path id="Path_1246118" data-name="Path 1246118" d="M49.83,63l-2.8-.7.473-1.894a79.572,79.572,0,0,0,2.369-19.256V41H52.76v.153A82.309,82.309,0,0,1,50.3,61.109Z" transform="translate(-47.031 -41)"/>
    </g>
    <g id="Group_1205054" data-name="Group 1205054" transform="translate(1 31.369)">
      <path id="Path_1246119" data-name="Path 1246119" d="M8.218,71.064a1.436,1.436,0,0,1-.866-.289L3.31,67.744A5.8,5.8,0,0,1,1,63.125v-26.3A15.443,15.443,0,0,1,12.153,22.038l.793,2.777A12.54,12.54,0,0,0,3.887,36.823V57.18L6.47,58.472a5.742,5.742,0,0,1,3.192,5.164v5.985a1.442,1.442,0,0,1-1.444,1.444ZM3.887,60.408v2.717a2.9,2.9,0,0,0,1.156,2.311l1.731,1.3v-3.1a2.873,2.873,0,0,0-1.6-2.583Z" transform="translate(-1 -22.038)"/>
    </g>
    <g id="Group_1205055" data-name="Group 1205055" transform="translate(19.766 27.56)">
      <path id="Path_1246120" data-name="Path 1246120" d="M22.661,33.259A8.662,8.662,0,0,1,15.732,19.4l2.31,1.734A5.721,5.721,0,0,0,16.887,24.6a5.774,5.774,0,0,0,11.548,0,5.715,5.715,0,0,0-1.153-3.463L29.589,19.4a8.567,8.567,0,0,1,1.734,5.2A8.67,8.67,0,0,1,22.661,33.259Z" transform="translate(-14 -19.399)"/>
    </g>
    <g id="Group_1205056" data-name="Group 1205056" transform="translate(29.871 41.419)">
      <path id="Path_1246121" data-name="Path 1246121" d="M35.436,49.21a7.228,7.228,0,0,1-7.072-5.776h-.146a7.218,7.218,0,1,1,7.072-8.66h.146a7.218,7.218,0,1,1,0,14.436Zm-5.753-8.872a1.443,1.443,0,0,1,1.442,1.5c0,.049-.017.193-.025.243a4.433,4.433,0,1,0,3.238-4.257,1.443,1.443,0,0,1-1.81-1.452c0-.049.017-.2.025-.244a4.428,4.428,0,1,0-3.234,4.257,1.423,1.423,0,0,1,.364-.048Z" transform="translate(-21 -29)"/>
    </g>
    <g id="Group_1205057" data-name="Group 1205057" transform="translate(9.661 44.307)">
      <path id="Path_1246122" data-name="Path 1246122" d="M7,48.323V45.436A5.774,5.774,0,1,0,7,33.887V31A8.661,8.661,0,0,1,7,48.323Z" transform="translate(-7 -31)"/>
    </g>
    <g id="Group_1205058" data-name="Group 1205058" transform="translate(26.984 64.516)">
      <path id="Path_1246123" data-name="Path 1246123" d="M29.1,53.661C23.534,53.661,19,49.777,19,45h2.887c0,3.184,3.238,5.774,7.218,5.774s7.218-2.59,7.218-5.774H39.21C39.21,49.777,34.676,53.661,29.1,53.661Z" transform="translate(-19 -45)"/>
    </g>
    <g id="Group_1205060" data-name="Group 1205060" transform="translate(32.758 71.734)">
      <g id="Group_1205059" data-name="Group 1205059">
        <path id="Path_1246124" data-name="Path 1246124" d="M23,50h2.887v4.331H23Z" transform="translate(-23 -50)"/>
      </g>
    </g>
    <g id="Group_1205062" data-name="Group 1205062" transform="translate(38.533 71.734)">
      <g id="Group_1205061" data-name="Group 1205061">
        <path id="Path_1246125" data-name="Path 1246125" d="M27,50h2.887v4.331H27Z" transform="translate(-27 -50)"/>
      </g>
    </g>
  </g>
</svg>
