<svg xmlns="http://www.w3.org/2000/svg" width="104.949" height="104.949" viewBox="0 0 104.949 104.949">
  <g id="Group_1205094" data-name="Group 1205094" transform="translate(-1272.576 -8207.525)">
    <g id="Group_1204962" data-name="Group 1204962">
      <g id="Group_1204960" data-name="Group 1204960" transform="translate(1274.113 8209.063)">
        <path id="Path_1246006" data-name="Path 1246006" d="M151.117,341.545a11.647,11.647,0,0,1-9.182,4.308c-7.651,0-10.712-5.248-10.712-5.248v-5.97h19.894Z" transform="translate(-105.862 -267.58)" fill="#ffdad5"/>
        <path id="Path_1246007" data-name="Path 1246007" d="M189.675,300.514a26.639,26.639,0,0,1-12.649,2.559c-5.075-.232-12.954-3.319-18.988-6.034V285.315h31.637Z" transform="translate(-127.181 -228.369)" fill="#f9f5f3"/>
        <path id="Path_1246008" data-name="Path 1246008" d="M64.615,189.827l-.568,1.7a12.208,12.208,0,0,0-.157,7.224L67.222,210.4l5.758,4.082,3.671-4.082a3.041,3.041,0,0,1-.11-.4l-1.943-9.7a6.117,6.117,0,0,1,3.186-6.624c7.913-4.123,8.02-13.833,8.02-13.833l21.424,6.112,2.251,1.686a12.223,12.223,0,0,1,4.711,7.655l2.67,15.108,4.659,3.671,2.63-3.671a3.046,3.046,0,0,1-.088-.722V193.312a1.529,1.529,0,0,1,1.23-1.5l4.891-2.6,5.2-10.9.332-1.106a3.06,3.06,0,0,1,2.613-2.161l9.1-.949a6.121,6.121,0,0,0,4.8-3.342l.587-1.173a3.053,3.053,0,0,0-.483-3.433,21.9,21.9,0,0,1-3.785-4.644c-2.716-5.506-4.591-10.7-10.712-10.7a7.54,7.54,0,0,0-4.447,1.394l-9.162.983-4.339-.394a19.353,19.353,0,0,0-9.6,1.584,19.344,19.344,0,0,1-9.106,1.622L62.545,166.458V176.78a28.554,28.554,0,0,0,2.189,5.25,12.9,12.9,0,0,1-.118,7.8Z" transform="translate(-51.262 -121.427)" fill="#f9f5f3"/>
        <path id="Path_1246009" data-name="Path 1246009" d="M303.546,205.555c-.107-1.705.755-3.707,6.112-3.056s2.087,5.77,0,6.112S303.684,207.757,303.546,205.555Z" transform="translate(-242.856 -162.428)" fill="#868eaf"/>
        <path id="Path_1246010" data-name="Path 1246010" d="M373.552,143.1s-2.5-4.005-8.654-5.776a1.432,1.432,0,0,0-1.775,1.134c-.582,2.665-.847,8.248,6.143,10.755Z" transform="translate(-290.015 -110.67)" fill="#f9f5f3"/>
        <path id="Path_1246011" data-name="Path 1246011" d="M71.2,14.292q-.189,0-.374.014a.848.848,0,0,1-.766-.383,6.8,6.8,0,0,0-8-2.611A.849.849,0,0,1,61.084,11,8.489,8.489,0,0,0,46.115,13.45a1.284,1.284,0,0,1-.473.65,1.261,1.261,0,0,1-.577.236,5.093,5.093,0,0,0-4.432,5.092,5.175,5.175,0,0,0,5.219,5.051H71.081a5.186,5.186,0,0,0,5.207-5.192,5.094,5.094,0,0,0-5.093-5Z" transform="translate(-33.842 -7.5)" fill="#b2e5fb"/>
        <path id="Path_1246012" data-name="Path 1246012" d="M367.783,19.187a5.085,5.085,0,0,0-1.953.27.855.855,0,0,1-1.005-.375,6.791,6.791,0,0,0-12.233,1.248.841.841,0,0,1-.867.564q-.18-.017-.364-.017a4.245,4.245,0,0,0-4.242,4.4,4.311,4.311,0,0,0,4.344,4.09H367.49a5.094,5.094,0,0,0,.293-10.179Z" transform="translate(-277.502 -14.085)" fill="#b2e5fb"/>
        <path id="Path_1246013" data-name="Path 1246013" d="M425.431,406.765v-1.253a1.7,1.7,0,0,0,1.689-1.529l1.358-13.583a1.7,1.7,0,0,0-1.689-1.867H415.082a1.7,1.7,0,0,0-1.689,1.867l1.358,13.583a1.7,1.7,0,0,0,1.689,1.529v1.253Z" transform="translate(-330.186 -310.429)" fill="#bc7c63"/>
        <path id="Path_1246014" data-name="Path 1246014" d="M171,40.633q-.189,0-.374.014a.807.807,0,0,1-.182-.009,7.627,7.627,0,0,1,.935,3.6c.054,3.618-2.352,6.579-5.208,6.579h4.715a5.186,5.186,0,0,0,5.208-5.192A5.094,5.094,0,0,0,171,40.633Z" transform="translate(-133.648 -33.841)" fill="#9cd0fb"/>
        <path id="Path_1246015" data-name="Path 1246015" d="M433.317,37.133a5.094,5.094,0,0,0-6.745-4.505.819.819,0,0,1-.342.039,5.416,5.416,0,0,1,2.373,4.195,5.245,5.245,0,0,1-5.085,5.676h4.715a5.094,5.094,0,0,0,5.084-5.4Z" transform="translate(-338.243 -27.256)" fill="#9cd0fb"/>
        <path id="Path_1246016" data-name="Path 1246016" d="M455.226,388.533h-4.715A1.7,1.7,0,0,1,452.2,390.4l-1.358,13.583a1.7,1.7,0,0,1-1.689,1.529v1.253h4.715v-1.253a1.7,1.7,0,0,0,1.689-1.529l1.358-13.583A1.7,1.7,0,0,0,455.226,388.533Z" transform="translate(-358.624 -310.429)" fill="#a1695a"/>
        <path id="Path_1246017" data-name="Path 1246017" d="M11.379,307.47a.934.934,0,0,1-.967,0,5.678,5.678,0,0,1,0-9.918.934.934,0,0,1,.967,0,5.678,5.678,0,0,1,0,9.918Z" transform="translate(-7.5 -237.99)" fill="#868eaf"/>
        <g id="Group_1204958" data-name="Group 1204958" transform="translate(74.11 29.374)">
          <g id="Group_1204957" data-name="Group 1204957">
            <g id="Group_1204955" data-name="Group 1204955" transform="translate(10.193)">
              <path id="Path_1246018" data-name="Path 1246018" d="M435.542,166.143a21.9,21.9,0,0,1-3.785-4.644c-2.716-5.506-4.591-10.7-10.712-10.7a7.842,7.842,0,0,0-2.268.326c4.245,1.215,5.95,5.677,8.266,10.371a21.9,21.9,0,0,0,3.785,4.644,3.052,3.052,0,0,1,.483,3.433l-.851,1.7a6.118,6.118,0,0,1-4.631,3.317l4.811-.5a6.121,6.121,0,0,0,4.8-3.342l.587-1.173A3.052,3.052,0,0,0,435.542,166.143Z" transform="translate(-418.777 -150.802)" fill="#e7e7ef"/>
            </g>
            <g id="Group_1204956" data-name="Group 1204956" transform="translate(0 24.263)">
              <path id="Path_1246019" data-name="Path 1246019" d="M373.862,283.315l5.2-10.9.332-1.106a3.058,3.058,0,0,1,2.442-2.137l-4.808.5a3.059,3.059,0,0,0-2.613,2.162l-2.722,9.876a9.153,9.153,0,0,1-2.645,4.168Z" transform="translate(-369.052 -269.168)" fill="#e7e7ef"/>
            </g>
          </g>
        </g>
        <g id="Group_1204959" data-name="Group 1204959" transform="translate(15.96 52.296)">
          <path id="Path_1246020" data-name="Path 1246020" d="M86.478,445.443a3.06,3.06,0,0,0,2.943,2.217l2.8,1.23,3.124-1.23a1.528,1.528,0,0,0,1.369-2.212l-1.77-3.535a3.058,3.058,0,0,1-.154-.366H85.363Z" transform="translate(-85.363 -404.872)" fill="#868eaf"/>
          <path id="Path_1246021" data-name="Path 1246021" d="M328.156,445.134a3.059,3.059,0,0,0,3.014,2.525l1.892,1.23,2.246-1.23a1.528,1.528,0,0,0,1.369-2.212l-1.63-3.256a3.046,3.046,0,0,1-.236-.645h-7.289Z" transform="translate(-277.885 -404.872)" fill="#868eaf"/>
          <path id="Path_1246022" data-name="Path 1246022" d="M343.394,267.211s-1.685-4.584-7.8-4.584c-7.708,0-12.687,7.346-11.126,12.225.843,2.635,3.577,5.389,8.83,5.867l1.012-.2a9.177,9.177,0,0,0,6.994-6.356Z" transform="translate(-275.231 -262.627)" fill="#868eaf"/>
        </g>
        <path id="Path_1246023" data-name="Path 1246023" d="M378.926,274.4a7.093,7.093,0,0,0-2.1-2.732,3.058,3.058,0,0,0-2.543,2.151l-2.722,9.876a9.157,9.157,0,0,1-2.681,4.2l.967-.193a9.177,9.177,0,0,0,6.994-6.356Z" transform="translate(-294.802 -217.517)" fill="#767d9e"/>
        <path id="Path_1246024" data-name="Path 1246024" d="M95.442,163.4c3.024-3.056,1.5-10.092,1.5-10.092h0a19.335,19.335,0,0,1-8.687-2.708l-.7-.422a19.349,19.349,0,0,0-12.882-2.526l-5.607.861a12.238,12.238,0,0,0-9.752,8.217,25.141,25.141,0,0,0-1,17.37c.06.042,7.8,5.359,12.657,3.537,4.317-1.618,7.479-7.073,8.763-10.123a1.526,1.526,0,0,1,1.547-.928C84.151,166.842,91.75,167.127,95.442,163.4Z" transform="translate(-47.02 -118.741)" fill="#868eaf"/>
        <path id="Path_1246025" data-name="Path 1246025" d="M107.677,471.367H9.2a1.7,1.7,0,0,0-1.7,1.7v3.4a1.7,1.7,0,0,0,1.7,1.7h98.479a1.7,1.7,0,0,0,1.7-1.7v-3.4A1.7,1.7,0,0,0,107.677,471.367Z" transform="translate(-7.5 -376.284)" fill="#b3e59f"/>
        <path id="Path_1246026" data-name="Path 1246026" d="M477.932,471.367h-4.715a1.7,1.7,0,0,1,1.7,1.7v3.4a1.7,1.7,0,0,1-1.7,1.7h4.715a1.7,1.7,0,0,0,1.7-1.7v-3.4A1.7,1.7,0,0,0,477.932,471.367Z" transform="translate(-377.755 -376.284)" fill="#8cd19d"/>
      </g>
      <g id="Group_1204961" data-name="Group 1204961" transform="translate(1272.576 8207.525)">
        <path id="Path_1246027" data-name="Path 1246027" d="M431.442,184.416a1.537,1.537,0,0,0,1.537-1.537v-.764a1.537,1.537,0,1,0-3.075,0v.764A1.537,1.537,0,0,0,431.442,184.416Z" transform="translate(-341.784 -143.563)"/>
        <path id="Path_1246028" data-name="Path 1246028" d="M297.659,202.529a8.992,8.992,0,0,0,5.245,1.718,6.441,6.441,0,0,0,1.041-.08c2.13-.349,4.251-3.052,4.2-5.355-.016-.772-.371-3.327-4.267-3.8-3.137-.381-5.3.032-6.6,1.263a4.134,4.134,0,0,0-1.233,3.415A3.945,3.945,0,0,0,297.659,202.529Zm1.733-4.019c.268-.253,1.2-.8,4.119-.447.576.07,1.546.268,1.563.8a3.03,3.03,0,0,1-1.626,2.266,5.918,5.918,0,0,1-3.872-1.008c-.164-.131-.442-.386-.457-.627C299.075,198.808,299.305,198.592,299.392,198.51Z" transform="translate(-235.357 -154.929)"/>
        <path id="Path_1246029" data-name="Path 1246029" d="M101.714,198.247h-1.7l.51-5.1a.015.015,0,0,0,0,0l.832-8.323a3.235,3.235,0,0,0-3.219-3.557H86.433a3.235,3.235,0,0,0-3.219,3.557l.832,8.324s0,0,0,0l.51,5.1H77.99a3.062,3.062,0,0,0-.326-1.362l-1.63-3.255a1.522,1.522,0,0,1-.16-.679L75.868,176.6l1.013-.2a10.693,10.693,0,0,0,8.165-7.421l2.42-8.056a1.517,1.517,0,0,1,1.3-1.074l9.106-.951a7.63,7.63,0,0,0,6-4.181l.587-1.173a4.616,4.616,0,0,0-.725-5.162c-.225-.245-.48-.509-.752-.791a15.713,15.713,0,0,1-2.786-3.493c-.25-.506-.492-1.01-.732-1.507-2.379-4.94-4.84-10.047-11.359-10.047a9.227,9.227,0,0,0-4.263,1.023,18.778,18.778,0,0,0-7-3.683,2.873,2.873,0,0,0-2.289.3,3.074,3.074,0,0,0-1.413,1.985,13.074,13.074,0,0,0-.3,2.6l-2.543-.231a20.943,20.943,0,0,0-10.362,1.71,17.832,17.832,0,0,1-16.379-1l-.7-.422a20.929,20.929,0,0,0-13.906-2.727l-5.607.861a13.791,13.791,0,0,0-6.021,2.47l-2.082-.022A11.718,11.718,0,0,0,3.4,147.114v16a7.2,7.2,0,0,0,.243,12.37,2.473,2.473,0,0,0,2.587,0h0a7.411,7.411,0,0,0,3.639-6.265,7.378,7.378,0,0,0-3.4-6.1v-16a8.637,8.637,0,0,1,7.771-8.6,13.825,13.825,0,0,0-1.857,3.616,27.012,27.012,0,0,0,1.193,23.755,11.3,11.3,0,0,1-.146,6.726l-.568,1.7a13.689,13.689,0,0,0-.177,8.134l4.446,15.54c.025.087.055.172.085.256H3.235A3.239,3.239,0,0,0,0,201.482v3.4a3.239,3.239,0,0,0,3.235,3.235h9.8a1.537,1.537,0,0,0,0-3.075h-9.8a.161.161,0,0,1-.16-.16v-3.4a.161.161,0,0,1,.16-.161h98.479a.161.161,0,0,1,.16.161v3.4a.161.161,0,0,1-.16.161h-81.5a1.537,1.537,0,1,0,0,3.075h81.5a3.239,3.239,0,0,0,3.235-3.235v-3.4a3.239,3.239,0,0,0-3.235-3.235ZM4.933,172.655a4.1,4.1,0,0,1,0-6.865,4.1,4.1,0,0,1,0,6.865ZM86.314,184.4a.154.154,0,0,1,.119-.053H98.14a.161.161,0,0,1,.16.177l-.694,6.936H86.967l-.694-6.936A.155.155,0,0,1,86.314,184.4ZM82.1,168.088a7.625,7.625,0,0,1-5.822,5.291l-.782.156c-5.527-.58-6.98-3.8-7.3-4.782a7.1,7.1,0,0,1,1.45-6.033,10.073,10.073,0,0,1,8.212-4.186c3.94,0,5.617,2.225,6.154,3.175ZM15.233,143.3q.026-.061.047-.124a10.658,10.658,0,0,1,8.528-7.184l5.607-.861a17.85,17.85,0,0,1,11.859,2.325l.7.422a20.863,20.863,0,0,0,8.159,2.806c.294,2.192.391,5.915-1.271,7.6-3.293,3.329-10.737,2.936-12.94,2.735a3.057,3.057,0,0,0-3.1,1.862c-1.459,3.464-4.4,7.973-7.886,9.28-3.146,1.179-8.473-1.576-10.79-3.062A23.748,23.748,0,0,1,15.233,143.3Zm.549,31.994.568-1.7a14.365,14.365,0,0,0,.132-8.726,1.533,1.533,0,0,0-.117-.284c-.186-.347-.36-.693-.526-1.036a17.959,17.959,0,0,0,7.343,1.969,8.048,8.048,0,0,0,2.837-.479c5.675-2.127,9.026-9.508,9.632-10.959,3.257.295,11.279.533,15.4-3.634,2.545-2.572,2.493-7.038,2.205-9.605a20.862,20.862,0,0,0,7.928-1.785,17.85,17.85,0,0,1,8.836-1.458l3.229.293c.055.188.113.376.181.564,1.039,2.889,3.341,4.99,6.839,6.245a1.537,1.537,0,0,0,1.038-2.894c-5.412-1.941-5.813-5.9-5.171-8.923a14.187,14.187,0,0,1,7.636,5.077,1.537,1.537,0,0,0,2.605-1.633c-.018-.03-.107-.169-.27-.388a6.276,6.276,0,0,1,2-.318c4.375,0,6.034,3,8.589,8.307.244.506.49,1.018.744,1.533a17.986,17.986,0,0,0,3.331,4.268c.253.262.491.509.7.736a1.505,1.505,0,0,1,.24,1.7l-.587,1.173a4.563,4.563,0,0,1-3.584,2.5l-9.1.949a4.586,4.586,0,0,0-3.07,1.649,9.938,9.938,0,0,0-7.513-2.973,13.291,13.291,0,0,0-10.695,5.448,10.037,10.037,0,0,0-1.9,8.783c1.019,3.185,3.768,5.5,7.558,6.483a3.037,3.037,0,0,0-.031.414v15.547H68.424l-.516-2.917a1.537,1.537,0,1,0-3.028.535l1.374,7.774a4.615,4.615,0,0,0,.191.72H30.552a3.061,3.061,0,0,0-.326-1.362l-1.77-3.535a1.527,1.527,0,0,1-.131-.381l-1.943-9.7a4.561,4.561,0,0,1,.494-3.1,13.621,13.621,0,0,0,4.152,2.967l-.394,1a1.537,1.537,0,1,0,2.861,1.126l.449-1.141a16.614,16.614,0,0,0,3.668.4,13.7,13.7,0,0,0,3.664-.49l.439,1.2a1.537,1.537,0,0,0,2.887-1.057l-.477-1.3a13.268,13.268,0,0,0,3.228-2.487,24.049,24.049,0,0,0,3.96.565q.655.03,1.29.03a28.135,28.135,0,0,0,10.376-1.988l.648,3.668a1.537,1.537,0,0,0,3.028-.535l-.675-3.82a13.712,13.712,0,0,0-5.3-8.618l-2.251-1.686a1.537,1.537,0,0,0-1.843,2.461l2.251,1.686a10.657,10.657,0,0,1,3.217,3.9,25.011,25.011,0,0,1-10.6,1.829c-3.6-.165-9.352-1.938-16.713-5.141a20.411,20.411,0,0,0,2.877-9.6,1.536,1.536,0,0,0-1.517-1.552h-.021a1.539,1.539,0,0,0-1.537,1.515c0,.088-.217,8.856-7.193,12.49a7.7,7.7,0,0,0-3.983,8.289l1.655,8.266H18.657L15.644,181.6a10.63,10.63,0,0,1,.137-6.315Zm17.037-.046a99.324,99.324,0,0,0,10.976,4.2,10.3,10.3,0,0,1-6.184,2,12.967,12.967,0,0,1-4.156-.649l-.025-.008a10.642,10.642,0,0,1-4.28-2.679A15.018,15.018,0,0,0,32.818,175.244Zm-11.263,23a1.529,1.529,0,0,1-1.465-1.1l-.554-1.935H25.95l1.532,3.038Zm49.228,0a1.52,1.52,0,0,1-1.5-1.255l-.315-1.782h4.42l1.533,3.038Zm17.008,0a.16.16,0,0,1-.16-.145l-.357-3.572H97.3l-.357,3.573a.16.16,0,0,1-.16.144Z" transform="translate(0 -103.164)"/>
        <path id="Path_1246030" data-name="Path 1246030" d="M39.889,20.054H65.118a6.836,6.836,0,0,0,4.848-2.042,6.518,6.518,0,0,0,1.9-4.716,6.664,6.664,0,0,0-6.63-6.5h-.082A8.336,8.336,0,0,0,56.064,3.74,10.027,10.027,0,0,0,38.735,6.873a6.634,6.634,0,0,0-5.6,6.605,6.714,6.714,0,0,0,6.756,6.576ZM39.3,9.9a2.8,2.8,0,0,0,1.284-.517A2.836,2.836,0,0,0,41.62,7.946,6.952,6.952,0,0,1,53.878,5.941a2.4,2.4,0,0,0,2.749.85,5.26,5.26,0,0,1,6.186,2.022,2.39,2.39,0,0,0,2.159,1.063,3.567,3.567,0,0,1,3.816,3.477,3.467,3.467,0,0,1-1.017,2.5,3.744,3.744,0,0,1-2.653,1.121H39.889a3.631,3.631,0,0,1-3.681-3.526A3.556,3.556,0,0,1,39.3,9.9Z" transform="translate(-26.341 0)"/>
        <path id="Path_1246031" data-name="Path 1246031" d="M345.5,24.941h16.028a6.657,6.657,0,0,0,4.826-2.084,6.631,6.631,0,0,0-4.447-11.168,6.654,6.654,0,0,0-2.014.193,8.327,8.327,0,0,0-14.529,1.494,5.782,5.782,0,0,0-5.744,5.991A5.883,5.883,0,0,0,345.5,24.941Zm-2.05-7.662a2.686,2.686,0,0,1,1.949-.828c.075,0,.15,0,.224.01a2.378,2.378,0,0,0,2.458-1.587,5.253,5.253,0,0,1,9.465-.964,2.4,2.4,0,0,0,2.825,1.036,3.514,3.514,0,0,1,1.364-.188h0a3.591,3.591,0,0,1,3.344,3.331,3.557,3.557,0,0,1-3.55,3.776H345.5a2.783,2.783,0,0,1-2.807-2.607,2.69,2.69,0,0,1,.757-1.98Z" transform="translate(-270.002 -6.585)"/>
      </g>
    </g>
  </g>
</svg>
