<svg id="levante" xmlns="http://www.w3.org/2000/svg" width="126.297" height="88.891" viewBox="0 0 126.297 88.891">
  <g id="Group_1204987" data-name="Group 1204987" transform="translate(3.063 2.02)">
    <g id="Group_1204963" data-name="Group 1204963" transform="translate(8.081 72.728)">
      <path id="Path_1246032" data-name="Path 1246032" d="M5.516,37H54v8.081H5.516Z" transform="translate(-5.516 -37)" fill="#dfb28b"/>
    </g>
    <g id="Group_1204964" data-name="Group 1204964" transform="translate(64.647 72.728)">
      <path id="Path_1246033" data-name="Path 1246033" d="M33.516,37H82v8.081H33.516Z" transform="translate(-33.516 -37)" fill="#dfb28b"/>
    </g>
    <g id="Group_1204965" data-name="Group 1204965" transform="translate(64.647 56.567)">
      <path id="Path_1246034" data-name="Path 1246034" d="M82,29v8.081H33.516V29H82Z" transform="translate(-33.516 -29)" fill="#dfb28b"/>
    </g>
    <g id="Group_1204966" data-name="Group 1204966" transform="translate(8.081 56.567)">
      <path id="Path_1246035" data-name="Path 1246035" d="M54,29v8.081H5.516V29H54Z" transform="translate(-5.516 -29)" fill="#dfb28b"/>
    </g>
    <g id="Group_1204967" data-name="Group 1204967" transform="translate(113.133 52.526)">
      <path id="Path_1246036" data-name="Path 1246036" d="M65.6,29.02V57.3a2.026,2.026,0,0,1-2.02,2.02h-4.04a2.026,2.026,0,0,1-2.02-2.02V29.02A2.026,2.026,0,0,1,59.536,27h4.04A2.026,2.026,0,0,1,65.6,29.02Z" transform="translate(-57.516 -27)" fill="#d3a06c"/>
    </g>
    <g id="Group_1204968" data-name="Group 1204968" transform="translate(56.567 52.526)">
      <path id="Path_1246037" data-name="Path 1246037" d="M37.6,55.283V57.3a2.026,2.026,0,0,1-2.02,2.02h-4.04a2.026,2.026,0,0,1-2.02-2.02V29.02A2.026,2.026,0,0,1,31.536,27h4.04a2.026,2.026,0,0,1,2.02,2.02V55.283Z" transform="translate(-29.516 -27)" fill="#d3a06c"/>
    </g>
    <g id="Group_1204969" data-name="Group 1204969" transform="translate(0 52.526)">
      <path id="Path_1246038" data-name="Path 1246038" d="M9.6,55.283V57.3a2.026,2.026,0,0,1-2.02,2.02H3.536a2.026,2.026,0,0,1-2.02-2.02V29.02A2.026,2.026,0,0,1,3.536,27h4.04A2.026,2.026,0,0,1,9.6,29.02V55.283Z" transform="translate(-1.516 -27)" fill="#d3a06c"/>
    </g>
    <g id="Group_1204970" data-name="Group 1204970" transform="translate(63.9 18.182)">
      <path id="Path_1246039" data-name="Path 1246039" d="M84.9,23.152A18.138,18.138,0,0,1,86.42,30.4v13.94H84.4a2.026,2.026,0,0,0-2.02,2.02v2.02H43.995l1.737-3.455a19.378,19.378,0,0,1,6.606-7.5A3.948,3.948,0,0,0,50.156,30.2h-.485a3.961,3.961,0,0,0-2.788,1.152l-.4.4a8.453,8.453,0,0,1-10.667,1.071l-2.667-1.778c4.081-1.414,6.808-3.98,6.808-6.909a5.773,5.773,0,0,0-2.02-4.162V14.04L48.035,10l8.3.869,1.03,4.121a5.834,5.834,0,0,0,3.8,4.1,5.834,5.834,0,0,1,3.8,4.1l.2.747a5.555,5.555,0,0,0,5.414,4.242,5.673,5.673,0,0,0,3.111-.929l2.525-1.7A8.358,8.358,0,0,1,80.9,24.142a8.478,8.478,0,0,0,3.98-.99Z" transform="translate(-33.146 -10)" fill="#969faa"/>
    </g>
    <g id="Group_1204971" data-name="Group 1204971" transform="translate(29.556 26.263)">
      <path id="Path_1246040" data-name="Path 1246040" d="M31.035,15.9a5.738,5.738,0,0,0-2.02,4.162c0,4.465,6.323,8.081,14.142,8.081L47.2,40.263h-2.02a2.026,2.026,0,0,0-2.02,2.02V44.3H31.944a20.094,20.094,0,0,1,3.394-2.869A3.948,3.948,0,0,0,33.156,34.2h-.485a3.961,3.961,0,0,0-2.788,1.152l-.4.4a8.453,8.453,0,0,1-10.667,1.071l-2.667-1.778c4.081-1.414,6.808-3.98,6.808-6.909a5.773,5.773,0,0,0-2.02-4.162V18.04L31.035,14Z" transform="translate(-16.146 -14)" fill="#969faa"/>
    </g>
    <g id="Group_1204972" data-name="Group 1204972" transform="translate(59.577)">
      <path id="Path_1246041" data-name="Path 1246041" d="M40.117,3.586v9.6a12.279,12.279,0,0,0-1.232-.061H37.026c-.162-.162-.3-.323-.465-.485a11.95,11.95,0,0,0-5.556-3.172l4.323-7.212a2.577,2.577,0,0,1,4.788,1.333Z" transform="translate(-31.006 -1)" fill="#aab2bd"/>
    </g>
    <g id="Group_1204973" data-name="Group 1204973" transform="translate(65.597 12.121)">
      <path id="Path_1246042" data-name="Path 1246042" d="M37.077,7.061a13.633,13.633,0,0,1,10.1,6l-10.1,4.04v-2.02A12.062,12.062,0,0,0,33.986,7h1.859A12.279,12.279,0,0,1,37.077,7.061Z" transform="translate(-33.986 -7)" fill="#aab2bd"/>
    </g>
    <g id="Group_1204974" data-name="Group 1204974" transform="translate(44.445 0)">
      <path id="Path_1246043" data-name="Path 1246043" d="M24.748,13.121a12.279,12.279,0,0,0-1.232.061v-9.6A2.577,2.577,0,0,1,28.3,2.253l4.323,7.212a12.131,12.131,0,0,0-6.02,3.657Z" transform="translate(-23.516 -1)" fill="#aab2bd"/>
    </g>
    <g id="Group_1204975" data-name="Group 1204975" transform="translate(34.344 12.121)">
      <path id="Path_1246044" data-name="Path 1246044" d="M29.85,7h1.859a12.062,12.062,0,0,0-3.091,8.081V17.1l-10.1-4.04a13.633,13.633,0,0,1,10.1-6A12.279,12.279,0,0,1,29.85,7Z" transform="translate(-18.516 -7)" fill="#aab2bd"/>
    </g>
    <g id="Group_1204976" data-name="Group 1204976" transform="translate(25.233 8.081)">
      <path id="Path_1246045" data-name="Path 1246045" d="M23.117,15.1v2.081a12.279,12.279,0,0,0-1.232-.061H20.026c-.162-.162-.3-.323-.465-.485-.141-.162-.3-.3-5.556-3.172l4.323-7.212a2.577,2.577,0,0,1,4.788,1.333Z" transform="translate(-14.006 -5)" fill="#aab2bd"/>
    </g>
    <g id="Group_1204977" data-name="Group 1204977" transform="translate(10.101 8.081)">
      <path id="Path_1246046" data-name="Path 1246046" d="M15.627,13.465a12.131,12.131,0,0,0-6.02,3.657H7.748a12.279,12.279,0,0,0-1.232.061v-9.6A2.577,2.577,0,0,1,11.3,6.253Z" transform="translate(-6.516 -5)" fill="#aab2bd"/>
    </g>
    <g id="Group_1204978" data-name="Group 1204978" transform="translate(0 20.202)">
      <path id="Path_1246047" data-name="Path 1246047" d="M12.85,11h1.859a12.062,12.062,0,0,0-3.091,8.081V21.1l-10.1-4.04a13.633,13.633,0,0,1,10.1-6A12.279,12.279,0,0,1,12.85,11Z" transform="translate(-1.516 -11)" fill="#aab2bd"/>
    </g>
    <g id="Group_1204979" data-name="Group 1204979" transform="translate(31.253 20.202)">
      <path id="Path_1246048" data-name="Path 1246048" d="M20.077,11.061a13.633,13.633,0,0,1,10.1,6l-10.1,4.04v-2.02A12.062,12.062,0,0,0,16.986,11h1.859A12.279,12.279,0,0,1,20.077,11.061Z" transform="translate(-16.986 -11)" fill="#aab2bd"/>
    </g>
    <g id="Group_1204980" data-name="Group 1204980" transform="translate(44.445 8.081)">
      <path id="Path_1246049" data-name="Path 1246049" d="M38.648,5.384A11.95,11.95,0,0,1,44.2,8.556c.162.162.3.323.465.485a12.062,12.062,0,0,1,3.091,8.081v7.96c-2.465-2.343-6.97-3.919-12.121-3.919s-9.657,1.576-12.121,3.919v-7.96A12.123,12.123,0,0,1,32.627,5.384,11.5,11.5,0,0,1,35.637,5Z" transform="translate(-23.516 -5)" fill="#ccd1d9"/>
    </g>
    <g id="Group_1204981" data-name="Group 1204981" transform="translate(10.101 16.162)">
      <path id="Path_1246050" data-name="Path 1246050" d="M21.648,9.384c5.253,2.869,5.414,3.01,5.556,3.172.162.162.3.323.465.485a12.062,12.062,0,0,1,3.091,8.081v7.96c-2.465-2.343-6.97-3.919-12.121-3.919S8.981,26.738,6.516,29.081v-7.96A12.123,12.123,0,0,1,15.627,9.384,11.5,11.5,0,0,1,18.637,9Z" transform="translate(-6.516 -9)" fill="#ccd1d9"/>
    </g>
    <g id="Group_1204982" data-name="Group 1204982" transform="translate(42.425 24.243)">
      <path id="Path_1246051" data-name="Path 1246051" d="M48.779,16.919a5.773,5.773,0,0,1,2.02,4.162c0,2.929-2.727,5.5-6.808,6.909a22.243,22.243,0,0,1-7.333,1.172c-7.818,0-14.142-3.616-14.142-8.081a5.738,5.738,0,0,1,2.02-4.162C27,14.576,31.506,13,36.658,13s9.657,1.576,12.121,3.919Z" transform="translate(-22.516 -13)" fill="#aab2bd"/>
    </g>
    <g id="Group_1204983" data-name="Group 1204983" transform="translate(8.081 32.324)">
      <path id="Path_1246052" data-name="Path 1246052" d="M31.779,20.919a5.773,5.773,0,0,1,2.02,4.162c0,2.929-2.727,5.5-6.808,6.909a22.243,22.243,0,0,1-7.333,1.172c-7.818,0-14.142-3.616-14.142-8.081a5.773,5.773,0,0,1,2.02-4.162C10,18.576,14.506,17,19.658,17s9.657,1.576,12.121,3.919Z" transform="translate(-5.516 -17)" fill="#aab2bd"/>
    </g>
    <g id="Group_1204984" data-name="Group 1204984" transform="translate(87.092 19.051)">
      <path id="Path_1246053" data-name="Path 1246053" d="M58.424,11.885A18.2,18.2,0,0,1,73.192,22.713h-.02a8.478,8.478,0,0,1-3.98.99,8.358,8.358,0,0,0-4.687,1.414l-2.525,1.7a5.673,5.673,0,0,1-3.111.929A5.555,5.555,0,0,1,53.454,23.5l-.2-.747a5.834,5.834,0,0,0-3.8-4.1,5.834,5.834,0,0,1-3.8-4.1l-1.03-4.121Z" transform="translate(-44.626 -10.43)" fill="#e6e9ed"/>
    </g>
    <g id="Group_1204985" data-name="Group 1204985" transform="translate(56.567 38.384)">
      <path id="Path_1246054" data-name="Path 1246054" d="M53.86,20a3.948,3.948,0,0,1,2.182,7.232,19.378,19.378,0,0,0-6.606,7.5L47.7,38.182H37.6v-2.02a2.026,2.026,0,0,0-2.02-2.02h-2.02L29.516,22.02a22.243,22.243,0,0,0,7.333-1.172l2.667,1.778a8.453,8.453,0,0,0,10.667-1.071l.4-.4A3.961,3.961,0,0,1,53.375,20Z" transform="translate(-29.516 -20)" fill="#e6e9ed"/>
    </g>
    <g id="Group_1204986" data-name="Group 1204986" transform="translate(22.223 46.465)">
      <path id="Path_1246055" data-name="Path 1246055" d="M27.2,28.04a8.441,8.441,0,0,0,5.98-2.485l.4-.4A3.961,3.961,0,0,1,36.375,24h.485a3.948,3.948,0,0,1,2.182,7.232A20.1,20.1,0,0,0,35.648,34.1H15.2L12.516,26.02a22.243,22.243,0,0,0,7.333-1.172l2.667,1.778A8.358,8.358,0,0,0,27.2,28.04Z" transform="translate(-12.516 -24)" fill="#e6e9ed"/>
    </g>
  </g>
  <g id="Group_1204988" data-name="Group 1204988" transform="translate(0 0)">
    <path id="Path_1246056" data-name="Path 1246056" d="M122.256,52.526V40.613a20.158,20.158,0,0,0-18.087-20.091L82.927,18.283a15.544,15.544,0,0,0-9.156-5.8V4.6a4.6,4.6,0,0,0-8.546-2.368l-3.6,6a14.429,14.429,0,0,0-1.994-.156,14.1,14.1,0,0,0-1.994.158l-3.6-6A4.6,4.6,0,0,0,45.488,4.6v7.885a15.564,15.564,0,0,0-6.061,2.725V12.681a4.6,4.6,0,0,0-8.546-2.368l-3.6,6a14.428,14.428,0,0,0-1.994-.156,14.1,14.1,0,0,0-1.994.158l-3.6-6a4.6,4.6,0,0,0-8.544,2.366v7.885a15.572,15.572,0,0,0-9.762,6.6L0,29.235l11.144,4.457v3.78a7.441,7.441,0,0,0-2.02,4.954c0,5.354,6.344,9.606,14.691,10.057l1.362,4.085H13.164a4.045,4.045,0,0,0-4.04-4.04H5.083a4.045,4.045,0,0,0-4.04,4.04V84.85a4.045,4.045,0,0,0,4.04,4.04h4.04a4.045,4.045,0,0,0,4.04-4.04H57.609a4.045,4.045,0,0,0,4.04,4.04h4.04a4.045,4.045,0,0,0,4.04-4.04h44.445a4.045,4.045,0,0,0,4.04,4.04h4.04a4.045,4.045,0,0,0,4.04-4.04V56.567A4.046,4.046,0,0,0,122.256,52.526Zm-6.4-20.344a6.389,6.389,0,0,1-1.139.141,10.428,10.428,0,0,0-5.808,1.76l-2.525,1.683a3.573,3.573,0,0,1-5.445-2.105l-.188-.75a7.806,7.806,0,0,0-5.125-5.533A3.784,3.784,0,0,1,93.137,24.7l-.327-1.309,10.938,1.152a16.117,16.117,0,0,1,12.105,7.643ZM73.722,21.277a14,14,0,0,0-1.246-4.929,11.54,11.54,0,0,1,6.045,3.008ZM68.5,44.706A10.469,10.469,0,0,0,81.714,43.4l.408-.408a1.949,1.949,0,0,1,1.364-.564h.477a1.927,1.927,0,0,1,1.069,3.531,21.527,21.527,0,0,0-7.3,8.271l-1.17,2.339H69.728a4.045,4.045,0,0,0-4.04-4.04h-.566l-2.743-8.232a23.616,23.616,0,0,0,4.261-.828Zm1.23,23.982h44.445v4.04H69.73Zm0-4.04v-4.04h44.445v4.04ZM57.609,56.567H53.9a5.947,5.947,0,0,0-4.277-10.1h-.477a5.929,5.929,0,0,0-4.22,1.747l-.408.408a6.545,6.545,0,0,1-7.772.99c2.919-1.818,4.7-4.348,4.7-7.186a7.441,7.441,0,0,0-2.02-4.954v-3.78l4.525-1.81a6.785,6.785,0,0,0-.485,2.463c0,5.354,6.344,9.606,14.691,10.057l2.733,8.2A4.043,4.043,0,0,0,57.609,56.567ZM39.378,29.358a14,14,0,0,0-1.246-4.929,11.54,11.54,0,0,1,6.045,3.008ZM59.629,40.4c-7.144,0-12.121-3.194-12.121-6.061s4.978-6.061,12.121-6.061,12.121,3.194,12.121,6.061S66.773,40.4,59.629,40.4ZM68.69,4.311a.582.582,0,0,1,1.04.289v7.521h-.224A14.216,14.216,0,0,0,65.619,9.43Zm1.04,17.911v4.19a23,23,0,0,0-10.1-2.17,23,23,0,0,0-10.1,2.17v-4.19a10.1,10.1,0,1,1,20.2,0ZM50.566,4.313l3.071,5.119a14.2,14.2,0,0,0-3.887,2.689h-.224V4.6a.581.581,0,0,1,1.04-.287ZM46.781,16.35a14.045,14.045,0,0,0-1.246,4.929l-4.8-1.919A11.5,11.5,0,0,1,46.781,16.35ZM34.346,12.392a.582.582,0,0,1,1.04.289V19.59l-.337.507a14.207,14.207,0,0,0-3.772-2.586ZM35.386,30.3v4.19a23,23,0,0,0-10.1-2.17,23,23,0,0,0-10.1,2.17V30.3a10.1,10.1,0,1,1,20.2,0ZM16.222,12.394l3.071,5.119A14.2,14.2,0,0,0,15.406,20.2h-.222V12.681a.579.579,0,0,1,1.038-.287ZM12.437,24.431A14.045,14.045,0,0,0,11.19,29.36l-4.8-1.919A11.5,11.5,0,0,1,12.437,24.431Zm.727,17.994c0-2.867,4.978-6.061,12.121-6.061s12.121,3.194,12.121,6.061-4.978,6.061-12.121,6.061S13.164,45.292,13.164,42.425Zm14.873,9.95a23.616,23.616,0,0,0,4.261-.828l1.859,1.236A10.461,10.461,0,0,0,47.37,51.478l.408-.408a1.949,1.949,0,0,1,1.364-.564h.477a1.927,1.927,0,0,1,1.069,3.531,21.426,21.426,0,0,0-3.071,2.529H29.431Zm29.572,8.232v4.04H13.164v-4.04Zm0,8.081v4.04H13.164v-4.04ZM5.083,84.85V56.567h4.04l0,28.283Zm8.081-4.04v-4.04H57.609v4.04Zm48.486,4.04V56.567h4.04l0,28.283Zm8.081-4.04v-4.04h44.445v4.04Zm44.445-24.243H81.08l.267-.533a17.485,17.485,0,0,1,5.929-6.715,5.968,5.968,0,0,0-3.311-10.933h-.477a5.929,5.929,0,0,0-4.22,1.747l-.408.408a6.55,6.55,0,0,1-7.772.992c2.919-1.818,4.705-4.348,4.705-7.188a7.44,7.44,0,0,0-2.02-4.954V25.61l8.366-3.348,6.4.673.683,2.739a7.806,7.806,0,0,0,5.125,5.533,3.778,3.778,0,0,1,2.483,2.679l.188.75a7.612,7.612,0,0,0,11.608,4.489l2.523-1.683a6.411,6.411,0,0,1,3.566-1.079,10.476,10.476,0,0,0,2.82-.4,16.221,16.221,0,0,1,.683,4.649V52.526a4.045,4.045,0,0,0-4.04,4.04Zm4.04,28.283V56.567h4.04l0,28.283Z" transform="translate(0 0)"/>
    <circle id="Ellipse_12491" data-name="Ellipse 12491" cx="2.02" cy="2.02" r="2.02" transform="translate(51.548 18.182)"/>
    <circle id="Ellipse_12492" data-name="Ellipse 12492" cx="2.02" cy="2.02" r="2.02" transform="translate(53.569 32.324)"/>
    <circle id="Ellipse_12493" data-name="Ellipse 12493" cx="2.02" cy="2.02" r="2.02" transform="translate(61.649 32.324)"/>
    <circle id="Ellipse_12494" data-name="Ellipse 12494" cx="2.02" cy="2.02" r="2.02" transform="translate(63.67 18.182)"/>
    <circle id="Ellipse_12495" data-name="Ellipse 12495" cx="2.02" cy="2.02" r="2.02" transform="translate(17.204 26.263)"/>
    <circle id="Ellipse_12496" data-name="Ellipse 12496" cx="2.02" cy="2.02" r="2.02" transform="translate(19.225 40.405)"/>
    <circle id="Ellipse_12497" data-name="Ellipse 12497" cx="2.02" cy="2.02" r="2.02" transform="translate(27.305 40.405)"/>
    <circle id="Ellipse_12498" data-name="Ellipse 12498" cx="2.02" cy="2.02" r="2.02" transform="translate(29.326 26.263)"/>
  </g>
</svg>
