<svg xmlns="http://www.w3.org/2000/svg" width="97.005" height="96.362" viewBox="0 0 97.005 96.362">
  <g id="ganado" transform="translate(-0.586 -1)">
    <g id="Group_1205007" data-name="Group 1205007" transform="translate(2.784 2.554)">
      <g id="Group_1204990" data-name="Group 1204990" transform="translate(68.386 77.711)">
        <path id="Path_1246057" data-name="Path 1246057" d="M46,52h6.217v9.325H46Z" transform="translate(-46 -52)" fill="#d3a06c"/>
      </g>
      <g id="Group_1204991" data-name="Group 1204991" transform="translate(43.518 77.711)">
        <path id="Path_1246058" data-name="Path 1246058" d="M30,52h6.217v9.325H30Z" transform="translate(-30 -52)" fill="#d3a06c"/>
      </g>
      <g id="Group_1204992" data-name="Group 1204992" transform="translate(18.651 77.711)">
        <path id="Path_1246059" data-name="Path 1246059" d="M14,52h6.217v9.325H14Z" transform="translate(-14 -52)" fill="#d3a06c"/>
      </g>
      <g id="Group_1204993" data-name="Group 1204993" transform="translate(74.603 65.277)">
        <path id="Path_1246060" data-name="Path 1246060" d="M68.651,53.325V71.976H50V53.325a9.35,9.35,0,0,1,3.481-7.274,9.334,9.334,0,0,1,15.169,7.274Z" transform="translate(-50 -44)" fill="#b27946"/>
      </g>
      <g id="Group_1204994" data-name="Group 1204994" transform="translate(49.735 65.277)">
        <path id="Path_1246061" data-name="Path 1246061" d="M52.651,53.325V71.976H34V53.325A9.333,9.333,0,0,1,43.325,44a9.339,9.339,0,0,1,9.325,9.325Z" transform="translate(-34 -44)" fill="#b27946"/>
      </g>
      <g id="Group_1204995" data-name="Group 1204995" transform="translate(24.868 65.277)">
        <path id="Path_1246062" data-name="Path 1246062" d="M36.651,56.434V71.976H18V53.325a9.325,9.325,0,0,1,18.651,0Z" transform="translate(-18 -44)" fill="#b27946"/>
      </g>
      <g id="Group_1204996" data-name="Group 1204996" transform="translate(0 65.277)">
        <path id="Path_1246063" data-name="Path 1246063" d="M20.651,65.759v6.217H2V53.325A9.333,9.333,0,0,1,11.325,44a9.339,9.339,0,0,1,9.325,9.325V65.759Z" transform="translate(-2 -44)" fill="#b27946"/>
      </g>
      <g id="Group_1204997" data-name="Group 1204997" transform="translate(18.651 42.353)">
        <path id="Path_1246064" data-name="Path 1246064" d="M26.434,37.472v.715a1.559,1.559,0,0,1-1.554,1.554H15.554A1.559,1.559,0,0,1,14,38.187V33.524a6.046,6.046,0,0,1,.839-3.108h5.378A9.236,9.236,0,0,0,24.74,29.25a6.276,6.276,0,0,1,1.694,4.274Z" transform="translate(-14 -29.25)" fill="#fcd770"/>
      </g>
      <g id="Group_1204998" data-name="Group 1204998" transform="translate(29.39 27.976)">
        <path id="Path_1246065" data-name="Path 1246065" d="M59.268,47.976H42.809a7.774,7.774,0,0,0-7.771,7.771v10.88A9.339,9.339,0,0,0,25.713,57.3V47.976A6.186,6.186,0,0,0,22.6,42.6V38.651a6.276,6.276,0,0,0-1.694-4.274,9.34,9.34,0,0,0,4.259-5.051h.016a9.392,9.392,0,0,0,.528-3.108,9.2,9.2,0,0,0-1.29-4.725L24.671,20H38.146a3.131,3.131,0,0,1,3.108,3.108,3.118,3.118,0,0,1-3.108,3.108H35.038a3.131,3.131,0,0,0-3.108,3.108,3.118,3.118,0,0,0,3.108,3.108h3.108a3.131,3.131,0,0,1,3.108,3.108,3.118,3.118,0,0,0,3.108,3.108h3.108a3.118,3.118,0,0,0,3.108-3.108V29.325a3.131,3.131,0,0,1,3.108-3.108A3.118,3.118,0,0,0,56.8,23.108V20.3A18.881,18.881,0,0,1,72.153,41.526L69.6,59.353a9.35,9.35,0,0,0-3.481,7.274v3.108H59.905v-18.4a9.456,9.456,0,0,0-.622-3.357Z" transform="translate(-20.91 -20)" fill="#ccd1d9"/>
      </g>
      <g id="Group_1204999" data-name="Group 1204999" transform="translate(24.868 50.574)">
        <path id="Path_1246066" data-name="Path 1246066" d="M24.217,34.54a6.186,6.186,0,0,1,3.108,5.378v9.325a9.243,9.243,0,0,0-6.434,2.58v-.031A40.213,40.213,0,0,1,18,36.809h4.663a1.559,1.559,0,0,0,1.554-1.554Z" transform="translate(-18 -34.54)" fill="#838f9b"/>
      </g>
      <g id="Group_1205000" data-name="Group 1205000" transform="translate(40.41 27.976)">
        <path id="Path_1246067" data-name="Path 1246067" d="M52.868,20.3v2.813a3.118,3.118,0,0,1-3.108,3.108,3.131,3.131,0,0,0-3.108,3.108v6.217a3.118,3.118,0,0,1-3.108,3.108H40.434a3.118,3.118,0,0,1-3.108-3.108,3.131,3.131,0,0,0-3.108-3.108H31.108A3.118,3.118,0,0,1,28,29.325a3.131,3.131,0,0,1,3.108-3.108h3.108a3.118,3.118,0,0,0,3.108-3.108A3.131,3.131,0,0,0,34.217,20H49.542A18.012,18.012,0,0,1,52.868,20.3Z" transform="translate(-28 -20)" fill="#838f9b"/>
      </g>
      <g id="Group_1205001" data-name="Group 1205001" transform="translate(31.52 0)">
        <path id="Path_1246068" data-name="Path 1246068" d="M30.813,17.9v.016l-1.974-.373A5.639,5.639,0,0,0,24.953,19.1a7.735,7.735,0,0,0-2.673-5.859l1.072-.637a12.418,12.418,0,0,0,5.782-8.222L29.616,2l.3.187A9.833,9.833,0,0,1,31.4,17.309Z" transform="translate(-22.28 -2)" fill="#969faa"/>
      </g>
      <g id="Group_1205002" data-name="Group 1205002">
        <path id="Path_1246069" data-name="Path 1246069" d="M7.144,4.378A12.418,12.418,0,0,0,12.926,12.6L14,13.237a4.427,4.427,0,0,0-.4.357,7.8,7.8,0,0,0-2.269,5.5A5.639,5.639,0,0,0,7.44,17.542l-1.974.373V17.9l-.591-.591A9.833,9.833,0,0,1,6.367,2.187L6.663,2Z" transform="translate(-2 -2)" fill="#969faa"/>
      </g>
      <g id="Group_1205003" data-name="Group 1205003" transform="translate(34.1 15.542)">
        <path id="Path_1246070" data-name="Path 1246070" d="M27.919,12l1.974.373a13.28,13.28,0,0,1,2,1.274l1.461,1.461L31.9,16.569a5.628,5.628,0,0,1-7.942.016H23.94l.093-3.031A5.639,5.639,0,0,1,27.919,12Z" transform="translate(-23.94 -12)" fill="#aab2bd"/>
      </g>
      <g id="Group_1205004" data-name="Group 1205004" transform="translate(0 15.542)">
        <path id="Path_1246071" data-name="Path 1246071" d="M11.325,13.554q0,1.515.093,3.031H11.4a5.628,5.628,0,0,1-7.942-.016L2,15.108l1.461-1.461a13.28,13.28,0,0,1,2-1.274L7.44,12a5.639,5.639,0,0,1,3.886,1.554Z" transform="translate(-2 -12)" fill="#aab2bd"/>
      </g>
      <g id="Group_1205005" data-name="Group 1205005" transform="translate(9.325 9.325)">
        <path id="Path_1246072" data-name="Path 1246072" d="M32.868,15.771,32.774,18.8c-.342,4.088-.482,5.16-.668,6.232l-.28,1.616-.249,1.492-1.445-1.865a9.239,9.239,0,0,0-6.59-2.735H17.325a9.318,9.318,0,0,0-8.035,4.6l-.528-3.108A52.662,52.662,0,0,1,8.093,18.8Q8,17.286,8,15.771a7.8,7.8,0,0,1,2.269-5.5,4.426,4.426,0,0,1,.4-.357A7.718,7.718,0,0,1,15.771,8H25.1a7.782,7.782,0,0,1,7.771,7.771Z" transform="translate(-8 -8)" fill="#ccd1d9"/>
      </g>
      <g id="Group_1205006" data-name="Group 1205006" transform="translate(9.325 24.868)">
        <path id="Path_1246073" data-name="Path 1246073" d="M31.578,22.6l-1.445-1.865A9.239,9.239,0,0,0,23.542,18H17.325A9.318,9.318,0,0,0,9.29,22.6,9.2,9.2,0,0,0,8,27.325a9.392,9.392,0,0,0,.528,3.108h.016a8.966,8.966,0,0,0,2.191,3.481,9.239,9.239,0,0,0,6.59,2.735h6.217a9.236,9.236,0,0,0,4.523-1.166,9.339,9.339,0,0,0,4.259-5.051h.016a9.392,9.392,0,0,0,.528-3.108A9.2,9.2,0,0,0,31.578,22.6Z" transform="translate(-8 -18)" fill="#e6e9ed"/>
      </g>
    </g>
    <g id="Group_1205008" data-name="Group 1205008" transform="translate(0.586 1)">
      <circle id="Ellipse_12499" data-name="Ellipse 12499" cx="1.554" cy="1.554" r="1.554" transform="translate(19.294 31.085)"/>
      <circle id="Ellipse_12500" data-name="Ellipse 12500" cx="1.554" cy="1.554" r="1.554" transform="translate(16.186 18.651)"/>
      <circle id="Ellipse_12501" data-name="Ellipse 12501" cx="1.554" cy="1.554" r="1.554" transform="translate(28.619 18.651)"/>
      <circle id="Ellipse_12502" data-name="Ellipse 12502" cx="1.554" cy="1.554" r="1.554" transform="translate(25.511 31.085)"/>
      <path id="Path_1246074" data-name="Path 1246074" d="M92.929,56.952a4.668,4.668,0,0,0,4.663-4.663V44.519H94.483V52.29a1.554,1.554,0,1,1-3.108,0V39.135A7.049,7.049,0,0,0,79.34,34.15l-.507.507A20.335,20.335,0,0,0,64.74,28.976H37.771c.2-1.2.345-2.4.465-3.614a7.15,7.15,0,0,0,7.706-1.6L48.5,21.205l-2.558-2.558a7.284,7.284,0,0,0-.648-.533,11.378,11.378,0,0,0-2.5-16.66L42.5,1.261a1.555,1.555,0,0,0-2.387.988l-.476,2.378a10.9,10.9,0,0,1-5.071,7.2l-.157.095a9.265,9.265,0,0,0-5.205-1.593H19.88a9.275,9.275,0,0,0-5.205,1.592l-.159-.095a10.9,10.9,0,0,1-5.071-7.2L8.969,2.25a1.555,1.555,0,0,0-2.387-.988l-.288.193a11.378,11.378,0,0,0-2.5,16.66,7.284,7.284,0,0,0-.648.533L.586,21.205l2.558,2.558a7.15,7.15,0,0,0,7.706,1.6c.126,1.274.283,2.546.493,3.8l.432,2.594a10.854,10.854,0,0,0,8.3,15.771,7.724,7.724,0,0,0-.193,1.649v4.663a3.112,3.112,0,0,0,3.108,3.108h3.146a41.724,41.724,0,0,0,2.624,13.1A10.816,10.816,0,0,0,26.1,77.157v1.554H22.989V77.157a10.88,10.88,0,1,0-21.759,0v20.2H97.591v-20.2A10.852,10.852,0,0,0,82.85,67l2.1-14.715A20.306,20.306,0,0,0,80.91,36.976l.629-.629a3.941,3.941,0,0,1,6.727,2.788V52.29A4.668,4.668,0,0,0,92.929,56.952ZM66.507,32.175v1.464a1.557,1.557,0,0,1-1.554,1.554,4.668,4.668,0,0,0-4.663,4.663v6.217a1.557,1.557,0,0,1-1.554,1.554H55.627a1.557,1.557,0,0,1-1.554-1.554A4.668,4.668,0,0,0,49.41,41.41H46.3a1.554,1.554,0,1,1,0-3.108H49.41a4.668,4.668,0,0,0,4.663-4.663,4.61,4.61,0,0,0-.286-1.554H64.74a17.471,17.471,0,0,1,1.767.09ZM13.663,36.747a7.78,7.78,0,0,1,7.771-7.771h6.217A7.771,7.771,0,0,1,35.265,38.3H13.82A7.764,7.764,0,0,1,13.663,36.747Zm30.08-15.182a4.179,4.179,0,0,1-5.259.4c.02-.518.025-1.035.033-1.551a4.175,4.175,0,0,1,5.228.426l.359.361ZM42.651,5.414a8.259,8.259,0,0,1-.278,11.295,7.291,7.291,0,0,0-1.511-.166,7.169,7.169,0,0,0-2.7.528A9.259,9.259,0,0,0,36.7,14.129a14.005,14.005,0,0,0,5.95-8.715Zm-13.446,8.02a6.223,6.223,0,0,1,6.217,6.217,54.921,54.921,0,0,1-.72,8.828,10.821,10.821,0,0,0-7.052-2.611H21.434a10.821,10.821,0,0,0-7.052,2.611,54.921,54.921,0,0,1-.72-8.828,6.223,6.223,0,0,1,6.217-6.217ZM4.338,10.919a8.252,8.252,0,0,1,2.1-5.505,14.009,14.009,0,0,0,5.948,8.715,9.324,9.324,0,0,0-1.458,2.942,7.065,7.065,0,0,0-4.212-.361,8.215,8.215,0,0,1-2.375-5.791Zm1,10.646-.361-.361.361-.361a4.175,4.175,0,0,1,5.228-.424c.006.518.011,1.034.033,1.551a4.179,4.179,0,0,1-5.261-.406ZM15.258,41.41H33.829a7.739,7.739,0,0,1-6.176,3.108H21.436a7.736,7.736,0,0,1-6.178-3.108ZM69.381,60.061a7.735,7.735,0,0,1,.235,1.8v7.7a10.87,10.87,0,0,0-18.651,7.6v1.554H47.856V66.278a6.223,6.223,0,0,1,6.217-6.217ZM72.724,81.82h3.108v6.217H72.724ZM69.615,94.254H54.073v-17.1a7.771,7.771,0,1,1,15.542,0ZM47.856,81.82h3.108v6.217H47.856Zm0,9.325h3.108v3.108H47.856Zm-3.108,3.108H29.205v-17.1a7.771,7.771,0,1,1,15.542,0ZM22.989,49.181a4.656,4.656,0,0,1,.3-1.554h4.361a10.8,10.8,0,0,0,4.022-.78,4.649,4.649,0,0,1,.64,2.334v4.663H22.989Zm9.325,7.771A3.085,3.085,0,0,0,34.6,55.927a4.635,4.635,0,0,1,.818,2.58v7.9a10.807,10.807,0,0,0-4.108,1.483,38.522,38.522,0,0,1-2.036-10.932ZM26.1,81.82v6.217H22.989V81.82ZM19.88,94.254H4.338v-17.1a7.771,7.771,0,1,1,15.542,0Zm3.108-3.108H26.1v3.108H22.989Zm49.735,3.108V91.145h3.108v3.108Zm21.759-17.1v17.1H78.941v-17.1a7.771,7.771,0,1,1,15.542,0ZM81.875,51.842,79.407,69.117a10.844,10.844,0,0,0-3.575,8.04v1.554H72.724V61.856a10.82,10.82,0,0,0-.777-4.039l-1.71-4.273a8.691,8.691,0,0,1,1.924-9.374l.107-.107-2.3-2.09A11.8,11.8,0,0,0,67.351,54.7l.9,2.254H54.073a9.335,9.335,0,0,0-9.325,9.325v3.279A10.859,10.859,0,0,0,38.531,66.4V58.507A7.793,7.793,0,0,0,35.422,52.3V49.181A7.724,7.724,0,0,0,34.356,45.3a10.811,10.811,0,0,0,3.11-13.212H49.41a1.554,1.554,0,1,1,0,3.108H46.3a4.663,4.663,0,1,0,0,9.325H49.41a1.557,1.557,0,0,1,1.554,1.554,4.668,4.668,0,0,0,4.663,4.663h3.108A4.668,4.668,0,0,0,63.4,46.073V39.856A1.557,1.557,0,0,1,64.953,38.3a4.668,4.668,0,0,0,4.663-4.663V32.8a17.3,17.3,0,0,1,12.26,19.047Z" transform="translate(-0.586 -1)"/>
    </g>
  </g>
</svg>
