<svg xmlns="http://www.w3.org/2000/svg" width="98" height="97.999" viewBox="0 0 98 97.999">
  <g id="Group_1204926" data-name="Group 1204926" transform="translate(-751 -2838.75)">
    <g id="Group_1204237" data-name="Group 1204237" transform="translate(-52.781 866.734)">
      <g id="Group_1204143" data-name="Group 1204143" transform="translate(-67.331 1694.852)">
        <g id="Group_1188789" data-name="Group 1188789" transform="translate(871.113 277.164)">
          <path id="Path_1243039" data-name="Path 1243039" d="M41.05,0h0a41.05,41.05,0,0,1,0,82.1h0a41.05,41.05,0,0,1,0-82.1Z" transform="translate(7.951 7.949)" fill="#ffc94a"/>
          <rect id="Rectangle_400907" data-name="Rectangle 400907" width="88.438" height="88.437" rx="44.218" transform="translate(4.782 4.781)" fill="none"/>
          <g id="Group_1098742" data-name="Group 1098742" transform="translate(0)">
            <g id="Rectangle_400898" data-name="Rectangle 400898" transform="translate(0)" fill="none" stroke="#fff" stroke-width="2" opacity="0.859">
              <rect width="98" height="97.999" rx="48.999" stroke="none"/>
              <rect x="1" y="1" width="96" height="95.999" rx="47.999" fill="none"/>
            </g>
            <g id="Rectangle_400907-2" data-name="Rectangle 400907" transform="translate(0)" fill="none" stroke="#0f1f33" stroke-linecap="round" stroke-width="2">
              <rect width="98" height="97.999" rx="48.999" stroke="none"/>
              <rect x="1" y="1" width="96" height="95.999" rx="47.999" fill="none"/>
            </g>
          </g>
        </g>
      </g>
    </g>
    <path id="Path_1245898" data-name="Path 1245898" d="M45.377,49.022s9.265-9.3,4.3-18.434c-2.4-4.41-12.493-9.366-17.015-15.153C28.474,10.073,28.609,5.423,33.373,2H24.115s-6.837,2.554-3.359,11.756c2.658,7.038.734,12.313-5.038,16.794S4.034,38.968,3.826,49.022Z" transform="translate(771.441 2859.138)" fill="#0d9ddb" fill-rule="evenodd"/>
    <path id="Path_1245899" data-name="Path 1245899" d="M31.893,35.64s1.485,2.271-3.036,5.755c-5.95,4.586-4.069,8.316-4.069,8.316a.839.839,0,0,0,1.527-.7s-1.076-2.707,3.569-6.288c2.929-2.257,3.753-4.212,3.906-5.56a3.606,3.606,0,0,0-.544-2.522.84.84,0,0,0-1.352,1ZM15,39.4S9.5,42.96,10.432,49.481a.84.84,0,1,0,1.663-.238C11.314,43.788,15.91,40.8,15.91,40.8A.839.839,0,1,0,15,39.4Zm-.754-9.655V27.448a.84.84,0,0,0-1.679,0v3.607l-.752.583V25.851a.84.84,0,0,0-1.679,0v7.116l-.413.339V32a.84.84,0,0,0-1.679,0v2.348a.812.812,0,0,0,.077.349,18.94,18.94,0,0,0-6.7,14.644.84.84,0,1,0,1.679.034c.2-9.725,5.984-13.492,11.568-17.827A16.348,16.348,0,0,0,20.633,23.7a14.83,14.83,0,0,0-.658-9.9c-1.281-3.391-1.087-5.8-.339-7.473a6.374,6.374,0,0,1,3.206-3.2.839.839,0,1,0-.588-1.572A8.063,8.063,0,0,0,18.1,5.64c-.875,1.958-1.2,4.783.3,8.753a13.2,13.2,0,0,1,.628,8.807,14.169,14.169,0,0,1-4.79,6.541Zm26.1-6.961v-6.63a.84.84,0,1,0-1.679,0v5.377q-.272-.2-.544-.413a.826.826,0,0,0,.148-.475V18.289a.84.84,0,0,0-1.679,0v1.627q-.32-.257-.635-.519a.85.85,0,0,0,.042-.264V15.157a.84.84,0,1,0-1.679,0v2.816a23.071,23.071,0,0,1-2.556-2.716C29.446,12.3,28.492,9.6,29.105,7.212A7.6,7.6,0,0,1,32.3,3.021a.839.839,0,1,0-.979-1.364C28.687,3.545,27.37,5.8,27.255,8.291c-.113,2.423.934,5.125,3.181,8,2.754,3.522,7.532,6.753,11.447,9.732,2.46,1.871,4.576,3.617,5.492,5.3,2.331,4.291,1.286,8.619-.306,11.873a23.158,23.158,0,0,1-3.852,5.569A.84.84,0,1,0,44.4,49.955a24.393,24.393,0,0,0,5.13-8.32,13.457,13.457,0,0,0-.685-11.109c-1-1.842-3.265-3.8-5.952-5.839-.821-.625-1.683-1.261-2.556-1.908ZM33.522,26.6a30.894,30.894,0,0,1,7.606,5.586c1.783,1.9,3.184,4.161,2.931,6.612a7.911,7.911,0,0,1-3,5,.84.84,0,0,0,1.113,1.258,9.5,9.5,0,0,0,3.554-6.089c.3-2.922-1.251-5.67-3.377-7.935A32.891,32.891,0,0,0,34.273,25.1a.839.839,0,1,0-.751,1.5Zm-9.547-7.356s3.13,6.9-3.582,13.616A.84.84,0,0,0,21.58,34.05C29.208,26.422,25.5,18.541,25.5,18.541a.839.839,0,1,0-1.523.705Z" transform="translate(769.807 2858.798)" fill="#231f1b" fill-rule="evenodd"/>
  </g>
</svg>
