<svg xmlns="http://www.w3.org/2000/svg" width="139.384" height="89.192" viewBox="0 0 139.384 89.192">
  <g id="vaca2" transform="translate(0 -92.185)">
    <g id="Group_1205064" data-name="Group 1205064" transform="translate(2.178 96.49)">
      <path id="Path_1246126" data-name="Path 1246126" d="M32,300H42.889v23.957H32Z" transform="translate(-25.466 -247.732)" fill="#c0805d"/>
      <circle id="Ellipse_12503" data-name="Ellipse 12503" cx="17.423" cy="17.423" r="17.423" transform="translate(6.534 23.957)" fill="#fdcc88"/>
      <path id="Path_1246127" data-name="Path 1246127" d="M34.877,224.815a17.4,17.4,0,0,0,8.013,25.723,7.429,7.429,0,0,1,2.176-5.253l14.158-14.158Z" transform="translate(-25.466 -193.014)" fill="#f6b87e"/>
      <path id="Path_1246128" data-name="Path 1246128" d="M48.712,380H40v8.712H53.067Z" transform="translate(-31.288 -305.953)" fill="#615260"/>
      <path id="Path_1246129" data-name="Path 1246129" d="M240,380h8.712v8.712H240Z" transform="translate(-176.842 -305.953)" fill="#615260"/>
      <path id="Path_1246130" data-name="Path 1246130" d="M240,292h8.712v23.957H240Z" transform="translate(-176.842 -241.91)" fill="#9e6a5a"/>
      <path id="Path_1246131" data-name="Path 1246131" d="M126.082,132.517c-2.715-2.172-8.047-2.572-11.366-1.688v4.356H106L102.41,138.1H26.858c-9.706,0-16.941,6.03-14.907,15.52l1.782,8.316a10.89,10.89,0,0,1-.908,7.152L9.15,176.443A10.891,10.891,0,0,0,8,181.314v17.03l4.356,2.178,4.356-2.178V182.577a4.356,4.356,0,0,1,1.1-2.894l10.275-11.246,17.4,6.51a47.914,47.914,0,0,0,12.346,1.618H79.87v21.779l4.356,2.178,4.356-2.178V184.41a10.89,10.89,0,0,1,2.028-6.329l1.083-1.516h1.084a17.423,17.423,0,0,0,14.091-7.175l8.943-12.3a10.889,10.889,0,0,1,8.807-4.485h11.878a6.534,6.534,0,0,0,6.534-6.534Z" transform="translate(-8 -124.296)" fill="#9e6a5a"/>
      <path id="Path_1246132" data-name="Path 1246132" d="M26.858,148a15.245,15.245,0,0,0-14.907,18.44l1.782,8.316a10.89,10.89,0,0,1-.908,7.152l-3.676,7.351A10.89,10.89,0,0,0,8,194.129v17.03l4.356,2.178,2.289-1.089V194.13a4.38,4.38,0,0,1,.461-1.952l3.564-7.348a17.491,17.491,0,0,0,1.453-11.444l-1.71-7.976a9.114,9.114,0,0,1,.8-6.361,8.674,8.674,0,0,1,7.642-4.513H99.471A6.541,6.541,0,0,0,106,148H26.858Z" transform="translate(-8 -137.112)" fill="#845252"/>
      <path id="Path_1246133" data-name="Path 1246133" d="M21.067,388.713H11.878a2.178,2.178,0,0,1-2.113-1.65L8,380h8.712Z" transform="translate(-8 -305.953)" fill="#4e3d4d"/>
      <path id="Path_1246134" data-name="Path 1246134" d="M370.349,108a7.214,7.214,0,0,0,1.389,11.287l1.792,1.379a3.952,3.952,0,0,0,4.878-6.218Z" transform="translate(-270.167 -108.001)" fill="#7a4646"/>
      <path id="Path_1246135" data-name="Path 1246135" d="M281.543,388.713H272V380h8.712l2.78,5.56A2.178,2.178,0,0,1,281.543,388.713Z" transform="translate(-200.13 -305.953)" fill="#4e3d4d"/>
      <path id="Path_1246136" data-name="Path 1246136" d="M96.681,259.146l-15.646-4.382L76.023,260.4,95,265.461a47.913,47.913,0,0,0,12.346,1.618h22.034v-6.534H107.356A41.4,41.4,0,0,1,96.681,259.146Z" transform="translate(-57.505 -214.81)" fill="#845252"/>
    </g>
    <g id="Group_1205065" data-name="Group 1205065" transform="translate(0 92.184)">
      <path id="Path_1246137" data-name="Path 1246137" d="M138.618,116.637l-14.6-11.679a19.2,19.2,0,0,0,4.393-6.14,2.042,2.042,0,0,0-3.754-1.608,14.013,14.013,0,0,1-3.949,5.172,12.9,12.9,0,0,0-1.6-.909,12.035,12.035,0,0,0,.552-7.827,2.042,2.042,0,0,0-3.915,1.159c.01.034.867,3.162-.662,5.51a12.953,12.953,0,0,0-3.866.114l-7.568-5.657a2.041,2.041,0,0,0-2.666.192,9.271,9.271,0,0,0,1.786,14.5l2.972,1.783a2.042,2.042,0,1,0,2.1-3.5l-2.972-1.783a5.195,5.195,0,0,1-2.013-6.689l6.66,4.979a2.035,2.035,0,0,0,1.747.336h0a8.9,8.9,0,0,1,7.822,1.645l16.123,12.9a4.513,4.513,0,0,1-4.413,3.6h-11.9a12.992,12.992,0,0,0-10.476,5.334l-8.961,12.322a15.464,15.464,0,0,1-9.353,6.022l5.254-7.356a2.042,2.042,0,1,0-3.323-2.373l-8.879,12.43a12.882,12.882,0,0,0-2.413,7.529v11.92H76.1V137.872a2.042,2.042,0,1,0-4.084,0v8.87h-19.9a45.983,45.983,0,0,1-12.1-1.62l-9.874-2.693a2.042,2.042,0,1,0-1.074,3.94l8.066,2.2A15.405,15.405,0,0,1,16.4,149.894l13.36-15.03a2.042,2.042,0,0,0-3.052-2.713l-16.356,18.4a6.4,6.4,0,0,0-1.618,4.256v13.757H4.084V153.541a8.915,8.915,0,0,1,.936-3.966L8.7,142.209a13,13,0,0,0,1.08-8.507L8,125.369a13.234,13.234,0,0,1,12.94-16.007H92.18a2.042,2.042,0,1,0,0-4.084H20.938A17.318,17.318,0,0,0,4,126.225l1.786,8.333a8.9,8.9,0,0,1-.739,5.825l-3.683,7.366A13.019,13.019,0,0,0,0,153.541v17.065H0a2.043,2.043,0,0,0,.059.5l2.182,8.729a2.041,2.041,0,0,0,1.981,1.547h19.64a2.042,2.042,0,0,0,1.826-2.955l-4.149-8.3V156.847a19.516,19.516,0,0,0,20.013-7.156,50.067,50.067,0,0,0,10.562,1.134H63.286v28.51a2.042,2.042,0,0,0,2.042,2.042H87.15a2.042,2.042,0,0,0,1.826-2.955l-4.149-8.3V156.645a8.821,8.821,0,0,1,1.652-5.155l.474-.664h.035a19.559,19.559,0,0,0,15.77-8.031l8.961-12.322a8.9,8.9,0,0,1,7.173-3.653h11.9a8.6,8.6,0,0,0,8.588-8.588,2.042,2.042,0,0,0-.766-1.595ZM5.818,177.293l-1.161-4.645H9.509l2.323,4.645Zm10.579,0-2.323-4.645h4.164l2.323,4.645Zm1.061-8.729H12.812V154.807a2.321,2.321,0,0,1,.587-1.543l.281-.316a19.415,19.415,0,0,0,3.778,2.435v13.182Zm54.557-17.739v17.739H67.369V150.825Zm-4.645,21.823h4.645v4.645H67.369Zm8.729,4.646v-4.645h5.425l2.323,4.645Z" transform="translate(0 -92.184)"/>
      <circle id="Ellipse_12504" data-name="Ellipse 12504" cx="2.042" cy="2.042" r="2.042" transform="translate(113.504 17.472)"/>
    </g>
  </g>
</svg>
