<svg xmlns="http://www.w3.org/2000/svg" width="110.973" height="109.353" viewBox="0 0 110.973 109.353">
  <g id="vaca" transform="translate(0 -3.735)">
    <g id="Group_1204952" data-name="Group 1204952" transform="translate(1.626 5.366)">
      <g id="Group_1204931" data-name="Group 1204931" transform="translate(58.395)">
        <path id="Path_1245980" data-name="Path 1245980" d="M294.927,12.819l-1.764,2.663a12.722,12.722,0,0,1-3.894,3.781l-12.351,7.67,14.711,7.482,6.751-8.439a13.249,13.249,0,0,0,2.9-8.277V14.734a3.466,3.466,0,0,0-6.356-1.915Z" transform="translate(-276.918 -11.26)" fill="#ffd15b"/>
      </g>
      <g id="Group_1204932" data-name="Group 1204932" transform="translate(24.961 0)">
        <path id="Path_1245981" data-name="Path 1245981" d="M134.678,19.264a12.721,12.721,0,0,1-3.894-3.781L129.02,12.82a3.467,3.467,0,0,0-6.357,1.914V17.7a13.249,13.249,0,0,0,2.9,8.277l15.872-2.514Z" transform="translate(-122.663 -11.261)" fill="#ffd15b"/>
      </g>
      <g id="Group_1204933" data-name="Group 1204933" transform="translate(58.395 8.799)">
        <path id="Path_1245982" data-name="Path 1245982" d="M291.63,66.213l6.738-8.423a25.915,25.915,0,0,0-10.382-5.932l-11.068,6.873Z" transform="translate(-276.919 -51.858)" fill="#ffc344"/>
      </g>
      <g id="Group_1204934" data-name="Group 1204934" transform="translate(27.877 8.799)">
        <path id="Path_1245983" data-name="Path 1245983" d="M157.568,58.731,146.5,51.858a25.916,25.916,0,0,0-10.382,5.932l6.738,8.423Z" transform="translate(-136.118 -51.858)" fill="#ffc344"/>
      </g>
      <g id="Group_1204935" data-name="Group 1204935" transform="translate(76.946 17.856)">
        <path id="Path_1245984" data-name="Path 1245984" d="M362.51,107.785l13.132,4.642a13.314,13.314,0,0,0,13.024-2.377l2.529-2.134a5.887,5.887,0,0,0,0-9l-2.529-2.134a13.314,13.314,0,0,0-13.024-2.377L362.51,99.048Z" transform="translate(-362.51 -93.645)" fill="#f4aa73"/>
      </g>
      <g id="Group_1204936" data-name="Group 1204936" transform="translate(76.946 17.857)">
        <path id="Path_1245985" data-name="Path 1245985" d="M388.993,102.607l4.292.81a5.859,5.859,0,0,0-2.09-4.5l-2.529-2.134a13.314,13.314,0,0,0-13.024-2.377L362.51,99.049v6.208l7.971-2.048A42.613,42.613,0,0,1,388.993,102.607Z" transform="translate(-362.51 -93.646)" fill="#919090"/>
      </g>
      <g id="Group_1204937" data-name="Group 1204937" transform="translate(76.946 17.857)">
        <path id="Path_1245986" data-name="Path 1245986" d="M376.373,96.981l7.279-2.573q.215-.076.431-.144a13.309,13.309,0,0,0-8.442.144L362.509,99.05v6.208l7.971-2.048c.1-.026.2-.048.3-.073A8.778,8.778,0,0,1,376.373,96.981Z" transform="translate(-362.509 -93.647)" fill="#848383"/>
      </g>
      <g id="Group_1204938" data-name="Group 1204938" transform="translate(0 17.856)">
        <path id="Path_1245987" data-name="Path 1245987" d="M38.275,107.785l-13.132,4.642A13.314,13.314,0,0,1,12.12,110.05L9.59,107.916a5.887,5.887,0,0,1,0-9l2.529-2.134a13.314,13.314,0,0,1,13.024-2.377l13.132,4.642Z" transform="translate(-7.5 -93.645)" fill="#f4aa73"/>
      </g>
      <g id="Group_1204939" data-name="Group 1204939" transform="translate(0 17.857)">
        <path id="Path_1245988" data-name="Path 1245988" d="M11.792,102.607l-4.292.81a5.859,5.859,0,0,1,2.09-4.5l2.529-2.134a13.314,13.314,0,0,1,13.024-2.377l13.132,4.642v6.208L30.3,103.209A42.613,42.613,0,0,0,11.792,102.607Z" transform="translate(-7.5 -93.646)" fill="#919090"/>
      </g>
      <g id="Group_1204940" data-name="Group 1204940" transform="translate(0 17.857)">
        <path id="Path_1245989" data-name="Path 1245989" d="M17.494,98.921l2.529-2.134a13.3,13.3,0,0,1,4.635-2.537,13.314,13.314,0,0,0-12.538,2.537L9.591,98.921a5.859,5.859,0,0,0-2.09,4.5l4.292-.81q1.874-.354,3.767-.535A5.842,5.842,0,0,1,17.494,98.921Z" transform="translate(-7.501 -93.649)" fill="#848383"/>
      </g>
      <g id="Group_1204941" data-name="Group 1204941" transform="translate(21.097 12.613)">
        <path id="Path_1245990" data-name="Path 1245990" d="M162.99,148.4A35.021,35.021,0,0,1,164.5,130l3.326-9.155a42.235,42.235,0,0,0,1.187-25.026L166.259,85.2A21.028,21.028,0,0,0,145.9,69.455H129.3A21.029,21.029,0,0,0,108.943,85.2L106.19,95.822a42.235,42.235,0,0,0,1.187,25.026L110.7,130a35.023,35.023,0,0,1,1.509,18.4,12.284,12.284,0,0,0,12.075,14.542h26.628A12.285,12.285,0,0,0,162.99,148.4Z" transform="translate(-104.837 -69.455)" fill="#f7f5f5"/>
      </g>
      <g id="Group_1204942" data-name="Group 1204942" transform="translate(21.097 12.613)">
        <path id="Path_1245991" data-name="Path 1245991" d="M119.172,148.4a35.021,35.021,0,0,0-1.509-18.4l-3.326-9.155a42.235,42.235,0,0,1-1.187-25.026L115.9,85.2a21.029,21.029,0,0,1,20.355-15.75H129.3A21.029,21.029,0,0,0,108.943,85.2L106.19,95.822a42.235,42.235,0,0,0,1.187,25.026L110.7,130a35.023,35.023,0,0,1,1.509,18.4,12.284,12.284,0,0,0,12.075,14.542h6.96A12.284,12.284,0,0,1,119.172,148.4Z" transform="translate(-104.837 -69.455)" fill="#f0e9e9"/>
      </g>
      <g id="Group_1204943" data-name="Group 1204943" transform="translate(28.259 79.316)">
        <path id="Path_1245992" data-name="Path 1245992" d="M188.87,389.443l-.023-.122A14.7,14.7,0,0,0,174.419,377.2H152.542a14.7,14.7,0,0,0-14.428,12.118l-.023.122a12.284,12.284,0,0,0,12.075,14.542h26.628A12.284,12.284,0,0,0,188.87,389.443Z" transform="translate(-137.879 -377.203)" fill="#f4aa73"/>
      </g>
      <g id="Group_1204944" data-name="Group 1204944" transform="translate(28.259 79.316)">
        <path id="Path_1245993" data-name="Path 1245993" d="M144.015,389.443l.023-.122A14.7,14.7,0,0,1,158.466,377.2h-5.923a14.7,14.7,0,0,0-14.428,12.118l-.023.122a12.284,12.284,0,0,0,12.075,14.542h5.923A12.284,12.284,0,0,1,144.015,389.443Z" transform="translate(-137.879 -377.203)" fill="#ea9f6c"/>
      </g>
      <g id="Group_1204945" data-name="Group 1204945" transform="translate(60.821 14.331)">
        <path id="Path_1245994" data-name="Path 1245994" d="M312.563,102.03l-2.753-10.617a21.024,21.024,0,0,0-12.033-14.032l-7.117,17.193a33.505,33.505,0,0,0-2.548,12.815V110.6a20.308,20.308,0,0,0,10.253,17.644l10.421,5.939,2.591-7.132A42.238,42.238,0,0,0,312.563,102.03Z" transform="translate(-288.111 -77.382)" fill="#919090"/>
      </g>
      <g id="Group_1204946" data-name="Group 1204946" transform="translate(21.097 14.331)">
        <path id="Path_1245995" data-name="Path 1245995" d="M128.093,94.574l-7.117-17.193a21.024,21.024,0,0,0-12.033,14.032l-2.753,10.617a42.236,42.236,0,0,0,1.187,25.026l2.591,7.132,10.421-5.939A20.308,20.308,0,0,0,130.641,110.6v-3.215A33.5,33.5,0,0,0,128.093,94.574Z" transform="translate(-104.837 -77.381)" fill="#919090"/>
      </g>
      <g id="Group_1204947" data-name="Group 1204947" transform="translate(21.097 14.331)">
        <path id="Path_1245996" data-name="Path 1245996" d="M108.942,91.414l-2.753,10.617a42.236,42.236,0,0,0,1.187,25.026l2.591,7.132,5.766-3.286-1.4-3.846a42.235,42.235,0,0,1-1.187-25.026L115.9,91.414a20.983,20.983,0,0,1,6.516-10.548l-1.442-3.484a21.024,21.024,0,0,0-12.033,14.032Z" transform="translate(-104.836 -77.382)" fill="#848383"/>
      </g>
      <g id="Group_1204948" data-name="Group 1204948" transform="translate(38.945 88.858)">
        <path id="Path_1245997" data-name="Path 1245997" d="M191.68,421.228a4.5,4.5,0,1,0,4.5,4.5A4.5,4.5,0,0,0,191.68,421.228Z" transform="translate(-187.184 -421.228)" fill="#ea9f6c"/>
      </g>
      <g id="Group_1204949" data-name="Group 1204949" transform="translate(59.784 88.858)">
        <path id="Path_1245998" data-name="Path 1245998" d="M287.824,421.228a4.5,4.5,0,1,0,4.5,4.5A4.5,4.5,0,0,0,287.824,421.228Z" transform="translate(-283.328 -421.228)" fill="#ea9f6c"/>
      </g>
      <g id="Group_1204950" data-name="Group 1204950" transform="translate(68.108 40.51)">
        <path id="Path_1245999" data-name="Path 1245999" d="M326.287,198.161a4.554,4.554,0,1,0,4.554,4.554A4.554,4.554,0,0,0,326.287,198.161Z" transform="translate(-321.733 -198.161)" fill="#777272"/>
      </g>
      <g id="Group_1204951" data-name="Group 1204951" transform="translate(30.505 40.51)">
        <path id="Path_1246000" data-name="Path 1246000" d="M152.8,198.161a4.554,4.554,0,1,0,4.554,4.554A4.554,4.554,0,0,0,152.8,198.161Z" transform="translate(-148.241 -198.161)" fill="#777272"/>
      </g>
    </g>
    <g id="Group_1204953" data-name="Group 1204953" transform="translate(0 3.735)">
      <path id="Path_1246001" data-name="Path 1246001" d="M108.3,27.253l-2.529-2.134a15,15,0,0,0-14.614-2.667l-9.069,3.206a22.586,22.586,0,0,0-1.51-1.849L82.752,21.1a14.929,14.929,0,0,0,3.26-9.292V8.839a5.092,5.092,0,0,0-9.338-2.812L74.91,8.69a11.013,11.013,0,0,1-3.4,3.3,1.626,1.626,0,0,0,1.715,2.762,14.248,14.248,0,0,0,4.392-4.264l1.764-2.663A1.841,1.841,0,0,1,82.76,8.839V11.8a11.666,11.666,0,0,1-2.547,7.261l-1.989,2.486A22.7,22.7,0,0,0,72.741,18.2l-.008,0-.008,0a22.6,22.6,0,0,0-8.936-1.839H47.183c-.242,0-.483.008-.724.015a1.64,1.64,0,0,0-.24-.183l-6.761-4.2a11.017,11.017,0,0,1-3.4-3.3L34.3,6.027a5.092,5.092,0,0,0-9.337,2.812V11.8a14.93,14.93,0,0,0,3.26,9.292l2.169,2.712a22.668,22.668,0,0,0-1.51,1.849l-9.069-3.206A15,15,0,0,0,5.2,25.119L2.668,27.253a7.512,7.512,0,0,0,0,11.483L5.2,40.87a14.986,14.986,0,0,0,14.614,2.667l3.076-1.088L22.5,43.938a43.677,43.677,0,0,0,1.232,25.989l3.326,9.155A33.421,33.421,0,0,1,28.5,96.623h0v0a.007.007,0,0,0,0,0,13.91,13.91,0,0,0,13.674,16.461H68.8A13.91,13.91,0,0,0,82.474,96.624v-.008a33.423,33.423,0,0,1,1.44-17.535l3.326-9.155a43.677,43.677,0,0,0,1.233-25.989l-2.424-9.346.9-.231a41.264,41.264,0,0,1,17.807-.579l2.762.521a4.254,4.254,0,0,1-1.307,1.948l-2.53,2.134a11.634,11.634,0,0,1-11.02,2.224,1.626,1.626,0,1,0-.969,3.1,14.878,14.878,0,0,0,14.085-2.843l2.53-2.134a7.512,7.512,0,0,0,0-11.483ZM28.212,11.8V8.839a1.841,1.841,0,0,1,3.376-1.017l1.764,2.663a14.246,14.246,0,0,0,4.392,4.264l3.751,2.329a22.6,22.6,0,0,0-3.246,1.114l-.008,0-.009,0a22.7,22.7,0,0,0-5.483,3.353l-1.989-2.487A11.667,11.667,0,0,1,28.212,11.8ZM4.764,29.738,7.294,27.6a11.732,11.732,0,0,1,11.433-2.087l8.4,2.969a22.581,22.581,0,0,0-1.3,2.98l-.987-.254a44.535,44.535,0,0,0-19.219-.624l-1.832.346a4.263,4.263,0,0,1,.981-1.195Zm19.1,8.917-5.141,1.817A11.731,11.731,0,0,1,7.294,38.385L4.764,36.251A4.252,4.252,0,0,1,3.458,34.3l2.762-.521a41.266,41.266,0,0,1,17.806.578l.9.231-1.053,4.062h0Zm1.781,6.1L28.4,34.137a19.393,19.393,0,0,1,9.615-12.23l6.46,15.6A31.721,31.721,0,0,1,46.9,49.705V52.92a18.721,18.721,0,0,1-9.432,16.232l-8.746,4.985-1.933-5.32a40.439,40.439,0,0,1-1.141-24.063ZM77,105.988a10.628,10.628,0,0,1-8.2,3.849H42.172A10.659,10.659,0,0,1,31.7,97.22a.006.006,0,0,0,0,0h0l.023-.125A13.087,13.087,0,0,1,44.547,86.307h7.125a1.626,1.626,0,0,0,0-3.251H44.547a16.228,16.228,0,0,0-12.274,5.626,36.658,36.658,0,0,0-2.157-10.711l-.267-.734,9.23-5.26A21.979,21.979,0,0,0,50.152,52.92V49.705A34.954,34.954,0,0,0,47.48,36.268L41,20.617A19.367,19.367,0,0,1,47.183,19.6H63.789a19.368,19.368,0,0,1,6.182,1.012L63.491,36.268A34.952,34.952,0,0,0,60.82,49.705V52.92A21.978,21.978,0,0,0,71.894,71.977l9.23,5.26-.267.734A36.656,36.656,0,0,0,78.7,88.683a16.227,16.227,0,0,0-12.274-5.627H59.5a1.626,1.626,0,0,0,0,3.251h6.928A13.086,13.086,0,0,1,79.253,97.091l.024.131h0A10.627,10.627,0,0,1,77,105.988Zm7.182-37.171-1.933,5.32L73.5,69.152A18.721,18.721,0,0,1,64.072,52.92V49.705A31.717,31.717,0,0,1,66.5,37.512l6.46-15.6a19.392,19.392,0,0,1,9.615,12.23l2.753,10.617a40.44,40.44,0,0,1-1.141,24.062Zm1.955-37.606-.987.254a22.582,22.582,0,0,0-1.3-2.98l8.4-2.969A11.732,11.732,0,0,1,103.679,27.6l2.529,2.134a4.259,4.259,0,0,1,.981,1.195l-1.832-.346A44.537,44.537,0,0,0,86.138,31.211Z" transform="translate(0 -3.735)"/>
      <path id="Path_1246002" data-name="Path 1246002" d="M185.806,413.728a6.122,6.122,0,1,0,6.122,6.122A6.129,6.129,0,0,0,185.806,413.728Zm0,8.992a2.871,2.871,0,1,1,2.871-2.871A2.874,2.874,0,0,1,185.806,422.72Z" transform="translate(-140.739 -324.865)"/>
      <path id="Path_1246003" data-name="Path 1246003" d="M281.95,413.728a6.122,6.122,0,1,0,6.122,6.122A6.129,6.129,0,0,0,281.95,413.728Zm0,8.992a2.871,2.871,0,1,1,2.871-2.871A2.874,2.874,0,0,1,281.95,422.72Z" transform="translate(-216.044 -324.865)"/>
      <path id="Path_1246004" data-name="Path 1246004" d="M320.413,190.661a6.18,6.18,0,1,0,6.18,6.18A6.187,6.187,0,0,0,320.413,190.661Zm0,9.109a2.929,2.929,0,1,1,2.929-2.929A2.932,2.932,0,0,1,320.413,199.77Z" transform="translate(-246.125 -150.146)"/>
      <path id="Path_1246005" data-name="Path 1246005" d="M146.921,203.02a6.18,6.18,0,1,0-6.18-6.18A6.187,6.187,0,0,0,146.921,203.02Zm0-9.109a2.929,2.929,0,1,1-2.929,2.929A2.932,2.932,0,0,1,146.921,193.911Z" transform="translate(-110.236 -150.145)"/>
    </g>
  </g>
</svg>
