<svg xmlns="http://www.w3.org/2000/svg" width="94" height="78.007" viewBox="0 0 94 78.007">
  <g id="bovinos5" transform="translate(0 -43.553)">
    <g id="Group_1205070" data-name="Group 1205070" transform="translate(1.377 44.932)">
      <g id="Group_1205069" data-name="Group 1205069" transform="translate(0 20.694)">
        <path id="Path_1246163" data-name="Path 1246163" d="M368.207,166.673l.395,5.555c5.155-.7,9.209,4.557,13.938,4.325a12.442,12.442,0,0,0,10.558-6.686,1.214,1.214,0,0,0-.255-1.438C386.866,162.834,374.954,162.347,368.207,166.673Z" transform="translate(-301.984 -163.783)" fill="#e8ad8c"/>
        <path id="Path_1246164" data-name="Path 1246164" d="M32.522,166.673l-.395,5.555c-5.155-.7-9.209,4.557-13.938,4.325a12.442,12.442,0,0,1-10.558-6.686,1.214,1.214,0,0,1,.255-1.438C13.863,162.834,25.775,162.347,32.522,166.673Z" transform="translate(-7.5 -163.783)" fill="#e8ad8c"/>
      </g>
      <path id="Path_1246165" data-name="Path 1246165" d="M165.754,59.851q-.771-.6-1.582-1.137a14.95,14.95,0,0,1-3.21-2.848,14.884,14.884,0,0,0-21.9,0,15,15,0,0,1-3.217,2.853q-.8.526-1.553,1.115a21.236,21.236,0,0,0-4.589,28.433l1.111,1.687a22.223,22.223,0,0,1,3.529,9.776l1.247,11.246h28.839l1.247-11.246a22.224,22.224,0,0,1,3.529-9.776l1.113-1.69A21.232,21.232,0,0,0,165.754,59.851Z" transform="translate(-104.392 -51.066)" fill="#e8ad8c"/>
      <path id="Path_1246166" data-name="Path 1246166" d="M250.025,59.851q-.771-.6-1.582-1.137a14.95,14.95,0,0,1-3.21-2.848,14.259,14.259,0,0,0-10.948-4.8,15.49,15.49,0,0,0-4.883.779c21.473,6.3,24.553,28.415,19.133,36.419l-1.113,1.69a22.223,22.223,0,0,0-3.529,9.776l-1.247,11.246h6.059l1.247-11.246a22.224,22.224,0,0,1,3.529-9.776l1.113-1.69a21.232,21.232,0,0,0-4.57-28.413Z" transform="translate(-188.663 -51.066)" fill="#e19974"/>
      <path id="Path_1246167" data-name="Path 1246167" d="M196.507,61.159q-.764-.722-1.613-1.379-.723-.558-1.481-1.059a15.007,15.007,0,0,1-3.219-2.854,14.885,14.885,0,0,0-21.9,0,15.006,15.006,0,0,1-3.219,2.854q-.757.5-1.481,1.059-.849.655-1.613,1.379c1.017,4.586,4.893,6.96,8.615,10.013a11.751,11.751,0,0,1,4.307,9.083V93.564a22.611,22.611,0,0,1-6,15.341l-.689.746h22.056l-.689-.746a22.611,22.611,0,0,1-6-15.341V80.255a11.751,11.751,0,0,1,4.307-9.083c3.722-3.053,7.6-5.427,8.615-10.013Z" transform="translate(-133.624 -51.066)" fill="#efedef"/>
      <path id="Path_1246168" data-name="Path 1246168" d="M248.453,58.721a15.007,15.007,0,0,1-3.219-2.854,14.26,14.26,0,0,0-10.948-4.8,15.491,15.491,0,0,0-4.883.779c9.543,2.8,15.45,8.722,18.6,15.142a11.365,11.365,0,0,0,3.547-5.829q-.764-.722-1.613-1.379Q249.21,59.222,248.453,58.721Z" transform="translate(-188.663 -51.066)" fill="#e5e1e5"/>
      <ellipse id="Ellipse_12505" data-name="Ellipse 12505" cx="11.572" cy="9.505" rx="11.572" ry="9.505" transform="translate(34.05 56.238)" fill="#e8ad8c"/>
      <path id="Path_1246169" data-name="Path 1246169" d="M246.973,357.385a14.105,14.105,0,0,0-2.03.149,9.591,9.591,0,0,1,0,18.713,14.1,14.1,0,0,0,2.03.149c6.391,0,11.572-4.256,11.572-9.505S253.364,357.385,246.973,357.385Z" transform="translate(-201.35 -301.147)" fill="#e19974"/>
      <path id="Path_1246170" data-name="Path 1246170" d="M179.247,350.489c-3.607,0-12.426,6.75-15.58,2.173-3.624-5.261-1.149-15.006,5.153-15.006,4.719,0,8.077,1.207,10.427,1.207s5.708-1.207,10.427-1.207c6.3,0,8.777,9.745,5.153,15.006C191.674,357.239,182.854,350.489,179.247,350.489Z" transform="translate(-133.624 -285.04)" fill="#ffd3d6"/>
    </g>
    <g id="Group_1205071" data-name="Group 1205071" transform="translate(0 43.553)">
      <path id="Path_1246171" data-name="Path 1246171" d="M93.18,69.266a17.359,17.359,0,0,0-5.884-3.53,1.377,1.377,0,1,0-.958,2.582A14.7,14.7,0,0,1,91.21,71.2a11.125,11.125,0,0,1-9.342,5.826c-1.85.09-3.725-.912-5.711-1.975a25.591,25.591,0,0,0-4.111-1.892,22.721,22.721,0,0,0,.04-5.188,22.709,22.709,0,0,1,8.328-.9,1.377,1.377,0,1,0,.2-2.747,25.651,25.651,0,0,0-8.991.911,22.412,22.412,0,0,0-9.708-13.8A13.593,13.593,0,0,1,59,48.844a16.26,16.26,0,0,0-24.006,0,13.645,13.645,0,0,1-2.922,2.59,22.425,22.425,0,0,0-9.7,13.794,25.681,25.681,0,0,0-10.6-.741A19.994,19.994,0,0,0,.818,69.268a2.606,2.606,0,0,0-.539,3.067A13.877,13.877,0,0,0,12,79.772c2.591.126,4.86-1.075,7.145-2.3a26.055,26.055,0,0,1,3.322-1.586,22.77,22.77,0,0,0,3.077,7l.764,1.158a1.377,1.377,0,0,0,2.3-1.516l-.763-1.158A19.915,19.915,0,0,1,29.176,57.62c1.423,3.042,4.06,5.12,6.627,7.142.551.434,1.121.883,1.677,1.339a10.336,10.336,0,0,1,3.8,8.018V87.431a21.329,21.329,0,0,1-1.946,8.87c-.867-.079-1.787-.129-2.766-.129a6.972,6.972,0,0,0-3.467.914l-.4-3.642a23.785,23.785,0,0,0-1.064-4.851,1.377,1.377,0,1,0-2.613.869,21.032,21.032,0,0,1,.941,4.287l.623,5.622a10.036,10.036,0,0,0-.8,1.278,12.938,12.938,0,0,0,.5,12.689,5.2,5.2,0,0,0,5.09,2.143c2.154,3.672,6.686,6.08,11.625,6.08s9.473-2.408,11.626-6.081a5.179,5.179,0,0,0,5.089-2.142,12.938,12.938,0,0,0,.5-12.689,10.035,10.035,0,0,0-.8-1.278l.623-5.622a20.94,20.94,0,0,1,3.312-9.17l1.112-1.691a22.767,22.767,0,0,0,3.076-7,26.042,26.042,0,0,1,3.321,1.585c2.122,1.135,4.312,2.306,6.769,2.306a13.883,13.883,0,0,0,12.094-7.446,2.607,2.607,0,0,0-.541-3.068Zm-75.337,5.78c-1.986,1.062-3.863,2.064-5.711,1.975A11.125,11.125,0,0,1,2.79,71.2c4.343-3.982,12.523-5.321,19.126-3.228a22.729,22.729,0,0,0,.039,5.187A25.576,25.576,0,0,0,17.844,75.046ZM39.228,63.972c-.577-.473-1.158-.931-1.72-1.373-2.811-2.214-5.266-4.15-6.219-7.121a22.193,22.193,0,0,1,2.306-1.747,16.4,16.4,0,0,0,3.511-3.116A12.951,12.951,0,0,1,47,46.307a12.951,12.951,0,0,1,9.894,4.308A16.349,16.349,0,0,0,60.4,53.73a22.023,22.023,0,0,1,2.311,1.747c-.953,2.972-3.409,4.908-6.22,7.122-.562.443-1.143.9-1.719,1.373A13.081,13.081,0,0,0,49.962,74.12V87.432a24.1,24.1,0,0,0,1.856,9.241c-.566.093-1.1.189-1.6.28A20.223,20.223,0,0,1,47,97.38a20.223,20.223,0,0,1-3.214-.427c-.5-.091-1.037-.187-1.6-.28a24.1,24.1,0,0,0,1.856-9.241V74.12a13.079,13.079,0,0,0-4.811-10.148ZM47,118.806a10.994,10.994,0,0,1-8.719-3.922,43.548,43.548,0,0,0,4.247-1.624A16.367,16.367,0,0,1,47,111.76a16.369,16.369,0,0,1,4.472,1.5,43.535,43.535,0,0,0,4.247,1.624A10.994,10.994,0,0,1,47,118.806Zm14.447-7.031c-1.346,1.954-4.681.74-8.9-1.05-2.174-.922-4.051-1.719-5.547-1.719s-3.374.8-5.547,1.719c-4.22,1.79-7.554,3-8.9,1.05a10.186,10.186,0,0,1-.327-9.846,5.061,5.061,0,0,1,4.347-3,35.5,35.5,0,0,1,6.724.737,21.834,21.834,0,0,0,3.7.471,21.831,21.831,0,0,0,3.7-.471,35.511,35.511,0,0,1,6.724-.737,5.06,5.06,0,0,1,4.347,3,10.186,10.186,0,0,1-.327,9.846Zm4.713-30.4-1.112,1.69A23.7,23.7,0,0,0,61.3,93.445l-.4,3.641a6.972,6.972,0,0,0-3.467-.914c-.979,0-1.9.05-2.766.129a21.331,21.331,0,0,1-1.946-8.87V74.12a10.337,10.337,0,0,1,3.8-8.018c.556-.456,1.126-.9,1.677-1.339,2.567-2.022,5.205-4.1,6.628-7.144A19.912,19.912,0,0,1,66.16,81.374Z" transform="translate(0 -43.553)"/>
      <path id="Path_1246172" data-name="Path 1246172" d="M302.963,362.9a1.376,1.376,0,0,0-1.526,1.21l-.257,2.224a1.393,1.393,0,0,1-1.016,1.188,1.377,1.377,0,1,0,.736,2.654,4.137,4.137,0,0,0,3.016-3.526l.257-2.224A1.377,1.377,0,0,0,302.963,362.9Z" transform="translate(-244.232 -304.263)"/>
      <path id="Path_1246173" data-name="Path 1246173" d="M189.477,367.522a1.393,1.393,0,0,1-1.016-1.188l-.257-2.224a1.377,1.377,0,1,0-2.736.316l.257,2.224a4.137,4.137,0,0,0,3.016,3.526,1.377,1.377,0,0,0,.736-2.654Z" transform="translate(-151.41 -304.263)"/>
      <path id="Path_1246174" data-name="Path 1246174" d="M328.849,190.006a1.377,1.377,0,0,0-1.377,1.377v2.731a1.377,1.377,0,1,0,2.754,0v-2.731A1.377,1.377,0,0,0,328.849,190.006Z" transform="translate(-267.351 -163.118)"/>
      <path id="Path_1246175" data-name="Path 1246175" d="M170.9,195.49a1.377,1.377,0,0,0,1.377-1.377v-2.731a1.377,1.377,0,0,0-2.754,0v2.731A1.377,1.377,0,0,0,170.9,195.49Z" transform="translate(-138.402 -163.117)"/>
    </g>
  </g>
</svg>
