<svg xmlns="http://www.w3.org/2000/svg" width="98" height="97.999" viewBox="0 0 98 97.999">
  <g id="Group_1204889" data-name="Group 1204889" transform="translate(-594 -4951)">
    <g id="Group_1204626" data-name="Group 1204626" transform="translate(-208.781 2412.984)">
      <g id="Group_1204237" data-name="Group 1204237" transform="translate(-1 566)">
        <g id="Group_1204143" data-name="Group 1204143" transform="translate(-67.331 1694.852)">
          <g id="Group_1188789" data-name="Group 1188789" transform="translate(871.113 277.164)">
            <path id="Path_1243039" data-name="Path 1243039" d="M41.05,0h0a41.05,41.05,0,0,1,0,82.1h0a41.05,41.05,0,0,1,0-82.1Z" transform="translate(7.951 7.949)" fill="#ffc94a"/>
            <rect id="Rectangle_400907" data-name="Rectangle 400907" width="88.438" height="88.437" rx="44.218" transform="translate(4.782 4.781)" fill="none"/>
            <g id="Group_1098742" data-name="Group 1098742" transform="translate(0)">
              <g id="Rectangle_400898" data-name="Rectangle 400898" transform="translate(0)" fill="none" stroke="#fff" stroke-width="2" opacity="0.859">
                <rect width="98" height="97.999" rx="48.999" stroke="none"/>
                <rect x="1" y="1" width="96" height="95.999" rx="47.999" fill="none"/>
              </g>
              <g id="Rectangle_400907-2" data-name="Rectangle 400907" transform="translate(0)" fill="none" stroke="#0f1f33" stroke-linecap="round" stroke-width="2">
                <rect width="98" height="97.999" rx="48.999" stroke="none"/>
                <rect x="1" y="1" width="96" height="95.999" rx="47.999" fill="none"/>
              </g>
            </g>
          </g>
        </g>
      </g>
    </g>
    <g id="limpiar-deslizar" transform="translate(613 4970)">
      <path id="Path_1245646" data-name="Path 1245646" d="M6.315,32.372,29.468,55.525a5.645,5.645,0,0,0,7.983,0L56.26,36.716a6.772,6.772,0,0,0,0-9.578L33.105,3.984a6.775,6.775,0,0,0-9.579,0L6.314,21.2a7.9,7.9,0,0,0,0,11.176" transform="translate(-0.194 -0.065)" fill="#f9d266"/>
      <path id="Path_1245647" data-name="Path 1245647" d="M11.352,59.214l13.73-13.728a8.849,8.849,0,0,1,3.46-2.14A8.851,8.851,0,0,0,32,41.205l8.441-8.44A1.87,1.87,0,0,0,37.8,30.12l2.645-2.646A1.87,1.87,0,0,0,37.8,24.83l2.645-2.646A1.87,1.87,0,0,0,37.8,19.539l-2.646,2.645a1.87,1.87,0,0,0-2.645-2.645L27.218,24.83,25.9,23.506a1.87,1.87,0,0,0-2.646,0l-4.081,4.081A6.39,6.39,0,0,0,17.3,32.1a6.383,6.383,0,0,1-1.871,4.516L2,50.049Z" transform="translate(-0.065 -1.165)" fill="#fbe1ca"/>
      <g id="Group_1204888" data-name="Group 1204888" transform="translate(21.2 20.359)">
        <path id="Path_1245648" data-name="Path 1245648" d="M0,0H8.417V1.87H0Z" transform="translate(9.919 13.886) rotate(-45)" fill="#ffd2b0"/>
        <path id="Path_1245649" data-name="Path 1245649" d="M0,0H12.158V1.87H0Z" transform="translate(7.274 11.241) rotate(-45)" fill="#ffd2b0"/>
        <path id="Path_1245650" data-name="Path 1245650" d="M0,0H12.158V1.87H0Z" transform="translate(4.63 8.596) rotate(-45)" fill="#ffd2b0"/>
        <path id="Path_1245651" data-name="Path 1245651" d="M0,0H7.483V1.87H0Z" transform="translate(0 7.933) rotate(-45)" fill="#ffd2b0"/>
      </g>
      <path id="Path_1245652" data-name="Path 1245652" d="M48.223,55.611a5.611,5.611,0,0,0-5.611,5.611A5.611,5.611,0,0,0,37,55.611,5.611,5.611,0,0,0,42.611,50,5.611,5.611,0,0,0,48.223,55.611Z" transform="translate(-2.332 -3.174)" fill="#f2f2f2"/>
      <path id="Path_1245653" data-name="Path 1245653" d="M44.223,7.611a5.611,5.611,0,0,0-5.611,5.611A5.611,5.611,0,0,0,33,7.611,5.611,5.611,0,0,0,38.611,2a5.611,5.611,0,0,0,5.611,5.611Z" transform="translate(-2.073 -0.065)" fill="#f2f2f2"/>
      <path id="Path_1245654" data-name="Path 1245654" d="M14.223,19.611a5.611,5.611,0,0,0-5.611,5.611A5.611,5.611,0,0,0,3,19.611,5.611,5.611,0,0,0,8.611,14a5.611,5.611,0,0,0,5.611,5.611Z" transform="translate(-0.13 -0.842)" fill="#f2f2f2"/>
      <path id="Path_1245655" data-name="Path 1245655" d="M2.87,9.417H1A8.426,8.426,0,0,1,9.417,1V2.87A6.555,6.555,0,0,0,2.87,9.417Z" transform="translate(0 0)" fill="#e8e9ea"/>
      <path id="Path_1245656" data-name="Path 1245656" d="M11.87,11.417H10A8.426,8.426,0,0,1,18.417,3V4.87a6.555,6.555,0,0,0-6.547,6.547Z" transform="translate(-0.583 -0.13)" fill="#e8e9ea"/>
      <path id="Path_1245657" data-name="Path 1245657" d="M54,62.417v-1.87A6.555,6.555,0,0,0,60.547,54h1.87A8.426,8.426,0,0,1,54,62.417Z" transform="translate(-3.433 -3.433)" fill="#e8e9ea"/>
      <path id="Path_1245658" data-name="Path 1245658" d="M52,53.417v-1.87A6.555,6.555,0,0,0,58.547,45h1.87A8.426,8.426,0,0,1,52,53.417Z" transform="translate(-3.303 -2.85)" fill="#e8e9ea"/>
      <path id="Path_1245659" data-name="Path 1245659" d="M45.91,51.5a4.647,4.647,0,0,1-2.576-.779L56.746,37.312A7.762,7.762,0,0,0,59,31.863a7.657,7.657,0,0,0-2.258-5.451L39.594,9.261a4.647,4.647,0,0,1,2.575-.779.935.935,0,1,0,0-1.87,4.682,4.682,0,0,1-4.676-4.676.935.935,0,0,0-1.87,0,4.646,4.646,0,0,1-.779,2.574L33.591,3.258a7.709,7.709,0,0,0-10.9,0L10.215,15.733a4.647,4.647,0,0,1-.779-2.575.935.935,0,0,0-1.87,0,4.682,4.682,0,0,1-4.676,4.676.935.935,0,1,0,0,1.87,4.647,4.647,0,0,1,2.576.779,8.837,8.837,0,0,0,.013,12.485L11.014,38.5l-9.72,9.721,1.322,1.322L16.047,36.115a7.271,7.271,0,0,0,2.144-5.176,5.488,5.488,0,0,1,1.6-3.854L23.871,23a.956.956,0,0,1,1.321,0l.661.661-4.634,4.63,1.327,1.324,5.291-5.292,5.292-5.29a.954.954,0,0,1,1.321,0,.935.935,0,0,1,0,1.321l-8.6,8.6,1.322,1.322L38.418,19.036a.935.935,0,0,1,1.32,1.323L37.1,23l-8.6,8.6,1.326,1.324,8.6-8.6a.935.935,0,0,1,1.319,1.325l-2.64,2.641-.006,0-5.952,5.952,1.322,1.322,5.956-5.956a.935.935,0,1,1,1.319,1.326l-8.441,8.44a7.968,7.968,0,0,1-3.1,1.914,9.858,9.858,0,0,0-3.827,2.366L10.643,57.394l1.322,1.322,9.628-9.632,7.037,7.037a6.579,6.579,0,0,0,9.306,0l.647-.647a4.647,4.647,0,0,1,.78,2.575.935.935,0,1,0,1.87,0,4.682,4.682,0,0,1,4.676-4.676.935.935,0,1,0,0-1.87ZM36.558,5.3A6.608,6.608,0,0,0,38.8,7.547a6.608,6.608,0,0,0-2.245,2.245,6.608,6.608,0,0,0-2.245-2.245A6.608,6.608,0,0,0,36.558,5.3ZM8.5,16.525a6.608,6.608,0,0,0,2.245,2.245A6.608,6.608,0,0,0,8.5,21.014a6.608,6.608,0,0,0-2.245-2.245A6.608,6.608,0,0,0,8.5,16.525ZM33.284,56.178a4.676,4.676,0,0,1-3.33-1.379l-7.037-7.038,2.78-2.78a7.983,7.983,0,0,1,3.1-1.913A9.842,9.842,0,0,0,32.624,40.7l8.441-8.44a2.812,2.812,0,0,0,0-3.967,2.775,2.775,0,0,0-.782-.54l.783-.783a2.812,2.812,0,0,0,0-3.969,2.771,2.771,0,0,0-.782-.539l.783-.784A2.806,2.806,0,1,0,37.1,17.713l-.781.781a2.8,2.8,0,0,0-.541-.781,2.873,2.873,0,0,0-3.967,0l-4.629,4.628-.661-.661a2.874,2.874,0,0,0-3.967,0l-4.082,4.082a7.371,7.371,0,0,0-2.144,5.176,5.415,5.415,0,0,1-1.6,3.854l-2.392,2.389L6.8,31.646a6.967,6.967,0,0,1-.014-9.84,4.642,4.642,0,0,1,.779,2.574.935.935,0,0,0,1.87,0A4.682,4.682,0,0,1,14.112,19.7a.935.935,0,0,0,0-1.87,4.646,4.646,0,0,1-2.574-.779L24.012,4.58a5.84,5.84,0,0,1,8.257,0l1.252,1.252a4.647,4.647,0,0,1-2.575.779.935.935,0,1,0,0,1.87,4.682,4.682,0,0,1,4.676,4.676.935.935,0,1,0,1.87,0,4.646,4.646,0,0,1,.779-2.574l17.152,17.15a5.8,5.8,0,0,1,1.71,4.128,5.873,5.873,0,0,1-1.71,4.127L42.013,49.4a4.642,4.642,0,0,1-.779-2.574.935.935,0,1,0-1.87,0A4.682,4.682,0,0,1,34.687,51.5a.935.935,0,1,0,0,1.87,4.646,4.646,0,0,1,2.574.779l-.646.648a4.676,4.676,0,0,1-3.33,1.379Zm7.014-1.5a6.608,6.608,0,0,0-2.245-2.245A6.608,6.608,0,0,0,40.3,50.193a6.608,6.608,0,0,0,2.245,2.245A6.608,6.608,0,0,0,40.3,54.682Z" transform="translate(-0.019)"/>
      <path id="Path_1245660" data-name="Path 1245660" d="M9.417,2.87V1A8.426,8.426,0,0,0,1,9.417H2.87A6.555,6.555,0,0,1,9.417,2.87Z" transform="translate(0 0)"/>
      <path id="Path_1245661" data-name="Path 1245661" d="M11.87,11.417A6.555,6.555,0,0,1,18.417,4.87V3A8.426,8.426,0,0,0,10,11.417Z" transform="translate(-0.583 -0.13)"/>
      <path id="Path_1245662" data-name="Path 1245662" d="M54,60.547v1.87A8.426,8.426,0,0,0,62.417,54h-1.87A6.555,6.555,0,0,1,54,60.547Z" transform="translate(-3.433 -3.433)"/>
      <path id="Path_1245663" data-name="Path 1245663" d="M60.417,45h-1.87A6.555,6.555,0,0,1,52,51.547v1.87A8.426,8.426,0,0,0,60.417,45Z" transform="translate(-3.303 -2.85)"/>
    </g>
  </g>
</svg>
