<svg xmlns="http://www.w3.org/2000/svg" width="98" height="97.999" viewBox="0 0 98 97.999">
  <g id="Group_1204927" data-name="Group 1204927" transform="translate(-1080.051 -2838.75)">
    <g id="Group_1204527" data-name="Group 1204527" transform="translate(277.27 300.734)">
      <g id="Group_1204237" data-name="Group 1204237" transform="translate(-1 566)">
        <g id="Group_1204143" data-name="Group 1204143" transform="translate(-67.331 1694.852)">
          <g id="Group_1188789" data-name="Group 1188789" transform="translate(871.113 277.164)">
            <path id="Path_1243039" data-name="Path 1243039" d="M41.05,0h0a41.05,41.05,0,0,1,0,82.1h0a41.05,41.05,0,0,1,0-82.1Z" transform="translate(7.951 7.949)" fill="#ffc94a"/>
            <rect id="Rectangle_400907" data-name="Rectangle 400907" width="88.438" height="88.437" rx="44.218" transform="translate(4.782 4.781)" fill="none"/>
            <g id="Group_1098742" data-name="Group 1098742" transform="translate(0)">
              <g id="Rectangle_400898" data-name="Rectangle 400898" transform="translate(0)" fill="none" stroke="#fff" stroke-width="2" opacity="0.859">
                <rect width="98" height="97.999" rx="48.999" stroke="none"/>
                <rect x="1" y="1" width="96" height="95.999" rx="47.999" fill="none"/>
              </g>
              <g id="Rectangle_400907-2" data-name="Rectangle 400907" transform="translate(0)" fill="none" stroke="#0f1f33" stroke-linecap="round" stroke-width="2">
                <rect width="98" height="97.999" rx="48.999" stroke="none"/>
                <rect x="1" y="1" width="96" height="95.999" rx="47.999" fill="none"/>
              </g>
            </g>
          </g>
        </g>
      </g>
    </g>
    <g id="desperdicio" transform="translate(1098 2856)">
      <rect id="Rectangle_411445" data-name="Rectangle 411445" width="4.243" height="4.95" transform="translate(16 13) rotate(-45)" fill="#c1cfe8"/>
      <path id="Path_1245900" data-name="Path 1245900" d="M49.333,10.213,47.858,8.861l1.472-1.6L50.393,6.2A2.063,2.063,0,0,0,51,4.726a2.094,2.094,0,0,0-.219-.929A1.436,1.436,0,0,0,49.49,3H48.236A.236.236,0,0,0,48,3.236a2.224,2.224,0,0,1-1.235,2l-.819.411L44.093,7.069,42.874,5.483,44.8,4a1.031,1.031,0,0,1,.162-.1l.9-.452A.236.236,0,0,0,46,3.236,2.238,2.238,0,0,1,48.236,1H49.49a3.424,3.424,0,0,1,3.08,1.9A4.1,4.1,0,0,1,53,4.726a4.049,4.049,0,0,1-1.193,2.881L50.774,8.64Z" fill="#f9cb5d"/>
      <path id="Path_1245901" data-name="Path 1245901" d="M35.565,13.8l-.933-2.742A12.269,12.269,0,0,1,34,7.165a3.165,3.165,0,0,1,6.288-.519l.1.6.432,2.092-1.959.4-.546-2.765A1.165,1.165,0,0,0,36,7.165a10.293,10.293,0,0,0,.53,3.261l.928,2.726Z" fill="#f9cb5d"/>
      <path id="Path_1245902" data-name="Path 1245902" d="M45,4l.211.422A6.472,6.472,0,0,0,51,8h0l-1.766,8.829a3.942,3.942,0,0,1-1.079,2.016h0A3.946,3.946,0,0,1,45.366,20h0A8.252,8.252,0,0,1,41,18.747l-4.437-2.773A3.316,3.316,0,0,1,35,13.163h0a3.316,3.316,0,0,1,.726-2.071h0a23.863,23.863,0,0,1,7.961-6.436Z" fill="#a5badb"/>
      <path id="Path_1245903" data-name="Path 1245903" d="M45.211,4.422,45,4l-1.313.656a23.863,23.863,0,0,0-7.961,6.436h0A3.316,3.316,0,0,0,35,13.163c0,.032.011.062.012.1l3.982,2.488A8.253,8.253,0,0,0,43.366,17a3.944,3.944,0,0,0,3.868-3.171L48.5,7.49A6.458,6.458,0,0,1,45.211,4.422Z" fill="#c1cfe8"/>
      <path id="Path_1245904" data-name="Path 1245904" d="M17.529,34H15a2,2,0,0,0-2,2h0a2,2,0,0,0,2,2h2.882" fill="#f5a028"/>
      <path id="Path_1245905" data-name="Path 1245905" d="M46.471,34H49a2,2,0,0,1,2,2h0a2,2,0,0,1-2,2H46.118" fill="#f5a028"/>
      <path id="Path_1245906" data-name="Path 1245906" d="M47,28,44,62H20L17,28" fill="#f6c96c"/>
      <path id="Path_1245907" data-name="Path 1245907" d="M17,28l3,34H42l3-34Z" fill="#d4681c"/>
      <path id="Path_1245908" data-name="Path 1245908" d="M21,34l2,28H42l3-34Z" fill="#f5a028"/>
      <rect id="Rectangle_411446" data-name="Rectangle 411446" width="34" height="4" transform="translate(15 24)" fill="#f6c96c"/>
      <path id="Path_1245909" data-name="Path 1245909" d="M38.4,42.171a7.008,7.008,0,0,0-.716-1.245A6.026,6.026,0,0,0,38,39a5.957,5.957,0,0,0-2.4-4.8l-1.2,1.6A3.964,3.964,0,0,1,36,39c0,.084-.015.166-.02.249a6.966,6.966,0,0,0-7.96,0c0-.083-.02-.165-.02-.249a3.964,3.964,0,0,1,1.6-3.2l-1.2-1.6A5.957,5.957,0,0,0,26,39a6.026,6.026,0,0,0,.319,1.926,7.008,7.008,0,0,0-.716,1.245A6.005,6.005,0,0,0,21,48h2a3.985,3.985,0,0,1,2.023-3.456c-.01.151-.023.3-.023.456a7,7,0,0,0,4.126,6.375A3.96,3.96,0,0,1,27,52v2a5.981,5.981,0,0,0,4.483-2.026c.172.012.343.026.517.026s.345-.014.517-.026A5.981,5.981,0,0,0,37,54V52a3.96,3.96,0,0,1-2.126-.625A7,7,0,0,0,39,45c0-.154-.013-.3-.023-.456A3.985,3.985,0,0,1,41,48h2a6.005,6.005,0,0,0-4.6-5.829ZM32,40a4.96,4.96,0,0,1,3.292,1.266,3.984,3.984,0,0,1-1.528,1.32,2.948,2.948,0,0,0-3.528,0,3.984,3.984,0,0,1-1.528-1.32A4.96,4.96,0,0,1,32,40Zm0,6a1,1,0,1,1,1-1A1,1,0,0,1,32,46Zm-5-1a4.979,4.979,0,0,1,.1-.991,4,4,0,0,1,1.944.559A2.941,2.941,0,0,0,29,45a3,3,0,0,0,1.981,2.81c0,.064.019.126.019.19a3.953,3.953,0,0,1-.429,1.767A4.991,4.991,0,0,1,27,45Zm6.429,4.767A3.953,3.953,0,0,1,33,48c0-.064.016-.126.019-.19A3,3,0,0,0,35,45a2.914,2.914,0,0,0-.044-.431,4,4,0,0,1,1.944-.56,4.966,4.966,0,0,1-3.471,5.758Z" fill="#212121"/>
      <path id="Path_1245910" data-name="Path 1245910" d="M36,24,24,12l-6,6,6,6Z" fill="#d7e0ef"/>
      <path id="Path_1245911" data-name="Path 1245911" d="M18,18l6,6h7l-9.5-9.5Z" fill="#a5badb"/>
      <rect id="Rectangle_411447" data-name="Rectangle 411447" width="14.142" height="2" transform="translate(15.293 19.293) rotate(-45)" fill="#95afd1"/>
      <rect id="Rectangle_411448" data-name="Rectangle 411448" width="7.071" height="4.243" transform="translate(12 11.001) rotate(-45)" fill="#95afd1"/>
      <rect id="Rectangle_411449" data-name="Rectangle 411449" width="4.243" height="2" transform="translate(23.294 17.293) rotate(-45)" fill="#fff"/>
      <rect id="Rectangle_411450" data-name="Rectangle 411450" width="4.243" height="2" transform="translate(26.293 20.293) rotate(-45)" fill="#fff"/>
      <rect id="Rectangle_411451" data-name="Rectangle 411451" width="32" height="2" transform="translate(15 26)" fill="#f49826"/>
      <path id="Path_1245912" data-name="Path 1245912" d="M39.4,12.2l1.2,1.6a22.325,22.325,0,0,0,6.254-7.3,6.465,6.465,0,0,1-1.4-1.657l-.233.474A20.286,20.286,0,0,1,39.4,12.2Z" fill="#95afd1"/>
      <path id="Path_1245913" data-name="Path 1245913" d="M47.192,8.263a25.955,25.955,0,0,1-3.024,6.182l1.664,1.11A27.964,27.964,0,0,0,49.089,8.9l.335-1.014.034-.081a6.463,6.463,0,0,1-1.847-.76l-.058.141Z" fill="#95afd1"/>
      <path id="Path_1245914" data-name="Path 1245914" d="M36.027,16.821l4.437,2.773A9.239,9.239,0,0,0,45.366,21a4.946,4.946,0,0,0,4.849-3.974L51.98,8.2a.981.981,0,0,0-.119-.655A4.044,4.044,0,0,0,53,4.726,4.1,4.1,0,0,0,52.57,2.9,3.424,3.424,0,0,0,49.49,1H48.236A2.238,2.238,0,0,0,46,3.236a.236.236,0,0,1-.131.211l-.041.021a.992.992,0,0,0-1.275-.363l-1.313.657a24.723,24.723,0,0,0-3.263,1.967A3.16,3.16,0,0,0,34,7.165a12.263,12.263,0,0,0,.608,3.808A4.292,4.292,0,0,0,36.027,16.821ZM48,3.236A.236.236,0,0,1,48.236,3H49.49a1.436,1.436,0,0,1,1.291.8A2.094,2.094,0,0,1,51,4.726a2.063,2.063,0,0,1-.607,1.467l-.651.651a5.409,5.409,0,0,1-2.844-1.7A2.213,2.213,0,0,0,48,3.236ZM44.135,5.551l.434-.218c.108.183.23.355.351.527A20.279,20.279,0,0,1,39.4,12.2l1.2,1.6a22.331,22.331,0,0,0,5.76-6.419A7.49,7.49,0,0,0,47.278,8l-.086.258a25.955,25.955,0,0,1-3.024,6.182l1.664,1.11A27.964,27.964,0,0,0,49.089,8.9l.045-.135c.219.056.439.108.665.144l-1.545,7.727A2.945,2.945,0,0,1,45.366,19a7.24,7.24,0,0,1-3.842-1.1l-4.436-2.772a2.314,2.314,0,0,1-.58-3.409,22.993,22.993,0,0,1,7.627-6.168ZM37.165,6a1.161,1.161,0,0,1,1.15.974l.008.042a25.133,25.133,0,0,0-2.142,2.036A10.268,10.268,0,0,1,36,7.165,1.166,1.166,0,0,1,37.165,6Z"/>
      <path id="Path_1245915" data-name="Path 1245915" d="M25.023,44.544c-.01.151-.023.3-.023.456a7,7,0,0,0,4.126,6.375A3.96,3.96,0,0,1,27,52v2a5.981,5.981,0,0,0,4.483-2.026c.172.012.343.026.517.026s.345-.014.517-.026A5.981,5.981,0,0,0,37,54V52a3.96,3.96,0,0,1-2.126-.625A7,7,0,0,0,39,45c0-.154-.013-.3-.023-.456A3.985,3.985,0,0,1,41,48h2a6.005,6.005,0,0,0-4.6-5.829,7.008,7.008,0,0,0-.716-1.245A6.026,6.026,0,0,0,38,39a5.957,5.957,0,0,0-2.4-4.8l-1.2,1.6A3.964,3.964,0,0,1,36,39c0,.084-.015.166-.02.249a6.966,6.966,0,0,0-7.96,0c0-.083-.02-.165-.02-.249a3.964,3.964,0,0,1,1.6-3.2l-1.2-1.6A5.957,5.957,0,0,0,26,39a6.026,6.026,0,0,0,.319,1.926,7.008,7.008,0,0,0-.716,1.245A6.005,6.005,0,0,0,21,48h2A3.985,3.985,0,0,1,25.023,44.544ZM27,45a4.979,4.979,0,0,1,.1-.991,4,4,0,0,1,1.944.559A2.941,2.941,0,0,0,29,45a3,3,0,0,0,1.981,2.81c0,.064.019.126.019.19a3.953,3.953,0,0,1-.429,1.767A4.991,4.991,0,0,1,27,45Zm5,1a1,1,0,1,1,1-1A1,1,0,0,1,32,46Zm1.429,3.767A3.953,3.953,0,0,1,33,48c0-.064.016-.126.019-.19A3,3,0,0,0,35,45a2.914,2.914,0,0,0-.044-.431,4,4,0,0,1,1.944-.56,4.966,4.966,0,0,1-3.471,5.758ZM32,40a4.96,4.96,0,0,1,3.292,1.266,3.984,3.984,0,0,1-1.528,1.32,2.948,2.948,0,0,0-3.528,0,3.984,3.984,0,0,1-1.528-1.32A4.96,4.96,0,0,1,32,40Z"/>
      <path id="Path_1245916" data-name="Path 1245916" d="M20.707,8.293l-3-3a1,1,0,0,0-1.414,0l-5,5a1,1,0,0,0,0,1.414l3,3a1,1,0,0,0,1.414,0L16,14.414,18.086,16.5l-2.793,2.793,1.414,1.414L18,19.414,21.586,23H15a1,1,0,0,0-1,1v4a1,1,0,0,0,1,1h1.084l.353,4H15a3,3,0,0,0,0,6h1.967L19,62.088A1,1,0,0,0,20,63H44a1,1,0,0,0,1-.912L47.033,39H49a3,3,0,0,0,0-6H47.563l.353-4H49a1,1,0,0,0,1-1V24a1,1,0,0,0-1-1H36.414l-11-11,1.293-1.293L25.293,9.293,22.5,12.086,20.414,10l.293-.293A1,1,0,0,0,20.707,8.293ZM13.414,11,17,7.414,18.586,9,15,12.586ZM15,37a1,1,0,0,1,0-2h1.614l.176,2Zm34-2a1,1,0,0,1,0,2H47.21l.176-2ZM43.084,61H20.916L18.092,29H45.908ZM48,27H16V25H48ZM25.586,15l-2.293,2.293,1.414,1.414L27,16.414,28.586,18l-2.293,2.293,1.414,1.414L30,19.414,33.586,23H24.414l-5-5L24,13.414Zm-4.5-1.5L19.5,15.086,17.414,13,19,11.414Z"/>
    </g>
  </g>
</svg>
