<svg xmlns="http://www.w3.org/2000/svg" width="98" height="97.998" viewBox="0 0 98 97.998">
  <g id="Group_1204734" data-name="Group 1204734" transform="translate(3770 8510.984)">
    <g id="Group_1204531" data-name="Group 1204531" transform="translate(-4572.781 -11049)">
      <g id="Group_1204237" data-name="Group 1204237" transform="translate(-1 566)">
        <g id="Group_1204143" data-name="Group 1204143" transform="translate(-67.331 1694.852)">
          <g id="Group_1188789" data-name="Group 1188789" transform="translate(871.113 277.164)">
            <path id="Path_1243039" data-name="Path 1243039" d="M41.05,0h0a41.05,41.05,0,0,1,0,82.1h0a41.05,41.05,0,0,1,0-82.1Z" transform="translate(7.951 7.949)" fill="#ffc94a"/>
            <rect id="Rectangle_400907" data-name="Rectangle 400907" width="88.438" height="88.437" rx="44.218" transform="translate(4.782 4.781)" fill="none"/>
            <g id="Group_1098742" data-name="Group 1098742" transform="translate(0)">
              <g id="Rectangle_400898" data-name="Rectangle 400898" transform="translate(0)" fill="none" stroke="#fff" stroke-width="2" opacity="0.859">
                <rect width="98" height="97.999" rx="48.999" stroke="none"/>
                <rect x="1" y="1" width="96" height="95.999" rx="47.999" fill="none"/>
              </g>
              <g id="Rectangle_400907-2" data-name="Rectangle 400907" transform="translate(0)" fill="none" stroke="#0f1f33" stroke-linecap="round" stroke-width="2">
                <rect width="98" height="97.999" rx="48.999" stroke="none"/>
                <rect x="1" y="1" width="96" height="95.999" rx="47.999" fill="none"/>
              </g>
            </g>
          </g>
        </g>
      </g>
    </g>
    <g id="buscar" transform="translate(-3741.895 -8487.615)">
      <g id="Group_1204732" data-name="Group 1204732" transform="translate(0.8 0.801)">
        <path id="Path_1245097" data-name="Path 1245097" d="M0,0H4.015V5.7H0Z" transform="translate(36.666 35.909) rotate(-45)" fill="#e6e2e6"/>
        <path id="Path_1245098" data-name="Path 1245098" d="M0,0H4.015V5.7H0Z" transform="translate(36.666 35.909) rotate(-45)" fill="#ecdaec"/>
        <path id="Path_1245099" data-name="Path 1245099" d="M0,0H1.911V5.7H0Z" transform="translate(36.666 35.909) rotate(-45)" fill="#e2cbe2"/>
        <path id="Path_1245100" data-name="Path 1245100" d="M8,9.5A1.5,1.5,0,0,1,9.5,8H34.776l9.3,9.3V56.157a1.5,1.5,0,0,1-1.5,1.5H9.5a1.5,1.5,0,0,1-1.5-1.5Z" transform="translate(-8 -8)" fill="#f9f6f6"/>
        <path id="Path_1245101" data-name="Path 1245101" d="M42.579,472.5H9.5A1.5,1.5,0,0,1,8,471v1.8a1.5,1.5,0,0,0,1.5,1.5H42.579a1.5,1.5,0,0,0,1.5-1.5V471A1.5,1.5,0,0,1,42.579,472.5Z" transform="translate(-8 -424.645)" fill="#ecdaec"/>
        <g id="Group_1204730" data-name="Group 1204730" transform="translate(18.167)">
          <path id="Path_1245102" data-name="Path 1245102" d="M276.947,17.3h7.8l-9.3-9.3v7.8A1.5,1.5,0,0,0,276.947,17.3Z" transform="translate(-266.836 -8)" fill="#e2cbe2"/>
          <path id="Path_1245103" data-name="Path 1245103" d="M276.947,17.3h7.8l-9.3-9.3v7.8A1.5,1.5,0,0,0,276.947,17.3Z" transform="translate(-266.836 -8)" fill="#e2cbe2"/>
          <circle id="Ellipse_12454" data-name="Ellipse 12454" cx="12.463" cy="12.463" r="12.463" transform="translate(0 14.563)" fill="#e2cbe2"/>
        </g>
        <path id="Path_1245104" data-name="Path 1245104" d="M210.73,276.85a12.463,12.463,0,0,1-21.243-7.912,12.463,12.463,0,1,0,24.861,0A12.415,12.415,0,0,1,210.73,276.85Z" transform="translate(-171.287 -242.813)" fill="#dab9d8"/>
        <circle id="Ellipse_12455" data-name="Ellipse 12455" cx="9.024" cy="9.024" r="9.024" transform="translate(21.606 18.002)" fill="#ffe27a"/>
        <path id="Path_1245105" data-name="Path 1245105" d="M239.218,274.417a9.023,9.023,0,0,1-15.359-5.48,9.023,9.023,0,1,0,17.956,0A8.985,8.985,0,0,1,239.218,274.417Z" transform="translate(-202.207 -242.812)" fill="#f9cf58"/>
        <path id="Path_1245106" data-name="Path 1245106" d="M273.078,250.456a1.572,1.572,0,0,1-1.1-.447L269.908,248a1.578,1.578,0,0,1,2.2-2.262l.941.915,2.827-2.9a1.578,1.578,0,1,1,2.259,2.2l-3.928,4.027a1.573,1.573,0,0,1-1.13.476Z" transform="translate(-243.256 -219.718)" fill="#98db7c"/>
        <path id="Path_1245107" data-name="Path 1245107" d="M278.146,250.225l-3.928,4.027a1.578,1.578,0,0,1-2.23.03l-2.071-2.014a1.587,1.587,0,0,1-.194-.229,1.577,1.577,0,0,0,.194,2.031l2.071,2.014a1.578,1.578,0,0,0,2.23-.03l3.928-4.027a1.578,1.578,0,0,0,.164-2A1.587,1.587,0,0,1,278.146,250.225Z" transform="translate(-243.266 -225.793)" fill="#82d361"/>
        <path id="Path_1245108" data-name="Path 1245108" d="M412.905,372.946l-3.959,3.959,4.737,4.737a2.8,2.8,0,0,0,3.959-3.959Z" transform="translate(-368.804 -336.408)" fill="#ff4755"/>
        <path id="Path_1245109" data-name="Path 1245109" d="M415.033,403.729l-4.736-4.736-1.352,1.352,4.737,4.737a2.8,2.8,0,0,0,4.518-.8A2.8,2.8,0,0,1,415.033,403.729Z" transform="translate(-368.804 -359.847)" fill="#fc2b3a"/>
        <g id="Group_1204731" data-name="Group 1204731" transform="translate(5.135 13.82)">
          <path id="Path_1245110" data-name="Path 1245110" d="M63.5,151.181H60.215a.929.929,0,0,1-.929-.929v-3.285a.929.929,0,0,1,.929-.929H63.5a.929.929,0,0,1,.929.929v3.285a.929.929,0,0,1-.929.929Z" transform="translate(-59.286 -146.039)" fill="#98db7c"/>
          <path id="Path_1245111" data-name="Path 1245111" d="M63.5,256.343H60.215a.929.929,0,0,1-.929-.929V252.13a.929.929,0,0,1,.929-.929H63.5a.929.929,0,0,1,.929.929v3.285a.929.929,0,0,1-.929.929Z" transform="translate(-59.286 -240.672)" fill="#98db7c"/>
          <path id="Path_1245112" data-name="Path 1245112" d="M63.5,363.64H60.215a.929.929,0,0,1-.929-.929v-3.285a.929.929,0,0,1,.929-.929H63.5a.929.929,0,0,1,.929.929v3.285a.929.929,0,0,1-.929.929Z" transform="translate(-59.286 -337.227)" fill="#98db7c"/>
        </g>
        <path id="Path_1245113" data-name="Path 1245113" d="M63.5,171.057H60.215a.929.929,0,0,1-.929-.929v1.8a.929.929,0,0,0,.929.929H63.5a.929.929,0,0,0,.929-.929v-1.8a.929.929,0,0,1-.929.929Z" transform="translate(-54.151 -153.896)" fill="#82d361"/>
        <path id="Path_1245114" data-name="Path 1245114" d="M63.5,276.218H60.215a.929.929,0,0,1-.929-.929v1.8a.929.929,0,0,0,.929.929H63.5a.929.929,0,0,0,.929-.929v-1.8a.929.929,0,0,1-.929.929Z" transform="translate(-54.151 -248.528)" fill="#82d361"/>
        <path id="Path_1245115" data-name="Path 1245115" d="M63.5,383.515H60.215a.929.929,0,0,1-.929-.929v1.8a.929.929,0,0,0,.929.929H63.5a.929.929,0,0,0,.929-.929v-1.8a.929.929,0,0,1-.929.929Z" transform="translate(-54.151 -345.083)" fill="#82d361"/>
        <path id="Path_1245116" data-name="Path 1245116" d="M275.445,85.937v1.8a1.5,1.5,0,0,0,1.5,1.5h7.8v-1.8h-7.8A1.5,1.5,0,0,1,275.445,85.937Z" transform="translate(-248.669 -78.134)" fill="#ecdaec"/>
      </g>
      <g id="Group_1204733" data-name="Group 1204733" transform="translate(-0.001 0)">
        <path id="Path_1245117" data-name="Path 1245117" d="M266.4,244.445a2.316,2.316,0,0,0,1.671-.7L272,239.706a2.334,2.334,0,0,0-3.341-3.258l-2.309,2.367-.4-.393a2.333,2.333,0,1,0-3.254,3.346l2.075,2.018A2.321,2.321,0,0,0,266.4,244.445Zm-2.669-4.929a.83.83,0,0,1,1.172-.016l.943.917a.753.753,0,0,0,1.063-.014l2.833-2.9a.829.829,0,1,1,1.187,1.157l-3.936,4.035a.833.833,0,0,1-1.171.016l-2.075-2.018A.83.83,0,0,1,263.726,239.517Z" transform="translate(-235.758 -212.142)"/>
        <path id="Path_1245118" data-name="Path 1245118" d="M219.385,194.978a.752.752,0,0,0-1.2.906,9.915,9.915,0,0,0,.9,1.035,9.788,9.788,0,1,0-2.4-3.939.752.752,0,0,0,1.434-.458,8.3,8.3,0,1,1,2.035,3.333,8.427,8.427,0,0,1-.764-.877Z" transform="translate(-194.564 -162.163)"/>
        <path id="Path_1245119" data-name="Path 1245119" d="M50.225,41.576,45.477,36.83a.753.753,0,0,0-1.064,0l-.029.029-1.827-1.827a13.218,13.218,0,0,0,2.1-6.364.752.752,0,0,0-1.5-.095,11.726,11.726,0,0,1-11.7,10.987h-.071A11.73,11.73,0,1,1,43,25.75a.752.752,0,0,0,1.481-.266,13.249,13.249,0,0,0-6.819-9.345V10.075a.762.762,0,0,0-.22-.532L28.116.22A.762.762,0,0,0,27.584,0H2.256A2.26,2.26,0,0,0,0,2.257V8.581a.752.752,0,0,0,1.5,0V2.257A.753.753,0,0,1,2.257,1.5H26.831V8.571a2.26,2.26,0,0,0,2.257,2.257h7.067v4.63a13.3,13.3,0,0,0-4.566-.859l-.022,0h-16.8a.752.752,0,1,0,0,1.5H25.3a13.189,13.189,0,0,0-3,2.155H14.767a.752.752,0,1,0,0,1.5h6.179a13.1,13.1,0,0,0-2.469,5.379h-3.71a.752.752,0,1,0,0,1.5h3.49q-.052.588-.053,1.186,0,.49.035.974H14.767a.752.752,0,1,0,0,1.5h3.668A13.1,13.1,0,0,0,20.949,35.9H14.767a.752.752,0,1,0,0,1.5H22.3a13.187,13.187,0,0,0,3,2.152H14.767a.752.752,0,1,0,0,1.5H31.446a13.3,13.3,0,0,0,4.71-.861V49a.753.753,0,0,1-.752.752H2.256A.753.753,0,0,1,1.5,49V11.591a.752.752,0,0,0-1.5,0V49a2.26,2.26,0,0,0,2.257,2.257H35.4A2.26,2.26,0,0,0,37.66,49V39.523q.5-.267.988-.581l1.826,1.826a.759.759,0,0,0-.029,1.093l4.747,4.747a3.558,3.558,0,0,0,5.032-5.031ZM29.089,9.323a.753.753,0,0,1-.752-.752v-6l6.755,6.754ZM39.876,38.041q.482-.4.933-.848t.848-.933l1.663,1.663L41.539,39.7Zm9.285,7.5a2.063,2.063,0,0,1-2.9,0l-4.215-4.215,2.9-2.9,4.215,4.215A2.062,2.062,0,0,1,49.16,45.543Z" transform="translate(0.001 0)"/>
        <path id="Path_1245120" data-name="Path 1245120" d="M53.076,144.967h3.292a1.685,1.685,0,0,0,1.683-1.683v-3.291a1.685,1.685,0,0,0-1.683-1.683H53.076a1.685,1.685,0,0,0-1.683,1.683v3.291A1.685,1.685,0,0,0,53.076,144.967Zm-.178-4.974a.178.178,0,0,1,.178-.178h3.292a.178.178,0,0,1,.178.178v3.291a.178.178,0,0,1-.178.178H53.076a.178.178,0,0,1-.178-.178Z" transform="translate(-46.247 -124.463)"/>
        <path id="Path_1245121" data-name="Path 1245121" d="M51.393,248.652a1.685,1.685,0,0,0,1.683,1.683h3.292a1.685,1.685,0,0,0,1.683-1.683v-3.291a1.685,1.685,0,0,0-1.683-1.683H53.076a1.685,1.685,0,0,0-1.683,1.683Zm1.5-3.291a.178.178,0,0,1,.178-.178h3.292a.178.178,0,0,1,.178.178v3.291a.178.178,0,0,1-.178.178H53.076a.178.178,0,0,1-.178-.178Z" transform="translate(-46.247 -219.281)"/>
        <path id="Path_1245122" data-name="Path 1245122" d="M51.393,356.159a1.685,1.685,0,0,0,1.683,1.683h3.292a1.685,1.685,0,0,0,1.683-1.683v-3.292a1.685,1.685,0,0,0-1.683-1.683H53.076a1.685,1.685,0,0,0-1.683,1.683Zm1.5-3.292a.178.178,0,0,1,.178-.178h3.292a.178.178,0,0,1,.178.178v3.292a.178.178,0,0,1-.178.178H53.076a.178.178,0,0,1-.178-.178Z" transform="translate(-46.247 -316.025)"/>
      </g>
    </g>
  </g>
</svg>
