<svg xmlns="http://www.w3.org/2000/svg" width="98" height="97.998" viewBox="0 0 98 97.998">
  <g id="Group_1204729" data-name="Group 1204729" transform="translate(4096 8510.984)">
    <g id="Group_1204530" data-name="Group 1204530" transform="translate(-4898.781 -11049)">
      <g id="Group_1204237" data-name="Group 1204237" transform="translate(-1 566)">
        <g id="Group_1204143" data-name="Group 1204143" transform="translate(-67.331 1694.852)">
          <g id="Group_1188789" data-name="Group 1188789" transform="translate(871.113 277.164)">
            <path id="Path_1243039" data-name="Path 1243039" d="M41.05,0h0a41.05,41.05,0,0,1,0,82.1h0a41.05,41.05,0,0,1,0-82.1Z" transform="translate(7.951 7.949)" fill="#ffc94a"/>
            <rect id="Rectangle_400907" data-name="Rectangle 400907" width="88.438" height="88.437" rx="44.218" transform="translate(4.782 4.781)" fill="none"/>
            <g id="Group_1098742" data-name="Group 1098742" transform="translate(0)">
              <g id="Rectangle_400898" data-name="Rectangle 400898" transform="translate(0)" fill="none" stroke="#fff" stroke-width="2" opacity="0.859">
                <rect width="98" height="97.999" rx="48.999" stroke="none"/>
                <rect x="1" y="1" width="96" height="95.999" rx="47.999" fill="none"/>
              </g>
              <g id="Rectangle_400907-2" data-name="Rectangle 400907" transform="translate(0)" fill="none" stroke="#0f1f33" stroke-linecap="round" stroke-width="2">
                <rect width="98" height="97.999" rx="48.999" stroke="none"/>
                <rect x="1" y="1" width="96" height="95.999" rx="47.999" fill="none"/>
              </g>
            </g>
          </g>
        </g>
      </g>
    </g>
    <g id="granja-inteligente" transform="translate(-4073.969 -8489.033)">
      <path id="Path_1245072" data-name="Path 1245072" d="M292.271,200.864v22.649a2.171,2.171,0,0,1-4.343,0v-9.154a1.094,1.094,0,0,0-1.094-1.094h-7.178a1.094,1.094,0,0,0-1.094,1.094v9.154a2.172,2.172,0,0,1-4.343,0V200.864a3.076,3.076,0,0,1,.529-1.727h0a3.077,3.077,0,0,1,2.553-1.356h11.888a3.081,3.081,0,0,1,3.082,3.083Zm0,0" transform="translate(-244.214 -176.14)" fill="#ffeee1"/>
      <path id="Path_1245073" data-name="Path 1245073" d="M280.665,318.353h-1.009a1.094,1.094,0,0,0-1.094,1.094v4.073a4.051,4.051,0,0,1-4.343-.651v-6.077a4.05,4.05,0,0,1,6.446,1.561Zm0,0" transform="translate(-244.214 -281.228)" fill="#618baa"/>
      <path id="Path_1245074" data-name="Path 1245074" d="M292.275,200.9v5.647h-2.1c-.015.044-.028.088-.044.131a7.375,7.375,0,0,1-1.708,2.688,7.313,7.313,0,0,1-12.049-2.689c-.015-.043-.028-.086-.044-.13h-2.1V200.9h1.716v-1.413a3.7,3.7,0,0,1-1.186-.346,3.076,3.076,0,0,1,2.553-1.356h11.887a3.08,3.08,0,0,1,2.552,1.352,3.7,3.7,0,0,1-1.185.349V200.9Zm0,0" transform="translate(-244.217 -176.14)" fill="#fecbaa"/>
      <path id="Path_1245075" data-name="Path 1245075" d="M72.275,200.864v22.649a2.172,2.172,0,0,1-4.343,0v-9.154a1.094,1.094,0,0,0-1.094-1.094H59.66a1.094,1.094,0,0,0-1.094,1.094v9.154a2.172,2.172,0,0,1-4.343,0V200.864a3.073,3.073,0,0,1,.529-1.727h0a3.076,3.076,0,0,1,2.553-1.356H69.192a3.082,3.082,0,0,1,3.083,3.083Zm0,0" transform="translate(-48.29 -176.14)" fill="#ffeee1"/>
      <path id="Path_1245076" data-name="Path 1245076" d="M72.275,200.9v5.647h-2.1c-.015.044-.028.088-.044.131a7.375,7.375,0,0,1-1.708,2.688,7.313,7.313,0,0,1-12.049-2.689c-.015-.043-.028-.086-.044-.13h-2.1V200.9h1.716v-1.413a3.7,3.7,0,0,1-1.186-.346,3.076,3.076,0,0,1,2.553-1.356H69.192a3.08,3.08,0,0,1,2.552,1.352,3.7,3.7,0,0,1-1.185.349V200.9Zm0,0" transform="translate(-48.29 -176.14)" fill="#fecbaa"/>
      <path id="Path_1245077" data-name="Path 1245077" d="M183.855,369.781v6.911a2.172,2.172,0,0,1-4.343,0v-6.911Zm0,0" transform="translate(-159.869 -329.319)" fill="#618baa"/>
      <path id="Path_1245078" data-name="Path 1245078" d="M56.794,308.353a2.57,2.57,0,0,1-2.571,2.571v-5.143A2.571,2.571,0,0,1,56.794,308.353Zm0,0" transform="translate(-48.29 -272.322)" fill="#618baa"/>
      <path id="Path_1245079" data-name="Path 1245079" d="M7.5,238.238H61.882v3.022H7.5Zm0,0" transform="translate(-6.679 -212.17)" fill="#e3f4ff"/>
      <path id="Path_1245080" data-name="Path 1245080" d="M70.377,152.373a2.424,2.424,0,0,1-2.425,2.425h-.87v6a6,6,0,1,1-11.995,0v-6h-.87a2.424,2.424,0,0,1-2.425-2.425,1.073,1.073,0,0,1,1.073-1.073h.916a2.283,2.283,0,0,0,1.97-1.125,2.287,2.287,0,0,1,1.97-1.124h6.727a2.287,2.287,0,0,1,1.97,1.124,2.287,2.287,0,0,0,1.97,1.125H69.3a1.073,1.073,0,0,1,1.073,1.073Zm0,0" transform="translate(-46.126 -132.742)" fill="#ffeee1"/>
      <path id="Path_1245081" data-name="Path 1245081" d="M139.713,207.568h3v-6h-3a3,3,0,0,0,0,6Zm0,0" transform="translate(-121.755 -179.514)" fill="#618baa"/>
      <path id="Path_1245082" data-name="Path 1245082" d="M96.43,274.973a6,6,0,0,1-11.285,0Zm0,0" transform="translate(-75.828 -244.885)" fill="#ffae85"/>
      <path id="Path_1245083" data-name="Path 1245083" d="M290.373,152.373a2.424,2.424,0,0,1-2.425,2.425h-.87v6a6,6,0,1,1-11.995,0v-6h-.87a2.425,2.425,0,0,1-2.425-2.425,1.073,1.073,0,0,1,1.074-1.073h.916a2.283,2.283,0,0,0,1.97-1.125,2.287,2.287,0,0,1,1.97-1.124h6.727a2.286,2.286,0,0,1,1.97,1.124,2.287,2.287,0,0,0,1.97,1.125h.916a1.072,1.072,0,0,1,1.073,1.073Zm0,0" transform="translate(-242.05 -132.742)" fill="#ffeee1"/>
      <path id="Path_1245084" data-name="Path 1245084" d="M334.08,149.051V151.3a3.239,3.239,0,0,1-6.478,0v-2.247Zm0,0" transform="translate(-291.755 -132.742)" fill="#618baa"/>
      <path id="Path_1245085" data-name="Path 1245085" d="M316.43,274.973a6,6,0,0,1-11.285,0Zm0,0" transform="translate(-271.755 -244.885)" fill="#ffae85"/>
      <path id="Path_1245086" data-name="Path 1245086" d="M77.154,393.916v1.645h-50.1v-1.645a2.525,2.525,0,0,1,.043-.468,2.641,2.641,0,0,1,2.6-2.174H74.511a2.641,2.641,0,0,1,2.6,2.174A2.525,2.525,0,0,1,77.154,393.916Zm0,0" transform="translate(-24.091 -348.46)" fill="#5be167"/>
      <path id="Path_1245087" data-name="Path 1245087" d="M77.154,411.613v1.645h-50.1v-1.645a2.525,2.525,0,0,1,.043-.468H77.112A2.525,2.525,0,0,1,77.154,411.613Zm0,0" transform="translate(-24.091 -366.157)" fill="#1fc974"/>
      <path id="Path_1245088" data-name="Path 1245088" d="M60.772,430.115H8.61A1.11,1.11,0,0,1,7.5,429v-4.754a1.11,1.11,0,0,1,1.11-1.11H60.772a1.11,1.11,0,0,1,1.11,1.11V429A1.11,1.11,0,0,1,60.772,430.115Zm0,0" transform="translate(-6.679 -376.84)" fill="#e3f4ff"/>
      <path id="Path_1245089" data-name="Path 1245089" d="M76.83,47.949h-47.7a1.094,1.094,0,0,1-1.094-1.094V43.574H77.923v3.281A1.094,1.094,0,0,1,76.83,47.949Zm0,0" transform="translate(-24.968 -38.806)" fill="#64bdff"/>
      <path id="Path_1245090" data-name="Path 1245090" d="M60.787,12.6H8.6a1.094,1.094,0,0,1-1-1.533L8.87,8.155a1.093,1.093,0,0,1,1-.655H59.511a1.093,1.093,0,0,1,1,.655l1.276,2.912A1.094,1.094,0,0,1,60.787,12.6Zm0,0" transform="translate(-6.679 -6.679)" fill="#e3f4ff"/>
      <path id="Path_1245091" data-name="Path 1245091" d="M48.058,158.951a.821.821,0,0,0,.821-.821v-2.161H55.2a.821.821,0,1,0,0-1.641H45.844c0-.072.006-.144.006-.216v-1.164H55.2a.821.821,0,1,0,0-1.641H48.878v-.524a3.9,3.9,0,0,0-.956-2.557,3.24,3.24,0,0,0,1.223-2.535,1.9,1.9,0,0,0-1.894-1.894h-.916a1.474,1.474,0,0,1-1.263-.721,3.12,3.12,0,0,0-2.676-1.528H35.668a3.121,3.121,0,0,0-2.676,1.528,1.473,1.473,0,0,1-1.263.721h-.916a1.9,1.9,0,0,0-1.894,1.894,3.24,3.24,0,0,0,1.223,2.535,3.916,3.916,0,0,0-.956,2.557v.524h-4.38v-.524a3.888,3.888,0,0,0-.955-2.558,3.239,3.239,0,0,0,1.222-2.535,1.9,1.9,0,0,0-1.894-1.894h-.916A1.473,1.473,0,0,1,21,143.075a3.121,3.121,0,0,0-2.677-1.528H11.6a3.121,3.121,0,0,0-2.677,1.528,1.473,1.473,0,0,1-1.263.721H6.74a1.9,1.9,0,0,0-1.894,1.894,3.24,3.24,0,0,0,1.223,2.535,3.9,3.9,0,0,0-.956,2.557v.524H.821a.821.821,0,1,0,0,1.641H8.142v1.164c0,.073,0,.144.006.216H.821a.821.821,0,1,0,0,1.641H5.113v3.539s0,.006,0,.01,0,.006,0,.009v5.124s0,.006,0,.01,0,.006,0,.009v3.417a3.468,3.468,0,0,0-2.973,3.428v.024H1.931A1.932,1.932,0,0,0,0,173.469v4.754a1.933,1.933,0,0,0,1.931,1.931H54.093a1.933,1.933,0,0,0,1.931-1.931v-4.754a1.933,1.933,0,0,0-1.931-1.931h-.209v-.023a3.467,3.467,0,0,0-3.463-3.463H48.878V161.87a.821.821,0,0,0-1.641,0v6.182h-2.7v-3.774a1.917,1.917,0,0,0-1.915-1.915H36.976a4.869,4.869,0,0,0-6.149-2.2v-4.189h1.647c.038.134.08.266.126.4a.751.751,0,0,0,.037.107,6.817,6.817,0,0,0,12.791,0,.835.835,0,0,0,.037-.106q.069-.2.125-.4h1.647v2.161A.821.821,0,0,0,48.058,158.951Zm-.821-8.169v.524H45.849v-2.371h.05a3.313,3.313,0,0,0,.353-.019A2.26,2.26,0,0,1,47.237,150.782Zm-10.57-7.594H41.5v1.426a2.419,2.419,0,0,1-4.837,0Zm-5.854,2.249h.916a3.12,3.12,0,0,0,2.676-1.528,1.469,1.469,0,0,1,.621-.572v1.277a4.06,4.06,0,0,0,8.12,0V143.4a1.466,1.466,0,0,1,.513.513,3.12,3.12,0,0,0,2.676,1.528h.916a.253.253,0,0,1,.253.253,1.606,1.606,0,0,1-1.6,1.6h-.871a.821.821,0,0,0-.821.821v6a5.143,5.143,0,0,1-.145,1.214H34a5.166,5.166,0,0,1-.145-1.214v-6a.821.821,0,0,0-.821-.821h-.871a1.606,1.606,0,0,1-1.6-1.6A.253.253,0,0,1,30.813,145.437Zm.014,5.345a2.271,2.271,0,0,1,.985-1.866,3.313,3.313,0,0,0,.353.019h.05v2.371H30.827v-.524Zm-7.662,0v.524H21.777v-2.371h.05a3.3,3.3,0,0,0,.352-.019A2.254,2.254,0,0,1,23.164,150.782Zm-5.206,2.509a2.178,2.178,0,0,1,0-4.356h2.178v4.356ZM6.74,145.437h.916a3.12,3.12,0,0,0,2.676-1.528,1.472,1.472,0,0,1,1.263-.721h6.728a1.472,1.472,0,0,1,1.263.721,3.12,3.12,0,0,0,2.676,1.528h.916a.253.253,0,0,1,.253.253,1.606,1.606,0,0,1-1.6,1.6H17.958a3.819,3.819,0,0,0,0,7.639H20.07c-.021.133-.048.264-.08.393H9.928a5.169,5.169,0,0,1-.145-1.214v-6a.82.82,0,0,0-.821-.821h-.87a1.606,1.606,0,0,1-1.6-1.6A.253.253,0,0,1,6.74,145.437Zm12.533,11.53a5.171,5.171,0,0,1-8.629,0Zm-12.52-5.661v-.524a2.26,2.26,0,0,1,.985-1.866,3.327,3.327,0,0,0,.353.019h.05v2.371ZM8.4,155.969c.038.134.08.266.125.4a.809.809,0,0,0,.038.107,6.817,6.817,0,0,0,12.791,0,.771.771,0,0,0,.037-.106c.046-.131.088-.263.126-.4h1.647v9.73h-2.7v-1.422a1.917,1.917,0,0,0-1.915-1.915H11.37a1.917,1.917,0,0,0-1.915,1.915v3.773h-2.7v-2.67a3.393,3.393,0,0,0,0-6.583v-2.829Zm12.062,12.082v-.71h2.7v.71ZM6.754,160.544a1.751,1.751,0,0,1,0,3.092Zm47.628,12.925v4.754a.29.29,0,0,1-.289.289H1.931a.29.29,0,0,1-.289-.289v-4.754a.29.29,0,0,1,.289-.289H54.093A.29.29,0,0,1,54.382,173.469Zm-2.14-1.954v.023H3.781v-.023A1.824,1.824,0,0,1,5.6,169.693h6.533a.821.821,0,1,0,0-1.641H11.1v-3.774A.274.274,0,0,1,11.37,164h7.179a.274.274,0,0,1,.274.274v3.774H15.876a.821.821,0,1,0,0,1.641H50.42A1.824,1.824,0,0,1,52.242,171.515Zm-9.348-7.237v3.774H35.169v-3.774a.274.274,0,0,1,.274-.274h7.179A.274.274,0,0,1,42.895,164.278Zm-10.214-2.845a3.21,3.21,0,0,1,2.323.984,1.917,1.917,0,0,0-1.476,1.862v3.5a3.239,3.239,0,0,1-2.7-.474v-5.284A3.226,3.226,0,0,1,32.681,161.432Zm-3.5.189c0,.011,0,.022,0,.033v6.013c0,.011,0,.022,0,.033v.352h-4.38V166.53s0-.006,0-.01,0-.006,0-.009V155.969h4.38Zm-7.414-7.293c0-.072.006-.144.006-.216v-1.164H32.214v1.164c0,.073,0,.144.006.216Zm17.261,4.96a5.175,5.175,0,0,1-4.315-2.321h8.629A5.175,5.175,0,0,1,39.032,159.288Zm0,0" transform="translate(0 -126.059)"/>
      <path id="Path_1245092" data-name="Path 1245092" d="M161.536,216.617a.82.82,0,0,0-.821.821v.657a.821.821,0,1,0,1.641,0v-.657A.821.821,0,0,0,161.536,216.617Zm0,0" transform="translate(-143.129 -192.915)"/>
      <path id="Path_1245093" data-name="Path 1245093" d="M98.535,218.915a.821.821,0,0,0,.821-.821v-.657a.821.821,0,0,0-1.641,0v.657A.821.821,0,0,0,98.535,218.915Zm0,0" transform="translate(-87.023 -192.915)"/>
      <path id="Path_1245094" data-name="Path 1245094" d="M381.535,218.915a.821.821,0,0,0,.821-.821v-.657a.821.821,0,0,0-1.641,0v.657A.821.821,0,0,0,381.535,218.915Zm0,0" transform="translate(-339.057 -192.915)"/>
      <path id="Path_1245095" data-name="Path 1245095" d="M318.535,218.915a.821.821,0,0,0,.821-.821v-.657a.821.821,0,0,0-1.641,0v.657A.821.821,0,0,0,318.535,218.915Zm0,0" transform="translate(-282.95 -192.915)"/>
      <path id="Path_1245096" data-name="Path 1245096" d="M1.918,6.741h.331V8.049A1.916,1.916,0,0,0,4.163,9.963H14a.821.821,0,1,0,0-1.641H4.163a.273.273,0,0,1-.273-.273V6.741H52.137V8.049a.273.273,0,0,1-.273.273H17.738a.821.821,0,0,0,0,1.641H51.864a1.916,1.916,0,0,0,1.914-1.914V6.741h.331a1.915,1.915,0,0,0,1.754-2.683L54.587,1.146A1.915,1.915,0,0,0,52.833,0H3.194A1.915,1.915,0,0,0,1.44,1.146L.164,4.058A1.915,1.915,0,0,0,1.918,6.741Zm-.25-2.024L2.944,1.8a.273.273,0,0,1,.25-.163H52.833a.274.274,0,0,1,.25.163L54.36,4.717a.274.274,0,0,1-.25.383H1.918a.273.273,0,0,1-.25-.383Zm0,0" transform="translate(-0.002)"/>
    </g>
  </g>
</svg>
