<svg xmlns="http://www.w3.org/2000/svg" width="98" height="97.999" viewBox="0 0 98 97.999">
  <g id="Group_1204911" data-name="Group 1204911" transform="translate(-594 -5176)">
    <g id="Group_1204629" data-name="Group 1204629" transform="translate(-208.781 2637.984)">
      <g id="Group_1204237" data-name="Group 1204237" transform="translate(-1 566)">
        <g id="Group_1204143" data-name="Group 1204143" transform="translate(-67.331 1694.852)">
          <g id="Group_1188789" data-name="Group 1188789" transform="translate(871.113 277.164)">
            <path id="Path_1243039" data-name="Path 1243039" d="M41.05,0h0a41.05,41.05,0,0,1,0,82.1h0a41.05,41.05,0,0,1,0-82.1Z" transform="translate(7.951 7.949)" fill="#ffc94a"/>
            <rect id="Rectangle_400907" data-name="Rectangle 400907" width="88.438" height="88.437" rx="44.218" transform="translate(4.782 4.781)" fill="none"/>
            <g id="Group_1098742" data-name="Group 1098742" transform="translate(0)">
              <g id="Rectangle_400898" data-name="Rectangle 400898" transform="translate(0)" fill="none" stroke="#fff" stroke-width="2" opacity="0.859">
                <rect width="98" height="97.999" rx="48.999" stroke="none"/>
                <rect x="1" y="1" width="96" height="95.999" rx="47.999" fill="none"/>
              </g>
              <g id="Rectangle_400907-2" data-name="Rectangle 400907" transform="translate(0)" fill="none" stroke="#0f1f33" stroke-linecap="round" stroke-width="2">
                <rect width="98" height="97.999" rx="48.999" stroke="none"/>
                <rect x="1" y="1" width="96" height="95.999" rx="47.999" fill="none"/>
              </g>
            </g>
          </g>
        </g>
      </g>
    </g>
    <g id="granjero" transform="translate(542.28 5195.069)">
      <path id="Path_1245689" data-name="Path 1245689" d="M123.18,337.691l-4.59-1.53H96.1l-4.59,1.53a5.623,5.623,0,0,0-3.845,5.335v12.817h39.362V343.026A5.623,5.623,0,0,0,123.18,337.691Z" transform="translate(-6.624 -296.859)" fill="#ffdc64"/>
      <rect id="Rectangle_411436" data-name="Rectangle 411436" width="13.121" height="11.246" transform="translate(94.159 29.93)" fill="#f5af73"/>
      <path id="Path_1245690" data-name="Path 1245690" d="M199.888,268.638a12.073,12.073,0,0,0,13.121,0v-4.622H199.888Z" transform="translate(-105.729 -233.149)" fill="#f5965f"/>
      <rect id="Rectangle_411437" data-name="Rectangle 411437" width="3.748" height="4.686" transform="translate(109.153 15.872)" fill="#9b735a"/>
      <path id="Path_1245691" data-name="Path 1245691" d="M168.144,139.508h-.937a1.874,1.874,0,0,1-1.874-1.874v-1.874h-16.87v1.874a1.874,1.874,0,0,1-1.874,1.874h-.937a1.874,1.874,0,0,0-1.874,1.874v1.753a1.967,1.967,0,0,0,1.5,1.957,1.841,1.841,0,0,0,1.347-.239,10.3,10.3,0,0,0,20.552,0,1.841,1.841,0,0,0,1.347.239,1.967,1.967,0,0,0,1.5-1.957v-1.753A1.875,1.875,0,0,0,168.144,139.508Z" transform="translate(-56.178 -119.887)" fill="#f5c882"/>
      <rect id="Rectangle_411438" data-name="Rectangle 411438" width="3.748" height="4.686" transform="translate(88.536 15.872)" fill="#9b735a"/>
      <path id="Path_1245692" data-name="Path 1245692" d="M148.462,135.757v2.812a.937.937,0,0,1-.937.937H145.65a1.874,1.874,0,0,0-1.874,1.874v1.753a1.967,1.967,0,0,0,1.5,1.957,1.841,1.841,0,0,0,1.347-.239,10.28,10.28,0,0,0,12.16,9.473,10.306,10.306,0,0,1-8.444-10.132v-3.749a1.874,1.874,0,0,1,1.874-1.874h13.121v-2.812Z" transform="translate(-56.178 -119.885)" fill="#f5af73"/>
      <path id="Path_1245693" data-name="Path 1245693" d="M131.725,18.746,129.446,9.63a2.812,2.812,0,0,0-2.728-2.13h-13.23a2.812,2.812,0,0,0-2.773,2.349l-1.483,8.9L102.815,21.6a.469.469,0,0,0,.19.9h34.946a.469.469,0,0,0,.19-.9Z" transform="translate(-19.759 -6.623)" fill="#ffdc64"/>
      <path id="Path_1245694" data-name="Path 1245694" d="M221.192,223.935a.943.943,0,0,0-.806,1.426,4.686,4.686,0,0,0,8.094,0,.943.943,0,0,0-.806-1.426h-6.483Z" transform="translate(-123.714 -197.754)" fill="#fff"/>
      <path id="Path_1245695" data-name="Path 1245695" d="M103,107.442h34.946a.469.469,0,0,0,.19-.9l-6.417-2.852H109.231l-6.417,2.852A.469.469,0,0,0,103,107.442Z" transform="translate(-19.759 -91.57)" fill="#ffc850"/>
      <path id="Path_1245696" data-name="Path 1245696" d="M160.432,71.629l-.625,3.749H182.3l-.937-3.749Z" transform="translate(-70.334 -63.255)" fill="#9b735a"/>
      <g id="Group_1204908" data-name="Group 1204908" transform="translate(81.038 0.877)">
        <path id="Path_1245697" data-name="Path 1245697" d="M170.337,15l.581-5.81A1.874,1.874,0,0,1,172.783,7.5h-4a2.812,2.812,0,0,0-2.773,2.349L165.151,15Z" transform="translate(-156.091 -7.5)" fill="#ffc850"/>
        <path id="Path_1245698" data-name="Path 1245698" d="M94.222,341.506l-2.715.905a5.623,5.623,0,0,0-3.845,5.335v12.817h6.56Z" transform="translate(-87.662 -302.456)" fill="#ffc850"/>
        <path id="Path_1245699" data-name="Path 1245699" d="M368.226,341.506l2.715.905a5.623,5.623,0,0,1,3.845,5.335v12.817h-6.56V341.506Z" transform="translate(-335.424 -302.456)" fill="#ffc850"/>
      </g>
      <g id="Group_1204909" data-name="Group 1204909" transform="translate(87.598 39.302)">
        <path id="Path_1245700" data-name="Path 1245700" d="M147.524,336.161h-1.874l-1.874.625v13.433h3.749Z" transform="translate(-143.775 -336.161)" fill="#a0d755"/>
        <path id="Path_1245701" data-name="Path 1245701" d="M336.162,336.161h1.874l1.874.625v13.433h-3.749Z" transform="translate(-313.669 -336.161)" fill="#a0d755"/>
      </g>
      <path id="Path_1245702" data-name="Path 1245702" d="M164.048,309.1,171.053,313l-3.372,4.046a1.874,1.874,0,0,1-2.765.125l-5.109-5.109,1.831-2.441A1.875,1.875,0,0,1,164.048,309.1Z" transform="translate(-70.334 -272.757)" fill="#fff082"/>
      <line id="Line_976" data-name="Line 976" x2="0.009" transform="translate(91.347 55.235)" fill="none" stroke="#464646" stroke-linecap="round" stroke-linejoin="round" stroke-miterlimit="10" stroke-width="16"/>
      <g id="Group_1204910" data-name="Group 1204910" transform="translate(84.787 49.611)">
        <path id="Path_1245703" data-name="Path 1245703" d="M122.539,433.711h-2.812v-7.5a1.874,1.874,0,0,1,1.874-1.874h.937Z" transform="translate(-119.727 -424.339)" fill="#e1a546"/>
        <path id="Path_1245704" data-name="Path 1245704" d="M371.039,433.711h-2.812v-9.372h.937a1.874,1.874,0,0,1,1.874,1.874Z" transform="translate(-339.174 -424.339)" fill="#e1a546"/>
      </g>
      <rect id="Rectangle_411439" data-name="Rectangle 411439" width="26.241" height="7.498" transform="translate(87.598 51.486)" fill="#b4e66e"/>
      <path id="Path_1245705" data-name="Path 1245705" d="M263.007,309.1,256,313l3.372,4.046a1.874,1.874,0,0,0,2.765.125l5.109-5.109-1.831-2.441A1.875,1.875,0,0,0,263.007,309.1Z" transform="translate(-155.282 -272.757)" fill="#fff082"/>
      <path id="Path_1245706" data-name="Path 1245706" d="M160.432,71.629l-.625,3.749h5.428l.383-3.749Z" transform="translate(-70.334 -63.255)" fill="#8c5f50"/>
      <path id="Path_1245707" data-name="Path 1245707" d="M209.3,171.029a.877.877,0,0,0,.877-.877v-.937a.877.877,0,1,0-1.754,0v.937A.877.877,0,0,0,209.3,171.029Z" transform="translate(-113.264 -148.657)"/>
      <path id="Path_1245708" data-name="Path 1245708" d="M289.459,171.029a.877.877,0,0,0,.877-.877v-.937a.877.877,0,1,0-1.754,0v.937A.877.877,0,0,0,289.459,171.029Z" transform="translate(-184.054 -148.657)"/>
      <path id="Path_1245709" data-name="Path 1245709" d="M212.983,217.346a1.811,1.811,0,0,0,.009,1.835,5.563,5.563,0,0,0,9.608,0,1.811,1.811,0,0,0,.009-1.835,1.793,1.793,0,0,0-1.572-.91h-6.483A1.793,1.793,0,0,0,212.983,217.346Zm1.521.873a.049.049,0,0,1,.05-.029h6.483a.049.049,0,0,1,.05.029.07.07,0,0,1,0,.077,3.809,3.809,0,0,1-6.58,0A.07.07,0,0,1,214.5,218.219Z" transform="translate(-117.077 -191.132)"/>
      <path id="Path_1245710" data-name="Path 1245710" d="M169.262,464.936h-.009a.882.882,0,1,0,.009,0Z" transform="translate(-77.905 -410.578)"/>
      <path id="Path_1245711" data-name="Path 1245711" d="M116.833,40l-4.33-1.443-1.666-2.222a2.762,2.762,0,0,0-2.68-1.055V32.652a11.178,11.178,0,0,0,3.6-6.539,2.7,2.7,0,0,0,.774-.053,2.855,2.855,0,0,0,2.183-2.824V21.5a2.745,2.745,0,0,0-.937-2.066V16.749H120.4a.877.877,0,0,0,.356-1.678L112.712,11.5l-2.175-8.7A3.683,3.683,0,0,0,106.959,0H93.729a3.677,3.677,0,0,0-3.638,3.082l-1.405,8.432-8,3.557a.877.877,0,0,0,.356,1.678h6.621v2.68a2.745,2.745,0,0,0-.937,2.066v1.741A2.855,2.855,0,0,0,88.9,26.06a2.7,2.7,0,0,0,.774.053,11.178,11.178,0,0,0,3.6,6.539V35.28a2.762,2.762,0,0,0-2.68,1.055l-1.666,2.222L84.606,40a6.492,6.492,0,0,0-4.445,6.167V58.983a.877.877,0,1,0,1.754,0V46.167a4.74,4.74,0,0,1,3.245-4.5l1.561-.52v17.84a.877.877,0,1,0,1.754,0V52.363H103.53a.877.877,0,1,0,0-1.754H92.224V43.293l1.738,1.738a2.758,2.758,0,0,0,1.946.806l.124,0a2.758,2.758,0,0,0,1.989-.987l1.822-2.186v5.076a.877.877,0,1,0,1.754,0V42.661l1.822,2.186a2.758,2.758,0,0,0,1.989.987l.124,0a2.758,2.758,0,0,0,1.946-.806l1.738-1.738v7.315h-1.935a.877.877,0,1,0,0,1.754h5.684v6.621a.877.877,0,1,0,1.754,0V41.143l1.561.52a4.74,4.74,0,0,1,3.245,4.5V58.983a.877.877,0,1,0,1.754,0V46.167A6.491,6.491,0,0,0,116.833,40Zm-4.807-21.255-.06,0h-1.874a.06.06,0,0,1-.06-.06V16.749h2ZM93.729,1.754h13.23a1.932,1.932,0,0,1,1.877,1.466l1.07,4.278H91.133l.688-4.127A1.929,1.929,0,0,1,93.729,1.754ZM89.659,13h14.809a.877.877,0,1,0,0-1.754H90.508l.333-2h19.5l.5,2h-2.625a.877.877,0,0,0,0,1.754h3.562l4.489,2H85.17Zm-.246,3.749h2v1.935a.06.06,0,0,1-.06.06H89.473l-.06,0v-2Zm1.874,7.558a.877.877,0,1,0-1.754,0v.058a.941.941,0,0,1-.262-.02,1.111,1.111,0,0,1-.8-1.109V21.5a1,1,0,0,1,1-1h1.874a1.816,1.816,0,0,0,1.814-1.814V16.749h15.116v1.935a1.816,1.816,0,0,0,1.814,1.814h1.874a1,1,0,0,1,1,1v1.741a1.111,1.111,0,0,1-.8,1.109.945.945,0,0,1-.262.02v-.058a.877.877,0,1,0-1.754,0,9.432,9.432,0,1,1-18.864,0Zm9.432,11.186a11.118,11.118,0,0,0,5.684-1.555v2.14l-5.684,3.158-5.684-3.158v-2.14A11.118,11.118,0,0,0,100.719,35.493ZM90.47,50.609h-2V40.559l.761-.254L90.47,41.54v9.069h0Zm6.2-6.885a1,1,0,0,1-1.472.067L90.631,39.22,92,37.387a1,1,0,0,1,1.282-.273h0l6.08,3.378Zm9.563.067a1,1,0,0,1-1.472-.067l-2.694-3.233,6.08-3.378h0a1,1,0,0,1,1.282.273l1.374,1.833Zm6.727,6.818h-2V41.54l1.234-1.234.761.254v10.05h0Z"/>
      <path id="Path_1245712" data-name="Path 1245712" d="M329.459,464.936a.877.877,0,0,0,0,1.754h.009a.877.877,0,0,0-.009-1.754Z" transform="translate(-219.377 -410.578)"/>
    </g>
  </g>
</svg>
