<svg xmlns="http://www.w3.org/2000/svg" width="98" height="97.999" viewBox="0 0 98 97.999">
  <g id="Group_1204916" data-name="Group 1204916" transform="translate(-1080.949 -1831.75)">
    <g id="Group_1204527" data-name="Group 1204527" transform="translate(278.168 -706.266)">
      <g id="Group_1204237" data-name="Group 1204237" transform="translate(-1 566)">
        <g id="Group_1204143" data-name="Group 1204143" transform="translate(-67.331 1694.852)">
          <g id="Group_1188789" data-name="Group 1188789" transform="translate(871.113 277.164)">
            <path id="Path_1243039" data-name="Path 1243039" d="M41.05,0h0a41.05,41.05,0,0,1,0,82.1h0a41.05,41.05,0,0,1,0-82.1Z" transform="translate(7.951 7.949)" fill="#ffc94a"/>
            <rect id="Rectangle_400907" data-name="Rectangle 400907" width="88.438" height="88.437" rx="44.218" transform="translate(4.782 4.781)" fill="none"/>
            <g id="Group_1098742" data-name="Group 1098742" transform="translate(0)">
              <g id="Rectangle_400898" data-name="Rectangle 400898" transform="translate(0)" fill="none" stroke="#fff" stroke-width="2" opacity="0.859">
                <rect width="98" height="97.999" rx="48.999" stroke="none"/>
                <rect x="1" y="1" width="96" height="95.999" rx="47.999" fill="none"/>
              </g>
              <g id="Rectangle_400907-2" data-name="Rectangle 400907" transform="translate(0)" fill="none" stroke="#0f1f33" stroke-linecap="round" stroke-width="2">
                <rect width="98" height="97.999" rx="48.999" stroke="none"/>
                <rect x="1" y="1" width="96" height="95.999" rx="47.999" fill="none"/>
              </g>
            </g>
          </g>
        </g>
      </g>
    </g>
    <g id="Layer_15" data-name="Layer 15" transform="translate(1092.975 1783.513)">
      <path id="Path_1245773" data-name="Path 1245773" d="M173.91,208H153.347v5.608a5.6,5.6,0,0,1-2.876,4.9,3.723,3.723,0,0,1-3.666,4.451H144a5.187,5.187,0,0,0,3.547,4.921l6.391,2.13a1.869,1.869,0,0,1,1.278,1.773v6.13h5.608V232.3a1.869,1.869,0,0,1,1.869-1.869h14.955a1.869,1.869,0,0,1,1.869,1.869v5.608h5.608V219.216A11.216,11.216,0,0,0,173.91,208Z" transform="translate(-120.111 -120.111)" fill="#d3d3d3"/>
      <path id="Path_1245774" data-name="Path 1245774" d="M173.91,208H154.281v6.543a5.606,5.606,0,0,1-3.8,5.305,3.732,3.732,0,0,1-3.675,3.107H144a5.187,5.187,0,0,0,3.547,4.921l6.391,2.13a1.869,1.869,0,0,1,1.278,1.773v6.13h5.608V232.3a1.869,1.869,0,0,1,1.869-1.869h14.955a1.869,1.869,0,0,1,1.869,1.869v5.608h5.608V219.216A11.216,11.216,0,0,0,173.91,208Z" transform="translate(-120.111 -120.111)" fill="#e5e5e5"/>
      <path id="Path_1245775" data-name="Path 1245775" d="M221.781,136a1.851,1.851,0,0,1,.259.935v2.8h1.869A3.739,3.739,0,0,0,227.648,136Z" transform="translate(-188.804 -56.523)" fill="#dc8758"/>
      <path id="Path_1245776" data-name="Path 1245776" d="M232,136.935a1.869,1.869,0,0,0,1.869,1.869h.935a1.938,1.938,0,0,0,1.869-2.8H232Z" transform="translate(-197.829 -56.523)" fill="#e39f79"/>
      <path id="Path_1245777" data-name="Path 1245777" d="M135.477,464h-5.608A1.869,1.869,0,0,0,128,465.869h0a1.869,1.869,0,0,0,1.869,1.869h5.608Z" transform="translate(-105.98 -346.201)" fill="#a6642c"/>
      <path id="Path_1245778" data-name="Path 1245778" d="M136.168,464.168a1.863,1.863,0,0,0,1.7,2.636h4.673V464h-5.608A1.857,1.857,0,0,0,136.168,464.168Z" transform="translate(-113.045 -346.201)" fill="#c37731"/>
      <path id="Path_1245779" data-name="Path 1245779" d="M343.477,464h-5.608A1.869,1.869,0,0,0,336,465.869h0a1.869,1.869,0,0,0,1.869,1.869h5.608Z" transform="translate(-289.678 -346.201)" fill="#a6642c"/>
      <rect id="Rectangle_411440" data-name="Rectangle 411440" width="6" height="7" transform="translate(48 110.472)" fill="#d3d3d3"/>
      <path id="Path_1245780" data-name="Path 1245780" d="M439.477,464h-5.608A1.869,1.869,0,0,0,432,465.869h0a1.869,1.869,0,0,0,1.869,1.869h5.608Z" transform="translate(-374.462 -346.201)" fill="#a6642c"/>
      <rect id="Rectangle_411441" data-name="Rectangle 411441" width="8" height="4" rx="2" transform="translate(45 78.472)" fill="#a6642c"/>
      <path id="Path_1245781" data-name="Path 1245781" d="M340.673,128h-3.739a1.5,1.5,0,0,0,.935,2.8h3.739a1.5,1.5,0,0,0-.935-2.8Z" transform="translate(-289.678 -49.457)" fill="#c37731"/>
      <path id="Path_1245782" data-name="Path 1245782" d="M296,208v2.8a1.869,1.869,0,0,0,1.869,1.869h.935a1.869,1.869,0,0,1,1.869,1.869h0a1.869,1.869,0,0,0,1.869,1.869h.935a1.869,1.869,0,0,0,1.869-1.869V208Z" transform="translate(-254.352 -120.111)" fill="#a6642c"/>
      <path id="Path_1245783" data-name="Path 1245783" d="M304,209.869a1.869,1.869,0,0,0,1.869,1.869h.935a1.869,1.869,0,0,1,1.869,1.869,1.869,1.869,0,0,0,1.869,1.869h.935a.728.728,0,0,0,.935-.935V208H304Z" transform="translate(-261.417 -120.111)" fill="#c37731"/>
      <path id="Path_1245784" data-name="Path 1245784" d="M439.477,296H433.4a1.4,1.4,0,0,0-1.4,1.4v.935a1.4,1.4,0,0,0,1.4,1.4h0a1.4,1.4,0,0,1,1.4,1.4v.935a1.4,1.4,0,0,0,1.4,1.4h3.271Z" transform="translate(-374.462 -197.829)" fill="#a6642c"/>
      <path id="Path_1245785" data-name="Path 1245785" d="M440.066,296.066a1.382,1.382,0,0,0-.066.4v.935a1.4,1.4,0,0,0,1.4,1.4,1.4,1.4,0,0,1,1.4,1.4v.935a1.4,1.4,0,0,0,1.4,1.4h2.337V296h-6.075A1.382,1.382,0,0,0,440.066,296.066Z" transform="translate(-381.528 -197.829)" fill="#c37731"/>
      <path id="Path_1245786" data-name="Path 1245786" d="M65.869,128H80.824a1.869,1.869,0,0,1,1.869,1.869v13.085a5.608,5.608,0,0,1-5.608,5.608H69.608A5.608,5.608,0,0,1,64,142.955V129.869A1.869,1.869,0,0,1,65.869,128Z" transform="translate(-49.457 -49.457)" fill="#d3d3d3"/>
      <path id="Path_1245787" data-name="Path 1245787" d="M21.608,136.935a1.851,1.851,0,0,1,.259-.935H16a3.739,3.739,0,0,0,3.739,3.739h1.869Z" transform="translate(-7.065 -56.523)" fill="#dc8758"/>
      <path id="Path_1245788" data-name="Path 1245788" d="M29.672,136.935a1.851,1.851,0,0,1,.259-.935h-4.8a3.73,3.73,0,0,0,3.607,2.8h.935Z" transform="translate(-15.13 -56.523)" fill="#e39f79"/>
      <path id="Path_1245789" data-name="Path 1245789" d="M103.889,142.955V129.869A1.869,1.869,0,0,0,102.02,128H89.869A1.869,1.869,0,0,0,88,129.869v13.085a5.608,5.608,0,0,0,5.608,5.608h4.673A5.608,5.608,0,0,0,103.889,142.955Z" transform="translate(-70.653 -49.457)" fill="#e5e5e5"/>
      <rect id="Rectangle_411442" data-name="Rectangle 411442" width="13" height="7" rx="3.5" transform="translate(17 95.472)" fill="#d77f4a"/>
      <rect id="Rectangle_411443" data-name="Rectangle 411443" width="13" height="7" rx="3.5" transform="translate(17 95.472)" fill="#d77f4a"/>
      <rect id="Rectangle_411444" data-name="Rectangle 411444" width="13" height="7" rx="3.5" transform="translate(17 95.472)" fill="#d77f4a"/>
      <path id="Path_1245790" data-name="Path 1245790" d="M166.9,285.141a4.787,4.787,0,0,0-3.385-1.4h-.708a4.787,4.787,0,0,1-3.385-1.4l-.935-.935A4.787,4.787,0,0,0,155.1,280h-2.512a5.642,5.642,0,0,1-2.12,2.085,3.727,3.727,0,0,1-3.667,4.458H144a5.187,5.187,0,0,0,3.547,4.921l6.391,2.13a1.837,1.837,0,0,1,.675.426H168.3v-5.495a4.786,4.786,0,0,0-1.4-3.385Z" transform="translate(-120.111 -183.698)" fill="#a6642c"/>
      <path id="Path_1245791" data-name="Path 1245791" d="M166.9,285.141a4.787,4.787,0,0,0-3.385-1.4h-.708a4.787,4.787,0,0,1-3.385-1.4l-.935-.935A4.787,4.787,0,0,0,155.1,280h-1.147a5.622,5.622,0,0,1-3.476,3.436,3.732,3.732,0,0,1-3.675,3.107H144a5.187,5.187,0,0,0,3.547,4.921l6.391,2.13a1.837,1.837,0,0,1,.675.426H168.3v-5.495a4.786,4.786,0,0,0-1.4-3.385Z" transform="translate(-120.111 -183.698)" fill="#c37731"/>
      <path id="Path_1245792" data-name="Path 1245792" d="M144,336v14.955h5.608v-9.347l-2.061-.687A5.187,5.187,0,0,1,144,336Z" transform="translate(-120.111 -233.156)" fill="#d3d3d3"/>
      <path id="Path_1245793" data-name="Path 1245793" d="M104.412,272H98.8a3.311,3.311,0,0,0,.935,6.543h5.608a3.311,3.311,0,0,0-.935-6.543Z" transform="translate(-77.719 -176.633)" fill="#e39f79"/>
      <path id="Path_1245794" data-name="Path 1245794" d="M80,85.608V81.869A1.869,1.869,0,0,1,81.869,80h0a1.869,1.869,0,0,1,1.869,1.869v3.739Z" transform="translate(-63.588 -7.065)" fill="#a6642c"/>
      <path id="Path_1245795" data-name="Path 1245795" d="M89.4,80.566a1.865,1.865,0,0,0-1.4,1.8v3.739h2.8V82.369A1.865,1.865,0,0,0,89.4,80.566Z" transform="translate(-70.653 -7.565)" fill="#c37731"/>
      <path id="Path_1245796" data-name="Path 1245796" d="M176,85.608V81.869A1.869,1.869,0,0,1,177.869,80h0a1.869,1.869,0,0,1,1.869,1.869v3.739Z" transform="translate(-148.372 -7.065)" fill="#a6642c"/>
      <path id="Path_1245797" data-name="Path 1245797" d="M185.4,80.566a1.865,1.865,0,0,0-1.4,1.8v3.739h2.8V82.369A1.865,1.865,0,0,0,185.4,80.566Z" transform="translate(-155.437 -7.565)" fill="#c37731"/>
      <path id="Path_1245798" data-name="Path 1245798" d="M344.168,464.168a1.863,1.863,0,0,0,1.7,2.636h4.673V464h-5.608A1.857,1.857,0,0,0,344.168,464.168Z" transform="translate(-296.744 -346.201)" fill="#c37731"/>
      <path id="Path_1245799" data-name="Path 1245799" d="M440.168,464.168a1.863,1.863,0,0,0,1.7,2.636h4.673V464h-5.608A1.857,1.857,0,0,0,440.168,464.168Z" transform="translate(-381.528 -346.201)" fill="#c37731"/>
      <path id="Path_1245800" data-name="Path 1245800" d="M360.935,408h3.739v5.608h-3.739a.935.935,0,0,1-.935-.935v-3.739A.935.935,0,0,1,360.935,408Z" transform="translate(-310.874 -296.744)" fill="#e5e5e5"/>
      <path id="Path_1245801" data-name="Path 1245801" d="M152.935,392.412h3.739v-7.477L152.935,384a.935.935,0,0,0-.935.935v6.543A.935.935,0,0,0,152.935,392.412Z" transform="translate(-127.176 -275.548)" fill="#e5e5e5"/>
      <path id="Path_1245802" data-name="Path 1245802" d="M231.477,464h-5.608A1.869,1.869,0,0,0,224,465.869h0a1.869,1.869,0,0,0,1.869,1.869h5.608Z" transform="translate(-190.764 -346.201)" fill="#a6642c"/>
      <path id="Path_1245803" data-name="Path 1245803" d="M232.168,464.168a1.863,1.863,0,0,0,1.7,2.636h4.673V464h-5.608A1.857,1.857,0,0,0,232.168,464.168Z" transform="translate(-197.829 -346.201)" fill="#c37731"/>
      <path id="Path_1245804" data-name="Path 1245804" d="M113.869,296h-.935a.935.935,0,1,0,0,1.869h.935a.935.935,0,0,0,0-1.869Z" transform="translate(-91.849 -197.829)"/>
      <path id="Path_1245805" data-name="Path 1245805" d="M152.935,297.869h.935a.935.935,0,1,0,0-1.869h-.935a.935.935,0,1,0,0,1.869Z" transform="translate(-127.176 -197.829)"/>
      <path id="Path_1245806" data-name="Path 1245806" d="M105.869,186.8v-1.869a.935.935,0,1,0-1.869,0V186.8a.935.935,0,1,0,1.869,0Z" transform="translate(-84.784 -98.915)"/>
      <path id="Path_1245807" data-name="Path 1245807" d="M169.869,186.8v-1.869a.935.935,0,1,0-1.869,0V186.8a.935.935,0,1,0,1.869,0Z" transform="translate(-141.306 -98.915)"/>
      <path id="Path_1245808" data-name="Path 1245808" d="M62.218,90.364a5.6,5.6,0,0,0-1.876-10.887H53.627A2.8,2.8,0,0,0,51,77.608H47.256a2.8,2.8,0,1,0,0,5.608H51a2.8,2.8,0,0,0,2.632-1.869h6.715a3.739,3.739,0,1,1,0,7.477c-.026,0-.047.013-.073.015a12.064,12.064,0,0,0-6.47-1.884H34.171v-2.8h.935a4.679,4.679,0,0,0,4.673-4.673.935.935,0,0,0-.935-.935h-5.4a2.8,2.8,0,0,0-1.14-.762V74.8a2.8,2.8,0,1,0-5.608,0v2.8H21.085V74.8a2.8,2.8,0,1,0-5.608,0V77.78a2.8,2.8,0,0,0-1.14.762h-5.4A.935.935,0,0,0,8,79.477a4.679,4.679,0,0,0,4.673,4.673h.935V86.02a.935.935,0,0,0,1.869,0V80.412a.936.936,0,0,1,.935-.935H31.367a.936.936,0,0,1,.935.935V93.5a4.677,4.677,0,0,1-1.5,3.423,4.659,4.659,0,0,0-4.106-2.489H21.085a4.659,4.659,0,0,0-4.106,2.489,4.675,4.675,0,0,1-1.5-3.423V89.759a.935.935,0,1,0-1.869,0V93.5a6.546,6.546,0,0,0,2.828,5.372c0,.08-.023.155-.023.236a4.679,4.679,0,0,0,4.673,4.673h1.869v7.477a.935.935,0,0,0,1.869,0v-4.019a6.1,6.1,0,0,0,2.317,1.414l1.422.474v7.739H24.824V115a.935.935,0,1,0-1.869,0v2.042a2.8,2.8,0,0,0,.935,5.436H29.5a.935.935,0,0,0,.935-.935V109.749l3.1,1.033a.935.935,0,0,1,.639.887v5.368a2.8,2.8,0,0,0,.935,5.436h5.608a.935.935,0,0,0,.935-.935v-9.347a.936.936,0,0,1,.935-.935h4.673v5.78a2.8,2.8,0,0,0,.935,5.436H53.8a.935.935,0,0,0,.935-.935V111.256h2.8a.936.936,0,0,1,.935.935v4.846a2.8,2.8,0,0,0,.935,5.436h5.608a.935.935,0,0,0,.935-.935V115a.935.935,0,1,0-1.869,0v1.869H60.342v-4.673a2.807,2.807,0,0,0-2.8-2.8H48.191v-4.56a5.722,5.722,0,0,0-5.721-5.721h-.709a3.882,3.882,0,0,1-2.724-1.128l-.935-.935a5.685,5.685,0,0,0-4.045-1.676h-.169a6.508,6.508,0,0,0,.282-1.869V88.824h6.543v1.869a2.807,2.807,0,0,0,2.8,2.8h.935a.936.936,0,0,1,.935.935,2.807,2.807,0,0,0,2.8,2.8h.935a2.807,2.807,0,0,0,2.8-2.8V88.824H53.8a10.292,10.292,0,0,1,10.1,8.412H58.94A2.339,2.339,0,0,0,56.6,99.573v.935a2.339,2.339,0,0,0,2.337,2.337.468.468,0,0,1,.467.467v.935a2.339,2.339,0,0,0,2.337,2.337h2.337v4.673a.935.935,0,0,0,1.869,0V99.106a12.107,12.107,0,0,0-3.731-8.741ZM51,81.347H47.256a.935.935,0,1,1,0-1.869H51a.935.935,0,0,1,0,1.869ZM28.563,120.6H23.889a.935.935,0,1,1,0-1.869h4.673Zm35.518,0H59.407a.935.935,0,1,1,0-1.869h4.673ZM37.749,80.412a2.809,2.809,0,0,1-2.644,1.869h-.935V80.412ZM28.563,74.8a.935.935,0,0,1,1.869,0v2.8H28.563Zm-10.281-.935a.936.936,0,0,1,.935.935v2.8H17.347V74.8A.936.936,0,0,1,18.281,73.869Zm-5.608,8.412a2.809,2.809,0,0,1-2.644-1.869h3.579v1.869Zm5.608,16.824a2.807,2.807,0,0,1,2.8-2.8h5.608a2.8,2.8,0,0,1,0,5.608H21.085A2.807,2.807,0,0,1,18.281,99.106Zm21.5,21.5H35.106a.935.935,0,1,1,0-1.869h4.673Zm13.085,0H48.191a.935.935,0,1,1,0-1.869h4.673Zm0-3.739H49.126v-5.608h3.739ZM34.058,97.236a3.882,3.882,0,0,1,2.724,1.128l.935.935a5.685,5.685,0,0,0,4.045,1.676h.708a3.882,3.882,0,0,1,2.724,1.128,3.826,3.826,0,0,1,1.128,2.724v4.56H42.583a2.807,2.807,0,0,0-2.8,2.8v4.673H36.04v-5.2a2.8,2.8,0,0,0-1.917-2.66l-6.391-2.131a4.233,4.233,0,0,1-2.792-3.1h1.753a4.679,4.679,0,0,0,4.673-4.673c0-.081-.02-.156-.024-.236a6.53,6.53,0,0,0,1.637-1.633Zm16-2.8a.936.936,0,0,1-.935.935h-.935a.936.936,0,0,1-.935-.935,2.807,2.807,0,0,0-2.8-2.8h-.935a.936.936,0,0,1-.935-.935V88.824H50.06Zm11.683,10.281a.468.468,0,0,1-.467-.467v-.935a2.339,2.339,0,0,0-2.337-2.337.468.468,0,0,1-.467-.467v-.935a.468.468,0,0,1,.467-.467h5.141v5.608Z" transform="translate(0)"/>
      <path id="Path_1245809" data-name="Path 1245809" d="M18.942,405.884a.935.935,0,0,0-1.322,0,7.255,7.255,0,0,0-2.1,4.4h-.977v-.32a11.754,11.754,0,0,1,3.465-8.365.935.935,0,1,0-1.322-1.322,13.61,13.61,0,0,0-4.012,9.687v.32H11.7a7.255,7.255,0,0,0-2.1-4.4.935.935,0,1,0-1.322,1.322,5.4,5.4,0,0,1,1.535,3.078H8.935a.935.935,0,0,0,0,1.869h9.347a.935.935,0,0,0,0-1.869h-.874a5.4,5.4,0,0,1,1.535-3.078.935.935,0,0,0,0-1.322Z" transform="translate(0 -289.68)"/>
    </g>
  </g>
</svg>
