<svg xmlns="http://www.w3.org/2000/svg" width="98" height="97.999" viewBox="0 0 98 97.999">
  <g id="Group_1204750" data-name="Group 1204750" transform="translate(4418.07 8032.984)">
    <g id="Group_1204533" data-name="Group 1204533" transform="translate(-5220.852 -10571)">
      <g id="Group_1204237" data-name="Group 1204237" transform="translate(-1 566)">
        <g id="Group_1204143" data-name="Group 1204143" transform="translate(-67.331 1694.852)">
          <g id="Group_1188789" data-name="Group 1188789" transform="translate(871.113 277.164)">
            <path id="Path_1243039" data-name="Path 1243039" d="M41.05,0h0a41.05,41.05,0,0,1,0,82.1h0a41.05,41.05,0,0,1,0-82.1Z" transform="translate(7.951 7.949)" fill="#ffc94a"/>
            <rect id="Rectangle_400907" data-name="Rectangle 400907" width="88.438" height="88.437" rx="44.218" transform="translate(4.782 4.781)" fill="none"/>
            <g id="Group_1098742" data-name="Group 1098742" transform="translate(0)">
              <g id="Rectangle_400898" data-name="Rectangle 400898" transform="translate(0)" fill="none" stroke="#fff" stroke-width="2" opacity="0.859">
                <rect width="98" height="97.999" rx="48.999" stroke="none"/>
                <rect x="1" y="1" width="96" height="95.999" rx="47.999" fill="none"/>
              </g>
              <g id="Rectangle_400907-2" data-name="Rectangle 400907" transform="translate(0)" fill="none" stroke="#0f1f33" stroke-linecap="round" stroke-width="2">
                <rect width="98" height="97.999" rx="48.999" stroke="none"/>
                <rect x="1" y="1" width="96" height="95.999" rx="47.999" fill="none"/>
              </g>
            </g>
          </g>
        </g>
      </g>
    </g>
    <g id="recycle-bottle-trash-bin-garbage" transform="translate(-4397.957 -8016.028)">
      <path id="Path_1245165" data-name="Path 1245165" d="M22,24.19V28l-3,4-3-4V24.19a5.961,5.961,0,0,0,6,0Z" fill="#ffbcab"/>
      <path id="Path_1245166" data-name="Path 1245166" d="M24,28v5l-5-1-5,1V28H11a8,8,0,0,0-8,8v5h7V51H28V36h5V28Z" fill="#ffcd00"/>
      <path id="Path_1245167" data-name="Path 1245167" d="M10,51V41H4V51a6,6,0,0,0,6,6V54h1V51Z" fill="#ffbcab"/>
      <path id="Path_1245168" data-name="Path 1245168" d="M43,38h8V26l-2-2V20H45v4l-2,2Z" fill="#bddbff"/>
      <path id="Path_1245169" data-name="Path 1245169" d="M49,24V20H47v4l2,2V38h2V26Z" fill="#9bc9ff"/>
      <path id="Path_1245170" data-name="Path 1245170" d="M13,14V13a2,2,0,0,1,2-2h8a2,2,0,0,1,2,2v1h2a1.987,1.987,0,0,1,1,.277V9a6,6,0,0,0-6-6H21a4,4,0,0,0-4,4,2,2,0,0,0-2-2H14a4,4,0,0,0-4,4v5.277A1.987,1.987,0,0,1,11,14Z" fill="#58595b"/>
      <path id="Path_1245171" data-name="Path 1245171" d="M23,11H15a2,2,0,0,0-2,2v6a6,6,0,0,0,12,0V13A2,2,0,0,0,23,11Z" fill="#ffbcab"/>
      <path id="Path_1245172" data-name="Path 1245172" d="M19,32l-3-4H14v5Z" fill="#ed1c24"/>
      <path id="Path_1245173" data-name="Path 1245173" d="M24,28H22l-3,4,5,1Z" fill="#ed1c24"/>
      <path id="Path_1245174" data-name="Path 1245174" d="M28,14.277A1.987,1.987,0,0,0,27,14H25v4h2a1.994,1.994,0,0,0,1-3.723Z" fill="#ff9478"/>
      <path id="Path_1245175" data-name="Path 1245175" d="M10,14.277A1.994,1.994,0,0,0,11,18h2V14H11a1.987,1.987,0,0,0-1,.277Z" fill="#ff9478"/>
      <path id="Path_1245176" data-name="Path 1245176" d="M33,29H43v6H33Z" fill="#ffbcab"/>
      <path id="Path_1245177" data-name="Path 1245177" d="M47,32a3,3,0,0,0,3,3h1a1,1,0,0,0,1-1V30a1,1,0,0,0-1-1H50a3,3,0,0,0-3,3Z" fill="#ffbcab"/>
      <path id="Path_1245178" data-name="Path 1245178" d="M33,46H61V42H33Z" fill="#cca400"/>
      <path id="Path_1245179" data-name="Path 1245179" d="M11,51H27v3H11Z" fill="#414042"/>
      <path id="Path_1245180" data-name="Path 1245180" d="M57,62H37L35,46H59Z" fill="#ffcd00"/>
      <path id="Path_1245181" data-name="Path 1245181" d="M58.75,48,59,46H35l.25,2Z" fill="#ebbf00"/>
      <path id="Path_1245182" data-name="Path 1245182" d="M10,54H28v8H10Z" fill="#58595b"/>
      <g id="Group_1204749" data-name="Group 1204749">
        <path id="Path_1245183" data-name="Path 1245183" d="M17,17a1,1,0,0,0,1-1V15a1,1,0,0,0-2,0v1A1,1,0,0,0,17,17Z" fill="#231f20"/>
        <path id="Path_1245184" data-name="Path 1245184" d="M21,17a1,1,0,0,0,1-1V15a1,1,0,0,0-2,0v1A1,1,0,0,0,21,17Z" fill="#231f20"/>
        <path id="Path_1245185" data-name="Path 1245185" d="M52,28.28V26a1.033,1.033,0,0,0-.29-.71L50,23.59V20a1,1,0,0,0-1-1H45a1,1,0,0,0-1,1v3.59l-1.71,1.7A1.033,1.033,0,0,0,42,26v2H34a1,1,0,0,0-1-1H23V24.74A7.01,7.01,0,0,0,26,19h1a2.989,2.989,0,0,0,2-5.22V9a7.008,7.008,0,0,0-7-7H21a4.989,4.989,0,0,0-4.33,2.51A2.994,2.994,0,0,0,15,4H14A5,5,0,0,0,9,9v4.78A2.989,2.989,0,0,0,11,19h1a7.01,7.01,0,0,0,3,5.74V27H11a9.014,9.014,0,0,0-9,9v5a1,1,0,0,0,1,1v9a7,7,0,0,0,6,6.92V61a1,1,0,0,0,2,0V55H27v6a1,1,0,0,0,2,0V54a1,1,0,0,0-1-1V52a1,1,0,0,0,1-1V37h4a1,1,0,0,0,1-1h8v2a1,1,0,0,0,1,1h8a1,1,0,0,0,1-1V35.72A1.988,1.988,0,0,0,53,34V30a1.988,1.988,0,0,0-1-1.72ZM28,16a1,1,0,0,1-1,1H26V15h1A1,1,0,0,1,28,16ZM12,17H11a1,1,0,0,1,0-2h1Zm0-4H11V9a3.009,3.009,0,0,1,3-3h1a1,1,0,0,1,1,1,1,1,0,0,0,2,0,3.009,3.009,0,0,1,3-3h1a5,5,0,0,1,5,5v4H26a3.009,3.009,0,0,0-3-3H15a3.009,3.009,0,0,0-3,3Zm2,6V13a1,1,0,0,1,1-1h8a1,1,0,0,1,1,1v6a5,5,0,0,1-10,0Zm8.5,10H23v2.78l-2.25-.45ZM19,30.33l-2-2.66V25.71a7.042,7.042,0,0,0,4,0v1.96ZM15,29h.5l1.75,2.33L15,31.78ZM10,53a1,1,0,0,0-1,1v1.9A5.017,5.017,0,0,1,5,51V42H9v9a1,1,0,0,0,1,1Zm16,0H12V52H26Zm6-18H25a1,1,0,0,0,0,2h2V50H11V37a1,1,0,0,0-2,0v3H4V36a7.008,7.008,0,0,1,7-7h2v4a1.013,1.013,0,0,0,1,1,1.355,1.355,0,0,0,.2-.02l4.8-.96,4.8.96A1.356,1.356,0,0,0,24,34a1.013,1.013,0,0,0,1-1V29h7Zm10-1H34V30h8Zm8,3H44V26.41l1.71-1.7A1.033,1.033,0,0,0,46,24V21h2v3a1.033,1.033,0,0,0,.29.71L50,26.41V28a4,4,0,0,0,0,8Zm1-3H50a2,2,0,0,1,0-4h1Z" fill="#231f20"/>
        <path id="Path_1245186" data-name="Path 1245186" d="M19,35a1,1,0,0,0-1,1v1a1,1,0,0,0,2,0V36A1,1,0,0,0,19,35Z" fill="#231f20"/>
        <path id="Path_1245187" data-name="Path 1245187" d="M19,40a1,1,0,0,0-1,1v1a1,1,0,0,0,2,0V41A1,1,0,0,0,19,40Z" fill="#231f20"/>
        <path id="Path_1245188" data-name="Path 1245188" d="M19,45a1,1,0,0,0-1,1v1a1,1,0,0,0,2,0V46A1,1,0,0,0,19,45Z" fill="#231f20"/>
        <path id="Path_1245189" data-name="Path 1245189" d="M19,21.827a3.814,3.814,0,0,0,2.707-1.12,1,1,0,1,0-1.414-1.414,1.831,1.831,0,0,1-2.586,0,1,1,0,1,0-1.414,1.414A3.814,3.814,0,0,0,19,21.827Z" fill="#231f20"/>
        <path id="Path_1245190" data-name="Path 1245190" d="M61,41H33a1,1,0,0,0-1,1v4a1,1,0,0,0,1,1h1.12l1.89,14.13a1,1,0,1,0,1.98-.26L36.14,47H57.86L56.01,60.87a1,1,0,0,0,.86,1.12A.57.57,0,0,0,57,62a1.009,1.009,0,0,0,.99-.87L59.88,47H61a1,1,0,0,0,1-1V42a1,1,0,0,0-1-1Zm-1,4H34V43H60Z" fill="#231f20"/>
        <path id="Path_1245191" data-name="Path 1245191" d="M19,57a1,1,0,0,0-1,1v3a1,1,0,0,0,2,0V58A1,1,0,0,0,19,57Z" fill="#231f20"/>
        <path id="Path_1245192" data-name="Path 1245192" d="M51.832,55.445a1,1,0,0,0-1.664,1.11L51.131,58H50a1,1,0,0,0-1.707-.707l-1,1a1,1,0,0,0,0,1.414l1,1A1,1,0,0,0,50,60h1.131A2,2,0,0,0,52.8,56.891Z" fill="#231f20"/>
        <path id="Path_1245193" data-name="Path 1245193" d="M45,58H42.732l.64-1.108a.991.991,0,0,0,1.46-1.115l-.366-1.366a1,1,0,0,0-1.225-.707l-1.366.366a1,1,0,0,0-.241,1.832L41,57a2,2,0,0,0,1.732,3H45a1,1,0,1,0,0-2Z" fill="#231f20"/>
        <path id="Path_1245194" data-name="Path 1245194" d="M47.168,52.705a1,1,0,0,0,.707,1.225l1.366.366a1.015,1.015,0,0,0,.259.035,1,1,0,0,0,.966-.742l.366-1.366A1,1,0,0,0,49.366,51.1L48.732,50a2,2,0,0,0-3.464,0l-1.134,1.964a1,1,0,1,0,1.732,1L47,51l.634,1.1a1,1,0,0,0-.466.6Z" fill="#231f20"/>
      </g>
    </g>
  </g>
</svg>
