<svg xmlns="http://www.w3.org/2000/svg" width="98" height="97.999" viewBox="0 0 98 97.999">
  <g id="Group_1204809" data-name="Group 1204809" transform="translate(-426.051 -4498)">
    <g id="Group_1204525" data-name="Group 1204525" transform="translate(-376.73 1959.984)">
      <g id="Group_1204237" data-name="Group 1204237" transform="translate(-1 566)">
        <g id="Group_1204143" data-name="Group 1204143" transform="translate(-67.331 1694.852)">
          <g id="Group_1188789" data-name="Group 1188789" transform="translate(871.113 277.164)">
            <path id="Path_1243039" data-name="Path 1243039" d="M41.05,0h0a41.05,41.05,0,0,1,0,82.1h0a41.05,41.05,0,0,1,0-82.1Z" transform="translate(7.951 7.949)" fill="#ffc94a"/>
            <rect id="Rectangle_400907" data-name="Rectangle 400907" width="88.438" height="88.437" rx="44.218" transform="translate(4.782 4.781)" fill="none"/>
            <g id="Group_1098742" data-name="Group 1098742" transform="translate(0)">
              <g id="Rectangle_400898" data-name="Rectangle 400898" transform="translate(0)" fill="none" stroke="#fff" stroke-width="2" opacity="0.859">
                <rect width="98" height="97.999" rx="48.999" stroke="none"/>
                <rect x="1" y="1" width="96" height="95.999" rx="47.999" fill="none"/>
              </g>
              <g id="Rectangle_400907-2" data-name="Rectangle 400907" transform="translate(0)" fill="none" stroke="#0f1f33" stroke-linecap="round" stroke-width="2">
                <rect width="98" height="97.999" rx="48.999" stroke="none"/>
                <rect x="1" y="1" width="96" height="95.999" rx="47.999" fill="none"/>
              </g>
            </g>
          </g>
        </g>
      </g>
    </g>
    <g id="estiercol" transform="translate(446.051 4518)">
      <path id="Path_1245379" data-name="Path 1245379" d="M30.5,1h2.737V33.846H30.5Z" transform="translate(-2.672 -0.088)" fill="#965353"/>
      <path id="Path_1245380" data-name="Path 1245380" d="M49.32,61.423H11l6.387-5.474,7.3-6.259,3.65-3.13L30.16,45l1.825,1.56,3.65,3.13,9.124,7.819Z" transform="translate(-0.964 -3.942)" fill="#ffd2a6"/>
      <path id="Path_1245381" data-name="Path 1245381" d="M57.481,63.825H.912A.912.912,0,0,1,.912,62H57.481a.912.912,0,0,1,0,1.825Z" transform="translate(0 -5.432)"/>
      <path id="Path_1245382" data-name="Path 1245382" d="M10.912,62.248a.912.912,0,0,1-.593-1.6L29.479,44.22A.912.912,0,1,1,30.666,45.6L11.506,62.028a.907.907,0,0,1-.593.22Z" transform="translate(-0.876 -3.855)"/>
      <path id="Path_1245383" data-name="Path 1245383" d="M51.073,62.248a.907.907,0,0,1-.593-.22L31.319,45.6a.912.912,0,0,1,1.187-1.385l19.16,16.423a.912.912,0,0,1-.593,1.6Z" transform="translate(-2.716 -3.855)"/>
      <path id="Path_1245384" data-name="Path 1245384" d="M25.912,39.65A.912.912,0,0,1,25,38.737,2.74,2.74,0,0,1,27.737,36a.912.912,0,0,1,0,1.825.913.913,0,0,0-.912.912.912.912,0,0,1-.912.912Z" transform="translate(-2.19 -3.154)"/>
      <path id="Path_1245385" data-name="Path 1245385" d="M25.912,49.99A.912.912,0,0,1,25,49.078V38.912a.912.912,0,1,1,1.825,0V49.078a.912.912,0,0,1-.912.912Z" transform="translate(-2.19 -3.329)"/>
      <path id="Path_1245386" data-name="Path 1245386" d="M29.912,46.687A.912.912,0,0,1,29,45.774V36.912a.912.912,0,1,1,1.825,0v8.862a.912.912,0,0,1-.912.912Z" transform="translate(-2.541 -3.154)"/>
      <path id="Path_1245387" data-name="Path 1245387" d="M33.912,46.687A.912.912,0,0,1,33,45.774V36.912a.912.912,0,1,1,1.825,0v8.862a.912.912,0,0,1-.912.912Z" transform="translate(-2.891 -3.154)"/>
      <path id="Path_1245388" data-name="Path 1245388" d="M37.912,49.99A.912.912,0,0,1,37,49.078V38.912a.912.912,0,1,1,1.825,0V49.078a.912.912,0,0,1-.912.912Z" transform="translate(-3.242 -3.329)"/>
      <path id="Path_1245389" data-name="Path 1245389" d="M35.212,37.825h-7.3a.912.912,0,1,1,0-1.825h7.3a.912.912,0,0,1,0,1.825Z" transform="translate(-2.365 -3.154)"/>
      <path id="Path_1245390" data-name="Path 1245390" d="M37.737,39.65a.912.912,0,0,1-.912-.912.913.913,0,0,0-.912-.912.912.912,0,0,1,0-1.825,2.74,2.74,0,0,1,2.737,2.737.912.912,0,0,1-.912.912Z" transform="translate(-3.066 -3.154)"/>
      <path id="Path_1245391" data-name="Path 1245391" d="M33.15,34.671H30.412a.912.912,0,0,1-.912-.912V.912A.912.912,0,0,1,30.412,0H33.15a.912.912,0,0,1,.912.912V33.758a.912.912,0,0,1-.912.912Zm-1.825-1.825h.912V1.825h-.912Z" transform="translate(-2.584 0)"/>
      <path id="Path_1245392" data-name="Path 1245392" d="M47.912,59.126a.912.912,0,0,1-.84-1.269l1.825-4.3a.913.913,0,1,1,1.68.713l-1.825,4.3a.913.913,0,0,1-.84.556Z" transform="translate(-4.118 -4.643)"/>
      <path id="Path_1245393" data-name="Path 1245393" d="M17.474,57.65a.9.9,0,0,1-.339-.065L12.574,55.76a.912.912,0,1,1,.677-1.695l4.562,1.825a.912.912,0,0,1-.339,1.76Z" transform="translate(-1.051 -4.731)"/>
      <path id="Path_1245394" data-name="Path 1245394" d="M23.931,59.825A.912.912,0,1,1,23.923,58h.009a.912.912,0,0,1,0,1.825Z" transform="translate(-2.016 -5.081)"/>
      <path id="Path_1245395" data-name="Path 1245395" d="M31.931,54.825A.912.912,0,1,1,31.923,53h.009a.912.912,0,1,1,0,1.825Z" transform="translate(-2.717 -4.643)"/>
      <path id="Path_1245396" data-name="Path 1245396" d="M37.931,59.825A.912.912,0,1,1,37.923,58h.009a.912.912,0,1,1,0,1.825Z" transform="translate(-3.243 -5.081)"/>
      <path id="Path_1245397" data-name="Path 1245397" d="M45.834,45.248a.924.924,0,0,1-.338-.065A.913.913,0,0,1,44.987,44c.016-.042,1.646-4.237.031-7.466-1.985-3.97-.111-8.757-.031-8.958a.912.912,0,1,1,1.695.676c-.016.042-1.646,4.237-.031,7.466,1.985,3.97.111,8.757.031,8.958a.912.912,0,0,1-.847.574Z" transform="translate(-3.864 -2.365)"/>
      <path id="Path_1245398" data-name="Path 1245398" d="M50.834,45.248a.924.924,0,0,1-.338-.065A.913.913,0,0,1,49.987,44c.016-.042,1.646-4.237.031-7.466-1.985-3.97-.111-8.757-.031-8.958a.912.912,0,1,1,1.695.676c-.016.042-1.646,4.237-.031,7.466,1.985,3.97.111,8.757.031,8.958a.912.912,0,0,1-.847.574Z" transform="translate(-4.302 -2.365)"/>
      <path id="Path_1245399" data-name="Path 1245399" d="M55.833,45.248a.924.924,0,0,1-.338-.065A.913.913,0,0,1,54.986,44c.016-.042,1.646-4.237.031-7.466-1.985-3.97-.111-8.757-.031-8.958a.912.912,0,1,1,1.695.676c-.016.042-1.646,4.237-.031,7.466,1.985,3.97.111,8.757.031,8.958a.912.912,0,0,1-.847.574Z" transform="translate(-4.74 -2.365)"/>
      <path id="Path_1245400" data-name="Path 1245400" d="M7.834,45.248a.924.924,0,0,1-.338-.065A.913.913,0,0,1,6.987,44c.016-.042,1.646-4.237.031-7.466-1.985-3.97-.111-8.757-.031-8.958a.912.912,0,1,1,1.695.676c-.016.042-1.646,4.237-.031,7.466,1.985,3.97.111,8.757.031,8.958a.912.912,0,0,1-.847.574Z" transform="translate(-0.535 -2.365)"/>
      <path id="Path_1245401" data-name="Path 1245401" d="M12.834,45.248a.924.924,0,0,1-.338-.065A.913.913,0,0,1,11.987,44c.016-.042,1.646-4.237.031-7.466-1.985-3.97-.111-8.757-.031-8.958a.912.912,0,1,1,1.695.676c-.016.042-1.646,4.237-.031,7.466,1.985,3.97.111,8.757.031,8.958a.912.912,0,0,1-.847.574Z" transform="translate(-0.973 -2.365)"/>
      <path id="Path_1245402" data-name="Path 1245402" d="M17.833,45.248a.924.924,0,0,1-.338-.065A.913.913,0,0,1,16.986,44c.016-.042,1.646-4.237.031-7.466-1.985-3.97-.111-8.757-.031-8.958a.912.912,0,1,1,1.695.676c-.016.042-1.646,4.237-.031,7.466,1.985,3.97.111,8.757.031,8.958a.912.912,0,0,1-.847.574Z" transform="translate(-1.411 -2.365)"/>
    </g>
  </g>
</svg>
