<svg xmlns="http://www.w3.org/2000/svg" width="98" height="97.999" viewBox="0 0 98 97.999">
  <g id="Group_1204891" data-name="Group 1204891" transform="translate(-909 -4951)">
    <g id="Group_1204627" data-name="Group 1204627" transform="translate(106.219 2412.984)">
      <g id="Group_1204237" data-name="Group 1204237" transform="translate(-1 566)">
        <g id="Group_1204143" data-name="Group 1204143" transform="translate(-67.331 1694.852)">
          <g id="Group_1188789" data-name="Group 1188789" transform="translate(871.113 277.164)">
            <path id="Path_1243039" data-name="Path 1243039" d="M41.05,0h0a41.05,41.05,0,0,1,0,82.1h0a41.05,41.05,0,0,1,0-82.1Z" transform="translate(7.951 7.949)" fill="#ffc94a"/>
            <rect id="Rectangle_400907" data-name="Rectangle 400907" width="88.438" height="88.437" rx="44.218" transform="translate(4.782 4.781)" fill="none"/>
            <g id="Group_1098742" data-name="Group 1098742" transform="translate(0)">
              <g id="Rectangle_400898" data-name="Rectangle 400898" transform="translate(0)" fill="none" stroke="#fff" stroke-width="2" opacity="0.859">
                <rect width="98" height="97.999" rx="48.999" stroke="none"/>
                <rect x="1" y="1" width="96" height="95.999" rx="47.999" fill="none"/>
              </g>
              <g id="Rectangle_400907-2" data-name="Rectangle 400907" transform="translate(0)" fill="none" stroke="#0f1f33" stroke-linecap="round" stroke-width="2">
                <rect width="98" height="97.999" rx="48.999" stroke="none"/>
                <rect x="1" y="1" width="96" height="95.999" rx="47.999" fill="none"/>
              </g>
            </g>
          </g>
        </g>
      </g>
    </g>
    <g id="reparar" transform="translate(891.318 4972)">
      <path id="Path_1245664" data-name="Path 1245664" d="M310.871,15.575a8.653,8.653,0,0,0-5.136-7.905v6.692a1.344,1.344,0,0,1-1.344,1.344h-4.346a1.344,1.344,0,0,1-1.344-1.344V7.67a8.652,8.652,0,0,0-.072,15.778l-1.183,26.486a4.777,4.777,0,0,0,4.773,4.991h0A4.777,4.777,0,0,0,306.99,49.9L305.63,23.528A8.655,8.655,0,0,0,310.871,15.575Z" transform="translate(-223.031 -6.818)" fill="#53515e"/>
      <g id="Group_1204890" data-name="Group 1204890" transform="translate(70.535 0.852)">
        <path id="Path_1245665" data-name="Path 1245665" d="M405.031,14.464a1.344,1.344,0,0,0,1.344-1.344V10.167a8.687,8.687,0,0,0-3.233-2.5v6.692c0,.034,0,.067-.005.1Z" transform="translate(-390.972 -7.671)" fill="#474756"/>
        <path id="Path_1245666" data-name="Path 1245666" d="M300.677,48.691l1.183-26.486A8.648,8.648,0,0,1,298.7,8.924V7.671a8.652,8.652,0,0,0-.072,15.778l-1.183,26.486a4.777,4.777,0,0,0,4.773,4.991h0a4.755,4.755,0,0,0,3.214-1.244A4.777,4.777,0,0,1,300.677,48.691Z" transform="translate(-293.564 -7.671)" fill="#474756"/>
      </g>
      <path id="Path_1245667" data-name="Path 1245667" d="M189.405,205.309l1.115,1.075a8.548,8.548,0,0,0,5.932,2.394h20.321a2.856,2.856,0,0,0,0-5.712h0a2.856,2.856,0,0,0,2.856-2.856V200.1a2.856,2.856,0,0,0-2.856-2.856h0a2.856,2.856,0,0,0,2.856-2.856v-.019a2.856,2.856,0,0,0-2.856-2.856h0a2.856,2.856,0,0,0,2.856-2.856v-.092a2.856,2.856,0,0,0-2.856-2.856H205.3c0-3.352.241-5.563.3-8.687.013-.761,0-1.551,0-2.531a2.619,2.619,0,0,0-2.617-2.62h0a2.484,2.484,0,0,0-2.539,2.492,1.558,1.558,0,0,1-.081.47,31.426,31.426,0,0,1-3.8,7.306,18.423,18.423,0,0,1-3.548,3.622,21.786,21.786,0,0,1-3.6,2.378h0v17.173Z" transform="translate(-130.434 -152.788)" fill="#ffe1b3"/>
      <path id="Path_1245668" data-name="Path 1245668" d="M218.737,438.394a2.846,2.846,0,0,1-1.961.781H196.454a8.547,8.547,0,0,1-5.932-2.394l-1.115-1.075v4.15l1.115,1.075a8.548,8.548,0,0,0,5.932,2.394h20.321a2.855,2.855,0,0,0,1.961-4.931Z" transform="translate(-130.436 -387.335)" fill="#f0c891"/>
      <path id="Path_1245669" data-name="Path 1245669" d="M64.157,319.584H50.351V296.512H64.157a1.632,1.632,0,0,1,1.632,1.632v19.808A1.632,1.632,0,0,1,64.157,319.584Z" transform="translate(-6.818 -263.594)" fill="#00aaf0"/>
      <path id="Path_1245670" data-name="Path 1245670" d="M64.157,445.322H50.351v5.1H64.157a1.632,1.632,0,0,0,1.632-1.632v-5.1A1.632,1.632,0,0,1,64.157,445.322Z" transform="translate(-6.818 -394.432)" fill="#0398e2"/>
      <circle id="Ellipse_12484" data-name="Ellipse 12484" cx="1.192" cy="1.192" r="1.192" transform="translate(51.991 36.969)" fill="#6f4bef"/>
      <path id="Path_1245671" data-name="Path 1245671" d="M90.047,35.867v-.092a3.712,3.712,0,0,0-3.707-3.707H75.76l.688-15.4a.851.851,0,0,0-.5-.813,7.8,7.8,0,0,1-1.133-13.56V7.544a2.2,2.2,0,0,0,2.2,2.2H81.36a2.2,2.2,0,0,0,2.2-2.2V2.295a7.8,7.8,0,0,1-1.293,13.633.852.852,0,0,0-.514.826l.6,11.618a.851.851,0,1,0,1.7-.088l-.569-11.045A9.5,9.5,0,0,0,83.051.074a.851.851,0,0,0-1.2.778V7.544a.493.493,0,0,1-.493.493H77.014a.493.493,0,0,1-.493-.493V.852a.851.851,0,0,0-1.2-.778,9.5,9.5,0,0,0-.6,17.072l-.029,1.833a3.462,3.462,0,0,0-4.615.28,3.39,3.39,0,0,0-.925,2.3.708.708,0,0,1-.038.214,24.529,24.529,0,0,1-2.227,4.9.851.851,0,0,0,1.461.874,26.239,26.239,0,0,0,2.383-5.235,2.408,2.408,0,0,0,.124-.727,1.632,1.632,0,0,1,1.65-1.652h.038A1.769,1.769,0,0,1,74.31,21.7c0,.38,0,.731.005,1.063,0,.534.008,1,0,1.453-.024,1.352-.084,2.555-.142,3.719-.076,1.512-.154,3.076-.154,4.983a.851.851,0,0,0,.851.851H86.339a2.007,2.007,0,0,1,2,2v.092a2.007,2.007,0,0,1-2,2H83.867a.851.851,0,1,0,0,1.7h2.472a2.007,2.007,0,0,1,2,2V41.6a2.007,2.007,0,0,1-2,2H83.867a.851.851,0,1,0,0,1.7h2.472a2.007,2.007,0,0,1,2,2v.112a2.007,2.007,0,0,1-2,2H83.867a.851.851,0,1,0,0,1.7h2.472a2,2,0,0,1,0,4.009H66.019a7.659,7.659,0,0,1-5.341-2.155l-.855-.824v-16.3a22.45,22.45,0,0,0,5.066-3.834.851.851,0,1,0-1.21-1.2,20.623,20.623,0,0,1-3.935,3.107,2.488,2.488,0,0,0-2.4-1.862H43.533a.851.851,0,0,0-.851.851V55.99a.851.851,0,0,0,.851.851H57.339a2.486,2.486,0,0,0,2.479-2.336,9.349,9.349,0,0,0,6.2,2.336H86.339A3.706,3.706,0,0,0,88.7,50.278a3.7,3.7,0,0,0,1.346-2.856V47.31A3.7,3.7,0,0,0,88.7,44.454,3.7,3.7,0,0,0,90.047,41.6v-.019A3.7,3.7,0,0,0,88.7,38.723,3.7,3.7,0,0,0,90.047,35.867ZM57.339,55.139H44.385V33.77H57.339a.781.781,0,0,1,.78.78V54.358A.781.781,0,0,1,57.339,55.139Z" transform="translate(0 0)"/>
      <circle id="Ellipse_12485" data-name="Ellipse 12485" cx="1.193" cy="1.193" r="1.193" transform="translate(51.991 36.969)"/>
    </g>
  </g>
</svg>
