<svg xmlns="http://www.w3.org/2000/svg" width="98" height="97.999" viewBox="0 0 98 97.999">
  <g id="Group_1204907" data-name="Group 1204907" transform="translate(-285 -5176)">
    <g id="Group_1204628" data-name="Group 1204628" transform="translate(-517.781 2637.984)">
      <g id="Group_1204237" data-name="Group 1204237" transform="translate(-1 566)">
        <g id="Group_1204143" data-name="Group 1204143" transform="translate(-67.331 1694.852)">
          <g id="Group_1188789" data-name="Group 1188789" transform="translate(871.113 277.164)">
            <path id="Path_1243039" data-name="Path 1243039" d="M41.05,0h0a41.05,41.05,0,0,1,0,82.1h0a41.05,41.05,0,0,1,0-82.1Z" transform="translate(7.951 7.949)" fill="#ffc94a"/>
            <rect id="Rectangle_400907" data-name="Rectangle 400907" width="88.438" height="88.437" rx="44.218" transform="translate(4.782 4.781)" fill="none"/>
            <g id="Group_1098742" data-name="Group 1098742" transform="translate(0)">
              <g id="Rectangle_400898" data-name="Rectangle 400898" transform="translate(0)" fill="none" stroke="#fff" stroke-width="2" opacity="0.859">
                <rect width="98" height="97.999" rx="48.999" stroke="none"/>
                <rect x="1" y="1" width="96" height="95.999" rx="47.999" fill="none"/>
              </g>
              <g id="Rectangle_400907-2" data-name="Rectangle 400907" transform="translate(0)" fill="none" stroke="#0f1f33" stroke-linecap="round" stroke-width="2">
                <rect width="98" height="97.999" rx="48.999" stroke="none"/>
                <rect x="1" y="1" width="96" height="95.999" rx="47.999" fill="none"/>
              </g>
            </g>
          </g>
        </g>
      </g>
    </g>
    <g id="renovacion" transform="translate(305 5196)">
      <g id="Group_1204905" data-name="Group 1204905" transform="translate(1.916 1.916)">
        <g id="Group_1204892" data-name="Group 1204892" transform="translate(1.833 16.496)">
          <path id="Path_1245672" data-name="Path 1245672" d="M32.025,20H4V39.053a12.915,12.915,0,0,1,3.666-3.922V23.666H16.83v9.293A12.851,12.851,0,0,1,27.3,41.995h4.729a12.869,12.869,0,0,1,4.967-6.864V26.864A12.869,12.869,0,0,1,32.025,20Z" transform="translate(-4 -20)" fill="#f0d0b4"/>
        </g>
        <g id="Group_1204893" data-name="Group 1204893" transform="translate(29.327)">
          <path id="Path_1245673" data-name="Path 1245673" d="M46.83,2a12.832,12.832,0,1,1-11.923,8.092A12.833,12.833,0,0,1,46.83,2Z" transform="translate(-34 -2)" fill="#e6e9ed"/>
        </g>
        <g id="Group_1204894" data-name="Group 1204894" transform="translate(29.327 29.327)">
          <path id="Path_1245674" data-name="Path 1245674" d="M46.83,34A12.835,12.835,0,1,1,39.5,36.3,12.833,12.833,0,0,1,46.83,34Z" transform="translate(-34 -34)" fill="#e6e9ed"/>
        </g>
        <g id="Group_1204895" data-name="Group 1204895" transform="translate(33.909 5.499)">
          <path id="Path_1245675" data-name="Path 1245675" d="M53.123,19.538a1.827,1.827,0,1,1-2.584,2.584L45.25,16.844A4.569,4.569,0,0,1,39,12.582l.916-.916L41.749,13.5A2.746,2.746,0,0,0,44.5,10.749L42.666,8.916,43.582,8a4.569,4.569,0,0,1,4.262,6.25Z" transform="translate(-39 -8)" fill="#fcd770"/>
        </g>
        <g id="Group_1204896" data-name="Group 1204896" transform="translate(39.408 35.742)">
          <path id="Path_1245676" data-name="Path 1245676" d="M54.165,41a23.712,23.712,0,0,1-1.7,8.835l-.128.33L48.666,46.5,45,42.833l.33-.128A23.712,23.712,0,0,1,54.165,41Z" transform="translate(-45 -41)" fill="#fcd770"/>
        </g>
        <g id="Group_1204897" data-name="Group 1204897" transform="translate(34.825 43.99)">
          <path id="Path_1245677" data-name="Path 1245677" d="M44.958,50.541a1.814,1.814,0,0,1,0,2.584l-1.833,1.833a1.827,1.827,0,1,1-2.584-2.584l1.833-1.833a1.814,1.814,0,0,1,2.584,0Z" transform="translate(-40 -50)" fill="#d3a06c"/>
        </g>
        <g id="Group_1204898" data-name="Group 1204898" transform="translate(21.995 21.995)">
          <path id="Path_1245678" data-name="Path 1245678" d="M26,26h9.165v7.332H26Z" transform="translate(-26 -26)" fill="#69d6f4"/>
        </g>
        <g id="Group_1204899" data-name="Group 1204899" transform="translate(0 29.327)">
          <path id="Path_1245679" data-name="Path 1245679" d="M27.129,43.165a12.832,12.832,0,1,1-23.3-2.942A12.823,12.823,0,0,1,14.83,34a13.38,13.38,0,0,1,1.833.128,12.851,12.851,0,0,1,10.466,9.036Z" transform="translate(-2 -34)" fill="#e6e9ed"/>
        </g>
        <g id="Group_1204900" data-name="Group 1204900" transform="translate(9.165 34.825)">
          <path id="Path_1245680" data-name="Path 1245680" d="M21.165,40A1.838,1.838,0,0,1,23,41.833a1.846,1.846,0,0,1-1.833,1.833H13.833A1.838,1.838,0,0,1,12,41.833,1.846,1.846,0,0,1,13.833,40Z" transform="translate(-12 -40)" fill="#fcd770"/>
        </g>
        <g id="Group_1204901" data-name="Group 1204901" transform="translate(0 12.83)">
          <path id="Path_1245681" data-name="Path 1245681" d="M31.327,16H2v3.666H31.858A12.755,12.755,0,0,1,31.327,16Z" transform="translate(-2 -16)" fill="#fc6e51"/>
        </g>
        <g id="Group_1204902" data-name="Group 1204902">
          <path id="Path_1245682" data-name="Path 1245682" d="M26.735,6.042l-4.747-3.5a2.815,2.815,0,0,0-3.318,0L11.852,7.572,2,14.83H31.327a12.712,12.712,0,0,1,.907-4.738Z" transform="translate(-2 -2)" fill="#ff826e"/>
        </g>
        <g id="Group_1204903" data-name="Group 1204903" transform="translate(10.997 45.823)">
          <path id="Path_1245683" data-name="Path 1245683" d="M17.666,53.833v1.833a1.833,1.833,0,0,1-3.666,0V53.833A1.838,1.838,0,0,1,15.833,52a1.846,1.846,0,0,1,1.833,1.833Z" transform="translate(-14 -52)" fill="#d3a06c"/>
        </g>
        <g id="Group_1204904" data-name="Group 1204904" transform="translate(5.499 20.162)">
          <path id="Path_1245684" data-name="Path 1245684" d="M17.165,24v9.293a13.38,13.38,0,0,0-1.833-.128A12.8,12.8,0,0,0,8,35.465V24Z" transform="translate(-8 -24)" fill="#aab2bd"/>
        </g>
      </g>
      <g id="Group_1204906" data-name="Group 1204906" transform="translate(1 1)">
        <path id="Path_1245685" data-name="Path 1245685" d="M44.073,30.327a13.655,13.655,0,0,0-6.415,1.6V26.9A13.747,13.747,0,1,0,31.79,8.609L22.443,1.721a3.8,3.8,0,0,0-4.4,0L1,14.284v5.045H2.833V37.244a13.741,13.741,0,1,0,25.661,6.829,13.8,13.8,0,0,0-.277-2.749H30.6a13.747,13.747,0,1,0,13.469-11Zm0-27.494A11.914,11.914,0,1,1,32.16,14.747,11.928,11.928,0,0,1,44.073,2.833Zm-13.7,12.83A13.7,13.7,0,0,0,30.6,17.5H21.162V15.663ZM25.325,6.121l-2.33,2.8V12h1.833V10.731l2.34,1.169.82-1.64-2.63-1.315L26.8,7.21l4.259,3.138a13.65,13.65,0,0,0-.688,3.482H21.162V3.1a1.67,1.67,0,0,1,.194.1ZM19.135,3.2a1.6,1.6,0,0,1,.194-.1V13.83H4.7L11.38,8.912l.882,2.057,5.055,1.012.36-1.8-4.109-.821L12.9,7.8ZM2.833,15.663h16.5V17.5H2.833Zm1.833,3.666H19.329v11.8A13.555,13.555,0,0,0,17.5,30.6V21.162H6.5V33.1a13.851,13.851,0,0,0-1.833,1.657Zm11,11.044c-.3-.02-.607-.047-.916-.047a13.655,13.655,0,0,0-6.415,1.6v-8.93h7.332Zm-.916,25.614A11.914,11.914,0,1,1,26.661,44.073,11.928,11.928,0,0,1,14.747,55.987Zm12.945-16.5a13.8,13.8,0,0,0-6.53-7.566v-12.6h9.966A13.72,13.72,0,0,0,33.1,22.995H22.995V32.16h11v-8.1a13.851,13.851,0,0,0,1.833,1.657V33.1a13.784,13.784,0,0,0-4.7,6.389ZM32.16,24.828v5.5H24.828v-5.5Zm11.914,31.16A11.914,11.914,0,1,1,55.987,44.073,11.928,11.928,0,0,1,44.073,55.987Z" transform="translate(-1 -1)"/>
        <path id="Path_1245686" data-name="Path 1245686" d="M20.747,39H13.415a2.746,2.746,0,0,0-2.581,1.833H7v5.3l7.332,1.833v2.2A2.746,2.746,0,0,0,12.5,52.747V54.58a2.749,2.749,0,1,0,5.5,0V52.747a2.746,2.746,0,0,0-1.833-2.581V46.531L8.833,44.7V42.666h2A2.746,2.746,0,0,0,13.415,44.5h7.332a2.749,2.749,0,1,0,0-5.5ZM16.165,54.58a.916.916,0,1,1-1.833,0V52.747a.916.916,0,1,1,1.833,0Zm4.582-11.914H13.415a.916.916,0,1,1,0-1.833h7.332a.916.916,0,1,1,0,1.833Z" transform="translate(-1.501 -4.175)"/>
        <path id="Path_1245687" data-name="Path 1245687" d="M43.5,18a5.319,5.319,0,0,0,1.418-.193L49.8,22.691A2.749,2.749,0,1,0,53.691,18.8L48.8,13.916A5.351,5.351,0,0,0,49,12.5,5.5,5.5,0,0,0,43.5,7h-.379L41.286,8.833l2.179,2.179a1.836,1.836,0,0,1-1.453,1.453l-2.18-2.179L38,12.119V12.5A5.5,5.5,0,0,0,43.5,18Zm-2.212-3.666h.379a3.67,3.67,0,0,0,3.666-3.666v-.379L43.9,8.854a3.644,3.644,0,0,1,3,4.976l-.22.558,5.71,5.71a.917.917,0,0,1,0,1.3.929.929,0,0,1-1.3,0l-5.71-5.71-.558.219a3.644,3.644,0,0,1-4.976-3Z" transform="translate(-4.091 -1.501)"/>
        <path id="Path_1245688" data-name="Path 1245688" d="M44.487,41.768l-1.62.646,4,4-2.117,2.118a2.817,2.817,0,0,0-3.112.521l-1.833,1.833a2.749,2.749,0,1,0,3.887,3.888l1.833-1.833a2.716,2.716,0,0,0,.531-3.121l2.108-2.108,4,4,.648-1.618a24.627,24.627,0,0,0,1.767-9.177V40h-.916a24.58,24.58,0,0,0-9.176,1.768Zm-.257,9.878L42.4,53.478a.929.929,0,0,1-1.3,0,.916.916,0,0,1,0-1.3l1.833-1.833a.916.916,0,1,1,1.3,1.3Zm7.247-3.214L46.148,43.1a22.72,22.72,0,0,1,6.58-1.25,22.752,22.752,0,0,1-1.251,6.579Z" transform="translate(-4.175 -4.258)"/>
      </g>
    </g>
  </g>
</svg>
