<svg xmlns="http://www.w3.org/2000/svg" width="98" height="97.999" viewBox="0 0 98 97.999">
  <g id="Group_1204858" data-name="Group 1204858" transform="translate(-6892 3360.25)">
    <g id="Group_1204617" data-name="Group 1204617" transform="translate(6089.219 -5898.266)">
      <g id="Group_1204237" data-name="Group 1204237" transform="translate(-1 566)">
        <g id="Group_1204143" data-name="Group 1204143" transform="translate(-67.331 1694.852)">
          <g id="Group_1188789" data-name="Group 1188789" transform="translate(871.113 277.164)">
            <path id="Path_1243039" data-name="Path 1243039" d="M41.05,0h0a41.05,41.05,0,0,1,0,82.1h0a41.05,41.05,0,0,1,0-82.1Z" transform="translate(7.951 7.949)" fill="#ffc94a"/>
            <rect id="Rectangle_400907" data-name="Rectangle 400907" width="88.438" height="88.437" rx="44.218" transform="translate(4.782 4.781)" fill="none"/>
            <g id="Group_1098742" data-name="Group 1098742" transform="translate(0)">
              <g id="Rectangle_400898" data-name="Rectangle 400898" transform="translate(0)" fill="none" stroke="#fff" stroke-width="2" opacity="0.859">
                <rect width="98" height="97.999" rx="48.999" stroke="none"/>
                <rect x="1" y="1" width="96" height="95.999" rx="47.999" fill="none"/>
              </g>
              <g id="Rectangle_400907-2" data-name="Rectangle 400907" transform="translate(0)" fill="none" stroke="#0f1f33" stroke-linecap="round" stroke-width="2">
                <rect width="98" height="97.999" rx="48.999" stroke="none"/>
                <rect x="1" y="1" width="96" height="95.999" rx="47.999" fill="none"/>
              </g>
            </g>
          </g>
        </g>
      </g>
    </g>
    <g id="humedad" transform="translate(6886.444 -3343.391)">
      <g id="Group_1204856" data-name="Group 1204856" transform="translate(27.193 1.192)">
        <g id="Group_1204855" data-name="Group 1204855" transform="translate(0)">
          <path id="Path_1245545" data-name="Path 1245545" d="M61.7,211.938a2.384,2.384,0,1,1-2.384,2.384,2.384,2.384,0,0,1,2.384-2.384Zm-8.211,9.15a2.384,2.384,0,1,1-2.384,2.384A2.384,2.384,0,0,1,53.487,221.088Zm.55-17.76c-4.464,0-4.774,2.98-9.237,2.98-3.435,0-4.41-1.766-6.712-2.579A21.016,21.016,0,0,0,36,212.155,19.393,19.393,0,0,0,64.8,229.111a11.936,11.936,0,0,1,9.733-13.852,19.531,19.531,0,0,0,.247-3.1,21.463,21.463,0,0,0-2.268-8.827c-4.461,0-4.772,2.98-9.235,2.98S58.5,203.328,54.037,203.328Zm-8.91,7.538a2.384,2.384,0,1,1-2.384,2.384A2.384,2.384,0,0,1,45.127,210.866Z" transform="translate(-36.002 -180.281)" fill="#66e0f7" fill-rule="evenodd"/>
          <path id="Path_1245546" data-name="Path 1245546" d="M69.441,33.047c4.464,0,4.774,2.98,9.237,2.98s4.774-2.979,9.235-2.98C83.957,24.5,75.746,15.681,70.793,10c-5.03,5.77-13.422,14.776-17.3,23.449,2.3.813,3.277,2.579,6.712,2.579,4.464,0,4.774-2.98,9.237-2.98Z" transform="translate(-51.406 -10)" fill="#99ebfa" fill-rule="evenodd"/>
          <g id="Group_1204854" data-name="Group 1204854" transform="translate(5.738 29.593)">
            <circle id="Ellipse_12477" data-name="Ellipse 12477" cx="2.384" cy="2.384" r="2.384" transform="matrix(0.758, -0.652, 0.652, 0.758, 16.585, 4.213)" fill="#fff"/>
            <circle id="Ellipse_12478" data-name="Ellipse 12478" cx="2.384" cy="2.384" r="2.384" transform="translate(0 3.457) rotate(-46.5)" fill="#fff"/>
            <circle id="Ellipse_12479" data-name="Ellipse 12479" cx="2.384" cy="2.384" r="2.384" transform="matrix(0.721, -0.693, 0.693, 0.721, 8.388, 13.504)" fill="#fff"/>
          </g>
          <circle id="Ellipse_12480" data-name="Ellipse 12480" cx="11.921" cy="11.921" r="11.921" transform="translate(23.666 46.731) rotate(-45)" fill="#d1aee5"/>
        </g>
      </g>
      <g id="Group_1204857" data-name="Group 1204857" transform="translate(26.001 0)">
        <path id="Path_1245547" data-name="Path 1245547" d="M268.164,94.338a1.192,1.192,0,1,0-.693-2.162h0a1.192,1.192,0,0,0,.694,2.162Z" transform="translate(-238.244 -80.992)"/>
        <path id="Path_1245548" data-name="Path 1245548" d="M161.737,296.442a1.192,1.192,0,1,0,0-2.384h0a1.192,1.192,0,1,0,0,2.384Z" transform="translate(-144.505 -259.003)"/>
        <path id="Path_1245549" data-name="Path 1245549" d="M181.744,246.942a1.192,1.192,0,1,0,0-2.384h0a1.192,1.192,0,0,0,0,2.384Z" transform="translate(-162.128 -215.404)"/>
        <path id="Path_1245550" data-name="Path 1245550" d="M103.737,338.808h0A1.192,1.192,0,1,0,104.929,340,1.192,1.192,0,0,0,103.736,338.808Z" transform="translate(-93.419 -298.418)"/>
        <path id="Path_1245551" data-name="Path 1245551" d="M86.122,256.556a3.576,3.576,0,1,0,3.576,3.576A3.58,3.58,0,0,0,86.122,256.556Zm0,4.768a1.192,1.192,0,1,1,1.192-1.192A1.193,1.193,0,0,1,86.122,261.324Z" transform="translate(-75.805 -225.971)"/>
        <path id="Path_1245552" data-name="Path 1245552" d="M156.247,342.308a3.576,3.576,0,1,0,3.576,3.576A3.58,3.58,0,0,0,156.247,342.308Zm0,4.768a1.192,1.192,0,1,1,1.192-1.192A1.193,1.193,0,0,1,156.247,347.077Z" transform="translate(-137.57 -301.501)"/>
        <path id="Path_1245553" data-name="Path 1245553" d="M228.7,269.132a3.576,3.576,0,1,0-3.576,3.576A3.58,3.58,0,0,0,228.7,269.132Zm-3.576,1.192a1.192,1.192,0,1,1,1.192-1.192A1.193,1.193,0,0,1,225.122,270.324Z" transform="translate(-198.235 -233.898)"/>
        <path id="Path_1245554" data-name="Path 1245554" d="M67.725,34.81q-.322,0-.641.016c.05-.585.075-1.174.075-1.76,0-4.811-2.31-10.466-7.061-17.287a1.192,1.192,0,1,0-1.956,1.363,55.912,55.912,0,0,1,3.733,6.075,9.633,9.633,0,0,0-3.422,1.5,6.727,6.727,0,0,1-7.975,0,9.082,9.082,0,0,0-10.5,0,6.727,6.727,0,0,1-7.975,0c-.359-.224-.725-.452-1.126-.666a50.361,50.361,0,0,1,3.529-6.018A142.615,142.615,0,0,1,45.743,3.953L46.581,3l.834.947C48.693,5.4,50.141,7.042,51.6,8.766a1.192,1.192,0,0,0,1.818-1.542C51.945,5.482,50.488,3.83,49.2,2.372,48.6,1.683,48.019,1.027,47.479.408a1.193,1.193,0,0,0-1.8,0c-.54.62-1.12,1.277-1.728,1.968C36.8,10.488,26,22.747,26,33.066a20.587,20.587,0,0,0,29.185,18.7A13.114,13.114,0,1,0,67.725,34.81ZM46.581,51.261a18.216,18.216,0,0,1-18.2-18.2A18.605,18.605,0,0,1,29.9,26.237c.281.157.555.328.837.5a9.083,9.083,0,0,0,10.5,0,6.726,6.726,0,0,1,7.974,0,9.084,9.084,0,0,0,10.5,0,6.841,6.841,0,0,1,3.237-1.274,19.27,19.27,0,0,1,1.824,7.6,18.454,18.454,0,0,1-.122,2.108,13.113,13.113,0,0,0-9.963,14.184,18.236,18.236,0,0,1-8.11,1.9Zm21.145,7.391A10.729,10.729,0,1,1,78.454,47.924,10.741,10.741,0,0,1,67.725,58.653Z" transform="translate(-26.001 0)"/>
        <path id="Path_1245555" data-name="Path 1245555" d="M340.553,350.234l-2,2v-9.043a1.192,1.192,0,0,0-2.384,0v9.043l-2-2a1.192,1.192,0,0,0-1.686,1.686l4.038,4.038a1.192,1.192,0,0,0,1.686,0l4.038-4.038a1.192,1.192,0,0,0-1.686-1.686Z" transform="translate(-295.634 -301.231)"/>
      </g>
    </g>
  </g>
</svg>
