<svg xmlns="http://www.w3.org/2000/svg" width="98" height="97.998" viewBox="0 0 98 97.998">
  <g id="Group_1204839" data-name="Group 1204839" transform="translate(-1081 -8259.75)">
    <g id="Group_1204614" data-name="Group 1204614" transform="translate(278.219 5721.734)">
      <g id="Group_1204237" data-name="Group 1204237" transform="translate(-1 566)">
        <g id="Group_1204143" data-name="Group 1204143" transform="translate(-67.331 1694.852)">
          <g id="Group_1188789" data-name="Group 1188789" transform="translate(871.113 277.164)">
            <path id="Path_1243039" data-name="Path 1243039" d="M41.05,0h0a41.05,41.05,0,0,1,0,82.1h0a41.05,41.05,0,0,1,0-82.1Z" transform="translate(7.951 7.949)" fill="#ffc94a"/>
            <rect id="Rectangle_400907" data-name="Rectangle 400907" width="88.438" height="88.437" rx="44.218" transform="translate(4.782 4.781)" fill="none"/>
            <g id="Group_1098742" data-name="Group 1098742" transform="translate(0)">
              <g id="Rectangle_400898" data-name="Rectangle 400898" transform="translate(0)" fill="none" stroke="#fff" stroke-width="2" opacity="0.859">
                <rect width="98" height="97.999" rx="48.999" stroke="none"/>
                <rect x="1" y="1" width="96" height="95.999" rx="47.999" fill="none"/>
              </g>
              <g id="Rectangle_400907-2" data-name="Rectangle 400907" transform="translate(0)" fill="none" stroke="#0f1f33" stroke-linecap="round" stroke-width="2">
                <rect width="98" height="97.999" rx="48.999" stroke="none"/>
                <rect x="1" y="1" width="96" height="95.999" rx="47.999" fill="none"/>
              </g>
            </g>
          </g>
        </g>
      </g>
    </g>
    <g id="aerosol-de-limpieza" transform="translate(1079.394 8280.622)">
      <path id="Path_1245476" data-name="Path 1245476" d="M37.506,201.683l-.44-1.41a7.116,7.116,0,0,0-3.935-4.546l-.026-.012a7.116,7.116,0,0,0,4.028-4.51l.373-1.379.44,1.41a7.116,7.116,0,0,0,3.935,4.545l.026.012a7.116,7.116,0,0,0-4.028,4.51Z" transform="translate(-6.621 -167.592)" fill="#b3dafe"/>
      <path id="Path_1245477" data-name="Path 1245477" d="M37.133,191.205a7.116,7.116,0,0,1-4.028,4.51l.026.012a7.116,7.116,0,0,1,3.935,4.546l.44,1.41V189.826Z" transform="translate(-6.621 -167.592)" fill="#8ac9fe"/>
      <path id="Path_1245478" data-name="Path 1245478" d="M157.431,131.645v14.71a7.262,7.262,0,0,1-2.726,5.671l-3.645,2.916a7.262,7.262,0,0,0-2.726,5.671V171.68a3.631,3.631,0,0,0,3.631,3.631h14.615a3.631,3.631,0,0,0,3.631-3.635l-.041-36.384c0-3-2.433-3.643-5.431-3.644Z" transform="translate(-108.354 -116.225)" fill="#e9f1ff"/>
      <path id="Path_1245479" data-name="Path 1245479" d="M154.193,171.68V160.613a7.262,7.262,0,0,1,2.726-5.671l3.645-2.916a7.262,7.262,0,0,0,2.726-5.671V131.647l-5.857,0v14.71a7.262,7.262,0,0,1-2.726,5.671l-3.645,2.916a7.262,7.262,0,0,0-2.726,5.671V171.68a3.631,3.631,0,0,0,3.631,3.631h5.857A3.631,3.631,0,0,1,154.193,171.68Z" transform="translate(-108.355 -116.225)" fill="#d7e4f7"/>
      <path id="Path_1245480" data-name="Path 1245480" d="M151.967,394.769h14.615a3.631,3.631,0,0,0,3.631-3.635l-.012-10.915H148.336v10.919A3.631,3.631,0,0,0,151.967,394.769Z" transform="translate(-108.355 -335.684)" fill="#b3dafe"/>
      <path id="Path_1245481" data-name="Path 1245481" d="M154.193,391.137V380.218h-5.857v10.919a3.631,3.631,0,0,0,3.631,3.631h5.857A3.631,3.631,0,0,1,154.193,391.137Z" transform="translate(-108.355 -335.683)" fill="#8ac9fe"/>
      <path id="Path_1245482" data-name="Path 1245482" d="M132.8,14.882h3.638V18.52H132.8Z" transform="translate(-94.643 -13.139)" fill="#fee97d"/>
      <path id="Path_1245483" data-name="Path 1245483" d="M187.567,12.943H185.69a3.631,3.631,0,0,0-3.631,3.631V18.4h-9.045l-3.638-5.457h-5.509V7.5H182.11Z" transform="translate(-122.067 -6.619)" fill="#fe646f"/>
      <g id="Group_1204836" data-name="Group 1204836" transform="translate(41.8 0.878)">
        <path id="Path_1245484" data-name="Path 1245484" d="M163.867,7.5h3.514v5.446h-3.514Z" transform="translate(-163.867 -7.497)" fill="#e53950"/>
        <path id="Path_1245485" data-name="Path 1245485" d="M210.9,53.989l3.638,5.457h3.514l-3.638-5.457Z" transform="translate(-205.388 -48.543)" fill="#e53950"/>
      </g>
      <path id="Path_1245486" data-name="Path 1245486" d="M106.222,106.174H88.968a2.757,2.757,0,0,1,0-5.515h17.254v5.515Z" transform="translate(-53.507 -88.869)" fill="#f1b0a2"/>
      <path id="Path_1245487" data-name="Path 1245487" d="M86.471,114.2a2.759,2.759,0,0,0,2.5,3.929h17.254v-2.343H88.968A2.757,2.757,0,0,1,86.471,114.2Z" transform="translate(-53.507 -100.823)" fill="#eb9c8d"/>
      <path id="Path_1245488" data-name="Path 1245488" d="M181.6,53.989l-1.768,5.949a1.328,1.328,0,0,0,2.192,1.008l3.872-3.319-2.426-3.638Z" transform="translate(-136.163 -47.665)" fill="#fee97d"/>
      <path id="Path_1245489" data-name="Path 1245489" d="M172.053,199.791H166.6a2.729,2.729,0,1,1,0-5.458h5.457a2.729,2.729,0,0,1,0,5.458Z" transform="translate(-122.067 -171.571)" fill="#f1b0a2"/>
      <path id="Path_1245490" data-name="Path 1245490" d="M172.053,209.187H166.6a2.729,2.729,0,0,1-2.465-1.557,2.73,2.73,0,0,0,2.465,3.9h5.457a2.73,2.73,0,0,0,2.465-3.9A2.729,2.729,0,0,1,172.053,209.187Z" transform="translate(-122.067 -183.31)" fill="#eb9c8d"/>
      <path id="Path_1245491" data-name="Path 1245491" d="M172.053,246.385H166.6a2.729,2.729,0,1,1,0-5.458h5.457a2.729,2.729,0,0,1,0,5.458Z" transform="translate(-122.067 -212.707)" fill="#f1b0a2"/>
      <path id="Path_1245492" data-name="Path 1245492" d="M172.053,255.782H166.6a2.729,2.729,0,0,1-2.465-1.558,2.73,2.73,0,0,0,2.465,3.9h5.457a2.73,2.73,0,0,0,2.465-3.9A2.729,2.729,0,0,1,172.053,255.782Z" transform="translate(-122.067 -224.447)" fill="#eb9c8d"/>
      <path id="Path_1245493" data-name="Path 1245493" d="M172.053,153.2H166.6a2.729,2.729,0,1,1,0-5.458h5.457a2.729,2.729,0,0,1,0,5.458Z" transform="translate(-122.067 -130.435)" fill="#f1b0a2"/>
      <path id="Path_1245494" data-name="Path 1245494" d="M172.053,162.594H166.6a2.729,2.729,0,0,1-2.465-1.557,2.73,2.73,0,0,0,2.465,3.9h5.457a2.73,2.73,0,0,0,2.465-3.9A2.729,2.729,0,0,1,172.053,162.594Z" transform="translate(-122.067 -142.175)" fill="#eb9c8d"/>
      <path id="Path_1245495" data-name="Path 1245495" d="M233.566,106.056h-4.5a6.13,6.13,0,0,1-5.1-2.73,6.13,6.13,0,0,0-5.1-2.73l-10.417-.006a3.63,3.63,0,0,0-2.556,1.051l-3.757,3.721a3.693,3.693,0,0,0-.024,5.248,3.63,3.63,0,0,0,5.087-.045l2.689-2.689h6.806l.016,14.55h6.5a6.212,6.212,0,0,0,4.391-1.818,6.212,6.212,0,0,1,4.391-1.818h1.575Z" transform="translate(-154.874 -88.808)" fill="#f1b0a2"/>
      <g id="Group_1204837" data-name="Group 1204837" transform="translate(46.153 11.782)">
        <path id="Path_1245496" data-name="Path 1245496" d="M205.624,110.609a3.693,3.693,0,0,1,.024-5.248l3.757-3.721a3.629,3.629,0,0,1,2.436-1.049l-3.393,0a3.63,3.63,0,0,0-2.556,1.051l-3.757,3.721a3.693,3.693,0,0,0-.024,5.248,3.631,3.631,0,0,0,4.277.565,3.632,3.632,0,0,1-.763-.565Z" transform="translate(-201.027 -100.59)" fill="#eb9c8d"/>
        <path id="Path_1245497" data-name="Path 1245497" d="M334.763,162.783l.016,14.55h3.543l-.034-11.037a3.525,3.525,0,0,0-3.525-3.514Z" transform="translate(-319.098 -155.498)" fill="#eb9c8d"/>
      </g>
      <g id="Group_1204838" data-name="Group 1204838" transform="translate(25.606 0)">
        <path id="Path_1245498" data-name="Path 1245498" d="M33,17.235h7.277a.878.878,0,1,0,0-1.757H33a.878.878,0,0,0,0,1.757Z" transform="translate(-31.355 -13.665)"/>
        <path id="Path_1245499" data-name="Path 1245499" d="M33.393,51.791l7.277-3.638a.878.878,0,0,0-.786-1.571l-7.277,3.638a.879.879,0,0,0-.393,1.179A.839.839,0,0,0,33.393,51.791Z" transform="translate(-31.359 -41.043)"/>
        <path id="Path_1245500" data-name="Path 1245500" d="M125.58,22.515a.878.878,0,0,0,.878-.878V17.248a.878.878,0,0,0-.878-.878h-4.5a5.242,5.242,0,0,1-4.37-2.338,7.061,7.061,0,0,0-5.827-3.122l-3.121,0V9.955A2.756,2.756,0,0,1,110.509,7.2h1.878c1.037,0,1.31-.873.621-1.5L107.55.257A.879.879,0,0,0,106.93,0h-4.923a.878.878,0,0,0,0,1.757h4.56l3.7,3.695A4.515,4.515,0,0,0,106,9.955V10.9H98.3L94.926,5.836a.878.878,0,0,0-.731-.391h-4.63V1.757h8.613a.878.878,0,0,0,0-1.757H88.687a.879.879,0,0,0-.878.865h-2.76a.878.878,0,0,0-.878.878V5.381a.878.878,0,0,0,.878.878h2.759a.936.936,0,0,0,.878.942h2.461l-1.1,3.71h-7.7a3.636,3.636,0,1,0,0,7.271h5.968a3.725,3.725,0,0,0,.742,4.579,3.638,3.638,0,0,0,0,5.458,3.66,3.66,0,0,0,2.357,6.336H93.3a43.142,43.142,0,0,1-4.259,3.474,8.1,8.1,0,0,0-3.055,6.357V55.454a4.515,4.515,0,0,0,4.51,4.51h6.033a.878.878,0,1,0,0-1.757H90.5a2.756,2.756,0,0,1-2.753-2.753V45.414h14.616v10a.878.878,0,0,0,1.757,0v-10h3.737l.011,10.038a2.753,2.753,0,0,1-2.753,2.755h-4.753a.878.878,0,1,0,0,1.757h4.753a4.549,4.549,0,0,0,4.51-4.514L109.6,34.5h5.623a7.135,7.135,0,0,0,5.011-2.075,6.483,6.483,0,0,1,5.346-1.561.878.878,0,0,0,.878-.878V25.465a.878.878,0,1,0-1.757,0V29.1a7.407,7.407,0,0,0-5.709,2.075,5.366,5.366,0,0,1-3.769,1.561H109.6l-.015-13.674a.878.878,0,0,0-.878-.877H101.9a.879.879,0,0,0-.621.257l-2.689,2.689a2.861,2.861,0,0,1-3.854.035,2.815,2.815,0,0,1,.031-3.993l3.758-3.72a2.735,2.735,0,0,1,1.723-.788l10.632,0a5.247,5.247,0,0,1,4.367,2.339,7,7,0,0,0,5.832,3.12H124.7v3.51a.879.879,0,0,0,.879.878ZM85.927,4.5V2.622h1.881V4.5Zm7.8,2.7,1.733,2.6-3.281,2.812q-.436.3-.732-.247L92.981,7.2Zm-.7,14.681H91.416a1.85,1.85,0,1,1,0-3.7h.863A4.491,4.491,0,0,0,93.03,21.884Zm-3.464,3.608a1.852,1.852,0,0,1,1.85-1.85s5.342.063,5.73.02a1.85,1.85,0,0,1-.272,3.681H91.416a1.852,1.852,0,0,1-1.85-1.85Zm0,5.457a1.852,1.852,0,0,1,1.85-1.85h5.457a1.85,1.85,0,1,1,0,3.7H91.416A1.852,1.852,0,0,1,89.566,30.949Zm18.288,12.708h-3.735V19.945h3.708Zm-5.492-23.712V43.657H87.787A6.349,6.349,0,0,1,90.142,39.4c1.8-1.438,4.126-2.885,5.392-4.847h1.34c4.567-.048,4.213-5.457,2.357-6.336,1.7-.878,1.856-4.095.073-5.393.953-.479,1.626-1.221,3.058-2.882Zm-9.267-3.519H82.349a1.879,1.879,0,1,1,0-3.757h7.366a2.273,2.273,0,0,0,3.607,1.279l1.492-1.279h2.007S93.226,16.251,93.094,16.426Z" transform="translate(-72.493 0)"/>
        <path id="Path_1245501" data-name="Path 1245501" d="M35.645,188.37a7.381,7.381,0,0,1-3.921-5.427.879.879,0,0,0-.838-.617h-.017a.878.878,0,0,0-.831.649,6.984,6.984,0,0,1-3.9,5.31.879.879,0,0,0-.014,1.61,7.382,7.382,0,0,1,3.921,5.427.878.878,0,0,0,1.687-.033,6.984,6.984,0,0,1,3.9-5.31.879.879,0,0,0,.014-1.61Zm-4.778,3.893a7.966,7.966,0,0,0-2.6-3.156A7.958,7.958,0,0,0,30.9,186a7.965,7.965,0,0,0,2.6,3.156A7.957,7.957,0,0,0,30.866,192.263Z" transform="translate(-25.606 -160.97)"/>
      </g>
    </g>
  </g>
</svg>
