<svg xmlns="http://www.w3.org/2000/svg" width="98" height="97.999" viewBox="0 0 98 97.999">
  <g id="Group_1204827" data-name="Group 1204827" transform="translate(-6521 7107.344)">
    <g id="Group_1204604" data-name="Group 1204604" transform="translate(5718.219 -9645.359)">
      <g id="Group_1204237" data-name="Group 1204237" transform="translate(-1 566)">
        <g id="Group_1204143" data-name="Group 1204143" transform="translate(-67.331 1694.852)">
          <g id="Group_1188789" data-name="Group 1188789" transform="translate(871.113 277.164)">
            <path id="Path_1243039" data-name="Path 1243039" d="M41.05,0h0a41.05,41.05,0,0,1,0,82.1h0a41.05,41.05,0,0,1,0-82.1Z" transform="translate(7.951 7.949)" fill="#ffc94a"/>
            <rect id="Rectangle_400907" data-name="Rectangle 400907" width="88.438" height="88.437" rx="44.218" transform="translate(4.782 4.781)" fill="none"/>
            <g id="Group_1098742" data-name="Group 1098742" transform="translate(0)">
              <g id="Rectangle_400898" data-name="Rectangle 400898" transform="translate(0)" fill="none" stroke="#fff" stroke-width="2" opacity="0.859">
                <rect width="98" height="97.999" rx="48.999" stroke="none"/>
                <rect x="1" y="1" width="96" height="95.999" rx="47.999" fill="none"/>
              </g>
              <g id="Rectangle_400907-2" data-name="Rectangle 400907" transform="translate(0)" fill="none" stroke="#0f1f33" stroke-linecap="round" stroke-width="2">
                <rect width="98" height="97.999" rx="48.999" stroke="none"/>
                <rect x="1" y="1" width="96" height="95.999" rx="47.999" fill="none"/>
              </g>
            </g>
          </g>
        </g>
      </g>
    </g>
    <g id="material-peligroso" transform="translate(6534.532 -7091.52)">
      <g id="Group_1204826" data-name="Group 1204826" transform="translate(11.033 8.777)">
        <g id="Group_1204821" data-name="Group 1204821" transform="translate(0 0)">
          <path id="Path_1245427" data-name="Path 1245427" d="M49.261,20.942V54.536c0,3.043-7.751,5.51-17.312,5.51s-17.312-2.467-17.312-5.51V20.942c0-3.043,7.751-5.51,17.312-5.51S49.261,17.9,49.261,20.942Z" transform="translate(-14.637 -15.432)" fill="#8d9ca8" fill-rule="evenodd"/>
          <ellipse id="Ellipse_12467" data-name="Ellipse 12467" cx="17.312" cy="5.51" rx="17.312" ry="5.51" transform="translate(0 0)" fill="#8d9ca8"/>
          <ellipse id="Ellipse_12468" data-name="Ellipse 12468" cx="3.917" cy="2.063" rx="3.917" ry="2.063" transform="translate(20.859 3.607)" fill="#8192a5"/>
          <g id="Group_1204820" data-name="Group 1204820" transform="translate(0 5.51)">
            <path id="Path_1245428" data-name="Path 1245428" d="M31.95,73.79c-9.561,0-17.312-2.467-17.312-5.51v8.4c0,2.209,4.083,4.114,9.979,4.993a11.618,11.618,0,0,1,14.667,0c5.9-.879,9.979-2.784,9.979-4.993v-8.4C49.262,71.323,41.511,73.79,31.95,73.79Z" transform="translate(-14.638 -68.28)" fill="#9facba" fill-rule="evenodd"/>
            <path id="Path_1245429" data-name="Path 1245429" d="M21.648,193.535c-4.254-1-7.011-2.614-7.011-4.429v8.4c0,1.671,2.338,3.169,6.029,4.179a11.662,11.662,0,0,1,.982-8.149Z" transform="translate(-14.637 -176.508)" fill="#9facba" fill-rule="evenodd"/>
            <path id="Path_1245430" data-name="Path 1245430" d="M23.106,314.67c-5.071-.961-8.469-2.723-8.469-4.738v8.4c0,3.043,7.751,5.51,17.312,5.51A47.719,47.719,0,0,0,41.134,323l6.026-10.436a20.8,20.8,0,0,1-6.368,2.1,11.617,11.617,0,0,1-17.686,0Z" transform="translate(-14.637 -284.736)" fill="#9facba" fill-rule="evenodd"/>
            <path id="Path_1245431" data-name="Path 1245431" d="M279.48,193.535a11.662,11.662,0,0,1,.982,8.149c3.692-1.011,6.029-2.508,6.029-4.179v-8.4C286.491,190.921,283.734,192.531,279.48,193.535Z" transform="translate(-251.866 -176.508)" fill="#9facba" fill-rule="evenodd"/>
          </g>
          <path id="Path_1245432" data-name="Path 1245432" d="M193.512,20.942V54.536c0,3.043-7.751,5.51-17.312,5.51l-.521,0c9.32-.088,16.791-2.52,16.791-5.507V20.942c0-2.988-7.471-5.42-16.791-5.507l.521,0C185.762,15.432,193.512,17.9,193.512,20.942Z" transform="translate(-158.888 -15.432)" fill="#8d9ca8" fill-rule="evenodd"/>
        </g>
        <g id="Group_1204822" data-name="Group 1204822" transform="translate(25.613 28.364)">
          <path id="Path_1245433" data-name="Path 1245433" d="M275.477,289.342l8.2,14.2a3.743,3.743,0,0,1-3.242,5.615H264.039a3.743,3.743,0,0,1-3.242-5.615l8.2-14.2a3.743,3.743,0,0,1,6.483,0Z" transform="translate(-260.292 -287.47)" fill="#ffe177" fill-rule="evenodd"/>
          <path id="Path_1245434" data-name="Path 1245434" d="M364.058,350.3a1.255,1.255,0,1,1-1.255,1.255A1.255,1.255,0,0,1,364.058,350.3Zm0-2.241a.98.98,0,0,1-.979-.945l-.248-6.859a.98.98,0,0,1,.979-1.015h.5a.98.98,0,0,1,.979,1.015l-.248,6.859A.98.98,0,0,1,364.058,348.06Z" transform="translate(-352.115 -333.843)" fill="#fe646f" fill-rule="evenodd"/>
          <path id="Path_1245435" data-name="Path 1245435" d="M373.6,289.342l8.2,14.2a3.743,3.743,0,0,1-3.242,5.615h-1.043a3.743,3.743,0,0,0,3.242-5.615l-8.2-14.2a3.714,3.714,0,0,0-2.72-1.836,3.817,3.817,0,0,1,.521-.036A3.718,3.718,0,0,1,373.6,289.342Z" transform="translate(-358.42 -287.47)" fill="#ffd064" fill-rule="evenodd"/>
          <path id="Path_1245436" data-name="Path 1245436" d="M371,350.3a1.255,1.255,0,1,1-.448,2.428,1.256,1.256,0,0,0,0-2.346A1.252,1.252,0,0,1,371,350.3Zm0-2.241a.975.975,0,0,1-.448-.108.98.98,0,0,0,.532-.836l.248-6.859a.984.984,0,0,0-.779-1,1.035,1.035,0,0,1,.2-.019h.5a.98.98,0,0,1,.979,1.015l-.248,6.859A.98.98,0,0,1,371,348.06Z" transform="translate(-359.054 -333.843)" fill="#fd4755" fill-rule="evenodd"/>
        </g>
        <g id="Group_1204825" data-name="Group 1204825" transform="translate(0.882 11.484)">
          <g id="Group_1204823" data-name="Group 1204823">
            <circle id="Ellipse_12469" data-name="Ellipse 12469" cx="11.616" cy="11.616" r="11.616" transform="translate(0 16.426) rotate(-45)" fill="#ffe177"/>
            <path id="Path_1245437" data-name="Path 1245437" d="M176.2,171.711a11.616,11.616,0,1,1,0,23.233c-.175,0-.349,0-.522-.012a11.616,11.616,0,0,0,0-23.208C175.85,171.716,176.024,171.711,176.2,171.711Z" transform="translate(-159.768 -166.901)" fill="#ffd064" fill-rule="evenodd"/>
            <path id="Path_1245438" data-name="Path 1245438" d="M110.479,212.476a8.744,8.744,0,0,1,3.887,6.731.521.521,0,0,1-.52.555H97.419a.521.521,0,0,1-.52-.554,8.766,8.766,0,0,1,3.888-6.733.521.521,0,0,1,.74.174l3.956,6.853a.509.509,0,0,1,0,.521l-3.956,6.852a.521.521,0,0,0,.219.727,8.744,8.744,0,0,0,7.773,0,.521.521,0,0,0,.22-.728l-3.956-6.852a.509.509,0,0,1,0-.521l3.956-6.852a.521.521,0,0,1,.74-.173Z" transform="translate(-89.203 -203.335)" fill="#fe646f" fill-rule="evenodd"/>
          </g>
          <g id="Group_1204824" data-name="Group 1204824" transform="translate(11.296 9.051)">
            <path id="Path_1245439" data-name="Path 1245439" d="M141.413,212.477a8.744,8.744,0,0,1,3.887,6.731.521.521,0,0,1-.52.555h-1.043a.521.521,0,0,0,.52-.555,8.747,8.747,0,0,0-3.6-6.532l.015-.026a.521.521,0,0,1,.74-.174Zm-9.981.2q.142-.1.288-.2a.521.521,0,0,1,.74.174l3.586,6.211-.371.642a.519.519,0,0,0-.072.261Zm5.056,7.088a.519.519,0,0,1-.072.261l-.371.642,3.585,6.21a.521.521,0,0,1-.22.728,8.8,8.8,0,0,1-3.373.9,8.789,8.789,0,0,0,4.416-.9.521.521,0,0,0,.22-.728l-3.956-6.852a.519.519,0,0,1-.072-.261h-.157Z" transform="translate(-131.432 -212.388)" fill="#fd4755" fill-rule="evenodd"/>
          </g>
          <circle id="Ellipse_12470" data-name="Ellipse 12470" cx="2.853" cy="2.853" r="2.853" transform="translate(12.714 14.881) rotate(-22.514)" fill="#ffd064"/>
          <path id="Path_1245440" data-name="Path 1245440" d="M176.2,255.763a2.853,2.853,0,1,1-.521,5.658,2.853,2.853,0,0,0,0-5.61A2.881,2.881,0,0,1,176.2,255.763Z" transform="translate(-159.771 -242.189)" fill="#ffc338" fill-rule="evenodd"/>
        </g>
      </g>
      <path id="Path_1245441" data-name="Path 1245441" d="M48.652,43.476a.115.115,0,0,1,.1-.045h.5a.115.115,0,0,1,.1.045.126.126,0,0,1,.044.106l-.25,6.859a.145.145,0,0,1-.147.14.141.141,0,0,1-.142-.141l-.25-6.858A.126.126,0,0,1,48.652,43.476ZM49,52.25A1.809,1.809,0,0,0,50.816,50.5l.245-6.858a1.811,1.811,0,0,0-1.811-1.88h-.5a1.811,1.811,0,0,0-1.811,1.88l.245,6.858A1.807,1.807,0,0,0,49,52.25Zm0,3.083a.421.421,0,1,1,.422-.42A.419.419,0,0,1,49,55.333Zm0-2.509a2.089,2.089,0,1,0,2.091,2.09A2.091,2.091,0,0,0,49,52.824Zm10.718,3.77a2.883,2.883,0,0,0,0-2.909l-8.2-14.2a2.91,2.91,0,0,0-5.04,0l-8.2,14.2A2.909,2.909,0,0,0,40.8,58.048H57.2A2.876,2.876,0,0,0,59.718,56.594ZM12.282,47.94V42.324a17.984,17.984,0,0,0,7.2,2.72,12.43,12.43,0,0,0,18.546,0A27.8,27.8,0,0,0,41.953,44l-4.54,7.869a47.579,47.579,0,0,1-8.657.752c-10.208,0-16.475-2.723-16.475-4.676Zm0-9.817v1.418c0,1.011,1.8,2.431,5.712,3.453a12.234,12.234,0,0,1-1.2-2.8,13.968,13.968,0,0,1-4.515-2.07Zm0-8.389a14.746,14.746,0,0,0,5,2.2,12.378,12.378,0,0,0-.972,4.812,11.964,11.964,0,0,0,.1,1.579c-3.018-1.022-4.127-2.21-4.127-2.983Zm0-4.2v1.41c0,1,1.786,2.437,5.762,3.467a12.607,12.607,0,0,1,1.595-2.131,23.559,23.559,0,0,1-5.781-1.79A9.339,9.339,0,0,1,12.282,25.533Zm0-8.393a13.369,13.369,0,0,0,3.98,1.9,42.924,42.924,0,0,0,12.495,1.654,42.88,42.88,0,0,0,12.495-1.654,13.344,13.344,0,0,0,3.985-1.9v5.6c0,1.357-3.062,3.188-8.922,4.113a12.422,12.422,0,0,0-15.11,0c-5.86-.925-8.922-2.756-8.922-4.113ZM28.756,9.67c-10.208,0-16.475,2.723-16.475,4.676s6.267,4.676,16.475,4.676,16.48-2.724,16.48-4.676S38.969,9.67,28.756,9.67ZM39.469,30.41c3.975-1.031,5.766-2.464,5.766-3.467v-1.41a9.542,9.542,0,0,1-1.575.956,23.608,23.608,0,0,1-5.786,1.79A12.1,12.1,0,0,1,39.469,30.41Zm1.639,7.915a12.886,12.886,0,0,0,.1-1.579,12.375,12.375,0,0,0-.967-4.812,14.836,14.836,0,0,0,5-2.2v5.607c0,.773-1.109,1.962-4.127,2.983ZM28.756,25.964A10.782,10.782,0,1,1,17.974,36.746,10.792,10.792,0,0,1,28.756,25.964Zm14.6,15.6A16.993,16.993,0,0,1,39.523,43a12.259,12.259,0,0,0,1.2-2.8,14.089,14.089,0,0,0,4.515-2.072v.22c-.069.1-.137.2-.2.311Zm17.8,11.291-8.2-14.2A4.592,4.592,0,0,0,46.9,36.868V14.346c0-1.892-1.953-3.514-5.653-4.691A42.845,42.845,0,0,0,28.756,8,42.893,42.893,0,0,0,16.262,9.655c-3.7,1.176-5.649,2.8-5.649,4.691V47.94c0,1.892,1.953,3.514,5.649,4.691a42.893,42.893,0,0,0,12.495,1.653,51.021,51.021,0,0,0,7.7-.563,4.583,4.583,0,0,0,4.353,6H57.2a4.577,4.577,0,0,0,3.96-6.866ZM36.221,13.278c1.914,0,3.087.8,3.087,1.228s-1.173,1.229-3.087,1.229-3.082-.8-3.082-1.229S34.312,13.278,36.221,13.278Zm0,4.126c2.709,0,4.755-1.246,4.755-2.9s-2.046-2.9-4.755-2.9-4.751,1.245-4.751,2.9S33.512,17.4,36.221,17.4ZM21.9,32.788a7.967,7.967,0,0,0-1.016,3.124h4.284a3.682,3.682,0,0,1,1.075-1.857L24.1,30.345A8.01,8.01,0,0,0,21.9,32.788Zm8.878,3.958a2.019,2.019,0,1,0-2.022,2.018A2.023,2.023,0,0,0,30.778,36.746Zm2.635-6.4-2.14,3.709a3.681,3.681,0,0,1,1.075,1.857h4.279A7.937,7.937,0,0,0,33.414,30.347ZM31.971,43.981l-2.14-3.707a3.684,3.684,0,0,1-2.145,0l-2.14,3.706A7.952,7.952,0,0,0,31.971,43.981Zm-5.727-4.543a3.678,3.678,0,0,1-1.075-1.857H20.006a.833.833,0,0,1-.834-.833,9.594,9.594,0,0,1,4.795-8.3.834.834,0,0,1,1.139.305l2.581,4.469a3.686,3.686,0,0,1,2.145,0l2.581-4.468a.835.835,0,0,1,1.139-.305,9.624,9.624,0,0,1,4.795,8.3.835.835,0,0,1-.834.834H32.349a3.679,3.679,0,0,1-1.075,1.857l2.581,4.471a.819.819,0,0,1,.083.634.837.837,0,0,1-.388.506,9.621,9.621,0,0,1-9.584,0,.835.835,0,0,1-.3-1.139Z" fill="#242222" fill-rule="evenodd"/>
    </g>
  </g>
</svg>
