<svg xmlns="http://www.w3.org/2000/svg" width="98" height="97.999" viewBox="0 0 98 97.999">
  <g id="Group_1204925" data-name="Group 1204925" transform="translate(-425.051 -2838.75)">
    <g id="Group_1204525" data-name="Group 1204525" transform="translate(-377.73 300.734)">
      <g id="Group_1204237" data-name="Group 1204237" transform="translate(-1 566)">
        <g id="Group_1204143" data-name="Group 1204143" transform="translate(-67.331 1694.852)">
          <g id="Group_1188789" data-name="Group 1188789" transform="translate(871.113 277.164)">
            <path id="Path_1243039" data-name="Path 1243039" d="M41.05,0h0a41.05,41.05,0,0,1,0,82.1h0a41.05,41.05,0,0,1,0-82.1Z" transform="translate(7.951 7.949)" fill="#ffc94a"/>
            <rect id="Rectangle_400907" data-name="Rectangle 400907" width="88.438" height="88.437" rx="44.218" transform="translate(4.782 4.781)" fill="none"/>
            <g id="Group_1098742" data-name="Group 1098742" transform="translate(0)">
              <g id="Rectangle_400898" data-name="Rectangle 400898" transform="translate(0)" fill="none" stroke="#fff" stroke-width="2" opacity="0.859">
                <rect width="98" height="97.999" rx="48.999" stroke="none"/>
                <rect x="1" y="1" width="96" height="95.999" rx="47.999" fill="none"/>
              </g>
              <g id="Rectangle_400907-2" data-name="Rectangle 400907" transform="translate(0)" fill="none" stroke="#0f1f33" stroke-linecap="round" stroke-width="2">
                <rect width="98" height="97.999" rx="48.999" stroke="none"/>
                <rect x="1" y="1" width="96" height="95.999" rx="47.999" fill="none"/>
              </g>
            </g>
          </g>
        </g>
      </g>
    </g>
    <g id="agua-contaminada" transform="translate(447.271 2857.148)">
      <g id="Group_1204923" data-name="Group 1204923" transform="translate(0.817 3.934)">
        <path id="Path_1245870" data-name="Path 1245870" d="M12.609,355.2l-4.355,7.544a5.44,5.44,0,1,0,9.423,0L13.321,355.2a.411.411,0,0,0-.712,0Z" transform="translate(-7.516 -317.57)" fill="#99e6fc"/>
        <path id="Path_1245871" data-name="Path 1245871" d="M14.325,370.74a5.576,5.576,0,0,1-1.358.166,5.44,5.44,0,0,1-4.712-8.16L12.61,355.2a.412.412,0,0,1,.713,0l1,1.736-3.354,5.809a5.446,5.446,0,0,0,3.354,7.994Z" transform="translate(-7.517 -317.573)" fill="#62dbfb"/>
        <path id="Path_1245872" data-name="Path 1245872" d="M227.346,45.088h4.89v9.693h-4.89Z" transform="translate(-203.457 -41.342)" fill="#7ca1b1"/>
        <path id="Path_1245873" data-name="Path 1245873" d="M68.575,138v8.3H31.721a3.954,3.954,0,0,0-3.954,3.953v6.285a.869.869,0,0,1-.869.869H20.336a.869.869,0,0,1-.869-.869v-6.285A12.253,12.253,0,0,1,31.721,138Z" transform="translate(-18.168 -124.155)" fill="#7ca1b1"/>
        <path id="Path_1245874" data-name="Path 1245874" d="M22.184,150.251v6.285a.869.869,0,0,0,.869.869H20.336a.869.869,0,0,1-.869-.869v-6.285A12.253,12.253,0,0,1,31.721,138h2.717A12.253,12.253,0,0,0,22.184,150.251Z" transform="translate(-18.168 -124.155)" fill="#678d98"/>
        <path id="Path_1245875" data-name="Path 1245875" d="M196.769,118.822h-7.123a3.344,3.344,0,0,1-3.344-3.344v-9.242a3.344,3.344,0,0,1,3.344-3.344h7.123a3.344,3.344,0,0,1,3.344,3.344v9.242A3.344,3.344,0,0,1,196.769,118.822Z" transform="translate(-166.873 -92.865)" fill="#bad6e5"/>
        <path id="Path_1245876" data-name="Path 1245876" d="M192.363,118.813h-2.717a3.344,3.344,0,0,1-3.344-3.344v-9.243a3.344,3.344,0,0,1,3.344-3.344h2.717a3.344,3.344,0,0,0-3.344,3.344v9.243A3.344,3.344,0,0,0,192.363,118.813Z" transform="translate(-166.873 -92.857)" fill="#8abbd5"/>
        <path id="Path_1245877" data-name="Path 1245877" d="M384.984,130.23h-2.952a1.739,1.739,0,0,1-1.739-1.739v-9.284a1.739,1.739,0,0,1,1.739-1.739h2.952a1.739,1.739,0,0,1,1.739,1.739v9.284A1.739,1.739,0,0,1,384.984,130.23Z" transform="translate(-339.783 -105.857)" fill="#bad6e5"/>
        <path id="Path_1245878" data-name="Path 1245878" d="M27.767,284.067v2.665a.869.869,0,0,1-.869.869H20.336a.869.869,0,0,1-.869-.869v-2.665Z" transform="translate(-18.168 -254.351)" fill="#bad6e5"/>
        <path id="Path_1245879" data-name="Path 1245879" d="M23.053,287.6H20.336a.869.869,0,0,1-.869-.869v-2.665h2.717v2.665A.869.869,0,0,0,23.053,287.6Z" transform="translate(-18.168 -254.351)" fill="#8abbd5"/>
        <path id="Path_1245880" data-name="Path 1245880" d="M137.919,14.3l-7.03,1.251a2.447,2.447,0,1,1,0-4.818l7.03,1.251Z" transform="translate(-114.919 -10.686)" fill="#7ca1b1"/>
        <path id="Path_1245881" data-name="Path 1245881" d="M272.346,11.984l7.03-1.251a2.447,2.447,0,1,1,0,4.818l-7.03-1.251Z" transform="translate(-243.566 -10.686)" fill="#7ca1b1"/>
        <path id="Path_1245882" data-name="Path 1245882" d="M218.868,15.531h-5.632a1.3,1.3,0,0,1-1.3-1.3v-2.3a1.3,1.3,0,0,1,1.3-1.3h5.632a1.3,1.3,0,0,1,1.3,1.3v2.3A1.3,1.3,0,0,1,218.868,15.531Z" transform="translate(-189.717 -10.62)" fill="#bad6e5"/>
        <path id="Path_1245883" data-name="Path 1245883" d="M215.952,15.533h-2.717a1.3,1.3,0,0,1-1.3-1.3v-2.3a1.305,1.305,0,0,1,1.3-1.3h2.717a1.305,1.305,0,0,0-1.3,1.3v2.3A1.3,1.3,0,0,0,215.952,15.533Z" transform="translate(-189.717 -10.622)" fill="#8abbd5"/>
        <path id="Path_1245884" data-name="Path 1245884" d="M427,108.486h-6.131a1.565,1.565,0,0,1-1.565-1.565V91.251a1.565,1.565,0,0,1,1.565-1.565H427a1.565,1.565,0,0,1,1.565,1.565V106.92A1.565,1.565,0,0,1,427,108.486Z" transform="translate(-374.55 -81.094)" fill="#7ca1b1"/>
        <path id="Path_1245885" data-name="Path 1245885" d="M423.581,108.488h-2.717a1.565,1.565,0,0,1-1.565-1.565V91.254a1.565,1.565,0,0,1,1.565-1.565h2.717a1.565,1.565,0,0,0-1.565,1.565v15.669A1.565,1.565,0,0,0,423.581,108.488Z" transform="translate(-374.55 -81.096)" fill="#678d98"/>
        <circle id="Ellipse_12489" data-name="Ellipse 12489" cx="10.794" cy="10.794" r="10.794" transform="translate(19.661 28.614)" fill="#99e6fc"/>
        <path id="Path_1245886" data-name="Path 1245886" d="M200.589,295.43a10.794,10.794,0,1,1,0-21.418,10.8,10.8,0,0,0,0,21.418Z" transform="translate(-168.776 -245.313)" fill="#62dbfb"/>
        <circle id="Ellipse_12490" data-name="Ellipse 12490" cx="1.638" cy="1.638" r="1.638" transform="translate(29.276 34.039)" fill="#bbec6c"/>
        <path id="Path_1245887" data-name="Path 1245887" d="M241.718,395.6A3.729,3.729,0,0,1,236.7,394a1.63,1.63,0,1,1,2.9-1.5.465.465,0,0,0,.626.2,1.63,1.63,0,0,1,1.5,2.9Z" transform="translate(-211.63 -350.215)" fill="#fe646f"/>
      </g>
      <g id="Group_1204924" data-name="Group 1204924" transform="translate(0 3.119)">
        <path id="Path_1245888" data-name="Path 1245888" d="M65.493,25.738a.815.815,0,0,0,.815-.815V14.091a2.383,2.383,0,0,0-2.38-2.38H57.8a2.383,2.383,0,0,0-2.38,2.38v.639H53.732A2.557,2.557,0,0,0,51.2,16.961H45.522a4.164,4.164,0,0,0-4.144-3.815h-.3V9.613a2.123,2.123,0,0,0,1.294-.862l4.778.85a3.262,3.262,0,1,0,0-6.423l-4.779.85a2.117,2.117,0,0,0-1.737-.909H35A2.118,2.118,0,0,0,33.174,4.17L27.6,3.178a3.262,3.262,0,1,0,0,6.423l5.578-.993a2.124,2.124,0,0,0,1.384,1v3.533h-.3a4.164,4.164,0,0,0-4.144,3.815H25.035A13.084,13.084,0,0,0,11.966,30.03v3.614s0,0,0,.006,0,0,0,.006v2.658A1.686,1.686,0,0,0,13.651,38h6.562A1.686,1.686,0,0,0,21.9,36.315V30.03a3.142,3.142,0,0,1,3.138-3.138h5.076a4.164,4.164,0,0,0,4.143,3.815h7.123a4.164,4.164,0,0,0,4.143-3.815H51.2a2.557,2.557,0,0,0,2.533,2.23h1.684v.639a2.383,2.383,0,0,0,2.38,2.38h6.131a2.383,2.383,0,0,0,2.38-2.38V28.726a.815.815,0,1,0-1.63,0v1.035a.751.751,0,0,1-.75.75H57.8a.751.751,0,0,1-.75-.75V14.091a.751.751,0,0,1,.75-.75h6.131a.751.751,0,0,1,.75.75V24.923a.815.815,0,0,0,.815.815ZM47.435,4.783a1.632,1.632,0,1,1,.29,3.239A1.646,1.646,0,0,1,47.435,8l-4.683-.834V5.616ZM27.311,8a1.632,1.632,0,1,1-.291-3.239,1.656,1.656,0,0,1,.291.025l5.571.991V7Zm7.2-2.758A.49.49,0,0,1,35,4.749h5.632a.49.49,0,0,1,.489.489v2.3a.49.49,0,0,1-.489.489H35a.49.49,0,0,1-.489-.489ZM36.187,9.66h3.26v3.486h-3.26ZM20.212,36.369H13.651a.054.054,0,0,1-.054-.054v-1.85h6.67v1.85A.054.054,0,0,1,20.212,36.369Zm.054-6.339v2.8H13.6v-2.8A11.452,11.452,0,0,1,25.035,18.592H30.1v6.67H25.035a4.774,4.774,0,0,0-4.769,4.769Zm23.641-3.483a2.532,2.532,0,0,1-2.529,2.529H34.255a2.532,2.532,0,0,1-2.529-2.529V17.3a2.532,2.532,0,0,1,2.529-2.529h7.123A2.532,2.532,0,0,1,43.907,17.3V19.2a.815.815,0,0,0,1.63,0v-.6h5.641v6.67H45.537V23a.815.815,0,0,0-1.63,0Zm9.825.944a.925.925,0,0,1-.924-.924V17.284a.925.925,0,0,1,.924-.924h1.684V27.492Z" transform="translate(-10.666 -3.119)"/>
        <path id="Path_1245889" data-name="Path 1245889" d="M41.773,460.186l-.417-.348a.815.815,0,0,0-1.044,1.252l.417.348a.815.815,0,0,0,1.044-1.252Z" transform="translate(-35.67 -410.037)"/>
        <path id="Path_1245890" data-name="Path 1245890" d="M40.987,412.158a.813.813,0,0,0,.576-.239l.384-.384a.815.815,0,0,0-1.153-1.153l-.384.384a.815.815,0,0,0,.576,1.391Z" transform="translate(-35.807 -365.912)"/>
        <path id="Path_1245891" data-name="Path 1245891" d="M68.372,445.928h-.543a.815.815,0,0,0,0,1.63h.543a.815.815,0,1,0,0-1.63Z" transform="translate(-59.731 -397.807)"/>
        <path id="Path_1245892" data-name="Path 1245892" d="M259.039,304.814a2.423,2.423,0,0,0,.1-.245H260.3a.815.815,0,1,0,0-1.63H259.14a2.45,2.45,0,0,0-.1-.245l.819-.819a.815.815,0,0,0-1.153-1.153l-.819.819a2.456,2.456,0,0,0-.244-.1v-1.159a.815.815,0,0,0-1.63,0v1.159a2.423,2.423,0,0,0-.245.1l-.819-.819a.815.815,0,0,0-1.153,1.153l.819.819a2.436,2.436,0,0,0-.1.245h-1.158a.815.815,0,1,0,0,1.63h1.158a2.455,2.455,0,0,0,.1.245l-.819.819a.815.815,0,0,0,1.153,1.153l.819-.819a2.433,2.433,0,0,0,.245.1v1.158a.815.815,0,0,0,1.63,0v-1.158a2.425,2.425,0,0,0,.245-.1l.819.819a.815.815,0,0,0,1.153-1.153Zm-2.212-1.883h0a.823.823,0,1,1-.009,0Z" transform="translate(-225.096 -267.262)"/>
        <path id="Path_1245893" data-name="Path 1245893" d="M31.272,266.425a11.624,11.624,0,0,0-11.58,10.793H13.777a2.44,2.44,0,0,0-1.879.882l-1.931,2.32-2.64-4.572a1.23,1.23,0,0,0-1.062-.613h0a1.23,1.23,0,0,0-1.062.613L.848,283.392a6.255,6.255,0,0,0,5.417,9.383,6.255,6.255,0,0,0,5.417-9.383l-.847-1.467,2.315-2.781a.814.814,0,0,1,.627-.295h5.914a11.609,11.609,0,1,0,11.58-12.424Zm-21,22.407a4.625,4.625,0,0,1-8.011,0,4.579,4.579,0,0,1,0-4.625l4.006-6.938,4.006,6.938A4.579,4.579,0,0,1,10.271,288.832Zm21-.819a9.99,9.99,0,0,1-9.979-9.975s0,0,0,0,0,0,0,0a9.979,9.979,0,1,1,9.979,9.984Z" transform="translate(0 -237.811)"/>
        <path id="Path_1245894" data-name="Path 1245894" d="M235.033,385.139a2.427,2.427,0,0,0-1.563.026,2.445,2.445,0,0,0-4.174,2.527,4.508,4.508,0,0,0,2.656,2.239,4.559,4.559,0,0,0,1.385.217,4.512,4.512,0,0,0,2.076-.508,2.445,2.445,0,0,0-.381-4.5Zm.034,2.577a.81.81,0,0,1-.4.477h0a2.914,2.914,0,0,1-3.921-1.249.815.815,0,0,1,1.448-.749,1.28,1.28,0,0,0,1.724.549.815.815,0,0,1,1.151.971Z" transform="translate(-204.135 -342.721)"/>
        <path id="Path_1245895" data-name="Path 1245895" d="M227.408,346.352v-.543a.815.815,0,1,0-1.63,0v.543a.815.815,0,1,0,1.63,0Z" transform="translate(-201.242 -307.842)"/>
        <path id="Path_1245896" data-name="Path 1245896" d="M344.005,348.215l-.251.482a.815.815,0,1,0,1.446.752l.251-.482a.815.815,0,1,0-1.446-.752Z" transform="translate(-306.316 -310.321)"/>
        <path id="Path_1245897" data-name="Path 1245897" d="M324.564,402.8a.815.815,0,1,0-1.153,1.152l.384.384a.815.815,0,0,0,1.153-1.152Z" transform="translate(-288.053 -359.154)"/>
      </g>
    </g>
  </g>
</svg>
