<svg xmlns="http://www.w3.org/2000/svg" width="98" height="97.999" viewBox="0 0 98 97.999">
  <g id="Group_1204744" data-name="Group 1204744" transform="translate(4736.25 8032.984)">
    <g id="Group_1204532" data-name="Group 1204532" transform="translate(-5539.031 -10571)">
      <g id="Group_1204237" data-name="Group 1204237" transform="translate(-1 566)">
        <g id="Group_1204143" data-name="Group 1204143" transform="translate(-67.331 1694.852)">
          <g id="Group_1188789" data-name="Group 1188789" transform="translate(871.113 277.164)">
            <path id="Path_1243039" data-name="Path 1243039" d="M41.05,0h0a41.05,41.05,0,0,1,0,82.1h0a41.05,41.05,0,0,1,0-82.1Z" transform="translate(7.951 7.949)" fill="#ffc94a"/>
            <rect id="Rectangle_400907" data-name="Rectangle 400907" width="88.438" height="88.437" rx="44.218" transform="translate(4.782 4.781)" fill="none"/>
            <g id="Group_1098742" data-name="Group 1098742" transform="translate(0)">
              <g id="Rectangle_400898" data-name="Rectangle 400898" transform="translate(0)" fill="none" stroke="#fff" stroke-width="2" opacity="0.859">
                <rect width="98" height="97.999" rx="48.999" stroke="none"/>
                <rect x="1" y="1" width="96" height="95.999" rx="47.999" fill="none"/>
              </g>
              <g id="Rectangle_400907-2" data-name="Rectangle 400907" transform="translate(0)" fill="none" stroke="#0f1f33" stroke-linecap="round" stroke-width="2">
                <rect width="98" height="97.999" rx="48.999" stroke="none"/>
                <rect x="1" y="1" width="96" height="95.999" rx="47.999" fill="none"/>
              </g>
            </g>
          </g>
        </g>
      </g>
    </g>
    <g id="lista-de-verificacion" transform="translate(-4715.18 -8007.798)">
      <g id="Group_1204742" data-name="Group 1204742" transform="translate(1.905 1.886)">
        <g id="Group_1204735" data-name="Group 1204735" transform="translate(28.96 7.24)">
          <path id="Path_1245123" data-name="Path 1245123" d="M40.335,17.24H34.9a.908.908,0,0,1-.9-.9V10.9a.908.908,0,0,1,.9-.9h5.43a.908.908,0,0,1,.9.9v5.43A.908.908,0,0,1,40.335,17.24Z" transform="translate(-34 -10)" fill="#fcd770"/>
        </g>
        <g id="Group_1204736" data-name="Group 1204736" transform="translate(28.96 23.53)">
          <path id="Path_1245124" data-name="Path 1245124" d="M40.335,35.24H34.9a.908.908,0,0,1-.9-.9V28.9a.908.908,0,0,1,.9-.9h5.43a.908.908,0,0,1,.9.9v5.43A.908.908,0,0,1,40.335,35.24Z" transform="translate(-34 -28)" fill="#fcd770"/>
        </g>
        <g id="Group_1204737" data-name="Group 1204737" transform="translate(28.96 38.01)">
          <path id="Path_1245125" data-name="Path 1245125" d="M40.335,51.24H34.9a.908.908,0,0,1-.9-.9V44.9a.908.908,0,0,1,.9-.9h5.43a.908.908,0,0,1,.9.9v5.43A.908.908,0,0,1,40.335,51.24Z" transform="translate(-34 -44)" fill="#fcd770"/>
        </g>
        <g id="Group_1204738" data-name="Group 1204738" transform="translate(0 0)">
          <path id="Path_1245126" data-name="Path 1245126" d="M19.231,21.81,14.67,24.471V23.72a1.815,1.815,0,0,0-1.81-1.81,1.823,1.823,0,0,0-1.81,1.81v.751L6.489,21.81A9.047,9.047,0,0,1,2,14V2.9l1.674.833a7.2,7.2,0,0,0,7.249-.452L12.86,2,14.8,3.285a7.2,7.2,0,0,0,7.249.452L23.72,2.9V14A9.047,9.047,0,0,1,19.231,21.81Z" transform="translate(-2 -2)" fill="#aab2bd"/>
        </g>
        <g id="Group_1204739" data-name="Group 1204739" transform="translate(8.145 47.059)">
          <path id="Path_1245127" data-name="Path 1245127" d="M21.86,54l1.81,7.24H11L11.9,54Z" transform="translate(-11 -54)" fill="#b4dd7f"/>
        </g>
        <g id="Group_1204740" data-name="Group 1204740" transform="translate(0 19.91)">
          <path id="Path_1245128" data-name="Path 1245128" d="M21.91,34.86h1.81a1.815,1.815,0,0,1,1.81,1.81v2.045a18.049,18.049,0,0,1-2.751,9.593L21,51.15H11.05l-1.24-.932a9.049,9.049,0,0,1-3.24-4.634l-1.2-4.018a6.294,6.294,0,0,0-2.552-3.448L2.7,38.036a1.567,1.567,0,0,1,.172-2.706l.145-.072a3.78,3.78,0,0,1,5.276,2.19L9,39.575a1.05,1.05,0,0,0,2.045-.335V25.81A1.823,1.823,0,0,1,12.86,24a1.815,1.815,0,0,1,1.81,1.81v5.43h1.81a1.815,1.815,0,0,1,1.81,1.81H20.1a1.815,1.815,0,0,1,1.81,1.81Z" transform="translate(-2 -24)" fill="#f0d0b4"/>
        </g>
        <g id="Group_1204741" data-name="Group 1204741" transform="translate(5.43 5.43)">
          <path id="Path_1245129" data-name="Path 1245129" d="M18.86,12.525v1.81a.908.908,0,0,1-.9.9H15.24v2.715a.908.908,0,0,1-.9.9h-1.81a.908.908,0,0,1-.9-.9V15.24H8.9a.908.908,0,0,1-.9-.9v-1.81a.908.908,0,0,1,.9-.9H11.62V8.9a.908.908,0,0,1,.9-.9h1.81a.908.908,0,0,1,.9.9V11.62h2.715A.908.908,0,0,1,18.86,12.525Z" transform="translate(-8 -8)" fill="#ff826e"/>
        </g>
      </g>
      <g id="Group_1204743" data-name="Group 1204743" transform="translate(1 0.798)">
        <path id="Path_1245130" data-name="Path 1245130" d="M10.62,17.86a1.812,1.812,0,0,0,1.81,1.81h1.81a1.812,1.812,0,0,0,1.81-1.81V16.05h1.81a1.812,1.812,0,0,0,1.81-1.81V12.43a1.812,1.812,0,0,0-1.81-1.81H16.05V8.81A1.812,1.812,0,0,0,14.24,7H12.43a1.812,1.812,0,0,0-1.81,1.81v1.81H8.81A1.812,1.812,0,0,0,7,12.43v1.81a1.812,1.812,0,0,0,1.81,1.81h1.81ZM8.81,14.24V12.43h3.62V8.81h1.81v3.62h3.62v1.81H14.24v3.62H12.43V14.24Z" transform="translate(-1.57 -1.387)"/>
        <path id="Path_1245131" data-name="Path 1245131" d="M23.625,31.75H22.553A2.711,2.711,0,0,0,20,29.94H18.933a2.711,2.711,0,0,0-2.548-1.81h-.9V24.88l4.111-2.4a9.989,9.989,0,0,0,4.939-8.6V1.327L21.548,2.817a6.349,6.349,0,0,1-6.348-.4L12.765.8,10.33,2.422a6.346,6.346,0,0,1-6.348.4L1,1.327V13.883a9.987,9.987,0,0,0,4.939,8.6l4.111,2.4V37.034a.152.152,0,0,1-.286.046l-.708-2.124a4.689,4.689,0,0,0-6.545-2.71l-.143.071A2.473,2.473,0,0,0,2.1,36.588l.119.08a5.446,5.446,0,0,1,2.189,2.958l1.2,4.012a9.881,9.881,0,0,0,3.563,5.1l.817.613L9.025,57.09H23.879l-2-7.991,1.569-2.511a18.987,18.987,0,0,0,2.89-10.073V34.465a2.718,2.718,0,0,0-2.715-2.715ZM2.81,13.882V4.255l.362.181a8.161,8.161,0,0,0,8.161-.509l1.432-.954,1.432.955a8.164,8.164,0,0,0,8.161.509l.362-.181v9.627a8.173,8.173,0,0,1-4.041,7.035L15.36,22.854a2.7,2.7,0,0,0-5.191,0L6.851,20.918A8.172,8.172,0,0,1,2.81,13.882Zm8.265,41.4.679-5.43H20.2l1.357,5.43ZM24.53,36.514a17.182,17.182,0,0,1-2.614,9.113L20.408,48.04H11.256l-1-.747a8.088,8.088,0,0,1-2.914-4.176l-1.2-4.012a7.258,7.258,0,0,0-2.919-3.943l-.119-.08a.665.665,0,0,1,.071-1.148l.142-.071a2.88,2.88,0,0,1,4.02,1.664l.708,2.124a1.957,1.957,0,0,0,3.813-.619V23.606a.9.9,0,1,1,1.81,0V37.18h1.81V29.94h.9a.905.905,0,0,1,.9.9V37.18H19.1V31.75H20a.905.905,0,0,1,.9.9V37.18h1.81V33.56h.9a.905.905,0,0,1,.9.9Z" transform="translate(-1 -0.798)"/>
        <path id="Path_1245132" data-name="Path 1245132" d="M33.083,1l-4.79,4.79,1.28,1.28,4.26-4.26H59.7V1Z" transform="translate(-3.593 -0.817)"/>
        <path id="Path_1245133" data-name="Path 1245133" d="M41.314,9.1a1.8,1.8,0,0,0-1.074-.361H34.81A1.812,1.812,0,0,0,33,10.553v5.43a1.812,1.812,0,0,0,1.81,1.81h5.43a1.812,1.812,0,0,0,1.81-1.81V10.927L45.4,7.573l-1.28-1.28ZM40.24,15.983H34.81v-5.43h5.055l-2.34,2.34-1.17-1.17L35.075,13l2.45,2.45,2.715-2.715Z" transform="translate(-4.04 -1.32)"/>
        <path id="Path_1245134" data-name="Path 1245134" d="M41.314,27.1a1.8,1.8,0,0,0-1.074-.361H34.81A1.812,1.812,0,0,0,33,28.553v5.43a1.812,1.812,0,0,0,1.81,1.81h5.43a1.812,1.812,0,0,0,1.81-1.81V28.927L45.4,25.573l-1.28-1.28ZM40.24,33.983H34.81v-5.43h5.055l-2.34,2.34-1.17-1.17L35.075,31l2.45,2.45,2.715-2.715Z" transform="translate(-4.04 -3.03)"/>
        <path id="Path_1245135" data-name="Path 1245135" d="M44.125,40.293,41.314,43.1a1.8,1.8,0,0,0-1.074-.361H34.81A1.812,1.812,0,0,0,33,44.553v5.43a1.812,1.812,0,0,0,1.81,1.81h5.43a1.812,1.812,0,0,0,1.81-1.81V44.927L45.4,41.573Zm-3.885,9.69H34.81v-5.43h5.055l-2.34,2.34-1.17-1.17L35.075,47l2.45,2.45,2.715-2.715Z" transform="translate(-4.04 -4.55)"/>
        <path id="Path_1245136" data-name="Path 1245136" d="M47,15H61.48v1.81H47Z" transform="translate(-5.37 -2.147)"/>
        <path id="Path_1245137" data-name="Path 1245137" d="M47,11h3.62v1.81H47Z" transform="translate(-5.37 -1.767)"/>
        <path id="Path_1245138" data-name="Path 1245138" d="M53,11h9.05v1.81H53Z" transform="translate(-5.941 -1.767)"/>
        <path id="Path_1245139" data-name="Path 1245139" d="M47,33H61.48v1.81H47Z" transform="translate(-5.37 -3.858)"/>
        <path id="Path_1245140" data-name="Path 1245140" d="M47,29h3.62v1.81H47Z" transform="translate(-5.37 -3.477)"/>
        <path id="Path_1245141" data-name="Path 1245141" d="M53,29h9.05v1.81H53Z" transform="translate(-5.941 -3.477)"/>
        <path id="Path_1245142" data-name="Path 1245142" d="M47,49H61.48v1.81H47Z" transform="translate(-5.37 -5.378)"/>
        <path id="Path_1245143" data-name="Path 1245143" d="M47,45h3.62v1.81H47Z" transform="translate(-5.37 -4.998)"/>
        <path id="Path_1245144" data-name="Path 1245144" d="M53,45h9.05v1.81H53Z" transform="translate(-5.941 -4.998)"/>
      </g>
    </g>
  </g>
</svg>
