<svg xmlns="http://www.w3.org/2000/svg" width="98" height="97.998" viewBox="0 0 98 97.998">
  <g id="Group_1204835" data-name="Group 1204835" transform="translate(-752.051 -8260)">
    <g id="Group_1204613" data-name="Group 1204613" transform="translate(-50.73 5721.984)">
      <g id="Group_1204237" data-name="Group 1204237" transform="translate(-1 566)">
        <g id="Group_1204143" data-name="Group 1204143" transform="translate(-67.331 1694.852)">
          <g id="Group_1188789" data-name="Group 1188789" transform="translate(871.113 277.164)">
            <path id="Path_1243039" data-name="Path 1243039" d="M41.05,0h0a41.05,41.05,0,0,1,0,82.1h0a41.05,41.05,0,0,1,0-82.1Z" transform="translate(7.951 7.949)" fill="#ffc94a"/>
            <rect id="Rectangle_400907" data-name="Rectangle 400907" width="88.438" height="88.437" rx="44.218" transform="translate(4.782 4.781)" fill="none"/>
            <g id="Group_1098742" data-name="Group 1098742" transform="translate(0)">
              <g id="Rectangle_400898" data-name="Rectangle 400898" transform="translate(0)" fill="none" stroke="#fff" stroke-width="2" opacity="0.859">
                <rect width="98" height="97.999" rx="48.999" stroke="none"/>
                <rect x="1" y="1" width="96" height="95.999" rx="47.999" fill="none"/>
              </g>
              <g id="Rectangle_400907-2" data-name="Rectangle 400907" transform="translate(0)" fill="none" stroke="#0f1f33" stroke-linecap="round" stroke-width="2">
                <rect width="98" height="97.999" rx="48.999" stroke="none"/>
                <rect x="1" y="1" width="96" height="95.999" rx="47.999" fill="none"/>
              </g>
            </g>
          </g>
        </g>
      </g>
    </g>
    <g id="productos-de-limpieza" transform="translate(773.051 8281)">
      <path id="Path_1245453" data-name="Path 1245453" d="M49.719,14.785,37.23,7.183V2H30.319V7.183A8.9,8.9,0,0,0,26,14.811V50.374a3.455,3.455,0,0,0,3.455,3.455H53.642A3.455,3.455,0,0,0,57.1,50.374V27.915a15.37,15.37,0,0,0-7.38-13.131Zm3.923,19.177H50.187a4.174,4.174,0,0,1-2.95-1.221l-5.331-5.332a4.167,4.167,0,0,1-1.221-2.949V18.5A2.678,2.678,0,0,1,44.8,16.241l3.014,1.919a12.588,12.588,0,0,1,5.831,10.619Z" transform="translate(-3.404 -0.136)" fill="#a97ae1"/>
      <path id="Path_1245454" data-name="Path 1245454" d="M30,14.957V37.417H57.642v-9.5a15.37,15.37,0,0,0-7.38-13.131l-12.488-7.6V2H34.319V8.047C31.641,9.654,30,11.833,30,14.957ZM41.23,18.5a2.678,2.678,0,0,1,4.113-2.258l3.014,1.919a12.589,12.589,0,0,1,5.831,10.619v5.183H50.732a4.174,4.174,0,0,1-2.95-1.221l-5.331-5.332a4.167,4.167,0,0,1-1.221-2.949Z" transform="translate(-3.949 -0.136)" fill="#b28de7"/>
      <path id="Path_1245455" data-name="Path 1245455" d="M26,43H57.1V55.094H26Z" transform="translate(-3.404 -5.719)" fill="#f47269"/>
      <path id="Path_1245456" data-name="Path 1245456" d="M57.718,57H30.554a3.441,3.441,0,0,0,2.977,1.728H57.6a3.436,3.436,0,0,0,.123-.864Z" transform="translate(-4.025 -7.626)" fill="#b28de7"/>
      <path id="Path_1245457" data-name="Path 1245457" d="M30,53.366a3.424,3.424,0,0,0,.479,1.728H57.642V43H30Z" transform="translate(-3.949 -5.719)" fill="#ff918f"/>
      <path id="Path_1245458" data-name="Path 1245458" d="M12,27h8.638v3.455H12Z" transform="translate(-1.498 -3.541)" fill="#a3e1bf"/>
      <path id="Path_1245459" data-name="Path 1245459" d="M12.774,25.5l-2.591-6.047H5V16H16.23l6.911,5.183-5.183,1.728V25.5Z" transform="translate(-0.545 -2.043)" fill="#facb46"/>
      <path id="Path_1245460" data-name="Path 1245460" d="M5.455,20a6.911,6.911,0,0,1-2.764,5.528L2,26.047h.864A6.047,6.047,0,0,0,8.911,20Z" transform="translate(-0.136 -2.587)" fill="#4ab081"/>
      <path id="Path_1245461" data-name="Path 1245461" d="M13.319,31v1.956a1.029,1.029,0,0,1-.569.92,2.1,2.1,0,0,0,0,3.751,1.029,1.029,0,0,1,.569.92,1.929,1.929,0,0,1-.936,1.653l-1.161.7A4.578,4.578,0,0,0,9,44.821V57.779H23.685V43.513A17.7,17.7,0,0,0,18.5,31Z" transform="translate(-1.089 -4.085)" fill="#4ab081"/>
      <path id="Path_1245462" data-name="Path 1245462" d="M9,47H23.685v9.5H9Z" transform="translate(-1.089 -6.264)" fill="#e3b233"/>
      <path id="Path_1245463" data-name="Path 1245463" d="M15.946,30.455h5.218V27h-5.3a22.185,22.185,0,0,1,.084,3.455Z" transform="translate(-2.024 -3.541)" fill="#80cda5"/>
      <path id="Path_1245464" data-name="Path 1245464" d="M15.44,25.5h3.575V22.911L24.2,21.183,17.287,16H12.764L14.3,20.344A22.217,22.217,0,0,1,15.44,25.5Z" transform="translate(-1.602 -2.043)" fill="#f9d26e"/>
      <path id="Path_1245465" data-name="Path 1245465" d="M15.1,34.642a3.958,3.958,0,0,0,.47,2.895,3.957,3.957,0,0,1-.925,5.125,4.309,4.309,0,0,0-1.438,2.16h11.05V43.513A17.7,17.7,0,0,0,19.075,31H15.584a22.244,22.244,0,0,1-.483,3.642Z" transform="translate(-1.662 -4.085)" fill="#62be90"/>
      <path id="Path_1245466" data-name="Path 1245466" d="M13,48.209v5.01A3.283,3.283,0,0,0,16.283,56.5H24.23V47H13.18A4.3,4.3,0,0,0,13,48.209Z" transform="translate(-1.634 -6.264)" fill="#facb46"/>
      <ellipse id="Ellipse_12472" data-name="Ellipse 12472" cx="5.5" cy="1.5" rx="5.5" ry="1.5" transform="translate(11 43.557)" fill="#ffe29c"/>
      <path id="Path_1245467" data-name="Path 1245467" d="M14.124,16c.41,1.159,2.021,2.387,4.158,3.035a8.444,8.444,0,0,0,3.692.346L17.472,16Z" transform="translate(-1.787 -2.043)" fill="#ffe29c"/>
      <path id="Path_1245468" data-name="Path 1245468" d="M21.857,33.325a1.6,1.6,0,0,0-.542,2.037l1.138,2.275a2.791,2.791,0,0,1,.3,1.25,2.787,2.787,0,0,0,2.44,2.764,17.671,17.671,0,0,0-3.331-8.326Z" transform="translate(-2.744 -4.402)" fill="#8ecfa6"/>
      <ellipse id="Ellipse_12473" data-name="Ellipse 12473" cx="3.5" cy="5" rx="3.5" ry="5" transform="translate(27 13.557)" fill="#fb9a4f"/>
      <path id="Path_1245469" data-name="Path 1245469" d="M40.35,11.945a3.042,3.042,0,0,0,1.02.673l5.35,2.14a5.538,5.538,0,0,0,3.608.167L39.764,8.494a3.032,3.032,0,0,0,.586,3.451Z" transform="translate(-5.238 -1.02)" fill="#ccbaf5"/>
      <path id="Path_1245470" data-name="Path 1245470" d="M31,2h6.911V7.183H31Z" transform="translate(-4.085 -0.136)" fill="#4ab081"/>
      <path id="Path_1245471" data-name="Path 1245471" d="M34,2h4.319V7.183H34Z" transform="translate(-4.494 -0.136)" fill="#62be90"/>
      <ellipse id="Ellipse_12474" data-name="Ellipse 12474" cx="2.16" cy="4.803" rx="2.16" ry="4.803" transform="translate(29.506 13.474)" fill="#ffab6f"/>
      <path id="Path_1245472" data-name="Path 1245472" d="M55.685,36.38H52.23a4.174,4.174,0,0,1-2.95-1.221l-5.331-5.332a4.167,4.167,0,0,1-1.221-2.949v-5.96A2.66,2.66,0,0,1,43,19.763a4.558,4.558,0,0,0-2,3.766v4.051a4.563,4.563,0,0,0,1.335,3.225l5.086,5.086a4.616,4.616,0,0,0,3.265,1.353h5.862l-.864-1.3Z" transform="translate(-5.447 -2.555)" fill="#a97ae1"/>
      <path id="Path_1245473" data-name="Path 1245473" d="M46.764,13.911,34.689,6.561v-4.7A.864.864,0,0,0,33.825,1H26.915a.864.864,0,0,0-.864.864V6.573a9.814,9.814,0,0,0-4.319,8.1v2.737L16.2,13.266a.864.864,0,0,0-.518-.173H4.455a.864.864,0,0,0-.864.864v3.455a.857.857,0,0,0,.8.85A6.081,6.081,0,0,1,2.037,22.25l-.691.518a.864.864,0,0,0,.518,1.555h.864A6.917,6.917,0,0,0,9.421,19.1l1.5,3.5H10.5a.864.864,0,0,0-.864.864v3.455a.864.864,0,0,0,.864.864h.864V28.87a.166.166,0,0,1-.091.148,2.959,2.959,0,0,0,0,5.294.168.168,0,0,1,.092.149,1.07,1.07,0,0,1-.518.913l-1.161.7a5.468,5.468,0,0,0-2.641,4.666V53.693a.864.864,0,0,0,.864.864H22.6a.864.864,0,0,0,.864-.864v-.022a4.274,4.274,0,0,0,2.591.886H50.238a4.324,4.324,0,0,0,4.319-4.319V27.779a16.326,16.326,0,0,0-7.793-13.868ZM27.779,2.728h5.183V6.183H27.779ZM21.732,41.6v7.774H8.774V41.6Zm1.728-3.455h29.37V48.51H23.459Zm-1.728-6.509a18.422,18.422,0,0,0-2.419-3.892A.852.852,0,0,0,20,26.915V23.459a.864.864,0,0,0-.864-.864h-.864v-1.1l3.455-1.152ZM11.366,26.051V24.323h6.911v1.728ZM4.455,22.3a7.834,7.834,0,0,0,1.673-4.025H7.835A5.2,5.2,0,0,1,4.455,22.3Zm5.981-5.229a.864.864,0,0,0-.8-.523H5.319V14.821H15.4l5.361,4.021L17.14,20.052a.864.864,0,0,0-.591.816V22.6H12.8Zm.144,20.479,1.162-.691a2.808,2.808,0,0,0,1.351-2.4,1.884,1.884,0,0,0-1.046-1.693,1.233,1.233,0,0,1,0-2.205,1.883,1.883,0,0,0,1.046-1.692V27.779h3.938a16.706,16.706,0,0,1,4.7,11.648v.446H8.882a3.735,3.735,0,0,1,1.694-2.321ZM8.774,52.829V51.1H21.732v1.728Zm41.464,0H26.051a2.591,2.591,0,0,1-2.591-2.591h29.37A2.591,2.591,0,0,1,50.238,52.829Zm2.591-16.413H23.459V14.675a8.075,8.075,0,0,1,3.7-6.765h6.423l12.282,7.476a14.592,14.592,0,0,1,6.964,12.392Z" transform="translate(0)"/>
      <path id="Path_1245474" data-name="Path 1245474" d="M50.455,19.472,47.44,17.554A3.542,3.542,0,0,0,42,20.542V26.5a5.069,5.069,0,0,0,1.475,3.56l5.332,5.332a5,5,0,0,0,3.56,1.475h3.455A.864.864,0,0,0,56.685,36V30.821a13.389,13.389,0,0,0-6.23-11.35Zm4.5,15.669H52.366a3.283,3.283,0,0,1-2.338-.968L44.7,28.841a3.332,3.332,0,0,1-.968-2.338v-5.96a1.814,1.814,0,0,1,2.785-1.529l3.015,1.919a11.669,11.669,0,0,1,5.43,9.89Z" transform="translate(-5.583 -2.179)"/>
      <path id="Path_1245475" data-name="Path 1245475" d="M34.319,14C31.9,14,30,16.656,30,20.047s1.9,6.047,4.319,6.047,4.319-2.656,4.319-6.047S36.738,14,34.319,14Zm0,10.366c-1.4,0-2.591-1.978-2.591-4.319s1.187-4.319,2.591-4.319,2.591,1.978,2.591,4.319S35.724,24.366,34.319,24.366Z" transform="translate(-3.949 -1.77)"/>
    </g>
  </g>
</svg>
