<svg xmlns="http://www.w3.org/2000/svg" width="98" height="97.999" viewBox="0 0 98 97.999">
  <g id="Group_1204817" data-name="Group 1204817" transform="translate(-1081 -4498.016)">
    <g id="Group_1204527" data-name="Group 1204527" transform="translate(278.219 1960)">
      <g id="Group_1204237" data-name="Group 1204237" transform="translate(-1 566)">
        <g id="Group_1204143" data-name="Group 1204143" transform="translate(-67.331 1694.852)">
          <g id="Group_1188789" data-name="Group 1188789" transform="translate(871.113 277.164)">
            <path id="Path_1243039" data-name="Path 1243039" d="M41.05,0h0a41.05,41.05,0,0,1,0,82.1h0a41.05,41.05,0,0,1,0-82.1Z" transform="translate(7.951 7.949)" fill="#ffc94a"/>
            <rect id="Rectangle_400907" data-name="Rectangle 400907" width="88.438" height="88.437" rx="44.218" transform="translate(4.782 4.781)" fill="none"/>
            <g id="Group_1098742" data-name="Group 1098742" transform="translate(0)">
              <g id="Rectangle_400898" data-name="Rectangle 400898" transform="translate(0)" fill="none" stroke="#fff" stroke-width="2" opacity="0.859">
                <rect width="98" height="97.999" rx="48.999" stroke="none"/>
                <rect x="1" y="1" width="96" height="95.999" rx="47.999" fill="none"/>
              </g>
              <g id="Rectangle_400907-2" data-name="Rectangle 400907" transform="translate(0)" fill="none" stroke="#0f1f33" stroke-linecap="round" stroke-width="2">
                <rect width="98" height="97.999" rx="48.999" stroke="none"/>
                <rect x="1" y="1" width="96" height="95.999" rx="47.999" fill="none"/>
              </g>
            </g>
          </g>
        </g>
      </g>
    </g>
    <g id="compost" transform="translate(1037.994 4512.083)">
      <g id="Group_1204814" data-name="Group 1204814" transform="translate(69.928 9.728)">
        <path id="Path_1245403" data-name="Path 1245403" d="M117.3,289.478H82.442a4.443,4.443,0,0,1-4.412-4.971l3.007-25.154h37.67l3.007,25.154A4.443,4.443,0,0,1,117.3,289.478Z" transform="translate(-77.814 -237.21)" fill="#dc8758"/>
        <path id="Path_1245404" data-name="Path 1245404" d="M362.569,289.477h-4.941a4.442,4.442,0,0,0,4.412-4.97l-3.007-25.155h4.942l3.007,25.155A4.443,4.443,0,0,1,362.569,289.477Z" transform="translate(-323.083 -237.209)" fill="#d77f4a"/>
        <path id="Path_1245405" data-name="Path 1245405" d="M118.65,194.339H78.478a1.971,1.971,0,0,1-1.971-1.971V187.2a1.971,1.971,0,0,1,1.971-1.971H118.65a1.971,1.971,0,0,1,1.971,1.971v5.166A1.971,1.971,0,0,1,118.65,194.339Z" transform="translate(-76.507 -172.197)" fill="#e19974"/>
        <path id="Path_1245406" data-name="Path 1245406" d="M386.149,187.2v5.166a1.97,1.97,0,0,1-1.971,1.971h-4.942a1.971,1.971,0,0,0,1.972-1.971V187.2a1.971,1.971,0,0,0-1.972-1.971h4.942A1.97,1.97,0,0,1,386.149,187.2Z" transform="translate(-342.035 -172.199)" fill="#dc8758"/>
        <g id="Group_1204812" data-name="Group 1204812" transform="translate(3.113 2.753)">
          <path id="Path_1245407" data-name="Path 1245407" d="M135.674,111.847,123,102.854a7.618,7.618,0,0,0-8.48,0A8.361,8.361,0,0,1,108.3,104.2a2.912,2.912,0,0,0-2.361,4.4l-4.107,3.249Z" transform="translate(-101.836 -101.565)" fill="#a8d3d8"/>
          <path id="Path_1245408" data-name="Path 1245408" d="M243.208,111.847H239.5l-12.68-8.992a7.622,7.622,0,0,0-2.385-1.061,7.615,7.615,0,0,1,6.094,1.061Z" transform="translate(-209.37 -101.566)" fill="#8ebac5"/>
          <path id="Path_1245409" data-name="Path 1245409" d="M268.949,132.707H249.165l6.909-6.276a4.651,4.651,0,0,1,5.967,0Z" transform="translate(-231.061 -122.426)" fill="#cce5e8"/>
          <path id="Path_1245410" data-name="Path 1245410" d="M326.319,132.706h-3.709L315.7,126.43a4.575,4.575,0,0,0-1.13-.7,4.649,4.649,0,0,1,4.838.7Z" transform="translate(-288.43 -122.424)" fill="#a8d3d8"/>
        </g>
        <g id="Group_1204813" data-name="Group 1204813" transform="translate(11.236)">
          <path id="Path_1245411" data-name="Path 1245411" d="M379.447,114.718A5.188,5.188,0,0,1,383.4,113.4a5.244,5.244,0,0,1-1.317,3.956,4.337,4.337,0,0,1-3.751,1.112A4.691,4.691,0,0,1,379.447,114.718Z" transform="translate(-352.444 -109.176)" fill="#97da7b"/>
          <path id="Path_1245412" data-name="Path 1245412" d="M172.152,80.6a4.9,4.9,0,0,0-4.189-1.394,5.552,5.552,0,0,0,1.394,4.189,4.593,4.593,0,0,0,3.972,1.178A5.906,5.906,0,0,0,172.152,80.6Z" transform="translate(-167.944 -79.162)" fill="#97da7b"/>
        </g>
      </g>
      <g id="Group_1204816" data-name="Group 1204816" transform="translate(69.006 0)">
        <path id="Path_1245413" data-name="Path 1245413" d="M114.963,92.761V87.595A2.9,2.9,0,0,0,112.07,84.7h-.785l-2.179-1.979a4.848,4.848,0,0,0,2.352-1.3,6.165,6.165,0,0,0,1.581-4.713.922.922,0,0,0-.806-.809,6.109,6.109,0,0,0-4.721,1.585,4.934,4.934,0,0,0-1.313,2.6l-1.558-1.416-.028-.025a5.567,5.567,0,0,0-7.149,0l-.028.025L90.788,84.7H75.69L77.72,83.1a.922.922,0,0,0,.219-1.2,2.007,2.007,0,0,1,1.544-3,10.817,10.817,0,0,0,4.234-.267,5.73,5.73,0,0,0,2.018.359,5.049,5.049,0,0,0,1.013-.092.922.922,0,0,0,.718-.809,6.73,6.73,0,0,0-.034-1.329,6.681,6.681,0,0,1,6.244.63l.268.191a.922.922,0,1,0,1.069-1.5l-.279-.2-.022-.015a8.523,8.523,0,0,0-7.73-.909,5.588,5.588,0,0,0-.906-1.524,5.8,5.8,0,0,0-5.04-1.71.922.922,0,0,0-.769.8,6.6,6.6,0,0,0,1.342,4.6,10.688,10.688,0,0,1-1.989-.068A3.839,3.839,0,0,0,76.012,82.1l-3.292,2.6H71.9A2.9,2.9,0,0,0,69.006,87.6v5.166a2.913,2.913,0,0,0,3.105,2.893l-1.625,13.595a.922.922,0,1,0,1.83.219l1.651-13.814H110L112.911,120a3.522,3.522,0,0,1-3.5,3.94H74.555a3.522,3.522,0,0,1-3.5-3.94l.745-6.231a.922.922,0,1,0-1.83-.219l-.745,6.231a5.365,5.365,0,0,0,5.327,6h34.859a5.365,5.365,0,0,0,5.327-6l-2.884-24.123a2.913,2.913,0,0,0,3.105-2.893Zm-6.14-13.983a3.857,3.857,0,0,1,2.368-1.036,3.917,3.917,0,0,1-1.037,2.375,3.213,3.213,0,0,1-2.214.911,3.409,3.409,0,0,1,.883-2.251ZM84.667,74.621a4.565,4.565,0,0,1,.953,2.53,3.716,3.716,0,0,1-1.436-.319l-.039-.018a3.234,3.234,0,0,1-.916-.644,4.253,4.253,0,0,1-1.123-2.652A3.517,3.517,0,0,1,84.667,74.621Zm13.992,5.422a3.726,3.726,0,0,1,4.757,0l5.128,4.658H93.53ZM71.9,93.81a1.051,1.051,0,0,1-1.05-1.05V87.595a1.051,1.051,0,0,1,1.05-1.05H112.07a1.051,1.051,0,0,1,1.05,1.05v5.166a1.051,1.051,0,0,1-1.05,1.05Z" transform="translate(-69.006 -62.862)"/>
        <path id="Path_1245414" data-name="Path 1245414" d="M261.577,370.846a1.783,1.783,0,0,0-.076-1.825l-2.24-3.425a.922.922,0,1,0-1.543,1.009l2.18,3.334h-5.076l.726-.727a.922.922,0,1,0-1.3-1.3l-2.3,2.3a.929.929,0,0,0,0,1.3l2.3,2.3a.922.922,0,1,0,1.3-1.3l-.726-.726h5.185A1.783,1.783,0,0,0,261.577,370.846Z" transform="translate(-229.232 -320.304)"/>
        <path id="Path_1245415" data-name="Path 1245415" d="M233.792,293.651a1.778,1.778,0,0,0-1.493-.808h0a1.778,1.778,0,0,0-1.494.815l-1.677,2.592a.922.922,0,1,0,1.548,1l1.627-2.516,3.708,5.672a.922.922,0,0,0,1.543-1.009Z" transform="translate(-209.318 -256.857)"/>
        <path id="Path_1245416" data-name="Path 1245416" d="M178.237,350.784a1.782,1.782,0,0,0,1.57.937h4.617a.922.922,0,1,0,0-1.843h-4.507l2.734-4.16.14.87a.922.922,0,1,0,1.82-.294l-.518-3.211a.929.929,0,0,0-1.057-.763l-3.211.518a.922.922,0,0,0,.294,1.82l1.144-.184-2.947,4.483A1.782,1.782,0,0,0,178.237,350.784Z" transform="translate(-164.626 -300.244)"/>
        <path id="Path_1245417" data-name="Path 1245417" d="M293.371,13.1a.921.921,0,0,0,.922-.922V6.551a.3.3,0,0,1,.3-.3A2.149,2.149,0,0,0,296.743,4.1V.922a.922.922,0,1,0-1.843,0V4.1a.3.3,0,0,1-.3.3,2.149,2.149,0,0,0-2.147,2.147V12.18A.922.922,0,0,0,293.371,13.1Z" transform="translate(-264.991 0)"/>
        <path id="Path_1245418" data-name="Path 1245418" d="M322.312,41.519a.922.922,0,1,0,1.843,0V38.456a.3.3,0,0,1,.3-.3,2.149,2.149,0,0,0,2.147-2.147V34.372a.922.922,0,0,0-1.843,0v1.634a.3.3,0,0,1-.3.3,2.149,2.149,0,0,0-2.147,2.147Z" transform="translate(-291.185 -29.34)"/>
        <g id="Group_1204815" data-name="Group 1204815" transform="translate(18.001 15.589)">
          <circle id="Ellipse_12465" data-name="Ellipse 12465" cx="0.922" cy="0.922" r="0.922" transform="translate(3.017)"/>
          <circle id="Ellipse_12466" data-name="Ellipse 12466" cx="0.922" cy="0.922" r="0.922" transform="translate(0 1.856)"/>
        </g>
      </g>
    </g>
  </g>
</svg>
