<svg xmlns="http://www.w3.org/2000/svg" width="98" height="97.999" viewBox="0 0 98 97.999">
  <g id="Group_1204878" data-name="Group 1204878" transform="translate(-1081 -1064)">
    <g id="Group_1204527" data-name="Group 1204527" transform="translate(278.219 -1474.016)">
      <g id="Group_1204237" data-name="Group 1204237" transform="translate(-1 566)">
        <g id="Group_1204143" data-name="Group 1204143" transform="translate(-67.331 1694.852)">
          <g id="Group_1188789" data-name="Group 1188789" transform="translate(871.113 277.164)">
            <path id="Path_1243039" data-name="Path 1243039" d="M41.05,0h0a41.05,41.05,0,0,1,0,82.1h0a41.05,41.05,0,0,1,0-82.1Z" transform="translate(7.951 7.949)" fill="#ffc94a"/>
            <rect id="Rectangle_400907" data-name="Rectangle 400907" width="88.438" height="88.437" rx="44.218" transform="translate(4.782 4.781)" fill="none"/>
            <g id="Group_1098742" data-name="Group 1098742" transform="translate(0)">
              <g id="Rectangle_400898" data-name="Rectangle 400898" transform="translate(0)" fill="none" stroke="#fff" stroke-width="2" opacity="0.859">
                <rect width="98" height="97.999" rx="48.999" stroke="none"/>
                <rect x="1" y="1" width="96" height="95.999" rx="47.999" fill="none"/>
              </g>
              <g id="Rectangle_400907-2" data-name="Rectangle 400907" transform="translate(0)" fill="none" stroke="#0f1f33" stroke-linecap="round" stroke-width="2">
                <rect width="98" height="97.999" rx="48.999" stroke="none"/>
                <rect x="1" y="1" width="96" height="95.999" rx="47.999" fill="none"/>
              </g>
            </g>
          </g>
        </g>
      </g>
    </g>
    <g id="Layer_x0020_1" transform="translate(992.735 1082.981)">
      <g id="_2425601565680" transform="translate(121.264 0.019)">
        <path id="Path_1245602" data-name="Path 1245602" d="M128.822,25.953a.578.578,0,0,1-.543-.378c-1.256-3.41-2.227-6.648-3.254-10.075-1.046-3.49-2.128-7.1-3.554-10.971a3.352,3.352,0,0,1,6.291-2.316c1.216,3.3,3.284,8.03,4.734,11.3a.573.573,0,0,1,.05.267h8.635a.575.575,0,0,1,.05-.257c1.493-3.365,3.525-8.06,4.72-11.307a3.352,3.352,0,1,1,6.291,2.316c-1.425,3.872-2.507,7.48-3.554,10.969-1.028,3.428-2,6.665-3.254,10.076a.579.579,0,0,1-1.033.108H129.312a.582.582,0,0,1-.491.271Z" transform="translate(-121.264 -0.019)" fill="#ffdb6a" fill-rule="evenodd"/>
        <path id="Path_1245603" data-name="Path 1245603" d="M206.034,114.311H192.319a.579.579,0,0,1-.579-.579v-7.941c0-3.226,3.336-5.851,7.436-5.851s7.436,2.625,7.436,5.851v7.941A.579.579,0,0,1,206.034,114.311Z" transform="translate(-183.584 -88.377)" fill="#ffa65c" fill-rule="evenodd"/>
        <path id="Path_1245604" data-name="Path 1245604" d="M165.537,244.36H156.7a1.251,1.251,0,0,1-1.25-1.25V228.993a2.092,2.092,0,0,0-4.185,0V243.11a1.251,1.251,0,0,1-1.25,1.25H141.17a1.252,1.252,0,0,1-1.25-1.25V215.37a1.252,1.252,0,0,1,1.25-1.25h24.367a1.252,1.252,0,0,1,1.25,1.25v27.74A1.252,1.252,0,0,1,165.537,244.36Z" transform="translate(-137.761 -189.343)" fill="#ffce33" fill-rule="evenodd"/>
        <g id="Group_1204874" data-name="Group 1204874" transform="translate(2.159 28.023)">
          <path id="Path_1245605" data-name="Path 1245605" d="M144.116,251.686H140.5a.578.578,0,0,1-.579-.579v-8.359a.579.579,0,0,1,.579-.579h7.8a.579.579,0,0,1,.579.579v4.18a4.763,4.763,0,0,1-4.757,4.757Z" transform="translate(-139.92 -242.17)" fill="#ffa65c" fill-rule="evenodd"/>
          <path id="Path_1245606" data-name="Path 1245606" d="M303.085,251.686h-3.618a4.763,4.763,0,0,1-4.757-4.757v-4.18a.578.578,0,0,1,.579-.579h7.8a.579.579,0,0,1,.579.579v8.359A.578.578,0,0,1,303.085,251.686Z" transform="translate(-276.797 -242.17)" fill="#ffa65c" fill-rule="evenodd"/>
          <path id="Path_1245607" data-name="Path 1245607" d="M170.606,470.817h-4.917a.578.578,0,0,1-.579-.579v-4.23a.578.578,0,0,1,.579-.579h4.917a.579.579,0,0,1,.579.579v4.23A.579.579,0,0,1,170.606,470.817Z" transform="translate(-162.195 -439.594)" fill="#ffa65c" fill-rule="evenodd"/>
          <path id="Path_1245608" data-name="Path 1245608" d="M299.9,470.817h-4.918a.579.579,0,0,1-.579-.579v-4.23a.579.579,0,0,1,.579-.579H299.9a.579.579,0,0,1,.579.579v4.23A.579.579,0,0,1,299.9,470.817Z" transform="translate(-276.523 -439.594)" fill="#ffa65c" fill-rule="evenodd"/>
        </g>
      </g>
      <g id="_2425601566592" transform="translate(121.264 0.019)">
        <g id="_440148568" transform="translate(2.159 24.777)">
          <path id="Path_1245609" data-name="Path 1245609" d="M165.537,244.36H156.7a1.251,1.251,0,0,1-1.25-1.25V228.993a2.092,2.092,0,0,0-4.185,0V243.11a1.251,1.251,0,0,1-1.25,1.25H141.17a1.252,1.252,0,0,1-1.25-1.25V215.37a1.252,1.252,0,0,1,1.25-1.25h24.367a1.252,1.252,0,0,1,1.25,1.25v27.74A1.252,1.252,0,0,1,165.537,244.36Zm-12.183-18.615a3.253,3.253,0,0,1,3.25,3.248V243.11a.1.1,0,0,0,.093.093h8.841a.1.1,0,0,0,.093-.093V215.37a.094.094,0,0,0-.093-.093H141.17a.1.1,0,0,0-.093.093v27.74a.1.1,0,0,0,.093.093h8.841a.1.1,0,0,0,.094-.093V228.993a3.252,3.252,0,0,1,3.248-3.248Z" transform="translate(-139.92 -214.12)" fill-rule="evenodd"/>
        </g>
        <g id="Group_1204875" data-name="Group 1204875" transform="translate(2.159 28.023)">
          <g id="_440146648">
            <path id="Path_1245610" data-name="Path 1245610" d="M144.116,251.686H140.5a.578.578,0,0,1-.579-.579v-8.359a.579.579,0,0,1,.579-.579h7.8a.579.579,0,0,1,.579.579v4.18a4.763,4.763,0,0,1-4.757,4.757Zm-3.039-1.157h3.039a3.6,3.6,0,0,0,3.6-3.6v-3.6h-6.639Z" transform="translate(-139.92 -242.17)" fill-rule="evenodd"/>
          </g>
          <g id="_440146864" transform="translate(17.913)">
            <path id="Path_1245611" data-name="Path 1245611" d="M303.085,251.686h-3.618a4.763,4.763,0,0,1-4.757-4.757v-4.18a.578.578,0,0,1,.579-.579h7.8a.579.579,0,0,1,.579.579v8.359A.578.578,0,0,1,303.085,251.686Zm-7.218-8.359v3.6a3.6,3.6,0,0,0,3.6,3.6h3.039v-7.2Z" transform="translate(-294.71 -242.17)" fill-rule="evenodd"/>
          </g>
        </g>
        <g id="Group_1204876" data-name="Group 1204876" transform="translate(5.074 53.859)">
          <g id="_440148400">
            <path id="Path_1245612" data-name="Path 1245612" d="M170.606,470.817h-4.917a.578.578,0,0,1-.579-.579v-4.23a.578.578,0,0,1,.579-.579h4.917a.579.579,0,0,1,.579.579v4.23A.579.579,0,0,1,170.606,470.817Zm-4.34-1.157h3.761v-3.072h-3.761Z" transform="translate(-165.11 -465.43)" fill-rule="evenodd"/>
          </g>
          <g id="_440146168" transform="translate(14.962)">
            <path id="Path_1245613" data-name="Path 1245613" d="M299.9,470.817h-4.918a.579.579,0,0,1-.579-.579v-4.23a.579.579,0,0,1,.579-.579H299.9a.579.579,0,0,1,.579.579v4.23A.579.579,0,0,1,299.9,470.817Zm-4.34-1.157h3.761v-3.072h-3.761Z" transform="translate(-294.4 -465.43)" fill-rule="evenodd"/>
          </g>
        </g>
        <g id="Group_1204877" data-name="Group 1204877" transform="translate(0 0)">
          <g id="_440146360" transform="translate(8.156 11.563)">
            <path id="Path_1245614" data-name="Path 1245614" d="M206.034,114.311H192.319a.579.579,0,0,1-.579-.579v-7.941c0-3.226,3.336-5.851,7.436-5.851s7.436,2.625,7.436,5.851v7.941A.579.579,0,0,1,206.034,114.311ZM192.9,113.153h12.558v-7.362c0-2.589-2.817-4.694-6.279-4.694s-6.279,2.105-6.279,4.694Z" transform="translate(-191.74 -99.94)" fill-rule="evenodd"/>
          </g>
          <g id="_440146312" transform="translate(19.916 0)">
            <path id="Path_1245615" data-name="Path 1245615" d="M297.078,25.953a.579.579,0,0,1-.543-.779c1.243-3.377,2.209-6.6,3.231-10.008,1.052-3.506,2.14-7.131,3.577-11.037a2.2,2.2,0,0,0-1.3-2.818,2.2,2.2,0,0,0-2.817,1.3c-1.207,3.277-3.248,8-4.749,11.378a.579.579,0,0,1-1.058-.47c1.493-3.365,3.525-8.06,4.72-11.307a3.352,3.352,0,1,1,6.291,2.316C303,8.4,301.922,12.009,300.875,15.5c-1.028,3.428-2,6.665-3.254,10.076a.578.578,0,0,1-.543.378Z" transform="translate(-293.368 -0.019)" fill-rule="evenodd"/>
          </g>
          <g id="_440145808">
            <path id="Path_1245616" data-name="Path 1245616" d="M128.822,25.953a.578.578,0,0,1-.543-.378c-1.256-3.41-2.227-6.648-3.254-10.075-1.046-3.49-2.128-7.1-3.554-10.971a3.352,3.352,0,0,1,6.291-2.316c1.216,3.3,3.284,8.03,4.734,11.3a.578.578,0,1,1-1.058.469c-1.456-3.281-3.535-8.03-4.763-11.365a2.194,2.194,0,1,0-4.119,1.516c1.437,3.906,2.525,7.531,3.577,11.038,1.022,3.409,1.988,6.63,3.231,10.007a.579.579,0,0,1-.543.779Z" transform="translate(-121.264 -0.019)" fill-rule="evenodd"/>
          </g>
        </g>
      </g>
    </g>
  </g>
</svg>
