<svg xmlns="http://www.w3.org/2000/svg" width="98" height="97.998" viewBox="0 0 98 97.998">
  <g id="Group_1204915" data-name="Group 1204915" transform="translate(-751.898 -1831.75)">
    <g id="Group_1204526" data-name="Group 1204526" transform="translate(-50.883 -706.266)">
      <g id="Group_1204237" data-name="Group 1204237" transform="translate(-1 566)">
        <g id="Group_1204143" data-name="Group 1204143" transform="translate(-67.331 1694.852)">
          <g id="Group_1188789" data-name="Group 1188789" transform="translate(871.113 277.164)">
            <path id="Path_1243039" data-name="Path 1243039" d="M41.05,0h0a41.05,41.05,0,0,1,0,82.1h0a41.05,41.05,0,0,1,0-82.1Z" transform="translate(7.951 7.949)" fill="#ffc94a"/>
            <rect id="Rectangle_400907" data-name="Rectangle 400907" width="88.438" height="88.437" rx="44.218" transform="translate(4.782 4.781)" fill="none"/>
            <g id="Group_1098742" data-name="Group 1098742" transform="translate(0)">
              <g id="Rectangle_400898" data-name="Rectangle 400898" transform="translate(0)" fill="none" stroke="#fff" stroke-width="2" opacity="0.859">
                <rect width="98" height="97.999" rx="48.999" stroke="none"/>
                <rect x="1" y="1" width="96" height="95.999" rx="47.999" fill="none"/>
              </g>
              <g id="Rectangle_400907-2" data-name="Rectangle 400907" transform="translate(0)" fill="none" stroke="#0f1f33" stroke-linecap="round" stroke-width="2">
                <rect width="98" height="97.999" rx="48.999" stroke="none"/>
                <rect x="1" y="1" width="96" height="95.999" rx="47.999" fill="none"/>
              </g>
            </g>
          </g>
        </g>
      </g>
    </g>
    <g id="vaca_1_" data-name="vaca (1)" transform="translate(769.924 1806.418)">
      <path id="Path_1245745" data-name="Path 1245745" d="M112.828,335.79a3.665,3.665,0,0,1-3.665-3.665v15.067h4.817v-11.4Z" transform="translate(-95.826 -248.494)" fill="#d88a55"/>
      <path id="Path_1245746" data-name="Path 1245746" d="M109.163,332.125v15.067h2.443V335.58A3.665,3.665,0,0,1,109.163,332.125Z" transform="translate(-95.826 -248.494)" fill="#c57a44"/>
      <path id="Path_1245747" data-name="Path 1245747" d="M356.106,362.122h4.817v11.4h-4.817Z" transform="translate(-312.601 -274.826)" fill="#d88a55"/>
      <path id="Path_1245748" data-name="Path 1245748" d="M356.106,362.122h2.443v11.4h-2.443Z" transform="translate(-312.601 -274.826)" fill="#c57a44"/>
      <path id="Path_1245749" data-name="Path 1245749" d="M356.106,424.2h4.817v3.818h-4.817Z" transform="translate(-312.601 -329.322)" fill="#32569d"/>
      <path id="Path_1245750" data-name="Path 1245750" d="M356.106,424.2h2.443v3.818h-2.443Z" transform="translate(-312.601 -329.322)" fill="#303a78"/>
      <path id="Path_1245751" data-name="Path 1245751" d="M145.23,118.24H126.737a4.563,4.563,0,0,1-4.943,1.45l-.16-.052v6.26a9.362,9.362,0,0,1-1.364,4.861,4.49,4.49,0,0,1,.225,1.4v.34a4.542,4.542,0,0,1-4.529,4.529h-6.8v7.338a3.665,3.665,0,0,0,3.665,3.665h4.747a1.222,1.222,0,0,1,1.222,1.222v10.18h4.817v-10.18a1.222,1.222,0,0,1,1.222-1.222h22.909a1.222,1.222,0,0,1,1.222,1.222v10.18h4.817V126.791a8.551,8.551,0,0,0-8.551-8.551Z" transform="translate(-95.826 -60.739)" fill="#ea9b58"/>
      <path id="Path_1245752" data-name="Path 1245752" d="M112.828,279.4v-7.338h-3.665V279.4a3.665,3.665,0,0,0,3.665,3.665h3.665A3.665,3.665,0,0,1,112.828,279.4Z" transform="translate(-95.826 -195.766)" fill="#d88a55"/>
      <path id="Path_1245753" data-name="Path 1245753" d="M78.392,61.192V58.143a1.6,1.6,0,0,0-1.6-1.6h-.12a1.6,1.6,0,0,0-1.6,1.6v3.049Z" transform="translate(-65.909 -6.584)" fill="#e7b795"/>
      <path id="Path_1245754" data-name="Path 1245754" d="M169.355,61.192V58.143a1.6,1.6,0,0,0-1.6-1.6h-.12a1.6,1.6,0,0,0-1.6,1.6v3.049Z" transform="translate(-145.759 -6.584)" fill="#e7b795"/>
      <path id="Path_1245755" data-name="Path 1245755" d="M216.945,94.561h-4.7V99.02a4.691,4.691,0,0,0,5.848-2.829,1.219,1.219,0,0,0-1.152-1.63Z" transform="translate(-186.319 -39.953)" fill="#f6a96c"/>
      <path id="Path_1245756" data-name="Path 1245756" d="M13.412,94.561h-4.7a1.218,1.218,0,0,0-1.152,1.63,4.691,4.691,0,0,0,5.848,2.829V94.561Z" transform="translate(-6.574 -39.953)" fill="#f6a96c"/>
      <path id="Path_1245757" data-name="Path 1245757" d="M10.008,96.19a1.219,1.219,0,0,1,1.152-1.63H8.717a1.219,1.219,0,0,0-1.152,1.63,4.691,4.691,0,0,0,5.619,2.9,4.7,4.7,0,0,1-3.175-2.9Z" transform="translate(-6.574 -39.952)" fill="#ea9b58"/>
      <path id="Path_1245758" data-name="Path 1245758" d="M55.973,94.561v10.551a9.468,9.468,0,0,0,1.438,5.019,4.546,4.546,0,0,1,4.352-3.283h7.513a4.546,4.546,0,0,1,4.352,3.283,9.467,9.467,0,0,0,1.438-5.019V94.561Z" transform="translate(-49.135 -39.953)" fill="#d88a55"/>
      <path id="Path_1245759" data-name="Path 1245759" d="M59.884,107.259a9.479,9.479,0,0,1-.246-2.148V94.561H55.973v10.551a9.468,9.468,0,0,0,1.438,5.019A4.565,4.565,0,0,1,59.884,107.259Z" transform="translate(-49.135 -39.953)" fill="#c57a44"/>
      <path id="Path_1245760" data-name="Path 1245760" d="M78.335,204.529H70.822A4.542,4.542,0,0,1,66.293,200v-.34a4.542,4.542,0,0,1,4.529-4.529h7.513a4.542,4.542,0,0,1,4.529,4.529V200A4.542,4.542,0,0,1,78.335,204.529Z" transform="translate(-58.194 -128.236)" fill="#edcab2"/>
      <path id="Path_1245761" data-name="Path 1245761" d="M68.981,200v-.34a4.542,4.542,0,0,1,4.529-4.529H70.822a4.542,4.542,0,0,0-4.529,4.529V200a4.542,4.542,0,0,0,4.529,4.529H73.51A4.542,4.542,0,0,1,68.981,200Z" transform="translate(-58.194 -128.237)" fill="#e7b795"/>
      <path id="Path_1245762" data-name="Path 1245762" d="M109.163,424.2h4.817v3.818h-4.817Z" transform="translate(-95.826 -329.322)" fill="#32569d"/>
      <path id="Path_1245763" data-name="Path 1245763" d="M109.163,424.2h2.443v3.818h-2.443Z" transform="translate(-95.826 -329.322)" fill="#303a78"/>
      <path id="Path_1245764" data-name="Path 1245764" d="M434.961,424.2h4.817v3.818h-4.817Z" transform="translate(-381.822 -329.322)" fill="#32569d"/>
      <path id="Path_1245765" data-name="Path 1245765" d="M434.961,424.2H437.4v3.818h-2.443Z" transform="translate(-381.822 -329.322)" fill="#303a78"/>
      <path id="Path_1245766" data-name="Path 1245766" d="M188.018,424.2h4.817v3.818h-4.817Z" transform="translate(-165.048 -329.322)" fill="#32569d"/>
      <path id="Path_1245767" data-name="Path 1245767" d="M188.018,424.2h2.443v3.818h-2.443Z" transform="translate(-165.048 -329.322)" fill="#303a78"/>
      <path id="Path_1245768" data-name="Path 1245768" d="M61.635,97.782H58.872V76.571a.916.916,0,1,0-1.833,0V93.964H54.055V88.518a2.14,2.14,0,0,0-2.138-2.138H36.325a.916.916,0,1,0,0,1.833h6.264v9.57H41.311V96.167a.916.916,0,0,0-1.833,0v1.614h-1.1V96.167a.916.916,0,0,0-1.833,0v1.614h-1.1V96.167a.916.916,0,0,0-1.833,0v1.614h-1.1V96.167a.916.916,0,0,0-1.833,0v1.614H28.7V88.518a.306.306,0,0,1,.305-.305h2.959a.916.916,0,1,0,0-1.833H29.009a2.14,2.14,0,0,0-2.138,2.138v5.446H23.886V88.518a2.14,2.14,0,0,0-2.138-2.138H17a2.752,2.752,0,0,1-2.749-2.749V77.209h5.888a5.451,5.451,0,0,0,5.445-5.445v-.34a5.449,5.449,0,0,0-.111-1.1,10.385,10.385,0,0,0,1.372-5.167.916.916,0,0,0-1.833,0,8.568,8.568,0,0,1-.534,2.981,5.439,5.439,0,0,0-4.34-2.161H12.628a5.439,5.439,0,0,0-4.34,2.161,8.568,8.568,0,0,1-.534-2.981V55.524H25.014v5.307a.916.916,0,0,0,1.833,0v-.647c.176.017.354.029.534.029a5.627,5.627,0,0,0,4.107-1.8H49.4a7.643,7.643,0,0,1,7.635,7.635v6.2a.916.916,0,0,0,1.833,0v-6.2A9.478,9.478,0,0,0,49.4,56.585H32.627l.011-.027a2.117,2.117,0,0,0-.249-1.944,2.147,2.147,0,0,0-1.761-.921H24.512V51.559A2.514,2.514,0,0,0,22,49.048h-.12a2.514,2.514,0,0,0-2.512,2.511v2.133H13.4V51.559a2.514,2.514,0,0,0-2.512-2.511h-.12a2.514,2.514,0,0,0-2.512,2.511v2.133H2.142a2.147,2.147,0,0,0-1.761.921,2.118,2.118,0,0,0-.249,1.944,5.629,5.629,0,0,0,5.257,3.656c.18,0,.358-.012.534-.029v4.974a10.384,10.384,0,0,0,1.372,5.167,5.449,5.449,0,0,0-.111,1.1v.34A5.451,5.451,0,0,0,12.42,77.2V97.782H11.26V96.167a.916.916,0,0,0-1.833,0v1.614H8.7V96.167a.916.916,0,0,0-1.833,0v1.614H5.671a.916.916,0,1,0,0,1.833H61.635a.916.916,0,0,0,0-1.833ZM26.847,55.525h3.78a.311.311,0,0,1,.257.135.274.274,0,0,1,.036.26,3.769,3.769,0,0,1-4.073,2.422ZM21.2,51.559a.68.68,0,0,1,.679-.679H22a.68.68,0,0,1,.679.679v2.133H21.2V51.559Zm-11.113,0a.68.68,0,0,1,.679-.679h.12a.68.68,0,0,1,.679.679v2.133H10.089V51.559ZM5.922,58.342A3.769,3.769,0,0,1,1.849,55.92a.274.274,0,0,1,.036-.26.311.311,0,0,1,.257-.135h3.78ZM9.015,71.764v-.34a3.617,3.617,0,0,1,3.613-3.613h7.513a3.617,3.617,0,0,1,3.613,3.613v.34a3.617,3.617,0,0,1-3.613,3.613H12.628a3.617,3.617,0,0,1-3.613-3.613Zm8.222,26.018H14.253V95.8h2.984Zm0-3.818H14.253v-6.67A4.557,4.557,0,0,0,17,88.212h.236Zm4.817,3.818H19.07v-9.57h2.679a.306.306,0,0,1,.305.305Zm4.817,0H23.886V95.8h2.984Zm20.535,0H44.421V95.8h2.984Zm0-3.818H44.421V88.212h2.984Zm4.817,3.818H49.238v-9.57h2.679a.306.306,0,0,1,.305.305Zm4.817,0H54.055V95.8H57.04Z" transform="translate(0)"/>
      <path id="Path_1245769" data-name="Path 1245769" d="M93.443,143.473v1.842a.916.916,0,1,0,1.833,0v-1.842a.916.916,0,0,0-1.833,0Z" transform="translate(-82.027 -82.085)"/>
      <path id="Path_1245770" data-name="Path 1245770" d="M159.779,143.473v1.842a.916.916,0,1,0,1.833,0v-1.842a.916.916,0,0,0-1.833,0Z" transform="translate(-140.259 -82.085)"/>
      <path id="Path_1245771" data-name="Path 1245771" d="M97,222.5H95.53a.916.916,0,1,0,0,1.833H97a.916.916,0,1,0,0-1.833Z" transform="translate(-83.055 -152.263)"/>
      <path id="Path_1245772" data-name="Path 1245772" d="M149.907,223.418a.916.916,0,0,0-.916-.916h-1.466a.916.916,0,1,0,0,1.833h1.466A.916.916,0,0,0,149.907,223.418Z" transform="translate(-128.698 -152.263)"/>
    </g>
  </g>
</svg>
