<svg xmlns="http://www.w3.org/2000/svg" width="98" height="97.999" viewBox="0 0 98 97.999">
  <g id="Group_1204873" data-name="Group 1204873" transform="translate(-751.899 -1064.016)">
    <g id="Group_1204526" data-name="Group 1204526" transform="translate(-50.883 -1474)">
      <g id="Group_1204237" data-name="Group 1204237" transform="translate(-1 566)">
        <g id="Group_1204143" data-name="Group 1204143" transform="translate(-67.331 1694.852)">
          <g id="Group_1188789" data-name="Group 1188789" transform="translate(871.113 277.164)">
            <path id="Path_1243039" data-name="Path 1243039" d="M41.05,0h0a41.05,41.05,0,0,1,0,82.1h0a41.05,41.05,0,0,1,0-82.1Z" transform="translate(7.951 7.949)" fill="#ffc94a"/>
            <rect id="Rectangle_400907" data-name="Rectangle 400907" width="88.438" height="88.437" rx="44.218" transform="translate(4.782 4.781)" fill="none"/>
            <g id="Group_1098742" data-name="Group 1098742" transform="translate(0)">
              <g id="Rectangle_400898" data-name="Rectangle 400898" transform="translate(0)" fill="none" stroke="#fff" stroke-width="2" opacity="0.859">
                <rect width="98" height="97.999" rx="48.999" stroke="none"/>
                <rect x="1" y="1" width="96" height="95.999" rx="47.999" fill="none"/>
              </g>
              <g id="Rectangle_400907-2" data-name="Rectangle 400907" transform="translate(0)" fill="none" stroke="#0f1f33" stroke-linecap="round" stroke-width="2">
                <rect width="98" height="97.999" rx="48.999" stroke="none"/>
                <rect x="1" y="1" width="96" height="95.999" rx="47.999" fill="none"/>
              </g>
            </g>
          </g>
        </g>
      </g>
    </g>
    <g id="filled_outline" data-name="filled outline" transform="translate(689.936 1061.149)">
      <path id="Path_1245571" data-name="Path 1245571" d="M224,368h16.366v16.366H224Z" transform="translate(-117.452 -302.957)" fill="#f6bb92"/>
      <path id="Path_1245572" data-name="Path 1245572" d="M232,368h15.275v2.182H232Z" transform="translate(-124.361 -302.957)" fill="#e6af89"/>
      <path id="Path_1245573" data-name="Path 1245573" d="M145.258,30.495c1.222,5.728,2.65,14.221,2.65,14.221L148.9,28.3a2.754,2.754,0,0,1,5.509-.023c.066,5.788-.75,17.661-.75,17.661l4.438-15.263A2.268,2.268,0,0,1,162.46,31.9c-1.436,5.305-3.358,13.741-3.358,13.741l5.152-9.355a2.259,2.259,0,0,1,4.038,2.02C166.24,42.85,162.634,52.2,162.634,52.2l-.918,6.438a9.167,9.167,0,0,1-2.989,5.562l-.053,3.695H141.827V61.652l-6.042-6.667-6.145-7.806a1.091,1.091,0,0,1,.033-1.39l.138-.159a3.819,3.819,0,0,1,5.739-.034l.37.416a8.728,8.728,0,0,0,6.511,2.931h.022l-2.135-17.625a2.506,2.506,0,0,1,4.939-.823Z" transform="translate(-35.761 -7.216)" fill="#2ad3b3"/>
      <rect id="Rectangle_411435" data-name="Rectangle 411435" width="21.821" height="4.364" rx="2.182" transform="translate(103.275 60.679)" fill="#27c5a7"/>
      <path id="Path_1245574" data-name="Path 1245574" d="M152.281,304h7.365l6.926,6.421a2.585,2.585,0,0,1-3.459,3.841l-6.74-5.9h-4.228Z" transform="translate(-55.397 -247.686)" fill="#24b499"/>
      <path id="Path_1245575" data-name="Path 1245575" d="M183.145,336l7.026,6.147a2.211,2.211,0,1,1-2.925,3.317l-.827-.736Z" transform="translate(-82.169 -275.321)" fill="#24b499"/>
      <g id="Group_1204871" data-name="Group 1204871" transform="translate(89.091 56.314)">
        <path id="Path_1245576" data-name="Path 1245576" d="M111.158,317.093a2.638,2.638,0,0,1-.205,4.108l-1.86,1.347v6.546H96V312.237a5.455,5.455,0,0,1,2.252-4.416L103.637,304h5.319l-3.767,3.41h-.939a.477.477,0,0,0,0,.955h.321l6.3,7.719Z" transform="translate(-96 -304)" fill="#27c5a7"/>
        <path id="Path_1245577" data-name="Path 1245577" d="M158.674,351.236a4.7,4.7,0,0,1-4.582,3.674H151.15V344h1.941l5.413,6.628Z" transform="translate(-143.629 -338.545)" fill="#27c5a7"/>
        <path id="Path_1245578" data-name="Path 1245578" d="M153.176,400.706l-3.721,2.567H144l.02-1.091h5.319L152.613,400A2.63,2.63,0,0,1,153.176,400.706Z" transform="translate(-137.454 -386.907)" fill="#27c5a7"/>
      </g>
      <path id="Path_1245579" data-name="Path 1245579" d="M158.674,351.236a4.7,4.7,0,0,1-4.582,3.674h-2.4a.541.541,0,1,1,.01-1.081l.541.01L151.15,344h1.941l5.413,6.628Z" transform="translate(-54.537 -282.23)" fill="#24b499"/>
      <path id="Path_1245580" data-name="Path 1245580" d="M325.994,252.316a1.092,1.092,0,0,1-1.022-1.474,4.376,4.376,0,0,0,.244-.994,1.091,1.091,0,1,1,2.165.271,6.581,6.581,0,0,1-.366,1.489A1.091,1.091,0,0,1,325.994,252.316Z" transform="translate(-204.594 -200.094)" fill="#27c5a7"/>
      <path id="Path_1245581" data-name="Path 1245581" d="M331.094,211.363a1.108,1.108,0,0,1-.136-.009,1.091,1.091,0,0,1-.947-1.218l.273-2.182a1.091,1.091,0,1,1,2.165.271l-.273,2.182A1.091,1.091,0,0,1,331.094,211.363Z" transform="translate(-208.997 -163.913)" fill="#27c5a7"/>
      <g id="Group_1204872" data-name="Group 1204872" transform="translate(91.273 23.583)">
        <path id="Path_1245582" data-name="Path 1245582" d="M417.091,283.273A1.091,1.091,0,0,1,416,282.182v-1.091a1.091,1.091,0,0,1,2.182,0v1.091A1.091,1.091,0,0,1,417.091,283.273Z" transform="translate(-374.54 -250.541)" fill="#fbb540"/>
        <path id="Path_1245583" data-name="Path 1245583" d="M417.091,331.273A1.091,1.091,0,0,1,416,330.182v-1.091a1.091,1.091,0,0,1,2.182,0v1.091A1.091,1.091,0,0,1,417.091,331.273Z" transform="translate(-374.54 -291.995)" fill="#fbb540"/>
        <path id="Path_1245584" data-name="Path 1245584" d="M393.091,307.273A1.091,1.091,0,0,1,392,306.182v-1.091a1.091,1.091,0,0,1,2.182,0v1.091A1.091,1.091,0,0,1,393.091,307.273Z" transform="translate(-353.813 -271.268)" fill="#fbb540"/>
        <path id="Path_1245585" data-name="Path 1245585" d="M441.091,307.273A1.091,1.091,0,0,1,440,306.182v-1.091a1.091,1.091,0,1,1,2.182,0v1.091A1.091,1.091,0,0,1,441.091,307.273Z" transform="translate(-395.267 -271.268)" fill="#fbb540"/>
        <path id="Path_1245586" data-name="Path 1245586" d="M137.091,67.273A1.091,1.091,0,0,1,136,66.182V65.091a1.091,1.091,0,1,1,2.182,0v1.091A1.091,1.091,0,0,1,137.091,67.273Z" transform="translate(-132.727 -64)" fill="#fbb540"/>
        <path id="Path_1245587" data-name="Path 1245587" d="M137.091,115.273A1.091,1.091,0,0,1,136,114.182v-1.091a1.091,1.091,0,1,1,2.182,0v1.091A1.091,1.091,0,0,1,137.091,115.273Z" transform="translate(-132.727 -105.454)" fill="#fbb540"/>
        <path id="Path_1245588" data-name="Path 1245588" d="M113.091,91.273A1.091,1.091,0,0,1,112,90.182V89.091a1.091,1.091,0,0,1,2.182,0v1.091A1.091,1.091,0,0,1,113.091,91.273Z" transform="translate(-112 -84.727)" fill="#fbb540"/>
        <path id="Path_1245589" data-name="Path 1245589" d="M161.091,91.273A1.091,1.091,0,0,1,160,90.182V89.091a1.091,1.091,0,1,1,2.182,0v1.091A1.091,1.091,0,0,1,161.091,91.273Z" transform="translate(-153.454 -84.727)" fill="#fbb540"/>
      </g>
      <path id="Path_1245590" data-name="Path 1245590" d="M162.436,292.714l-3.653,3.653v2.943A4.694,4.694,0,0,1,154.088,304h-2.943V293.094h2.182l6.166-6.166a2.08,2.08,0,0,1,2.942,0A4.091,4.091,0,0,1,162.436,292.714Z" transform="translate(-54.533 -232.415)" fill="#27c5a7"/>
      <path id="Path_1245591" data-name="Path 1245591" d="M124,81.409V65.946a3.273,3.273,0,0,0,.014-6.167l.033-2.316a10.271,10.271,0,0,0,2.985-5.888l.9-6.314c.421-1.087,3.7-9.528,5.59-13.72a3.351,3.351,0,0,0-5.988-3l-1.3,2.352c.5-2.042,1.033-4.165,1.509-5.926a3.359,3.359,0,1,0-6.468-1.818l-1.755,6.035c.133-2.929.231-5.95.206-8.142a3.846,3.846,0,1,0-7.691,0l-.436,7.249c-.341-1.8-.7-3.636-1.045-5.244a3.6,3.6,0,0,0-7.089,1.182l1.975,16.3a7.648,7.648,0,0,1-4.473-2.463l-.37-.416a4.91,4.91,0,0,0-3.671-1.649h-.029A4.91,4.91,0,0,0,93.228,37.7l-.138.159a2.185,2.185,0,0,0-.066,2.78l6.146,7.807c.016.02.032.039.049.058l4.853,5.356-1.366,1.365H96.612a1.091,1.091,0,0,0-.641.208L90.7,59.253a6.565,6.565,0,0,0-2.7,5.3V81.409A1.091,1.091,0,0,0,89.091,82.5h13.093a1.091,1.091,0,0,0,1.091-1.091V75.419l1.409-1.02a3.739,3.739,0,0,0,.773-.751v7.761a1.091,1.091,0,0,0,1.091,1.091h16.366A1.091,1.091,0,0,0,124,81.409Zm-1.091-17.457h-9.883a3.662,3.662,0,0,0-1.113-2.016l-.179-.166h11.175a1.091,1.091,0,0,1,0,2.182ZM100.861,47.065l-6.122-7.776.137-.158a2.728,2.728,0,0,1,2.044-.94h.016a2.728,2.728,0,0,1,2.039.916l.37.416a9.827,9.827,0,0,0,7.32,3.3h.028a1.091,1.091,0,0,0,1.083-1.222l-2.135-17.626a1.415,1.415,0,0,1,2.788-.465c1.2,5.639,2.627,14.09,2.641,14.174a1.091,1.091,0,0,0,2.165-.115l.989-16.418q0-.032,0-.065a1.664,1.664,0,1,1,3.327-.012c.064,5.678-.741,17.455-.749,17.574a1.091,1.091,0,0,0,2.136.38l4.438-15.262a1.177,1.177,0,0,1,2.266.638c-1.426,5.266-3.349,13.7-3.369,13.784a1.091,1.091,0,0,0,2.019.769L129.45,29.6a1.168,1.168,0,0,1,2.088,1.045c-2.041,4.519-5.646,13.855-5.682,13.949a1.085,1.085,0,0,0-.062.239l-.918,6.439a8.086,8.086,0,0,1-2.634,4.9,1.091,1.091,0,0,0-.367.8l-.038,2.619H109.712a5.189,5.189,0,0,0-1.038-5.847,3.15,3.15,0,0,0-2.243-.929,3.223,3.223,0,0,0-.345.02Zm9.7,18.525a1.494,1.494,0,0,1-2.129.166l-2.372-2.075,2.178-2.177,2.193,2.033a1.493,1.493,0,0,1,.13,2.054ZM96.612,72.68h2.943a5.78,5.78,0,0,0,4.34-1.96,1.542,1.542,0,0,1-.491,1.912l-1.86,1.347a1.091,1.091,0,0,0-.451.884v5.455H90.182V64.552a4.377,4.377,0,0,1,1.8-3.532l4.982-3.614h3.558l-2.182,2.182h-.82a1.091,1.091,0,0,0,0,2.182h1.272a1.091,1.091,0,0,0,.772-.32l6.166-6.166a.989.989,0,0,1,1.4,0,3,3,0,0,1,0,4.243l-3.653,3.653a1.091,1.091,0,0,0-.319.772v2.943a3.6,3.6,0,0,1-3.6,3.6H96.612a1.091,1.091,0,0,0,0,2.182Zm9.19-3.353-.739-.657a5.793,5.793,0,0,0,.278-1.775v-.948l1.943,1.7a1.12,1.12,0,1,1-1.482,1.679Zm16.021,10.991H107.639V71.6a3.287,3.287,0,0,0,2.2-3.292c0-.009,0-.018,0-.027a3.674,3.674,0,0,0,2.933-2.147h9.049Z"/>
      <path id="Path_1245592" data-name="Path 1245592" d="M325.6,252.249a1.09,1.09,0,0,0,1.4-.639,6.583,6.583,0,0,0,.366-1.489,1.091,1.091,0,0,0-2.165-.272,4.378,4.378,0,0,1-.244.994A1.091,1.091,0,0,0,325.6,252.249Z" transform="translate(-204.587 -200.095)"/>
      <path id="Path_1245593" data-name="Path 1245593" d="M330.954,211.355a1.089,1.089,0,0,0,1.218-.947l.273-2.182a1.091,1.091,0,1,0-2.165-.271l-.273,2.182a1.091,1.091,0,0,0,.948,1.218Z" transform="translate(-208.993 -163.914)"/>
      <path id="Path_1245594" data-name="Path 1245594" d="M418.182,281.091a1.091,1.091,0,0,0-2.182,0v1.091a1.091,1.091,0,0,0,2.182,0Z" transform="translate(-283.267 -226.959)"/>
      <path id="Path_1245595" data-name="Path 1245595" d="M417.091,328A1.091,1.091,0,0,0,416,329.091v1.091a1.091,1.091,0,0,0,2.182,0v-1.091A1.091,1.091,0,0,0,417.091,328Z" transform="translate(-283.267 -268.412)"/>
      <path id="Path_1245596" data-name="Path 1245596" d="M392,305.091v1.091a1.091,1.091,0,0,0,2.182,0v-1.091a1.091,1.091,0,0,0-2.182,0Z" transform="translate(-262.54 -247.686)"/>
      <path id="Path_1245597" data-name="Path 1245597" d="M441.091,304A1.091,1.091,0,0,0,440,305.091v1.091a1.091,1.091,0,1,0,2.182,0v-1.091A1.091,1.091,0,0,0,441.091,304Z" transform="translate(-303.993 -247.686)"/>
      <path id="Path_1245598" data-name="Path 1245598" d="M137.091,67.273a1.091,1.091,0,0,0,1.091-1.091V65.091a1.091,1.091,0,1,0-2.182,0v1.091A1.091,1.091,0,0,0,137.091,67.273Z" transform="translate(-41.454 -40.417)"/>
      <path id="Path_1245599" data-name="Path 1245599" d="M136,114.182a1.091,1.091,0,1,0,2.182,0v-1.091a1.091,1.091,0,1,0-2.182,0Z" transform="translate(-41.454 -81.871)"/>
      <path id="Path_1245600" data-name="Path 1245600" d="M114.182,90.182V89.091a1.091,1.091,0,0,0-2.182,0v1.091a1.091,1.091,0,1,0,2.182,0Z" transform="translate(-20.727 -61.144)"/>
      <path id="Path_1245601" data-name="Path 1245601" d="M162.182,90.182V89.091a1.091,1.091,0,1,0-2.182,0v1.091a1.091,1.091,0,1,0,2.182,0Z" transform="translate(-62.18 -61.144)"/>
    </g>
  </g>
</svg>
