<svg xmlns="http://www.w3.org/2000/svg" width="98" height="97.998" viewBox="0 0 98 97.998">
  <g id="Group_1204834" data-name="Group 1204834" transform="translate(-426 -8259.75)">
    <g id="Group_1204237" data-name="Group 1204237" transform="translate(-377.781 6287.734)">
      <g id="Group_1204143" data-name="Group 1204143" transform="translate(-67.331 1694.852)">
        <g id="Group_1188789" data-name="Group 1188789" transform="translate(871.113 277.164)">
          <path id="Path_1243039" data-name="Path 1243039" d="M41.05,0h0a41.05,41.05,0,0,1,0,82.1h0a41.05,41.05,0,0,1,0-82.1Z" transform="translate(7.951 7.949)" fill="#ffc94a"/>
          <rect id="Rectangle_400907" data-name="Rectangle 400907" width="88.438" height="88.437" rx="44.218" transform="translate(4.782 4.781)" fill="none"/>
          <g id="Group_1098742" data-name="Group 1098742" transform="translate(0)">
            <g id="Rectangle_400898" data-name="Rectangle 400898" transform="translate(0)" fill="none" stroke="#fff" stroke-width="2" opacity="0.859">
              <rect width="98" height="97.999" rx="48.999" stroke="none"/>
              <rect x="1" y="1" width="96" height="95.999" rx="47.999" fill="none"/>
            </g>
            <g id="Rectangle_400907-2" data-name="Rectangle 400907" transform="translate(0)" fill="none" stroke="#0f1f33" stroke-linecap="round" stroke-width="2">
              <rect width="98" height="97.999" rx="48.999" stroke="none"/>
              <rect x="1" y="1" width="96" height="95.999" rx="47.999" fill="none"/>
            </g>
          </g>
        </g>
      </g>
    </g>
    <g id="Group_1204832" data-name="Group 1204832" transform="translate(444.177 8282.866)">
      <g id="Group_1204828" data-name="Group 1204828" transform="translate(4.933 36.96)">
        <circle id="Ellipse_12471" data-name="Ellipse 12471" cx="3.114" cy="3.114" r="3.114" transform="translate(45.485 1.413)" fill="#f9f3f1"/>
        <path id="Path_1245442" data-name="Path 1245442" d="M178.881,343.93a3.014,3.014,0,0,0-2.45,1.09,3.02,3.02,0,1,0-.168,4.04.234.234,0,0,1,.336,0,3.02,3.02,0,1,0,2.282-5.131Z" transform="translate(-155.106 -343.863)" fill="#f9f3f1"/>
        <path id="Path_1245443" data-name="Path 1245443" d="M55.854,345.29a2.655,2.655,0,0,0-1.374.305,4.528,4.528,0,1,0-.417,5.29,1.048,1.048,0,0,1,1.045-.34,2.666,2.666,0,1,0,.747-5.256Z" transform="translate(-46.086 -343.425)" fill="#f9f3f1"/>
      </g>
      <g id="Group_1204829" data-name="Group 1204829" transform="translate(3.063 6.192)">
        <path id="Path_1245444" data-name="Path 1245444" d="M71,103.928q4.154-.389,8.314-1.083a8.012,8.012,0,0,1,9.177,6.311l.951,10.441a59.242,59.242,0,0,1-.881,10.366,8.007,8.007,0,0,1-9.225,6.509q-2.4-.4-4.792-.7l-9.6-.789a114.086,114.086,0,0,0-23.384,1.491,8.009,8.009,0,0,1-9.221-6.517A59.442,59.442,0,0,1,32,111.753l1.122-8.568H43.672a113.557,113.557,0,0,0,15.59,1.236Z" transform="translate(-31.458 -102.735)" fill="#b0e7c9"/>
      </g>
      <path id="Path_1245445" data-name="Path 1245445" d="M82.054,134.283q-2.4-.4-4.792-.7l-9.6-.789A113.742,113.742,0,0,0,47.3,133.821a11.283,11.283,0,0,1-12.8-9.976,59.5,59.5,0,0,1,.2-14.282l.434-3.313H33.117L32,114.817a59.446,59.446,0,0,0,.347,18.207,8.035,8.035,0,0,0,9.255,6.511,114.078,114.078,0,0,1,23.351-1.486l9.6.789q2.4.3,4.792.7a8.007,8.007,0,0,0,9.225-6.509c.036-.206.071-.416.1-.622A8.031,8.031,0,0,1,82.054,134.283Z" transform="translate(-28.395 -99.608)" fill="#91deb6"/>
      <g id="Group_1204831" data-name="Group 1204831" transform="translate(0 0)">
        <path id="Path_1245446" data-name="Path 1245446" d="M256.591,87.088a3.741,3.741,0,0,0-2.232.6,1.158,1.158,0,0,1-1.316-.026,2.98,2.98,0,1,0-.828,5.229,1.189,1.189,0,0,1,1.3.347,3.758,3.758,0,1,0,3.077-6.152Z" transform="translate(-217.512 -82.892)" fill="#f9f3f1"/>
        <path id="Path_1245447" data-name="Path 1245447" d="M18.534,57.809h0a.559.559,0,0,1-.512-.321,5.517,5.517,0,1,0-8.412,6.664,1.506,1.506,0,0,1,.525,1.587,3.9,3.9,0,1,0,7.658,1.05c0-.056,0-.111,0-.166a4.438,4.438,0,1,0,.749-8.813Z" transform="translate(-7.5 -54.298)" fill="#f9f3f1"/>
        <path id="Path_1245448" data-name="Path 1245448" d="M145.82,195.967H113.4a2.649,2.649,0,0,1-2.649-2.649v-8.156a2.649,2.649,0,0,1,2.649-2.649H145.82a2.649,2.649,0,0,1,2.649,2.649v8.156A2.649,2.649,0,0,1,145.82,195.967Z" transform="translate(-97.554 -166.122)" fill="#91deb6"/>
        <g id="Group_1204830" data-name="Group 1204830" transform="translate(36.474 12.609)">
          <path id="Path_1245449" data-name="Path 1245449" d="M460.814,159.644a3.3,3.3,0,0,0-.905-1.825,1.021,1.021,0,0,1-.2-1.142,2.626,2.626,0,1,0-4.661.184,1.048,1.048,0,0,1-.076,1.182,3.311,3.311,0,1,0,5.846,1.6Z" transform="translate(-433.593 -152.934)" fill="#f9f3f1"/>
          <path id="Path_1245450" data-name="Path 1245450" d="M297.661,323.957a4.842,4.842,0,0,0-4.842,4.842v9.914a2.305,2.305,0,1,0,4.611,0v-5.078c.076,0,.153.006.231.006a4.842,4.842,0,0,0,0-9.683Z" transform="translate(-292.819 -302.094)" fill="#f9f3f1"/>
        </g>
      </g>
    </g>
    <g id="Group_1204833" data-name="Group 1204833" transform="translate(443.218 8282.142)">
      <path id="Path_1245451" data-name="Path 1245451" d="M106.86,176.929h26.761a.959.959,0,1,0,0-1.918H106.86a3.612,3.612,0,0,0-3.608,3.608v8.156a3.612,3.612,0,0,0,3.608,3.608h32.418a3.612,3.612,0,0,0,3.608-3.608v-8.156a3.612,3.612,0,0,0-3.608-3.608h-1.571a.959.959,0,0,0,0,1.918h1.571a1.693,1.693,0,0,1,1.691,1.691v8.156a1.693,1.693,0,0,1-1.691,1.691H106.86a1.693,1.693,0,0,1-1.691-1.691v-8.156A1.693,1.693,0,0,1,106.86,176.929Z" transform="translate(-90.053 -158.855)"/>
      <path id="Path_1245452" data-name="Path 1245452" d="M65.6,68.532a4.244,4.244,0,0,0-1.168-2.354.07.07,0,0,1-.022-.064,3.582,3.582,0,0,0-2.589-5.046,8.935,8.935,0,0,0-10.1-6.357c-2.464.411-4.96.744-7.43.994a4.719,4.719,0,0,0-7.011-2.356.2.2,0,0,1-.223.006,3.939,3.939,0,0,0-6.253,2.726c-.007.059-.011.117-.015.176a113.252,113.252,0,0,1-13.861-1.13,5.408,5.408,0,0,0-4.7-3.216,6.525,6.525,0,0,0-2.82-2.81.959.959,0,1,0-.872,1.708,4.594,4.594,0,0,1,2.065,2.139,1.527,1.527,0,0,0,1.383.875h0a3.48,3.48,0,0,1,0,6.96,3.522,3.522,0,0,1-.589-.051.959.959,0,0,0-1.119.986c0,.042,0,.083,0,.125A2.942,2.942,0,0,1,7.154,64.78a2.944,2.944,0,0,1-2.641-3.728,2.459,2.459,0,0,0-.855-2.6A4.535,4.535,0,0,1,1.917,54.87a4.6,4.6,0,0,1,3.253-4.363.959.959,0,1,0-.555-1.835A6.53,6.53,0,0,0,0,54.869,6.441,6.441,0,0,0,2.472,59.96a.547.547,0,0,1,.195.576,4.859,4.859,0,0,0,.887,4.341,60.8,60.8,0,0,0-.309,12.353.959.959,0,0,0,.955.884l.076,0a.959.959,0,0,0,.881-1.03,58.767,58.767,0,0,1,.166-10.82,4.821,4.821,0,0,0,1.71.431q.16.01.32.01a4.812,4.812,0,0,0,3.32-1.316A4.881,4.881,0,0,0,12.13,62.7a5.4,5.4,0,0,0,5.26-5.4c0-.059,0-.117,0-.176a115.088,115.088,0,0,0,13.763,1.054,3.939,3.939,0,0,0,4.816,2.084.241.241,0,0,1,.259.049A4.715,4.715,0,0,0,44.559,57.6c2.488-.253,5-.588,7.48-1a7.025,7.025,0,0,1,7.832,4.648,3.584,3.584,0,0,0-1.822,5.115.108.108,0,0,1,.012.1,4.273,4.273,0,0,0,2.982,6.95,58.613,58.613,0,0,1-.859,9.192,7.067,7.067,0,0,1-8.122,5.727c-1.344-.225-2.708-.427-4.066-.606a5.8,5.8,0,0,0-11.221-.912A112.829,112.829,0,0,0,13.97,88.342a7.07,7.07,0,0,1-8.119-5.735c-.078-.448-.154-.926-.24-1.5a.959.959,0,0,0-1.9.28c.088.595.166,1.088.247,1.553a8.882,8.882,0,0,0,2.365,4.653,5.27,5.27,0,0,0,7.9,6.925,3.922,3.922,0,0,0,4.749-4.967q1.106-.14,2.207-.257c0,.073-.007.146-.007.22a3.8,3.8,0,0,0,6.338,2.839,3.8,3.8,0,0,0,6.009-3.1,3.769,3.769,0,0,0-.046-.576q1.5.009,3,.059v9.852a3.264,3.264,0,1,0,6.529,0V94.423a5.813,5.813,0,0,0,4.985-4.756c.813.108,1.626.225,2.436.351a4.2,4.2,0,1,0,7.673-1.1,8.92,8.92,0,0,0,3.978-5.975,60.519,60.519,0,0,0,.892-9.817A4.26,4.26,0,0,0,65.6,68.532ZM41.9,59.218a2.8,2.8,0,0,1-4.2-.128,2.107,2.107,0,0,0-1.63-.76,2.247,2.247,0,0,0-.709.116A2.023,2.023,0,1,1,35.92,54.9a2.122,2.122,0,0,0,2.409.058,2.788,2.788,0,0,1,1.663-.448,2.825,2.825,0,0,1,2.654,2.61,2.778,2.778,0,0,1-.751,2.1ZM17.235,90.712a2.014,2.014,0,0,1-2.012,2.012,1.993,1.993,0,0,1-.864-.194A.959.959,0,0,0,13.2,92.8a3.353,3.353,0,0,1-5.4-3.974,8.94,8.94,0,0,0,6.485,1.41q1.372-.229,2.733-.424A2.009,2.009,0,0,1,17.235,90.712Zm12.478.423a1.875,1.875,0,0,1-1.513-.758.959.959,0,0,0-1.593.088A1.887,1.887,0,0,1,23.136,89.1c2.8-.249,5.584-.39,8.375-.423a1.872,1.872,0,0,1,.09.572,1.891,1.891,0,0,1-1.889,1.889Zm12.561,1.416c-.062,0-.124,0-.186,0a.959.959,0,0,0-1,.958v5.078a1.347,1.347,0,1,1-2.694,0V88.668a3.883,3.883,0,1,1,3.883,3.883Zm14.5-1.489a2.281,2.281,0,1,1-4.434-.754c.3.03.6.047.894.047a8.935,8.935,0,0,0,3.142-.573,2.28,2.28,0,0,1,.4,1.28Zm5.218-19.63a2.353,2.353,0,0,1-2.438-3.755,2,2,0,0,0,.164-2.261,1.669,1.669,0,0,1,1.317-2.488c.047,0,.093-.006.14-.006a1.668,1.668,0,0,1,1.5,2.377,1.985,1.985,0,0,0,.386,2.22,2.338,2.338,0,0,1,.642,1.3A2.374,2.374,0,0,1,61.99,71.432Z" transform="translate(0 -48.63)"/>
    </g>
  </g>
</svg>
