<svg xmlns="http://www.w3.org/2000/svg" width="98" height="97.998" viewBox="0 0 98 97.998">
  <g id="Group_1204529" data-name="Group 1204529" transform="translate(-802.781 -2538.016)">
    <g id="Group_1204237" data-name="Group 1204237" transform="translate(-1 566)">
      <g id="Group_1204143" data-name="Group 1204143" transform="translate(-67.331 1694.852)">
        <g id="Group_1188789" data-name="Group 1188789" transform="translate(871.113 277.164)">
          <path id="Path_1243039" data-name="Path 1243039" d="M41.05,0h0a41.05,41.05,0,0,1,0,82.1h0a41.05,41.05,0,0,1,0-82.1Z" transform="translate(7.951 7.949)" fill="#ffc94a"/>
          <rect id="Rectangle_400907" data-name="Rectangle 400907" width="88.438" height="88.437" rx="44.218" transform="translate(4.782 4.781)" fill="none"/>
          <g id="Group_1098742" data-name="Group 1098742" transform="translate(0)">
            <g id="Rectangle_400898" data-name="Rectangle 400898" transform="translate(0)" fill="none" stroke="#fff" stroke-width="2" opacity="0.859">
              <rect width="98" height="97.999" rx="48.999" stroke="none"/>
              <rect x="1" y="1" width="96" height="95.999" rx="47.999" fill="none"/>
            </g>
            <g id="Rectangle_400907-2" data-name="Rectangle 400907" transform="translate(0)" fill="none" stroke="#0f1f33" stroke-linecap="round" stroke-width="2">
              <rect width="98" height="97.999" rx="48.999" stroke="none"/>
              <rect x="1" y="1" width="96" height="95.999" rx="47.999" fill="none"/>
            </g>
          </g>
        </g>
      </g>
    </g>
    <g id="feed_4089390" transform="translate(822.888 2560.106)">
      <g id="Group_1204275" data-name="Group 1204275" transform="translate(0.868 0.868)">
        <g id="Group_1204264" data-name="Group 1204264" transform="translate(26.026 41.642)">
          <path id="Path_1244764" data-name="Path 1244764" d="M41.41,49.868v.868a8.655,8.655,0,0,1-3.47,6.94,1.74,1.74,0,0,0-1.735-1.735H31V49.868A.87.87,0,0,1,31.868,49h8.675A.87.87,0,0,1,41.41,49.868Z" transform="translate(-31 -49)" fill="#dfb28b"/>
        </g>
        <g id="Group_1204265" data-name="Group 1204265" transform="translate(0 41.642)">
          <path id="Path_1244765" data-name="Path 1244765" d="M23.556,49.868V55.94h-3.47a1.74,1.74,0,0,0-1.735,1.735,1.748,1.748,0,0,0,1.735,1.735H9.675A8.679,8.679,0,0,1,1,50.735v-.868A.87.87,0,0,1,1.868,49H14.013a.87.87,0,0,1,.868.868v2.6a1.74,1.74,0,0,0,1.735,1.735,1.748,1.748,0,0,0,1.735-1.735v-2.6A.87.87,0,0,1,19.218,49h3.47A.87.87,0,0,1,23.556,49.868Z" transform="translate(-1 -49)" fill="#dfb28b"/>
        </g>
        <g id="Group_1204266" data-name="Group 1204266" transform="translate(17.351 41.642)">
          <path id="Path_1244766" data-name="Path 1244766" d="M34.881,55.94a1.74,1.74,0,0,1,1.735,1.735,1.748,1.748,0,0,1-1.735,1.735H22.735A1.748,1.748,0,0,1,21,57.675a1.74,1.74,0,0,1,1.735-1.735h3.47V49.868A.87.87,0,0,0,25.338,49h5.205a.87.87,0,0,0-.868.868V55.94Z" transform="translate(-21 -49)" fill="#69d6f4"/>
        </g>
        <g id="Group_1204267" data-name="Group 1204267" transform="translate(13.013 41.642)">
          <path id="Path_1244767" data-name="Path 1244767" d="M16,49h5.205a.87.87,0,0,0-.868.868v2.6A1.748,1.748,0,0,1,18.6,54.205a1.74,1.74,0,0,1-1.735-1.735v-2.6A.87.87,0,0,0,16,49Z" transform="translate(-16 -49)" fill="#69d6f4"/>
        </g>
        <g id="Group_1204268" data-name="Group 1204268" transform="translate(13.881 6.94)">
          <path id="Path_1244768" data-name="Path 1244768" d="M29.588,15.533l.425,1.275a10.729,10.729,0,0,0-4.563,1.778A10.225,10.225,0,0,0,17,11.6l1.813-1.084A10.551,10.551,0,0,1,24.279,9a10.3,10.3,0,0,1,5.205,1.405h.009a8.47,8.47,0,0,0-.347,2.4,8.572,8.572,0,0,0,.442,2.724Z" transform="translate(-17 -9)" fill="#969faa"/>
        </g>
        <g id="Group_1204269" data-name="Group 1204269" transform="translate(6.94 1.735)">
          <path id="Path_1244769" data-name="Path 1244769" d="M43.988,13.462l3.184-2.655V3l-.616.737a27.7,27.7,0,0,1-8.1,6.637A7.536,7.536,0,0,0,38.5,9.6V6.47h-.868a6.072,6.072,0,0,0-6.073,6.073v3.47h-2.6a10.729,10.729,0,0,0-4.563,1.778c-.174.121-.347.243-.512.373a10.744,10.744,0,0,0-3.331,4.39l-1.961,4.763-1.778,4.312H14.786A5.78,5.78,0,0,0,9,37.415a5.744,5.744,0,0,0,2.316,4.624l1.154.868h8.675l1.414-.85c.087-.052.165-.1.252-.147a13.741,13.741,0,0,1,6.081-1.787h.078a13.7,13.7,0,0,0,12.093-8.805l6.107-2.29v-3.47l-1.648-.416a2.388,2.388,0,0,1-1.319-.85,2.422,2.422,0,0,1-.5-1.475,2.436,2.436,0,0,0-.4-1.336l-.39-.581a5.617,5.617,0,0,1,1.076-7.435Z" transform="translate(-9 -3)" fill="#ccd1d9"/>
        </g>
        <g id="Group_1204270" data-name="Group 1204270" transform="translate(26.026 1.735)">
          <path id="Path_1244770" data-name="Path 1244770" d="M41.41,3V6.47h-.868a6.072,6.072,0,0,0-6.073,6.073v3.47h-2.6l-.425-1.275A8.572,8.572,0,0,1,31,12.014a8.47,8.47,0,0,1,.347-2.4,8.6,8.6,0,0,1,6.836-6.073Z" transform="translate(-31 -3)" fill="#aab2bd"/>
        </g>
        <g id="Group_1204271" data-name="Group 1204271" transform="translate(39.907 9.543)">
          <path id="Path_1244771" data-name="Path 1244771" d="M52.205,12V26.748l-1.648-.416a2.388,2.388,0,0,1-1.319-.85,2.422,2.422,0,0,1-.5-1.475,2.436,2.436,0,0,0-.4-1.336l-.39-.581a5.617,5.617,0,0,1,1.076-7.435Z" transform="translate(-47 -12)" fill="#969faa"/>
        </g>
        <g id="Group_1204272" data-name="Group 1204272" transform="translate(22.556 20.821)">
          <path id="Path_1244772" data-name="Path 1244772" d="M30.47,25h1.735a3.465,3.465,0,0,1-3.47,3.47H27A3.465,3.465,0,0,1,30.47,25Z" transform="translate(-27 -25)" fill="#969faa"/>
        </g>
        <g id="Group_1204273" data-name="Group 1204273" transform="translate(10.41 32.966)">
          <ellipse id="Ellipse_12392" data-name="Ellipse 12392" cx="2" cy="1.5" rx="2" ry="1.5" transform="translate(-0.385 0.06)" fill="#969faa"/>
        </g>
        <g id="Group_1204274" data-name="Group 1204274" transform="translate(45.112)">
          <path id="Path_1244773" data-name="Path 1244773" d="M59.94,1.868V52.185a.87.87,0,0,1-.868.868H53.868A.87.87,0,0,1,53,52.185V1.868A.87.87,0,0,1,53.868,1h5.205A.87.87,0,0,1,59.94,1.868Z" transform="translate(-53 -1)" fill="#d3a06c"/>
        </g>
      </g>
      <g id="Group_1204276" data-name="Group 1204276" transform="translate(0 0)">
        <path id="Path_1244774" data-name="Path 1244774" d="M52.052,0H46.847a1.737,1.737,0,0,0-1.735,1.735v.553l-.411.494a26.8,26.8,0,0,1-6.529,5.663V1.579l-4.239.706A9.424,9.424,0,0,0,26.75,7.993a11.581,11.581,0,0,0-10.636.586L14.3,9.666a.868.868,0,0,0,.338,1.6,9.356,9.356,0,0,1,7.509,5.85,11.581,11.581,0,0,0-3.6,4.7l-3.515,8.539H13.592A6.639,6.639,0,0,0,8.83,41.642H1.735A1.737,1.737,0,0,0,0,43.377v.868a9.554,9.554,0,0,0,9.543,9.543H32.1a2.6,2.6,0,0,0,2.558-2.164,9.454,9.454,0,0,0,3.514-7.379v-.868a1.737,1.737,0,0,0-1.735-1.735H27.761a1.737,1.737,0,0,0-1.735,1.735v2.6h1.735v-2.6h8.675v.868a7.727,7.727,0,0,1-2.219,5.439,2.6,2.6,0,0,0-2.119-1.1H27.761v1.735H32.1a.868.868,0,0,1,0,1.735H19.953a.868.868,0,0,1,0-1.735h4.338v-6.94A1.731,1.731,0,0,0,23.1,41.738a13.089,13.089,0,0,1,4.725-1.149A14.581,14.581,0,0,0,40.535,31.6l4.577-1.717V52.052a1.737,1.737,0,0,0,1.735,1.735h5.205a1.737,1.737,0,0,0,1.735-1.735V1.735A1.737,1.737,0,0,0,52.052,0Zm-6.94,24.047-.573-.143a1.532,1.532,0,0,1-1.162-1.489,3.259,3.259,0,0,0-.549-1.813l-.387-.58a4.757,4.757,0,0,1,.914-6.294l1.758-1.465ZM20.028,8.921a6.768,6.768,0,0,1-1.411,1.83,11.067,11.067,0,0,0-1.582-.7A9.57,9.57,0,0,1,20.028,8.921Zm.109,2.791a8.567,8.567,0,0,0,1.9-3.005,9.633,9.633,0,0,1,3.7.736,6.758,6.758,0,0,1-3.613,4.186,11.2,11.2,0,0,0-1.987-1.916ZM23.1,15.09a8.488,8.488,0,0,0,2.974-2.53,9.451,9.451,0,0,0,.433,2.05l.113.338a11.546,11.546,0,0,0-2.994,1.187A10.8,10.8,0,0,0,23.1,15.09ZM13.592,32.1h1.526l5.315,9.112-.719.431h-.627a1.737,1.737,0,0,0-1.735,1.735v2.6a.868.868,0,1,1-1.735,0v-2.6a1.737,1.737,0,0,0-1.735-1.735h-.508l1.122-1.122-1.227-1.227L11.2,41.364l-.555-.416a4.916,4.916,0,0,1,2.95-8.849Zm8.964,16.483h-2.6a2.6,2.6,0,0,0-2.454,3.47H9.543a7.817,7.817,0,0,1-7.808-7.808v-.868H13.881v2.6a2.6,2.6,0,1,0,5.205,0v-2.6h3.47ZM41.21,29.49a14.582,14.582,0,0,0,.431-3.464H39.907A12.864,12.864,0,0,1,27.654,38.86a14.641,14.641,0,0,0-5.708,1.5l-5.366-9.2,1.208-2.936c.289.193.752.056,1.187-.461.166-.118.238-.674-.513-1.175l1.691-4.107a9.906,9.906,0,0,1,7.729-6.012l1.029-.147-.755-2.265A7.727,7.727,0,0,1,34.217,4l2.219-.37V5.205a6.948,6.948,0,0,0-6.94,6.94h1.735A5.21,5.21,0,0,1,36.436,6.94V9.209a6,6,0,0,1-3.792,5.6l.644,1.61a7.718,7.718,0,0,0,4.763-5.894,28.507,28.507,0,0,0,7.06-5.582V10l-2.87,2.391A6.495,6.495,0,0,0,41,20.984l.387.58a1.533,1.533,0,0,1,.258.851,3.264,3.264,0,0,0,2.477,3.172l.993.249v2.191Zm5.636,22.562V1.735h5.205V52.052Z" transform="translate(0 0)"/>
        <path id="Path_1244775" data-name="Path 1244775" d="M14.6,43.205A2.6,2.6,0,1,0,12,40.6,2.606,2.606,0,0,0,14.6,43.205Zm0-3.47a.868.868,0,1,1-.868.868A.868.868,0,0,1,14.6,39.735Z" transform="translate(-1.59 -5.034)"/>
        <path id="Path_1244776" data-name="Path 1244776" d="M26,28.338v.868h2.6a4.343,4.343,0,0,0,4.338-4.338V24h-2.6A4.343,4.343,0,0,0,26,28.338Zm2.6-.868h-.719a2.608,2.608,0,0,1,2.454-1.735h.719A2.608,2.608,0,0,1,28.6,27.47Z" transform="translate(-3.444 -3.179)"/>
      </g>
    </g>
  </g>
</svg>
