<svg xmlns="http://www.w3.org/2000/svg" width="98" height="97.998" viewBox="0 0 98 97.998">
  <g id="Group_1204930" data-name="Group 1204930" transform="translate(-19616 8745.25)">
    <g id="Group_1204680" data-name="Group 1204680" transform="translate(18813.219 -11283.266)">
      <g id="Group_1204237" data-name="Group 1204237" transform="translate(-1 566)">
        <g id="Group_1204143" data-name="Group 1204143" transform="translate(-67.331 1694.852)">
          <g id="Group_1188789" data-name="Group 1188789" transform="translate(871.113 277.164)">
            <path id="Path_1243039" data-name="Path 1243039" d="M41.05,0h0a41.05,41.05,0,0,1,0,82.1h0a41.05,41.05,0,0,1,0-82.1Z" transform="translate(7.951 7.949)" fill="#ffc94a"/>
            <rect id="Rectangle_400907" data-name="Rectangle 400907" width="88.438" height="88.437" rx="44.218" transform="translate(4.782 4.781)" fill="none"/>
            <g id="Group_1098742" data-name="Group 1098742" transform="translate(0)">
              <g id="Rectangle_400898" data-name="Rectangle 400898" transform="translate(0)" fill="none" stroke="#fff" stroke-width="2" opacity="0.859">
                <rect width="98" height="97.999" rx="48.999" stroke="none"/>
                <rect x="1" y="1" width="96" height="95.999" rx="47.999" fill="none"/>
              </g>
              <g id="Rectangle_400907-2" data-name="Rectangle 400907" transform="translate(0)" fill="none" stroke="#0f1f33" stroke-linecap="round" stroke-width="2">
                <rect width="98" height="97.999" rx="48.999" stroke="none"/>
                <rect x="1" y="1" width="96" height="95.999" rx="47.999" fill="none"/>
              </g>
            </g>
          </g>
        </g>
      </g>
    </g>
    <g id="el-planeta-tierra" transform="translate(19637 -8718.491)">
      <path id="Path_1245917" data-name="Path 1245917" d="M85.073,149.918a17.906,17.906,0,1,0-17.906,17.953A17.93,17.93,0,0,0,85.073,149.918Zm0,0" transform="translate(-43.933 -117.693)" fill="#97c9e8"/>
      <path id="Path_1245918" data-name="Path 1245918" d="M192.532,131.965a18,18,0,0,0-2.7.2,17.963,17.963,0,0,1,0,35.5,17.95,17.95,0,1,0,2.7-35.7Zm0,0" transform="translate(-169.298 -117.693)" fill="#60b6ff"/>
      <g id="Group_1204929" data-name="Group 1204929" transform="translate(5.328 14.308)">
        <path id="Path_1245919" data-name="Path 1245919" d="M161.91,139.238c-2.758,1.728-4.827,4.494-3.275,7.605s5,1.9,8.189,1.469.776,9.42,2.672,11.84,7.24-2.42,6.723-5.532c-.765-4.606-1.034-6.223,5.172-9.507l.017-.006A17.926,17.926,0,0,0,165.359,132.3v.027S164.669,137.509,161.91,139.238Zm0,0" transform="translate(-146.332 -132.297)" fill="#baeb6c"/>
        <path id="Path_1245920" data-name="Path 1245920" d="M318.566,168.6l0,0Zm0,0" transform="translate(-289.442 -164.672)" fill="#baeb6c"/>
        <path id="Path_1245921" data-name="Path 1245921" d="M338.809,187.961h0Zm0,0" transform="translate(-307.495 -181.941)" fill="#baeb6c"/>
        <path id="Path_1245922" data-name="Path 1245922" d="M55.272,254.5c-.828-1.263,1.465-4.235,1.983-6.482s-2.586-2.074-3.534-2.852-2.241-4.148-3.189-4.926l-.152-.12a18,18,0,0,0,6.18,20.72l.005-.376A8.264,8.264,0,0,0,55.272,254.5Zm0,0" transform="translate(-49.262 -228.464)" fill="#baeb6c"/>
        <path id="Path_1245923" data-name="Path 1245923" d="M313.257,338.173c0-.022-.008-.044-.011-.067a17.868,17.868,0,0,1-1.488,3.941A5.234,5.234,0,0,0,313.257,338.173Zm0,0" transform="translate(-283.37 -315.848)" fill="#baeb6c"/>
      </g>
      <path id="Path_1245924" data-name="Path 1245924" d="M223.5,132.3v.027s-.058.433-.206,1.09A17.96,17.96,0,0,1,234.8,148.565c.791-1.082,2.239-2.132,4.73-3.45l.017-.006A17.927,17.927,0,0,0,223.5,132.3Zm0,0" transform="translate(-199.14 -117.989)" fill="#96d629"/>
      <path id="Path_1245925" data-name="Path 1245925" d="M53.367,27.359C44.707,25.89,39.336,14.988,39.336,14.988S48,6.467,56.662,7.936s14.03,12.371,14.03,12.371S62.025,28.828,53.367,27.359Zm0,0" transform="translate(-35.081 -6.926)" fill="#49cb5c"/>
      <path id="Path_1245926" data-name="Path 1245926" d="M159.138,7.942a13.442,13.442,0,0,0-4.9.123c8.3,1.863,13.415,12.248,13.415,12.248s-5.674,5.576-12.426,6.928c.2.046.409.088.616.123,8.659,1.469,17.326-7.052,17.326-7.052S167.8,9.411,159.138,7.942Zm0,0" transform="translate(-137.557 -6.931)" fill="#07b128"/>
      <path id="Path_1245927" data-name="Path 1245927" d="M378.045,30.5c2.323-5.5,10.371-7.347,10.371-7.347s4.282,7.061,1.96,12.558S380,43.053,380,43.053,375.722,35.992,378.045,30.5Zm0,0" transform="translate(-336.544 -20.645)" fill="#49cb5c"/>
      <path id="Path_1245928" data-name="Path 1245928" d="M403.99,23.148a21.535,21.535,0,0,0-4,1.458c1.111,2.355,2.874,7.134,1.2,11.1-1.215,2.875-4,4.753-6.374,5.889.429.909.762,1.457.762,1.457s8.048-1.85,10.371-7.347S403.99,23.148,403.99,23.148Zm0,0" transform="translate(-352.117 -20.645)" fill="#07b128"/>
      <path id="Path_1245929" data-name="Path 1245929" d="M54.5,6.453a22.278,22.278,0,0,0-1.93-4.393.827.827,0,0,0-.875-.37A22.3,22.3,0,0,0,47.2,3.368C44.007,4.96,41.78,7.085,40.754,9.513a11.9,11.9,0,0,0-.371,7.223,23.008,23.008,0,0,0-4.325-3.764A33.5,33.5,0,0,0,32.3,7.21.812.812,0,0,0,31.04,8.234a32.45,32.45,0,0,1,2.993,4.4L26.645,11.2,19.624,1.62a11.465,11.465,0,0,1,2.046.209A14.005,14.005,0,0,1,28.007,5.1.812.812,0,0,0,29.059,3.86,15.6,15.6,0,0,0,21.983.237C18.266-.49,13.931.464,9.446,3A32.367,32.367,0,0,0,3.774,7.051a.858.858,0,0,0-.1,1.114,33.1,33.1,0,0,0,3.638,5.711,25.366,25.366,0,0,0,3.835,3.941q-.567.475-1.1,1a18.753,18.753,0,0,0,6.067,30.779.812.812,0,0,0,.61-1.5,17.125,17.125,0,0,1-3.509-1.93,9.139,9.139,0,0,0-1.377-6.4c-.257-.4.512-1.973.971-2.913A15.233,15.233,0,0,0,14,33.936a2.22,2.22,0,0,0-.789-2.432,5.986,5.986,0,0,0-1.928-.855,4.142,4.142,0,0,1-1.06-.415A10.793,10.793,0,0,1,8.851,28a13.874,13.874,0,0,0-1.482-2.437,17.249,17.249,0,0,1,5.121-6.747,14.184,14.184,0,0,0,6.835,2.54c-2.867,2.221-3.794,5.058-2.468,7.782,1.548,3.181,4.734,2.673,7.545,2.225.486-.078.989-.158,1.471-.218.181-.023.235.027.272.059.616.547.6,3.162.584,5.072-.018,2.641-.035,5.136.949,6.417a2.476,2.476,0,0,0,2.037.987,4.091,4.091,0,0,0,1.6-.362c2.446-1.048,4.99-4.2,4.6-6.7-.339-2.181-.564-3.622-.035-4.784.489-1.075,1.671-2.07,4-3.34A17.129,17.129,0,0,1,21.268,49.235a.812.812,0,0,0-.177,1.612,18.854,18.854,0,0,0,15.182-5.233,18.74,18.74,0,0,0-2.885-29.107c1.072-.764,1.87-1.425,2.313-1.809A21.537,21.537,0,1,1,1.916,28.705a.812.812,0,0,0-1.6-.264A23.152,23.152,0,0,0,19.388,55.057a23.446,23.446,0,0,0,3.822.315A23.168,23.168,0,0,0,44.4,22.972a23.346,23.346,0,0,0,3.74-1.473c3.188-1.592,5.415-3.717,6.441-6.145S55.577,9.849,54.5,6.453Zm-47.08,22.3a10.1,10.1,0,0,0,1.768,2.722,4.648,4.648,0,0,0,1.623.721c1.585.488,1.77.727,1.618,1.354a14.166,14.166,0,0,1-1.072,2.582c-.838,1.714-1.629,3.332-.879,4.5a7.714,7.714,0,0,1,1.228,4.3,17.288,17.288,0,0,1-5-17.492C6.941,27.858,7.192,28.333,7.416,28.757ZM46.662,12.817,44.356,7.23a15.182,15.182,0,0,1,3.532-2.394,21.672,21.672,0,0,1,2.563-1.079Zm5.285-8.431a21.684,21.684,0,0,1,1.015,2.593A15.506,15.506,0,0,1,53.7,10.89l-5.4,2.229Zm-9.7,5.758a7.707,7.707,0,0,1,.906-1.574l2.624,6.359-2.355,5.631a21.578,21.578,0,0,1-1.051-2.671C41.709,15.791,41.149,12.745,42.248,10.144Zm5.2,9.887a21.573,21.573,0,0,1-2.482,1.051l2.444-5.842,6.221-2.567a7.835,7.835,0,0,1-.542,2.05C51.986,17.324,49.411,19.046,47.445,20.032ZM18.2,19.57c-.287-.056-.569-.125-.848-.2l8.977-6.581,7.392,1.441C31.024,16.349,24.471,20.8,18.2,19.57Zm-8.2-5.075A31.583,31.583,0,0,1,5.856,8.8l9.407,1.834ZM11.652,3.672l3.936,5.368L6.12,7.2A31.956,31.956,0,0,1,11.652,3.672ZM17.935,9.5,13.164,2.99A18.245,18.245,0,0,1,17.7,1.735l6.6,9Zm-.5,1.554,6.728,1.311-8.634,6.329a16.781,16.781,0,0,1-4.376-3.035Zm22.01,15.84c-2.924,1.558-4.356,2.782-5.036,4.275-.73,1.6-.462,3.323-.092,5.7.218,1.4-1.45,4.019-3.637,4.955-.809.346-1.385.305-1.713-.122-.645-.839-.627-3.377-.613-5.417.019-2.822.036-5.259-1.128-6.295a1.912,1.912,0,0,0-1.55-.457c-.51.063-1.027.146-1.527.226-2.982.475-4.858.665-5.83-1.333-1.575-3.237,1.613-5.634,3.057-6.515a5.136,5.136,0,0,0,.82-.626A23.584,23.584,0,0,0,31.916,17.5,17.217,17.217,0,0,1,39.441,26.893Zm0,0" transform="translate(0)"/>
    </g>
  </g>
</svg>
